<?xml version="1.0" encoding="utf-8"?>
<!-- Generator: Adobe Illustrator 19.2.0, SVG Export Plug-In . SVG Version: 6.00 Build 0)  -->
<svg version="1.1" id="Layer_1" xmlns="http://www.w3.org/2000/svg" xmlns:xlink="http://www.w3.org/1999/xlink" x="0px" y="0px"
	 viewBox="0 0 256 256" style="enable-background:new 0 0 256 256;" xml:space="preserve">
<style type="text/css">
	.st0{fill:url(#SVGID_1_);stroke:url(#SVGID_2_);stroke-miterlimit:10;}
	.st1{fill:none;stroke:#9DDD22;stroke-miterlimit:10;}
	.st2{fill:url(#SVGID_3_);}
	.st3{fill:#516057;}
	.st4{fill:url(#SVGID_4_);}
	.st5{fill:#559F76;}
	.st6{fill:#006837;stroke:#9DDD22;stroke-miterlimit:10;}
</style>
<linearGradient id="SVGID_1_" gradientUnits="userSpaceOnUse" x1="143.4269" y1="23.3928" x2="122.892" y2="180.5781">
	<stop  offset="0" style="stop-color:#009458;stop-opacity:0.4"/>
	<stop  offset="0.1838" style="stop-color:#07965C;stop-opacity:0.3"/>
	<stop  offset="0.454" style="stop-color:#269E6E;stop-opacity:0.2"/>
	<stop  offset="0.6496" style="stop-color:#4CB084;stop-opacity:0.1"/>
	<stop  offset="1" style="stop-color:#C7C7CB;stop-opacity:0.2"/>
</linearGradient>
<linearGradient id="SVGID_2_" gradientUnits="userSpaceOnUse" x1="15.5723" y1="124.4988" x2="243.4633" y2="124.4988">
	<stop  offset="0" style="stop-color:#FFFFFF"/>
	<stop  offset="1" style="stop-color:#000000"/>
</linearGradient>
<path class="st0" d="M16.1,129.6c0-1.2,2-2,14.7-6.3c11.9-4.1,22.8-11.9,34.4-20.3c0.9-0.6,1.1-0.8,1.6-1.2
	c3.4-2.4,34.7-24.5,67.5-22.6c14.8,0.9,26.8,7.7,50.6,21.3c19.4,11.1,33,17.1,49.6,25.3c4.5,2.2,8.3,2.3,8.3,3.9
	c0,2.1-11,2.9-14,3.3c-29.2,4.5-43.6,26.3-70.4,34c-41,11.7-88.6-16.4-92-18.5c-8.1-4.9-23.7-15.2-44-18.8
	C14.9,128.4,16.1,130.8,16.1,129.6z"/>
<line class="st1" x1="81.9" y1="124.5" x2="148.2" y2="129.8"/>
<line class="st1" x1="102.4" y1="89.6" x2="148.2" y2="129.8"/>
<line class="st1" x1="146" y1="87.1" x2="148.2" y2="129.8"/>
<line class="st1" x1="178.5" y1="106.1" x2="148.2" y2="129.8"/>
<line class="st1" x1="194.4" y1="124.5" x2="148.2" y2="129.8"/>
<line class="st1" x1="192.9" y1="144" x2="148.2" y2="129.8"/>
<line class="st1" x1="136.9" y1="162.2" x2="148.2" y2="129.8"/>
<line class="st1" x1="94.7" y1="146" x2="148.2" y2="129.8"/>
<line class="st1" x1="75.7" y1="104" x2="148.2" y2="129.8"/>
<line class="st1" x1="64" y1="137.9" x2="148.2" y2="129.8"/>
<line class="st1" x1="132.1" y1="86.3" x2="148.2" y2="129.8"/>
<line class="st1" x1="165.1" y1="95.1" x2="148.2" y2="129.8"/>
<line class="st1" x1="192.2" y1="115.5" x2="148.2" y2="129.8"/>
<line class="st1" x1="196.9" y1="133.8" x2="148.2" y2="129.8"/>
<line class="st1" x1="159.2" y1="160.7" x2="148.2" y2="129.8"/>
<line class="st1" x1="172.6" y1="155.6" x2="148.5" y2="130.7"/>
<line class="st1" x1="147.1" y1="163.6" x2="147.1" y2="132.9"/>
<line class="st1" x1="118" y1="159.6" x2="148.2" y2="129.8"/>
<line class="st1" x1="110.5" y1="153" x2="148.2" y2="129.8"/>
<line class="st1" x1="91.8" y1="95.5" x2="148.2" y2="129.8"/>
<line class="st1" x1="66.5" y1="112.4" x2="148.2" y2="129.8"/>
<line class="st1" x1="115.1" y1="86.3" x2="148.2" y2="129.8"/>
<line class="st1" x1="181.6" y1="150.4" x2="148.2" y2="129.8"/>
<line class="st1" x1="128" y1="160.7" x2="148.2" y2="129.8"/>
<g>
	<radialGradient id="SVGID_3_" cx="148.2213" cy="129.7697" r="28.1235" gradientUnits="userSpaceOnUse">
		<stop  offset="0" style="stop-color:#FFFFFF;stop-opacity:0.6"/>
		<stop  offset="0.432" style="stop-color:#F6FBF7;stop-opacity:0.5854"/>
		<stop  offset="0.4367" style="stop-color:#EEF7F0;stop-opacity:0.4962"/>
		<stop  offset="0.8396" style="stop-color:#DCEFE0"/>
		<stop  offset="1" style="stop-color:#6A936F;stop-opacity:0.7"/>
	</radialGradient>
	<path class="st2" d="M178.5,129.8c0,14.2-14.3,25.8-32,25.8S118,144,118,129.8s10.9-25.8,28.6-25.8S178.5,115.5,178.5,129.8z"/>
	<path class="st3" d="M178.5,129.8c0,0,0,0.2,0,0.5c0,0.3,0,0.8-0.1,1.5c-0.1,1.3-0.4,3.2-1.2,5.5c-0.8,2.3-2.3,4.9-4.5,7.5
		c-2.2,2.6-5.2,5-8.9,7c-3.7,2-8.1,3.4-12.8,4c-4.8,0.6-9.9,0.4-15-1.1c-2.5-0.8-5-1.9-7.3-3.4c-2.3-1.5-4.4-3.4-6.1-5.6
		c-3.5-4.5-5.4-10.2-5.4-15.9c0-5.7,1.9-11.4,5.4-15.9c1.7-2.2,3.8-4.1,6.1-5.6c2.3-1.5,4.8-2.6,7.3-3.4c5.1-1.5,10.3-1.7,15-1.1
		c4.8,0.6,9.2,2,12.8,4c3.7,2,6.7,4.4,8.9,7c2.2,2.6,3.7,5.2,4.5,7.5c0.8,2.3,1.1,4.2,1.2,5.5c0.1,0.6,0.1,1.1,0.1,1.5
		C178.5,129.6,178.5,129.8,178.5,129.8z M178.4,129.8c0,0,0-0.2,0-0.5c0-0.3,0-0.8-0.1-1.5c-0.1-1.3-0.4-3.2-1.3-5.5
		c-0.8-2.3-2.3-4.9-4.5-7.4c-2.2-2.5-5.2-5-8.9-6.9c-3.7-1.9-8-3.3-12.8-3.8c-4.7-0.5-9.8-0.3-14.8,1.3c-4.9,1.5-9.7,4.5-13,8.8
		c-3.3,4.3-5.1,9.8-5.1,15.4c0,5.5,1.8,11,5.1,15.3c3.3,4.3,8.1,7.3,13,8.8c5,1.5,10.1,1.8,14.8,1.3c4.7-0.5,9.1-1.9,12.8-3.8
		c3.7-1.9,6.7-4.3,8.9-6.9c2.2-2.5,3.7-5.2,4.5-7.4c0.8-2.3,1.1-4.2,1.3-5.5c0.1-0.6,0.1-1.1,0.1-1.5
		C178.4,129.9,178.4,129.8,178.4,129.8z"/>
</g>
<g>
	<radialGradient id="SVGID_4_" cx="148.2213" cy="129.7697" r="14.1905" gradientUnits="userSpaceOnUse">
		<stop  offset="0" style="stop-color:#B2E0AC"/>
		<stop  offset="1" style="stop-color:#EAF9ED;stop-opacity:0.6167"/>
		<stop  offset="1" style="stop-color:#FFFFFF"/>
	</radialGradient>
	<ellipse class="st4" cx="148.2" cy="129.8" rx="14.1" ry="14.2"/>
	<g>
		<g>
			<g>
				<g>
					<path class="st5" d="M167.2,129.6c-0.1,0.2,0.8,0.1,0.9,0.1C167.9,129.5,167,129.6,167.2,129.6z"/>
					<polygon class="st5" points="165.1,127 165.4,127 164.6,126.8 					"/>
					<path class="st5" d="M164.6,124.6c-1.3,0.6,0.4,0.8,0.1,1.3l-0.3,0.1l1.2-0.1C165.2,125.6,164.3,125.1,164.6,124.6z"/>
					<path class="st5" d="M167,122.3c-0.5,0.3-0.6-0.1,0,0.4c0-0.1,0.1-0.1,0.1-0.1C167,122.5,167,122.4,167,122.3z"/>
					<path class="st5" d="M167.1,122.6C167.2,122.8,167.4,122.2,167.1,122.6L167.1,122.6z"/>
					<path class="st5" d="M166.2,121.4l0.6,0.2c0.3-0.2,0.2-0.6,0.5-0.5C166.9,120.7,166.6,121,166.2,121.4z"/>
					<path class="st5" d="M165.1,121.5l0.3,0.1C165.5,121.5,165.5,121.4,165.1,121.5z"/>
					<path class="st5" d="M166,121.8l-0.6-0.2c-0.2,0.1-0.6,0.3,0.2,0.1C165.2,121.9,165.6,121.8,166,121.8z"/>
					<path class="st5" d="M165.9,122.1c-0.2,0.3-0.3,0.6-0.9,0.5C165.4,123.2,166.4,122.7,165.9,122.1z"/>
					<path class="st5" d="M163.1,125c0,0-0.1,0.1-0.2,0.2c-0.1,0.1-0.2,0.2-0.2,0.2l0.5,0.1C163,125.3,163.5,124.8,163.1,125z"/>
					<path class="st5" d="M165.7,118.8c-0.3,0.1-0.6,0.5-0.9,0.8l0.4,0.1C165.3,119.4,165.3,119.1,165.7,118.8z"/>
					<path class="st5" d="M164.8,119.6l-0.7-0.1C164.2,119.9,164.5,119.8,164.8,119.6z"/>
					<path class="st5" d="M163.7,122.1c0,0,0.3,0,0.6,0c0.3,0,0.6,0.1,0.6,0.1s-0.3-0.1-0.7-0.1c-0.3,0-0.7-0.1-0.7-0.1L163.7,122.1
						z"/>
					<path class="st5" d="M164.8,117.4l0.7-0.2c0,0-0.3,0.1-0.6,0.1c-0.3,0.1-0.6,0.1-0.6,0.1L164.8,117.4z"/>
					<path class="st5" d="M164,116.6c0.6-0.2,0.6-0.8,1-0.9c-0.3-0.2-0.9-0.1-1.4,0.1C164,115.7,164.1,116,164,116.6z"/>
					<path class="st5" d="M162.9,115.9c0.2,0,0.5-0.1,0.7-0.1C163.4,115.7,163.2,115.7,162.9,115.9z"/>
					<path class="st5" d="M163.8,118.9c0.1-0.1,0.5-0.5,0.5-0.8l-0.6,0.6C163.8,118.8,163.8,118.8,163.8,118.9z"/>
					<path class="st5" d="M163.7,118.7L163.7,118.7c-0.1-0.2-0.1-0.3-0.2-0.3C163.6,118.4,163.6,118.5,163.7,118.7z"/>
					<path class="st5" d="M163.9,118.9L163.9,118.9C163.8,118.9,163.8,118.9,163.9,118.9z"/>
					<path class="st5" d="M163.9,120.9c-0.5,0-1.2-0.1-1.6,0.6C162.9,121.4,163.1,120.9,163.9,120.9z"/>
					<path class="st5" d="M163.1,119.7l0.1,0.5c0.2-0.1,0.4-0.4,0.7-0.4L163.1,119.7z"/>
					<polygon class="st5" points="162.7,119.6 163.1,119.7 163.1,119.5 					"/>
					<path class="st5" d="M162.8,117c-0.4,0.1-0.6,0-0.8-0.2c0,0.3,0.1,0.6,0.3,0.7C162.6,117.4,163,117.2,162.8,117z"/>
					<path class="st5" d="M163.2,117.9C163.2,117.9,163.2,117.9,163.2,117.9C163.1,117.9,163.1,118,163.2,117.9z"/>
					<path class="st5" d="M160.3,115.2c0,0,0,0.1-0.1,0.1L160.3,115.2L160.3,115.2z"/>
					<path class="st5" d="M162.2,117.7c0,0.2,0.2,0.2,0.5,0.1c-0.2-0.1-0.3-0.1-0.4-0.2C162.2,117.6,162.2,117.7,162.2,117.7z"/>
					<path class="st5" d="M162.1,115.6c0,0.2-0.1,0.4-0.1,0.6C162.1,116,162.3,115.5,162.1,115.6z"/>
					<path class="st5" d="M163.3,117.7C163.3,117.7,163.3,117.7,163.3,117.7C163.4,117.5,163.4,117.6,163.3,117.7z"/>
					<path class="st5" d="M163.3,117.7c-0.2,0-0.4,0.1-0.6,0.1c0.1,0,0.3,0.1,0.4,0.1C163.2,117.8,163.2,117.7,163.3,117.7z"/>
					<path class="st5" d="M156.4,119.1c0.5-0.6,1.3-1,1-0.1c0.6-0.2,2.2-2.3,2.9-3.7c-0.2,0.3-0.4,0.5-1.1,0.6
						c-0.1,0.4,0,1.3-0.7,1.7c-0.6,0-0.1-0.5-0.1-0.9c-0.5,0.9-1.4,0.8-2.1,2l0.6-0.2C156.8,118.7,156.5,118.9,156.4,119.1z"/>
					<path class="st5" d="M160.8,116l0.2,0c-0.1-0.2,0.1-0.6,0.3-1.2c-0.5,0.1-0.7,0.3-0.9,0.5l0.6,0.7L160.8,116z"/>
					<path class="st5" d="M161.6,116.6c-0.7,0.5-1.3,0.5-1.7,1.3c0.4,0.3,0.7-0.3,1.2-0.3C160.4,117.1,161.6,117.4,161.6,116.6
						c0.2,0.1,0.3,0.2,0.4,0.3c0-0.2,0-0.4,0-0.6c0,0,0,0,0,0.1l0,0l0,0c-0.1,0.1-0.1,0.2-0.1,0.1c0,0,0,0,0,0
						C161.8,116.4,161.7,116.5,161.6,116.6c0-0.3,0.1-0.2,0.3-0.2c0,0,0.1-0.1,0.1-0.1l0,0c0,0-0.9-0.3-0.9-0.3
						C161.1,116.2,161.3,116.3,161.6,116.6z"/>
					<path class="st5" d="M160.5,122.2c0.1-0.1,0.1-0.1,0.2-0.1C160.5,122.1,160.5,122.1,160.5,122.2z"/>
					<path class="st5" d="M160.8,121.7c0.1,0,0.4-0.2,0.4,0c-0.1,0.3-0.4,0.2-0.6,0.4c0.2,0,0.7,0,0.9-0.5l-0.1,0
						c0.1-0.4,0.8-1.3,0.9-1.3C161.8,120.7,161.4,121.1,160.8,121.7z"/>
					<path class="st5" d="M161.2,119.3c0,0-0.2-0.1-0.4-0.1c-0.2,0-0.4-0.1-0.4-0.1l-0.4,0.7l0.3-0.3
						C160.5,119.9,160.9,119.5,161.2,119.3z"/>
					<path class="st5" d="M160.6,114.8l0.7-0.6c0,0-0.3,0.2-0.6,0.4c-0.3,0.2-0.6,0.4-0.6,0.4L160.6,114.8z"/>
					<polygon class="st5" points="159.8,114.3 160.3,113.7 159.8,114 					"/>
					<path class="st5" d="M140.2,134.6l0.2,0C140.3,134.6,140.2,134.6,140.2,134.6z"/>
					<path class="st5" d="M139.8,133.9l-0.4,0.2C139.7,134,139.8,133.9,139.8,133.9z"/>
					<path class="st5" d="M138.1,113.5c-0.6-0.5-1.6-1.2-1.1-0.5l0.6,0.7C137.7,113.4,137.9,113.4,138.1,113.5z"/>
					<path class="st5" d="M134.6,127c0.1,0,0.2,0,0.3,0c-0.3-0.1-0.5-0.2-0.8-0.3C134.2,126.8,134.4,126.9,134.6,127z"/>
					<path class="st5" d="M138.1,127.8l-0.6,0.1C137.7,127.9,137.9,127.9,138.1,127.8z"/>
					<path class="st5" d="M143.4,136.8l0.6-0.7C143.9,136.1,143.7,136.5,143.4,136.8z"/>
					<path class="st5" d="M150.9,111c-0.2-0.4-0.4-0.5-0.6-0.6C150.6,110.9,150.7,111.7,150.9,111z"/>
					<path class="st5" d="M131.9,138.8c0.2,0,0.4,0,0.5-0.1C132.3,138.6,132.1,138.6,131.9,138.8z"/>
					<path class="st5" d="M149.6,110.3c0,0.1,0.1,0.1,0.1,0.2c0.2-0.1,0.4-0.2,0.6-0.2C150.1,110,149.9,109.7,149.6,110.3z"/>
					<path class="st5" d="M155.8,135c0,0,0.1,0,0.1,0C155.8,134.9,155.8,134.9,155.8,135z"/>
					<path class="st5" d="M166,132.2c0,0.1,0,0.2,0,0.3C166.1,132.5,166.1,132.3,166,132.2z"/>
					<path class="st5" d="M156.7,112C156.9,112.1,156.8,112,156.7,112L156.7,112z"/>
					<path class="st5" d="M155.9,115.5c-0.1,0.1-0.2,0.2-0.3,0.3C155.8,115.6,155.9,115.5,155.9,115.5z"/>
					<path class="st5" d="M147.7,115.7L147.7,115.7C147.8,115.8,147.8,115.8,147.7,115.7z"/>
					<path class="st5" d="M156.8,112.5c0-0.1-0.1-0.2-0.1-0.3C156.7,112.3,156.7,112.4,156.8,112.5z"/>
					<path class="st5" d="M156.9,112.1c0,0.1,0.1,0.1,0.1,0.2C157.2,112.2,157.2,112.1,156.9,112.1z"/>
					<path class="st5" d="M156.4,112c0.1,0,0.2,0.1,0.3,0.2c0-0.1,0-0.1,0-0.1C156.6,112,156.6,112,156.4,112z"/>
					<path class="st5" d="M149.7,141.3C149.7,141.3,149.8,141.3,149.7,141.3C149.8,141,149.8,141,149.7,141.3z"/>
					<polygon class="st5" points="140.8,122.8 140.8,122.8 140.8,122.8 					"/>
					<path class="st5" d="M141.1,123.5c-0.7-0.8-0.5-0.8-0.3-0.7l-1.9-1.6c0,0,0.6,0.6,1.1,1.2C140.5,123,141.1,123.5,141.1,123.5z"
						/>
					<path class="st5" d="M141.4,135.9c0,0,0.1-0.2,0.2-0.3c0.1-0.2,0.2-0.3,0.2-0.3c1.2-0.6,0.9-0.3,1.6-1.1
						c-1,0.9-1.2,0.8-1.4,0.7c-0.2-0.1-0.3-0.2-1.5,0.5l0.4-0.5c0,0,0.1,0,0.1,0c0.9-1-1.8,0.9-1.7,0.3c0.1-0.2,0.4-0.5,0.7-0.6
						c0,0-0.2,0-0.4,0c-0.2,0-0.4,0-0.4,0c0-0.1,0.4-0.3,0.4-0.2c0,0-0.4-0.3-0.4-0.3l0.1,0c-0.4,0.1-1.1,0.2-1.4,0.3
						c0.3-0.3,0.3-0.1,0.6-0.2c0,0-0.2,0-0.4,0c-0.2,0-0.4,0-0.4,0c0.6-0.4,1.3-0.4,1.3-0.2c1.2-0.7,1-0.6,0.7-0.6
						c-0.3,0-0.8,0.1-0.1-0.4l0.4,0.1c1.4-0.7,0.8-0.6,1.6-1.1c-0.5,0.2-2.1,1.2-2.9,1.2c0.2-0.1,0.2-0.3-0.4-0.3
						c0.9-0.3,0.7-0.4,0.6-0.5l1.2-0.3c-0.4-0.1-1,0.1-1.6,0.1c0.1-0.3,1-0.5,1.8-0.7c0.2-0.4-1.5,0.5-1.8,0.2
						c0.5-0.4-0.1-0.5-0.9-0.8c0.4-0.3,0.8,0,1.1-0.1l-1-0.1c0-0.1,0.3-0.1,0.5-0.1c-0.4-0.2-1.3,0.1-1.6-0.2
						c-0.7,0-0.2-0.2,0.3-0.4c0.5-0.2,1-0.4,0.2-0.6c0.4-0.1,0.8,0.1,1.3,0.1c-1-0.5-0.8-0.4-2.1-1c0,0,0.2-0.1,0.4-0.1
						c0.2-0.1,0.4-0.1,0.4-0.1c-1,0.1-2.1-0.4-2.9-0.9c-0.5,0-0.9,0.1-1.1,0.1c0,0-0.1-0.2-0.3-0.4c-0.1-0.2-0.3-0.4-0.3-0.4
						c0.2,0,0.6,0.1,1.1,0.3c-0.1-0.1-0.2-0.1-0.3-0.2c0.5-0.1,1.2,0.2,1.9,0.5c-0.3,0-0.5,0-0.8,0c0.7,0.3,1.6,0.6,2.3,0.7
						c-0.1-0.1-0.3-0.1-0.3-0.2c0.2,0.1,0.4,0.1,0.5,0.1c0.1,0-0.1-0.1-0.4-0.2l1.4,0.2l-0.5-0.1c0,0,0.3-0.1,0.5-0.2
						c0.2-0.1,0.5-0.2,0.5-0.2c-1.3-0.8-3.1-1.8-3.4-2.9c0.9,0.6,1.6,0.7,2.7,1.2c-1.3-0.3,0.3,0.7,0,0.9c0.2-0.1,0.7,0.1,0.9,0.2
						c0,0-0.2-0.2-0.5-0.5c-0.2-0.3-0.5-0.5-0.5-0.5c0.9,0.4,0.7,0.2,1.2,0.2c-1.9-0.7-1-1-1.4-1.5c0.6,0.3,1.2,0.7,0.9,0.9
						c1.5,0.4-1.9-1.5-0.6-1.2c0,0.1-0.1,0.1,0.1,0.3c-0.4-0.5,0.2-0.6,0.7-0.2l0,0.1c0.4-0.3,0.9-1.2-0.4-2.4
						c0.2,0.1,1.5,1.4,1.8,1.6c0,0-1-1.1-1.9-2.2c-0.9-1.1-1.7-2.4-1.7-2.4c1,1.1,3.7,3.2,4.1,4.1c0.2,0.1,0.5,0.1,0.3-0.4
						c-0.2-0.1-1.6-1.3-1.7-1.5c1.4,0.9,0.8,0.5,2,1.2c-0.3-0.2-1.7-1.9-1.5-2c0.2,0.3,1.5,1.7,1.6,1.9c0,0-0.3-0.5-0.6-1
						c-0.3-0.5-0.5-1-0.5-1c0.1,0.4,1.2,1.5,1.7,1.9c-0.3-0.3,0.3-0.2,0.3-0.4l-0.5-0.3c0.6,0-1.4-2.9-0.7-3.2
						c0.2,0.4,1.3,2.5,1.7,2.6c-0.2-0.5-0.8-1.8-1.3-3.1c-0.4-1.3-0.7-2.6-0.6-3.2l0.4,0.5c0,0,0-0.2,0.1-0.5c0-0.2,0.1-0.5,0.1-0.5
						c0.2,0.9,0.4,2.2,0.7,3.5c0.3,1.3,0.7,2.5,0.9,3.2c0.4,0.4,0.4,0.7,0.6,0.5c0.4,0.5,0.3,0.9,0.3,1l0.7,0.1
						c-0.6-1.2-0.1-1.4-0.6-2.4c0,0-0.1,0.4-0.1,0.8c0,0.4,0,0.8,0,0.8c-0.3-0.6-0.6-1.5-0.8-2.3c-0.2-0.8-0.1-1.4,0.2-1.4
						c0.3,0.5,0.8,2.3,0.9,2.7c-0.1-0.4,0.1-1,0.3-0.7l0.1,0.7c0.4,0.4-0.1-1.9,0.5-0.7c0.1,0.1,0.7,1.6,0.6,0.8
						c-0.5-1.5-1.8-6-1.9-7.2c0.1,0.1,1.2,1.2,1.5,1.9c0.4,1.2,0.2,2.9,0.6,3.9c-0.1-0.4,0-0.8,0-1c0.2,0.3,0.1,1.1,0.4,0.9
						c-0.2-1.4,0.6,0,0-1.2c0.2-0.4,0.3,0.2,0.6,0.1c-0.2-0.9,0.1-3,0.4-3.4c0,0.3,0.1,0.8,0.1,1c0.7,0.1,1,0.8,1.6,0.8
						c0,0.3,0.3,0.7,0.1,1.3c0.1-0.2,0.2-0.7,0.4-0.7c0.2,1.2-0.4,0.1-0.3,1.6c0.1-0.8,0.6-1,0.9-1.5c0.1-1.2-0.6-0.3-0.9,0.1
						c0.2-1.7,0.9-3.4,1.8-4c0.7-0.3,0,1.1,0.2,0.9c0.5,0.3,0.9-0.4,1.3-0.9c0.4-0.5,0.8-1,1.1-0.2c0,1.1-0.7,2-0.9,2.8
						c-0.5,0.2-0.4-0.9-0.8-0.9l0.2,0.6c-0.2,0.3-0.6,0.5-0.7,0.2c0,1,1.6,0.7,1.9,1.8c0.3-0.3,0.6-0.5,0.7-0.9l-0.3,0
						c0.1-0.9,1-0.9,0.8-1.4c0.6-0.4,1.5-1.1,1.7-0.3l-0.5,1.1c0.2-0.3,0.1-0.8-0.2-0.6c0.5-0.3-0.2,1.8,0.9,0.6l0.1-0.9
						c0.6-0.3,1.8-1.1,2-0.5c0.5-1.1-0.2,0,0.3-1.4c-0.7,1.6-1.2-0.8-1.7,1c0.5-1.6-0.2-1,0-2.4c-0.2,0.4-0.2,0.8-0.5,0.4
						c-0.1,0.1-0.2,0.2-0.3,0.3c0,0,0,0,0,0l0,0.1c0,0-0.1,0.1,0,0c0,0.2,0,0.4-0.1,0.7c-0.6,0.7-1.2,0.4-1.6,0.7
						c-0.1-0.3,0.3-0.4,0.3-0.8c0,0-0.2,0.1-0.3,0.3c-0.1,0.1-0.3,0.3-0.3,0.3c0.3-0.8-0.1-1.6,0.7-1.9l-0.5-0.2
						c-0.1-0.6-0.6-1-1-0.7c-0.2-0.3-1,0.8-0.5,0.2l-1,0.3l0-0.2c-0.4-0.2-1,0.1-1.4,0.2c-0.5,0.1-0.9,0-1.4-0.8
						c-0.3,0.2-0.6,0.5-1.1,0.2l-0.1-0.8c-0.4,0.2-1.2-0.7-1.4,0.1c-0.3-1-0.8-1.1-1.3-0.9c-0.5,0.2-1.1,0.6-1.5,0.5l0.2,1
						c-0.5,0-0.9,0.4-1.3,1l0.3,0.9c-0.2,0.8-1.4-0.2-2.1,0.1c-0.1-0.3,0.1-0.3,0.3-0.2c-0.8-0.8-1.2-0.2-1.4,0.4
						c-0.3,0.6-0.4,1.2-1.1,0.8c0,0.4-0.2,0.4-0.4,0.3c0,0,0,0,0-0.1c0,0-0.1,0-0.1,0c-0.2-0.1-0.3-0.2-0.5-0.3
						c0.2,0.1,0.4,0.2,0.5,0.3c-0.1,0.1-0.3,0.3-0.4,0.6l-0.6-0.7c0,0,0,0,0,0.1c-0.4-0.2,0.1,0.5,0.6,1c0,0.2,0,0.4,0.1,0.7
						c-1.1-1.2-0.2,0.8-1.4-0.4c0.2,0.4,0,0.7,0,1c0,0.4,0,0.9,0.5,1.5c-0.2-0.2-0.3-0.2-0.2-0.3c-0.3,0-0.6,0-0.4,0.5l-0.9-0.8
						c0,0,0.2,0.4,0.4,0.8c0.2,0.4,0.4,0.8,0.4,0.8c-0.7-0.3-1.2-0.5-1.6-1.4c0.5,1.6-0.1,0.9,0.6,2.3l-0.6-0.5
						c-0.1,0.2,0.5,1.2-0.1,0.9c-0.8-0.2-1.2,0.3-1.6,0.9c-0.5,0.6-0.8,1.4-1.8,1.8c1.1,0.3,0.8,0.4,0.4,0.4c-0.4,0.1-0.8,0.2,0,0.5
						c-0.5-0.1-0.9,0-1.3-0.4c0.3,0.9-1.2,0.8,0.1,1.8c-0.6-0.1-0.7-0.4-1.1-0.4c0.1,0.1,0.4,0.4,0.1,0.4c-0.3,0-0.4-0.2-0.6-0.4
						c-0.1,0.8,1.5,1.3,3.1,1.7c-0.8,0.2-0.8,0.4,0.2,0.8c-0.5,0-1.1,0.1-1.2-0.3c-0.1,0.2-1,1.5,0.3,1.6c-0.3,0-0.1,0.3,0,0.4
						c-0.1,0.5-0.2,0.6-0.1,1.1l0.2-0.1c1.5,0.2,0.3,0.4,0.5,0.9l-0.2,0c-1,1,0.5,0.4-0.6,1.4l0.9-0.2c1-0.1,0.8,0.1,0.3,0.5
						c-0.4,0.3-1,0.8-0.5,1l0.5-0.3c0.4,0.1-0.3,0.4-1,0.8c-0.7,0.4-1.6,0.9-1.7,1.1c-0.2,0.1-0.3,0-0.5-0.1
						c-0.9,1.2,1.2-0.2,1.7,0.4c-0.6,0.3-1.7,0.3-1.7,0.8c-0.2,0.2,0.4,0.4,1,0.6c0.6,0.2,1,0.5,0.6,1c0.4-0.3,0.8-0.6,1.3-0.5
						c0.3,0.3-1.2,2,0.4,1.6c-0.1,0.1-0.2,0.2-0.3,0.3c0.6,0.1,1.2,0.6,2,0.3c-1.3,1-0.6,1.3,0,1.4c0.6,0.1,1.3,0.1,0.1,1.1l0.8,0.7
						l-0.2,0.2c0.3,0.7,1.1,0.3,1.7-0.1c0,0.3-0.3,0.4-0.4,0.5c0.3,1.1,0.6,1.1,2.1,0.4l-0.5,0.9c0.3-0.2,0.3,0.4,0.5,0.9
						c0.2,0.5,0.6,1,1.3,0.8c-0.1,0.1-0.2,0.3-0.3,0.3c0.8-0.3,1.1,0.7,1.5,1.2c0.4,0.6,0.9,0.8,1.7-0.8c0,0,0.2-0.1,0.5-0.3
						c0.2-0.2,0.5-0.3,0.5-0.3c-0.8-0.5,0.6-1.5,0.4-2.1c0.3-0.1,0.5,1.3,0.1,1.3l0-0.2c-0.6,1.8,0.9,0.9,0.6,2.2
						c1.8,0.3,3.6,1.3,5.4,1.3l-0.4-1.4l0.6,0c0.2,0.3,0.4,1.1-0.1,1.1c0.3,0.8,0.6-0.8,0.6-1.1c0.9,0.5,0,1.7,0.2,1.7l0.4-0.2
						l-0.1-0.2c0.2-0.6,0.1-1.2,0.6-1.3c0.4,0.2,0.4,0.8,0.5,0.9c0,0.1,0.1,0.1,0.2,0l0.8-0.1l-0.6-1c0.2-0.6,0.7-0.1,0-1.3
						c0.5,0.9,1.3,0.8,1.9,0.6c0.6-0.3,1.1-0.7,1.4-0.5c0-0.9,0.4-1.2,0.9-1.4c-0.2-0.1-1-1.2-0.5-1.3c1.3,2.3,1.3,0.5,2.8,1.8
						c-0.5-0.4-0.3-0.7-0.1-1c0.2-0.3,0.2-0.7-0.6-1.2c0.4-0.1,0.7,0.7,1.3,1c0-0.7,0.5-0.9,1.1-1.2c0.6-0.3,1.3-0.5,1.5-1.1
						c-0.3-0.2-0.8-0.4-1.1-0.9c0,0,0.4,0.1,0.9,0.3c0.5,0.1,0.9,0.2,0.9,0.2c0-0.3-1.5-1.3-0.3-1c-0.3-0.1-0.7-0.3-0.7-0.5
						c1.4-0.5,1.6-1.8,1.9-3c0.1-0.6,0.3-1.2,0.6-1.7c0.3-0.5,0.9-1,1.8-1.6c-0.7,0.2-0.8,0-0.7-0.3c-0.2,0.1-0.9-0.1-1.3-0.2
						c0,0,0.4-0.2,0.7-0.4c0.4-0.2,0.7-0.4,0.7-0.4c-1.3-0.3,0-1.1-1.3-1.3l0.2,0.3c-0.7-0.2-1.6-0.1-2.5,0
						c-0.9,0.1-1.8,0.2-2.8,0.1c0.8,0.2,0.2,0.4-0.4,0.6c-0.6,0.2-1,0.3,0.1,0.8c-0.4,0-0.6-0.2-1-0.2c0.8,0.3,0.9,0.5,0.5,0.7
						l-0.2-0.1c0,0.8-0.9,0.9-1.7,1.4l0.9,0.3c-0.2,0.1-0.5,0-0.7,0c1.2,0.8,0.3-0.4,1.7,0.4c-0.9-0.3-1.1,0-1.3,0.3
						c-0.2,0.3-0.4,0.5-1.4,0c-0.1,0.2,1,0.5,0.8,0.7l-0.5-0.3l0.6,0.5c-0.2,0.1-0.9-0.3-1.3-0.5c0.1,0,0-0.2-0.1-0.2
						c-0.7-0.2-0.2,0.6-0.4,0.5l0.4,0c0,0.5-0.3,0.7-0.5,1c-0.2,0.3-0.5,0.6-0.3,1.3l0.3,0.3c0.1,1-0.7-0.1-0.9,0.6l0-0.1
						c0.2,0.4,0.1,0.7-0.1,0.8c-0.1-0.5-0.8-0.7-0.9-1.3c0,1.1,0.1,0.7,0.6,2.4l-0.4-0.6c0.2,0.7,0.3,1,0.1,1.3
						c0-0.7-0.7-0.9-0.8-1.8c-0.6-0.6-0.7-0.1-0.7,0.2c-0.1,0.4-0.2,0.6-0.7-0.4c0.4,2.1,0.9,0.9,0.9,1.3c0.4,0.6,0.3,1.5,0,1.4
						c-0.3,0.1-1.2-2.4-1.6-2.2c0.1,0,0-0.2,0.1-0.2c-0.3-0.5-0.2,0.8-0.6,0c0.1,1.2-0.3,0-0.1,1.5l0.4-0.4
						c-0.2,0.4-0.2,2.3-0.9,1.5c0-0.3,0.1-0.8,0.2-1c-0.2-0.4-0.2,0.4-0.4-0.1c-0.1-1.6,0.6-0.4,0.7-1.7c-0.2-0.6-0.3,1.2-0.4-0.5
						c0.1,1.1-0.1,1-0.2,0.9c-0.2-0.1-0.3-0.3-0.4,0.5l0-0.9c0,0.2-0.1,0.6-0.2,0.6l0.1-1.2c-0.2,1.1-0.5-0.9-0.7-0.3
						c0.5,0,0.1,1.2,0.3,1.8c-0.8,1.2-0.3-2.5-1-2.1c0.1-0.1,0.3,0.6,0.1,1c-0.1-0.2-0.3-0.6-0.3-1.1c-0.5,0.1-0.1,1-0.3,1.5
						c0-1.2-0.3,0.4-0.6,0.8l0.2-0.9c-0.4-0.7-0.6,1.9-0.9,1.1c0,0,0.1-0.3,0.3-0.6c0.1-0.3,0.3-0.6,0.3-0.6l-0.3,0.3l0.3-1
						c-0.5,0.7-0.5,0.5-0.7,0.1c-0.2,0.7-0.6,1.6-0.9,1.6c0-0.6,0.4-0.8,0-0.8c0.3-0.5,0.6-1.2,0.5-0.3c0.1-0.3,0.3-0.5,0.4-0.8
						c0.1-0.7-0.3-0.3-0.4-0.3c0,0,0.1,0.1,0,0.2c0,0-0.2,0.3-0.5,0.5c-0.3,0.2-0.5,0.5-0.5,0.5c0.1-0.4,0.3-0.6,0.4-0.8
						c-0.1,0.1-0.4,0.4-0.6,0.4c0.4-0.7,0.7-1.4,1.1-1.7c0,0-0.2,0.2-0.4,0.3c-0.2,0.1-0.4,0.3-0.4,0.3c0.1-0.3,0.3-0.9,0.4-1.1
						c0.1-0.5-1.3,1-1.2,0.3c-0.1,0.1-0.2,0.2-0.3,0.3c-0.2-0.4,0.3-1.2-0.7-0.6c0,0,0.2-0.3,0.4-0.6c0.2-0.3,0.4-0.6,0.4-0.6
						c-0.4,0.1-1,1.5-1.7,1.5c-0.6,0.1,0.7-0.9,0.9-1.3c-0.6,0.4-1.9,1.1-1.3,0.1C141.4,135.7,141.3,135.9,141.4,135.9z M139,133
						c0.2,0,0.9-0.1,0.3,0.2C138.3,133.5,138.8,133.2,139,133z M136.5,126.7c0.3,0.1,0.1,0.2-0.3,0.2
						C136.2,126.8,136.3,126.7,136.5,126.7z M154.4,111.9C154.4,111.9,154.4,111.9,154.4,111.9C154.2,111.5,154.2,111.7,154.4,111.9
						z M154.9,112.5c0.1-0.1,0.2-0.2,0.2-0.4c-0.1,0.2-0.3,0.2-0.4,0.1C154.6,112.5,154.6,112.7,154.9,112.5z M152.6,147.3l-0.2-0.2
						C152.6,146.8,152.6,147,152.6,147.3z"/>
					<path class="st5" d="M137.7,127.7c-0.2,0-0.3,0-0.5-0.1C137.3,127.7,137.5,127.8,137.7,127.7z"/>
					<path class="st5" d="M143.3,137C143.3,137,143.3,137,143.3,137l0.1-0.1L143.3,137z"/>
					<path class="st5" d="M146.5,119.6c-0.1-0.1-0.2-0.3-0.2-0.5C146.3,119.4,146.3,119.6,146.5,119.6z"/>
					<path class="st5" d="M158.8,112.7l-0.5,0c0.2,0.1,0.2,0.3,0.2,0.5C158.5,112.9,158.6,112.6,158.8,112.7z"/>
					<path class="st5" d="M157.8,119.4c0.1-0.1,0.1,0.1,0.2,0l0.3-0.3C158.1,119,157.8,119.1,157.8,119.4z"/>
					<path class="st5" d="M157.4,115.6c-0.4,0.7-0.1,0.6,0.2,0.6c0,0,0,0,0,0C158.3,115.3,157.8,115.4,157.4,115.6z"/>
					<path class="st5" d="M157.7,116.2c0.1,0,0.2,0,0.2,0.1C158.1,116,157.8,116.2,157.7,116.2z"/>
					<path class="st5" d="M155.8,112.4c0,0.3,0.5-0.9,0.4-0.6C156.8,110.9,154.9,112.5,155.8,112.4z"/>
					<polygon class="st5" points="156.1,117.9 156.5,117 156,117.6 					"/>
					<path class="st5" d="M154.9,116.4l0.2,0.4c0.1-0.2,0.2-0.2,0.3-0.3C155.1,116.4,155,116.1,154.9,116.4z"/>
					<path class="st5" d="M155.3,116.5c0.1,0.1,0.2,0.1,0.3,0C155.6,116.5,155.5,116.5,155.3,116.5z"/>
					<polygon class="st5" points="155.5,117.9 155.5,117.7 155.3,117.5 					"/>
					<path class="st5" d="M151.1,114.9l-0.5,0.2c-0.1,0.3,0,0.6,0.1,0.4C150.9,115.3,151.1,115.2,151.1,114.9z"/>
					<path class="st5" d="M151.6,117.8c0-0.2,0-0.4,0.1-0.8l-0.3,1.2L151.6,117.8z"/>
					<path class="st5" d="M150.6,117.9c-0.1,0.3-0.6,0.9-0.2,0.9C150.4,118.4,150.8,118.2,150.6,117.9z"/>
					<polygon class="st5" points="145.3,116.4 145.4,116.3 144.9,114.4 					"/>
					<path class="st5" d="M143.5,122.4c0.5,0.3-0.6-1.1-0.1-0.7c-0.2-0.5-0.5-0.3-0.6-0.7C142.9,121.5,142.6,121.3,143.5,122.4z"/>
					<path class="st5" d="M142.8,121c0-0.1,0-0.2-0.1-0.3C142.7,120.8,142.7,120.9,142.8,121z"/>
					<polygon class="st5" points="167.2,130.9 167.7,130.5 167,130.7 					"/>
					<path class="st5" d="M165.7,130.1l1.3-0.1l-1.2-0.2C165.9,129.9,166,130,165.7,130.1z"/>
					<path class="st5" d="M141.4,131.8l-0.3,0.1c-0.3,0.1-0.3,0.2-0.4,0.3L141.4,131.8z"/>
					<polygon class="st5" points="141.4,134.1 141.4,134.1 140.4,134.8 					"/>
					<path class="st5" d="M143.6,134.6c0-0.1-0.3,0-0.3,0C143.6,134.5,142.6,135.6,143.6,134.6z"/>
				</g>
			</g>
		</g>
	</g>
</g>
<path class="st6" d="M15.7,130.6c-0.1-0.6,7.9-5,12.1-6.9c22.7-10.2,30.6-20,42.1-28c3.5-2.4,34.4-25.6,66.3-22.3
	c36.2,3.7,69.4,41.3,99.3,52.5c1.5,0.6,8.4,3.3,8.2,3.7c-0.1,0.3-5.1-1.1-7.8-1.9c-11.8-3.5-21-8.1-27.5-11.7
	c-7.6-4.2-8.6-5.3-20.6-12.8c-13.7-8.6-20.6-12.8-25.3-15c-20-9.4-39.7-7.8-46.1-7.1c-21.7,2.5-37.3,12.9-44.4,17.6
	c-9,6-15.9,14.8-29.8,21c-11.3,5-5.5,2.4-14,5.6C21.9,127.8,15.8,131.1,15.7,130.6z"/>
</svg>
