<?xml version="1.0" encoding="utf-8"?>
<!DOCTYPE svg PUBLIC "-//W3C//DTD SVG 1.1//EN" "http://www.w3.org/Graphics/SVG/1.1/DTD/svg11.dtd">
<svg version="1.1" id="iCity" xmlns="http://www.w3.org/2000/svg" xmlns:xlink="http://www.w3.org/1999/xlink" x="0px" y="0px" width="100%" height="100%" viewBox="0 0 48 48" preserveAspectRatio="xMidYMid meet">
<path id="building3" fill-rule="evenodd" clip-rule="evenodd" fill="#ffffff" d="M30.0146484,22.1010742
	c0.15625,0.0078125,0.3134766,0.0219727,0.4697266,0.0219727c3.9345703,0.0009766,7.8701172,0.0004883,11.8046875,0.0004883
	c0.1533203,0,0.3076172,0,0.5068359,0c0,0.2089844,0,0.3769531,0,0.5449219c0,6.9389648,0,13.878418,0,20.8178711
	c0,0.171875,0.0097656,0.3427734,0.0146484,0.5136719c-4.265625,0-8.5302734,0-12.7958984,0
	C30.0146484,36.7011719,30.0146484,29.4003906,30.0146484,22.1010742z M31.8271484,25.7070313c0,1.3154297,0,2.5810547,0,3.8535156
	c1.2529297,0,2.4746094,0,3.7402344,0c0-1.3017578,0-2.5761719,0-3.8535156
	C34.3076172,25.7070313,33.0810547,25.7070313,31.8271484,25.7070313z M37.3242188,36.7041016c0,1.3125,0,2.5771484,0,3.8496094
	c1.2646484,0,2.5,0,3.7275391,0c0.0136719-0.0517578,0.0253906-0.078125,0.0253906-0.1044922
	c0.0107422-1.0546875,0.0253906-2.1103516,0.0273438-3.1660156c0-0.1914063-0.0478516-0.3837891-0.0742188-0.5791016
	C39.7734375,36.7041016,38.5625,36.7041016,37.3242188,36.7041016z M37.3242188,25.7226563c0,1.2773438,0,2.5097656,0,3.75
	c1.25,0,2.4707031,0,3.7451172,0c0.0244141-1.2617188,0.0380859-2.4921875-0.0146484-3.75
	C39.7919922,25.7226563,38.5830078,25.7226563,37.3242188,25.7226563z M37.3125,34.96875c1.2597656,0,2.4677734,0,3.671875,0
	c0.0820313-0.6650391,0.0546875-3.4296875-0.0361328-3.7392578c-1.2041016,0-2.4111328,0-3.6357422,0
	C37.3125,32.4941406,37.3125,33.71875,37.3125,34.96875z M31.8271484,36.78125c0,1.2421875,0,2.4599609,0,3.6855469
	c1.25,0,2.46875,0,3.734375,0c0.0419922-1.2421875,0.0449219-2.4570313,0.0078125-3.6855469
	C34.2880859,36.78125,33.0673828,36.78125,31.8271484,36.78125z M35.5068359,31.2890625c-1.2539063,0-2.4619141,0-3.7119141,0
	c0.0087891,1.2470703-0.0166016,2.4648438,0.0166016,3.6826172c1.2607422,0,2.46875,0,3.6953125,0
	C35.5068359,33.7373047,35.5068359,32.5292969,35.5068359,31.2890625z"/>
<path id="building2" fill-rule="evenodd" clip-rule="evenodd" fill="#ffffff" d="M14.7373047,9.5102539
	c1.2290039,0,2.4125977,0,3.6586914,0c0.03125-1.2270508-0.0019531-2.4208984,0.0195313-3.6494141
	c0.6210938,0,1.2167969,0,1.8730469,0c0.0039063-0.6000977,0.0078125-1.1660156,0.0097656-1.7319336
	c0-0.5864258,0-1.1733398,0-1.7597656c0-0.5708008,0-1.1411133,0-1.7431641c0.5039063,0,0.9804688,0,1.5097656,0
	c0,1.7231445,0,3.4458008,0,5.2080078c0.6425781,0,1.2358398,0,1.8725586,0c0,1.2338867,0,2.4291992,0,3.671875
	c1.8769531,0,3.7128906,0,5.5839844,0c0,11.5214844,0,22.9941406,0,34.4941406c-4.8339844,0-9.6635742,0-14.5273438,0
	C14.7373047,32.5273438,14.7373047,21.0522461,14.7373047,9.5102539z M18.3979492,20.3232422
	c-0.3671875,0-0.6816406-0.0102539-0.9941406,0.0029297c-0.3203125,0.0141602-0.6503906-0.0634766-0.9667969,0.0615234
	c0,1.2973633,0,2.5756836,0,3.8857422c0.6679688,0,1.3007813,0,1.9609375,0
	C18.3979492,22.9614258,18.3979492,21.6689453,18.3979492,20.3232422z M23.8876953,24.28125c0-1.3359375,0-2.628418,0-3.9233398
	c-0.6679688,0-1.3022461,0-1.9291992,0c-0.1054688,0.515625-0.0800781,3.6118164,0.0332031,3.9233398
	C22.6069336,24.28125,23.2294922,24.28125,23.8876953,24.28125z M25.6083984,20.3422852c0,1.340332,0,2.6333008,0,3.9233398
	c0.6679688,0,1.3007813,0,1.9238281,0c0.1074219-0.4946289,0.0859375-3.6123047-0.0253906-3.9233398
	C26.8896484,20.3422852,26.2646484,20.3422852,25.6083984,20.3422852z M16.4624023,25.8398438
	c-0.109375,0.5644531-0.078125,3.6347656,0.0429688,3.9550781c0.6191406,0.0097656,1.2539063,0.0068359,1.8847656,0.0029297
	c0-1.3583984,0-2.6513672,0-3.9580078C17.7319336,25.8398438,17.1069336,25.8398438,16.4624023,25.8398438z M21.9545898,25.8417969
	c-0.1113281,0.6289063-0.0761719,3.640625,0.0371094,3.9228516c0.6328125,0,1.2670898,0,1.8959961,0
	c0.0820313-0.7705078,0.0507813-3.6074219-0.0429688-3.9228516C23.2236328,25.8417969,22.5991211,25.8417969,21.9545898,25.8417969z
	 M27.5244141,29.7792969c0.109375-0.4580078,0.0957031-3.6074219-0.0097656-3.9296875c-0.6308594,0-1.265625,0-1.9101563,0
	c0,1.3242188,0,2.6171875,0,3.9296875C26.2587891,29.7792969,26.8818359,29.7792969,27.5244141,29.7792969z M18.409668,37.0839844
	c0-1.2929688,0-2.5703125,0-3.8867188c-0.6894531,0-1.3359375,0-1.9726563,0c0,1.2910156,0,2.5839844,0,3.8867188
	C17.1245117,37.0839844,17.7788086,37.0839844,18.409668,37.0839844z M21.9291992,33.2011719c0,1.2773438,0,2.5703125,0,3.8710938
	c0.6953125,0,1.3588867,0,1.9799805,0c0-1.2949219,0-2.5625,0-3.8710938
	C23.2294922,33.2011719,22.5932617,33.2011719,21.9291992,33.2011719z M25.5849609,37.0664063c0.6582031,0,1.3222656,0,1.9960938,0
	c0-1.3183594,0-2.6015625,0-3.8632813c-0.6640625,0-1.3105469,0-1.9960938,0
	C25.5849609,34.5136719,25.5849609,35.78125,25.5849609,37.0664063z M16.4331055,38.6992188c0,1.2753906,0,2.5683594,0,3.8701172
	c0.6933594,0,1.3574219,0,1.9804688,0c0-1.2939453,0-2.5615234,0-3.8701172
	C17.7358398,38.6992188,17.097168,38.6992188,16.4331055,38.6992188z M23.9169922,38.6914063c-0.7089844,0-1.3530273,0-1.9956055,0
	c0,1.2910156,0,2.5722656,0,3.8789063c0.6894531,0,1.3549805,0,1.9956055,0
	C23.9169922,41.2880859,23.9169922,40.0214844,23.9169922,38.6914063z M27.5810547,38.6972656c-0.6816406,0-1.3183594,0-1.9960938,0
	c0,1.3183594,0,2.5917969,0,3.8652344c0.6542969,0,1.3203125,0,1.9960938,0
	C27.5810547,41.2460938,27.5810547,39.9628906,27.5810547,38.6972656z M18.394043,16.8984375c0-1.3115234,0-2.5742188,0-3.8398438
	c-0.6777344,0-1.3242188,0-1.9628906,0c0,1.2988281,0,2.5620117,0,3.8398438
	C17.0952148,16.8984375,17.7319336,16.8984375,18.394043,16.8984375z M23.8896484,16.8984375c0-1.3120117,0-2.574707,0-3.875
	c-0.3554688,0-0.6816406-0.0019531-1.0073242,0.0009766c-0.3203125,0.0024414-0.6425781,0.0097656-0.9550781,0.0146484
	c0,1.3183594,0,2.581543,0,3.859375C22.5913086,16.8984375,23.2275391,16.8984375,23.8896484,16.8984375z M25.6044922,13.043457
	c0,1.3105469,0,2.5732422,0,3.8417969c0.6757813,0,1.3222656,0,1.9648438,0c0-1.296875,0-2.5600586,0-3.8417969
	C26.9072266,13.043457,26.2705078,13.043457,25.6044922,13.043457z"/>
<path id="building1_1_" fill-rule="evenodd" clip-rule="evenodd" fill="#ffffff" d="M17.9228516,44
	c-0.171875-0.0039063-0.34375-0.0136719-0.515625-0.0136719c-3.8769531-0.0009766-7.7558594-0.0009766-11.6347656-0.0009766
	c-0.1679688,0-0.3359375,0-0.5234375,0c0-9.6552734,0-19.2675781,0-28.9516602
	c0.4355469,0.2426758,0.8378906,0.4619141,1.2363281,0.6899414C7.4013672,16.25,8.3173828,16.7792969,9.2314453,17.3095703
	c1.546875,0.8955078,3.0898438,1.7949219,4.6347656,2.6879883c0.7226563,0.4165039,1.4472656,0.824707,2.1738281,1.2319336
	c0.625,0.3510742,1.2539063,0.6958008,1.8828125,1.043457C17.9228516,29.515625,17.9228516,36.7578125,17.9228516,44z
	 M16.1650391,27.6875c-1.3085938,0-2.5625,0-3.8710938,0c0,0.6914063,0,1.3642578,0,2.0390625c1.3007813,0,2.5917969,0,3.8710938,0
	C16.1650391,29.03125,16.1650391,28.3691406,16.1650391,27.6875z M10.6474609,33.1855469c-1.2910156,0-2.5449219,0-3.8496094,0
	c0,0.6923828,0,1.3652344,0,2.0712891c1.3046875-0.0087891,2.5957031,0.015625,3.90625-0.015625
	c0-0.3798828,0.0078125-0.7060547-0.0019531-1.0322266C10.6923828,33.8720703,10.6669922,33.5351563,10.6474609,33.1855469z
	 M12.2939453,33.1835938c0,0.6933594,0,1.3662109,0,2.0390625c0.6777344,0.078125,3.5878906,0.0498047,3.8691406-0.0322266
	c0-0.6669922,0-1.3271484,0-2.0068359C14.8544922,33.1835938,13.6005859,33.1835938,12.2939453,33.1835938z M10.6689453,36.8564453
	c-1.3027344,0.0087891-2.59375-0.015625-3.8691406,0.015625c0,0.7158203,0,1.3779297,0,2.0546875c1.3085938,0,2.5625,0,3.8691406,0
	C10.6689453,38.2421875,10.6689453,37.578125,10.6689453,36.8564453z M10.6669922,27.6894531c-1.3085938,0-2.5625,0-3.8691406,0
	c0,0.6953125,0,1.3710938,0,2.0371094c1.3007813,0,2.59375,0,3.8691406,0
	C10.6669922,29.03125,10.6669922,28.3691406,10.6669922,27.6894531z M12.2880859,38.90625
	c0.9414063,0.1152344,3.6367188,0.0644531,3.8925781-0.0625c0-0.6582031,0-1.3164063,0-1.9648438
	c-1.3222656,0-2.6035156,0-3.8925781,0C12.2880859,37.5625,12.2880859,38.2246094,12.2880859,38.90625z M10.6982422,20.387207
	c-1.3164063,0-2.6113281,0-3.8984375,0c0,0.6845703,0,1.3588867,0,2.0522461c1.3085938,0,2.5585938,0,3.8476563,0
	C10.7548828,21.7548828,10.6103516,21.0771484,10.6982422,20.387207z M10.6669922,24.0708008c-1.3339844,0-2.6132813,0-3.8964844,0
	c0,0.6762695,0,1.3217773,0,1.9760742c1.3027344,0,2.5820313,0,3.8964844,0
	C10.6669922,25.375,10.6669922,24.7294922,10.6669922,24.0708008z M12.2939453,24.0664063
	c0.0253906,0.6875-0.0878906,1.3339844,0.0253906,1.9882813c1.2871094,0,2.5429688,0,3.8476563,0
	c0-0.6679688,0-1.3154297,0-1.9882813C14.8662109,24.0664063,13.6123047,24.0664063,12.2939453,24.0664063z M6.7978516,42.5439453
	c1.3085938,0,2.5625,0,3.875,0c-0.0351563-0.6767578,0.0664063-1.3339844-0.0234375-1.9853516c-1.3046875,0-2.5566406,0-3.8515625,0
	C6.7978516,41.2333984,6.7978516,41.8798828,6.7978516,42.5439453z M12.2861328,42.5234375
	c0.7695313,0.0878906,3.5683594,0.0585938,3.9003906-0.0410156c0-0.6240234,0-1.2578125,0-1.9521484
	c-1.2890625,0.0009766-2.578125-0.0068359-3.9003906,0.0068359C12.2861328,41.2363281,12.2861328,41.8710938,12.2861328,42.5234375z
	"/>
</svg>