<?xml version="1.0" encoding="utf-8"?>
<!DOCTYPE svg PUBLIC "-//W3C//DTD SVG 1.1//EN" "http://www.w3.org/Graphics/SVG/1.1/DTD/svg11.dtd">
<svg version="1.1" id="iBaranina" xmlns="http://www.w3.org/2000/svg" xmlns:xlink="http://www.w3.org/1999/xlink" x="0px" y="0px" width="100%" height="100%" viewBox="0 0 48 48" preserveAspectRatio="xMidYMid meet">
<path fill="#2B2B2B" d="M5.015625,39.8652344c0,0,0.6044922,0.2587891,1.2939453,0.3017578
	C7,40.2089844,8.4785156,39.625,8.4785156,39.625l0.75,1.4169922c0,0-1.0117188,0.2197266-1.2695313,0.1044922
	C7.6621094,41.3486328,7.1962891,42,6.6757813,41.9775391c-0.9697266-0.0429688-1.6347656-0.6230469-1.6347656-0.6230469
	L5.015625,39.8652344z"/>
<path fill="#2B2B2B" d="M8.3359375,35.6826172c0,0-0.3017578,0.8623047,0.3457031,1.5957031
	c0.6464844,0.7324219,1.1640625,0.7753906,1.1640625,0.7753906l2.8886719-0.3007813c0,0,0.7763672-0.6904297,0.5605469-1.4667969
	c-0.2148438-0.7753906-0.90625-0.9472656-0.90625-0.9472656s0.6777344-0.796875,0.5908203-1.4013672
	c-0.0859375-0.6035156-0.8330078-2.1660156-1.0625-2.7285156C11.2714844,33.9794922,8.3359375,35.6826172,8.3359375,35.6826172z"/>
<path fill="#2B2B2B" d="M22.2294922,30.0214844c0,0,0.4355469,0.7460938,0.8388672,0.7021484
	c0.4018555-0.0429688,0.6176758,0.0029297,0.6176758,0.0029297s0.1337891,1.0869141,0.5224609,1.5654297
	s2.1079102,1.4941406,2.7114258,1.6660156c0,0.8613281,0.3896484,1.1640625,0.3027344,1.6816406
	c-0.0859375,0.5166016-0.2587891,0.9492188-0.2587891,0.9492188s0.3007813-0.0439453,0.5166016,0.515625
	c0.2167969,0.5615234-0.3876953,1.078125-0.9912109,1.1650391c-0.6035156,0.0859375-2.0268555,0.6044922-2.2856445,0
	c-0.2583008-0.6035156,0.0859375-1.0341797,0.0859375-1.0341797s-0.7617188,0.1298828-1.2211914-0.9492188
	c-0.4599609-1.078125-0.0585938-2.328125,0-2.7167969c0.0576172-0.3876953-0.7714844-0.9667969-1.0058594-1.4257813
	C21.8417969,31.7099609,21.5761719,30.4462891,22.2294922,30.0214844z"/>
<path fill="#2B2B2B" d="M9.8564453,38.5253906l0.0166016,1.5712891c0,0,2.5644531,0.5908203,3.9394531-0.4501953
	C12.9785156,38.28125,12.9375,38.25,12.9375,38.25L9.8564453,38.5253906z"/>
<path fill="#2B2B2B" d="M24.6708984,39l-0.0874023,0.9580078c0,0,1.7211914,0.3564453,2.3520508,0.2832031
	c0.6347656-0.0742188,1.6318359-0.828125,1.6318359-0.828125l-1.0419922-1.0273438
	C27.5253906,38.3857422,25.6464844,39.2177734,24.6708984,39z"/>
<path fill="#2B2B2B" d="M30,39.75v1.5380859c0,0,2.4277344,0.4306641,2.8867188,0.2871094
	c0.4609375-0.1425781,0.3242188-0.8183594,0.3242188-0.8183594l0.6777344-0.1582031l-0.8798828-1.3808594
	C33.0087891,39.2177734,32,40.4111328,30,39.75z"/>
<path fill="#2B2B2B" d="M48.0439453,15.4160156c-0.171875-0.3554688-1.015625-2.6582031-1.6484375-3.1757813
	c-0.9775391-0.3447266-4.1748047-0.7041016-4.2421875-0.4033203C42.0371094,12.3544922,42.2705078,13.4628906,42.5,14.6113281
	c0,0,0.9189453,0.2138672,1.2646484,0.8828125c0.3447266,0.6699219,0.5615234,2.7548828,0.90625,2.8125
	c0.3447266,0.0566406,1.7392578,0.1582031,2.0253906-0.2460938c0.2890625-0.4013672-0.0556641-1.0341797-0.7460938-1.0917969
	c-0.6894531-0.0566406,0.6894531-0.2871094,1.0917969,0.0585938c0.4023438,0.34375,0.3457031-0.1123047,0.3457031-0.6035156
	C47.3876953,15.9345703,48.2167969,15.7734375,48.0439453,15.4160156z M44.8652344,13.7636719
	c-0.2578125,0-0.4667969-0.1865234-0.4667969-0.4160156c0-0.2304688,0.2089844-0.4169922,0.4667969-0.4169922
	s0.4667969,0.1865234,0.4667969,0.4169922C45.3320313,13.5771484,45.1230469,13.7636719,44.8652344,13.7636719z"/>
<path fill="#2B2B2B" d="M44.6845703,20.3613281c0-0.6894531-0.0566406-0.9238281-0.2861328-1.2675781
	c-0.2294922-0.3417969-0.4033203-1.6064453-0.9208984-2.6992188c-0.5175781-1.0917969-1.3798828-1.125-1.3798828-1.125
	s-0.2861328-1.4492188-0.5175781-2.203125C41.3505859,12.3125,41.71875,11.40625,41.71875,11.40625s0.6005859-0.1875,1.75-0.21875
	c1.1503906-0.0292969,3.0693359,0.5644531,3.0693359,0.5644531s0.2236328-1.1074219-1.3037109-2.5449219
	c-1.5263672-1.4365234-3.4228516-1.6083984-3.4228516-1.6083984s-1.6699219-1.6103516-4.6015625-1.4951172
	C34.2792969,6.21875,31.921875,8.2304688,31.921875,8.2304688s-1.8984375-0.4023438-5.5185547-0.5751953
	c-3.6220703-0.1728516-6.9570313,0.6904297-6.9570313,0.6904297s-4.0244141-1.3222656-8.4501953-1.0351563
	C6.5683594,7.5986328,5.5332031,9.1503906,5.5332031,9.1503906S0.0146484,9.609375,0.0146484,14.3828125
	c0,4.7714844,0.2880859,5.6914063,2.2998047,7.1279297c-0.1152344,1.2646484-0.1152344,1.2646484-0.1152344,1.2646484
	s0.2304688,1.2558594,0.6894531,1.0878906c-0.5166016,0.5800781-0.3447266,0.9248047-0.3447266,1.5576172
	c0,0.6318359,1.0341797,1.7236328,1.0341797,1.7236328s-1.0917969,1.4501953-1.0917969,2.6523438
	c0,1.2001953,0.8623047,3.4423828,0.8623047,3.4423828s-0.6328125,1.1943359-0.5751953,2.3222656
	c0.0585938,1.1279297,0.6904297,3.5410156,1.9550781,3.7138672c1.2636719,0.1728516,1.6679688,0.0576172,2.3007813,0
	c0.6308594-0.0576172,1.8388672,0.0585938,1.4355469-0.6318359c-0.4013672-0.6894531-0.8046875-2.3134766-0.4589844-3.0820313
	c0.3457031-0.7695313,1.0917969-0.8857422,2.0117188-2.5527344c0.9199219-1.6660156,2.1269531-3.6787109,2.8173828-3.8515625
	c0.9775391,0.4609375,2.3574219,1.1513672,3.4501953,1.0341797c1.0917969-0.1132813,1.8964844-0.6894531,1.8964844-0.6894531
	s1.2070313,0.8623047,1.953125,0.8623047c0.7490234,0,1.8417969-0.9765625,1.8417969-0.9765625
	s0.9199219,0.7373047,1.8974609,0.3974609c0.5170898,1.0976563,0.1147461,1.9589844,1.5517578,2.6494141
	c1.4365234,0.6904297,2.5292969,1.2070313,2.5292969,1.2070313s-0.2294922,0.8964844-0.1142578,1.6552734
	c0.1142578,0.7597656,0.6894531,1.1621094,0.6894531,1.1621094s-0.4599609,0.5175781-0.3447266,1.1503906
	c0.1142578,0.6328125,1.1503906,1.7333984,1.8378906,1.7587891c0.6914063,0.0224609,1.2666016,0.0898438,1.7255859,0
	c0.4589844-0.0917969,1.7832031-0.4941406,1.3798828-1.7587891c-0.4023438-1.2646484-1.0341797-1.7822266-1.0341797-1.7822266
	s0.6318359-0.3457031,0.4589844-0.8623047c-0.171875-0.5185547-1.3212891-1.1513672-1.3212891-1.1513672
	s0.8623047,0.2304688,1.2646484,0.2304688c0.4013672,0,0.5175781-0.4589844,0.5175781-0.4589844
	s1.3789063,1.7236328,2.8164063,1.2070313c1.4384766-0.5175781,3.5068359-2.8759766,3.3935547-4.5419922
	c1.9541016-1.5527344,3.3916016-2.4726563,3.6787109-2.9326172c0.2871094-0.4580078,0.5742188-0.9189453,0.5742188-1.8964844
	c0.5751953-0.4604492,0.7470703-0.8154297,0.8046875-1.5576172C44.3398438,23.1206055,44.109375,22.1142578,43.9375,21.8125
	C44.3984375,21.3964844,44.6845703,21.0507813,44.6845703,20.3613281z M17.375,19.9589844
	c0.7353516,1.2871094,0.8691406,2.796875-0.34375,2.796875c0.375,0.4257813,0.8027344,2.1616211,0.09375,3.1611328
	c-0.8974609,1.265625-2.2304688,1.125-4.0625,1.875c0.75-0.5,2.3652344-1.125,3.1464844-2.375
	c0.6484375-1.0390625,0.3652344-2.2192383-0.4667969-3.3857422c1.125,0.6621094,1.1074219-0.6503906,0.5078125-1.75
	c-1.3339844-2.4472656,2.4589844-4.40625,2.4589844-4.40625S16.25,17.9902344,17.375,19.9589844z M30,19.9589844
	c0.1660156,1.125,0.3476563,1.7080078-0.2080078,2.4160156c-0.5615234,0.7158203-2.0195313,1.1308594-3.3544922,2.09375
	C25.3544922,25.25,24.2089844,26.5322266,24.5,28.875c0,0-0.7631836-1.9921875-0.3334961-3.25
	C24.75,23.9169922,25.3613281,23.4174805,26.5751953,23C29,22.1660156,29.1435547,21.6074219,29.3330078,21.0410156
	c0.2089844-0.625,0.0839844-2.6113281-1.5410156-2.6796875c-1.625-0.0703125-2.2666016,1.4306641-1.2167969,2.0976563
	C27.625,21.125,24.8339844,20.3330078,25.0419922,18.6660156C25.25,17,26.9589844,16.5,27.7919922,16.7089844
	c0.8330078,0.2070313,2.25,0.8330078,2.625,1.875c0.625-0.625,1.5273438-0.5664063,2.0410156,0.5
	C31.5419922,18.7089844,29.8339844,18.8339844,30,19.9589844z M37.6054688,27.625
	c-0.5087891-0.8134766-1.1689453-2.2373047-1.2617188-3.03125c-0.1748047-1.4951172,1.5136719-2.1923828,1.5136719-3.0566406
	s-0.3085938-1.5019531-0.6611328-2.4316406c-0.2119141-0.5585938-1.0166016-1.0878906-1.0166016-1.0878906
	c0.8134766,0.4453125,2.0507813,0.5136719,2.6445313,0C37.3623047,19.5332031,38.8330078,21.0625,38.625,22.2285156
	c-0.1337891,0.7529297-1.0712891,1.7983398-1.0195313,2.9169922c0.0507813,1.1171875,0.7070313,3.3125,1.4257813,4.3339844
	C38.7265625,29.3398438,38.1132813,28.4375,37.6054688,27.625z M37.5556641,16.8261719
	c-3.578125,0.4306641-6.4667969-1.4042969-6.2373047-4.671875s3.3925781-4.8867188,5.5917969-4.6289063
	c0,0,1.1640625,0.7626953,0.9902344,2.0273438c-0.140625,1.0273438-3.3759766,0.4453125-3.2480469,3.1621094
	c0.0625,1.3183594,1.8759766,2.4716797,3.0908203,1.8398438c1.2148438-0.6328125,1.6552734-1.3105469,1.3076172-2.1269531
	c-0.8046875-1.8984375-3.21875-0.0722656-0.9052734,1.0195313c-2.1269531,0.5898438-2.6660156-1.5126953-1.2939453-2.5
	c1.3798828-0.9921875,3.1767578-0.4746094,3.7509766,1.5371094C41.1787109,14.4970703,39.6757813,16.5703125,37.5556641,16.8261719z
	"/>
<ellipse fill="#2B2B2B" cx="44.9150391" cy="13.3686523" rx="0.1718757" ry="0.1655273"/>
</svg>