<?xml version="1.0" encoding="utf-8"?>
<!DOCTYPE svg PUBLIC "-//W3C//DTD SVG 1.1//EN" "http://www.w3.org/Graphics/SVG/1.1/DTD/svg11.dtd">
<svg version="1.1" id="iCalendar" xmlns="http://www.w3.org/2000/svg" xmlns:xlink="http://www.w3.org/1999/xlink" x="0px" y="0px" width="100%" height="100%" viewBox="0 0 48 48" preserveAspectRatio="xMidYMid meet">
<g id="iBase">
	<path fill-rule="evenodd" clip-rule="evenodd" fill="#2B2B2B" d="M40.8818359,43.9443359c-11.0410156,0-22.0761719,0-33.1240234,0
		c0-11.5625,0-23.1230469,0-34.6933594c2.015625,0,4.0263672,0,6.0595703,0c0,0.0673828,0,0.1269531,0,0.1860352
		c0,0.5844727-0.0019531,1.1689453,0.0039063,1.7529297c0,0.1142578-0.0371094,0.1953125-0.1083984,0.2822266
		c-0.7275391,0.8740234-0.921875,1.8603516-0.5136719,2.9194336c0.4052734,1.0527344,1.2060547,1.6630859,2.3222656,1.8198242
		c1.1699219,0.1645508,2.3291016-0.4477539,2.8886719-1.4907227c0.5634766-1.0512695,0.4267578-2.3266602-0.3544922-3.2280273
		c-0.0917969-0.105957-0.1259766-0.2080078-0.1240234-0.3432617c0.0048828-0.5678711,0.0009766-1.1352539,0.0009766-1.703125
		c0-0.0605469,0-0.1201172,0-0.1923828c4.2597656,0,8.5029297,0,12.765625,0
		c0.0029297,0.0576172,0.0078125,0.1166992,0.0078125,0.1762695c0.0009766,0.5898438-0.0019531,1.1796875,0.0019531,1.7695313
		c0.0009766,0.1083984-0.0341797,0.1855469-0.1035156,0.2675781c-0.7246094,0.8666992-0.9238281,1.8457031-0.5263672,2.9023438
		c0.4013672,1.0629883,1.203125,1.6782227,2.3251953,1.8408203c1.1640625,0.1694336,2.328125-0.4399414,2.8925781-1.4829102
		c0.5664063-1.0444336,0.4316406-2.3300781-0.3466797-3.2290039c-0.0898438-0.1049805-0.1289063-0.2055664-0.1279297-0.3422852
		c0.0068359-0.5673828,0.0029297-1.1352539,0.0029297-1.703125c0-0.0605469,0-0.121582,0-0.1972656
		c2.0214844,0,4.0322266,0,6.0576172,0C40.8818359,20.8129883,40.8818359,32.3730469,40.8818359,43.9443359z M10.4169922,41.1523438
		c9.28125,0,18.5439453,0,27.8066406,0c0-7.8085938,0-15.6025391,0-23.4057617c-9.2734375,0-18.5371094,0-27.8066406,0
		C10.4169922,25.5527344,10.4169922,33.3476563,10.4169922,41.1523438z"/>
	<path fill-rule="evenodd" clip-rule="evenodd" fill="#2B2B2B" d="M31.8642578,9.3261719
		c0-1.3686523-0.0009766-2.737793,0.0019531-4.1064453c0-0.1274414,0.0068359-0.2583008,0.0371094-0.3803711
		c0.109375-0.4423828,0.5224609-0.7373047,0.9833984-0.7172852c0.4580078,0.0200195,0.8378906,0.3530273,0.9130859,0.8061523
		c0.0126953,0.0820313,0.0185547,0.1660156,0.0185547,0.2490234c0,2.7661133,0,5.5317383,0.0009766,8.2973633
		c0.0009766,0.3564453-0.1123047,0.6557617-0.4052734,0.8706055c-0.5917969,0.4335938-1.4296875,0.0810547-1.5341797-0.6455078
		c-0.0126953-0.0932617-0.0146484-0.1884766-0.0146484-0.2827148C31.8642578,12.0532227,31.8642578,10.6899414,31.8642578,9.3261719
		z"/>
	<path fill-rule="evenodd" clip-rule="evenodd" fill="#2B2B2B" d="M16.8320313,9.3212891
		c0,1.3969727-0.0009766,2.7939453,0.0009766,4.190918c0.0009766,0.3466797-0.1220703,0.6323242-0.40625,0.8344727
		c-0.3115234,0.2226563-0.6503906,0.253418-0.9941406,0.0859375s-0.5244141-0.4526367-0.5449219-0.8364258
		c-0.0029297-0.0498047-0.0029297-0.1000977-0.0029297-0.1499023c0-2.7490234,0-5.4980469,0.0009766-8.2470703
		c0-0.0888672-0.0009766-0.1791992,0.0126953-0.2666016c0.0751953-0.4868164,0.5107422-0.8339844,1.0087891-0.8105469
		c0.4960938,0.0234375,0.8945313,0.4165039,0.921875,0.9091797c0.0048828,0.0664063,0.0029297,0.1333008,0.0029297,0.2001953
		C16.8320313,6.5947266,16.8320313,7.9580078,16.8320313,9.3212891z"/>
	<path fill-rule="evenodd" clip-rule="evenodd" fill="#2B2B2B" d="M32.5117188,24.65625c0-1.1401367,0-2.2719727,0-3.4145508
		c1.1015625,0,2.1943359,0,3.296875,0c0,1.1367188,0,2.2680664,0,3.4145508
		C34.7148438,24.65625,33.6230469,24.65625,32.5117188,24.65625z"/>
	<path fill-rule="evenodd" clip-rule="evenodd" fill="#2B2B2B" d="M32.5136719,34.2480469c0-1.1474609,0-2.2792969,0-3.4199219
		c1.0996094,0,2.1875,0,3.2910156,0c0,1.1357422,0,2.2714844,0,3.4199219
		C34.7109375,34.2480469,33.6191406,34.2480469,32.5136719,34.2480469z"/>
	<path fill-rule="evenodd" clip-rule="evenodd" fill="#2B2B2B" d="M27.6660156,35.6259766c1.1005859,0,2.1894531,0,3.2919922,0
		c0,1.1396484,0,2.2753906,0,3.4208984c-1.0966797,0-2.1884766,0-3.2919922,0
		C27.6660156,37.9091797,27.6660156,36.7773438,27.6660156,35.6259766z"/>
	<path fill-rule="evenodd" clip-rule="evenodd" fill="#2B2B2B" d="M30.9580078,24.6621094c-1.1044922,0-2.1923828,0-3.2929688,0
		c0-1.1401367,0-2.2724609,0-3.4179688c1.0947266,0,2.1865234,0,3.2929688,0
		C30.9580078,22.3774414,30.9580078,23.5136719,30.9580078,24.6621094z"/>
	<path fill-rule="evenodd" clip-rule="evenodd" fill="#2B2B2B" d="M30.9628906,29.4589844c-1.1064453,0-2.1943359,0-3.2949219,0
		c0-1.1425781,0-2.2783203,0-3.421875c1.1005859,0,2.1933594,0,3.2949219,0
		C30.9628906,27.1787109,30.9628906,28.3105469,30.9628906,29.4589844z"/>
	<path fill-rule="evenodd" clip-rule="evenodd" fill="#2B2B2B" d="M35.8095703,29.4570313c-1.1074219,0-2.1953125,0-3.2949219,0
		c0-1.1416016,0-2.2734375,0-3.4179688c1.0986328,0,2.1914063,0,3.2949219,0
		C35.8095703,27.1777344,35.8095703,28.3095703,35.8095703,29.4570313z"/>
	<path fill-rule="evenodd" clip-rule="evenodd" fill="#2B2B2B" d="M30.9609375,30.8300781c0,1.1416016,0,2.2783203,0,3.4228516
		c-1.0996094,0-2.1884766,0-3.2919922,0c0-1.140625,0-2.2753906,0-3.4228516
		C28.7646484,30.8300781,29.8574219,30.8300781,30.9609375,30.8300781z"/>
	<path fill-rule="evenodd" clip-rule="evenodd" fill="#2B2B2B" d="M26.1064453,24.6621094c-1.1015625,0-2.1884766,0-3.2871094,0
		c0-1.1401367,0-2.2714844,0-3.4174805c1.0898438,0,2.1816406,0,3.2871094,0
		C26.1064453,22.3769531,26.1064453,23.512207,26.1064453,24.6621094z"/>
	<path fill-rule="evenodd" clip-rule="evenodd" fill="#2B2B2B" d="M17.96875,29.4550781c0-1.1455078,0-2.2734375,0-3.4140625
		c1.0996094,0,2.1914063,0,3.2939453,0c0,1.1347656,0,2.2685547,0,3.4140625
		C20.1699219,29.4550781,19.0771484,29.4550781,17.96875,29.4550781z"/>
	<path fill-rule="evenodd" clip-rule="evenodd" fill="#2B2B2B" d="M13.1269531,30.828125c1.0947266,0,2.1826172,0,3.2861328,0
		c0,1.1357422,0,2.2714844,0,3.4189453c-1.0917969,0-2.1826172,0-3.2861328,0
		C13.1269531,33.109375,13.1269531,31.9736328,13.1269531,30.828125z"/>
	<path fill-rule="evenodd" clip-rule="evenodd" fill="#2B2B2B" d="M21.265625,34.2529297c-1.1044922,0-2.1914063,0-3.2910156,0
		c0-1.1425781,0-2.2783203,0-3.4238281c1.0976563,0,2.1904297,0,3.2910156,0
		C21.265625,31.9707031,21.265625,33.1025391,21.265625,34.2529297z"/>
	<path fill-rule="evenodd" clip-rule="evenodd" fill="#2B2B2B" d="M22.8212891,30.8291016c1.1044922,0,2.1923828,0,3.2890625,0
		c0,1.140625,0,2.2724609,0,3.4169922c-1.0927734,0-2.1845703,0-3.2890625,0
		C22.8212891,33.1113281,22.8212891,31.9765625,22.8212891,30.8291016z"/>
	<path fill-rule="evenodd" clip-rule="evenodd" fill="#2B2B2B" d="M16.4160156,39.0498047c-1.0996094,0-2.1875,0-3.2880859,0
		c0-1.1386719,0-2.2714844,0-3.4169922c1.0898438,0,2.1826172,0,3.2880859,0
		C16.4160156,36.7646484,16.4160156,37.8964844,16.4160156,39.0498047z"/>
	<path fill-rule="evenodd" clip-rule="evenodd" fill="#2B2B2B" d="M17.96875,39.0488281c0-1.1445313,0-2.2724609,0-3.4160156
		c1.0957031,0,2.1875,0,3.2919922,0c0,1.1337891,0,2.2705078,0,3.4160156
		C20.1650391,39.0488281,19.0771484,39.0488281,17.96875,39.0488281z"/>
	<path fill-rule="evenodd" clip-rule="evenodd" fill="#2B2B2B" d="M26.1113281,35.6279297c0,1.1445313,0,2.2773438,0,3.4199219
		c-1.0976563,0-2.1865234,0-3.2890625,0c0-1.1376953,0-2.2734375,0-3.4199219
		C23.9160156,35.6279297,25.0039063,35.6279297,26.1113281,35.6279297z"/>
	<path fill-rule="evenodd" clip-rule="evenodd" fill="#2B2B2B" d="M16.4208984,26.0390625c0,1.1474609,0,2.2753906,0,3.4160156
		c-1.0996094,0-2.1923828,0-3.2958984,0c0-1.1386719,0-2.2695313,0-3.4160156
		C14.2207031,26.0390625,15.3134766,26.0390625,16.4208984,26.0390625z"/>
	<path fill-rule="evenodd" clip-rule="evenodd" fill="#2B2B2B" d="M22.8154297,26.0371094c1.1025391,0,2.1894531,0,3.2919922,0
		c0,1.1386719,0,2.2744141,0,3.4179688c-1.0986328,0-2.1914063,0-3.2919922,0
		C22.8154297,28.3154297,22.8154297,27.1875,22.8154297,26.0371094z"/>
</g>
</svg>