<?xml version="1.0" encoding="utf-8"?>
<!DOCTYPE svg PUBLIC "-//W3C//DTD SVG 1.1//EN" "http://www.w3.org/Graphics/SVG/1.1/DTD/svg11.dtd">
<svg version="1.1" id="iCart" xmlns="http://www.w3.org/2000/svg" xmlns:xlink="http://www.w3.org/1999/xlink" x="0px" y="0px" width="100%" height="100%" viewBox="0 0 48 48" preserveAspectRatio="xMidYMid meet">
<g id="base">
	<g>
		<path fill="#A21D20" d="M29.4794922,39.9199219c-0.2841797,0-0.6025391-0.0175781-0.9824219-0.0634766l-1.4892578-0.1816406
			l0.3632813-2.9785156l1.4892578,0.1816406c0.5820313,0.0703125,0.8896484,0.0380859,1.3984375-0.0126953l1.7041016-0.1699219
			l0.2958984,2.9853516l-1.6914063,0.1679688C30.2197266,39.8847656,29.8837891,39.9199219,29.4794922,39.9199219z"/>
	</g>
	<g>
		<path fill="#A21D20" d="M22.640625,30.6367188l-2.0908203-0.0244141
			c-4.3486328-0.0048828-8.2514648-0.9619141-8.2514648-12.4648438l-0.012207-1.0908203L9.4995117,9.5351563
			C7.1831055,9.1206055,4.5385742,9.0668945,3.7958984,9.6616211C3.7397461,9.7070313,3.7246094,9.7192383,3.7246094,9.8305664
			l0.0014648,1.5l-3,0.0029297l-0.0014648-1.5C0.7236328,8.8168945,1.137207,7.9477539,1.9208984,7.3203125
			c2.3959961-1.9189453,7.9370117-0.7983398,9.0234375-0.5541992c0.4956055,0.1113281,0.9008789,0.4658203,1.0776367,0.9423828
			l3.1679688,8.550293c0.0595703,0.1616211,0.0913086,0.3320313,0.0932617,0.5043945l0.0151367,1.3676758
			c0,9.4755859,2.3188477,9.4775391,5.2543945,9.4814453l2.1313477,0.0253906L22.640625,30.6367188z"/>
	</g>
	<g>
		<path fill="#A21D20" d="M16.8632813,40c-2.1845703,0-3.8950195-0.6621094-5.0864258-1.8398438
			c-1.0771484-1.0644531-1.6704102-2.6289063-1.6704102-4.3466797c0-0.6171875,0.1298828-2.7734375,1.8041992-4.390625
			c1.2583008-1.2158203,3.0131836-1.8115234,5.2275391-1.7255859c3.5180664,0.1201172,8.9770508-0.1533203,14.2553711-0.4160156
			c2.0068359-0.0996094,3.9833984-0.2001953,5.8125-0.2753906c2.8232422-0.1152344,6.5371094-1.1621094,7.1308594-8.550293
			l-31.7045898,0.1049805l-0.0097656-3l33.284668-0.1113281c0.3837891,0.0141602,0.7900391,0.1601563,1.0742188,0.4482422
			c0.2832031,0.2880859,0.4384766,0.6782227,0.4306641,1.0820313c-0.1679688,8.2568359-3.6552734,12.7597656-10.0830078,13.0224609
			c-1.8212891,0.0742188-3.7880859,0.171875-5.7861328,0.2714844c-5.3408203,0.265625-10.862793,0.5458984-14.5087891,0.4140625
			c-1.3725586-0.0400391-2.3886719,0.2480469-3.0390625,0.8759766c-0.8637695,0.8349609-0.8886719,2.078125-0.8886719,2.2167969
			c0,0.6435547,0.1352539,1.5439453,0.7792969,2.1806641c0.6264648,0.6181641,1.6708984,0.9521484,3.0874023,0.90625l1.5-0.0175781
			l0.0361328,3.0654297L17.0092773,40C16.9604492,40,16.9116211,40,16.8632813,40z"/>
	</g>
</g>
<g id="wheel2">
	<path fill="#A21D20" d="M36.4355469,44.5722656c-3.2929688,0-5.9716797-2.6796875-5.9716797-5.9736328
		c0-3.2910156,2.6787109-5.96875,5.9716797-5.96875c3.2939453,0,5.9736328,2.6777344,5.9736328,5.96875
		C42.4091797,41.8925781,39.7294922,44.5722656,36.4355469,44.5722656z M36.4355469,34.9306641
		c-2.0244141,0-3.6708984,1.6455078-3.6708984,3.6679688c0,2.0253906,1.6464844,3.6728516,3.6708984,3.6728516
		c2.0253906,0,3.6728516-1.6474609,3.6728516-3.6728516C40.1083984,36.5761719,38.4609375,34.9306641,36.4355469,34.9306641z"/>
</g>
<g id="wheel1">
	<path fill="#A21D20" d="M22.8603516,44.5722656c-3.2929688,0-5.972168-2.6796875-5.972168-5.9736328
		c0-3.2910156,2.6791992-5.96875,5.972168-5.96875c3.2939453,0,5.9736328,2.6777344,5.9736328,5.96875
		C28.8339844,41.8925781,26.1542969,44.5722656,22.8603516,44.5722656z M22.8603516,34.9306641
		c-2.0249023,0-3.6723633,1.6455078-3.6723633,3.6679688c0,2.0253906,1.6474609,3.6728516,3.6723633,3.6728516
		c2.0253906,0,3.6728516-1.6474609,3.6728516-3.6728516C26.5332031,36.5761719,24.8857422,34.9306641,22.8603516,34.9306641z"/>
</g>
</svg>