<?xml version="1.0" encoding="utf-8"?>
<!DOCTYPE svg PUBLIC "-//W3C//DTD SVG 1.1//EN" "http://www.w3.org/Graphics/SVG/1.1/DTD/svg11.dtd">
<svg version="1.1" id="iContacts" xmlns="http://www.w3.org/2000/svg" xmlns:xlink="http://www.w3.org/1999/xlink" x="0px" y="0px" width="100%" height="100%" viewBox="0 0 240 240" preserveAspectRatio="xMidYMid meet">
<g id="base">
	<g>
		<path fill="#ffffff" d="M208.3066406,64.9921875c0-5.4023438-3.3027344-10.0473633-7.9951172-12.0268555V33.0307617
			c0-7.1977539-5.8486328-13.0498047-13.0400391-13.0498047H52.2539063c-8.6069336,0-17.8701172,5.3344727-17.8701172,17.0444336
			h10.1157227c0-6.027832,4.8574219-6.9287109,7.7543945-6.9287109h135.0175781c1.5849609,0,2.9238281,1.34375,2.9238281,2.934082
			v18.9140625h-6.9296875v10.1152344h11.9873047c1.6181641,0,2.9404297,1.3134766,2.9404297,2.9321289V84.96875
			c0,1.5898438-1.3457031,2.9335938-2.9404297,2.9335938H183.265625v10.1157227h11.9873047
			c1.6181641,0,2.9404297,1.3129883,2.9404297,2.9306641v19.9794922c0,1.5883789-1.3457031,2.9311523-2.9404297,2.9311523
			H183.265625v10.1152344h11.9873047c1.5947266,0,2.9404297,1.34375,2.9404297,2.9345703v19.9736328
			c0,1.5898438-1.3457031,2.9335938-2.9404297,2.9335938H183.265625v10.1162109h11.9873047
			c1.5947266,0,2.9404297,1.3427734,2.9404297,2.9326172v19.9746094c0,1.5908203-1.3457031,2.9335938-2.9404297,2.9335938
			H183.265625v10.1162109h11.9873047c7.1962891,0,13.0537109-5.8525391,13.0537109-13.0498047v-19.9746094
			c0-3.0117188-1.0361328-5.7802734-2.7568359-7.9912109c1.7207031-2.2099609,2.7568359-4.9794922,2.7568359-7.9912109v-19.9736328
			c0-3.0117188-1.0361328-5.78125-2.7568359-7.9912109c1.7207031-2.2109375,2.7568359-4.9785156,2.7568359-7.9897461v-19.9794922
			c0-3.0112305-1.0361328-5.7788086-2.7568359-7.9887695c1.7207031-2.2109375,2.7568359-4.9794922,2.7568359-7.9912109V64.9921875z"
			/>
	</g>
</g>
<path fill="#ffffff" d="M118.5058594,113.6494141c-2.3837891-1.4638672-5.8505859-2.8393555-9.2001953-2.8393555
	c-7.4731445,0-12.8598633,3.4990234-15.1977539,10.4584961c-0.7631836,2.5810547-1.2709961,5.2441406-1.2709961,10.4990234
	c0,5.2646484,0.5078125,7.9863281,1.2978516,10.6630859c2.3417969,6.9746094,7.6835938,10.625,15.4428711,10.625
	c6.1323242,0,9.925293-2.0605469,12.2641602-4.5c2.5986328,2.9140625,6.4804688,4.5634766,10.9755859,4.5634766
	c8.2294922,0,17.0244141-5.7636719,17.0244141-21.9443359c0-22.5180664-15.8046875-38.2524414-38.4360352-38.2524414
	c-22.684082,0-38.5361328,15.7294922-38.5458984,38.246582c0,22.5830078,15.8466797,38.3486328,38.5405273,38.3486328
	c9.3378906,0,16.5068359-1.6103516,23.3486328-5.2753906c0.8291016-0.4941406,1.4091797-1.2451172,1.6308594-2.1240234
	c0.21875-0.8496094,0.0800781-1.7490234-0.2119141-2.1728516l-1.5361328-3.8330078
	c-0.8652344-1.7197266-2.9189453-2.390625-4.6425781-1.5019531c-5.5986328,2.7460938-11.1381836,3.9228516-18.5556641,3.9228516
	c-16.40625,0-26.9799805-10.7392578-26.9799805-27.3642578c0-16.5585938,10.6557617-27.2641602,27.0620117-27.2641602
	c16.34375,0,27.0136719,10.7055664,27.0136719,27.2641602c0,7.28125-3.4970703,10.9648438-7.1425781,10.9648438
	c-2.5097656,0-5.3867188-1.8964844-5.3867188-5.2148438v-23.105957C126,111.871582,118.5058594,111.7587891,118.5058594,113.6494141
	z M116.8710938,137.9658203c-1.0136719,2.7949219-2.7866211,3.9804688-5.9257813,3.9804688
	c-3.1474609,0-4.8847656-1.1748047-5.8076172-3.9316406c-0.4155273-1.2246094-0.6918945-2.7753906-0.6918945-6.3916016
	c0-3.6054688,0.2763672-5.15625,0.6933594-6.3896484c0.9213867-2.7490234,2.6586914-3.9277344,5.8061523-3.9277344
	c3.1420898,0,4.9121094,1.1923828,5.8984375,3.9072266c0.4389648,1.3535156,0.6025391,3.0908203,0.6025391,6.4101563
	S117.2827148,136.6806641,116.8710938,137.9658203z"/>
<path fill="#ffffff" d="M175.2773438,43H55.4189453c-5.0371094,0-10.9194336-1.3378906-10.9194336-6.4501953
	c0-2.7939453-2.4570313-4.8193359-5.2504883-4.8193359S34,34.2329102,34,37.0253906v171.796875
	C34,216.0195313,40.2363281,220,47.4306641,220h127.8466797C182.4707031,220,184,216.0195313,184,208.8222656V57.0019531
	C184,49.8061523,182.4707031,43,175.2773438,43z M176,199.6972656C176,206.1025391,174.3886719,210,167.9873047,210H54.203125
	C47.800293,210,42,206.1025391,42,199.6972656V52h125.9873047C174.3886719,52,176,58.1728516,176,64.5771484V199.6972656z"/>
</svg>
