<?xml version="1.0" encoding="utf-8"?>
<!DOCTYPE svg PUBLIC "-//W3C//DTD SVG 1.1//EN" "http://www.w3.org/Graphics/SVG/1.1/DTD/svg11.dtd">
<svg version="1.1" id="iContacts" xmlns="http://www.w3.org/2000/svg" xmlns:xlink="http://www.w3.org/1999/xlink" x="0px" y="0px" width="100%" height="100%" viewBox="0 0 48 48" preserveAspectRatio="xMidYMid meet">
<g id="base">
	<g>
		<path fill="#b2b2b2" d="M41.4482422,13.425293c0-1.0678711-0.6533203-1.9863281-1.5810547-2.3774414V7.105957
			c0-1.4228516-1.15625-2.5800781-2.578125-2.5800781H10.59375c-1.7016602,0-3.5332031,1.0546875-3.5332031,3.3701172h2
			c0-1.1918945,0.9604492-1.3701172,1.5332031-1.3701172h26.6953125c0.3134766,0,0.578125,0.265625,0.578125,0.5800781v3.7397461
			h-1.3701172v2h2.3701172c0.3203125,0,0.5810547,0.2597656,0.5810547,0.5795898V17.375
			c0,0.3144531-0.265625,0.5800781-0.5810547,0.5800781h-2.3701172v2h2.3701172
			c0.3203125,0,0.5810547,0.2597656,0.5810547,0.5795898v3.9501953c0,0.3139648-0.265625,0.5795898-0.5810547,0.5795898h-2.3701172
			v2h2.3701172c0.3154297,0,0.5810547,0.265625,0.5810547,0.5800781V31.59375c0,0.3144531-0.265625,0.5800781-0.5810547,0.5800781
			h-2.3701172v2h2.3701172c0.3154297,0,0.5810547,0.265625,0.5810547,0.5800781v3.9492188
			c0,0.3144531-0.265625,0.5800781-0.5810547,0.5800781h-2.3701172v2h2.3701172
			c1.4228516,0,2.5810547-1.1572266,2.5810547-2.5800781v-3.9492188c0-0.5976563-0.2128906-1.1425781-0.5556641-1.5800781
			c0.3427734-0.4375,0.5556641-0.9824219,0.5556641-1.5800781v-3.9492188c0-0.5976563-0.2128906-1.1416016-0.5556641-1.5800781
			c0.3427734-0.4375,0.5556641-0.9814453,0.5556641-1.5795898V20.534668c0-0.5976563-0.2128906-1.1416016-0.5556641-1.5795898
			c0.3427734-0.4379883,0.5556641-0.9819336,0.5556641-1.5800781V13.425293z"/>
	</g>
</g>
<g id="page">
	<path fill="#b2b2b2" d="M22.1982422,24.5595703c-0.6225586,0-0.9658203,0.2329102-1.1479492,0.7763672
		c-0.0825195,0.2441406-0.137207,0.5507813-0.137207,1.2636719c0,0.7148438,0.0546875,1.0214844,0.1367188,1.2636719
		c0.1826172,0.5449219,0.5258789,0.7773438,1.1484375,0.7773438c0.6206055,0,0.9711914-0.234375,1.1713867-0.7871094
		c0.081543-0.2539063,0.1137695-0.5976563,0.1137695-1.2539063s-0.0322266-1-0.1191406-1.2675781
		C23.1694336,24.7954102,22.8193359,24.5595703,22.1982422,24.5595703z"/>
	<path fill="#b2b2b2" d="M34.9179688,9H11.2197266c-0.9960938,0-2.1591797-0.2260742-2.1591797-1.2368164
		c0-0.5522461-0.4780273-0.9335938-1.0302734-0.9335938S7,7.34375,7,7.8959961v33.9672852C7,43.2861328,8.2177734,44,9.6401367,44
		h25.277832C36.3398438,44,37,43.2861328,37,41.8632813V11.8457031C37,10.4228516,36.3398438,9,34.9179688,9z
		 M26.5224609,30.8496094c-0.8886719,0-1.65625-0.3261719-2.1699219-0.9023438
		c-0.4624023,0.4824219-1.2124023,0.8896484-2.4248047,0.8896484c-1.5341797,0-2.590332-0.7216797-3.0532227-2.1005859
		c-0.15625-0.5292969-0.2568359-1.0673828-0.2568359-2.1083984c0-1.0390625,0.1005859-1.5654297,0.2514648-2.0756836
		c0.4624023-1.3759766,1.5273438-2.0678711,3.0048828-2.0678711c0.6621094,0,1.2602539,0.2719727,1.7314453,0.5615234
		C23.6054688,22.671875,25,22.6943359,25,23.078125v4.5683594c0,0.65625,0.65625,1.03125,1.1523438,1.03125
		c0.7207031,0,1.4560547-0.7285156,1.4560547-2.1679688c0-3.2739258-2.0878906-5.390625-5.3193359-5.390625
		c-3.2436523,0-5.3398438,2.1166992-5.3398438,5.390625c0,3.2871094,2.0961914,5.4101563,5.3398438,5.4101563
		c1.4667969,0,2.5649414-0.2324219,3.671875-0.7753906c0.3408203-0.1757813,0.7480469-0.0429688,0.9189453,0.296875
		l0.3046875,0.7578125c0.0576172,0.0839844,0.0849609,0.2617188,0.0419922,0.4296875
		c-0.0439453,0.1738281-0.1582031,0.3222656-0.3222656,0.4199219c-1.3525391,0.7246094-2.7700195,1.0429688-4.6162109,1.0429688
		c-4.4868164,0-7.6201172-3.1171875-7.6201172-7.5820313c0.0019531-4.4521484,3.1362305-7.5620117,7.6210938-7.5620117
		c4.4746094,0,7.5996094,3.1108398,7.5996094,7.5629883C29.8886719,29.7099609,28.1494141,30.8496094,26.5224609,30.8496094z"/>
</g>
</svg>