<?xml version="1.0" encoding="utf-8"?>
<!DOCTYPE svg PUBLIC "-//W3C//DTD SVG 1.1//EN" "http://www.w3.org/Graphics/SVG/1.1/DTD/svg11.dtd">
<svg version="1.1" id="iDelikatesyi-0" xmlns="http://www.w3.org/2000/svg" xmlns:xlink="http://www.w3.org/1999/xlink" x="0px" y="0px" width="100%" height="100%" viewBox="0 0 48 48" preserveAspectRatio="xMidYMid meet">
<path fill="#2B2B2B" d="M28.7636719,23.2177734c0.7519531-0.0849609,1.6865234-0.1899414,2.6083984-0.3525391
	c1.1054688-0.1938477,2.5107422-0.5366211,3.5371094-0.7866211c0.5146484-0.125,0.7529297-0.2231445,0.9658203-0.2661133
	c-0.09375-0.53125-0.2441406-1.1835938-0.4169922-1.625c-0.2578125-0.6572266-0.5771484-1.2426758-1.2597656-2.0493164
	C34.1220703,18.2089844,33.765625,17.953125,33.625,17.890625c-0.3339844-0.1484375-0.6142578-0.2324219-1.9599609-0.0771484
	c-1.34375,0.1552734-1.34375,0.671875-2.4814453,0.9301758c-1.1367188,0.2587891-2.5849609,0.1040039-3.3603516,0.6728516
	c-0.3769531,0.2768555-0.5449219,0.440918-0.6191406,0.5395508c0.2646484,0.2905273,0.6210938,0.6606445,1.1210938,1.1435547
	c0.7216797,0.6967773,1.0693359,1.4838867,1.2314453,2.2744141C27.8144531,23.3242188,28.2324219,23.2768555,28.7636719,23.2177734z
	"/>
<path fill="#2B2B2B" d="M45.3330078,20.5c-0.3632813,0.3989258-2.4179688,1.0722656-3.5830078,1.3544922
	c-0.7763672,0.1879883-2.8691406,0.25-4.25,0.2705078c-0.5742188,0.0083008-1.0166016,0.0478516-1.2294922,0.0625
	c0.1972656,1.2441406,0.2646484,2.6176758-0.0869141,3.7763672c0.6464844,0.3896484,2.7304688-0.1376953,3.0322266-0.1865234
	c0.3095703-0.0517578,1.34375-0.1552734,3.1542969-0.8271484c1.8095703-0.6733398,3.84375-4.4946289,3.8486328-4.4931641
	c-0.1230469-0.2993164-0.2207031-0.3359375-0.3232422-0.5195313C45.9501953,20.0849609,45.4765625,20.3417969,45.3330078,20.5z"/>
<path fill="#2B2B2B" d="M27.2080078,23.7084961c-0.0654297,0.0234375-2.5429688,0.9960938-4.6650391,1.2583008
	c-0.902832,0.1113281-1.7036133,0.1464844-2.3588867,0.1464844c-0.7148438,0-0.9116211-0.0380859-1.2255859-0.0712891
	c0.0097656,1.4599609-0.6201172,3.484375-0.9980469,4.2753906c0.8706055,0.1523438,3.4072266,0.0166016,4.5014648-0.4384766
	c1.2407227-0.5166016,2.7792969-0.2392578,3.9296875-0.6728516c0.6708984-0.2529297,0.7753906-0.6953125,0.7753906-0.7890625
	c0-0.2773438-0.0957031-0.8632813-0.0625-1.1875C27.1884766,25.4482422,27.3457031,24.5820313,27.2080078,23.7084961z"/>
<path fill="#2B2B2B" d="M35.8300781,20.2055664c0.1162109,0.2963867,0.3398438,0.6708984,0.4619141,1.3779297
	c0.2099609-0.0175781,0.5957031,0.1796875,1.2197266,0.1713867c1.3701172-0.0200195,3.4443359-0.0507813,4.1953125-0.2324219
	c1.1796875-0.2856445,3.4501953-1.2875977,3.7558594-1.6240234c0.1523438-0.1660156,0.2509766-0.2553711,0.3251953-0.3149414
	c-0.0283203-0.0498047-0.0664063-0.0976563-0.0859375-0.1484375c-0.5146484-1.3305664-0.65625-0.6977539-0.9052734-1.0288086
	c-0.4658203-0.6206055-0.7724609-0.3862305-2.1689453-1.1616211c-1.3955078-0.7753906-3.7753906-0.3105469-4.2929688,0.1030273
	c-0.515625,0.4140625-2.5322266,0.0517578-3.2568359,0.2070313c-0.3886719,0.0834961-0.5195313,0.4067383-0.671875,0.5703125
	C35.109375,18.9560547,35.5595703,19.5175781,35.8300781,20.2055664z"/>
<path fill="#2B2B2B" d="M47.7988281,19.8813477c0.0517578-0.2578125,0.3085938-0.6723633-0.1025391-1.1889648
	C47.4423828,18.3779297,47.3847656,18.3320313,47.375,18.34375c-0.0214844-0.0922852-0.3017578-0.9580078-0.4375-1.09375
	c-0.1542969-0.1552734-0.7851563-0.234375-1.40625-0.234375c-0.6201172,0-0.1875,1.1875-0.1875,1.1875l0.234375,0.328125
	c0.21875,0.40625,0.1933594,0.6274414,0.359375,0.90625c0.1679688,0.2802734,0.2988281,0.4980469,0.5283203,1.0839844
	c0.4423828,0.1132813,1.2988281,0.3154297,1.4873047,0.2387695C48.2128906,20.6577148,47.7460938,20.1401367,47.7988281,19.8813477z
	"/>
<path fill="#2B2B2B" d="M17.8125,29.265625c0.1694336-0.3242188,0.8320313-3.0371094,0.53125-4.78125
	c-0.3129883-1.8129883-1.6503906-2.6582031-1.8452148-2.8100586C16.25,21.515625,16.078125,21.421875,16.078125,21.421875
	S15.7241211,21.1455078,15,21.09375s-1.0185547,0.4423828-1.0185547,0.4423828s-1.034668-0.1547852-5.1196289,0.2075195
	c-9.1000977,1.4990234-8.9453125,5.7387695-8.9453125,5.7387695c0.1035156,1.5517578,1.2929688,2.5849609,1.7578125,2.9482422
	c0.4658203,0.3613281,2.5849609,0.7744141,3.6201172,0.9287109c1.0341797,0.1552734,1.7578125,0.6738281,2.8432617,0.6220703
	c1.0864258-0.0507813,2.4306641-0.6728516,3.465332-1.1376953c0.5166016,0.2070313,2.2753906,0,3.2055664-0.1552734
	C15.7397461,30.5341797,17.0981445,29.7871094,17.5625,29.375C17.5761719,29.3808594,17.640625,29.375,17.8125,29.265625z
	 M15.9462891,27.5341797c0.0512695,0.8789063,0.1542969,1.8105469-0.8271484,2.2753906
	C14.4228516,30.1396484,13.15625,30.3125,12.3115234,30.3125c-0.3481445,0-0.625-0.0283203-0.7607422-0.0878906
	c-0.9824219,0.5166016-2.0166016,1.3427734-3.2055664,1.3427734c-1.1894531,0-3.6713867-0.7753906-3.6713867-0.7753906
	s-0.0390625,0.0019531-0.1083984,0.0019531c-0.3110352,0-1.2216797-0.0351563-1.8564453-0.4140625
	c-0.7763672-0.4667969-2.171875-1.6552734-2.2749023-2.1738281c-0.1044922-0.5166016-0.0522461-0.9296875-0.0522461-0.9296875
	s-0.2070313-1.8105469,3.2578125-3.206543c3.1713867-1.2783203,4.1757813-2.0361328,5.7119141-2.0361328
	c0.1416016,0,0.2880859,0.0073242,0.440918,0.0195313c1.8105469,0.1552734,3.1542969,1.5517578,3.671875,1.5517578
	c0.409668,0,1.1782227-0.7485352,1.7875977-0.7485352c0.1591797,0,0.3071289,0.0512695,0.4360352,0.1796875
	c0.6206055,0.6206055,0.6206055,1.3959961,0.6206055,1.3959961s0.9311523,0.5180664,0.9819336,1.3452148
	C17.3422852,26.6035156,16.9287109,27.3798828,15.9462891,27.5341797z"/>
<path fill="#2B2B2B" d="M36,22.1875c-0.2070313,0.0410156-0.4990234,0.1279297-1,0.25
	c-1.0292969,0.2509766-2.4521484,0.7001953-3.5625,0.8959961c-0.9287109,0.1640625-1.8916016,0.331543-2.6455078,0.4165039
	c-0.5136719,0.0571289-0.9150391-0.0058594-1.1669922,0.0419922c0.1494141,0.9208984,0.03125,1.6191406-0.0517578,2.3867188
	c-0.0341797,0.3193359-0.0654297,0.6240234-0.078125,0.8945313c-0.0039063,0.0869141-0.0185547,0.1767578-0.0283203,0.2646484
	C27.8964844,27.5908203,28.5117188,28,28.9238281,27.7929688c0.6230469-0.3105469,1.65625-0.5166016,2.2773438-0.5166016
	c0.6191406,0,2.7919922-0.3105469,3.6181641-0.5693359c0.7373047-0.2304688,0.8193359-0.6621094,1.15625-0.7548828
	C36.3388672,24.8232422,36.1982422,23.4228516,36,22.1875z"/>
<path fill="#2B2B2B" d="M18.8959961,24.3959961c0.0058594,0.0908203-0.0024414,0.340332,0,0.4375
	c0.5664063,0.0615234,1.7128906,0.1191406,3.6220703-0.1166992c2.0966797-0.2592773,4.5864258-1.3833008,4.5864258-1.3833008
	c-0.1513672-0.8271484-0.5-1.2084961-1.0839844-2.0415039C25.6689453,20.7905273,25.2626953,20.3066406,25,20.03125
	C24.9667969,20.1098633,24.7358398,20.0317383,24.5625,20c-0.4702148-0.0859375-1.4814453-0.3764648-2.3085938-0.3764648
	c-0.8261719,0-2.0668945,0.7236328-2.7915039,0.6723633c-0.7236328-0.0522461-1.706543,0.5678711-2.4306641,1.0854492
	c-0.125,0.0898438-0.2255859,0.1494141-0.3168945,0.1967773C17.2060547,21.9711914,18.8085938,22.9970703,18.8959961,24.3959961z"/>
<path fill="#2B2B2B" d="M16.1552734,24.5229492L16,24.4931641v-0.0610352c0-0.0073242,0.0957031-0.7392578-0.4873047-1.3227539
	c-0.1015625-0.1010742-0.1552734-0.1494141-0.2983398-0.1494141c-0.3076172,0-0.6625977,0.2202148-0.9916992,0.4150391
	c-0.3027344,0.1787109-0.5556641,0.3334961-0.7680664,0.3334961c-0.21875,0-0.5136719-0.1879883-0.9296875-0.4462891
	c-0.684082-0.425293-1.6201172-1.0087891-2.7436523-1.1054688c-0.1494141-0.0131836-0.2915039-0.0195313-0.4296875-0.0195313
	c-1.0375977,0-1.828125,0.3535156-3.2626953,0.9941406c-0.6479492,0.2900391-1.425293,0.637207-2.4106445,1.034668
	c-3.3374023,1.3447266-3.1958008,3.0820313-3.1943359,3.1230469c-0.0004883,0.0048828-0.0478516,0.4042969,0.0512695,0.8974609
	c0.0932617,0.4638672,1.453125,1.6396484,2.2270508,2.1035156c0.6191406,0.3710938,1.5366211,0.4003906,1.8032227,0.4003906
	l0.1386719,0.0029297c0.0244141,0.0068359,2.480957,0.7705078,3.6411133,0.7705078
	c0.8833008,0,1.6835938-0.4726563,2.4560547-0.9316406c0.237793-0.140625,0.4707031-0.2792969,0.7016602-0.4003906
	l0.0444336-0.0234375l0.0454102,0.0205078c0.1162109,0.0517578,0.3774414,0.0810547,0.71875,0.0810547
	c0.8339844,0,2.0854492-0.1728516,2.762207-0.4941406c0.8759766-0.4150391,0.8261719-1.2128906,0.7744141-2.0585938
	l-0.0141602-0.2099609l0.0898438-0.015625c0.9936523-0.15625,1.2553711-0.9550781,1.2128906-1.6494141
	C17.0893555,25.0224609,16.1640625,24.527832,16.1552734,24.5229492z M15.2050781,23.5185547
	c0.2763672,0,0.5,0.1777344,0.5,0.3959961c0,0.2207031-0.2236328,0.3979492-0.5,0.3979492s-0.5-0.1772461-0.5-0.3979492
	C14.7050781,23.6962891,14.9287109,23.5185547,15.2050781,23.5185547z M13.550293,24.3461914
	c0.2768555,0,0.5,0.1772461,0.5,0.3959961c0,0.2197266-0.2231445,0.3974609-0.5,0.3974609
	c-0.2758789,0-0.4995117-0.1777344-0.4995117-0.3974609C13.0507813,24.5234375,13.2744141,24.3461914,13.550293,24.3461914z
	 M13.3779297,26.0019531c0.3720703,0,0.6723633,0.1757813,0.6723633,0.3945313c0,0.2207031-0.300293,0.3964844-0.6723633,0.3964844
	c-0.371582,0-0.6723633-0.1757813-0.6723633-0.3964844C12.7055664,26.1777344,13.0063477,26.0019531,13.3779297,26.0019531z
	 M11.7231445,23.5185547c0.3720703,0,0.6728516,0.1777344,0.6728516,0.3959961c0,0.2207031-0.3007813,0.3979492-0.6728516,0.3979492
	c-0.371582,0-0.6723633-0.1772461-0.6723633-0.3979492C11.0507813,23.6962891,11.3515625,23.5185547,11.7231445,23.5185547z
	 M10.0688477,22.690918c0.371582,0,0.671875,0.1777344,0.671875,0.3969727c0,0.2197266-0.300293,0.3969727-0.671875,0.3969727
	s-0.671875-0.1772461-0.671875-0.3969727C9.3969727,22.8686523,9.6972656,22.690918,10.0688477,22.690918z M9.5341797,23.862793
	c0.4379883,0,0.7929688,0.2617188,0.7929688,0.5869141c0,0.3242188-0.3549805,0.5854492-0.7929688,0.5854492
	c-0.4370117,0-0.7924805-0.2612305-0.7924805-0.5854492C8.7416992,24.1245117,9.097168,23.862793,9.5341797,23.862793z
	 M10.3271484,26.7587891c0,0.2275391-0.2158203,0.4140625-0.4824219,0.4140625
	c-0.2661133,0-0.4824219-0.1865234-0.4824219-0.4140625c0-0.2285156,0.2163086-0.4130859,0.4824219-0.4130859
	C10.1113281,26.3457031,10.3271484,26.5302734,10.3271484,26.7587891z M8.4140625,25.9658203
	c-0.371582,0-0.671875-0.1757813-0.671875-0.3955078s0.300293-0.3964844,0.671875-0.3964844
	c0.3720703,0,0.6723633,0.1767578,0.6723633,0.3964844S8.7861328,25.9658203,8.4140625,25.9658203z M8.6728516,26.7587891
	c0,0.2275391-0.2163086,0.4140625-0.4829102,0.4140625c-0.2661133,0-0.4824219-0.1865234-0.4824219-0.4140625
	c0-0.2285156,0.2163086-0.4130859,0.4824219-0.4130859C8.456543,26.3457031,8.6728516,26.5302734,8.6728516,26.7587891z
	 M8.1899414,23.0361328c0.2666016,0,0.4829102,0.1845703,0.4829102,0.4130859c0,0.2290039-0.2163086,0.4135742-0.4829102,0.4135742
	c-0.2661133,0-0.4824219-0.1845703-0.4824219-0.4135742C7.7075195,23.2207031,7.9238281,23.0361328,8.1899414,23.0361328z
	 M6.9316406,23.862793c0.4858398,0,0.8793945,0.2089844,0.8793945,0.4663086c0,0.2563477-0.3935547,0.4648438-0.8793945,0.4648438
	c-0.4853516,0-0.878418-0.2084961-0.878418-0.4648438C6.0532227,24.0717773,6.4462891,23.862793,6.9316406,23.862793z
	 M6.2587891,26.5517578c0.7060547,0,1.2753906,0.3779297,1.2753906,0.8447266c0,0.4677734-0.5693359,0.8447266-1.2753906,0.8447266
	c-0.7041016,0-1.2749023-0.3769531-1.2749023-0.8447266C4.9838867,26.9296875,5.5546875,26.5517578,6.2587891,26.5517578z
	 M6.0874023,26.1894531c0-0.0908203,0.2075195-0.1621094,0.4648438-0.1621094c0.2578125,0,0.465332,0.0712891,0.465332,0.1621094
	c0,0.0917969-0.2075195,0.1640625-0.465332,0.1640625C6.2949219,26.3535156,6.0874023,26.28125,6.0874023,26.1894531z
	 M4.8286133,24.6904297c0.6948242,0,1.2587891,0.3242188,1.2587891,0.7236328c0,0.4003906-0.5639648,0.7246094-1.2587891,0.7246094
	c-0.6943359,0-1.2583008-0.3242188-1.2583008-0.7246094C3.5703125,25.0146484,4.1342773,24.6904297,4.8286133,24.6904297z
	 M2.4501953,25.5175781c0.2954102,0,0.534668,0.2080078,0.534668,0.4667969c0,0.2558594-0.2392578,0.4638672-0.534668,0.4638672
	c-0.2944336,0-0.5341797-0.2080078-0.5341797-0.4638672C1.9160156,25.7255859,2.1557617,25.5175781,2.4501953,25.5175781z
	 M1.0888672,27.8964844c0-0.3984375,0.5634766-0.7236328,1.2573242-0.7236328c0.6958008,0,1.2592773,0.3251953,1.2592773,0.7236328
	c0,0.3994141-0.5634766,0.7236328-1.2592773,0.7236328C1.6523438,28.6201172,1.0888672,28.2958984,1.0888672,27.8964844z
	 M3.2260742,29.6542969c-0.2666016,0-0.4824219-0.1845703-0.4824219-0.4121094c0-0.2294922,0.2158203-0.4150391,0.4824219-0.4150391
	s0.4829102,0.1855469,0.4829102,0.4150391C3.7089844,29.4697266,3.4926758,29.6542969,3.2260742,29.6542969z M3.5703125,26.7587891
	c0-0.2285156,0.2163086-0.4130859,0.4829102-0.4130859c0.2670898,0,0.4829102,0.1845703,0.4829102,0.4130859
	c0,0.2275391-0.2158203,0.4140625-0.4829102,0.4140625C3.7866211,27.1728516,3.5703125,26.9863281,3.5703125,26.7587891z
	 M3.9848633,28.0517578c0-0.2197266,0.2158203-0.3955078,0.4824219-0.3955078s0.4819336,0.1757813,0.4819336,0.3955078
	s-0.215332,0.3955078-0.4819336,0.3955078S3.9848633,28.2714844,3.9848633,28.0517578z M5.6557617,30.2753906
	c-0.6943359,0-1.2578125-0.3242188-1.2578125-0.7246094c0-0.3994141,0.5634766-0.7236328,1.2578125-0.7236328
	c0.6953125,0,1.2587891,0.3242188,1.2587891,0.7236328C6.9145508,29.9511719,6.3510742,30.2753906,5.6557617,30.2753906z
	 M7.3623047,30.4824219c-0.265625,0-0.4819336-0.1845703-0.4819336-0.4150391c0-0.2285156,0.2163086-0.4130859,0.4819336-0.4130859
	c0.2670898,0,0.4829102,0.1845703,0.4829102,0.4130859C7.8452148,30.2978516,7.6293945,30.4824219,7.3623047,30.4824219z
	 M7.3964844,29.2753906c-0.2666016,0-0.4819336-0.1767578-0.4819336-0.3964844c0-0.21875,0.215332-0.3964844,0.4819336-0.3964844
	c0.2680664,0,0.4833984,0.1777344,0.4833984,0.3964844C7.8798828,29.0986328,7.6645508,29.2753906,7.3964844,29.2753906z
	 M7.7421875,28.0517578c0-0.2197266,0.300293-0.3955078,0.671875-0.3955078c0.3720703,0,0.6723633,0.1757813,0.6723633,0.3955078
	s-0.300293,0.3955078-0.6723633,0.3955078C8.0424805,28.4472656,7.7421875,28.2714844,7.7421875,28.0517578z M9.2412109,30.9296875
	c-0.3710938,0-0.671875-0.1767578-0.671875-0.3955078c0-0.2197266,0.3007813-0.3974609,0.671875-0.3974609
	c0.3720703,0,0.6723633,0.1777344,0.6723633,0.3974609C9.9135742,30.7529297,9.6132813,30.9296875,9.2412109,30.9296875z
	 M10.1025391,29.6259766c-0.8657227,0-1.5678711-0.3173828-1.5678711-0.7099609
	c0-0.3916016,0.7021484-0.7099609,1.5678711-0.7099609c0.8671875,0,1.5693359,0.3183594,1.5693359,0.7099609
	C11.671875,29.3085938,10.9697266,29.6259766,10.1025391,29.6259766z M11.7231445,28.4472656
	c-0.371582,0-0.6723633-0.1757813-0.6723633-0.3955078s0.3007813-0.3955078,0.6723633-0.3955078
	c0.3720703,0,0.6728516,0.1757813,0.6728516,0.3955078S12.0952148,28.4472656,11.7231445,28.4472656z M11.0170898,26.7587891
	c0-0.2285156,0.2163086-0.4130859,0.4824219-0.4130859c0.2666016,0,0.4824219,0.1845703,0.4824219,0.4130859
	c0,0.2275391-0.2158203,0.4140625-0.4824219,0.4140625C11.2333984,27.1728516,11.0170898,26.9863281,11.0170898,26.7587891z
	 M11.4472656,26.1386719c-0.6948242,0-1.2578125-0.3242188-1.2578125-0.7246094
	c0-0.3994141,0.5629883-0.7236328,1.2578125-0.7236328c0.6953125,0,1.2583008,0.3242188,1.2583008,0.7236328
	C12.7055664,25.8144531,12.1425781,26.1386719,11.4472656,26.1386719z M13.9291992,28.6201172
	c-0.6948242,0-1.2578125-0.3242188-1.2578125-0.7236328c0-0.3984375,0.5629883-0.7236328,1.2578125-0.7236328
	c0.6962891,0,1.2587891,0.3251953,1.2587891,0.7236328C15.1879883,28.2958984,14.6254883,28.6201172,13.9291992,28.6201172z
	 M15.3598633,26.5869141c-0.7036133,0-1.2753906-0.3769531-1.2753906-0.8447266
	c0-0.4667969,0.5717773-0.8447266,1.2753906-0.8447266c0.7045898,0,1.2758789,0.3779297,1.2758789,0.8447266
	C16.6357422,26.2099609,16.0644531,26.5869141,15.3598633,26.5869141z"/>
</svg>