<?xml version="1.0" encoding="utf-8"?>
<!DOCTYPE svg PUBLIC "-//W3C//DTD SVG 1.1//EN" "http://www.w3.org/Graphics/SVG/1.1/DTD/svg11.dtd">
<svg version="1.1" id="iDelikatesyi" xmlns="http://www.w3.org/2000/svg" xmlns:xlink="http://www.w3.org/1999/xlink" x="0px" y="0px" width="100%" height="100%" viewBox="0 0 48 48" preserveAspectRatio="xMidYMid meet">
<path fill="#2B2B2B" d="M20.2919922,32.828125c2.1274414,0.1484375,4.0976563,0.2431641,4.5668945,0.2431641
	C24.8666992,33.0615234,24.8735352,33,24.8818359,33h-0.0229492C24.3837891,33,22.4169922,32.9570313,20.2919922,32.828125z"/>
<path fill="#2B2B2B" d="M24.6845703,30.46875c-0.097168,0.0224609-0.2363281,0.1464844-0.3833008,0.2783203
	c-0.2246094,0.2021484-0.5043945,0.453125-0.8764648,0.5761719c-0.0947266,0.0322266-0.1860352,0.046875-0.2700195,0.046875
	c-0.3222656,0-0.5019531-0.2226563-0.6445313-0.4023438c-0.0932617-0.1171875-0.1816406-0.2265625-0.2871094-0.2548828
	c-0.1987305-0.0537109-0.453125,0.0742188-0.6420898,0.1787109c-0.121582,0.0654297-0.2099609,0.1142578-0.2944336,0.1142578
	c-0.1137695,0-0.2128906-0.0878906-0.3759766-0.2324219C20.7373047,30.6201172,20.5,30.4101563,20.2280273,30.3115234
	c-0.1928711-0.0683594-0.4155273-0.0800781-0.6503906-0.0917969c-0.3427734-0.0166016-0.730957-0.0371094-1.1337891-0.2402344
	c-0.1025391-0.0498047-0.2329102-0.1201172-0.3842773-0.2011719c-0.7958984-0.4238281-2.1699219-1.1630859-2.9213867-1.046875
	c-0.4541016,0.0693359-0.7329102,1.4697266-0.8398438,2.7910156c2.9692383,0.3837891,6.5307617,0.7265625,10.0551758,0.7822266
	c0.1748047,0.0029297,0.3491211,0.0048828,0.5229492,0.0058594C24.8969727,31.609375,24.8222656,30.6611328,24.6845703,30.46875z"/>
<path fill="#2B2B2B" d="M40.5185547,25.4511719C40.1933594,25.3408203,40.2294922,26.0625,39.7617188,26.0625
	c-0.4697266,0-1.9492188,0.46875-2.6357422,0.6494141c-0.1083984-0.4697266-0.6484375-1.5507813-1.1894531-1.9482422
	c-0.5419922-0.3964844-3.3203125-1.8041992-3.3203125-1.8041992s-0.2519531,0.6494141-0.5048828,0.8662109
	c-0.2529297,0.2163086-0.5771484,0.324707-0.9736328,0.8657227c-0.3974609,0.5419922-2.4912109,2.3808594-2.9589844,2.6708984
	c-0.46875,0.2880859-4.4746094,2.9580078-7.6137695,0.0351563c-3.1391602-2.9223633-2.3452148-6.4223633-0.9379883-8.8041992
	c1.4067383-2.3813477,9.2734375-2.6699219,9.2734375-2.6699219s0,0-1.5517578-0.6132813s-7.0722656-0.3603516-10.6806641-0.144043
	c-3.6079102,0.2163086-5.7729492,4.2216797-7.6494141,8.3349609s-1.9477539,6.8554688-1.9477539,6.8554688
	s2.8774414,0.5947266,6.9370117,1.1289063c0.0888672-1.1777344,0.3452148-2.9365234,1.0869141-3.0507813
	c0.8325195-0.1279297,2.2700195,0.640625,3.1010742,1.0849609c0.1479492,0.0800781,0.2768555,0.1494141,0.3769531,0.1992188
	c0.3491211,0.1738281,0.6899414,0.1953125,1.0205078,0.2119141c0.2563477,0.0117188,0.4985352,0.0253906,0.7314453,0.1083984
	c0.3256836,0.1162109,0.5864258,0.3486328,0.7768555,0.5175781c0.0756836,0.0673828,0.1704102,0.1513672,0.2026367,0.1630859
	c0.0009766-0.0068359,0.0810547-0.0498047,0.1386719-0.0820313c0.21875-0.1201172,0.5595703-0.2851563,0.8564453-0.2041016
	c0.1962891,0.0546875,0.3242188,0.2138672,0.4360352,0.3535156c0.1928711,0.2412109,0.3227539,0.3544922,0.5986328,0.2626953
	c0.3144531-0.1054688,0.5585938-0.3242188,0.7739258-0.5175781c0.2133789-0.1914063,0.3984375-0.3554688,0.6064453-0.3554688
	c0.1079102,0,0.1943359,0.0761719,0.2578125,0.2285156c0.1411133,0.3417969,0.2280273,1.2197266,0.1928711,1.9052734
	c7.3984375,0.0048828,14.4765625-1.5048828,14.7402344-1.5205078c0.2880859-0.2890625,1.2255859-1.0478516,1.3349609-1.1552734
	c0.1083984-0.1083984,0.8652344-0.7216797,1.3349609-0.9023438c0.46875-0.1806641,0.7578125-0.3242188,0.6494141-0.8291016
	C43.0087891,26.7841797,40.84375,25.5576172,40.5185547,25.4511719z M9.1630859,25.4853516
	c0.6494141,0.2529297,1.2270508,0.2880859,1.8764648,2.0566406C10.5336914,26.53125,9.1630859,25.4853516,9.1630859,25.4853516z
	 M9.7397461,24.3305664c0.6503906,0.2524414,1.2280273,0.2885742,1.8769531,2.0571289
	C11.1113281,25.3759766,9.7397461,24.3305664,9.7397461,24.3305664z M10.8950195,23.1762695
	c0.6499023,0.2524414,1.2265625,0.2885742,1.8764648,2.0571289C12.2661133,24.2226563,10.8950195,23.1762695,10.8950195,23.1762695z
	 M11.472168,22.0214844c0.6494141,0.2524414,1.2270508,0.2890625,1.8764648,2.0571289
	C12.8432617,23.0678711,11.472168,22.0214844,11.472168,22.0214844z M12.6269531,20.8666992
	c0.6494141,0.2529297,1.2265625,0.2890625,1.8759766,2.0561523C13.9980469,21.9130859,12.6269531,20.8666992,12.6269531,20.8666992z
	 M37.34375,27.09375c2.25,0.65625,2.625,2.21875,2.5,2.78125C39.84375,29.875,38.96875,28.0625,37.34375,27.09375z"/>
<path fill="#2B2B2B" d="M43.3691406,13.253418c-0.7216797-1.5517578-1.9482422-1.8037109-1.9482422-1.8037109l-1.1191406,0.7211914
	l0.1074219,0.5776367l-1.8037109,0.7939453c0,0-0.1806641,0.8300781,0.2167969,1.6958008s1.0830078,1.1362305,1.0830078,1.1362305
	l1.9121094-0.5595703l0.234375,0.3432617l1.4609375-0.2524414C43.5126953,15.9057617,44.0898438,14.8051758,43.3691406,13.253418z
	 M41.0048828,12.6762695l0.8125-0.5771484l0.3066406,0.4326172l-0.8837891,0.5053711L41.0048828,12.6762695z M41.4208984,13.3793945
	L42.25,12.8564453l0.3251953,0.4516602l-0.9736328,0.5048828L41.4208984,13.3793945z M41.9257813,14.4985352l-0.1621094-0.4331055
	l0.9375-0.4150391l0.1992188,0.5410156L41.9257813,14.4985352z M42.1591797,15.2924805l-0.0898438-0.4150391l0.9199219-0.1987305
	l0.0917969,0.5419922L42.1591797,15.2924805z"/>
<path fill="#2B2B2B" d="M19.3383789,24.1142578c2.7421875,8.0107422,10.7875977,1.2265625,11.1137695,0.7583008
	c0.3232422-0.4697266,0.1806641-0.8305664,0.7207031-1.1191406c0.5419922-0.2885742,0.6142578-0.0722656,1.3720703-1.4077148
	c0.7578125-1.3344727,2.0205078-2.8496094,2.2724609-2.9941406s0.5771484-0.4331055,0.6132813-0.5410156
	c0.0351563-0.1083984,0.6865234-0.4692383,0.9023438-0.6132813c0.2167969-0.1445313,0.2519531-0.578125,0.6132813-0.8305664
	c0.3603516-0.2519531,2.1660156-0.9741211,2.1660156-0.9741211s-0.4707031-0.5053711-0.6513672-0.7939453
	c-0.1796875-0.2885742-0.2148438-0.7578125-0.2148438-0.7578125c-0.1806641,0.2895508-2.3457031,1.2998047-3.1767578,1.4799805
	c-0.8291016,0.1796875-2.6689453,0-3.859375,0C30.0185547,16.3208008,16.5957031,16.1040039,19.3383789,24.1142578z"/>
<path fill="#2B2B2B" d="M44.7431641,37c2.3681641-2,3.3886719-7.0917969,3.3886719-7.0917969
	S33.84375,32.9472656,24.0288086,32.9472656c-9.9228516,0-24.1386719-2.9902344-24.1386719-2.9902344
	C0.6015625,33.7910156,2.8291016,35,4.3574219,37H44.7431641z"/>
</svg>