<?xml version="1.0" encoding="utf-8"?>
<!DOCTYPE svg PUBLIC "-//W3C//DTD SVG 1.1//EN" "http://www.w3.org/Graphics/SVG/1.1/DTD/svg11.dtd">
<svg version="1.1" id="iDich" xmlns="http://www.w3.org/2000/svg" xmlns:xlink="http://www.w3.org/1999/xlink" x="0px" y="0px" width="100%" height="100%" viewBox="0 0 48 48" preserveAspectRatio="xMidYMid meet">
<path fill="#2B2B2B" d="M43.2568359,42.1533203c-0.265625,0.21875-1.1855469,0.6289063-1.5234375-0.0244141
	c-0.3144531,0.2177734-1.2324219,1.0644531-1.2324219,1.0644531c1.3291016,0.6523438,2.7402344,0.1064453,2.828125,0.0244141
	C43.4179688,43.1357422,43.4394531,42.0039063,43.2568359,42.1533203z"/>
<path fill="#2B2B2B" d="M32.2294922,43.0732422c-0.3417969-0.0371094-1.3310547,0.1445313-1.6689453-0.5078125
	c-0.3144531,0.2167969-1.2099609,0.9912109-1.2099609,0.9912109c1.3310547,0.6533203,2.5722656,0.3232422,2.6601563,0.2412109
	C32.1005859,43.7158203,32.4462891,43.0966797,32.2294922,43.0732422z"/>
<path fill="#2B2B2B" d="M25.0214844,40.8486328c-0.265625,0.2167969-1.2324219,0.2167969-1.5712891-0.4365234
	c-0.3144531,0.2177734-1.2333984,1.3310547-1.2333984,1.3310547c1.3300781,0.6523438,2.7412109,0.1054688,2.8291016,0.0234375
	C25.1357422,41.6835938,25.2050781,40.6992188,25.0214844,40.8486328z"/>
<path fill="#2B2B2B" d="M25.6064453,24.4819336c0.0273438-0.1645508,0.0439453-0.2963867,0.0439453-0.3457031
	C25.6503906,24.0883789,25.6279297,24.2573242,25.6064453,24.4819336z"/>
<path fill="#2B2B2B" d="M38.1054688,26.3613281c0.4111328-0.8466797,3.3134766-5.0063477,3.6035156-5.5380859
	c0,0,0.5810547-0.75,0.7255859-1.2333984c0.1455078-0.4838867,0.5322266-1.7416992-0.0478516-2.3222656
	c-0.5810547-0.5800781-1.1376953-1.0634766-1.3300781-1.2568359c-0.1943359-0.1938477-1.3300781-1.6933594-3.0712891-1.765625
	c-1.7412109-0.0727539-5.9980469,1.1850586-8.2470703,0.5322266c-2.2490234-0.6533203-2.5634766-2.1767578-3.7001953-2.9746094
	c-1.1367188-0.7983398-1.6201172-0.6289063-1.6201172-0.6289063l-0.0488281-0.2661133c0,0-0.7978516-0.0966797-0.9921875,0.0244141
	c-0.1933594,0.1201172,0-0.2661133,0-0.2661133s-0.3378906-0.0727539-0.7978516,0
	c-0.4589844,0.0722656-0.8701172,0.3383789-0.8701172,0.3383789l0.0722656-0.4350586c0,0-0.6044922-0.097168-0.9677734,0.0966797
	c-0.3613281,0.1933594-0.7490234,0.5561523-1.4267578,0.5078125c-0.6767578-0.0488281-1.7167969-0.2905273-2.1523438-0.4833984
	c-0.4355469-0.1938477-5.9970703-0.2421875-6.8925781,0.3139648c-0.8945313,0.5561523-0.7734375,0.8701172-1.1845703,1.0644531
	c-0.4111328,0.1933594-3.4824219,1.0639648-4.1601563,2.0791016c-0.6767578,1.0161133-1.2568359,2.0078125-0.9667969,2.6123047
	s1.2333984,1.765625,1.6933594,1.5478516c0.4589844-0.2182617,0.6396484-0.75,0.6396484-0.75
	s0.0039063,0.0019531,0.0048828,0.0024414c0.0117188-0.2988281,0.0224609-0.7133789,0.0078125-0.9692383
	c-0.0244141-0.4355469-0.0488281-0.6293945-0.0488281-0.6293945s0.1591797,1.0683594,0.1865234,1.6542969
	c0.2255859,0.078125,0.6474609,0.1865234,0.8300781-0.0214844c0.2539063-0.2905273,0.265625-0.5927734,0.0478516-1.003418
	c0.2177734-0.4111328,0.2666016-0.4599609,0.8710938-0.4599609c0.6035156,0,1.4746094-0.0966797,1.5712891,1.0878906
	c0.0976563,1.1850586,0.2910156,1.8144531,0.6298828,1.7172852c0.3378906-0.0966797,0.7734375-0.2172852,0.7978516,0.4360352
	c0.0244141,0.652832-0.1455078,1.6923828,0.0966797,1.8613281c0.2412109,0.1699219,0.2412109,0.1699219,0.2412109,0.1699219
	s-0.1210938,0.9916992,0.2177734,1.0883789c0.3388672,0.0957031,0.3388672,0.0957031,0.3388672,0.0957031
	s-0.0488281,1.3549805,0.5800781,1.1855469c0.6289063-0.1689453,0.7734375-1.2084961,0.75-2.2246094
	c-0.0244141-1.0161133-0.2177734-1.5717773-0.0488281-1.5961914c0.1699219-0.0244141,0.4355469,0.4111328,1.4511719,0.8461914
	s3.4101563,1.5478516,3.796875,1.402832c0.3632813,0.7739258,0.7744141,2.2001953,1.4277344,2.5874023
	c0.6523438,0.3876953,2.3691406,0.9433594,2.3691406,0.9433594s-0.0234375-0.4599609-0.2177734-0.7978516
	c-0.1933594-0.3388672,0.1455078-0.0722656,0.2666016,0.2900391c0.1210938,0.3632813,0.1445313,1.4746094,0.2167969,1.9599609
	c0.0732422,0.4833984,0.484375,2.1513672,0.5332031,2.6113281c0.0478516,0.4589844-0.2666016,1.4267578-0.1943359,1.8623047
	c0.0722656,0.4345703,0.6777344,1.4990234,0.7744141,2.1025391c0.0966797,0.6054688-0.1699219,4.5957031-0.2421875,5.1767578
	c-0.0722656,0.5800781-0.1210938,0.8945313-0.0722656,1.0390625c0.0488281,0.1455078,0.0966797,0.6533203,0.6044922,0.7021484
	s0.7988281,0.0722656,0.8222656-0.3623047c0.0244141-0.4365234-0.0234375-6.8681641,0.0244141-7.1591797
	c0.0478516-0.2900391,0.2421875-0.5810547,0.2421875-1.1611328c0-0.5810547-0.1210938-1.4755859-0.0976563-1.8378906
	c0.0244141-0.3623047,0.2421875-1.7402344,0.2421875-2.4423828c0-0.7011719-0.0732422-2.03125,0.0488281-2.4423828
	c0.0712891-0.2441406,0.1337891-0.5527344,0.1728516-0.7915039c0.0214844-0.2246094,0.0439453-0.3935547,0.0439453-0.3457031
	c0,0.0493164-0.0166016,0.1811523-0.0439453,0.3457031c-0.0322266,0.3442383-0.0625,0.8198242-0.0039063,0.8637695
	c0.0966797,0.0722656,3.8691406,0.8457031,4.7646484,0.4833984c0.8935547-0.3632813,2.0546875-0.5800781,2.5146484-0.6044922
	s1.0644531-0.0966797,1.0644531-0.0966797c0.0722656,0,0.0966797-0.5083008-0.1689453-1.0644531
	c-0.2666016-0.5561523-0.4355469-0.8950195-0.4355469-0.8950195s0.1689453,0.0488281,0.5078125,0.5805664
	c0.3378906,0.5327148,0.5800781,2.4912109,0.5556641,3.1435547c-0.0234375,0.6533203,0.1455078,0.5087891,0.1943359,0.8232422
	c0.0478516,0.3144531-0.0488281,1.5478516,0.1689453,1.9345703c0.2167969,0.3867188,0.6767578,1.6210938,0.5556641,2.4423828
	c0,0-0.2177734,1.2099609-0.3623047,1.8623047c-0.1455078,0.6533203-2.3212891,5.5146484-2.8544922,6.2636719
	c-0.53125,0.7490234-1.2568359,1.7910156-1.2568359,1.7910156s-0.2900391,0.3134766,0.1201172,0.4345703
	c0.4121094,0.1210938,1.1367188,0.4589844,1.3310547,0.3134766c0.1933594-0.1455078,1.3300781-2.8535156,1.6679688-3.4824219
	c0.3388672-0.6289063,2.0322266-3.5302734,2.25-3.9179688c0.2167969-0.3867188,0.9423828-1.7890625,1.1367188-2.0546875
	c0.1933594-0.2666016,0.6289063-0.4833984,0.6289063-0.7988281c0-0.3134766-0.6289063-2.3222656-0.5078125-2.9511719
	C37.5976563,28.9248047,37.6943359,27.2080078,38.1054688,26.3613281z M5.6748047,17.8481445
	c-0.1210938,0.2416992-0.6289063-0.2172852-0.6289063-0.2172852c0.2900391,0,0.3046875,0.0761719,0.4111328-0.2416992
	c0.0722656-0.2172852-0.5566406-1.402832-0.5566406-1.402832s0,0,0.4599609,0.5322266
	C5.8193359,17.0507813,5.7958984,17.6064453,5.6748047,17.8481445z M10.8085938,11.6015625
	c0.3037109-0.0786133,0.5859375,0,0.6728516,0.078125c0.0869141,0.0786133-0.1083984,0.4506836-0.2822266,0.4897461
	c-0.1728516,0.0390625-0.8232422,0-0.9541016,0C10.2451172,12.1694336,10.5058594,11.6796875,10.8085938,11.6015625z
	 M12.4951172,15.9619141c-0.6298828,0.097168-2.03125-0.0483398-2.9511719-0.6289063c0,0,3.4824219,1.4516602,4.6435547-1.5473633
	C13.9941406,15.4301758,13.1230469,15.8652344,12.4951172,15.9619141z M15.0585938,16.7358398
	c-0.4355469,0.3388672-1.3544922,0.8222656-1.6445313,1.7900391c0,0,0.0478516-1.7416992,0.8701172-2.0805664
	c0.8222656-0.3378906,2.4179688-0.3383789,3.0957031-0.2900391C18.0566406,16.2036133,15.4931641,16.3969727,15.0585938,16.7358398z
	 M20.2822266,16.8813477c0.2900391,1.3544922,1.2089844,2.9018555,1.6445313,2.9501953
	c0.4345703,0.0483398-0.7255859,0.1938477-1.2578125,0.7255859c-0.5322266,0.5322266-1.2460938,1.5478516-0.859375,2.2250977
	C20.1972656,23.4589844,19,22.0561523,19,21.3793945v-0.2416992c0,0-0.5439453-2.7573242,0.8583984-5.0786133
	c1.4033203-2.3217773,1.9775391-2.515625,2.4609375-2.6123047C22.8037109,13.3500977,19.9912109,15.5263672,20.2822266,16.8813477z"
	/>
<path fill="#2B2B2B" d="M11.2128906,11.8989258l-0.2177734-0.0961914l0.1005859-0.0888672
	c-0.0332031-0.0185547-0.0703125-0.0322266-0.1123047-0.0322266c-0.1279297,0-0.2304688,0.097168-0.2304688,0.2172852
	c0,0.1206055,0.1025391,0.2177734,0.2304688,0.2177734C11.109375,12.1166992,11.2128906,12.0195313,11.2128906,11.8989258z"/>
<path fill="#2B2B2B" d="M6.0371094,9.9267578c1.1953125,0.4819336,2.9931641,0.3056641,3.7265625,0.3974609
	c0.7324219,0.0913086,3.7871094-0.3662109,4.6728516-0.3662109s2.6259766,0.3349609,3.6650391,0.4882813
	c1.0380859,0.152832,3.0546875-1.4658203,3.359375-1.8330078c0.3056641-0.3662109,1.2832031-0.9775391,1.9248047-1.8325195
	c0.640625-0.8549805,0.1220703-1.0375977-0.0917969-0.5800781C23.0800781,6.6591797,21.0029297,8.125,20.7285156,8.09375
	c-0.2753906-0.0302734,0,0,0.7636719-0.6103516s1.2216797-2.0463867,1.1601563-2.2900391
	c-0.0605469-0.2446289-0.2441406,0.0302734-0.5195313,0.7324219c-0.5185547,1.2827148-2.1064453,1.6494141-2.4736328,1.6181641
	c-0.3662109-0.0302734-0.0605469-0.7631836,0.2138672-1.190918s0.3662109-1.6186523,0.2744141-1.6791992
	c-0.0908203-0.0615234-0.0908203-0.2753906-0.4277344,0.6713867c-0.8847656,2.1074219-1.9238281,1.9853516-2.1679688,1.7719727
	s0.8251953-1.7104492,0.5810547-1.9550781s-0.9472656,1.34375-1.3134766,1.7109375
	c-0.3671875,0.3662109-0.7333984,0.1210938-1.0390625,0.0615234c-0.3056641-0.0615234,0.4892578-0.8867188,0.3662109-0.9780273
	c-0.1220703-0.0922852-1.1601563,1.190918-1.6181641,1.2519531c-0.4580078,0.0615234,0-0.7329102,0.1220703-1.1914063
	c0.1220703-0.4575195,1.2216797-1.8930664,1.0390625-2.1069336c-0.1835938-0.2138672-0.9785156,1.0078125-1.4052734,1.496582
	c-0.4277344,0.4882813-0.9472656,1.7104492-1.2519531,2.168457c-0.3066406,0.4580078-0.6416016,0.2138672-0.8251953,0
	s0.671875-1.6801758,0.1523438-1.7109375c-0.5185547-0.0302734-0.4277344,2.1079102-1.1601563,2.6274414
	c-0.7333984,0.5195313-1.7275391,0.1430664-1.5878906-1.0996094C9.6689453,6.8735352,9.0615234,6.5976563,9,6.902832
	S9.2714844,7.8125,8.7216797,7.8125S7.3193359,7.1347656,7.0751953,6.0170898
	C7.0263672,5.7900391,6.6914063,6.1669922,6.9228516,6.9638672c0.3232422,1.1142578,1.890625,1.4311523,2.046875,1.6191406
	c0.1523438,0.1835938,0.4580078,0.3359375-0.03125,0.5185547C6.984375,9.8652344,6.1074219,6.2705078,5.7714844,6.2397461
	c-0.3359375-0.0302734-0.1445313,2.128418,0.9433594,2.9750977C6.8164063,9.2944336,5.6025391,9.190918,5.2431641,8.4306641
	C5.0371094,7.9936523,4.4472656,5.6889648,4.265625,5.7734375C3.8847656,5.9501953,4.1513672,9.1660156,6.0371094,9.9267578z"/>
<path fill="#2B2B2B" d="M43.3056641,30.4726563c-0.6044922-0.5800781-1.5722656-3.5800781-1.6689453-4.1113281
	c-0.0966797-0.5322266,0.4833984-5.9008789,0.4833984-5.9008789s-0.0966797,0.2416992-0.2177734,0.387207
	c-0.1210938,0.1445313-1.3056641,2.1762695-1.765625,3.046875c-0.4589844,0.8706055-1.7890625,2.2724609-1.7890625,2.2724609
	c1.5478516,2.6367188,3.5058594,6.7001953,3.9423828,8.0537109c0.4345703,1.3544922-0.1455078,5.1025391-0.3632813,6.3847656
	s-0.0966797,1.3066406,0.1933594,1.5478516c0.2900391,0.2421875,1.1845703-0.2900391,1.1845703-0.2900391
	s0.1943359-3.7958984,0.1943359-5.1992188c0-1.4042969,0.5078125-5.2001953,0.4111328-5.5146484
	C43.8125,30.8349609,43.9101563,31.0537109,43.3056641,30.4726563z"/>
<path fill="#2B2B2B" d="M21.6357422,25.6601563c-0.2900391,2.0556641,0.7988281,3.53125,0.7255859,3.9414063
	c-0.0722656,0.4121094-0.265625,1.5244141-0.2900391,1.9111328c-0.0488281,0.7773438,0.8789063,1.9775391,0.9677734,2.6845703
	c0.0966797,0.7734375-0.2421875,3.7734375-0.3144531,4.4736328c-0.0722656,0.7011719-0.3867188,1.3300781-0.0722656,1.5
	c0.3144531,0.1679688,0.6767578,0.0732422,0.6767578,0.0732422s0.0478516-0.3398438,0.0722656-0.6054688
	s0.3876953-5.7802734,0.3144531-6.0703125c-0.0722656-0.2900391-0.7978516-1.6445313-0.9189453-2.03125
	s0.1943359-1.3066406,0.2421875-1.8623047c0.0478516-0.5566406-0.2421875-1.1855469-0.4355469-1.8613281
	c-0.1933594-0.6777344-0.1445313-1.8876953-0.1445313-1.8876953L21.6357422,25.6601563z"/>
<path fill="#2B2B2B" d="M22.6279297,40.3876953c-0.1689453-0.0224609-0.3144531-0.3134766-0.3144531-0.3134766
	c-0.6777344,0.5800781-1.2822266,1.3769531-1.2822266,1.3769531s0.7744141,0.1220703,0.9189453-0.0224609
	c0.1455078-0.1455078,1.1367188-1.0410156,1.1367188-1.0410156S22.796875,40.4121094,22.6279297,40.3876953z"/>
<path fill="#2B2B2B" d="M43.1601563,18.2358398c0,0-0.2900391,1.0151367-0.4833984,1.4023438
	s-0.1933594,0.387207-0.1933594,0.387207s0.2900391,0.2416992,0.3867188,0.8222656s0.9189453,1.0639648,1.1123047,0.9667969
	C44.1757813,21.7182617,43.9345703,19.2998047,43.1601563,18.2358398z"/>
</svg>