<?xml version="1.0" encoding="utf-8"?>
<!DOCTYPE svg PUBLIC "-//W3C//DTD SVG 1.1//EN" "http://www.w3.org/Graphics/SVG/1.1/DTD/svg11.dtd">
<svg version="1.1" id="iEdit" xmlns="http://www.w3.org/2000/svg" xmlns:xlink="http://www.w3.org/1999/xlink" x="0px" y="0px" width="100%" height="100%" viewBox="0 0 240 240" preserveAspectRatio="xMidYMid meet">
<g>
	<path fill="#ffffff" d="M54.8066406,205.2070313l25.3549805-9.6738281l0.0258789,0.0263672
		c-5.1689453-19.5878906-24.8647461-24.8652344-24.8647461-24.8652344l-0.1010742-0.1005859l-9.7094727,25.4775391
		C48.6206055,198.3212891,51.9379883,201.3349609,54.8066406,205.2070313z"/>
	<path fill="#ffffff" d="M43.8217773,200.4248047l-1.4233398,3.7363281l-2.5786133,6.7734375l6.7734375-2.578125l3.855957-1.46875
		C48.7646484,203.9980469,46.5092773,201.7431641,43.8217773,200.4248047z"/>
	<path fill="#ffffff" d="M207.6728516,68.7133789c-5.1201172-20.4941406-25.6542969-25.5585938-25.6542969-25.5585938
		l-17.8681641,17.8686523c0,0,18.8798828,6.6723633,25.4345703,25.2421875l0.2011719,0.2001953"/>
	<path fill="#ffffff" d="M159.9443359,65.2294922L59.0722656,166.1015625c0,0,19.8286133,6.3037109,25.5395508,25.5400391
		L185.4863281,90.7675781C179.3183594,71.987793,159.9443359,65.2294922,159.9443359,65.2294922z M76.0625,168.1162109
		c-0.7988281,0.7978516-1.9604492,0.9306641-2.8842773,0.0068359l-0.1303711-0.1308594
		c-0.9243164-0.9238281-0.7539063-2.0478516,0.0449219-2.8466797L163.9257813,74.3125
		c0.7988281-0.7988281,1.9228516-0.9692383,2.8457031-0.0449219l0.1318359,0.1313477
		c0.9238281,0.9233398,0.7910156,2.0844727-0.0078125,2.8833008L76.0625,168.1162109z M86.1606445,178.2138672
		c-0.7988281,0.7988281-2.3168945,0.5722656-3.2407227-0.3525391l-0.1313477-0.1298828
		c-0.9233398-0.9238281-0.9887695-2.2832031-0.1904297-3.0810547l90.8334961-90.8339844
		c0.7978516-0.7988281,2.15625-0.7333984,3.0820313,0.1904297l0.1308594,0.1308594
		c0.9248047,0.9238281,1.1503906,2.4438477,0.3525391,3.2407227L86.1606445,178.2138672z"/>
</g>
</svg>
