<?xml version="1.0" encoding="utf-8"?>
<!DOCTYPE svg PUBLIC "-//W3C//DTD SVG 1.1//EN" "http://www.w3.org/Graphics/SVG/1.1/DTD/svg11.dtd">
<svg version="1.1" id="iFarmer" xmlns="http://www.w3.org/2000/svg" xmlns:xlink="http://www.w3.org/1999/xlink" x="0px" y="0px" width="100%" height="100%" viewBox="0 0 48 48" preserveAspectRatio="xMidYMid meet">
<path id="pitchfork" fill="#ffffff" d="M16.3618164,14.2158203l0.128418-0.0234375l-0.2602539-1.4365234l0.9638672-0.1738281
	c0.4853516-0.0874023,0.8818359-0.3945313,1.1313477-0.8178711c0.2431641-0.4140625,0.3461914-0.940918,0.2480469-1.4775391
	l-1.0551758-5.8833008l-0.28125-0.3217773l-0.1645508,0.4018555l1.0551758,5.8828125
	c0.0771484,0.4287109-0.0024414,0.8452148-0.1918945,1.1679688c-0.1831055,0.3134766-0.4716797,0.3212891-0.8217773,0.3837891
	L16.7275391,12l-1.2949219-7.2084961l-0.2973633-0.3183594L14.984375,4.8725586l1.300293,7.222168l-1.7524414,0.3735352
	L13.2182617,5.15625l-0.2973633-0.3193359l-0.1474609,0.3979492l1.3154297,7.328125l-0.3305664,0.0703125
	c-0.3496094,0.0625-0.6987305,0.0063477-0.980957-0.222168c-0.2900391-0.2358398-0.5087891-0.5712891-0.5883789-1.0009766
	l-1.0551758-5.8696289l-0.2958984-0.3481445l-0.1499023,0.4394531l1.0551758,5.8837891
	c0.0991211,0.5390625,0.3779297,0.996582,0.7504883,1.2988281c0.3828125,0.3105469,0.8608398,0.4609375,1.3447266,0.3725586
	l0.9775391-0.1757813l0.2602539,1.4375l0.1455078-0.0263672l5.2910156,29.2729492
	c0.074707,0.4072266,1.2119141,0.2109375,1.137207-0.2070313L16.3618164,14.2158203z"/>
<g id="man">
	<path fill-rule="evenodd" clip-rule="evenodd" fill="#ffffff" d="M22.2011719,21.2236328l1.184082-3.4267578l0.159668-0.4555664
		c0.3637695-1.4663086,1.6962891-2.5610352,3.2705078-2.5610352h4.859375c1.8515625,0,3.3671875,1.515625,3.3671875,3.3691406
		v1.1435547v0.2700195v7.9145508c0,0.6630859-0.5449219,1.2138672-1.2128906,1.2138672l0,0
		c-0.6660156,0-1.2109375-0.5507813-1.2109375-1.2138672v-8.1845703c0-0.0800781,0.0097656-0.1586914,0.0214844-0.234375h-0.4619141
		v8.8271484v1.1396484v13.2646484c0,0.8544922-0.6953125,1.5527344-1.5498047,1.5527344l0,0
		c-0.8525391,0-1.5498047-0.6982422-1.5498047-1.5527344V29.0253906h-0.5087891v13.2646484
		c0,0.8544922-0.7001953,1.5527344-1.5498047,1.5527344l0,0c-0.8554688,0-1.5498047-0.6982422-1.5498047-1.5527344V29.0253906
		v-1.1396484v-7.4248047l-0.6953125,2.0009766c-0.2158203,0.6152344-0.6079102,0.7700195-1.2431641,0.9272461l-4.0478516,1.0131836
		l-0.8144531,0.2060547l-0.8720703,0.2260742c-1.7734375,0.4575195-2.2490234-1.9257813-0.6030273-2.3481445l0.6879883-0.1757813
		l0.8388672-0.2158203L22.2011719,21.2236328z"/>
	<path fill-rule="evenodd" clip-rule="evenodd" fill="#ffffff" d="M28.8378906,8.5336914
		c-1.4697266,0-2.6611328,1.1914063-2.6611328,2.6616211c0,1.46875,1.1914063,2.6601563,2.6611328,2.6601563
		c1.46875,0,2.6601563-1.1914063,2.6601563-2.6601563C31.4980469,9.7250977,30.3066406,8.5336914,28.8378906,8.5336914"/>
</g>
</svg>