<?xml version="1.0" encoding="utf-8"?>
<!DOCTYPE svg PUBLIC "-//W3C//DTD SVG 1.1//EN" "http://www.w3.org/Graphics/SVG/1.1/DTD/svg11.dtd">
<svg version="1.1" id="iForgot" xmlns="http://www.w3.org/2000/svg" xmlns:xlink="http://www.w3.org/1999/xlink" x="0px" y="0px" width="100%" height="100%" viewBox="0 0 240 240" preserveAspectRatio="xMidYMid meet">
<rect fill="none" width="240" height="240"/>
<circle fill="none" stroke="#333333" stroke-width="14" stroke-miterlimit="10" cx="120.0002441" cy="120" r="91.9567871"/>
<path id="question" fill="#333333" stroke="#333333" stroke-width="4" stroke-miterlimit="10" d="M117.2792969,175.5205078
	c-3.6469727-0.1123047-7.8579102-2.2539063-7.6894531-7.9199219c0.1328125-4.6474609,3.2045898-7.6445313,7.828125-7.6445313
	c0.1000977,0,0.2016602,0,0.3037109,0.0029297c4.9941406,0.1494141,8.0068359,3.2558594,7.8642578,8.1103516
	c-0.1279297,4.6728516-3.1015625,7.4570313-7.9545898,7.4570313
	C117.6313477,175.5263672,117.3964844,175.5253906,117.2792969,175.5205078z M112.0195313,146.9746094
	c0.0048828-0.3525391,0.0092773-0.7060547,0.0146484-1.0644531c0.0654297-4.8808594-0.9086914-11.921875,1.2495117-16.1298828
	c1.7597656-3.4335938,6.1591797-7.2675781,10.5258789-11.5864258
	c10.5107422-10.3979492,17.4306641-17.7402344,17.8300781-24.7817383c0.2978516-5.2373047-0.8427734-9.0356445-4.0673828-13.5454102
	c-4.4257813-6.2060547-12.3271484-6.9243164-17.8847656-6.9243164c-8.3300781,0-14.9335938,2.5668945-19.097168,7.425293
	c-2.6977539,3.1464844-3.6811523,6.347168-4.0297852,9.3188477H86.730957
	c1.5092773-9.3769531,5.5029297-16.0253906,12.1147461-20.2211914c5.1557617-3.3198242,11.6787109-4.9921875,19.4223633-4.9921875
	c10.440918,0,19.1313477,2.453125,25.8325195,7.2915039l0.2451172,0.1777344
	c6.0039063,4.4379883,8.9228516,10.9414063,8.9228516,19.8701172c0,9.5043945-8.7871094,19.1386719-13.0097656,23.769043
	l-0.2255859,0.246582c-1.2451172,1.3676758-3.1416016,2.953125-5.1503906,4.6333008
	c-4.2558594,3.5600586-9.0800781,7.5952148-11.4960938,12.6625977c-0.6875,1.4384766-1.1953125,3.2763672-1.7236328,13.8505859
	H112.0195313z"/>
</svg>
