<?xml version="1.0" encoding="utf-8"?>
<!DOCTYPE svg PUBLIC "-//W3C//DTD SVG 1.1//EN" "http://www.w3.org/Graphics/SVG/1.1/DTD/svg11.dtd">
<svg version="1.1" id="iFruktyi" xmlns="http://www.w3.org/2000/svg" xmlns:xlink="http://www.w3.org/1999/xlink" x="0px" y="0px" width="100%" height="100%" viewBox="0 0 48 48" preserveAspectRatio="xMidYMid meet">
<path fill="#2B2B2B" d="M38.0898438,26.0556641c-0.3701172-2.5458984-3.8457031-5.090332-5.2734375-6.1450195
	c-1.4287109-1.0556641-2.6074219-3.5380859-3.4775391-5.2138672c-0.8691406-1.6762695-2.2363281-2.8320313-3.7324219-2.7226563
	c-0.2861328,0.0209961-1.0610352-0.0698242-1.0439453,0.1303711C24.625,12.8334961,24.4472656,13.8085938,23.3959961,13.5
	C22.9853516,13.3793945,23,12.84375,22.8125,12.875c-0.125,1.65625-0.3925781,3.4477539-1.1381836,5.1503906
	c-0.1333008,0.3071289-0.4291992,0.8837891-0.6176758,1.1489258c0.3261719,1.2602539,0.5600586,2.137207,0.5859375,2.784668
	c0.0625,1.5507813-2.668457,6.0214844-2.0483398,9.9931641c0.6206055,3.9726563,5.027832,5.6494141,6.8901367,6.0214844
	c1.0410156,0.2080078,2.1201172-0.1660156,3.0449219-0.5693359c-0.0732422-0.6464844,0.0214844-1.6689453,0.9355469-2.8144531
	c1.5439453-1.9443359,2.9589844-1.8574219,2.9589844-1.8574219s-2.4365234,0.2558594-2.7382813,3.3134766
	c-0.0332031,0.3457031-0.0732422,0.6367188-0.1152344,0.8876953c0.2910156-0.125,0.5449219-0.2236328,0.7568359-0.2636719
	c0.9931641-0.1865234,2.6679688-0.125,4.7158203-1.5527344C38.0898438,33.6894531,38.4638672,28.6015625,38.0898438,26.0556641z
	 M23.9711914,14.7124023c-0.5180664,0.2514648-0.9023438-0.4267578-0.9023438-0.4267578s0.2783203,0.0742188,0.7700195,0.1181641
	s0.9208984-0.8393555,0.9208984-0.8393555C24.6772461,14.0332031,24.4902344,14.4609375,23.9711914,14.7124023z M32.75,23
	c-1.3535156-1.1113281-3.375-1.5-4.125-2.8125s-1.1875-4.5-1.1875-5.8125c0,0,0.9375,4.3125,2.75,6.0625s2.25,1.625,3.1875,2.4375
	c0.8515625,0.737793,1.875,2.9375,1.875,2.9375S34.5,24.4375,32.75,23z"/>
<path fill="#2B2B2B" d="M19.9755859,34.4414063c-1.3652344-2.7939453-1.3041992-5.0898438,0-8.5039063
	c1.3032227-3.4135742,1.1230469-4.3442383,1.1230469-4.8999023c0-0.4384766-0.5551758-1.2963867-0.5551758-1.2963867
	s-1.8486328,1.1713867-2.53125,1.4814453c-0.6821289,0.3105469-1.1030273,0.4926758-2.6542969,0.7407227
	c-0.2495117,1.4897461-0.1000977,3.1049805-1.1542969,4.4086914c-1.0561523,1.3037109-4.6567383,4.0341797-5.090332,6.9521484
	c-0.4355469,2.9169922,0,7.0761719,2.7924805,8.1308594c2.7924805,1.0566406,2.7319336,0.4345703,3.9731445,0.7460938
	c1.2412109,0.3105469,3.1030273,2.0478516,5.7104492,0.6210938c2.6064453-1.4296875,3.4135742-2.7324219,3.8491211-4.2226563
	C25.4384766,38.5996094,21.3398438,37.2333984,19.9755859,34.4414063z M11.4375,33.75c-0.3066406,1.0898438-0.5625,2.5,0,4.8125
	c0,0-1.375-3.375-0.5-5.3125S15,28.3125,15,28.3125S12,31.75,11.4375,33.75z"/>
<polygon fill="#2B2B2B" points="14.8979492,42.9228516 15.5166016,42.4814453 16.5327148,42.96875 16.4433594,44.0273438 
	16.1337891,43.4960938 15.4716797,44.0273438 15.6054688,43.3212891 14.8535156,43.6748047 15.206543,43.0996094 
	14.190918,43.3642578 "/>
<polygon fill="#2B2B2B" points="30.2304688,38.3164063 30.5400391,37.2558594 32.1445313,36.8955078 32.9960938,38.1894531 
	32.1630859,37.8613281 31.8828125,39.0654297 31.3984375,38.1376953 30.8564453,39.21875 30.7412109,38.2431641 
	29.8193359,39.4609375 "/>
<path fill="#2B2B2B" d="M38.4101563,16.1962891c0.4345703-1.5522461,1.1181641-4.2211914,0.0625-6.2705078
	c-1.0556641-2.0478516-1.7382813-3.2270508-3.4765625-3.6611328c-1.7382813-0.4350586-3.5996094-1.0556641-3.5996094-1.0556641
	s-0.4335938-0.9311523-1.7382813-1.1176758c-1.3037109-0.1855469-1.9560547,0.1557617-2.7314453,0.9936523
	c-0.6259766,0.6767578-0.4580078,0.9536133-0.5195313,0.7666016c-0.0615234-0.1855469-1.3427734-0.7666016-2.8325195-0.6425781
	c-1.4882813,0.1245117-2.4199219,1.1181641-3.1025391,2.6074219c-0.1333008,0.2910156-0.3261719,0.5351563-0.5556641,0.7539063
	c-0.0561523,0.4482422-0.1787109,1.1713867-0.4506836,2.2993164c-0.574707,2.3852539-1.5014648,4.0639648-2.0317383,5.1240234
	c-0.5302734,1.0595703-4.6376953,5.1240234-4.6376953,5.1240234s3.3125-3.7988281,4.0200195-5.3007813
	c1.3149414-2.793457,1.8994141-4.7700195,2.3842773-5.7856445c0.2104492-0.440918,0.3798828-0.8969727,0.503418-1.2739258
	c-0.9545898,0.7802734-2.3530273,1.2358398-2.9570313,2.3486328c-0.8056641,1.4897461-1.2412109,4.1582031-1.9863281,5.2758789
	c-0.7441406,1.1176758-2.9174805,3.1040039-3.2885742,4.1586914c-0.3740234,1.0551758-0.8701172,2.4824219-0.7456055,3.7558594
	c0,0,1.9550781-2.1259766,3.5068359-2.4365234c1.5517578-0.3100586,5.7880859-1.1245117,7.0922852-4.1044922
	c1.3037109-2.9794922,1.3413086-5.590332,0.4736328-7.2666016c-0.8701172-1.6757813-1.0756836-2.7788086-0.0834961-3.7104492
	c0.9936523-0.9301758,4.4726563-0.5751953,4.4101563-0.1401367c-0.0615234,0.4335938-1.6796875,0.5576172-2.4233398,1.0541992
	c-0.7441406,0.496582-1.2426758,0.9926758-1.6152344,0.9926758c-0.3730469,0-0.684082,0.3100586-0.684082,0.3100586
	l0.4355469,0.6826172l0.4946289-0.1235352c0,0-0.0693359-0.1240234,0.1782227,0.3105469
	c0.2495117,0.4345703,0.5004883,0.8027344,0.6855469,1.4814453c0.1313477,0.4794922,0.1362305,1.4458008,0.1362305,1.4458008
	S23.7602539,13.796875,24.1665039,13.125s0.1806641-1.956543-0.190918-2.7641602
	c-0.3730469-0.8066406-0.7895508-1.1791992-0.7895508-1.1791992s2.9555664-1.5517578,4.1352539-1.9248047
	c1.1806641-0.371582,2.5341797-0.4335938,2.8447266-0.4960938c0.3095703-0.0620117,0.2744141-0.9311523,0.2744141-0.9311523
	s-1.6640625,0-2.3466797,0.1860352c-0.6816406,0.1870117-1.0498047,0.2490234-1.0498047,0.2490234
	s0.7773438-1.7084961,1.6474609-1.7084961c0.8681641,0,2.2060547-0.0917969,2.1455078,0.9013672
	c-0.0625,0.9931641-0.6201172,4.0341797,0.0009766,5.6484375c0.6210938,1.6137695,2.109375,3.8481445,3.2910156,5.090332
	c1.1777344,1.2412109,4.5292969,4.902832,4.5292969,4.902832S37.9755859,17.7470703,38.4101563,16.1962891z M35.7636719,14.7573242
	c-0.3076172-1.3251953-0.9267578-2.871582-1.5458984-4.4609375c-0.6181641-1.5908203-2.6933594-4.1967773-2.6933594-4.1967773
	c0.8828125,0.6630859,2.1650391,2.3852539,2.8251953,3.1367188c0.6640625,0.7509766,1.5029297,2.4731445,1.6796875,3.9311523
	c0.1777344,1.456543,0.4414063,3.4882813,0.4414063,3.4882813S36.0742188,16.0820313,35.7636719,14.7573242z"/>
</svg>
