<?xml version="1.0" encoding="utf-8"?>
<!DOCTYPE svg PUBLIC "-//W3C//DTD SVG 1.1//EN" "http://www.w3.org/Graphics/SVG/1.1/DTD/svg11.dtd">
<svg version="1.1" id="iGit" xmlns="http://www.w3.org/2000/svg" xmlns:xlink="http://www.w3.org/1999/xlink" x="0px" y="0px" width="100%" height="100%" viewBox="0 0 480 480" preserveAspectRatio="xMidYMid meet">
<g>
	<path id="cat" fill-rule="evenodd" clip-rule="evenodd" fill="#2B2B2B" d="M380.6601563,226.0878906
		c18.8427734,0.3945313,23.9160156,0.1308594,42.6894531,1.3427734c18.7177734,1.203125,37.3154297,3.8417969,55.9638672,5.8427734
		c-0.6123047-1.0078125-1.5585938-1.7148438-2.5898438-1.8886719c-5.7451172-1.0322266-11.4912109-2.0458984-17.265625-2.8583984
		c-29.3310547-4.0898438-44.9892578-5.3408203-74.5615234-4.2451172c-1.1894531,0.0429688-2.3476563,0.0234375-3.4667969,0.0234375
		c-0.0869141-0.6376953-0.1748047-0.8759766-0.1064453-1.0751953c4.4306641-17.7226563,5.4130859-35.7851563,5.1992188-53.9213867
		c-0.2910156-25.2407227-8.8037109-47.2866211-26.0869141-65.7973633c-0.75-0.8085938-1.4912109-1.6508789-2.171875-2.4145508
		c5.7949219-20.7563477,3.4658203-40.6704102-4.390625-60.5444336c-2.5917969-0.1508789-5.1533203-0.8764648-7.4306641-0.3510742
		c-8.1601563,1.8891602-16.6318359,3.2524414-24.2666016,6.5292969
		c-11.4023438,4.8779297-22.2011719,11.1933594-34.4609375,17.5185547
		c-17.859375-4.3730469-37.2275391-6.3691406-56.84375-6.1489258c-19.6318359,0.2177734-38.8925781,2.8959961-57.7597656,7.8427734
		c-2.277832-1.4941406-4.3422852-2.8574219-6.4267578-4.1767578c-13.534668-8.5507813-27.465332-16.2675781-43.215332-19.9145508
		c-5.6381836-1.2993164-11.3442383-2.9013672-17.440918-0.8173828
		c-8.2036133,21.1494141-10.3115234,42.6064453-2.8959961,63.9755859
		c-3.9047852,5.4492188-7.9414063,10.3276367-11.1450195,15.7363281
		c-3.1791992,5.3657227-5.9638672,11.0820313-8.1601563,16.9731445
		c-7.6342773,20.4394531-6.4067383,41.5649414-3.5541992,62.6474609c1.0957031,7.9589844,3.2915039,15.7636719,4.8691406,23.2128906
		c-17.9418945,0.4824219-11.996582,0.7021484-30.2509766,1.5400391
		c-18.2036133,0.8369141-36.2822266,3.1201172-54.2045898,7.4980469c0.7695313,0.8115234,1.6459961,1.3388672,2.4145508,1.2060547
		c19.5439453-3.8017578,39.2871094-6.1728516,59.1616211-6.7724609c16.1259766-0.4814453,8.0966797-0.1113281,24.5927734-0.1113281
		c1.1396484,2.7119141,2.3901367,5.609375,3.7290039,8.7304688c-38.6772461,1.5869141-52.1879883,6.0029297-89.0649414,16.9970703
		c0.7250977,0.7392578,1.5141602,1.1777344,2.2148438,1.0517578c1.8652344-0.3505859,3.6855469-0.9248047,5.53125-1.4121094
		c29.1308594-7.4892578,36.4926758-11.7441406,64.5605469-13.46875c6.0083008-0.3691406,12.0654297-0.5742188,18.0981445-0.8603516
		c7.6337891,14.0263672,18.1411133,24.8847656,31.4326172,33.0644531
		c14.7236328,9.1035156,30.8886719,14.3046875,47.7392578,17.6337891
		c6.9091797,1.3544922,13.8857422,2.3183594,21.4521484,3.6035156
		c-10.0249023,7.3613281-15.6191406,17.0986328-18.253418,28.7929688
		c-11.8901367,5.4541016-24.0859375,8.1123047-36.9833984,4.8808594
		c-12.0898438-3.0292969-20.3564453-10.9941406-26.5893555-21.4140625
		c-4.5180664-7.5751953-10.3120117-13.8955078-18.0102539-18.2675781
		c-5.637207-3.2236328-11.6503906-5.3369141-18.2719727-4.6650391c-2.6782227,0.2734375-5.8813477,0.2734375-6.8256836,3.3007813
		c-0.9643555,3.1074219,1.7568359,4.9277344,3.796875,6.5927734c2.9418945,2.4238281,6.2768555,4.3525391,9.1933594,6.796875
		c8.8608398,7.4101563,14.4790039,17.1083984,18.5786133,27.7236328
		c5.0004883,13.0185547,14.0175781,22.046875,26.7211914,27.4121094
		c11.4072266,4.8183594,23.3408203,5.2382813,35.4301758,3.8447266c3.7485352-0.4160156,7.4345703-1.1191406,11.2514648-1.7128906
		c0.1123047,0.7509766,0.2192383,1.1582031,0.2192383,1.5957031c0,13.7402344,0.3945313,27.4804688-0.1318359,41.2001953
		c-0.3305664,8.9697266-4.9121094,15.9511719-13.0727539,20.2666016c-1.7578125,0.9335938-3.4902344,2.1210938-4.7416992,3.5917969
		c-1.7973633,2.1132813-1.3149414,4.3535156,1.1875,5.5791016c1.5576172,0.75,3.4663086,1.3251953,5.1323242,1.1894531
		c4.6928711-0.3701172,9.4301758-0.7021484,13.9731445-1.8320313c15.3808594-3.796875,22.5717773-13.2714844,22.5717773-29.1445313
		c-0.0439453-16.4375-0.262207-32.8642578-0.0185547-49.2822266c0.0620117-4.9863281,1.1625977-10.0292969,2.3896484-14.9101563
		c0.6577148-2.4814453,2.6342773-4.6142578,3.9931641-6.9208984c0.3066406,0.1357422,0.5942383,0.2919922,0.8754883,0.4179688
		c0.043457,0.4189453,0.1318359,0.8388672,0.1318359,1.2265625c0,25.2197266,0.2436523,50.4335938-0.1318359,75.6425781
		c-0.1308594,9.6318359-2.234375,18.9697266-9.7373047,26.1650391c-1.9770508,1.9082031-2.8525391,4.859375-1.2758789,7.4599609
		c1.4511719,2.3642578,3.9980469,2.4326172,6.6269531,1.8867188c19.7866211-4.2060547,30.4492188-17.3027344,30.5810547-37.6835938
		c0.1557617-23.4082031,0.3505859-46.8183594,0.5253906-70.2089844c0.0249023-2.4443359,0-4.8583984,0-7.2832031
		c2.4589844,0,4.2802734,0,6.3833008,0c0,1.3242188,0,2.3164063,0,3.3203125
		c0.15625,23.8583984,0.2871094,47.7050781,0.4384766,71.5527344c0.1308594,22.9511719,10.137207,35.9912109,30.824707,40.3027344
		c2.609375,0.5458984,5.5888672,0.5458984,6.4257813-1.9941406c0.6826172-2.0742188,0.3125-5.6875-1.0986328-7.0888672
		c-7.9570313-8.0244141-9.8066406-18.0439453-9.8652344-28.5517578
		c-0.2041016-23.5263672-0.0673828-47.0429688-0.0673828-70.5683594c0-1.1601563,0-2.3554688,0-3.515625
		c0.28125-0.0859375,0.5644531-0.1757813,0.8574219-0.2636719c1.1572266,1.7441406,2.5019531,3.359375,3.4169922,5.1806641
		c2.8720703,5.6972656,3.1357422,11.8798828,3.0966797,18.1220703c-0.0878906,16.203125-0.15625,32.3974609-0.0488281,48.6005859
		c0.0683594,9.8544922,3.5742188,18.0449219,12.3085938,23.3408203c7.9472656,4.8398438,16.7871094,6.2910156,25.8642578,5.9013672
		c1.9267578-0.0869141,4.9355469-2.0058594,5.2871094-3.5439453c0.3496094-1.578125-1.9101563-3.7783203-3.1162109-5.6669922
		c-0.1953125-0.3310547-0.7695313-0.4384766-1.1582031-0.6328125c-9.7001953-4.5761719-14.1308594-12.5136719-14.1992188-22.953125
		c-0.125-20.9355469,0.2050781-41.8623047-0.1757813-62.7880859c-0.2617188-15.9775391-5.3945313-30.0302734-18.5292969-40.2070313
		c-0.1748047-0.1552734-0.1748047-0.5439453-0.3115234-0.9443359c1.7822266-0.234375,3.4462891-0.4677734,5.1113281-0.6816406
		c17.0019531-2.09375,33.6728516-5.4335938,49.5175781-12.1816406c17.1074219-7.2949219,31.1503906-18.2197266,40.2919922-34.796875
		c1.140625-2.0449219,2.1738281-4.1787109,3.3125-6.3984375c1.0332031,0,2.015625-0.0439453,3.0283203,0
		c26.6328125,0.90625,39.2900391,3.4560547,65.4658203,8.4863281c10.3515625,2.0068359,20.546875,4.6845703,30.8398438,6.9921875
		c0.9628906,0.2148438,2.015625-0.0283203,3.0283203-0.0488281c0.0185547-0.4765625,0.0185547-0.9638672,0.0390625-1.4716797
		c-37.5488281-10.5439453-62.2529297-14.921875-101.3876953-16.4404297
		C378.4404297,232.2851563,379.4130859,229.5634766,380.6601563,226.0878906z M81.0615234,289.1523438
		c-1.1152344-0.3291016-1.9526367-1.7041016-2.9799805-2.6572266c3.7739258-3.359375,6.0766602-3.1455078,8.3359375,0.2822266
		C85.3652344,289.5732422,83.1699219,289.7275391,81.0615234,289.1523438z M90.1225586,293.359375
		c1.7324219-3.6318359,5.2875977-3.8056641,7.9208984-0.2431641
		C95.7167969,296.9433594,92.3374023,296.9638672,90.1225586,293.359375z M97.0996094,301.7539063
		c0.7695313-2.4628906,2.5898438-3.1259766,4.5424805-2.7070313c1.3149414,0.2822266,2.4780273,1.4697266,3.7739258,2.2890625
		C102.4755859,305.2011719,99.5146484,305.1318359,97.0996094,301.7539063z M107.6064453,313.9462891
		c-1.4458008,0-2.8920898-1.1601563-4.3862305-1.8417969c2.3710938-4.3037109,5.96875-4.3896484,8.7294922-0.1738281
		C110.4604492,312.6796875,109.0571289,313.9267578,107.6064453,313.9462891z M114.7583008,322.9238281
		c-1.7524414,0.3886719-3.9916992-0.2236328-3.7729492-2.5332031c0.1118164-1.1669922,1.8891602-2.1503906,3.5107422-3.8457031
		c1.7089844,1.6650391,2.8286133,2.765625,3.9482422,3.8769531
		C117.2172852,321.296875,116.1171875,322.6308594,114.7583008,322.9238281z M120.3334961,328.3671875
		c1.972168-3.7792969,5.5708008-3.8847656,7.8974609-0.3896484
		C126.5170898,331.7167969,123.0507813,331.9501953,120.3334961,328.3671875z M133.8203125,333.3623047
		c2.4389648-3.7285156,5.8134766-3.6904297,7.9648438-0.0478516
		C139.8134766,336.8974609,136.2592773,336.9853516,133.8203125,333.3623047z M147.3994141,333.2949219
		c2.1518555-3.6425781,5.4873047-3.6611328,7.9892578,0.0869141
		C152.8623047,336.9853516,149.2885742,336.8779297,147.3994141,333.2949219z M160.9790039,331.1425781
		c0.7250977-2.6201172,2.7895508-2.8632813,5.0244141-2.5712891c1.8452148,0.2333984,3.2036133,1.1005859,2.6777344,3.5341797
		C165.1708984,334.6679688,163.21875,334.4052734,160.9790039,331.1425781z M346.2373047,233.3427734
		c-4.6054688,21.6513672-18.6464844,34.7099609-39.4169922,41.0380859
		c-13.1171875,3.9833984-26.6142578,5.3652344-40.2060547,5.9121094
		c-9.4169922,0.3789063-18.8496094,0.0673828-28.2836914,0.0673828c-19.4370117,0.4863281-38.8496094,0.2236328-58.065918-3.2519531
		c-9.9619141-1.8017578-19.6796875-4.4892578-28.8237305-8.96875
		c-19.2177734-9.4365234-29.7294922-24.9716797-32.4707031-46.0976563
		c-1.7958984-13.8085938-0.4819336-26.8173828,7.309082-38.862793
		c10.2436523-15.8286133,24.4111328-24.7138672,43.3662109-24.6708984c13.777832,0,27.5966797,0.6235352,41.375,1.5439453
		c17.8544922,1.2119141,35.6689453,0.7011719,53.4785156-0.6132813c14.6552734-1.1054688,29.3115234-2.2006836,44.0068359,0.1943359
		c22.6396484,3.690918,40.5458984,29.6953125,40.1660156,47.9428711
		C348.5263672,216.1943359,348.0195313,224.9433594,346.2373047,233.3427734z"/>
	<path id="eyeBase2" fill-rule="evenodd" clip-rule="evenodd" fill="#2B2B2B" d="M146.8740234,213.1611328
		c0.1313477-8.9697266,2.0634766-17.4101563,7.2392578-24.8603516c9.3046875-13.2817383,24.3491211-13.3452148,33.8046875-0.1552734
		c9.894043,13.7197266,9.8056641,36.578125-0.1943359,50.25c-9.3491211,12.8398438-24.0424805,12.8007813-33.390625-0.1123047
		C149.5952148,231.7099609,146.8740234,222.6162109,146.8740234,213.1611328z M187.1293945,213.5166016
		c-0.019043-6.5527344-1.6455078-12.1826172-4.8056641-16.5341797c-6.1396484-8.4428711-15.7509766-8.4863281-21.8901367-0.0439453
		c-6.4951172,8.9726563-6.5585938,24.0263672-0.0878906,33.1074219c6.1391602,8.6123047,15.8818359,8.6572266,22.0268555,0.0195313
		C185.8779297,225.1191406,187.2412109,219.5146484,187.1293945,213.5166016z"/>
	<path id="eyeBase1" fill-rule="evenodd" clip-rule="evenodd" fill="#2B2B2B" d="M317.0439453,188.3642578
		c-9.3681641-13.4326172-24.5683594-13.4086914-34.0029297-0.019043
		c-9.5439453,13.5639648-9.5908203,35.784668-0.0869141,49.4370117c9.453125,13.6083984,24.7216797,13.6474609,34.1582031,0.0195313
		c5.0830078-7.3623047,7.0605469-15.6972656,7.0791016-24.5546875
		C324.1914063,204.2597656,322.2441406,195.8129883,317.0439453,188.3642578z M310.2666016,231.4726563
		c-5.7744141,6.7236328-13.9541016,6.7910156-19.7666016,0.0634766c-4.3242188-5.0107422-5.7753906-11.078125-6.0380859-18.0878906
		c0.1367188-6.0722656,1.4707031-12.3808594,5.8427734-17.6533203c5.7275391-6.8603516,14.2070313-6.8803711,20.0009766-0.0883789
		C318.1347656,204.8925781,318.1152344,222.3232422,310.2666016,231.4726563z"/>
	<path id="eye2" fill-rule="evenodd" clip-rule="evenodd" fill="#2B2B2B" d="M173.0922852,205.1123047
		c0-3.3837891-2.7460938-6.1049805-6.1201172-6.1049805c-3.378418,0-6.1005859,2.7211914-6.1005859,6.1049805
		c0,3.3886719,2.722168,6.1152344,6.1005859,6.1152344C170.3461914,211.2275391,173.0922852,208.5009766,173.0922852,205.1123047z"
		/>
	<path id="eye1" fill-rule="evenodd" clip-rule="evenodd" fill="#2B2B2B" d="M300.1298828,204.4111328
		c0-2.9892578-2.4140625-5.4038086-5.4228516-5.4038086c-3.0009766,0-5.3955078,2.4145508-5.3955078,5.4038086
		s2.3945313,5.4091797,5.3955078,5.4091797C297.7158203,209.8203125,300.1298828,207.4003906,300.1298828,204.4111328z"/>
	<path id="mouth" fill-rule="evenodd" clip-rule="evenodd" fill="#2B2B2B" d="M220.3198242,256.1337891
		c1.4072266,0.796875,2.7416992,1.0996094,3.315918,1.9365234c6.6899414,9.8935547,14.8261719,9.5820313,21.0830078-1.1865234
		c0.7636719,0,1.6845703,0,2.9355469,0c0.6123047,4.4003906-1.9716797,6.9013672-4.6943359,9.1425781
		c-4.7368164,3.9140625-11.4267578,4.265625-16.6943359,1.1396484
		C222.0537109,264.6728516,219.6186523,260.7578125,220.3198242,256.1337891z"/>
	<path id="nose" fill-rule="evenodd" clip-rule="evenodd" fill="#2B2B2B" d="M227.7602539,243.9169922
		c0.019043-3.4326172,2.8037109-6.1347656,6.2514648-6.0703125c3.4418945,0.0664063,6.03125,2.8320313,5.9199219,6.3339844
		c-0.0874023,3.2958984-2.7851563,5.9726563-6.0317383,5.9726563
		C230.5639648,250.1826172,227.7358398,247.3007813,227.7602539,243.9169922z"/>
</g>
</svg>
