<?xml version="1.0" encoding="utf-8"?>
<!DOCTYPE svg PUBLIC "-//W3C//DTD SVG 1.1//EN" "http://www.w3.org/Graphics/SVG/1.1/DTD/svg11.dtd">
<svg version="1.1" id="iGovyadina" xmlns="http://www.w3.org/2000/svg" xmlns:xlink="http://www.w3.org/1999/xlink" x="0px" y="0px" width="100%" height="100%" viewBox="0 0 48 48" preserveAspectRatio="xMidYMid meet">
<path fill="#2B2B2B" d="M8.2431641,26.9423828c0,0,1.3525391,1.2666016,1.7744141,1.40625
	c0.4228516,0.140625,0.0844727,0.9863281,0.3657227,0.9570313c0.2807617-0.0263672,0.2539063,0.2841797,0.5068359,0.2255859
	c0.253418-0.0546875,0.1411133-1.0957031,0.1411133-1.0957031s0.3100586-0.0869141,0.3374023-0.3964844
	c0.0571289,0.84375,0.0844727,1.3242188,0.3100586,1.2402344c0.2246094-0.0849609,0.4790039-0.8955078,0.6474609-1.0390625
	c0.1694336-0.1455078,0.140625,1.1787109,0.4785156,1.0947266c0.3388672-0.0849609,0.28125-1.1259766,0.8164063-1.4648438
	c0.5351563-0.3359375,1.3510742-0.9277344,1.3510742-0.9277344s-2.4975586-2.3393555-3.4902344-2.3271484
	C10.0673828,24.6308594,9.0048828,25.6455078,8.2431641,26.9423828z"/>
<path fill="#2B2B2B" d="M9.8486328,31.7011719c-0.112793-0.5087891,0.1967773-1.9990234,0.1411133-2.5927734
	c-0.0576172-0.5898438-1.253418-1.515625-1.6235352-1.6640625c-0.2919922-0.1171875-0.4853516-0.0830078-0.4853516-0.0830078
	C7.8662109,28.2304688,7.0605469,29.25,7.0605469,29.25s0.9575195,2.3662109,1.3530273,3.3232422
	c0.1879883,0.4599609,0.4291992,1.2626953,0.628418,1.9736328c0.6049805-0.3027344,1.027832-0.4453125,1.315918-0.4902344
	C10.0239258,33.0439453,9.9145508,31.9990234,9.8486328,31.7011719z"/>
<path fill="#2B2B2B" d="M11.4257813,35.8398438c-0.3032227-0.2490234-0.5458984-0.59375-0.7412109-0.9794922
	c-0.7900391,0.1269531-1.2294922,0.3984375-1.4086914,0.5390625c0.0917969,0.3476563,0.1503906,0.5791016,0.1503906,0.5791016
	l-0.253418,0.4804688l0.6196289,0.3935547c0,0,0.1689453-0.2255859,0.3657227-0.28125
	c0.1972656-0.0585938,0.3110352,0.8173828,0.3110352,0.8173828l2.6743164,0.1679688c0,0,0,0-0.0283203-0.2265625
	C13.0859375,37.1035156,12.6645508,36.8525391,11.4257813,35.8398438z"/>
<path fill="#2B2B2B" d="M31.1337891,32.4609375c0.1689453-0.5634766,0.5175781-0.8740234,0.5253906-1.1269531
	c0.0097656-0.2539063,0-1.8867188,0-1.8867188l-0.6513672-0.1806641c0,0-0.0703125,2.0126953-0.2119141,2.3769531
	c-0.140625,0.3652344-0.7197266,0.8359375-0.7197266,1.3662109c0.0185547,0.2441406,0.078125,0.7275391,0.1494141,1.2480469
	c0.4238281-0.0839844,0.7539063-0.1230469,1.0058594-0.1328125C31.1289063,33.4560547,31.0253906,32.828125,31.1337891,32.4609375z"
	/>
<path fill="#2B2B2B" d="M30.3408203,35.0351563c0.0947266,0.5849609,0.1884766,1.0947266,0.25,1.2255859
	c0.4667969,0.4316406,1.1269531,0.921875,1.5224609,1.203125c0.4306641,0.1513672,0.9121094,0.1279297,1.3398438,0.1064453
	c-0.4335938-0.3916016-0.7080078-0.8339844-1.3330078-1.3095703c-0.4121094-0.3125-0.7041016-0.0693359-0.7597656-1.0615234
	c-0.0039063-0.0615234-0.0126953-0.1269531-0.015625-0.1923828C30.859375,34.9619141,30.5341797,34.9912109,30.3408203,35.0351563z"
	/>
<path fill="#2B2B2B" d="M1.2324219,25.9550781c-0.2045898-0.4619141-0.2734375-0.8857422-0.2524414-1.3398438
	c0.1704102,1.0302734,0.5478516,1.9726563,1.0795898,2.1308594c0.1196289-0.3691406,0.1728516-0.7880859,0.0678711-1.1162109
	c-0.3447266-1.081543-0.9912109-1.5991211-1.1757813-2.2358398c-0.2114258-0.7294922,2.3295898-2.2661133,2.7900391-2.8652344
	c0.6762695-0.8764648,0.7841797-2.902832,0.871582-3.6000977c0.0620117-0.4995117,0.2416992-1.4672852,0.5546875-2.0585938
	c0.3349609-0.6347656,1.0854492-1.0878906,2.7949219-1.1333008c0,0,0.0473633-0.0439453,0.0947266-0.1313477
	c0.4370117-0.7895508,1.1782227-0.5390625,1.5947266-0.6005859c-1.578125-0.6635742-4.0288086,0.5576172-4.590332,1.1894531
	c-1.0874023,1.2250977-0.6264648,4.9960938-1.6689453,6.1235352c-1.0415039,1.1264648-2.4179688,1.4887695-2.8085938,2.7104492
	c-0.3813477,1.1948242-0.6992188,2.6777344-0.3901367,3.3828125c0.1523438,0.3457031,0.3725586,0.6435547,0.6000977,0.8544922
	c0.0175781-0.0556641,0.0332031-0.1142578,0.0444336-0.1884766c0.0942383-0.6455078-0.1591797-1.2900391-0.2910156-1.8398438
	c0.2924805,0.8320313,0.4824219,1.6816406,0.4980469,2.21875c0.1489258,0.09375,0.2924805,0.1455078,0.4121094,0.1347656
	c0.1425781-0.0097656,0.3110352-0.2011719,0.449707-0.4707031C1.7250977,26.8583984,1.4370117,26.4160156,1.2324219,25.9550781z"/>
<path fill="#2B2B2B" d="M41.4667969,13.09375c0.2832031-0.1987305-0.1113281-0.4042969,0.1142578-0.7539063
	c0.2246094-0.3481445,0.7314453-0.4614258,1.1259766-0.9975586c0.3935547-0.5332031,0.6738281-1.5195313,0.3935547-1.5751953
	c-0.28125-0.0571289-0.2792969,0.7875977-1.1123047,1.2670898c-0.8300781,0.4775391-1.8398438,1.0268555-1.359375,2.2089844
	C40.6289063,13.2431641,41.1855469,13.2895508,41.4667969,13.09375z"/>
<path fill="#2B2B2B" d="M2.4545898,34.3974609c-0.0664063,0.1757813-0.1518555,0.3134766-0.2641602,0.3984375
	c-0.4501953,0.3398438-0.7324219,0.5634766-0.5068359,0.6777344c0.2246094,0.1113281,0.7036133-0.140625,0.7036133-0.140625
	s0.0844727,0.7324219-0.0283203,0.9560547C2.2470703,36.5136719,2.2470703,36.9648438,2.5,37.3886719
	c0,0,1.3789063,0.2519531,2.2231445,0.2246094c0.8452148-0.0292969,0.7050781-0.1123047,0.7050781-0.1123047
	s-1.3989258-1.2119141-1.4599609-1.8310547c-0.019043-0.203125-0.0522461-0.6542969-0.0351563-1.2451172
	C3.2246094,34.2792969,2.7294922,34.3320313,2.4545898,34.3974609z"/>
<path fill="#2B2B2B" d="M28.4794922,35.7236328c-0.1308594,0.3847656-0.3964844,0.8115234-0.2724609,0.9677734
	C28.375,36.9091797,28.375,36.9091797,28.375,36.9091797s0.3378906-0.3476563,0.5068359-0.2177734
	c0.1689453,0.1328125,0.3388672,0.53125,0.4501953,0.9238281c0.1132813,0.390625,0.9296875,0.7304688,1.8017578,0.5888672
	c0.8740234-0.1416016,1.2109375-0.3525391,1.2109375-0.3525391s-1.9892578-0.7861328-2.2304688-2.1484375
	C29.4267578,35.5830078,28.8642578,35.6386719,28.4794922,35.7236328z"/>
<path fill="#2B2B2B" d="M43.4384766,13.09375c-0.0214844,0.1308594,1.0976563-0.1020508,1.4912109-0.3774414
	c0.3955078-0.2749023,1.0429688-0.7260742,0.8730469-0.9223633c-0.1689453-0.1982422-2.1923828,0.8789063-2.8994141,0.65625
	C42.9033203,12.4501953,43.4599609,12.9599609,43.4384766,13.09375z"/>
<path fill="#2B2B2B" d="M43.1474609,14.921875c-0.4296875,0.0014648-0.6445313,0.4033203-0.4921875,0.765625
	c0.3427734,0.8061523,1.4267578,0.9790039,1.6542969,0.7456055c0.2275391-0.2329102-0.1044922-0.8452148-0.3037109-1.09375
	C43.8085938,15.0932617,43.4111328,14.9213867,43.1474609,14.921875z M43.5087891,16.0419922
	c-0.2236328,0-0.4082031-0.1884766-0.4082031-0.4204102c0-0.2324219,0.1845703-0.4208984,0.4082031-0.4208984
	c0.2265625,0,0.4140625,0.1884766,0.4140625,0.4208984C43.9228516,15.8535156,43.7353516,16.0419922,43.5087891,16.0419922z"/>
<ellipse fill="#2B2B2B" cx="43.4511719" cy="15.5515137" rx="0.2363293" ry="0.2263184"/>
<circle fill="#2B2B2B" cx="47.0214844" cy="19.7946777" r="0.4006348"/>
<path fill="#2B2B2B" d="M47.7548828,19.4799805c-0.3369141-0.6464844-2.6162109-3.293457-3.1240234-4.1943359
	c-0.5058594-0.9018555-1.4628906-2.7602539-2.3085938-2.9282227c-0.1982422-0.0415039-0.375-0.0219727-0.6601563,0.0561523
	c-0.0537109,0.1166992-0.0488281,0.1713867-0.0185547,0.2705078c0.0351563,0.1254883,0.0947266,0.4628906-0.1162109,0.5639648
	c-1.2568359,0.6074219-1.2226563-0.1689453-1.2460938-0.2871094c-0.5878906,0.284668-1.0068359,0.5327148-1.2529297,0.6445313
	c-0.6757813,0.1035156-2.5332031,0.2436523-3.4628906,0.2436523s-1.3808594,0.4228516-2,0.3100586
	c-0.6201172-0.112793-1.7744141-0.6757813-3.4345703-0.5917969c-1.6611328,0.0844727-3.6621094,0.5356445-5.6318359,0.5356445
	s-3.9130859-0.0283203-5.0112305-0.0566406c-1.0976563-0.0283203-2.9550781,0.309082-3.6879883,0.1972656
	c-0.7314453-0.1132813-1.9418945-0.4223633-2.8999023-0.7050781c-0.9575195-0.2807617-2.1962891-0.1401367-2.5341797-0.1679688
	c-0.3374023-0.0283203-1.6616211-0.1689453-1.8027344,0.1967773c-0.2246094,0.3662109-0.28125,0.4790039-0.5908203,0.5629883
	c-0.309082,0.0849609-2.3364258,0.0561523-2.5898438,0.9580078c-0.2529297,0.9013672,0.28125,6.9541016-0.027832,8.53125
	c-0.3105469,1.5766602-0.8452148,2.8422852-2.2817383,3.9145508c0,2.3916016,0.0288086,4.0800781-0.2246094,4.8964844
	c-0.1025391,0.3271484-0.1635742,0.71875-0.2285156,1.0927734c0.6923828-0.0644531,1.0957031-0.0195313,1.3295898,0.0693359
	c0.1245117-1.125,0.4663086-2.4970703,1.3203125-3.6669922c1.6049805-2.1972656,2.3085938-2.8994141,2.6191406-3.3505859
	c0.3085938-0.4501953,2.2241211-2.2797852,3.5751953-2.3081055c1.3515625-0.0288086,3.4624023,3.8276367,7.5737305,3.7446289
	c4.1108398-0.0839844,6.3071289-0.7314453,7.0678711-0.7314453c0.296875,0,1.0947266,0.3994141,2.0869141,0.8427734
	c-0.0039063,0.3359375-0.0117188,0.7119141-0.03125,1.1435547c0.0830078,1.3632813-0.0859375,1.3925781-0.0859375,1.7285156
	c0,0.3388672,0.1132813,0.5634766,0.2265625,0.9287109c0.0908203,0.2978516,0.1259766,2.0722656,0.1669922,2.9589844
	c0.9580078-0.1396484,1.3525391-0.0332031,1.5068359,0.1005859c-0.1542969-1.1865234-0.3789063-2.1923828-0.2119141-2.4101563
	c0.1992188-0.2548828,0.6777344-0.5644531,0.6777344-1.0419922c0-0.2753906,0.0751953-1.3466797,0.2880859-2.4667969
	c0.8496094,0.2226563,1.6748047,0.3027344,2.3300781,0.0742188c2.1689453-0.7617188,3.1826172-2.9287109,3.6591797-3.8300781
	c0.4785156-0.9003906,1.7480469-3.2661133,1.9736328-3.4345703c0.2236328-0.168457,0.4775391-0.168457,0.6748047-0.3662109
	c0.1962891-0.1977539,0.28125-0.3666992,0.28125-0.3666992s1.0419922,0.2246094,1.4912109,0
	c0.4501953-0.2246094,0.7333984-0.3935547,0.7333984-0.3935547s1.265625,0.1132813,1.7744141,0
	c0.5048828-0.112793,0.9277344-0.3095703,0.9277344-0.3095703s0.5341797,0.8164063,1.4921875,0.7324219
	c0.9570313-0.0849609,1.0683594-0.2539063,1.0683594-0.2539063s0.3115234,0.1411133,0.6191406-0.253418
	C48.0673828,20.2695313,48.0947266,20.128418,47.7548828,19.4799805z M28.4550781,21.1835938
	c-0.5078125,1.1401367-0.9277344,2.1113281-2.7451172,2.0268555c-1.8149414-0.0839844-4.0957031-0.9365234-3.8857422-2.4726563
	c0.2119141-1.5390625,0.6767578-2.0039063,0.6767578-2.0039063s-1.9008789,1.2250977-1.394043,2.5761719
	c0.5073242,1.3520508-0.1694336,2.6191406-1.6049805,2.7666016c-1.4350586,0.1484375-3.1254883-0.190918-3.8852539-1.4570313
	c-0.7602539-1.2680664-3.2944336-0.5141602-3.5893555-1.8818359c-0.2963867-1.3701172-0.6923828-3.3344727,1.0703125-4.2109375
	c0,0,0.5751953-0.984375,1.3789063-0.984375c1.9418945,0,1.8999023,0.984375,1.8999023,0.984375
	c0.6762695-0.0732422,2.7392578-1.4609375,4.0117188-1.6782227c1.2260742-0.2084961,5.5141602-0.8417969,6.8012695,1.0551758
	C28.4179688,17.7177734,28.9628906,20.0429688,28.4550781,21.1835938z M36.2265625,22.5351563
	c-0.1259766,1.1401367-1.2255859,2.3266602-1.2255859,2.3266602s0.1269531,1.2993164-0.1669922,1.8100586
	c-0.2978516,0.5087891-1.3925781,2.1416016-3.8222656,1.4326172c0,0,0.5673828-2.0849609,1.9199219-3.4892578
	c1.3515625-1.4047852,1.9423828-1.9106445,2.1113281-2.7978516c0.1699219-0.8867188,0.3828125-1.6220703,0.3828125-1.6220703
	S36.3535156,21.3945313,36.2265625,22.5351563z M47.4462891,20.543457
	c-0.1904297,0.1313477-0.6894531,0.2592773-1.3203125,0.2456055c-0.6347656-0.0136719-1.2177734-0.4165039-1.5302734-0.59375
	c-1.4560547,0.0991211-3.5263672-1.0239258-3.5263672-1.0239258c0.3242188,0.5507813,0.6904297,0.9150391,1.0546875,1.1572266
	c-0.4179688-0.0083008-0.6845703,0.2001953-0.9990234,0.4321289c-0.3789063,0.2822266-1.1396484,0.2260742-1.3642578,0
	c-0.2236328-0.2250977-0.5908203-0.5913086-0.5908203-0.5913086s0.9697266-0.2104492,1.2246094-0.5629883
	c0.2509766-0.3505859-0.1845703-1.2529297-0.1845703-1.2529297s0.8027344-0.7875977,0.8886719-1.7734375
	c0.0820313-0.9848633,0-1.7172852,0-1.7172852s0.4208984-0.1259766,0.7158203-0.5209961
	c0.2929688-0.394043,0.3955078-1.5488281,0.3955078-1.5488281c0.7890625-0.2978516,1.4492188,1.6748047,1.7597656,1.9707031
	c0.3105469,0.2954102,1.1542969,1.8027344,1.5214844,2.2675781c0.2607422,0.3300781,0.8847656,1.0356445,1.4267578,1.6459961
	c-0.328125-0.1220703-0.7451172-0.0878906-0.8583984,0.0356445c-0.4355469,0.4760742-0.1816406,1.0595703,0.0927734,1.4824219
	c0,0-0.2978516-0.9052734,0.125-1.2866211c0.1660156-0.1489258,0.5117188-0.1787109,0.7763672-0.0766602
	c0.1669922,0.1870117,0.3212891,0.362793,0.4482422,0.5073242C47.9990234,19.9047852,47.6484375,20.4033203,47.4462891,20.543457z"
	/>
</svg>