<?xml version="1.0" encoding="utf-8"?>
<!DOCTYPE svg PUBLIC "-//W3C//DTD SVG 1.1//EN" "http://www.w3.org/Graphics/SVG/1.1/DTD/svg11.dtd">
<svg version="1.1" id="iGPlus" xmlns="http://www.w3.org/2000/svg" xmlns:xlink="http://www.w3.org/1999/xlink" x="0px" y="0px" width="100%" height="100%" viewBox="0 0 48 48" preserveAspectRatio="xMidYMid meet">
<path id="g" fill="#9f9f9f" d="M21.2861328,26.453125c-1.3500977-0.9570313-2.9189453-2.5898438-2.9189453-3.2602539
	c0-0.9990234,0.1704102-1.4814453,2.0810547-2.9746094c2.3447266-1.8305664,3.6362305-4.2788086,3.6362305-6.8110352
	C24.0844727,10.7705078,23.1699219,9,21.6459961,7h1.96875l4.3549805-3H14.0664063
	C8.2631836,4,2.9780273,8.6015625,2.9780273,13.5400391C2.9780273,18.9609375,7.0908203,23,12.7568359,23
	c0.0634766,0,0.1269531,0,0.1899414,0c-0.1889648,0-0.2841797,0.9560547-0.2841797,1.4824219
	c0,0.9609375,0.3081055,1.7998047,0.9375,2.6777344c-0.2563477,0.0029297-0.5175781-0.0283203-0.7866211-0.0283203
	c-6.7451172,0-12.4433594,4.4814453-12.4433594,9.5126953c0,4.4482422,5.4423828,7.6689453,12.9404297,7.6689453
	c8.0820313,0,12.4423828-4.7880859,12.4423828-9.2880859C25.7529297,31.2626953,24.5424805,28.7558594,21.2861328,26.453125z
	 M9.7387695,8.0830078c0.7109375-0.8100586,1.640625-1.237793,2.6879883-1.237793l0.1152344,0.0014648
	c2.8261719,0.0859375,5.5244141,3.190918,6.0151367,6.921875c0.2797852,2.1293945-0.1835938,4.0615234-1.2705078,5.3007813
	c-0.7099609,0.809082-1.6274414,1.2368164-2.6538086,1.2368164l-0.1132813-0.0014648
	c-2.8173828-0.0854492-5.5161133-3.2382813-6.015625-7.0288086C8.2299805,11.1826172,8.6801758,9.2900391,9.7387695,8.0830078z
	 M18,30.2089844c2.0004883,1.2910156,2.9389648,2.6923828,3.3242188,4.1953125
	c0.0883789,0.3847656,0.1313477,0.7480469,0.1313477,1.109375c0,3.7597656-2.7485352,5.6669922-8.1694336,5.6669922
	c-4.1313477,0-7.3676758-2.7783203-7.3676758-6.0576172c0-3.0185547,3.7783203-6.515625,8.0473633-6.1230469
	C15.15625,29.109375,16.6577148,29.3427734,18,30.2089844z"/>
<polygon id="plus" fill="#9f9f9f" points="39,12 39,4 35,4 35,12 26,12 26,16 35,16 35,25 39,25 39,16 48,16 48,12 "/>
</svg>