<?xml version="1.0" encoding="utf-8"?>
<!DOCTYPE svg PUBLIC "-//W3C//DTD SVG 1.1//EN" "http://www.w3.org/Graphics/SVG/1.1/DTD/svg11.dtd">
<svg version="1.1" id="iGribyi" xmlns="http://www.w3.org/2000/svg" xmlns:xlink="http://www.w3.org/1999/xlink" x="0px" y="0px" width="100%" height="100%" viewBox="0 0 48 48" preserveAspectRatio="xMidYMid meet">
<path fill="#2B2B2B" d="M32.015625,36.96875l-0.0625,0.078125c-0.1875,0.21875-1.2324219,1.3837891-1.390625,1.5
	c-0.1591797,0.1220703-0.5751953,0.1142578-0.6894531-0.0224609c-0.078125-0.0947266-0.1054688-0.2197266-0.078125-0.3603516
	c0.0537109-0.2626953,1.5361328-3.2441406,1.7910156-3.875c-0.1601563,0.328125-0.3994141,0.7246094-0.6357422,0.9804688
	C30.8476563,35.3828125,29.46875,37.03125,29.46875,37.03125l-0.1679688-0.0234375
	c-0.0400391-0.0527344-0.0263672-0.0869141-0.0117188-0.1376953C29.2978516,36.8408203,29.453125,36.453125,29.4375,36.21875
	c-0.078125,0.140625-0.1796875,0.4003906-0.2890625,0.4775391c-0.2060547,0.1474609-0.515625,0.2236328-0.515625,0.2236328
	c-0.2792969-0.140625,0.5966797-2.6289063,0.6015625-2.6542969c0.09375-0.453125,0.5019531-1.6347656,0.515625-2.1875
	c-0.2490234,0.5810547-1,2.90625-1.453125,4c-0.3222656,0.7773438-1.0263672,1.3203125-1.1035156,1.3203125
	c-0.2412109,0-0.4492188-0.7568359-0.3027344-1.4453125c0.0439453-0.2060547-0.046875-0.90625-0.46875-0.953125
	c0,0-1.203125,0.203125-1.84375,0.8125s-1.0454102,2.1650391-1.71875,1.890625
	c-0.421875-0.171875-0.2714844-0.6279297-0.28125-0.734375c-0.09375-1-0.15625-1.1875-0.6630859-1.1181641
	c-0.534668,0.0732422-0.3647461,1.4345703-1.5869141,1.9775391c-0.5625,0.25-3.015625-1.2851563-3.296875-1.734375
	c0.0087891,0.2929688,0.75,0.96875,1.0878906,1.3105469c1.3374023,1.3525391,2.5449219,2.0585938,3.0908203,2.6044922
	c0.5458984,0.5449219,2.3222656,2.8671875,2.1894531,3.0820313c-0.0205078,0.0341797-0.0390625,0.0644531-0.0566406,0.0927734
	c0.1259766,0.0908203,0.6953125,0.1777344,0.8896484,0.2070313l0.0751953,0.0117188
	c0.1210938,0.0185547,0.2089844,0.0117188,0.2763672,0.0078125c0.0273438-0.0009766,0.0507813-0.0019531,0.0722656-0.0019531
	c0.1816406,0,0.2177734,0.1279297,0.2294922,0.2226563c0.0185547,0.1435547,0.0771484,0.3144531,0.1201172,0.3984375
	c0.1708984-0.1416016,0.5849609-0.4267578,1.0410156-0.5693359c1.6689453-0.5283203,2.5644531-1.8984375,4.4472656-3.8935547
	c0.7050781-0.7460938,1.8173828-1.7958984,1.8652344-1.9472656C32.5625,36.984375,33.140625,35.453125,32.015625,36.96875z"/>
<path fill="#2B2B2B" d="M35.2685547,26.0908203c-0.4335938-0.8691406-2.6025391-7.4277344-2.6025391-7.4277344
	s-0.2431641-0.6235352-0.3789063-0.5961914c-0.2431641,0.046875-0.3623047,0.2431641-0.5400391,0.2827148
	c-0.2431641,0.0541992-0.5712891,0.8007813-0.4365234,1.831543c0.1347656,1.0292969,0.2714844,1.4360352,0.3798828,1.8969727
	c0.109375,0.4604492,0.1357422,1.8706055,0.109375,1.7080078c-0.0283203-0.1625977-0.1357422-0.5151367-0.1894531-1.1118164
	c-0.0556641-0.5961914-0.2998047-1.1655273-0.4345703-1.8432617c-0.1357422-0.6772461-0.6103516-1.859375-0.7177734-2.0761719
	c-0.1074219-0.2163086-0.1767578-0.0917969-0.9091797,0.0166016c-0.7314453,0.1074219-1.3525391,0.0019531-1.5966797,0.0566406
	c-0.2441406,0.0537109-0.6816406,0.3334961-0.8095703,0.7368164c-0.0605469,0.190918-0.3583984,2.1503906-0.3320313,1.8793945
	s0.109375-2.1577148-0.0537109-2.4023438c-0.1621094-0.2436523-0.8945313,0.1083984-1.1650391,0.2978516
	c-0.2705078,0.1904297-0.2724609,1.5883789-0.21875,2.5097656c0.0546875,0.921875,0.9375,8.1425781,0.7744141,7.6269531
	c-0.1621094-0.5166016-1.2900391-6.1899414-1.5839844-8.1425781c-0.1650391-1.0927734,0.1640625-1.7358398,0.1103516-1.953125
	c-0.0537109-0.2163086-0.4785156-0.331543-1.0322266-0.2944336c-0.4873047,0.0332031-1.1669922,0.5786133-1.5195313,0.7148438
	c-0.3525391,0.1352539-0.5966797-0.0273438-0.8408203,0.0273438c-0.2431641,0.0541992-0.4912109,0.2397461-0.734375,0.5102539
	c-0.2441406,0.2709961-0.5195313,1.5463867-0.7363281,1.953125c-0.2177734,0.4067383-0.4052734,3.7578125-0.4052734,3.7578125
	s-0.2216797-2.4941406-0.2216797-2.8735352c0-0.3798828,0.1191406-1.0981445,0.2822266-1.4501953
	c0.1621094-0.3525391,0.2998047-0.9956055,0.3808594-1.2402344c0.0820313-0.2436523-0.2861328-0.2646484-0.7734375-0.184082
	c-0.4882813,0.0820313-0.7470703,0.5024414-0.7470703,0.5024414s-0.1347656-0.1352539-0.6494141,0.0541992
	c-0.515625,0.1904297-0.6503906,1.1660156-0.6503906,1.1660156c0,0.1621094-1.7626953,5.0146484-1.8984375,5.4746094
	c-0.1347656,0.4619141-1.0839844,2.5830078-1.0839844,4.6416016c0,1.8134766,2.7236328,3.5859375,3.484375,4.1005859
	l0.3652344,0.2441406c-0.1347656,0-0.140625-1.1767578-0.1357422-1.2607422l-0.1396484-1.7138672l0.5517578,1.6210938
	c0.3886719,0.6728516,2.0307617,0.8515625,2.0449219,0.8476563c0.5664063-0.1513672,1.3007813-0.8076172,1.8935547-1.6220703
	c0.3393555-0.4658203,0.6494141-2.4121094,0.6494141-2.4121094s0.6113281,4.3310547,0.6328125,4.0859375
	c0.03125-0.359375,0.265625-0.7460938,0.4443359-1.0380859c0.09375-0.1523438,0.8212891-2.1953125,0.8154297-2.2109375
	c-0.0410156-0.1044922-0.0371094,1.1669922,0.2207031,0.9121094c1.2851563-1.2714844,1.4375-3.7851563,1.4375-3.7851563
	s0.0185547,2.0322266,0.0410156,2.2519531c0.0410156,0.4003906,0.4296875-1.0791016,0.4560547-1.0087891
	c0.0390625,0.1054688-0.1152344,1.8623047-0.0830078,1.8789063c0.5253906-0.359375,1.2910156-3.2548828,1.4091797-3.34375
	c0,0,0.4960938,3.2392578,0.6025391,3.21875c0.1367188-0.0283203,0.1943359-0.0517578,0.3427734-0.7587891
	c0.2441406-1.1748047,0.2080078-0.6289063,0.3681641-1.1982422c0.3037109-1.0917969-0.5537109-5.3974609-0.5537109-5.3974609
	s1.7275391,4.6611328,1.3125,7.1621094c-0.0654297,0.3935547,0.0966797,1.90625,0.0966797,1.90625
	c0.1679688,0.2861328,0.3583984,0.4804688,0.5732422,0.2119141c0.0800781-0.1005859,0.1826172-0.2109375,0.2880859-0.3271484
	c0.3222656-0.3505859,1.6494141-2.6650391,1.6816406-2.6201172c0.078125,0.1113281-0.3085938,1.3964844-0.4150391,1.7001953
	c-0.2285156,0.6601563-0.1181641,1.0292969,0.1650391,0.8701172c0.0849609-0.0478516,0.171875,0.2011719,0.03125,0.5917969
	c-0.2207031,0.6132813-0.6523438,1.2431641-0.578125,1.1875c0.2060547-0.1552734,1.0820313-1.4970703,1.0869141-1.5029297
	c0,0,0.3896484-1.8681641,0.46875-1.9492188c0.1699219-0.1669922,0.7333984-1.6582031,0.7333984-1.6582031
	c0.3251953-0.2119141-0.4570313,3.0136719-0.4570313,3.0136719c0.0126953,0-0.125,0.6425781-0.0439453,0.7568359
	c0.0830078,0.1132813,0.0966797,0.3466797,0.046875,0.5576172c-0.0791016,0.3408203-1.2294922,1.8857422-1.3505859,2.0097656
	l1.3818359-1.3964844c0.7871094-0.8671875,1.4980469-1.5380859,1.8427734-2.0791016
	C37.4648438,31.3037109,35.7011719,26.9570313,35.2685547,26.0908203z"/>
<path fill="#2B2B2B" d="M37.1074219,9.8564453c-0.2783203-0.3134766-1.7070313-2.1259766-3.4833984-3.1357422
	c-1.7773438-1.0117188-4.7744141-1.2900391-5.2958984-1.4985352c-0.5224609-0.2094727-1.0527344-0.8105469-1.9873047-1.0454102
	C24.3959961,3.6875,22.5087891,4.2460938,21.7412109,4.5258789C20.9736328,4.8041992,20.5854492,5.125,19.9584961,5.2294922
	c-0.6279297,0.1049805-0.9765625-0.0004883-1.9169922,0.4165039c-0.9414063,0.4189453-1.5610352,1.3183594-1.5610352,1.3183594
	s-1.2548828,0.8706055-1.9169922,1.2197266c-0.6630859,0.3486328-1.1162109,0.9750977-3.4853516,4.0419922
	c-2.3691406,3.065918-1.9501953,4.4946289-1.6025391,6.2729492c0.3486328,1.7763672,1.9169922,1.4970703,3.5888672,2.0898438
	c1.6728516,0.5922852,2.1269531-0.0341797,2.1269531-0.0341797c-1.4296875-0.8012695-2.3955078-1.5224609-2.4648438-4.2753906
	c-0.0703125-2.7529297,4.4853516-6.0395508,4.4853516-6.0395508s-0.8017578,0.7666016-1.8125,1.9516602
	c-1.0097656,1.1845703-1.8486328,3.4794922-1.6787109,4.9404297c0.2373047,2.0366211,1.8183594,3.1435547,1.9570313,3.1435547
	c0.140625,0,0.965332-1.046875,1.8847656-0.8378906C18.9375,19.75,18.75,19.125,18.75,19.125s-0.0058594-0.4638672-0.21875-0.90625
	c-0.3237305-0.6723633-0.34375-1.4628906-0.3789063-2.4033203c-0.0351563-0.940918,1.2197266-4.1118164,1.2197266-4.1118164
	s0.1191406,0.3911133-0.2519531,1.8754883c-0.4736328,1.894043-0.2558594,3.0102539-0.046875,3.7416992
	c0.2099609,0.7319336,1.0527344,1.2568359,1.6103516,1.3261719c0.5576172,0.0698242,1.40625-0.1479492,2.5908203-0.3237305
	c1.1845703-0.1733398,4.4960938,0,5.7851563-0.1386719C30.3476563,18.0454102,30.8789063,17.9951172,31.75,17.75
	c0.8701172-0.2431641,1.4248047-0.9936523,1.84375-1.65625c0.4179688-0.6621094,0.34375-1.9863281-0.3183594-3.3793945
	c-0.6621094-1.394043-1.6035156-2.3696289-1.6035156-2.3696289s0.5244141,0.2783203,1.0810547,0.9404297
	c0.5585938,0.6616211,0.5927734,0.8017578,1.0458984,1.4638672c0.4521484,0.6625977,0.8007813,1.4287109,0.8007813,2.0908203
	c0,0.6616211-0.1396484,1.3242188-0.2441406,1.6025391s-0.1044922,0.5927734,0.2441406,0.5927734
	c0.3476563,0,0.7324219-0.487793,0.9765625-0.8710938c0.2431641-0.3837891,0.2158203-2.6323242,0.2158203-2.6323242
	s0.2363281,1.0292969,0.1669922,1.4819336c-0.0703125,0.4526367,0.0351563,1.2197266,0.3134766,1.0800781
	s0.453125-0.5571289,0.5214844-0.8359375c0.0712891-0.2783203-0.2441406-1.7729492-0.2441406-1.7729492
	s0.4199219,0.5185547,0.5234375,1.1113281c0.1064453,0.5917969,0.0341797,0.7319336,0.3134766,0.6269531
	c0.2802734-0.1044922,1.2207031-1.2895508,1.3945313-2.7524414C38.9550781,11.0063477,37.3867188,10.1704102,37.1074219,9.8564453z"
	/>
</svg>