<?xml version="1.0" encoding="utf-8"?>
<!DOCTYPE svg PUBLIC "-//W3C//DTD SVG 1.1//EN" "http://www.w3.org/Graphics/SVG/1.1/DTD/svg11.dtd">
<svg version="1.1" id="iGus" xmlns="http://www.w3.org/2000/svg" xmlns:xlink="http://www.w3.org/1999/xlink" x="0px" y="0px" width="100%" height="100%" viewBox="0 0 48 48" preserveAspectRatio="xMidYMid meet">
<path fill="#2B2B2B" d="M39.1777344,29.3144531c-0.2509766-0.1669922-3.5605469-1.3085938-4.4492188-1.8349609
	c-0.8896484-0.5292969-4.3378906-2.753418-5.7832031-3.6157227C27.5,23.0019531,25.4980469,19.6381836,23.5517578,18.3310547
	c-1.9462891-1.3076172-5.9775391-0.027832-6.0888672-0.1386719c-0.1113281-0.1113281,1.3339844-2.3354492,1.7792969-3.2260742
	c0.4443359-0.8896484,0.6669922-2.0571289,0.7226563-4.8374023s-1.8623047-5.0605469-4.5878906-6.0332031
	c-2.7246094-0.9731445-3.8095703,1.5014648-3.8095703,1.5014648c0.0839844,0.5834961,0.6123047,0.8618164,0.6123047,0.8618164
	s-0.2783203,0.3891602-0.3339844,0.9448242c-0.0546875,0.5556641,0.5556641,1.1123047,0.5556641,1.1123047
	c1.4462891,1.0566406,3.0595703,0.4448242,3.4208984,0.5839844c0.3603516,0.1386719,0.5839844,1.4731445,0.6669922,2.8359375
	c0.0830078,1.3618164-1.8632813,2.8081055-2.8076172,3.503418C12.7353516,16.1337891,10.34375,17.0795898,10.2890625,21.25
	c-0.0556641,4.1699219,5.171875,8.6474609,9.3691406,12.0117188c4.1992188,3.3642578,7.3398438,3.9482422,9.2871094,3.8095703
	c1.9453125-0.1386719,5.7548828-5.2822266,6.2275391-5.5625c0.3613281,0.0566406,1.7519531,0.390625,2.5302734-0.2216797
	c0.2841797-0.2226563,0.4726563-0.6113281,0.0839844-0.9716797c0.3613281,0.1103516,1.2792969-0.1123047,1.5-0.1953125
	C39.5107422,30.0361328,39.5371094,29.4804688,39.1777344,29.3144531z M12.9580078,5.4018555
	c0.5566406-0.2783203,1.1123047-0.0551758,1.2236328,0.3061523s-0.4169922,0.5561523-0.9169922,0.7231445
	c-0.5009766,0.1665039-0.9736328,0.027832-0.9736328,0.027832C12.6523438,6.1806641,12.4013672,5.6801758,12.9580078,5.4018555z
	 M15.7392578,7.987793c0,0,0.6386719,0.3891602,0.4716797,0.5839844c-0.1669922,0.1943359-0.9453125-0.1669922-1.2783203-0.027832
	c-0.3339844,0.1386719-1.3632813,0.4169922-1.8632813,0.1386719c-0.5-0.277832-0.9453125-0.3613281-0.8056641-0.8618164
	c0,0,1.7792969-1.6674805,2.6962891-1.4453125c0.9179688,0.2216797,0.8896484,0.5,0.8339844,0.5834961
	c-0.0546875,0.0839844,0.4169922,0.1386719,0.4169922,0.3891602s-0.2783203,0.3061523-0.2783203,0.3061523
	s0.6679688,0.1665039,0.5566406,0.4169922C16.3779297,8.3212891,15.7392578,7.987793,15.7392578,7.987793z M22.7451172,34.1513672
	c0,0,1.7509766-1.3066406,2.2802734-2.2246094c0.5283203-0.9179688,0.8339844-2.6972656,0.8339844-2.6972656
	s0.0878906,2.4707031-0.3339844,3.0869141C24.7470703,33.4560547,22.7451172,34.1513672,22.7451172,34.1513672z
	 M26.0820313,32.6503906c0.5556641-0.8066406,0.9160156-2.1132813,0.9160156-2.1132813s0.0283203,1.7509766-0.5,2.3896484
	c-0.6484375,0.7861328-2.1679688,1.4746094-2.5849609,1.6132813C23.9130859,34.5400391,25.5253906,33.4560547,26.0820313,32.6503906
	z M26.6650391,33.9560547c0.3896484-0.5263672,0.9443359-1.1669922,1.0849609-1.5839844
	c-0.1396484,0.7783203-0.3613281,1.5576172-0.7783203,1.9462891c-0.4179688,0.3896484-2.0585938,1.0292969-2.0585938,1.0292969
	S26.2753906,34.484375,26.6650391,33.9560547z M28.0566406,34.9306641
	c-0.1279297,0.1748047-0.6679688,0.3613281-1.1132813,0.4433594c0,0,1.3896484-0.9736328,1.5576172-1.8613281
	C28.4160156,34.2910156,28.2773438,34.6240234,28.0566406,34.9306641z M30.3076172,29.7587891
	c-0.5830078,0.5810547-2.9257813,0.1513672-5.4267578-2.4521484c-1.9287109,0.4111328-5.8046875-0.3164063-9.2255859-5.527832
	c-0.0458984-0.0698242,3.9521484,2.7880859,4.8378906,2.418457c0.6669922-0.277832,0.6396484-0.6113281,0.6396484-0.6113281
	s0.9951172,0.6040039,1.4179688,0.3334961c0.3056641-0.1948242,0.25-0.7783203,0.25-0.7783203
	s0.7783203,0.5566406,1.1123047,0.4169922c0.3339844-0.1391602,0.3056641-0.6669922,0.3056641-0.6669922
	s0.75,0.0834961,1.0292969,0.027832c-0.1123047,0.2768555-0.4443359,0.8891602-0.7792969,1.0834961
	c-0.3125,0.1826172-1.1123047-0.0830078-1.1123047-0.0830078s-0.1103516,0.4453125-0.4716797,0.5288086
	c-0.3623047,0.0830078-1.1962891-0.1948242-1.1962891-0.1948242s-0.1386719,0.4169922-0.6123047,0.527832
	c-0.3779297,0.0898438-1.3896484-0.0830078-1.3896484-0.0830078s1.8408203,0.8232422,2.6416016,0.5556641
	c0.5-0.1660156,0.5-0.4169922,0.5-0.4169922s0.7236328,0.4453125,1.2509766,0.1113281
	c0.4765625-0.300293,0.4443359-0.5288086,0.4443359-0.5288086s0.6396484,0.3618164,1.1962891,0.0839844
	c0.5556641-0.2773438,0.3623047-0.8618164,0.3623047-0.8618164s0.6396484,0.5844727,1.1943359,0.3608398
	c0.4169922-0.1669922,0.5009766-0.3613281,0.6953125-0.3613281c-0.0830078,0.277832-0.2216797,1.2792969-1.4453125,0.8623047
	c-0.1113281,0.4448242-0.1445313,0.5063477-0.4169922,0.6665039c-0.6113281,0.3623047-1.2236328-0.3051758-1.2236328-0.3051758
	s-0.1328125,0.6704102-0.4726563,0.8354492c-0.8066406,0.3876953-1.2236328-0.140625-1.2236328-0.140625
	s-0.1943359,0.2792969-0.5,0.3349609c-0.3056641,0.0546875-0.8339844,0.0546875-0.8339844,0.0546875
	s1.9443359,0.8300781,2.6972656,0.5009766c0.4443359-0.1953125,0.3886719-0.6123047,0.3886719-0.6123047
	s0.7783203,0.5009766,1.1679688,0.25c0.3886719-0.25,0.3886719-0.7226563,0.3886719-0.7226563s0.8271484,0.5400391,1.2236328,0.25
	c0.4169922-0.3056641,0.1943359-0.7504883,0.1943359-0.7783203s0.4960938,0.1953125,1.0019531,0.027832
	c0.5-0.1665039,0.6210938,0.0024414,0.6103516,0.0288086c-0.1435547,0.359375-1.2099609,1.0107422-2.4042969,1.5683594
	c0.8886719,0.5732422,3.3730469,2.109375,3.8515625,1.7675781c0.5839844-0.4179688-1.1416016-2.0302734-1.1416016-2.0302734
	s3.1123047,1.8994141,3.6992188,1.4736328c0.3056641-0.2226563-0.2226563-0.7226563-0.2226563-0.7226563
	s1.4023438,0.9892578,1.0283203,1.3623047c-0.5839844,0.5830078-2.1962891-0.1660156-2.1962891-0.1660156
	s0.1572266,0.5488281-0.0830078,0.8330078c-0.3056641,0.3623047-1.8085938-0.1386719-1.8085938-0.1386719
	S30.6347656,29.4306641,30.3076172,29.7587891z M38.8427734,29.7861328c-0.2324219,0.2666016-1.8349609-0.0830078-1.7783203,0
	c0.0556641,0.0830078,0.8046875,0.2783203,0.0830078,0.9169922c-0.7089844,0.6269531-3.0029297-0.0820313-3.0029297-0.0820313
	s-0.0839844,1.1943359-0.8623047,1.3056641c-0.7783203,0.1123047-2.7802734-1.3896484-2.7802734-1.3896484
	c0.8613281,0.3330078,2.2246094,0.7783203,2.6699219,0.3330078c0.5859375-0.5849609-0.1113281-1.4726563-0.0849609-1.4453125
	c1.0849609,0.4169922,2.7529297,1.1123047,3.1982422,0.6669922c0.53125-0.53125-0.0839844-1.1123047-0.5556641-1.8066406
	C37.3427734,29.0351563,39.2324219,29.3417969,38.8427734,29.7861328z"/>
<path fill="#2B2B2B" d="M25.0947266,27.2529297c1.2050781,0.7060547,3.8691406,2.1816406,4.3505859,1.6992188
	c0.2480469-0.2490234-1.6396484-1.8642578-2.3652344-2.46875c-0.6357422,0.2949219-1.3056641,0.5634766-1.8886719,0.7441406
	C25.1621094,27.2373047,25.125,27.2431641,25.0947266,27.2529297z"/>
<path fill="#2B2B2B" d="M12.1513672,8.5439453c-0.0830078-0.0830078-0.3330078-0.3061523-0.3330078-0.3061523
	S9.4541016,8.7109375,8.9824219,8.6269531c0,0,1.1123047-0.222168,1.6396484-0.3056641
	c0.5283203-0.0834961,1.2236328-0.1108398,1.1679688-0.277832c-0.0546875-0.1665039-0.1660156-0.5283203-0.1103516-0.8896484
	s0.2773438-0.6674805,0.2773438-0.6674805s-0.3339844-0.6108398-0.4726563-0.5556641s-1.2509766,1.3344727-1.6953125,1.5292969
	C9.34375,7.6542969,8.8994141,8.0439453,8.6767578,8.3496094c-0.2226563,0.3051758-0.3623047,0.6669922,1.3896484,0.5004883
	C11.8183594,8.6831055,12.2353516,8.6269531,12.1513672,8.5439453z M10.8730469,7.0429688
	c0.25,0.1943359,0.0556641,0.5-0.0283203,0.527832c-0.0830078,0.027832-0.0830078-0.0834961-0.2490234-0.0834961
	c-0.1679688,0-0.390625,0.4174805-0.6123047,0.1669922C9.9833984,7.6542969,10.6220703,6.8481445,10.8730469,7.0429688z"/>
<path fill="#2B2B2B" d="M12.9765625,5.9052734c0.0625,0.175293,0.2363281,0.3037109,0.4492188,0.3037109
	c0.2626953,0,0.4775391-0.1967773,0.4775391-0.4389648c0-0.2426758-0.2148438-0.4394531-0.4775391-0.4394531
	c-0.2402344,0-0.4296875,0.1645508-0.4658203,0.375l0.3046875,0.0302734L12.9765625,5.9052734z"/>
<path fill="#2B2B2B" d="M25.7480469,36.9599609c0,0,0.6113281,0.4443359,1.25,0.25c0,0.5,0.2509766,0.9736328-0.1933594,1.2236328
	c-0.4453125,0.25-1.1123047,1.140625-1.2509766,1.5566406c-0.1396484,0.4169922-0.4453125,1.140625-0.3056641,1.4189453
	c0.1386719,0.2773438,0.9169922,1.0830078,0.6669922,1.1669922s-1.0019531-0.1660156-1.0019531-0.1660156
	s-0.3896484,0.3603516-0.8603516,0.5546875c-0.4736328,0.1953125-3.3378906,1.3076172-4.1435547,0.9462891
	c-0.2783203-0.3623047,0.1386719-0.5009766,0.1386719-0.5009766s-0.3339844-1.3623047-1.9736328-1.8632813
	c0.0283203-0.8339844,1.0009766-0.0283203,1.4736328-0.4169922s-0.0556641-0.75-0.0556641-0.75s0-0.3056641,0.3896484-0.2226563
	c0.3886719,0.0830078,3.1132813,0.9443359,3.8095703,0.3613281c0.6943359-0.5849609,1.25-1.1679688,1.5283203-1.9179688
	C25.4980469,37.8486328,25.7480469,36.9599609,25.7480469,36.9599609z"/>
<path fill="#2B2B2B" d="M30.0849609,37.0429688c0,0,0.6669922-0.4169922,1.1132813-0.8339844
	c0.0263672,1.6123047-0.0009766,2.9755859,0.1376953,3.4482422c0.1396484,0.4716797,0.7773438,1.640625,0.6679688,1.7519531
	c-0.1113281,0.109375-0.6396484-0.1113281-0.9453125,0c-0.3066406,0.109375-3.9755859,1.25-4.3105469,1.1113281
	c-0.3330078-0.1396484-0.3066406-0.3339844-0.25-0.4169922c0.0556641-0.0839844,0-0.2783203-0.3613281-0.5849609
	c-0.3613281-0.3046875-0.5566406-0.4716797-0.5-0.6386719c0.0556641-0.1669922,0.8896484-0.1943359,1.1679688-0.4443359
	c0.2783203-0.2509766,0.3330078-0.5839844,0.4443359-0.6396484s1.8632813,0.6396484,2.4472656,0.3056641
	s0.8056641-1.0566406,0.6943359-1.7792969C30.2802734,37.5996094,30.0849609,37.0429688,30.0849609,37.0429688z"/>
</svg>