<?xml version="1.0" encoding="utf-8"?>
<!DOCTYPE svg PUBLIC "-//W3C//DTD SVG 1.1//EN" "http://www.w3.org/Graphics/SVG/1.1/DTD/svg11.dtd">
<svg version="1.1" id="iHelp" xmlns="http://www.w3.org/2000/svg" xmlns:xlink="http://www.w3.org/1999/xlink" x="0px" y="0px" width="100%" height="100%" viewBox="0 0 48 48" preserveAspectRatio="xMidYMid meet">
<path id="question" fill="#4D4D4D" d="M33.0917969,6.7333984C30.5566406,4.902832,27.375,3.9892578,23.5410156,3.9892578
	c-2.9135742,0-5.375,0.6445313-7.3725586,1.9311523c-3.1733398,2.0131836-4.8608398,5.4335938-5.0625,10.2587891h7.3486328
	c0-1.4052734,0.409668-2.7592773,1.2299805-4.0615234c0.8222656-1.3027344,2.2138672-1.9541016,4.1772461-1.9541016
	c1.9936523,0,3.3686523,0.5273438,4.1225586,1.5849609c0.7568359,1.0585938,1.1298828,2.2329102,1.1298828,3.5170898
	c0,1.1181641-0.5605469,2.1420898-1.2392578,3.0712891c-0.3681641,0.5415039-0.8603516,1.0410156-1.4658203,1.5
	c0,0-3.9882813,2.5551758-5.7373047,4.609375c-1.0146484,1.1904297-1.1083984,2.9765625-1.1958008,5.5361328
	c-0.0073242,0.1796875,0.0620117,0.5546875,0.6977539,0.5546875c0.6381836,0,5.1523438,0,5.7177734,0
	c0.5664063,0,0.6865234-0.4179688,0.6953125-0.6035156c0.0400391-0.9306641,0.1435547-1.4072266,0.3154297-1.9414063
	c0.3203125-1.0175781,1.1943359-1.9052734,2.1748047-2.6679688l2.0244141-1.3984375
	c1.8251953-1.421875,3.2832031-2.5908203,3.9287109-3.5043945c1.0966797-1.5078125,1.8662109-3.3603516,1.8662109-5.5605469
	c0-3.5917969-1.2695313-6.300293-3.8017578-8.1259766L33.0917969,6.7333984z M23.4243164,34.9492188
	c-2.5366211-0.0761719-4.625,1.6748047-4.7041016,4.4238281c-0.0810547,2.7451172,1.9072266,4.5566406,4.4414063,4.6347656
	c2.6459961,0.0771484,4.6831055-1.6191406,4.7583008-4.3642578C28.0009766,36.8925781,26.0693359,35.0273438,23.4243164,34.9492188z
	"/>
</svg>