<?xml version="1.0" encoding="utf-8"?>
<!DOCTYPE svg PUBLIC "-//W3C//DTD SVG 1.1//EN" "http://www.w3.org/Graphics/SVG/1.1/DTD/svg11.dtd">
<svg version="1.1" id="iEquipment" xmlns="http://www.w3.org/2000/svg" xmlns:xlink="http://www.w3.org/1999/xlink" x="0px" y="0px" width="100%" height="100%" viewBox="0 0 48 48" preserveAspectRatio="xMidYMid meet">
<g>
	<circle fill-rule="evenodd" clip-rule="evenodd" fill="#9EC349" cx="23.9873047" cy="23.9921875" r="23.8828125"/>
</g>
<path fill="#FFFFFF" d="M18.6835938,15.2607422c0.5117188,0.0400391,0.7651367,0.065918,1.265625,0.1269531
	c0.1625977,0.0200195,0.3183594-0.050293,0.3452148-0.1601563c0.0878906-0.3378906,0.1323242-0.5063477,0.2177734-0.8481445
	c0.0283203-0.1103516,0.1098633-0.0991211,0.1801758,0.0234375c0.2216797,0.3803711,0.3276367,0.5732422,0.5385742,0.9570313
	c0.0693359,0.1264648,0.2568359,0.2460938,0.4135742,0.2792969c0.46875,0.0952148,0.6401367,0.137207,1.2080078,0.2905273
	c0.1557617,0.0400391,0.1811523,0.1123047,0.0678711,0.1523438c-0.3491211,0.1210938-0.5292969,0.1538086-0.8886719,0.3012695
	c-0.1166992,0.0454102-0.1582031,0.1889648-0.0947266,0.315918c0.1933594,0.387207,0.2856445,0.5947266,0.465332,1.0097656
	c0.059082,0.1357422,0.003418,0.1503906-0.125,0.0366211c-0.394043-0.3466797-0.5986328-0.4755859-1.0136719-0.7675781
	c-0.1367188-0.0957031-0.3447266-0.1303711-0.4614258-0.0810547c-0.3535156,0.1542969-0.5297852,0.2612305-0.887207,0.4223633
	c-0.1176758,0.0537109-0.1889648,0.0073242-0.1591797-0.0986328c0.0927734-0.3291016,0.1381836-0.5214844,0.2290039-0.8505859
	c0.0292969-0.105957-0.0639648-0.2661133-0.2070313-0.3505859c-0.4443359-0.2651367-0.6694336-0.3935547-1.1259766-0.6376953
	C18.5043945,15.3007813,18.5175781,15.2475586,18.6835938,15.2607422"/>
<path fill="#FFFFFF" d="M13.6938477,18.9111328c0.6103516-0.1264648,0.7988281-0.1572266,1.3764648-0.2402344
	c0.171875-0.0239258,0.3476563-0.1264648,0.3901367-0.2407227c0.125-0.3520508,0.184082-0.5268555,0.3076172-0.8720703
	c0.0400391-0.1118164,0.1245117-0.1171875,0.1884766-0.0146484c0.1992188,0.3271484,0.2963867,0.4926758,0.4892578,0.824707
	c0.0629883,0.1083984,0.2504883,0.2036133,0.4135742,0.1928711c0.5429688-0.03125,0.6689453-0.0644531,1.2192383-0.090332
	c0.159668-0.0092773,0.1796875,0.0537109,0.065918,0.1269531c-0.4223633,0.2734375-0.5507813,0.3857422-0.9257813,0.6113281
	c-0.1191406,0.0732422-0.1791992,0.2075195-0.1186523,0.3212891c0.1826172,0.3398438,0.2729492,0.5126953,0.4482422,0.8647461
	c0.0585938,0.1162109-0.0043945,0.1469727-0.1401367,0.0698242c-0.4111328-0.2314453-0.6191406-0.3378906-1.046875-0.5322266
	c-0.1425781-0.0664063-0.3632813-0.0551758-0.4951172,0.0219727c-0.3959961,0.2368164-0.527832,0.3212891-1.0595703,0.6552734
	c-0.1479492,0.0917969-0.2202148,0.0771484-0.1650391-0.0639648c0.1723633-0.4423828,0.2319336-0.5493164,0.3730469-0.9018555
	c0.0458984-0.1137695-0.0424805-0.2514648-0.1928711-0.2973633c-0.4614258-0.1411133-0.6962891-0.2016602-1.1772461-0.2993164
	C13.4887695,19.0161133,13.5107422,18.9541016,13.6938477,18.9111328"/>
<path fill="#FFFFFF" d="M11.0561523,23.5429688c0.5581055-0.0458984,0.8261719-0.0571289,1.3447266-0.0585938
	c0.168457,0,0.3735352-0.0917969,0.4575195-0.2075195c0.2617188-0.3549805,0.3901367-0.5307617,0.6474609-0.8779297
	c0.0825195-0.1118164,0.1625977-0.1079102,0.1787109,0.0112305c0.0483398,0.3637695,0.0722656,0.5473633,0.1103516,0.9179688
	c0.0131836,0.1196289,0.1508789,0.2275391,0.3017578,0.2475586c0.5253906,0.0737305,0.609375,0.0883789,1.1381836,0.1855469
	c0.1435547,0.0273438,0.1474609,0.0922852,0.0107422,0.1381836c-0.4243164,0.1411133-0.6411133,0.2202148-1.0854492,0.3911133
	c-0.144043,0.0546875-0.2734375,0.203125-0.2709961,0.324707c0.0019531,0.3764648,0.0029297,0.5654297-0.0024414,0.9482422
	c-0.0029297,0.1240234-0.0771484,0.1533203-0.1689453,0.0634766c-0.2802734-0.2705078-0.4243164-0.4003906-0.7265625-0.6533203
	c-0.0986328-0.0810547-0.3120117-0.0922852-0.4711914-0.0239258c-0.4853516,0.2114258-0.7324219,0.3227539-1.2319336,0.5581055
	c-0.1640625,0.0751953-0.222168,0.0419922-0.1230469-0.0791016c0.293457-0.3681641,0.4418945-0.5527344,0.7304688-0.9160156
	c0.097168-0.1176758,0.0830078-0.2739258-0.0292969-0.34375c-0.3491211-0.2128906-0.5292969-0.3120117-0.9130859-0.4936523
	C10.8291016,23.6186523,10.8769531,23.5576172,11.0561523,23.5429688"/>
<path fill="#FFFFFF" d="M20.0107422,29.7158203c-0.3662109,0.2089844-0.565918,0.3447266-0.9560547,0.6171875
	c-0.1264648,0.0888672-0.2041016,0.2822266-0.171875,0.4248047c0.0981445,0.4384766,0.1445313,0.6630859,0.237793,1.1318359
	C19.1503906,32.0410156,19.0844727,32.0908203,18.9741211,32c-0.3339844-0.2900391-0.5009766-0.4248047-0.8374023-0.6894531
	c-0.1108398-0.0859375-0.3081055-0.0771484-0.4379883,0.0263672c-0.3964844,0.3037109-0.5947266,0.4619141-0.9975586,0.7851563
	c-0.1323242,0.109375-0.1875,0.0615234-0.1264648-0.0927734c0.1904297-0.4814453,0.284668-0.7148438,0.4677734-1.1699219
	c0.0615234-0.1484375,0.0170898-0.3349609-0.097168-0.4111328c-0.3500977-0.2333984-0.5268555-0.3466797-0.8833008-0.5605469
	c-0.1171875-0.0683594-0.0854492-0.1396484,0.065918-0.1601563c0.4707031-0.0595703,0.703125-0.0839844,1.1650391-0.1210938
	c0.1503906-0.0117188,0.3193359-0.1357422,0.3754883-0.2734375c0.1772461-0.4316406,0.2646484-0.6425781,0.4321289-1.0478516
	c0.0551758-0.1328125,0.1289063-0.1347656,0.1635742-0.0058594c0.1083984,0.3945313,0.1611328,0.5947266,0.2661133,1.0078125
	c0.0341797,0.1347656,0.1826172,0.2431641,0.3286133,0.2412109c0.4501953-0.0117188,0.6767578-0.0214844,1.1152344,0.03125
	C20.1166992,29.5742188,20.1289063,29.6474609,20.0107422,29.7158203"/>
<path fill="#FFFFFF" d="M26.0302734,30.3945313c-0.3212891,0.1044922-0.4833984,0.1621094-0.8085938,0.2792969
	c-0.1064453,0.0380859-0.1552734,0.1757813-0.1074219,0.3085938c0.1416016,0.3964844,0.2148438,0.5947266,0.3642578,0.9912109
	c0.0507813,0.1298828-0.0048828,0.1542969-0.1210938,0.0517578c-0.3535156-0.3125-0.5263672-0.4726563-0.8676758-0.7958984
	c-0.1157227-0.1064453-0.2944336-0.1572266-0.4042969-0.1103516c-0.3320313,0.1396484-0.4990234,0.2138672-0.8408203,0.3740234
	c-0.112793,0.0527344-0.1704102-0.0039063-0.1274414-0.1240234c0.1308594-0.359375,0.1943359-0.5341797,0.3208008-0.875
	c0.0400391-0.1132813-0.0161133-0.2900391-0.1264648-0.3994141c-0.3339844-0.3320313-0.4990234-0.4990234-0.828125-0.8310547
	c-0.1054688-0.1083984-0.0849609-0.1630859,0.0473633-0.1230469c0.4091797,0.1298828,0.6132813,0.1943359,1.0209961,0.3261719
	c0.1323242,0.0429688,0.2719727-0.0087891,0.3095703-0.1113281c0.1201172-0.3261719,0.1791992-0.4814453,0.2939453-0.7900391
	c0.0366211-0.0996094,0.1005859-0.0771484,0.1430664,0.0507813c0.1298828,0.3935547,0.1962891,0.5917969,0.3305664,0.9902344
	c0.0444336,0.1289063,0.1875,0.2705078,0.3208008,0.3115234c0.409668,0.1367188,0.6147461,0.203125,1.0268555,0.3349609
	C26.109375,30.296875,26.1337891,30.359375,26.0302734,30.3945313"/>
<path fill="#FFFFFF" d="M31.4316406,28.796875c-0.3603516,0.1376953-0.5253906,0.2089844-0.8740234,0.3457031
	c-0.1142578,0.0439453-0.1582031,0.1806641-0.0957031,0.3085938c0.1835938,0.3828125,0.2783203,0.5742188,0.4775391,0.9501953
	c0.0625,0.1230469,0.0039063,0.1513672-0.1279297,0.0537109c-0.4121094-0.2900391-0.6103516-0.4345703-1-0.7832031
	c-0.1279297-0.1142578-0.3183594-0.1835938-0.4296875-0.1464844c-0.3320313,0.1054688-0.4980469,0.1572266-0.8291016,0.2646484
	c-0.1083984,0.0351563-0.171875-0.0234375-0.140625-0.1318359c0.0996094-0.3251953,0.1503906-0.4863281,0.2490234-0.8046875
	c0.0341797-0.1064453-0.0390625-0.2861328-0.1611328-0.4042969c-0.3720703-0.3632813-0.5576172-0.5498047-0.9179688-0.9160156
	c-0.1171875-0.1210938-0.0996094-0.1699219,0.0390625-0.1152344c0.4296875,0.1757813,0.6435547,0.2617188,1.078125,0.4277344
	c0.140625,0.0546875,0.2861328,0.0146484,0.3203125-0.0859375c0.1025391-0.3183594,0.1572266-0.4765625,0.2636719-0.7919922
	c0.0361328-0.1025391,0.1064453-0.0751953,0.1572266,0.0576172c0.1582031,0.4130859,0.2431641,0.6201172,0.4091797,1.0332031
	c0.0585938,0.1347656,0.2197266,0.2832031,0.3662109,0.3320313c0.4482422,0.1503906,0.6835938,0.1767578,1.1503906,0.2724609
	C31.5195313,28.6923828,31.5458984,28.7529297,31.4316406,28.796875"/>
<path fill="#FFFFFF" d="M34.9570313,25.2099609c-0.3457031,0.2382813-0.5136719,0.3496094-0.8457031,0.5527344
	c-0.1054688,0.0664063-0.1542969,0.2011719-0.1054688,0.3017578c0.1494141,0.3017578,0.2236328,0.4511719,0.3789063,0.7431641
	c0.0507813,0.1005859-0.0039063,0.1259766-0.1201172,0.0634766c-0.3515625-0.1894531-0.5234375-0.2919922-0.8652344-0.5136719
	c-0.1113281-0.0712891-0.2861328-0.09375-0.3867188-0.0478516c-0.3076172,0.140625-0.4619141,0.2060547-0.7597656,0.3349609
	c-0.1015625,0.0419922-0.1552734,0.0019531-0.1220703-0.0898438c0.0966797-0.28125,0.1455078-0.4208984,0.2470703-0.7041016
	c0.0302734-0.0917969-0.0283203-0.234375-0.1357422-0.3183594c-0.3300781-0.2597656-0.4873047-0.4121094-0.8066406-0.690918
	c-0.1035156-0.0898438-0.0888672-0.1362305,0.0371094-0.1083984c0.3847656,0.0952148,0.5791016,0.1376953,0.9755859,0.2050781
	c0.1279297,0.0209961,0.2636719-0.0493164,0.2978516-0.1557617c0.1103516-0.3286133,0.1669922-0.4936523,0.2832031-0.8374023
	c0.0361328-0.1098633,0.1025391-0.1040039,0.1425781,0.0131836C33.3037109,24.3198242,33.3769531,24.5,33.5136719,24.859375
	c0.0439453,0.1157227,0.1904297,0.2207031,0.3222656,0.2265625c0.4189453,0.0195313,0.6328125,0.0195313,1.0664063-0.0039063
	C35.0410156,25.0761719,35.0664063,25.1318359,34.9570313,25.2099609"/>
<path fill="#FFFFFF" d="M37.8183594,19.7724609c-0.3300781,0.3457031-0.4951172,0.5166016-0.8271484,0.8447266
	c-0.1064453,0.1049805-0.1630859,0.2680664-0.1289063,0.3657227c0.1123047,0.2885742,0.1689453,0.4321289,0.2871094,0.7089844
	c0.0400391,0.0898438-0.0146484,0.1455078-0.1191406,0.1191406C36.7089844,21.734375,36.5537109,21.6865234,36.25,21.5761719
	c-0.0996094-0.034668-0.2666016,0.0126953-0.3691406,0.1103516c-0.3164063,0.2900391-0.4833984,0.4335938-0.7734375,0.6904297
	c-0.0957031,0.0844727-0.1445313,0.0585938-0.1103516-0.0512695c0.1054688-0.34375,0.1875-0.5273438,0.3164063-0.8867188
	c0.0439453-0.1196289,0-0.2558594-0.0966797-0.300293c-0.2929688-0.1450195-0.4365234-0.2241211-0.71875-0.3891602
	c-0.0888672-0.0537109-0.0693359-0.1123047,0.0478516-0.1303711c0.3662109-0.0585938,0.5488281-0.0952148,0.9248047-0.1835938
	c0.1210938-0.03125,0.2578125-0.1577148,0.3017578-0.2807617c0.1318359-0.3857422,0.2001953-0.5805664,0.3369141-0.9750977
	c0.0449219-0.128418,0.1074219-0.1489258,0.1367188-0.0424805c0.0947266,0.3291016,0.1464844,0.4887695,0.2451172,0.8041992
	c0.0332031,0.1015625,0.1660156,0.1489258,0.2929688,0.1069336c0.390625-0.1362305,0.5898438-0.2114258,0.9902344-0.3803711
	C37.90625,19.6166992,37.9248047,19.6625977,37.8183594,19.7724609"/>
<path fill="#FFFFFF" d="M31.5966797,16.1918945c0.3378906,0.0292969,0.4697266,0.0205078,0.8662109,0.0073242
	c0.1132813-0.003418,0.2353516-0.1025391,0.2675781-0.2236328c0.0966797-0.375,0.1474609-0.5698242,0.25-0.9702148
	c0.0332031-0.1289063,0.0917969-0.1362305,0.1298828-0.0166016c0.1171875,0.3730469,0.1757813,0.5488281,0.2929688,0.9003906
	c0.0361328,0.1118164,0.1621094,0.1835938,0.2792969,0.1835938c0.3164063,0,0.5175781-0.0107422,0.9140625-0.0307617
	c0.1171875-0.0058594,0.1435547,0.0419922,0.0429688,0.1225586c-0.2929688,0.2275391-0.4433594,0.3071289-0.7265625,0.534668
	c-0.0986328,0.0771484-0.1357422,0.2387695-0.0966797,0.3447266c0.1201172,0.3198242,0.1787109,0.4755859,0.2998047,0.7827148
	c0.0400391,0.1005859-0.0039063,0.1391602-0.1005859,0.0878906c-0.2929688-0.15625-0.4355469-0.2368164-0.7265625-0.409668
	c-0.0947266-0.0566406-0.2451172-0.0400391-0.3378906,0.0332031c-0.2675781,0.2255859-0.4013672,0.3344727-0.6650391,0.5380859
	c-0.0869141,0.065918-0.1347656,0.0273438-0.1054688-0.0737305c0.0849609-0.3066406,0.1289063-0.4702148,0.2197266-0.8056641
	c0.0292969-0.1088867-0.0253906-0.2460938-0.1171875-0.3125c-0.2978516-0.2114258-0.4365234-0.3320313-0.7197266-0.5688477
	C31.4716797,16.2358398,31.4863281,16.1811523,31.5966797,16.1918945"/>
<path fill="#FFFFFF" d="M25.3242188,14.9814453c0.3994141,0.1137695,0.5966797,0.1708984,0.9902344,0.2866211
	c0.1289063,0.0366211,0.2607422-0.0166016,0.2949219-0.1157227c0.1074219-0.315918,0.1611328-0.4775391,0.2734375-0.8095703
	c0.0351563-0.1064453,0.1025391-0.0917969,0.1455078,0.034668c0.1357422,0.3950195,0.2011719,0.5913086,0.3310547,0.9824219
	c0.0400391,0.1264648,0.1777344,0.2587891,0.3037109,0.2973633c0.3964844,0.1137695,0.5917969,0.1689453,0.9873047,0.28125
	c0.1269531,0.0371094,0.1474609,0.1015625,0.0419922,0.1455078c-0.3222656,0.1318359-0.4785156,0.1948242-0.7929688,0.3120117
	c-0.0996094,0.0385742-0.1494141,0.1689453-0.1103516,0.2939453c0.1181641,0.3779297,0.1757813,0.5634766,0.2929688,0.9326172
	c0.0390625,0.1210938-0.0126953,0.1391602-0.1113281,0.0366211c-0.2998047-0.3066406-0.4521484-0.4604492-0.7597656-0.7695313
	c-0.0986328-0.0986328-0.2636719-0.1538086-0.3603516-0.1206055c-0.296875,0.1005859-0.4443359,0.1484375-0.7353516,0.2382813
	c-0.0947266,0.03125-0.1484375-0.0200195-0.1162109-0.1123047c0.0986328-0.2768555,0.1494141-0.4179688,0.2490234-0.706543
	c0.0332031-0.0952148-0.0253906-0.2553711-0.1308594-0.3530273c-0.3242188-0.3051758-0.4921875-0.4536133-0.8271484-0.7475586
	C25.1796875,14.9926758,25.1953125,14.9448242,25.3242188,14.9814453"/>
<path fill="#FFFFFF" d="M40.9179688,14.746582c-0.2890625,0.2626953-0.4433594,0.4003906-0.7519531,0.6831055
	c-0.1025391,0.0932617-0.1591797,0.2348633-0.1220703,0.3120117c0.1064453,0.2373047,0.1621094,0.3515625,0.2792969,0.5698242
	c0.0371094,0.0698242-0.0146484,0.1210938-0.1171875,0.1083984c-0.3125-0.0351563-0.4648438-0.0605469-0.7666016-0.1210938
	c-0.0986328-0.0185547-0.265625,0.0439453-0.3720703,0.1411133c-0.3232422,0.2978516-0.4882813,0.4477539-0.8193359,0.7475586
	c-0.1064453,0.0952148-0.1572266,0.0844727-0.109375-0.0292969c0.1435547-0.3417969,0.2158203-0.5161133,0.359375-0.859375
	c0.0478516-0.1123047,0.0078125-0.2275391-0.0869141-0.2587891c-0.2910156-0.0883789-0.4345703-0.1416016-0.7167969-0.2543945
	c-0.0917969-0.0366211-0.0693359-0.0952148,0.0546875-0.1318359c0.3779297-0.1069336,0.5654297-0.1635742,0.9433594-0.2807617
	c0.1220703-0.0390625,0.2617188-0.1635742,0.3085938-0.277832c0.140625-0.3520508,0.2128906-0.5288086,0.3544922-0.8813477
	c0.0458984-0.1137695,0.1044922-0.128418,0.1308594-0.034668c0.0800781,0.2866211,0.1220703,0.4257813,0.2138672,0.6938477
	c0.0302734,0.0864258,0.1533203,0.1230469,0.2705078,0.0849609c0.3710938-0.121582,0.5537109-0.1821289,0.9072266-0.2978516
	C40.9951172,14.6235352,41.0107422,14.6616211,40.9179688,14.746582"/>
<path fill="#FFFFFF" d="M28.1230469,21.0195313c0.2109375-0.0566406,0.2421875-0.1635742-0.0078125-0.1508789
	c-0.4296875,0.0219727-5.425293,1.171875-9.7543945,3.6972656c-4.7109375,2.7495117-6.1347656,4.1176758-7.1416016,4.8969727
	c-0.2661133,0.2060547-0.4624023,0.2099609-0.5102539,0.0839844c-0.1611328-0.4287109-0.2612305-0.6728516-0.3925781-1.0751953
	c-0.0400391-0.1210938-0.1552734-0.1083984-0.2075195,0.0625c-0.1757813,0.5820313-0.2602539,0.9365234-0.4326172,1.4619141
	c-0.0546875,0.1689453-0.1118164,0.3515625-0.4248047,0.5712891c-0.6176758,0.4296875-0.746582,0.5146484-1.1323242,0.7763672
	c-0.1401367,0.0957031-0.2128906,0.2001953,0.0678711,0.2490234c0.2680664,0.0507813,0.3212891,0.0585938,0.6835938,0.1269531
	c0.2895508,0.0537109,0.1938477,0.2480469,0.1518555,0.4189453C8.9052734,32.625,8.8554688,32.8222656,8.6977539,33.3232422
	c-0.0517578,0.1630859,0.0146484,0.1855469,0.1503906,0.0439453c0.4106445-0.4296875,0.5439453-0.5742188,0.9785156-1.0253906
	c0.1640625-0.1728516,0.3173828-0.3681641,0.4887695-0.3369141c0.425293,0.0761719,0.4760742,0.0898438,1.0712891,0.2021484
	c0.2641602,0.0498047,0.262207-0.0722656,0.1928711-0.2441406c-0.2041016-0.5048828-0.1665039-0.4394531-0.3217773-0.8652344
	c-0.0493164-0.1367188-0.0581055-0.3935547,0.0961914-0.5410156c2.4819336-2.4179688,3.5097656-3.2041016,6.9213867-5.4306641
	C20.9467773,23.3828125,24.5004883,21.9985352,28.1230469,21.0195313z"/>
</svg>
