<?xml version="1.0" encoding="utf-8"?>
<!DOCTYPE svg PUBLIC "-//W3C//DTD SVG 1.1//EN" "http://www.w3.org/Graphics/SVG/1.1/DTD/svg11.dtd">
<svg version="1.1" id="iIkra" xmlns="http://www.w3.org/2000/svg" xmlns:xlink="http://www.w3.org/1999/xlink" x="0px" y="0px" width="100%" height="100%" viewBox="0 0 48 48" preserveAspectRatio="xMidYMid meet">
<path fill="#2B2B2B" d="M17.5253906,24.2436523C16.1308594,24.2436523,15,25.3076172,15,26.6220703
	C15,27.9355469,16.1308594,29,17.5253906,29s2.5244141-1.0644531,2.5244141-2.3779297
	C20.0498047,25.3076172,18.9199219,24.2436523,17.5253906,24.2436523z M18.4941406,27.7958984
	c0,0,0.4101563-0.9394531,0.3515625-1.5849609s-0.9101563-1.1455078-0.9101563-1.1455078
	c0.3828125,0.0585938,1.2207031,0.6855469,1.2929688,1.1162109C19.3164063,26.7099609,18.4941406,27.7958984,18.4941406,27.7958984z
	"/>
<path fill="#2B2B2B" d="M23.5068359,25.8066406c-1.3945313,0-2.5253906,1.0634766-2.5253906,2.3779297
	c0,1.3134766,1.1308594,2.3779297,2.5253906,2.3779297s2.5244141-1.0644531,2.5244141-2.3779297
	C26.03125,26.8701172,24.9013672,25.8066406,23.5068359,25.8066406z M24.4755859,29.3583984
	c0,0,0.4101563-0.9394531,0.3515625-1.5849609s-0.9101563-1.1455078-0.9101563-1.1455078
	c0.3828125,0.0585938,1.2207031,0.6855469,1.2929688,1.1162109C25.2978516,28.2724609,24.4755859,29.3583984,24.4755859,29.3583984z
	"/>
<path fill="#2B2B2B" d="M29.4755859,26.2441406c-1.3945313,0-2.5253906,1.0634766-2.5253906,2.3779297
	C26.9501953,29.9355469,28.0810547,31,29.4755859,31S32,29.9355469,32,28.6220703
	C32,27.3076172,30.8701172,26.2441406,29.4755859,26.2441406z M30.4443359,29.7958984c0,0,0.4101563-0.9394531,0.3515625-1.5849609
	s-0.9101563-1.1455078-0.9101563-1.1455078c0.3828125,0.0585938,1.2207031,0.6855469,1.2929688,1.1162109
	C31.2666016,28.7099609,30.4443359,29.7958984,30.4443359,29.7958984z"/>
<path fill="#2B2B2B" d="M35.5253906,26.2441406C34.1308594,26.2441406,33,27.3076172,33,28.6220703
	C33,29.9355469,34.1308594,31,35.5253906,31s2.5244141-1.0644531,2.5244141-2.3779297
	C38.0498047,27.3076172,36.9199219,26.2441406,35.5253906,26.2441406z M36.4941406,29.7958984
	c0,0,0.4101563-0.9394531,0.3515625-1.5849609s-0.9101563-1.1455078-0.9101563-1.1455078
	c0.3828125,0.0585938,1.2207031,0.6855469,1.2929688,1.1162109C37.3164063,28.7099609,36.4941406,29.7958984,36.4941406,29.7958984z
	"/>
<path fill="#2B2B2B" d="M41.4941406,25.65625c-1.3945313,0-2.5253906,1.0634766-2.5253906,2.3779297
	c0,1.3134766,1.1308594,2.3779297,2.5253906,2.3779297s2.5244141-1.0644531,2.5244141-2.3779297
	C44.0185547,26.7197266,42.8886719,25.65625,41.4941406,25.65625z M42.4628906,29.2080078
	c0,0,0.4101563-0.9394531,0.3515625-1.5849609s-0.9101563-1.1455078-0.9101563-1.1455078
	c0.3828125,0.0585938,1.2207031,0.6855469,1.2929688,1.1162109C43.2851563,28.1220703,42.4628906,29.2080078,42.4628906,29.2080078z
	"/>
<path fill="#2B2B2B" d="M38.4755859,21c-1.3945313,0-2.5253906,1.0634766-2.5253906,2.3779297
	c0,1.3134766,1.1308594,2.3779297,2.5253906,2.3779297S41,24.6914063,41,23.3779297C41,22.0634766,39.8701172,21,38.4755859,21z
	 M39.4443359,24.5517578c0,0,0.4101563-0.9394531,0.3515625-1.5849609s-0.9101563-1.1455078-0.9101563-1.1455078
	c0.3828125,0.0585938,1.2207031,0.6855469,1.2929688,1.1162109C40.2666016,23.4658203,39.4443359,24.5517578,39.4443359,24.5517578z
	"/>
<path fill="#2B2B2B" d="M32.4941406,21.0253906c-1.3945313,0-2.5253906,1.0634766-2.5253906,2.3779297
	c0,1.3134766,1.1308594,2.3779297,2.5253906,2.3779297s2.5244141-1.0644531,2.5244141-2.3779297
	C35.0185547,22.0888672,33.8886719,21.0253906,32.4941406,21.0253906z M33.4628906,24.5771484
	c0,0,0.4101563-0.9394531,0.3515625-1.5849609s-0.9101563-1.1455078-0.9101563-1.1455078
	c0.3828125,0.0585938,1.2207031,0.6855469,1.2929688,1.1162109C34.2851563,23.4912109,33.4628906,24.5771484,33.4628906,24.5771484z
	"/>
<path fill="#2B2B2B" d="M26.5253906,21C25.1308594,21,24,22.0634766,24,23.3779297
	c0,1.3134766,1.1308594,2.3779297,2.5253906,2.3779297s2.5244141-1.0644531,2.5244141-2.3779297
	C29.0498047,22.0634766,27.9199219,21,26.5253906,21z M27.4941406,24.5517578c0,0,0.4101563-0.9394531,0.3515625-1.5849609
	s-0.9101563-1.1455078-0.9101563-1.1455078c0.3828125,0.0585938,1.2207031,0.6855469,1.2929688,1.1162109
	C28.3164063,23.4658203,27.4941406,24.5517578,27.4941406,24.5517578z"/>
<path fill="#2B2B2B" d="M21.1191406,19.9941406c-1.4677734,0-2.6582031,1.1191406-2.6582031,2.5029297
	C18.4609375,23.8793945,19.6513672,25,21.1191406,25s2.6572266-1.1206055,2.6572266-2.5029297
	C23.7763672,21.1132813,22.5869141,19.9941406,21.1191406,19.9941406z M22.1386719,23.7324219
	c0,0,0.4316406-0.9887695,0.3701172-1.6679688c-0.0615234-0.6796875-0.9580078-1.2060547-0.9580078-1.2060547
	c0.402832,0.0620117,1.2851563,0.7216797,1.3608398,1.175293C23.0043945,22.5893555,22.1386719,23.7324219,22.1386719,23.7324219z"
	/>
<path fill="#2B2B2B" d="M23.7753906,15.21875c-1.3945313,0-2.5253906,1.0634766-2.5253906,2.3779297
	c0,1.3134766,1.1308594,2.3779297,2.5253906,2.3779297s2.5244141-1.0644531,2.5244141-2.3779297
	C26.2998047,16.2822266,25.1699219,15.21875,23.7753906,15.21875z M24.7441406,18.7705078
	c0,0,0.4101563-0.9394531,0.3515625-1.5849609s-0.9101563-1.1455078-0.9101563-1.1455078
	c0.3828125,0.0585938,1.2207031,0.6855469,1.2929688,1.1162109C25.5664063,17.6845703,24.7441406,18.7705078,24.7441406,18.7705078z
	"/>
<path fill="#2B2B2B" d="M29.4755859,16.2441406c-1.3945313,0-2.5253906,1.0634766-2.5253906,2.3779297
	C26.9501953,19.9355469,28.0810547,21,29.4755859,21S32,19.9355469,32,18.6220703
	C32,17.3076172,30.8701172,16.2441406,29.4755859,16.2441406z M30.4443359,19.7958984c0,0,0.4101563-0.9394531,0.3515625-1.5849609
	s-0.9101563-1.1455078-0.9101563-1.1455078c0.3828125,0.0585938,1.2207031,0.6855469,1.2929688,1.1162109
	C31.2666016,18.7099609,30.4443359,19.7958984,30.4443359,19.7958984z"/>
<path fill="#2B2B2B" d="M35.4755859,16c-1.3945313,0-2.5253906,1.0634766-2.5253906,2.3779297
	c0,1.3134766,1.1308594,2.3779297,2.5253906,2.3779297S38,19.6914063,38,18.3779297C38,17.0634766,36.8701172,16,35.4755859,16z
	 M36.4443359,19.5517578c0,0,0.4101563-0.9394531,0.3515625-1.5849609s-0.9101563-1.1455078-0.9101563-1.1455078
	c0.3828125,0.0585938,1.2207031,0.6855469,1.2929688,1.1162109C37.2666016,18.4658203,36.4443359,19.5517578,36.4443359,19.5517578z
	"/>
<path fill="#2B2B2B" d="M27.8378906,10.9316406c-1.3945313,0-2.5253906,1.0634766-2.5253906,2.3779297
	c0,1.3134766,1.1308594,2.3779297,2.5253906,2.3779297s2.5244141-1.0644531,2.5244141-2.3779297
	C30.3623047,11.9951172,29.2324219,10.9316406,27.8378906,10.9316406z M28.8066406,14.4833984
	c0,0,0.4101563-0.9394531,0.3515625-1.5849609s-0.9101563-1.1455078-0.9101563-1.1455078
	c0.3828125,0.0585938,1.2207031,0.6855469,1.2929688,1.1162109C29.6289063,13.3974609,28.8066406,14.4833984,28.8066406,14.4833984z
	"/>
<path fill="#2B2B2B" d="M0,21.96875c0,0,8.0639648,1.4755859,12.6044922,6.3291016C17.1445313,33.1523438,20.40625,36.921875,28,37
	c7.5927734,0.0791016,16.7900391-4.7470703,20-6l-2-1c0,0-9.7919922,2.0839844-16,2c-6.1132813-0.0830078-10.5625-0.6328125-15-4
	c-2.7397461-2.6621094-3.1210938-2.8261719-5-4c-1.8789063-1.1743164-6.7119141-3.4208984-10-3.96875
	C0,20.8149414,0,21.96875,0,21.96875z"/>
</svg>