<?xml version="1.0" encoding="utf-8"?>
<!DOCTYPE svg PUBLIC "-//W3C//DTD SVG 1.1//EN" "http://www.w3.org/Graphics/SVG/1.1/DTD/svg11.dtd">
<svg version="1.1" id="iIndeyka" xmlns="http://www.w3.org/2000/svg" xmlns:xlink="http://www.w3.org/1999/xlink" x="0px" y="0px" width="100%" height="100%" viewBox="0 0 48 48" preserveAspectRatio="xMidYMid meet">
<path fill="#2B2B2B" d="M40.90625,20.3286133c-0.6923828-1.2553711-2.8271484-2.0092773-3.5791016-2.6992188
	C36.5732422,16.9379883,36.7841797,15.847168,36.1875,15.09375c-0.5947266-0.7529297-2.4003906-1.840332-3.5-2.5
	c-1.0986328-0.6591797-2.0175781-2.8759766-4.0888672-3.440918c-2.0722656-0.5654297-5.0581055-0.3896484-6.8754883,0.4394531
	c-1.7890625,0.8164063-5.1757813,2.4677734-5.5566406,3.4223633c-0.3813477,0.9541016-1.4545898,6.706543,3.7548828,11.5410156
	c3.6728516-4.9287109,3.7192383-4.8613281,4.0585938-4.8764648c0.3676758-0.0170898,0.4785156,0.0771484,0.4785156,0.0771484
	s-0.1582031-0.2875977,0.0620117-0.6328125c0.2197266-0.3452148,0.5927734-0.1757813,0.5927734-0.1757813
	s-0.2099609-0.6445313,0.1474609-1.059082c0.2939453-0.3393555,0.8027344-0.2158203,0.9511719-0.1655273
	c0.1074219,0.0366211-0.3798828-0.4824219-0.0556641-1.0073242c0.3232422-0.5229492,0.8095703-0.3427734,0.8095703-0.3427734
	s-0.1884766-0.9731445,0.5644531-1.4125977c0.7529297-0.4389648,1.5078125,0.4394531,1.5078125,0.4394531
	s-0.1572266-0.7841797,0.6269531-0.9101563c0.7851563-0.1264648,0.8427734,0.574707,0.8427734,0.574707
	s0.2832031-0.4453125,0.9472656-0.2607422c0.828125,0.2299805,0.6904297,1.0673828,0.6904297,1.0673828
	s0.1347656-0.1435547,0.6591797-0.2519531c0.6669922-0.1376953,2.6054688,0.4404297,2.7314453,1.3823242
	c0.0634766,0.9726563-0.1513672,1.5043945-0.1513672,1.5043945s-0.7285156,2.1689453-0.6953125,2.890625
	c0.03125,0.7216797,0.25,2.2919922,0.3125,2.9194336s-0.3867188,1.8422852-0.4814453,2.0610352
	c0.8642578,0.8642578,0.8027344,1.9443359,1.5439453,3.9501953c1.5390625-0.9736328,2.3291016-1.6806641,3.4277344-4.0654297
	C40.5898438,23.8764648,41.5957031,21.5844727,40.90625,20.3286133z"/>
<path fill="#2B2B2B" d="M19.53125,24.90625c0,0-4.5678711-3.2783203-4.5361328-9.1489258
	c0.03125-2.0405273,0.1254883-2.6049805,0.5644531-3.3583984c0.2573242-0.4418945,3.2275391-2.1826172,3.5410156-2.3710938
	c-0.3461914-1.0043945-0.2758789-1.5849609-0.902832-2.4638672c-0.6279297-0.8789063-0.9731445-1.2871094-1.5385742-1.0361328
	c0,0,0.2197266-0.3144531-0.1879883-0.6591797c-0.4091797-0.3447266-0.9423828-0.7539063-1.1303711-0.5966797
	c-0.1572266-0.3139648-0.2827148-0.5024414-0.7851563-0.7841797c-0.5019531-0.2827148-0.8173828-0.2509766-0.9423828-0.1884766
	c-0.2202148-0.2832031-0.3764648-0.4077148-0.9414063-0.3764648c-0.5654297,0.0317383-1.7895508-0.1884766-1.8837891,0.125
	C10.5678711,3.8911133,9.8466797,3.859375,9.1870117,4.5498047C8.527832,5.2407227,7.9311523,6.371582,8.2456055,6.8735352
	c-0.5961914,0.1884766-1.1308594,0.722168-1.3188477,1.6953125C6.737793,9.5415039,6.519043,10.4213867,7.0522461,10.9228516
	c-0.4399414,0.7539063-0.6279297,0.8481445-0.6904297,2.1352539c-0.0629883,1.2871094,0.0634766,2.2290039,0.4077148,2.3544922
	c-0.2827148,0.7216797-0.4077148,0.9101563-0.2197266,1.7895508c0.1879883,0.8789063,0.4389648,1.4121094,0.6586914,1.3808594
	c-0.1245117,0.628418-0.1870117,0.9418945-0.0307617,1.3183594C7.3359375,20.2783203,7.6484375,20.75,7.8681641,20.84375
	c0,0.4082031-0.0317383,0.9418945,0.2519531,1.6010742c0.2817383,0.659668,0.815918,1.6953125,1.2875977,1.4443359
	C9.375,24.5166016,9.1870117,24.925293,9.6894531,25.4892578c0.5024414,0.5654297,1.1611328,0.8164063,1.2866211,0.8164063
	c-0.09375,0.4082031,0.0317383,1.5693359,0.6914063,2.1669922c0.6591797,0.5976563,1.0986328,0.9414063,1.4121094,0.9111328
	c0.0629883,0.3447266,0.1254883,0.5322266,0.7543945,0.7841797c0.6279297,0.2509766,2.1665039,0.1572266,2.1665039,0.1572266
	s-0.1264648-1.3193359,0.3134766-2.0410156C16.7529297,27.5625,19.53125,24.90625,19.53125,24.90625z M16.3842773,6.972168
	c-0.3706055,1.265625-0.5864258,1.9135742-0.9257813,3.3027344C15.4584961,8.5463867,16.3842773,6.972168,16.3842773,6.972168z
	 M15.1186523,5.9536133C14.5942383,7.0336914,14.625,9.0400391,14.5629883,10.027832
	C13.8535156,7.7436523,15.1186523,5.9536133,15.1186523,5.9536133z M13.4213867,4.996582
	c-0.1542969,1.2348633,0.277832,4.2597656,0.5244141,5.4326172C13.081543,8.8857422,13.4213867,4.996582,13.4213867,4.996582z
	 M13.2978516,10.9848633C12.4335938,10.0898438,11.1987305,7.5893555,10.9521484,4.75
	C10.9521484,4.75,12.09375,9.0400391,13.2978516,10.9848633z M13.1435547,12.0957031
	c-1.4199219-1.1108398-3.3027344-3.487793-4.5375977-4.8149414C8.605957,7.2807617,12.4335938,10.8305664,13.1435547,12.0957031z
	 M12.9580078,13.5776367c-1.8208008-0.2163086-4.012207-2.0683594-5.2163086-2.53125
	C7.7416992,11.0463867,12.1865234,12.9291992,12.9580078,13.5776367z M7.5258789,15.3984375
	c0,0,2.0063477-0.9257813,3.5185547-0.8642578c1.6049805,0.1850586,1.8520508,0.4321289,1.8520508,0.4321289
	S11.1064453,14.4418945,7.5258789,15.3984375z M7.8344727,18.3618164c0,0,4.2905273-1.3583984,5.4941406-0.5249023
	C11.6000977,17.8369141,9.2236328,18.0839844,7.8344727,18.3618164z M8.5444336,20.3369141
	c0,0,4.2592773-1.1728516,4.9384766-1.1420898C12.5878906,19.6269531,9.1308594,20.1826172,8.5444336,20.3369141z
	 M10.1186523,23.4853516c0,0,1.7900391-2.2841797,4.1049805-2.1914063
	C12.8349609,21.8183594,10.9829102,22.590332,10.1186523,23.4853516z M11.4150391,25.7695313
	c0,0,1.3579102-2.7470703,3.487793-2.8706055C13.2050781,24.0097656,12.5571289,24.1953125,11.4150391,25.7695313z
	 M13.4829102,28.7324219c0,0,0.8027344-2.9628906,2.8706055-3.8891602
	C14.5942383,27.0654297,15.2421875,25.7080078,13.4829102,28.7324219z"/>
<path fill="#2B2B2B" d="M27.3554688,38.6992188c0.25-0.2265625,0.4257813-0.3818359,0.4257813-0.3818359
	S27.6347656,38.2783203,27.3554688,38.6992188z"/>
<path fill="#2B2B2B" d="M21.5776367,32.4755859c0.0693359-0.0517578,0.1137695-0.0927734,0.1137695-0.0927734
	S21.6240234,32.4169922,21.5776367,32.4755859z"/>
<path fill="#2B2B2B" d="M35.0673828,29.6425781c-0.28125-1.0986328-0.4384766-2.1982422-0.9414063-2.3554688
	s-2.2363281,1.96875-4.6669922,2.2382813c-3.2099609,0.3544922-5.7412109-1.0654297-6.8833008-2.6542969
	c-0.8168945-1.1376953-0.8022461-3.3955078-0.8022461-3.3955078c-1.6669922,1.9755859-4.9145508,6.0722656-4.9145508,6.4794922
	c0,0.4091797,0.1889648,0.4091797,0.1889648,0.4091797s-0.2514648,0.4394531-0.2197266,0.8164063
	c0.0307617,0.3759766,0.3769531,0.3144531,0.3769531,0.3144531s-0.2832031,0.1875-0.0942383,0.6269531
	c0.1879883,0.4384766,0.6904297-0.03125,0.6904297-0.03125s0.1254883,0.5654297,0.3759766,0.7851563
	c0.2509766,0.21875,0.8481445-0.3769531,0.8481445-0.3769531s0.0317383,0.4082031,0.3769531,0.6279297
	c0.3452148,0.2207031,1.0668945-0.5341797,1.0668945-0.5341797s-0.2827148,0.3769531,0.1254883,0.6582031
	c0.2973633,0.2080078,0.6748047-0.0195313,0.859375-0.1582031C21.5004883,33.0341797,21.5678711,33,21.5678711,33
	s-0.0444336,0.0410156-0.1137695,0.0927734c-0.065918,0.0859375-0.0878906,0.2255859,0.2084961,0.4111328
	c0.5014648,0.3144531,1.0048828,0.0947266,1.0048828,0.0947266s-0.9731445,2.3847656-1.0996094,3.1064453
	c-0.1254883,0.7236328,0.5024414,1.0058594,0.5024414,1.0058594s-0.3461914,0.3447266-0.3461914,0.8466797
	c0,0.5029297,0.3779297,0.5654297,0.3779297,0.5654297s-0.4077148,0.6279297-0.4394531,1.1923828
	c-0.0322266,0.5654297,0.5639648,0.9423828,0.5639648,0.9423828s-0.2504883,0.7226563-0.6586914,1.5390625
	c-0.4082031,0.8154297,0.0634766,1.2861328,0.0634766,1.2861328s0.5327148-0.3457031,1.2539063-0.8466797
	c0.7226563-0.5029297,1.9794922-1.3818359,2.6381836-2.1982422c0.4355469-0.5390625,1.2207031-1.2783203,1.7080078-1.7216797
	c0.2802734-0.4208984,0.4267578-0.3818359,0.4267578-0.3818359s-0.1767578,0.1552734-0.4267578,0.3818359
	c-0.2050781,0.3095703-0.4833984,0.8671875-0.828125,1.8789063c-0.8173828,2.3847656-0.4707031,2.4169922,0.4072266,1.4433594
	c0.8779297-0.9716797,1.2246094-1.6005859,1.7587891-2.1669922c0.5341797-0.5634766,1.1611328-1.5996094,2.1025391-2.9179688
	c0,0.3457031-0.7539063,2.2900391-1.6005859,3.8916016s-0.0302734,1.1640625,0.7529297,0.6601563
	c0.7851563-0.5029297,2.6699219-4.7099609,3.3291016-5.5566406c-0.0947266,1.0361328,0.0625,2.6367188,0.3447266,2.5117188
	c0.2822266-0.1259766,0.9414063-1.5068359,1.8515625-2.6689453s0.5664063-4.2685547,0.3769531-4.7714844
	C35.5380859,31.1171875,35.3496094,30.7412109,35.0673828,29.6425781z M25.8476563,29.3505859c0,0-0.5771484,0-1.0703125,1.1113281
	c-0.4633789,1.0419922-1.109375,2.4345703-1.8334961,2.8066406c-0.0888672,0.0654297-0.1416016,0.0732422-0.1416016,0.0732422
	c0.0473633-0.015625,0.0942383-0.0488281,0.1416016-0.0732422c0.199707-0.1455078,0.6005859-0.6113281,1.1342773-2.1494141
	C24.8496094,28.8974609,25.8476563,29.3505859,25.8476563,29.3505859z M19.1396484,28.15625
	c1.0795898-2.0888672,2.4277344-2.2226563,2.4277344-2.2226563s-1.2348633,0.4541016-1.7285156,1.5654297
	c-0.4936523,1.1103516-1.8828125,2.4072266-2.4692383,2.7158203C17.3696289,30.2148438,18.5014648,29.390625,19.1396484,28.15625z
	 M17.390625,31.2841797c0,0,1.4541016-1.4345703,2.2631836-2.6123047c1.1728516-1.7089844,2.3457031-1.8740234,2.3457031-1.8740234
	s-1.4609375,0.8857422-2.0576172,1.9755859C19.3579102,29.8408203,17.9770508,30.9755859,17.390625,31.2841797z
	 M17.9868164,31.7783203c0,0,0.8569336-0.5087891,2.0581055-2.53125C20.8266602,27.9306641,22.3496094,27.375,22.3496094,27.375
	s-1.3793945,0.8027344-1.8725586,1.9140625C19.9829102,30.4003906,18.5732422,31.4697266,17.9868164,31.7783203z
	 M19.1806641,32.3339844c0,0,0.9467773-0.6171875,1.7490234-2.4697266c0.9355469-2.1582031,2.1606445-1.8105469,2.1606445-1.8105469
	s-0.9672852-0.0830078-1.7490234,1.6875C20.8496094,30.8535156,19.7670898,32.0253906,19.1806641,32.3339844z
	 M20.5385742,32.4160156c0,0,0.7617188-0.6376953,1.5639648-2.2841797c1.0307617-2.1142578,1.7695313-1.7685547,1.7695313-1.7685547
	s-0.5766602,0-1.0698242,1.1103516C22.3081055,30.5849609,21.125,32.1074219,20.5385742,32.4160156z M21.5263672,32.9101563
	c0,0,0.3857422-0.2568359,1.543457-2.3046875c1.0698242-1.8935547,1.6459961-1.7080078,1.6459961-1.7080078
	s-0.7822266,0.4316406-1.2758789,1.5429688S22.112793,32.6005859,21.5263672,32.9101563z M22.3598633,37.3955078
	c0,0,2.3149414-2.7773438,3.0864258-5s0.7714844-2.3769531,0.7714844-2.3769531S26.125,32.1484375,25.6318359,33.2597656
	C25.1376953,34.3710938,22.9462891,37.0869141,22.3598633,37.3955078z M26.4033203,34.5253906
	c0.4941406-1.1728516,1.0488281-3.1171875,1.0800781-4.1357422s0.4326172,2.5615234-0.3701172,4.0429688
	s-3.5805664,3.8886719-4.1669922,4.2597656C22.9462891,38.6923828,25.8916016,35.7402344,26.4033203,34.5253906z
	 M23.65625,40.0498047c0,0,2.3408203-1.9160156,3.6728516-4.1044922c0.8642578-1.4199219,1.7285156-5.7412109,1.7285156-5.7412109
	s-0.2773438,4.3212891-1.265625,5.9882813C26.7900391,37.8837891,23.65625,40.0498047,23.65625,40.0498047z M29.953125,34.8955078
	C29.5664063,36.8242188,27.6064453,39.0625,27.6064453,39.0625s1.2753906-1.7568359,1.8212891-4.2597656
	c0.3710938-1.6972656,0.7099609-4.6914063,0.7099609-4.6914063S30.3535156,32.8896484,29.953125,34.8955078z M31.8359375,33.7539063
	c-0.3867188,1.9277344-0.9570313,3.3945313-0.9570313,3.3945313s0.3759766-0.9628906,0.5556641-3.5185547
	c0.1230469-1.7587891-0.1855469-3.734375-0.1855469-3.734375S32.2363281,31.7470703,31.8359375,33.7539063z M33.2548828,36.2226563
	c0,0,0.0683594-0.9941406,0.2470703-3.5488281c0.1240234-1.7597656-0.6474609-3.3339844-0.6474609-3.3339844
	s1.0185547,1.265625,1.0800781,3.3642578C33.9921875,34.6699219,33.2548828,36.2226563,33.2548828,36.2226563z"/>
<path fill="#2B2B2B" d="M24.0595703,19.9838867c-0.3266602,0.1118164-1.8500977,2.0874023-1.8500977,2.6054688
	c0,0.6279297,0.0053711,4.2729492,3.128418,5.3920898c2.4541016,0.8798828,4.0742188,1.0605469,6.8066406-0.4472656
	c2.2988281-1.3271484,2.7001953-1.1884766,2.2294922-5.2587891c-0.0605469-0.5234375,0.0244141-0.9589844,0.0166016-1.2792969
	c0.2558594-0.5336914,0.6113281-2.3500977,0.7470703-2.9223633c0.1572266-0.659668-0.1289063-1.4770508-1.0488281-1.8828125
	c-1.0449219-0.4599609-2.1298828,0.1235352-2.1298828,0.1235352s-0.0527344-0.8300781-0.6171875-1.0185547
	c-0.5664063-0.1879883-0.9228516,0.5751953-0.9228516,0.5751953s-0.0546875-1.1005859-0.6826172-1.0380859
	c-0.6279297,0.0634766-0.4013672,1.2036133-0.4013672,1.2036133s-0.6621094-1.0874023-1.5429688-0.6787109
	c-0.8789063,0.4067383-0.3701172,1.5742188-0.3701172,1.5742188s-0.6171875-0.5249023-0.9570313-0.0620117
	c-0.3027344,0.4130859,0.2158203,1.1577148,0.2158203,1.1577148s-0.7509766-0.3359375-1.1582031-0.0224609
	c-0.4091797,0.3139648,0.109375,1.2104492,0.109375,1.2104492s-0.6171875-0.262207-0.8334961,0.0620117
	c-0.1860352,0.2792969-0.1391602,0.5400391-0.0908203,0.6845703C24.347168,19.9594727,24.1147461,19.9648438,24.0595703,19.9838867z
	 M24.4672852,22.6240234C24.4384766,22.7133789,24.5,23.4467773,23.6098633,23.4648438
	c-0.7924805,0.0166016-0.8251953-0.8730469-0.8251953-0.8730469C23.5722656,23.199707,24.3789063,22.6484375,24.4672852,22.6240234z
	 M25.890625,23.6269531c0.7871094,0.6079102,1.5947266,0.0566406,1.6816406,0.0322266
	c-0.0273438,0.0898438,0.0341797,0.8232422-0.8564453,0.8413086C25.9238281,24.5161133,25.890625,23.6269531,25.890625,23.6269531z
	 M26.5380859,24.6943359c-0.0292969,0.0888672,0.0332031,0.8242188-0.8574219,0.8417969
	c-0.7924805,0.015625-0.8256836-0.8740234-0.8256836-0.8740234C25.6435547,25.2705078,26.4492188,24.7192383,26.5380859,24.6943359z
	 M30.0332031,21.5566406c0.7861328,0.6074219,1.59375,0.0561523,1.6806641,0.0322266
	c-0.0283203,0.0893555,0.0332031,0.8227539-0.8574219,0.8408203C30.0644531,22.4458008,30.0332031,21.5566406,30.0332031,21.5566406
	z M30.6787109,22.6240234c-0.0273438,0.0893555,0.0332031,0.8227539-0.8574219,0.8408203
	c-0.7929688,0.0166016-0.8242188-0.8730469-0.8242188-0.8730469C29.7851563,23.199707,30.5908203,22.6484375,30.6787109,22.6240234z
	 M29.8212891,21.3945313c-0.7929688,0.015625-0.8242188-0.8735352-0.8242188-0.8735352
	c0.7880859,0.6079102,1.59375,0.0566406,1.6816406,0.0322266C30.6513672,20.6425781,30.7119141,21.3759766,29.8212891,21.3945313z
	 M29.6435547,21.5888672c-0.0283203,0.0893555,0.0322266,0.8227539-0.8583984,0.8408203
	c-0.7910156,0.0161133-0.8232422-0.8730469-0.8232422-0.8730469C28.7490234,22.1640625,29.5566406,21.612793,29.6435547,21.5888672z
	 M28.6083984,22.6240234c-0.0283203,0.0893555,0.0322266,0.8227539-0.8574219,0.8408203
	c-0.7929688,0.0166016-0.8251953-0.8730469-0.8251953-0.8730469C27.7138672,23.199707,28.5205078,22.6484375,28.6083984,22.6240234z
	 M28.6083984,24.6943359c-0.0283203,0.0888672,0.0322266,0.8242188-0.8574219,0.8417969
	c-0.7929688,0.015625-0.8251953-0.8740234-0.8251953-0.8740234C27.7138672,25.2705078,28.5205078,24.7192383,28.6083984,24.6943359z
	 M27.9619141,23.6269531c0.7871094,0.6079102,1.5947266,0.0566406,1.6816406,0.0322266
	c-0.0283203,0.0898438,0.0322266,0.8232422-0.8583984,0.8413086C27.9941406,24.5161133,27.9619141,23.6269531,27.9619141,23.6269531
	z M30.6787109,24.6943359c-0.0273438,0.0888672,0.0332031,0.8242188-0.8574219,0.8417969
	c-0.7929688,0.015625-0.8242188-0.8740234-0.8242188-0.8740234C29.7851563,25.2705078,30.5908203,24.7192383,30.6787109,24.6943359z
	 M30.0332031,23.6269531c0.7861328,0.6079102,1.59375,0.0566406,1.6806641,0.0322266
	c-0.0283203,0.0898438,0.0332031,0.8232422-0.8574219,0.8413086C30.0644531,24.5161133,30.0332031,23.6269531,30.0332031,23.6269531
	z M31.0673828,22.5917969c0.7871094,0.6079102,1.5947266,0.0566406,1.6826172,0.0322266
	c-0.0283203,0.0893555,0.0322266,0.8227539-0.8574219,0.8408203C31.0996094,23.4814453,31.0673828,22.5917969,31.0673828,22.5917969
	z M31.8925781,21.3945313c-0.7929688,0.015625-0.8251953-0.8735352-0.8251953-0.8735352
	c0.7871094,0.6079102,1.5947266,0.0566406,1.6826172,0.0322266C32.7216797,20.6425781,32.7822266,21.3759766,31.8925781,21.3945313z
	 M31.8925781,19.3242188c-0.7929688,0.0161133-0.8251953-0.8735352-0.8251953-0.8735352
	c0.7871094,0.6074219,1.5947266,0.0561523,1.6826172,0.0322266C32.7216797,18.5722656,32.7822266,19.3056641,31.8925781,19.3242188z
	 M31.7138672,19.5185547c-0.0283203,0.0888672,0.0332031,0.8222656-0.8574219,0.8408203
	c-0.7919922,0.0166016-0.8232422-0.8735352-0.8232422-0.8735352C30.8193359,20.0932617,31.6269531,19.5419922,31.7138672,19.5185547
	z M29.8212891,19.3242188c-0.7929688,0.0161133-0.8242188-0.8735352-0.8242188-0.8735352
	c0.7880859,0.6074219,1.59375,0.0561523,1.6816406,0.0322266C30.6513672,18.5722656,30.7119141,19.3056641,29.8212891,19.3242188z
	 M29.6435547,19.5185547c-0.0283203,0.0888672,0.0322266,0.8222656-0.8583984,0.8408203
	c-0.7910156,0.0166016-0.8232422-0.8735352-0.8232422-0.8735352C28.7490234,20.0932617,29.5566406,19.5419922,29.6435547,19.5185547
	z M28.6083984,20.5532227c-0.0283203,0.0893555,0.0322266,0.8227539-0.8574219,0.8413086
	c-0.7929688,0.015625-0.8251953-0.8735352-0.8251953-0.8735352C27.7138672,21.1289063,28.5205078,20.5776367,28.6083984,20.5532227z
	 M27.5722656,21.5888672c-0.0273438,0.0893555,0.0341797,0.8227539-0.8564453,0.8408203
	c-0.7919922,0.0161133-0.8251953-0.8730469-0.8251953-0.8730469C26.6777344,22.1640625,27.4853516,21.612793,27.5722656,21.5888672z
	 M26.5380859,22.6240234c-0.0292969,0.0893555,0.0332031,0.8227539-0.8574219,0.8408203
	c-0.7924805,0.0166016-0.8256836-0.8730469-0.8256836-0.8730469C25.6435547,23.199707,26.4492188,22.6484375,26.5380859,22.6240234z
	 M25.5029297,23.6591797c-0.0283203,0.0898438,0.0332031,0.8232422-0.8579102,0.8413086
	c-0.7919922,0.015625-0.824707-0.8735352-0.824707-0.8735352C24.6074219,24.2348633,25.4140625,23.6835938,25.5029297,23.6591797z
	 M22.784668,24.6621094c0.7875977,0.6083984,1.5942383,0.0571289,1.6826172,0.0322266
	C24.4384766,24.7832031,24.5,25.5185547,23.6098633,25.5361328C22.8173828,25.5517578,22.784668,24.6621094,22.784668,24.6621094z
	 M23.8203125,25.6972656c0.7871094,0.6083984,1.59375,0.0576172,1.6826172,0.0322266
	c-0.0283203,0.0898438,0.0332031,0.8242188-0.8579102,0.8417969C23.8530273,26.5869141,23.8203125,25.6972656,23.8203125,25.6972656
	z M25.6806641,27.6064453c-0.7924805,0.015625-0.8256836-0.8730469-0.8256836-0.8730469
	c0.7885742,0.6074219,1.5942383,0.0556641,1.6831055,0.0322266C26.5087891,26.8544922,26.5712891,27.5878906,25.6806641,27.6064453z
	 M25.890625,25.6972656c0.7871094,0.6083984,1.5947266,0.0576172,1.6816406,0.0322266
	c-0.0273438,0.0898438,0.0341797,0.8242188-0.8564453,0.8417969C25.9238281,26.5869141,25.890625,25.6972656,25.890625,25.6972656z
	 M27.7509766,27.6064453c-0.7929688,0.015625-0.8251953-0.8730469-0.8251953-0.8730469
	c0.7880859,0.6074219,1.5947266,0.0556641,1.6826172,0.0322266C28.5800781,26.8544922,28.640625,27.5878906,27.7509766,27.6064453z
	 M27.9619141,25.6972656c0.7871094,0.6083984,1.5947266,0.0576172,1.6816406,0.0322266
	c-0.0283203,0.0898438,0.0322266,0.8242188-0.8583984,0.8417969C27.9941406,26.5869141,27.9619141,25.6972656,27.9619141,25.6972656
	z M29.8212891,27.6064453c-0.7929688,0.015625-0.8242188-0.8730469-0.8242188-0.8730469
	c0.7880859,0.6074219,1.59375,0.0556641,1.6816406,0.0322266C30.6513672,26.8544922,30.7119141,27.5878906,29.8212891,27.6064453z
	 M30.8564453,26.5712891c-0.7919922,0.015625-0.8232422-0.8740234-0.8232422-0.8740234
	c0.7861328,0.6083984,1.59375,0.0576172,1.6806641,0.0322266C31.6855469,25.8193359,31.7470703,26.5537109,30.8564453,26.5712891z
	 M31.0673828,24.6621094c0.7871094,0.6083984,1.5947266,0.0571289,1.6826172,0.0322266
	c-0.0283203,0.0888672,0.0322266,0.8242188-0.8574219,0.8417969C31.0996094,25.5517578,31.0673828,24.6621094,31.0673828,24.6621094
	z M32.9277344,26.5712891c-0.7929688,0.015625-0.8261719-0.8740234-0.8261719-0.8740234
	c0.7880859,0.6083984,1.5947266,0.0576172,1.6835938,0.0322266C33.7558594,25.8193359,33.8173828,26.5537109,32.9277344,26.5712891z
	 M32.9277344,24.5004883c-0.7929688,0.015625-0.8261719-0.8735352-0.8261719-0.8735352
	c0.7880859,0.6079102,1.5947266,0.0566406,1.6835938,0.0322266C33.7558594,23.7490234,33.8173828,24.4824219,32.9277344,24.5004883z
	 M32.9277344,22.4296875c-0.7929688,0.0161133-0.8261719-0.8730469-0.8261719-0.8730469
	c0.7880859,0.6074219,1.5947266,0.0561523,1.6835938,0.0322266C33.7558594,21.6782227,33.8173828,22.4116211,32.9277344,22.4296875z
	 M32.9277344,20.359375c-0.7929688,0.0166016-0.8261719-0.8735352-0.8261719-0.8735352
	c0.7880859,0.6074219,1.5947266,0.0561523,1.6835938,0.0327148C33.7558594,19.6074219,33.8173828,20.3408203,32.9277344,20.359375z
	 M34.8203125,18.4829102c-0.0283203,0.0893555,0.0332031,0.8227539-0.8574219,0.8413086
	c-0.7919922,0.0161133-0.8251953-0.8735352-0.8251953-0.8735352C33.9257813,19.0581055,34.7324219,18.5068359,34.8203125,18.4829102
	z M33.7851563,17.4472656c-0.0292969,0.0898438,0.0322266,0.8232422-0.8574219,0.8413086
	c-0.7929688,0.0166016-0.8261719-0.8735352-0.8261719-0.8735352C32.8896484,18.0229492,33.6962891,17.4716797,33.7851563,17.4472656
	z M32.75,16.4121094c-0.0283203,0.0898438,0.0322266,0.8232422-0.8574219,0.8413086
	c-0.7929688,0.0161133-0.8251953-0.8735352-0.8251953-0.8735352C31.8544922,16.9873047,32.6621094,16.4365234,32.75,16.4121094z
	 M31.7138672,17.4472656c-0.0283203,0.0898438,0.0332031,0.8232422-0.8574219,0.8413086
	c-0.7919922,0.0166016-0.8232422-0.8735352-0.8232422-0.8735352C30.8193359,18.0229492,31.6269531,17.4716797,31.7138672,17.4472656
	z M30.6787109,16.4121094c-0.0273438,0.0898438,0.0332031,0.8232422-0.8574219,0.8413086
	c-0.7929688,0.0161133-0.8242188-0.8735352-0.8242188-0.8735352C29.7851563,16.9873047,30.5908203,16.4365234,30.6787109,16.4121094
	z M29.6435547,17.4472656c-0.0283203,0.0898438,0.0322266,0.8232422-0.8583984,0.8413086
	c-0.7910156,0.0166016-0.8232422-0.8735352-0.8232422-0.8735352C28.7490234,18.0229492,29.5566406,17.4716797,29.6435547,17.4472656
	z M28.6083984,18.4829102c-0.0283203,0.0893555,0.0322266,0.8227539-0.8574219,0.8413086
	c-0.7929688,0.0161133-0.8251953-0.8735352-0.8251953-0.8735352C27.7138672,19.0581055,28.5205078,18.5068359,28.6083984,18.4829102
	z M27.5722656,19.5185547c-0.0273438,0.0888672,0.0341797,0.8222656-0.8564453,0.8408203
	c-0.7919922,0.0166016-0.8251953-0.8735352-0.8251953-0.8735352C26.6777344,20.0932617,27.4853516,19.5419922,27.5722656,19.5185547
	z M26.5380859,20.5532227c-0.0292969,0.0893555,0.0332031,0.8227539-0.8574219,0.8413086
	c-0.7924805,0.015625-0.8256836-0.8735352-0.8256836-0.8735352C25.6435547,21.1289063,26.4492188,20.5776367,26.5380859,20.5532227z
	 M25.5029297,21.5888672c-0.0283203,0.0893555,0.0332031,0.8227539-0.8579102,0.8408203
	c-0.7919922,0.0161133-0.824707-0.8730469-0.824707-0.8730469C24.6074219,22.1640625,25.4140625,21.612793,25.5029297,21.5888672z"
	/>
<path fill="#2B2B2B" d="M33.8759766,9.6000977c-0.0019531,0.0043945-0.0058594,0.0078125-0.0087891,0.0126953
	c0.0087891-0.0004883,0.0126953-0.0048828,0.0205078-0.0048828C33.8837891,9.6049805,33.8798828,9.6025391,33.8759766,9.6000977z"/>
<path fill="#2B2B2B" d="M39.8730469,14.8955078c-0.3681641-1.0766602-1.21875-2.375-2.1240234-2.9711914
	C37.1572266,11.534668,35.5,10.40625,35.5,10.40625s1.0732422-0.5043945,3.1191406,0.9985352
	C39.6982422,12.1982422,41.125,15.6875,41.84375,15.71875c0.6601563,0.0288086-1.3056641-4.3618164-1.78125-5.1875
	c-0.7509766-1.3007813-2.1044922-1.5107422-2.4589844-1.8647461c-0.3544922-0.3549805-0.8964844-1.4814453-1.5341797-1.9980469
	c-0.6513672-0.5288086-3.2148438-1.2236328-4.5283203,0.6547852C30.2265625,9.2016602,31.8125,11.21875,33.53125,11.875
	c0.4375,0.125,1.3818359,0.9423828,2.09375,1.5c0.71875,0.5625,1.3359375,1.1118164,1.625,1.78125
	c0.2900391,0.6704102,0.34375,1.03125,0.9160156,1.9208984c0.7099609,0.7089844,2.6445313,1.6933594,2.6445313,1.6933594
	C40.7324219,17.2075195,40.2998047,16.1381836,39.8730469,14.8955078z M35.7255859,7.7885742
	c-0.2412109,0.2407227-0.5341797,0.3613281-0.9824219,0.3613281c-0.2919922,0-0.7578125-0.2070313-0.8603516-0.4130859
	C33.9667969,7.9038086,35.3457031,8.0292969,35.7255859,7.7885742z M34.0253906,8.1557617
	c0-0.078125,0.3466797,0.0791016,0.3291016,0.1083984c-0.1611328,0.2646484,0.3027344,0.9018555,0.8544922,0.2817383
	l-0.2587891-0.206543c0,0,0.6376953-0.1352539,0.6376953-0.1142578c0,0.3476563-0.1386719,0.8720703-0.7802734,0.8720703
	C34.0205078,9.097168,34.0253906,8.503418,34.0253906,8.1557617z"/>
</svg>