<?xml version="1.0" encoding="utf-8"?>
<!DOCTYPE svg PUBLIC "-//W3C//DTD SVG 1.1//EN" "http://www.w3.org/Graphics/SVG/1.1/DTD/svg11.dtd">
<svg version="1.1" id="iKislomolochnyie-produktyi" xmlns="http://www.w3.org/2000/svg" xmlns:xlink="http://www.w3.org/1999/xlink" x="0px" y="0px" width="100%" height="100%" viewBox="0 0 48 48" preserveAspectRatio="xMidYMid meet">
<path fill="#2B2B2B" d="M19.9375,5.9794922c0,0,0.1821289-0.0429688,0.0283203-0.3251953
	c-0.1542969-0.2827148-0.2314453-0.8222656,0.0512695-1.0024414c0.4111328,0.3598633,0.5649414,1.0024414,3.7768555,0.9506836
	c3.2109375-0.0512695,4.2646484-0.4882813,4.2900391-0.8217773C28.3154297,5.1401367,28.2753906,5.1020508,28.25,5.3334961
	c-0.0263672,0.230957-0.3457031,0.269043-0.2685547,0.4233398s0.0771484,0.1542969,0.0771484,0.1542969
	s-1.59375,0.8476563-3.8535156,0.8476563C21.9438477,6.7587891,20.8110352,6.4418945,19.9375,5.9794922z"/>
<path fill="#2B2B2B" d="M23.8706055,5.1918945c0.8999023-0.0087891,4.0336914-0.1289063,4.0336914-0.5654297
	c0-0.4370117-2.1835938-0.6679688-3.6992188-0.6679688c-1.5161133,0-3.7768555,0.0512695-3.7768555,0.4882813
	C20.4282227,4.8833008,21.2241211,5.2177734,23.8706055,5.1918945z"/>
<path fill="#2B2B2B" d="M21.78125,15.5c0,0-1.753418,5.5869141-1.71875,8.875c0.0336914,3.2890625,0.03125,10.125,0.03125,10.125
	s0.5332031-8.5654297,0.5625-10.1875C20.6875,22.59375,21.78125,15.5,21.78125,15.5z"/>
<g>
	<path fill="#2B2B2B" d="M23.4853516,36.1132813c0.440918,0.1035156,0.7915039,0.3339844,1.3730469,0.5371094
		c-0.5107422-0.6171875-1.034668-1.3027344-1.6982422-2.0742188c-0.1025391-0.0722656-0.1855469-0.1914063-0.1855469-0.3144531
		c0-0.0683594,0.0317383-0.1445313,0.1083984-0.1972656c0.2939453,0.2753906,0.715332,0.5253906,0.9384766,0.7988281
		c0.1469727,0.171875,0.3388672,0.3769531,0.5488281,0.5996094c0.0712891-0.2167969,0.1474609-0.1660156,0.3701172-0.3183594
		c0.3769531-0.2617188,0.6210938-0.5371094,0.6894531-0.9511719c-0.03125-0.3574219-0.0878906-0.7792969-0.5166016-0.8808594
		c-0.0566406-0.0332031-0.0830078-0.0644531-0.0830078-0.0957031c-0.0058594-0.0449219,0.0380859-0.0976563,0.1210938-0.1035156
		h0.0136719c0.3964844,0.1347656,0.7265625,0.5039063,0.7460938,0.9140625l0.0078125,0.0507813
		c0,0.2480469,0.0058594,0.5488281-0.1152344,0.8613281c-0.2226563,0.4609375-0.3457031,0.7539063-0.7470703,1.0546875
		c0.2998047,0.3378906,0.9130859,0.8554688,1.1357422,1.1796875c0.0703125,0.3261719,0.1210938,0.5742188-0.2558594,0.5429688
		c-0.2226563-0.0195313-0.4394531,0.0195313-0.7011719,0c-1.0151367-0.0820313-1.8198242-0.1660156-2.2670898-0.6445313
		l-0.0517578-0.0761719c-0.050293-0.0898438-0.0756836-0.1777344-0.0756836-0.2695313
		c0-0.1210938,0.0444336-0.2285156,0.1274414-0.3242188v-0.0253906c0-0.0957031,0.0893555-0.1464844,0.1083984-0.2441406
		L23.4853516,36.1132813z"/>
	<path fill="#2B2B2B" d="M25.1396484,32.7207031c0.1210938-0.0253906,0.171875-0.1152344,0.2421875-0.2109375
		c0.2246094-0.5488281,0.0761719-0.9003906-0.0253906-1.296875c-0.0195313-0.1972656-0.3457031-0.7148438-0.3457031-0.90625
		c-0.0185547-0.0703125,0.0458984-0.0371094,0.0898438-0.0449219c0.4863281,0.453125,0.8300781,1.6484375,0.7792969,2.3125
		c-0.03125,0.7207031-0.5625,1.0585938-1.15625,1.078125c-0.5810547,0.0195313-1.2382813-0.2929688-1.5063477-0.8496094
		c-0.2875977-0.5234375-0.2875977-1.2304688,0.0512695-1.5195313c0.6831055-0.4023438,1.9091797,0.3515625,1.8828125,1.3105469
		L25.1396484,32.7207031z M24.8583984,32.8164063c-0.0703125-0.171875-0.5688477-0.7148438-0.9194336-0.765625
		c-0.1982422-0.0195313-0.2875977,0.1464844-0.1855469,0.3457031
		C23.9516602,32.7089844,24.4619141,32.8984375,24.8583984,32.8164063z"/>
	<path fill="#2B2B2B" d="M23.8554688,28.1894531h0.2109375c-0.4213867-0.3066406-1.1240234-0.4023438-1.5649414-0.8105469
		c-0.1401367-0.140625-0.3183594-0.3261719-0.1845703-0.5429688c0.5620117-0.1855469,1.2895508,0.2363281,1.8193359,0.4902344
		c-0.3637695-0.4472656-0.9956055-0.9570313-0.7207031-1.5878906c0.465332-0.8061523,1.7104492-0.1992188,2.050293,0.3945313
		c0.375,0.4472656,0.2285156,1.1171875,0.0253906,1.53125c-0.1796875-0.1132813-0.0332031-0.8027344-0.3515625-1.1542969
		c-0.1542969-0.1542969-0.7988281-0.4726563-1.003418-0.2558594c0.1533203,0.390625,0.3452148,1.0976563,1.1694336,1.5644531
		c0.7519531,0.453125,2.203125,0.8632813,2.3554688,1.1679688c-0.0507813,0.421875-1.7363281-0.2285156-2.5478516-0.5351563
		c0.2880859,0.6113281,0.8876953,1.2519531,0.5634766,2.1210938c-0.4492188,0.2734375-1.0546875,0.0058594-1.4257813-0.3007813
		c-0.465332-0.2421875-0.8291016-0.8046875-0.8291016-1.3164063c0-0.2617188,0.0952148-0.515625,0.3188477-0.7148438
		L23.8554688,28.1894531z M24.4619141,28.5410156c0.0957031,0.3242188,0.0761719,0.515625-0.0444336,0.7714844
		c0.1030273,0.2050781,0.5620117,0.5996094,0.7475586,0.3964844c0.0507813-0.3769531-0.2753906-1.0664063-0.703125-1.3535156
		h-0.0253906L24.4619141,28.5410156z"/>
	<path fill="#2B2B2B" d="M24.2509766,21.8579102c0.2109375,0.0771484,0.4472656,0.140625,0.6777344,0.140625
		c0.2226563,0,0.4785156-0.1279297,0.5546875-0.3632813c0.0195313-0.3193359-0.3886719-0.7539063-0.5234375-0.9072266
		c-0.1015625-0.2871094,0.2177734-0.03125,0.28125,0.0830078c0.1855469,0.2167969,0.5429688,0.7597656,0.5234375,1.0537109
		c0.0195313,0.3505859-0.2988281,0.7470703-0.6445313,0.765625c0.6386719,0.4345703,0.9570313,0.9521484,0.7792969,1.7246094
		c-0.3574219,0.8754883-2.0947266,0.8500977-2.8164063,0.4404297c-0.3193359-0.1347656-0.5874023-0.5615234-0.3701172-0.8945313
		c0.0825195-0.1337891,0.2231445-0.1845703,0.3764648-0.1845703c0.1469727,0,0.300293,0.0507813,0.4277344,0.1083984
		c0.2363281,0.0830078,1.0209961,0.4667969,1.3413086,0.3125c0.1982422-0.0253906,0.3261719-0.1972656,0.3193359-0.3828125
		c-0.0195313-0.2998047-0.1152344-0.4785156-0.3007813-0.6757813c-0.2744141-0.2880859-0.8813477-0.4726563-1.2382813-0.5751953
		c-0.1855469-0.1025391-0.4086914-0.2685547-0.3769531-0.5302734
		C23.4853516,21.6791992,23.9707031,21.7368164,24.2509766,21.8579102z"/>
	<path fill="#2B2B2B" d="M24.7939453,17.5893555c0.2363281,0,0.4853516-0.2304688,0.453125-0.5244141
		c0-0.4404297-0.2363281-0.7216797-0.3886719-1.1171875c-0.1025391-0.2353516,0.0058594-0.2998047,0.1523438-0.0888672
		c0.3837891,0.4150391,0.6191406,0.8613281,0.6191406,1.4306641v0.0566406
		c-0.1464844,0.6708984-0.4589844,0.9384766-0.9511719,0.9833984l-0.1777344,0.0253906
		c-0.2875977,0.0449219-0.3891602,0.1083984-0.3891602,0.2617188c0,0.2236328,0.7075195,0.8046875,1.0463867,1.0087891
		c0.4658203,0.2744141,0.8505859,0.4023438,1.4619141,0.6064453c0.8105469,0.2685547,1.4375,0.3134766,1.46875,0.7919922
		l-0.0253906,0.0703125c-0.0507813,0.2744141-0.6132813,0.2490234-1.0527344,0.1787109
		c-1.4628906-0.2041016-3.4042969-0.5361328-4.6621094-0.9443359c-0.3251953-0.0966797-0.5742188-0.3837891-0.5742188-0.7089844
		c0-0.2363281,0.1845703-0.4335938,0.5996094-0.4335938h0.019043c0.3520508,0,1.6801758,0.7714844,2.6948242,0.9501953
		c-1.1938477-0.5107422-1.9345703-1.1933594-1.9160156-1.6025391C23.171875,17.824707,24.0791016,17.659668,24.7939453,17.5893555z"
		/>
</g>
<path fill="#2B2B2B" d="M21.7084961,9.75c0,0,0.9091797,0.4711914,2.0727539,0.59375
	C25.265625,10.5,26.4589844,9.625,26.4589844,9.625S24.890625,11.359375,22.5,10.5
	C21.4399414,10.1191406,21.7084961,9.75,21.7084961,9.75z"/>
<path fill="none" d="M26.9023438,9.3535156c0,0-1.1855469-0.8881836-2.6938477-0.8535156
	C22.6875,8.534668,21.1474609,9.3535156,21.1474609,9.3535156S18.53125,23.0625,18.46875,24
	s-0.230957,16.3378906,0.2470703,17.0732422c0.4448242,0.6845703,2.699707-0.8544922,5.4404297-0.8544922
	c2.7402344,0,4.7675781,1.5390625,5.2460938,0.8203125c0.4804688-0.71875,0.2597656-15.3398438,0.1914063-17.2578125
	C29.5244141,21.862793,26.9023438,9.3535156,26.9023438,9.3535156z"/>
<path fill="#2B2B2B" d="M30.6015625,24.1259766c-0.0253906-2.2348633-3.0058594-16.2626953-3.0820313-16.6479492
	c-0.078125-0.3847656,0.3583984-0.2519531,0.5634766-0.4570313c0.2060547-0.2055664,0.1044922-0.4418945,0.0527344-1.0073242
	c-0.2832031,0.3085938-1.0019531,0.8222656-3.8540039,1.0537109C21.4301758,7.2983398,19.875,6.125,19.875,6.125
	c-0.128418,1.387207,0.2958984,0.9936523,0.4506836,1.1733398c0.1538086,0.1796875,0,0.3085938-0.0517578,0.6679688
	c-0.0512695,0.3598633-2.8520508,15.4663086-2.8774414,16.03125c-0.0258789,0.5654297,0.2314453,16.5708008,0.2314453,16.5708008
	S17.6875,41.125,17.8588867,41.5195313c0.4179688,0.9619141,2.2607422,2.3623047,6.0888672,2.4394531
	c3.8276367,0.0771484,5.4467773-1.2841797,6.0375977-1.9521484c0.5908203-0.6669922,0.5136719-1.4638672,0.5136719-1.4638672
	S30.6269531,26.3613281,30.6015625,24.1259766z M23.875,43.09375c-3.0664063,0-4.5-1.3125-4.5-1.3125S22.2163086,42.5,23.9375,42.5
	c1.625,0,4.78125-0.75,4.78125-0.75S27.1875,43.09375,23.875,43.09375z M29.1669922,40.4580078
	c-0.4785156,0.71875-2.4267578-0.875-5.1669922-0.875c-2.7407227,0-4.6381836,1.6435547-5.0830078,0.9589844
	c-0.4780273-0.7353516-0.0625-15.5629883,0-16.5004883s2.5830078-14.5,2.5830078-14.5S22.6875,8.534668,24.2084961,8.5
	c1.5083008-0.034668,2.5004883,1,2.5004883,1s2.4306641,12.2900391,2.5,14.2084961
	C29.2773438,25.6269531,29.6474609,39.7392578,29.1669922,40.4580078z"/>
</svg>