<?xml version="1.0" encoding="utf-8"?>
<!DOCTYPE svg PUBLIC "-//W3C//DTD SVG 1.1//EN" "http://www.w3.org/Graphics/SVG/1.1/DTD/svg11.dtd">
<svg version="1.1" id="iKopchenaya" xmlns="http://www.w3.org/2000/svg" xmlns:xlink="http://www.w3.org/1999/xlink" x="0px" y="0px" width="100%" height="100%" viewBox="0 0 48 48" preserveAspectRatio="xMidYMid meet">
<path fill="#2B2B2B" d="M2.4321289,15.6992188c0.0273438-0.1416016,0.065918-0.2382813,0.1240234-0.2705078
	c0.0385742-0.0214844,0.1420898-0.0605469,0.2612305,0.0429688c0.0581055,0.0517578,0.1591797,0.1826172,0.2836914,0.3554688
	l0.2285156-0.1591797c0.6420898-0.4482422,1.715332-1.1992188,2.987793-1.7685547
	c1.3979492-0.625,2.6259766-1.1318359,3.3500977-1.0820313c-0.125-0.1445313-0.2617188-0.296875-0.4189453-0.4414063
	c-0.4907227-0.4521484-2.8691406-2.1142578-3.3598633-2.2646484c-0.4907227-0.1513672-1.8496094,0.453125-3.284668,1.7744141
	c-1.3989258,1.2890625-0.8994141,2.4287109-1.0483398,2.9394531C1.8388672,15.1845703,2.1484375,15.5048828,2.4321289,15.6992188z"
	/>
<path fill="#2B2B2B" d="M23.0883789,23.4658203c0.0751953-0.0058594,0.1523438-0.0087891,0.2299805-0.0087891
	c0.1508789,0,0.3022461,0.0117188,0.4467773,0.0273438c-0.0605469-0.0634766-0.1269531-0.1269531-0.1826172-0.1855469
	C23.4233398,23.3388672,23.2602539,23.3916016,23.0883789,23.4658203z"/>
<path fill="#2B2B2B" d="M2.3964844,16.0302734c-0.3647461-0.2080078-0.722168-0.5810547-1.0024414-0.9257813
	c-0.215332,0.2324219-0.5317383,0.2597656-0.828125,0.5566406c-0.3779297,0.3769531-0.6650391,2.3134766-0.5288086,3.1708984
	c0.3774414,2.3779297,1.7744141,2.5292969,2.0766602,2.5292969c0.2265625,0,0.5175781-0.234375,0.7924805-0.2871094
	C2.6113281,19.140625,2.3461914,17.0400391,2.3964844,16.0302734z"/>
<path fill="#2B2B2B" d="M3.9682617,17.6660156c-0.4008789-0.6113281-0.7436523-1.1328125-0.9916992-1.4921875
	c-0.0249023,0.0019531-0.0444336,0.0205078-0.0698242,0.0205078c-0.0483398,0-0.0981445-0.0048828-0.1489258-0.015625
	c-0.0273438-0.0048828-0.0551758-0.0214844-0.0820313-0.0292969c0.0029297,0.921875,0.2436523,2.9863281,0.5478516,4.9892578
	c0.3691406,0.2607422,1.2299805,1.7617188,2.8916016,3.2421875c1.2045898,1.0742188,3.5693359,2.2363281,5.1206055,2.9755859
	C8.6328125,24.7783203,5.6772461,20.2734375,3.9682617,17.6660156z"/>
<path fill="#2B2B2B" d="M18.4824219,29.0712891l0.0585938-0.2021484c0.4238281-1.4521484,2.2729492-3.6464844,3.3115234-4.6816406
	c-1.1118164,0.7910156-2.2695313,1.9541016-3.0849609,3.0039063c-0.9858398,1.2724609-2.1655273,2.1884766-2.8217773,2.6464844
	c0.0576172,0.0195313,0.105957,0.0371094,0.1357422,0.0546875c0.2646484,0.1513672,0.4912109,0.7558594,1.2080078,1.1337891
	c0.4589844,0.2412109,0.7631836,0.1435547,1.0419922,0.109375C18.0493164,30.5830078,18.2299805,29.9287109,18.4824219,29.0712891z"
	/>
<path fill="#2B2B2B" d="M35.9765625,34.1962891c-1.2841797-0.3017578-3.2089844-1.5849609-3.2841797-1.8115234
	c-0.0761719-0.2265625,0.6796875-0.1132813,0.5283203-0.3027344c-0.1513672-0.1884766-1.3203125-0.3398438-1.3203125-0.3398438
	s-0.2265625-0.3398438-0.3027344-0.5664063c-0.0751953-0.2255859,0.4521484-0.1875,0.1894531-0.4140625
	c-0.2646484-0.2265625-1.3974609-0.453125-1.3974609-0.453125s-0.3027344-0.3212891-0.3779297-0.6611328
	s0.1699219-0.5859375,0.1699219-0.5859375s-1-0.2265625-1.1884766-0.3398438
	c-0.1298828-0.0771484-0.5292969-0.6025391-0.5292969-0.8291016c0-0.1484375,0.4023438-0.3173828,0.2265625-0.4160156
	c-0.3017578-0.1699219-1.2080078-0.5664063-2-1.546875c-0.7929688-0.9824219-1.3974609-1.2470703-1.8129883-1.4736328
	c-0.1860352-0.1005859-0.4658203-0.3457031-0.7460938-0.6113281c-0.4921875-0.0898438-1.1914063-0.1533203-1.5107422,0.0585938
	c-0.581543,0.3876953-3.2749023,3.2871094-3.7885742,5.0507813L18.7719727,29.15625
	c-0.2802734,0.9501953-0.4443359,1.5390625-0.0668945,2.0185547c0.0317383,0.0126953,0.0620117,0.0195313,0.0947266,0.0390625
	c0.4526367,0.2646484,0.6791992,0.6416016,3.699707,1.8125c3.0200195,1.1699219,13.7036133,3.0947266,14.1196289,3.2460938
	c0.4140625,0.1513672,2.9433594-0.9433594,2.9814453-1.09375C39.6386719,35.0273438,37.2597656,34.4980469,35.9765625,34.1962891z"
	/>
<path fill="#2B2B2B" d="M18.5297852,27.0068359c0.9916992-1.28125,3.1206055-3.4326172,4.8188477-3.9589844
	c-0.0283203-0.03125-0.0708008-0.0751953-0.0942383-0.1005859c-0.3398438-0.3779297-1.9628906-2.8320313-3.0200195-3.7373047
	c-1.0566406-0.9072266-5.3984375-3.8515625-7.2104492-4.6816406c-1.8125-0.8310547-2.9072266-1.1328125-2.9072266-1.1328125
	s-0.0654297-0.0927734-0.15625-0.2148438l-0.0219727,0.0234375c-0.4296875-0.3984375-2.4267578,0.4921875-3.4970703,0.9716797
	c-1.246582,0.5576172-2.3061523,1.296875-2.9379883,1.7392578l-0.2275391,0.1591797
	c0.2260742,0.3300781,0.5322266,0.796875,0.9443359,1.4267578c1.8574219,2.8339844,5.1962891,7.9257813,7.9155273,10.2832031
	c0.2329102,0.1123047,0.4150391,0.2021484,0.5107422,0.2587891c0.6411133,0.3779297,0.6411133,0.8681641,1.2080078,1.1699219
	c0.3925781,0.2099609,1.1791992,0.3828125,1.7158203,0.5195313C16.1347656,29.3544922,17.4536133,28.3945313,18.5297852,27.0068359z
	"/>
<path fill="#2B2B2B" d="M43.5654297,36.0078125c0.1503906-0.4140625,4.3408203-2,4.3408203-2
	s-1.2089844-0.8681641-4.6806641-0.6787109c-3.4736328,0.1884766-4.9082031,0.3007813-6.6445313,0.6787109
	c0,0,3.2460938,0.7548828,3.2841797,1.0576172c0.0371094,0.3017578-0.8847656,0.9550781-2.71875,1.3095703
	c0.4912109,0.3779297,2.0771484,1.0703125,4.9160156,1.5205078c2.8964844,0.4589844,5.0507813-0.3388672,5.3525391-0.4902344
	C47.7177734,37.2548828,43.4140625,36.4238281,43.5654297,36.0078125z M44.4951172,34.9042969
	c-1.3808594-0.1884766-2.8203125-0.0644531-4.1982422,0.1152344c-0.0751953,0.0097656-0.3408203-0.1162109-0.1845703-0.1357422
	c1.4208984-0.1855469,2.9101563-0.3076172,4.3339844-0.1113281C44.5742188,34.7900391,44.7001953,34.9326172,44.4951172,34.9042969z
	 M42.9287109,35.7929688c-0.8896484-0.0957031-1.7958984-0.0878906-2.6728516-0.2636719
	c-0.1259766-0.0263672-0.25-0.1748047-0.046875-0.1337891c0.8769531,0.1757813,1.7822266,0.1689453,2.671875,0.2636719
	C43.0107422,35.6728516,43.1318359,35.8144531,42.9287109,35.7929688z M38.6474609,33.9853516
	c2.6660156-0.3369141,5.5507813-0.6259766,8.2050781-0.09375c0.1533203,0.03125-0.1210938,0.1337891-0.1953125,0.1191406
	c-2.5810547-0.5185547-5.3935547-0.2333984-7.9902344,0.0957031C38.4902344,34.1269531,38.4697266,34.0087891,38.6474609,33.9853516
	z M39.3212891,34.5556641c-0.1289063,0.0195313-0.2851563-0.0849609-0.0830078-0.1152344
	c2.1142578-0.3105469,4.3203125-0.4570313,6.4414063-0.1708984c0.2050781,0.0273438,0.0527344,0.1357422-0.0771484,0.1181641
	C43.53125,34.1083984,41.3837891,34.2529297,39.3212891,34.5556641z M39.6337891,35.7519531
	c1.1816406,0.4443359,2.4716797,0.71875,3.7353516,0.6796875c0.0917969-0.0019531,0.3232422,0.1289063,0.1279297,0.1347656
	c-1.3408203,0.0419922-2.7138672-0.2460938-3.9667969-0.7167969C39.3378906,35.7773438,39.5117188,35.7070313,39.6337891,35.7519531
	z M45.8681641,37.2451172c0.0751953-0.0097656,0.3427734,0.1123047,0.1884766,0.1318359
	c-2.3847656,0.3056641-5.0595703-0.1318359-7.2646484-1.0537109c-0.1894531-0.078125-0.0166016-0.1445313,0.1044922-0.09375
	C41.0117188,37.1123047,43.5830078,37.5380859,45.8681641,37.2451172z"/>
<path fill="#2B2B2B" d="M40.8183594,16.0273438c-2.7226563-1.6826172-8.5009766-3.2246094-13.3925781,3.4091797
	c-1.3779297,1.8681641-1.4345703,3.4541016-1.4912109,4.9443359c0.4306641,0.4511719,0.8271484,0.7265625,1.5664063,1.6425781
	c0.8408203,1.0400391,0.9804688,1.0498047,1.1894531,1.0751953c0.0654297,0.0087891,0.2734375,0.0654297,0.3027344,0.1894531
	c0.0283203,0.1181641-0.0146484,0.7666016,0.1503906,1.0380859c0.4345703,0.3027344,1.1699219,0.2460938,1.3779297,0.4902344
	c0.2080078,0.2451172-0.2265625,0.7558594,0.1132813,1.0957031s1.6816406,0.5810547,1.6660156,0.7089844
	c-0.0146484,0.1240234-0.1826172,0.7128906-0.1943359,0.7246094c0.0556641,0.1162109,1.3662109,0.1689453,1.5224609,0.3652344
	c0.0712891,0.0878906-0.0166016,0.6103516-0.1816406,0.6357422c-0.0371094,0.0039063,0.21875,0.3232422,1.2265625,0.7558594
	c3.6328125-0.6005859,8.2792969-2.3105469,10.1357422-6.3212891C47.734375,20.4560547,40.8183594,16.0273438,40.8183594,16.0273438z
	 M42.1669922,19.3769531l-4.546875,2.3085938c0,0-0.7109375-0.1572266-0.4375-0.6650391
	c0.2763672-0.5058594,2.4902344-4.0166016,2.4902344-4.0166016S42.2197266,17.4023438,42.1669922,19.3769531z
	 M38.9414063,16.6757813l-2.3320313,4.4902344c0,0-0.8017578,0.3847656-0.9013672-0.2705078
	c-0.0986328-0.6523438-0.5273438-5.0380859-0.5273438-5.0380859S37.6845703,14.7373047,38.9414063,16.6757813z
	 M37.0869141,22.9824219c-0.03125,0.5732422-0.6142578,1.0058594-1.296875,0.9667969
	c-0.6826172-0.0351563-1.2128906-0.5322266-1.1787109-1.1054688c0.03125-0.5693359,0.6103516-1.0039063,1.2958984-0.9648438
	C36.5908203,21.9160156,37.1201172,22.4101563,37.0869141,22.9824219z M34.2363281,16.1230469l1.0322266,5.0507813
	c0,0-0.7060547,0.8017578-0.9960938,0.2539063c-0.3095703-0.5800781-3.3427734-3.8056641-3.3427734-3.8056641
	S32.0898438,15.265625,34.2363281,16.1230469z M30.4189453,18.21875l3.5390625,3.8417969
	c0,0,0.0097656,0.9326172-0.6230469,0.6210938c-0.5898438-0.2919922-4.7197266-1.0966797-4.7197266-1.0966797
	S28.1728516,18.7509766,30.4189453,18.21875z M29.9365234,26.8574219c0,0-2.6777344-1.7089844-1.1806641-4.6875l4.9013672,0.9570313
	c0,0,0.5498047,0.8544922,0.0087891,1.1494141C33.125,24.5625,29.9365234,26.8574219,29.9365234,26.8574219z M30.4824219,27.4091797
	l3.796875-3.0986328c0,0,0.8935547-0.0722656,0.7324219,0.5244141c-0.1650391,0.5957031-1.2197266,4.3759766-1.2197266,4.3759766
	S31.1445313,30.0449219,30.4824219,27.4091797z M34.3632813,29.3017578l1.0615234-4.5058594
	c0,0,1.0263672-0.5986328,1.2558594-0.0078125c0.2197266,0.5849609,1.4951172,4.5732422,1.4951172,4.5732422
	S35.8681641,31.2910156,34.3632813,29.3017578z M38.5390625,29.0146484l-1.6435547-4.5380859
	c0,0,0.2548828-0.9365234,0.7988281-0.5615234c0.5390625,0.3779297,3.9980469,3.0839844,3.9980469,3.0839844
	S40.8066406,29.4501953,38.5390625,29.0146484z M42.0878906,26.3701172l-3.9970703-2.7519531
	c0,0-0.234375-0.5410156,0.3203125-0.5595703c0.5498047-0.0166016,4.7167969,0.3808594,4.7167969,0.3808594
	S43.8261719,25.4375,42.0878906,26.3701172z M43.1611328,22.8017578l-4.8427734-0.1533203
	c0,0-0.6757813-0.5097656-0.1894531-0.7617188c0.4863281-0.2509766,4.4277344-1.7167969,4.4277344-1.7167969
	S44.2910156,21.3652344,43.1611328,22.8017578z"/>
<path fill="#2B2B2B" d="M26.765625,19.875c-0.1572266-0.3955078-0.2998047-0.6171875-0.6113281-0.921875
	c-1.0751953-1.0566406-2.4770508-1.0878906-3.3789063-0.1738281c-0.9013672,0.9121094,0.8398438,3.2275391,1.234375,3.7275391
	c0.3325195,0.421875,0.8642578,0.6367188,1.7089844,0.3056641C25.8349609,21.9511719,26.1777344,20.8632813,26.765625,19.875z
	 M24.0244141,19.6210938c-0.0527344,0.0761719-0.1206055,0.1425781-0.2128906,0.1757813
	c-0.1870117,0.0664063-0.4438477-0.1904297-0.6137695,0.28125c-0.0214844,0.0615234,0.015625-0.5273438-0.0073242-0.5927734
	c-0.0947266-0.2617188,0.03125-0.5458984,0.2797852-0.6357422c0.0893555-0.0322266,0.2636719-0.0400391,0.3505859-0.0175781
	c0.0922852,0.0234375,0.3779297-0.1699219,0.3779297-0.1699219s-0.2319336,0.2734375-0.2080078,0.3398438
	c0.0454102,0.125,0.1362305,0.4140625,0.0922852,0.5263672c0.0483398,0.0605469,0.3486328,0.3701172,0.3798828,0.4248047
	C24.5058594,20.0283203,24.0244141,19.6210938,24.0244141,19.6210938z M25.9726563,19.4746094
	c0.2451172,0.4150391,0.453125,1.5097656,0.2646484,0.9433594c-0.1894531-0.5664063-0.9443359-1.1699219-0.9443359-1.1699219
	C25.3496094,19.2285156,25.7275391,19.0585938,25.9726563,19.4746094z"/>
</svg>