<?xml version="1.0" encoding="utf-8"?>
<!DOCTYPE svg PUBLIC "-//W3C//DTD SVG 1.1//EN" "http://www.w3.org/Graphics/SVG/1.1/DTD/svg11.dtd">
<svg version="1.1" id="iKozlyatina" xmlns="http://www.w3.org/2000/svg" xmlns:xlink="http://www.w3.org/1999/xlink" x="0px" y="0px" width="100%" height="100%" viewBox="0 0 48 48" preserveAspectRatio="xMidYMid meet">
<path fill="#2B2B2B" d="M45.2451172,39.9023438c-0.2548828-0.4658203-0.6611328-1.6972656-0.8857422-2.4179688
	c-0.2255859-0.7207031-0.6162109-2.6123047-0.7363281-3.0175781s-0.0605469-1.0800781-0.2705078-1.3964844
	c-0.2099609-0.3154297-0.6591797-0.4501953-1.0810547-0.765625c-0.4199219-0.3144531-0.8857422-1.0205078-0.8857422-1.0205078
	c-0.7949219-1.0361328-1.6210938-3.3330078-1.8769531-4.4150391c-0.2548828-1.0810547,0.0908203-1.9663086-0.0742188-3.6630859
	c-0.1650391-1.6962891-0.9003906-2.2368164-1.2167969-2.6420898c-0.3154297-0.4057617-2.5527344-2.1474609-3.8876953-2.8227539
	c-1.3369141-0.6757813-3.2441406-0.1503906-3.8886719-0.0898438c-0.6464844,0.0595703-2.4619141-0.1206055-3.3037109-0.1352539
	c-0.8408203-0.0151367-2.4916992,0.3300781-4.0532227,0.2851563c-1.5610352-0.0449219-5.5400391-1.0512695-6.4858398-1.3061523
	C15.652832,16.2397461,14.1665039,16.765625,13.5957031,16.75c-0.5703125-0.0146484-2.6875-0.7651367-2.6875-0.7651367
	s-0.0898438,0.1494141-0.2700195,0.5849609s-0.7358398,1.081543-0.9912109,1.3212891
	c-0.2553711,0.2402344-0.8554688,0.2255859-1.0810547,0.1206055c-0.2250977-0.1049805-0.4501953-0.5405273-0.5551758-0.8413086
	c-0.1054688-0.2998047,0.1201172-0.7504883,0.2250977-0.9755859s0.4501953-0.6157227,0.4501953-0.6157227
	s-0.465332,0.0454102-0.7207031,0c-0.2553711-0.0449219-0.7954102-0.0151367-0.7954102-0.0151367
	s0.1650391,0.4804688-0.1503906,0.9760742c-0.0102539,0.0161133-0.0327148,0.0283203-0.0458984,0.043457
	c-0.0019531,0.105957-0.0063477,0.2104492-0.0185547,0.0175781c-0.4125977,0.434082-1.9155273,0.4780273-2.1875,0.449707
	c-0.2856445-0.0297852-0.3754883-0.3603516-0.3754883-0.3603516s-0.1347656,0.1650391-0.2397461,0.1650391
	c-0.1054688,0-0.2705078-0.2255859-0.2705078-0.2255859s-0.0600586,0.1503906-0.4355469,0.9912109
	s-0.3452148,1.3208008-0.0898438,1.5761719s0.074707,0.4956055,0.0595703,1.0664063
	c-0.0146484,0.5703125-0.6152344,2.7626953-0.6904297,3.0927734c-0.074707,0.3305664,0.0449219,0.1347656,0.300293-0.0146484
	c0.2553711-0.1503906,0.6303711,0.0146484,0.855957,0.3452148c0.2250977,0.3300781-0.4506836,0.5849609-0.5410156,0.675293
	c-0.0898438,0.0898438-0.1948242,0.2104492-0.3447266,0.2255859C2.8457031,24.6025391,2.7104492,24.4375,2.7104492,24.4375
	s-0.0751953,0.0146484-0.0151367,0.2700195c0.0605469,0.2558594,0.4208984,0.7358398,0.8110352,0.7817383
	c0.390625,0.0439453,1.921875-1.3222656,1.921875-1.3222656s-0.0449219,0.1655273-0.465332,0.6162109
	c-0.4204102,0.4501953-1.2612305,0.7802734-1.2612305,0.7802734l0.6904297,0.1054688c0,0,0.0600586,0.0146484,0.2250977,0.1044922
	c0.1655273,0.0908203,0.1357422,0.2558594,0.0302734,0.5556641c-0.1049805,0.3007813-0.2851563,0.2402344-0.3300781,0.4804688
	c-0.0454102,0.2402344-0.015625,0.375-0.2402344,0.5253906c-0.0629883,0.0419922,0.1650391,0.1357422,0.0751953,0.2705078
	c-0.090332,0.1347656-0.1503906,0.1953125-0.0605469,0.1953125c0.090332,0,0.1352539,0.0595703,0.0751953,0.2695313
	s-0.1801758,0.2705078-0.300293,0.5107422c-0.1201172,0.2412109,0.2104492,0.0302734,0.5703125-0.2548828
	c0.3603516-0.2851563,0.78125-0.5400391,0.78125-0.5400391S5.112793,27.9960938,4.8125,28.3408203
	c-0.300293,0.3457031-0.3901367,0.4501953-0.5107422,0.6308594c-0.1196289,0.1796875,0.2553711,0.1796875,0.4511719,0.0146484
	c0.1948242-0.1640625,0.8251953-1.0664063,0.7954102-1.0048828c-0.0302734,0.0595703-0.1503906,0.2841797-0.3452148,0.5703125
	c-0.1958008,0.2851563-0.2402344,0.6455078-0.2104492,0.7050781c0.0302734,0.0595703,0.1953125,0,0.3305664-0.3007813
	c0.1352539-0.2988281,0.5400391-0.8857422,0.5400391-0.8857422s0.0605469,0.0302734,0,0.4658203
	c-0.0595703,0.4355469,0.1801758,0.6611328,0.2255859,0.5107422c0.0449219-0.1503906,0.0595703-0.4951172,0.1499023-0.8857422
	c0.090332-0.3896484,0.5854492-0.7509766,0.6459961-0.5253906c0.0600586,0.2246094-0.1049805,0.7802734-0.1049805,0.7802734
	s0.3149414-0.5253906,0.5551758-1.1708984S7.4399414,24.4375,7.5,24.0922852
	c0.0605469-0.3457031,0.465332-0.4506836,0.7055664-0.7504883c0.2407227-0.3007813,0.7207031-0.3457031,0.9311523-0.1801758
	c0.2099609,0.1645508,0.1201172,0.4047852,0.6455078,1.3359375c0.5253906,0.9301758,2.987793,3.3930664,3.4833984,3.7827148
	c0.4951172,0.3916016,1.0512695,1.3818359,1.5610352,1.8173828c0.5107422,0.4355469,2.7929688,0.9306641,3.1982422,1.0214844
	c0.4052734,0.0898438,0.4355469,0.3457031,0.4951172,0.7949219c0.0605469,0.4511719,0.3007813,2.2675781,0.2856445,2.7929688
	c-0.0146484,0.5253906-0.1801758,1.7568359-0.0751953,2.4472656s0.2705078,0.6162109,0.3603516,1.1416016
	c0.090332,0.5253906-0.375,3.1074219-0.4804688,3.3925781c-0.1049805,0.2851563-0.5102539,0.5703125-0.5102539,0.5703125
	s0.5703125,0.0908203,0.9760742,0.2705078c0.4047852,0.1806641,0.7954102,0.5859375,0.7954102,0.5859375
	s-0.0454102-0.2714844,0.2250977-0.2548828c0.2705078,0.0146484,0.4804688-0.1210938,0.6757813-0.2705078
	c0.1948242-0.1503906,0.0898438-0.4052734-0.0297852-1.0361328c-0.1206055-0.6318359-0.4658203-3.5585938-0.3457031-3.7539063
	c0.1201172-0.1943359,0.5107422-1.0654297,0.6606445-1.9511719c0.1503906-0.8857422,0.6152344-5.0751953,0.7509766-5.2255859
	c0.1347656-0.1503906,1.7563477-0.1650391,2.8676758-0.2246094c1.1098633-0.0605469,5.1040039-0.3613281,5.9301758-0.6904297
	c0.8251953-0.3310547,2.0410156-1.2011719,2.0410156-1.2011719s0.4208984,0.2548828,0.8115234,0.4492188
	c0.3896484,0.1953125,0.9599609,0.2714844,1.5615234,0.40625c0.6005859,0.1347656,1.1865234,0.6005859,1.3818359,0.765625
	c0.1943359,0.1650391,1.125,1.3056641,1.9960938,2.1318359S41.296875,34.40625,41.296875,34.40625
	s0.1191406,0.2412109,0.2392578,0.6464844c0.1210938,0.4042969,0.7802734,0.7958984,0.9755859,1.0058594
	c0.1962891,0.2099609,0.2861328,0.5703125,0.5253906,2.0117188c0.2412109,1.4404297,0.1201172,2.9580078,0.0605469,3.1826172
	c-0.0605469,0.2255859-0.2705078,0.3603516-0.3896484,0.7363281c0.1191406-0.0751953,0.8095703-0.3007813,1.140625-0.2412109
	c0.3300781,0.0615234,0.6904297,0.78125,0.7646484,0.7666016c0.0761719-0.015625-0.0742188-0.5712891-0.1191406-0.7509766
	c-0.0449219-0.1806641,0.0449219-0.1660156,0.1357422-0.4648438c0.3291016,0.1650391,0.5996094,0.0449219,0.7802734-0.2109375
	C45.5898438,40.8330078,45.5009766,40.3671875,45.2451172,39.9023438z M6.9599609,19.8432617
	c-0.2856445,0.2553711-1.081543,0.1499023-1.081543,0.1499023l0.0454102,0.5708008
	c-0.3754883,0.1196289-0.2705078-0.0151367-0.5107422-0.690918c-0.2392578-0.6728516,0.0888672-0.8735352,0.6425781-0.9033203
	c0.1171875-0.1108398,0.2802734-0.237793,0.5585938-0.237793c0.1489258,0,0.2460938,0.0634766,0.3227539,0.1401367
	c0.2001953-0.0258789,0.3842773-0.0458984,0.5332031-0.0351563C8.0629883,18.8789063,7.2446289,19.5878906,6.9599609,19.8432617z
	 M21.84375,29.6875c0,0,0.4482422-3.5039063-0.125-5.375c-0.59375-1.9375-3.65625-5.40625-4.1875-6.03125
	c1.15625,0.59375,4.5625,4.5,4.84375,6.125C22.6103516,25.7675781,22.3276367,28.7197266,21.84375,29.6875z M32.53125,27.90625
	c0,0-0.25-2.21875-0.96875-3.71875S29.3125,20,29.3125,20s2.3222656,3.175293,2.65625,3.9375
	C32.40625,24.9375,32.6875,27,32.53125,27.90625z"/>
<path fill="#2B2B2B" d="M6.9746094,16.4550781c0,0-0.0175781,0.0083008-0.0268555,0.0131836
	c0.0024414,0.0537109,0.0048828,0.0991211,0.0073242,0.1328125c0.0058594-0.0063477,0.0131836-0.0112305,0.0185547-0.0175781
	C6.9746094,16.5195313,6.9746094,16.4550781,6.9746094,16.4550781z"/>
<path fill="#2B2B2B" d="M9.7773438,7.0463867c2.1616211-3.3237305,7.9672852-1.9619141,7.9672852-2.5224609
	c0-0.5610352-3.4833984-0.5605469-5.6850586-0.1206055C9.8569336,4.84375,7.8149414,7.0058594,7.8149414,7.0058594
	s-0.199707-0.0395508-0.3598633,0.1206055c-0.1601563,0.159668-0.1201172,0.3999023-0.1201172,0.3999023
	S7.0947266,7.847168,6.9350586,8.0473633C6.7744141,8.2475586,6.4140625,8.7680664,6.4140625,8.7680664
	S6.1733398,8.8081055,6.0537109,9.0878906C5.9335938,9.3681641,6.0136719,9.4482422,6.0136719,9.4482422
	s-0.2802734,0.4008789-0.3999023,0.6411133c-0.1206055,0.2402344-0.3603516,0.800293-0.3603516,0.800293
	s-0.1606445,0.0805664-0.2807617,0.3203125c-0.1206055,0.2402344,0.1201172,0.4003906,0.1201172,0.4003906s0,0-0.0400391,0.2402344
	c-0.0395508,0.2402344-0.3203125,1.3208008-0.3203125,1.3208008s-0.2402344,0.1611328-0.2402344,0.3208008
	c0,0.1601563,0.1201172,0.440918,0.1201172,0.440918l-0.0400391,1.0004883c0,0-0.159668,0.159668-0.2001953,0.3603516
	c-0.0405273,0.2001953,0.2001953,0.4804688,0.2001953,0.4804688L4.652832,16.815918
	c1.0859375,0.2241211,2.1591797-0.2807617,2.2949219-0.3476563c-0.0117188-0.2392578-0.0288086-0.6884766-0.0532227-1.4946289
	C6.8139648,12.3310547,7.6152344,10.3696289,9.7773438,7.0463867z"/>
<path fill="#2B2B2B" d="M6.9736328,16.5834961c-0.0053711,0.0063477-0.0126953,0.0112305-0.0185547,0.0175781
	C6.9672852,16.7939453,6.9716797,16.6894531,6.9736328,16.5834961z"/>
<path fill="#2B2B2B" d="M12.5,9.0483398c-0.2006836-0.7211914-1.8417969-2.1621094-2.0820313-2.2416992
	c-0.2402344-0.0800781-0.5205078,0.6801758-0.5205078,0.6801758c0.8803711,0.3901367,0.7607422,0.4003906,1.7216797,1.2011719
	C12.5800781,9.4882813,12.6196289,9.5283203,12.5,9.0483398z"/>
<path fill="#2B2B2B" d="M3.7612305,14.6181641c0,0.2553711,0.0605469,0.6757813,0.0605469,0.6757813
	S3.6416016,15.5039063,3.65625,15.6542969c0.0151367,0.1503906,0.1801758,0.2553711,0.1801758,0.2553711l0.0302734,0.4956055
	c0,0,0.1953125,0.2099609,0.4350586,0.2099609l-0.0595703-0.8105469c0,0-0.1801758-0.0302734-0.1801758-0.3603516
	c0-0.3305664,0.1801758-0.390625,0.1801758-0.390625l0.0898438-1.1411133c0,0-0.1650391-0.2099609-0.1650391-0.4052734
	s0.1201172-0.5708008,0.3754883-0.5708008c0.0600586-0.2250977,0.3598633-1.2607422,0.3598633-1.2607422
	s-0.2548828-0.2856445-0.1801758-0.4956055c0.0751953-0.2099609,0.4057617-0.4804688,0.4057617-0.4804688l0.7207031-1.2763672
	c0,0-0.1049805-0.2700195,0.0454102-0.5253906C6.043457,8.6425781,6.4038086,8.5981445,6.4038086,8.5981445L7.125,7.5166016
	c0,0,0.0146484-0.2700195,0.074707-0.4501953S6.8544922,6.9462891,6.4790039,7.2612305
	c-0.375,0.3154297-0.375,0.3154297-0.375,0.3154297S5.8632813,7.53125,5.7880859,7.637207
	C5.7138672,7.7421875,5.7285156,7.9072266,5.7285156,7.9072266S5.5180664,8.0273438,5.3979492,8.1772461
	C5.2783203,8.3271484,5.112793,8.612793,5.112793,8.612793S4.9331055,8.5673828,4.8579102,8.6879883
	C4.7827148,8.8081055,4.7827148,9.1235352,4.7827148,9.1235352S4.6323242,9.453125,4.5424805,9.6186523
	c-0.090332,0.1650391-0.2104492,0.5405273-0.2104492,0.5405273s-0.1796875,0.1054688-0.2250977,0.2548828
	c-0.0449219,0.1503906,0.0146484,0.315918,0.0146484,0.315918s-0.0146484,0.1796875-0.0595703,0.4204102
	c-0.0454102,0.2397461-0.0751953,0.4350586-0.0751953,0.4350586s-0.2104492,0.1352539-0.2255859,0.2402344
	c-0.0146484,0.1054688,0.1357422,0.3300781,0.1357422,0.3300781s-0.0302734,0.1801758-0.0605469,0.3457031
	c-0.0297852,0.1650391-0.0444336,0.7509766-0.0444336,0.7509766s-0.1503906,0.0444336-0.1801758,0.1494141
	c-0.0302734,0.1054688,0.1948242,0.480957,0.1948242,0.480957S3.7612305,14.362793,3.7612305,14.6181641z"/>
<path fill="#FFFFFF" d="M7.4702148,18.8369141c-0.1489258-0.0107422-0.3330078,0.0092773-0.5332031,0.0351563
	c0.0913086,0.0917969,0.1523438,0.2041016,0.2177734,0.265625c-0.1352539,0.1123047-0.2128906,0.3662109-0.5405273,0.375
	c-0.5556641,0.0151367-0.6005859-0.3378906-0.7358398-0.3901367c0.0458984-0.0200195,0.1049805-0.0839844,0.1772461-0.152832
	c-0.5537109,0.0297852-0.8818359,0.2304688-0.6425781,0.9033203c0.2402344,0.6757813,0.1352539,0.8105469,0.5107422,0.690918
	L5.878418,19.9931641c0,0,0.7958984,0.1054688,1.081543-0.1499023C7.2446289,19.5878906,8.0629883,18.8789063,7.4702148,18.8369141z
	"/>
<path fill="#2B2B2B" d="M6.3613281,18.9423828c0.0351563-0.0917969,0.1123047-0.1499023,0.1123047-0.1499023
	c0.0439453,0.0732422,0.090332,0.0864258,0.121582,0.1235352c0.1191406-0.015625,0.2329102-0.0297852,0.3417969-0.0439453
	c-0.0766602-0.0766602-0.1738281-0.1401367-0.3227539-0.1401367c-0.2783203,0-0.4414063,0.1269531-0.5585938,0.237793
	c0.0024414,0,0.0043945-0.0009766,0.0068359-0.0009766C6.1645508,18.9638672,6.2626953,18.9526367,6.3613281,18.9423828z"/>
<path fill="#2B2B2B" d="M6.6142578,19.5126953c0.3276367-0.0087891,0.4052734-0.2626953,0.5405273-0.375
	c-0.0654297-0.0615234-0.1264648-0.1738281-0.2177734-0.265625c-0.1088867,0.0141602-0.2226563,0.0283203-0.3417969,0.0439453
	c0.0043945,0.0053711,0.0078125,0.0126953,0.0117188,0.0200195c0.2060547,0.0195313,0.2348633,0.090332,0.3378906,0.1865234
	c-0.125,0.1044922-0.1230469,0.1669922-0.3793945,0.1762695c-0.0527344,0.097168-0.1176758,0.1538086-0.1176758,0.1538086
	s-0.0258789-0.0712891-0.0517578-0.1601563c-0.2231445-0.0244141-0.2963867-0.1098633-0.4121094-0.1547852
	c0.1000977-0.0439453,0.1694336-0.1557617,0.3764648-0.1933594c0-0.0009766,0.0004883-0.0014648,0.0009766-0.0019531
	C6.2626953,18.9526367,6.1645508,18.9638672,6.0625,18.96875c-0.0024414,0-0.0043945,0.0009766-0.0068359,0.0009766
	c-0.0722656,0.0688477-0.1313477,0.1328125-0.1772461,0.152832C6.0136719,19.1748047,6.0585938,19.527832,6.6142578,19.5126953z"/>
<path fill="#FFFFFF" d="M6.3603516,18.9443359c-0.2070313,0.0375977-0.2763672,0.1494141-0.3764648,0.1933594
	c0.1157227,0.0449219,0.1889648,0.1303711,0.4121094,0.1547852c-0.0229492-0.0776367-0.0458984-0.1689453-0.0517578-0.2402344
	C6.3408203,19.0126953,6.3476563,18.9765625,6.3603516,18.9443359z"/>
<path fill="#FFFFFF" d="M6.5654297,19.2988281c0.2563477-0.0092773,0.2543945-0.0717773,0.3793945-0.1762695
	c-0.1030273-0.0961914-0.1318359-0.1669922-0.3378906-0.1865234c0.0161133,0.0288086,0.0268555,0.0683594,0.0224609,0.1508789
	C6.6245117,19.1743164,6.5966797,19.2421875,6.5654297,19.2988281z"/>
<path fill="#2B2B2B" d="M6.4736328,18.7924805c0,0-0.0771484,0.0581055-0.1123047,0.1499023
	c0.0151367-0.0014648,0.03125-0.0024414,0.0463867-0.0043945c0.0292969-0.0029297,0.0512695-0.0107422,0.0864258-0.0107422
	c0.0043945,0,0.0058594,0.0009766,0.0097656,0.0009766c0.0317383-0.0039063,0.0605469-0.0083008,0.0913086-0.012207
	C6.5639648,18.8789063,6.5175781,18.8657227,6.4736328,18.7924805z"/>
<path fill="#2B2B2B" d="M6.3613281,18.9423828c-0.0004883,0.0004883-0.0009766,0.0009766-0.0009766,0.0019531
	c0.0146484-0.0029297,0.03125-0.0043945,0.0473633-0.0063477C6.3925781,18.9399414,6.3764648,18.940918,6.3613281,18.9423828z"/>
<path fill="#2B2B2B" d="M6.3959961,19.2924805c0.0258789,0.0888672,0.0517578,0.1601563,0.0517578,0.1601563
	s0.0649414-0.0566406,0.1176758-0.1538086c-0.0205078,0.0009766-0.03125,0.0039063-0.0561523,0.0039063
	C6.4628906,19.3027344,6.4326172,19.2963867,6.3959961,19.2924805z"/>
<path fill="#2B2B2B" d="M6.6069336,18.9360352c-0.0039063-0.0073242-0.0073242-0.0146484-0.0117188-0.0200195
	c-0.0307617,0.0039063-0.0595703,0.0083008-0.0913086,0.012207C6.546875,18.9282227,6.574707,18.9326172,6.6069336,18.9360352z"/>
<path fill="#2B2B2B" d="M6.4941406,18.9272461c-0.0351563,0-0.0571289,0.0078125-0.0864258,0.0107422
	c0.0327148-0.003418,0.0644531-0.0058594,0.0961914-0.0097656C6.5,18.9282227,6.4985352,18.9272461,6.4941406,18.9272461z"/>
<path fill="#2B2B2B" d="M6.4077148,18.9379883C6.3916016,18.9399414,6.375,18.9414063,6.3603516,18.9443359
	c-0.0126953,0.0322266-0.0195313,0.0683594-0.0161133,0.1079102c0.0058594,0.0712891,0.0288086,0.1625977,0.0517578,0.2402344
	c0.0366211,0.0039063,0.0668945,0.0102539,0.1132813,0.0102539c0.0249023,0,0.0356445-0.0029297,0.0561523-0.0039063
	c0.03125-0.0566406,0.059082-0.1245117,0.0639648-0.2119141c0.0043945-0.0825195-0.0063477-0.1220703-0.0224609-0.1508789
	c-0.0322266-0.003418-0.0600586-0.0078125-0.1030273-0.0078125C6.472168,18.9321289,6.4404297,18.9345703,6.4077148,18.9379883z"/>
<path fill="#2B2B2B" d="M8.5957031,17.6513672c-0.1049805,0.1196289,0.0307617,0.2397461,0.4355469,0.2998047
	c0.4057617,0.0605469,0.9912109-0.765625,1.2617188-1.1259766c0.2700195-0.3603516,0.6152344-1.0205078,0.6455078-1.5610352
	c0.0297852-0.5410156-0.1655273-1.2915039-0.300293-1.3964844c-0.1352539-0.1054688-0.1958008,0-0.4956055,0.2851563
	c-0.300293,0.2851563-1.5766602,1.9814453-1.8320313,2.3574219c-0.1928711,0.2841797-0.1274414,0.5766602-0.0849609,0.7026367
	c0.0136719,0.0395508,0.0249023,0.0625,0.0249023,0.0625c0.0751953,0-0.074707,0.1357422,0.4658203-0.2543945
	c0.5405273-0.3911133,1.1108398-0.6313477,1.0205078-0.2407227C9.6469727,17.1704102,8.7016602,17.5307617,8.5957031,17.6513672z"/>
<path fill="#2B2B2B" d="M2.890625,24.3774414c0.2104492,0.1201172,0.2700195,0.0151367,0.2402344-0.1499023
	c-0.0297852-0.1655273,0.0454102-0.2255859,0.1352539-0.2705078c0.090332-0.0449219,0.3603516,0.2099609,0.4052734,0.0151367
	c0.0454102-0.1953125-0.1499023-0.4057617-0.3149414-0.480957c-0.1650391-0.074707-0.4057617,0.2553711-0.5253906,0.1958008
	c-0.1206055-0.0600586-0.3759766-0.0600586-0.3305664,0.1645508c0.0449219,0.2255859,0.0751953,0.2705078,0.1948242,0.3154297
	C2.8154297,24.2124023,2.8515625,24.3549805,2.890625,24.3774414z"/>
<path fill="#2B2B2B" d="M14.0761719,29.8125c-0.1049805,0.2851563-1.7119141,1.5615234-1.8920898,1.7412109
	c-0.1796875,0.1806641-0.7954102,0.1650391-1.3208008,0.6464844c-0.5258789,0.4804688,0.0449219,1.6953125,0.2548828,2.1162109
	c0.2104492,0.4208984,1.0063477,1.2617188,1.1865234,2.3271484c0.1801758,1.0664063,0.6455078,1.921875,0.9609375,2.1025391
	c0.3149414,0.1796875,0.6157227,0.4951172,0.8554688,0.75c0.2402344,0.2558594,0.7509766,1.2314453,0.7509766,1.2314453
	s0.0600586,0.0302734,0.2998047-0.1347656c0.2407227-0.1650391,0.480957-0.8554688,0.5561523-1.2470703
	c0.074707-0.3896484-0.3007813-0.6152344-0.390625-0.75c-0.090332-0.1357422-0.1655273-0.1503906-0.090332-0.2851563
	s-0.0444336-0.1201172-0.1948242-0.390625c-0.1503906-0.2695313-0.9760742-1.2763672-1.2460938-1.5458984
	c-0.2705078-0.2705078-0.9160156-1.4873047-1.0361328-1.7265625c-0.1201172-0.2412109-0.0297852-0.5107422,0-0.8408203
	c0.0297852-0.3310547,0-0.4365234,0.1201172-0.6005859c0.1201172-0.1650391,1.4711914-0.6757813,2.1621094-1.0214844
	c0.6904297-0.3447266,1.0053711-0.6757813,1.4863281-1.0654297c-0.1650391,0.0449219-1.2460938-0.3154297-1.6367188-0.5400391
	C14.5117188,30.3525391,14.0761719,29.8125,14.0761719,29.8125z"/>
<path fill="#2B2B2B" d="M34.8554688,29.5869141c-0.8261719,0.0302734-1.8173828-0.5400391-2.2080078-0.78125
	c-0.1503906,0.1503906-1.921875,1.1865234-1.921875,1.1865234c0.2714844,0.4511719,0.7519531,1.0507813,1.3964844,1.7265625
	c0.6464844,0.6757813,1.8320313,1.8779297,2.1025391,2.1318359c0.2705078,0.2558594,0.2099609,0.5703125,0.2402344,0.8261719
	c0.0302734,0.2548828,0.2255859,0.9306641,0.1650391,1.3056641c-0.0605469,0.3759766-1.1113281,2.3583984-1.5009766,2.8691406
	c-0.390625,0.5097656-0.1054688,0.6445313-0.5703125,1.0361328c-0.4658203,0.3896484-1.1572266,0.6142578-1.1572266,0.6142578
	s0,0,0.390625,0.0449219c0.390625,0.0458984,1.3369141,1.0068359,1.3369141,1.0068359s0.1494141-0.2548828,0.4042969-0.4052734
	c0.2558594-0.1503906,0.5869141,0.0449219,0.8417969-0.0146484c0.2548828-0.0615234,0.5097656-0.5712891,0.6152344-0.9619141
	c0.1044922-0.3896484,0.6152344-2.1171875,0.8251953-2.6875c0.2109375-0.5703125,1.0810547-2.6865234,1.171875-3.078125
	c0.0908203-0.3896484,0.2246094-0.4052734-0.9609375-1.7568359C34.8398438,31.2988281,34.8251953,30.4433594,34.8554688,29.5869141z
	"/>
<path fill="#2B2B2B" d="M39.6738281,23.371582c0,0.1503906,0.0302734,0.465332,0.0302734,0.465332l0.1054688,0.6459961
	c0,0,0.0449219-0.1054688,0.0761719-0.5258789c0.2392578,0.3754883,0.2099609,0.7055664,0.2695313,0.8413086
	c0.0595703,0,0.2548828-0.1806641,0.2705078-0.3759766c0.0146484-0.1948242,0.1044922,0.3608398,0.1191406,0.5854492
	c0.015625,0.2255859,0.1357422,0.3603516,0.390625,0.4814453c0.2558594,0.1191406,0.5107422,0.1640625,0.5107422,0.1640625
	s0.1201172,0.0605469-0.0605469-0.2099609c-0.1796875-0.2695313-0.2246094-0.390625-0.2099609-0.4648438
	c0.015625-0.0756836,0.0605469,0.1044922,0.3310547,0.3603516c0.2695313,0.2548828,0.2988281,0.4052734,0.5107422,0.4345703
	c0.2099609,0.0302734,0.0888672-0.0449219,0.0146484-0.1650391c-0.0761719-0.1191406-0.0605469-0.2402344,0.1503906,0
	c0.2099609,0.2412109,0.1650391,0.3603516,0.2695313,0.3603516c0.1054688,0,0.4511719,0.1347656,0.2412109-0.0302734
	c-0.2119141-0.1650391-0.3164063-0.3154297-0.2558594-0.3603516c0.0595703-0.0449219,0.1503906,0,0.2705078,0.1503906
	c0.1191406,0.1503906,0.1953125,0.2548828,0.2392578,0.1806641c0.0449219-0.0761719-0.0439453-0.2861328-0.1796875-0.4511719
	s0-0.1650391-0.0449219-0.2246094c-0.0458984-0.0595703-0.4658203-0.3754883-0.4951172-0.5854492
	c-0.0302734-0.2104492,0.3896484,0.3305664,0.5097656,0.3154297c0.1201172-0.0161133,0.1660156-0.1352539-0.1054688-0.4360352
	c-0.2695313-0.2998047-0.1347656-0.4052734-0.3300781-0.6005859c-0.1953125-0.1948242-0.1953125-0.3149414-0.6757813-0.9907227
	c-0.4794922-0.6757813-0.7802734-1.0810547-1.2314453-1.3813477c-0.4492188-0.300293-1.0507813-0.4804688-1.3203125-0.465332
	c0,0,0.2851563,0.4057617,0.4199219,0.8408203C39.6298828,22.3652344,39.6738281,23.2211914,39.6738281,23.371582z"/>
<path fill="#2B2B2B" d="M43.8037109,41.8242188c-0.2558594-0.0908203-1.0361328,0.2392578-1.0361328,0.2392578l-0.6611328,1.0966797
	c0,0,0.390625-0.015625,0.3154297,0.1650391c-0.0742188,0.1796875,0.0751953,0.1347656,0.3310547,0.1503906
	c0.2548828,0.0146484,0.7802734-0.1054688,0.9453125-0.1806641c0.1650391-0.0742188,0.3154297-0.1054688,0.6162109-0.1347656
	c0.2988281-0.0302734,0.3154297-0.3310547,0.2695313-0.4960938C44.5390625,42.4990234,44.0585938,41.9140625,43.8037109,41.8242188z
	"/>
<path fill="#2B2B2B" d="M32.0927734,40.953125c-0.3154297-0.2109375-0.765625-0.4208984-0.9306641-0.2255859
	c-0.1650391,0.1943359-0.6464844,1.2011719-0.6464844,1.2011719c0.2099609,0.2558594,0.5410156-0.1650391,0.5410156-0.1650391
	l0.0292969,0.4208984c0,0,1.6669922-0.1210938,1.7714844-0.1210938c0.1054688,0,0.2109375-0.1650391,0.1503906-0.375
	C32.9482422,41.4785156,32.4082031,41.1630859,32.0927734,40.953125z"/>
<path fill="#2B2B2B" d="M19.2109375,42.84375c-0.2851563-0.2246094-1.065918-0.4794922-1.1860352-0.4794922
	s-0.1801758,0.1503906-0.375,0.4501953C17.4541016,43.1152344,17.0039063,43.625,17.0039063,43.625l0.3305664,0.0605469
	c-0.1655273,0.0898438-0.0751953,0.2558594-0.0751953,0.2558594s0.4956055,0.0888672,1.1259766,0.0742188
	c0.5253906,0.0302734,1.3359375-0.6005859,1.3359375-0.7060547S19.496582,43.0703125,19.2109375,42.84375z"/>
<path fill="#2B2B2B" d="M15.8178711,39.421875c0.0151367,0.1796875-0.2700195,0.8554688-0.4658203,1.1103516
	c-0.1948242,0.2558594-0.2700195,0.3457031-0.2700195,0.3457031l0.5253906,0.78125
	c0.1953125,0.0146484,0.1655273-0.2714844,0.1655273-0.2714844s0.2548828,0.1806641,0.3300781,0.1357422
	s0.0605469-0.2099609,0.1655273-0.6757813s0.0297852-0.9912109-0.1655273-1.3662109
	C15.9082031,39.1064453,15.8027344,39.2412109,15.8178711,39.421875z"/>
<path fill="#FFFFFF" d="M17.53125,18.28125c0.53125,0.625,3.59375,4.09375,4.1875,6.03125
	c0.5732422,1.8710938,0.125,5.375,0.125,5.375c0.4838867-0.9677734,0.7666016-3.9199219,0.53125-5.28125
	C22.09375,22.78125,18.6875,18.875,17.53125,18.28125z"/>
<path fill="#FFFFFF" d="M29.3125,20c0,0,1.53125,2.6875,2.25,4.1875s0.96875,3.71875,0.96875,3.71875
	c0.15625-0.90625-0.125-2.96875-0.5625-3.96875C31.6347656,23.175293,29.3125,20,29.3125,20z"/>
</svg>