<?xml version="1.0" encoding="utf-8"?>
<!DOCTYPE svg PUBLIC "-//W3C//DTD SVG 1.1//EN" "http://www.w3.org/Graphics/SVG/1.1/DTD/svg11.dtd">
<svg version="1.1" id="iKrolchatina" xmlns="http://www.w3.org/2000/svg" xmlns:xlink="http://www.w3.org/1999/xlink" x="0px" y="0px" width="100%" height="100%" viewBox="0 0 48 48" preserveAspectRatio="xMidYMid meet">
<path fill="#2B2B2B" d="M42.5673828,22.1928711c-0.1367188-0.2617188-0.6396484-0.5703125-0.9179688-1.0205078
	c-0.2773438-0.4511719-0.5195313-1.4550781-0.96875-2.1474609c-0.4501953-0.6923828-0.5546875-1.1083984-0.6230469-1.4199219
	c-0.0703125-0.3110352-0.9355469-1.2124023-1.1787109-1.2817383c-0.2421875-0.0688477-1.0732422-0.034668-1.4541016,0.0356445
	C37.0449219,16.4282227,35.4853516,15.769043,35,15.6308594c-0.484375-0.1376953-0.7265625,0-0.8994141,0.2768555
	s-0.3818359,1.6274414-0.3466797,2.2856445c0.0341797,0.6586914-0.3466797,0.6923828-0.8310547,0.5546875
	c-0.4853516-0.1376953-0.8662109-1.0385742-1.0039063-1.1083984c-0.1386719-0.0703125-0.2080078,0.1386719-0.2773438,0.3466797
	c-0.0703125,0.2070313-0.5195313,0.2070313-0.9013672,0.1035156c-0.3808594-0.1035156-0.4150391-0.3803711-0.6230469-0.0688477
	s-0.2080078,1.246582-0.2080078,1.7661133s-0.2070313,0.3803711-0.484375,0.449707
	c-0.2763672,0.0688477-0.2773438,0.1738281-0.5888672,0.4155273c-0.3115234,0.2421875-2.078125-1.0385742-2.5976563-1.5234375
	c-0.5195313-0.484375-2.3896484-2.1821289-8.3115234-0.2431641c-5.9228516,1.9399414-11.1865234,8.4853516-12.2949219,10.6679688
	c-1.1083984,2.1816406,0.1386719,6.7880859,1.0039063,8.4160156s3.4287109,3.5664063,4.15625,3.8095703
	c0.7275391,0.2421875,1.7587891-0.6640625,2.5283203-1.2119141c0.8779297-0.625,1.7416992-1.3154297,2.3896484-2.3554688
	c0.8007813-1.2851563,1.3154297-3.4638672,1.4199219-4.0859375c0.0820313-0.4941406,0.1933594-1.2773438,0.3779297-2.4482422
	c-1.2939453,0.6865234-2.9291992-0.9033203-2.7001953-2.2197266c0.090332-0.5205078,0.8984375-2.0234375,1.625-2.4375
	c0.7275391-0.4160156,2.0644531,0.0927734,2.6875-1.1875c0.6240234-1.28125,5.0092773,2.3378906,4.453125,1.015625
	c-0.828125-1.96875-2.5864258-3.890625-4.453125-3.5361328c-1.671875,0.3173828-2.5625,0.9267578-5.34375,2.4580078
	c3.1699219-2.4785156,4.1831055-2.6259766,5.3852539-2.8125c2.3178711-0.359375,3.4169922,0.6669922,4.25,1.9375
	c1.1557617,1.7626953,1.581543,5.0019531,0.7553711,6.515625c-1.125,2.0625-2.8769531,2.5332031-4.296875,3.640625
	c-1.4189453,1.1083984-1.8486328,0.7509766-2.0625,0.03125c-0.2290039-0.7705078-0.359375-0.875-0.359375-0.875
	c-0.0507813,0.5927734-0.3022461,1.4238281-0.953125,3.28125c-0.2421875,0.6933594-2.4130859,3.078125-3.3134766,3.7353516
	c-0.9003906,0.6582031-1.8359375,1.109375-1.1777344,1.8017578c8.9697266,1.765625,15.0654297,0.5185547,15.6542969,0.484375
	c0.5888672-0.0351563-0.2773438-0.7617188-0.484375-1.3154297c-0.2080078-0.5546875-0.2080078-1.2470703-0.1044922-1.1787109
	c0.1044922,0.0693359,0.3115234,0.2773438,1.0048828,0.9697266c0.6923828,0.6923828,0.9697266,1.2822266,0.9697266,1.2822266
	s0.9003906,0.1035156,1.3505859,0.0693359c0.2089844-0.0166016,0.296875-0.1113281,0.3134766-0.2314453
	c-0.1015625-0.1484375-0.1855469-0.3125-0.2236328-0.4804688c-0.2480469-0.2666016-0.0849609-0.4658203,0.1171875-0.4306641
	c0.2080078,0.0341797,0.6240234,0.6230469,0.7978516,0.7949219c0.1728516,0.1738281,0.6230469-0.0683594,0.4150391-0.5185547
	c-0.0058594-0.0136719-0.0185547-0.0273438-0.0263672-0.0410156c-0.1884766-0.1845703-0.3632813-0.3691406-0.5224609-0.5498047
	c-0.3564453-0.2783203-0.8046875-0.5429688-1.1484375-0.7255859c-0.5888672-0.3115234-2.1474609-1.3505859-2.5283203-1.4199219
	c-0.3808594-0.0683594-3.4980469,0.3115234-4.1210938,0.4160156c-0.6240234,0.1044922-3.1513672,0.2421875-4.0527344,0.1044922
	c-0.9003906-0.1386719-0.1728516-0.5546875,0.1738281-1.5585938c0.2548828-0.7402344,2.3583984-2.5361328,3.6376953-3.7197266
	c-0.3603516,0.546875-0.7158203,0.9179688-0.9814453,1.2304688c-0.4804688,0.5654297-2.1875,2.046875-2.84375,3.515625
	c-0.0825195,0.1845703,0.1767578,0.1992188,0.453125,0.234375c0.2773438,0.0332031,2.1894531-0.0664063,3.921875-0.34375
	c1.7304688-0.2773438,3.15625,0.0722656,3.5361328-0.34375c0.3808594-0.4160156-0.8408203-1.3759766-1.0830078-1.6875
	c-0.2421875-0.3125-0.9794922-1-0.375-1.4160156c0.3447266-0.2373047,3.703125,0.2207031,4.1875,0.1865234
	c0.4853516-0.0361328,2.0078125,0.3623047,2.5625,0.9169922c0.5527344,0.5546875,1.3408203,1.484375,1.375,1.2080078
	c0.0341797-0.2773438,0.2597656-1.9990234,2.1640625-4.0078125s4.2939453-3.84375,4.4326172-5.125
	c0.1376953-1.2802734-0.6230469-2.7011719-0.6923828-3.1513672c-0.0703125-0.4511719,0.6767578-0.2773438,1.0390625-0.3642578
	c0.3867188-0.09375,0.5537109-0.4648438,0.7832031-0.6308594c-0.0957031,0.0322266-0.2021484-0.0244141-0.2304688-0.293457
	c-0.0361328-0.3115234,0.1728516-0.6762695-0.1738281-1.0395508c-0.1201172-0.125-0.7597656,0.5292969-1.4023438-0.6235352
	c-0.0761719-0.1362305,0.1894531-0.4677734,0.3623047-0.2597656c0.1738281,0.2075195,0.9794922,0.3320313,1.265625,0.2597656
	c0.2753906-0.0698242,0.6044922-0.1567383,0.8134766-0.5024414c0,0,0.1708984-0.0170898,0.1904297,0.277832
	c0.0419922,0.6274414-0.2666016,0.4667969-0.4580078,0.8305664c-0.1171875,0.2231445-0.1259766,0.4707031-0.09375,0.765625
	c0.0234375,0.2177734-0.0253906,0.453125-0.09375,0.546875c0.0048828-0.0029297,0.0625-0.015625,0.125,0.0625
	c0.1103516,0.1376953,0.8691406,0.6748047,1.0253906-0.640625C43.1044922,23.9985352,42.7587891,22.5561523,42.5673828,22.1928711z
	 M32.9794922,25.8330078c-1.9345703-0.6044922-2.5214844-2.7832031-2.8408203-4.4526367
	c-0.0234375-0.1083984-0.0341797-0.1723633-0.0341797-0.1723633c0.0097656,0.0551758,0.0234375,0.1157227,0.0341797,0.1723633
	c0.1738281,0.7924805,1.0878906,4.1079102,4.2783203,4.3276367c1.1220703,0.0771484,4.75,0,4.75,0
	S34.9794922,26.4580078,32.9794922,25.8330078z M39.7431641,22.5854492
	c-0.5195313,0.1381836-0.9072266,0.2285156-1.1425781,0.3115234c-1.6796875,0.5883789-1.6621094-1.0048828-2.2158203-0.9702148
	c-0.5556641,0.0351563-0.6591797,0.1738281-1.3515625,0.0698242c-0.6933594-0.1035156-1.8359375-1.2807617-1.9052734-2.1821289
	c-0.0507813-0.6669922,1.7314453-1.28125,2.078125-1.6967773s0.796875,0.0336914,1.0742188,0.3803711
	c0.2763672,0.3466797,0.8652344,1.6625977,1.0732422,1.5585938c0.2080078-0.1035156,0.4150391,0.2080078,0.2773438,0.6582031
	c-0.1396484,0.4501953-0.4765625,1.3554688-0.0693359,1.6274414c0.4150391,0.2768555,0.7451172,0.3300781,1.1601563,0.1557617
	c0.4150391-0.1738281,1.0732422-0.3813477,1.3505859-0.3637695C40.3154297,22.1499023,40.2617188,22.4462891,39.7431641,22.5854492z
	"/>
<path fill="#2B2B2B" d="M34.0146484,19.8984375c0,0,0.2421875,1.1079102,0.5537109,1.315918
	c0.3115234,0.2070313,1.109375,0.5537109,2.2519531,0c-0.9013672-1.2470703-0.6933594-0.9692383-1.0390625-1.3510742
	C35.4345703,19.4814453,34.5,19.4135742,34.0146484,19.8984375z M36.4052734,21.0063477c0,0-0.8154297,0.46875-1.2822266,0.1723633
	c-0.46875-0.2949219-0.3095703-0.293457-0.4853516-1.0039063c0,0,0.2685547-0.1865234,0.5673828-0.2050781
	c0.0664063-0.0283203,0.1367188-0.0458984,0.2119141-0.0458984c0.2832031,0,0.5087891,0.2265625,0.5537109,0.5175781
	C36.2216797,20.7285156,36.4052734,21.0063477,36.4052734,21.0063477z"/>
<path fill="#2B2B2B" d="M35.4169922,19.9238281c-0.0751953,0-0.1455078,0.0175781-0.2119141,0.0458984
	c0.1474609-0.0087891,0.3017578,0.019043,0.4365234,0.1362305c0.1181641,0.1025391,0.2275391,0.2192383,0.3291016,0.3354492
	C35.9257813,20.1503906,35.7001953,19.9238281,35.4169922,19.9238281z"/>
<path fill="#2B2B2B" d="M35.6416016,20.105957c-0.1347656-0.1171875-0.2890625-0.1450195-0.4365234-0.1362305
	c-0.2099609,0.0908203-0.359375,0.3100586-0.359375,0.5688477c0,0.3393555,0.2558594,0.6147461,0.5712891,0.6147461
	c0.1972656,0,0.3623047-0.1142578,0.4658203-0.2773438c-0.3632813-0.0205078-0.4482422-0.2163086-0.4482422-0.2163086
	c0.34375-0.0986328,0.4101563-0.1035156,0.5302734,0.0097656c0.0087891-0.043457,0.0244141-0.0844727,0.0244141-0.1308594
	c0-0.034668-0.0136719-0.0639648-0.0185547-0.097168C35.8691406,20.3251953,35.7597656,20.2084961,35.6416016,20.105957z"/>
<path fill="#2B2B2B" d="M29.1308594,14.7368164c0.2431641,0.7626953,0.9697266,2.0444336,1.2822266,2.6328125
	c0.3115234,0.5883789,0.6572266,0.5883789,0.8310547,0.5195313c0.1728516-0.0688477,0.1035156-0.5546875,0.3115234-0.5546875
	s0.9697266,0.4858398,1.0048828,0.7973633c0.0341797,0.3115234,0.5888672,0.762207,0.7265625,0.5195313
	c0,0,0.3466797-2.1479492,0.4501953-2.7709961c0.1044922-0.6235352,0.1044922-3.671875-0.1035156-5.5068359
	c-0.2080078-1.8354492-2.9091797-6.2001953-3.4287109-6.3378906s-1.1083984,0.1376953-1.0742188,1.5585938
	c0.0351563,1.4204102,0.3125,2.9438477,0.3466797,3.8789063S28.8886719,13.9750977,29.1308594,14.7368164z M29.8759766,5.1777344
	c0.1210938-0.1391602,1.0068359-0.1015625,2.1298828,2.3208008c0.8828125,1.9052734,0.7714844,3.1225586,0.7441406,3.8271484
	c-0.0556641,1.4536133-1.0263672,2.4960938-1.0908203,3.7402344c-0.0683594,1.3330078,0.8662109,2.2856445,0.8662109,2.2856445
	c-1.1083984-0.2426758-1.984375-0.6611328-2.5458984-1.7836914c-0.5195313-1.0390625-0.1650391-3.1831055-0.1035156-4.2250977
	C30.0136719,9.0039063,29.7548828,5.3164063,29.8759766,5.1777344z"/>
<path fill="#2B2B2B" d="M31.5039063,16.434082c0,0-0.7275391-2.2167969,0.2597656-4.8134766
	c0.3837891-1.0117188,0.4355469-3.4624023-0.5195313-4.3984375c-0.7792969-0.7626953-0.8828125-0.6420898-0.8828125-0.6420898
	s-0.2597656,6.1489258-0.1914063,7.0839844C30.2392578,14.5991211,30.6552734,16.2260742,31.5039063,16.434082z"/>
<path fill="#2B2B2B" d="M34.1191406,15.2915039c0.484375-0.1035156,1.8339844,0.1391602,1.8339844,0.1391602
	c0.5898438-1.2119141,0.3818359-4.5717773,0.3115234-5.3686523c-0.0683594-0.7973633-0.5185547-4.3642578-0.5869141-5.0214844
	c-0.0703125-0.6577148-0.4160156-0.5195313-0.6591797-0.0698242c-0.2421875,0.449707-0.3466797,1.0390625-0.3466797,1.3164063
	c0,0.277832-0.1728516,0.4848633-0.484375,0.8657227c-0.3115234,0.3803711-0.5888672,1.5244141-0.5888672,1.5244141
	s0.4853516,1.5581055,0.6582031,2.215332C34.4306641,11.550293,34.1533203,14.3911133,34.1191406,15.2915039z"/>
<path fill="#2B2B2B" d="M31.8085938,42.4101563c0.2265625,0.2197266,0.4638672,0.4267578,0.7167969,0.5537109
	c0.6933594,0.3466797,5.4716797,0.484375,6.6845703,0.4501953c1.2119141-0.0332031-0.1386719-0.4150391,0.1386719-0.9355469
	c0.2763672-0.5185547,0.1025391-0.2773438,0.484375,0.1738281c0.3808594,0.4501953,0.3457031,0.3798828,0.9003906,0.6582031
	c0.5546875,0.2773438,1.0185547-0.1796875,1.0039063-0.3808594C41.6875,42.234375,39.515625,41.078125,39.3134766,41.1289063
	c-4.0175781,0.6572266-5.3681641-1.7666016-5.8525391-2.4248047c-0.4853516-0.6582031-1.5585938-1.6972656-2.5634766-1.9052734
	c-1.0039063-0.2080078-4.8486328-0.2080078-4.8486328-0.2080078c1.59375,2.4941406,4.3984375,4.4335938,4.7792969,4.7802734
	c0.1259766,0.1132813,0.2851563,0.2949219,0.4580078,0.4892578C31.5214844,42.0449219,31.7128906,42.2333984,31.8085938,42.4101563z
	"/>
<path fill="#2B2B2B" d="M31.8085938,42.4101563c-0.0957031-0.1767578-0.2871094-0.3652344-0.5224609-0.5498047
	C31.4453125,42.0410156,31.6201172,42.2255859,31.8085938,42.4101563z"/>
<path fill="#2B2B2B" d="M27.046875,41.359375c0.640625,2.140625,1.6347656,2.46875,1.6347656,2.46875
	s0.0830078-0.3837891-0.2285156-0.9375C28.140625,42.3369141,27.046875,41.359375,27.046875,41.359375z"/>
<path fill="#2B2B2B" d="M30.7285156,43.0859375c0.296875,0.4365234,0.7421875,0.7060547,0.6191406,0.3261719
	C31.078125,42.578125,30.484375,42.34375,30.484375,42.34375c-0.0087891,0.0859375,0.0009766,0.1738281,0.0205078,0.2617188
	c0.0068359,0.0068359,0.0068359,0.0126953,0.0136719,0.0195313C30.6669922,42.7734375,30.7470703,42.9472656,30.7285156,43.0859375z
	"/>
<path fill="#2B2B2B" d="M30.5185547,42.625c-0.0068359-0.0068359-0.0068359-0.0126953-0.0136719-0.0195313
	c0.0380859,0.1679688,0.1220703,0.3320313,0.2236328,0.4804688C30.7470703,42.9472656,30.6669922,42.7734375,30.5185547,42.625z"/>
<path fill="#2B2B2B" d="M39.609375,42.9375c0.2080078,0.1044922,1.0761719,1.0380859,0.90625,0.796875
	C40.328125,43.46875,39.5625,42.375,39.5625,42.375S39.4013672,42.8339844,39.609375,42.9375z"/>
<path fill="#2B2B2B" d="M4.875,32.1464844c0.0068359-0.0927734-1.2084961,2.3330078-1.4375,3.1455078
	S3.3959961,38.6455078,3.8334961,39s0.6035156,1.0625,1.0205078,0.9794922s0.4589844-0.5830078,0.4169922-0.8125
	s0.0834961,0.3134766,0.4375,0.6669922S7.0834961,39.75,7.125,39.5419922S4.5834961,36.0839844,4.875,32.1464844z"/>
</svg>