<?xml version="1.0" encoding="utf-8"?>
<!DOCTYPE svg PUBLIC "-//W3C//DTD SVG 1.1//EN" "http://www.w3.org/Graphics/SVG/1.1/DTD/svg11.dtd">
<svg version="1.1" id="iKuritsa" xmlns="http://www.w3.org/2000/svg" xmlns:xlink="http://www.w3.org/1999/xlink" x="0px" y="0px" width="100%" height="100%" viewBox="0 0 48 48" preserveAspectRatio="xMidYMid meet">
<path fill="#2B2B2B" d="M15.1796875,32.2597656c0,0,0.9145508,0.515625,1.7504883,1.0537109
	c0.8359375,0.5371094,1.6118164,0.9941406,1.730957,1.1533203c0.1191406,0.1601563,0.1791992,0.9951172-0.0996094,1.1542969
	c-0.2783203,0.1591797-0.6367188-0.3583984-1.034668-0.1982422c-0.3979492,0.1582031-0.9545898,0.7353516-1.1738281,0.7558594
	c-0.2182617,0.0195313-0.5566406-0.3779297-0.5966797-0.8359375c-0.0400391-0.4570313-0.0991211-1.3730469-0.3178711-1.8496094
	C15.2192383,33.015625,15.1992188,32.4179688,15.1796875,32.2597656z"/>
<path fill="#2B2B2B" d="M16.2734375,36.4765625c0,0,0.159668,0.0800781,0.3583984-0.0585938
	c0.1987305-0.140625,0.3979492-0.4384766,0.6166992-0.4980469c0.2192383-0.0595703,0.7363281-0.1591797,0.7758789,0
	c0.0400391,0.1601563-0.8154297,2.1884766-1.1733398,2.8447266c-0.3588867,0.6572266-0.6567383,1.3740234-0.5175781,1.7304688
	c0.1391602,0.3583984,0.6171875,0.7763672,0.7558594,1.0546875c0.1396484,0.2792969,0.0595703,0.5175781,0.0595703,0.5175781
	s-0.1591797-0.2001953-0.3183594-0.0595703c-0.1586914,0.1386719-0.5571289,0.1787109-0.6166992,0
	s-0.0996094-0.6171875-0.2387695-0.5371094c-0.1391602,0.0791016-0.0795898,0.3779297-0.5766602,0.6162109
	c-0.4975586,0.2382813-0.8754883,0.0996094-1.0146484,0.1591797c-0.1396484,0.0595703-0.1992188,0.3388672-0.3779297,0.3583984
	c-0.1791992,0.0195313-0.5571289-0.1191406-0.6166992,0.0390625c-0.0595703,0.1601563-0.4780273,0.5576172-0.815918,0.1796875
	c-0.1591797-0.0996094-0.3579102,0.0195313-0.4179688,0.1191406c-0.0595703,0.0996094-0.0996094-0.21875-0.0390625-0.3574219
	c0.059082-0.1386719-0.199707-0.3183594-0.4780273-0.2988281c-0.2788086,0.0195313-0.4775391-0.1396484-0.5375977-0.1191406
	c-0.059082,0.0195313-0.1987305,0.2578125-0.5166016,0.1386719c-0.3183594-0.1191406-0.5771484-0.1992188-0.5371094-0.3183594
	c0.0395508-0.1201172-0.2392578-0.2382813-0.3779297-0.1201172c-0.1396484,0.1201172-0.4379883,0.140625-0.4379883,0.140625
	s0.2587891-0.4785156,0.7358398-0.5966797c0.4780273-0.1201172,1.5917969-0.1201172,1.5917969-0.1201172
	s0.1591797-0.4375,0.4775391-0.3974609s1.5717773,0.2392578,1.6313477,0.2177734
	c0.0595703-0.0195313,0.815918-1.0136719,1.1738281-1.6103516S16.2539063,36.7363281,16.2734375,36.4765625z"/>
<path fill="#2B2B2B" d="M20.8295898,36.8349609c0,0,0,0.0791016,0.2392578-0.0205078
	c0.2382813-0.0996094,0.4375-0.4960938,0.4970703-0.734375c0.0595703-0.2412109,0.2583008-0.6777344,0.5170898-0.7373047
	s0.4775391-0.0195313,0.4775391-0.0195313l-0.0795898,5.3916016c0,0,0.9750977,0.9941406,1.1933594,1.1523438
	c0.21875,0.1611328,0.4975586,0.5576172,0.2988281,0.5986328c-0.1992188,0.0390625-0.2387695,0.2578125-0.4580078,0.21875
	c-0.21875-0.0410156-0.8754883-0.7558594-0.9545898-0.7558594c-0.0795898,0-0.0595703,0.4179688-0.3378906,0.6162109
	s-0.597168,0.2978516-0.7958984,0.4179688c-0.1992188,0.1181641-0.1791992,0.3779297-0.3383789,0.4775391
	s-0.4179688,0.078125-0.4775391,0.1396484c-0.0595703,0.0585938-0.1987305,0.4179688-0.4770508,0.3769531
	c-0.2788086-0.0390625-0.2988281-0.1591797-0.378418-0.1787109c-0.0800781-0.0195313-0.21875,0.1201172-0.21875,0.1201172
	s-0.2392578-0.3388672-0.0800781-0.5380859c0.159668-0.1992188,0.0205078-0.1591797-0.21875-0.1386719
	c-0.2382813,0.0195313-0.4174805,0.3583984-0.7163086,0.3378906C18.2236328,43.5400391,17.9648438,43.5,17.8852539,43.5
	s-0.0395508,0.0595703-0.4575195,0.0800781c-0.4179688,0.0185547-0.597168-0.0800781-0.6567383-0.1796875
	s-0.2788086-0.2587891-0.3779297-0.0400391c-0.0991211,0.2197266-0.2182617,0.3183594-0.2182617,0.3183594
	s0.0195313-0.9160156,0.7954102-1.0146484c0.7758789-0.0996094,1.1342773-0.1191406,1.1342773-0.1191406
	s0.0390625-0.7158203,0.5170898-0.7558594c0.4775391-0.0400391,1.909668-0.0605469,1.909668-0.0605469
	s0.1992188-0.1376953,0.21875-0.4169922C20.7700195,41.0332031,20.909668,37.09375,20.8295898,36.8349609z"/>
<path fill="#2B2B2B" d="M40.8642578,18.5512695c0.0585938-0.6767578-0.6171875-1.1142578-0.6171875-1.1142578
	s0.6367188-0.6567383,0.6367188-1.3920898c0-0.7363281-0.4169922-0.8564453-0.4169922-0.8564453
	s0.2978516-1.0141602,0.2382813-1.6108398s-0.5771484-0.5771484-0.5771484-0.5771484s0.1591797-0.2387695-0.21875-1.2138672
	c-0.3769531-0.9741211-2.4667969-0.1586914-5.1328125,1.0151367s-9.1318359,7.0825195-9.1318359,7.0825195
	c-0.7358398,0.3979492-1.2338867,0.3183594-2.6264648,0.0795898c-6.2070313-0.9550781-5.4111328-5.2924805-5.8491211-9.390625
	c-0.4375-4.0981445-4.0981445-5.5703125-5.4511719-5.5908203c-1.3530273-0.0195313-2.824707,1.6914063-2.824707,1.6914063
	l0.6962891,0.3984375c0,0,0.6762695,0.8354492,0.0795898,0.9741211c-0.2387695,0.3583984,0.2587891,0.9946289,0.4174805,1.1743164
	c0.1586914,0.1791992,0.2583008,0.1591797,1.5712891,0.4379883c0.9946289,1.8295898-1.9697266,5.4907227-3.1625977,8.0966797
	c-1.1938477,2.6064453-0.8754883,4.3969727,0.3979492,8.137207c1.2729492,3.7402344,7.9770508,6.7246094,9.1713867,7.7392578
	c1.1938477,1.0146484,2.6264648,2.9833984,2.8647461,2.9248047c0.2387695-0.0605469,0.3183594-1.0742188,0.5771484-1.3134766
	c0.2583008-0.2382813,0.7954102-0.3984375,1.1933594-0.2988281c0.3984375,0.1005859,0.0600586-0.9746094,0.0205078-1.4130859
	c-0.0078125-0.0849609,0.1479492-0.2626953,0.3999023-0.4941406c-3.4921875-0.9433594-8.1191406-3.7324219-10.3945313-5.7929688
	c-3.7670898-3.4106445,0.3242188-8.4750977,0.2167969-7.9506836c3.340332,3.7983398,9.1333008,1.8989258,10.5214844,3.2519531
	c0.340332,0.3320313,0.7983398,0.9077148,1.2651367,1.6064453c1.0112305,1.2553711,2.5336914,3.324707,3.0102539,5.3276367
	C27.8564453,29.3974609,27.9707031,29.3183594,28.0625,29.25c0.3789063-0.2792969,0.5654297-0.671875,0.5654297-0.671875
	S29.3251953,28.5,29.5449219,28.3398438c0.2177734-0.1591797,0.2177734-0.5371094,0.2177734-0.5371094
	s0.6767578-0.1787109,0.9150391-0.3378906c0.2392578-0.1591797,0.4375-0.4980469,0.4375-0.4980469
	s1.3134766-0.1787109,1.9892578-0.6162109c3.9003906,0.6962891,3.9794922-0.1191406,4.296875-0.4775391
	c0.3193359-0.3583984,0.1201172-0.8959961,0.1201172-0.8959961s1.5322266-0.7753906,1.7705078-1.3720703
	c0.2402344-0.597168-0.4570313-0.8950195-0.4570313-0.8950195s1.2929688-0.9555664,1.3730469-1.7114258
	c0.0791016-0.7558594-0.6757813-0.8955078-0.6757813-0.8955078S40.8046875,19.2280273,40.8642578,18.5512695z M15.5170898,9.1064453
	c0,0,0.8120117,1.9272461-0.2026367,1.7998047C14.300293,10.7797852,14.8833008,9.7397461,15.5170898,9.1064453z
	 M15.012207,13.4345703c0,0,0.8120117,1.9272461-0.2021484,1.8007813
	C13.7958984,15.1083984,14.378418,14.0688477,15.012207,13.4345703z M14.2128906,13.0341797
	c-1.0141602-0.1269531-0.4301758-1.1669922,0.2041016-1.800293C14.4169922,11.2338867,15.2285156,13.1611328,14.2128906,13.0341797z
	 M13.6914063,10.90625c-1.0151367-0.1264648-0.4321289-1.1665039,0.2026367-1.7998047
	C13.894043,9.1064453,14.7055664,11.0336914,13.6914063,10.90625z M11.0214844,8.2651367
	c-0.2387695-0.3378906-0.9746094-0.277832-0.9746094-0.277832c0.3378906-0.1000977,0.7758789-0.1791992,1.0537109,0.0795898
	c0.2788086,0.2583008,0.4780273,0.7158203,0.4580078,1.2138672C11.519043,8.9018555,11.2602539,8.6035156,11.0214844,8.2651367z
	 M10.0068359,6.7734375c0.1791992-0.2983398,1.0541992-1.1938477,2.0092773-1.2929688
	c0.9550781-0.0996094,1.7509766,1.3725586,1.7509766,1.3725586s-0.1196289,0.1791992-0.4179688,0.1791992
	s-0.5170898,0.7158203-1.3920898,0.815918C11.081543,7.9477539,10.0068359,6.7734375,10.0068359,6.7734375z M12.590332,13.0341797
	c-1.0141602-0.1269531-0.4311523-1.1669922,0.2026367-1.800293C12.7929688,11.2338867,13.6044922,13.1611328,12.590332,13.0341797z
	 M11.7666016,13.4345703c0,0,0.8115234,1.9272461-0.203125,1.8007813
	C10.5493164,15.1083984,11.1323242,14.0688477,11.7666016,13.4345703z M10.6655273,15.5620117
	c0,0,0.8120117,1.9272461-0.2026367,1.800293C9.4482422,17.2358398,10.0327148,16.1962891,10.6655273,15.5620117z
	 M10.1567383,20.4501953c0,0,0.6870117,1.6303711-0.1708984,1.5219727
	C9.128418,21.8637695,9.621582,20.9858398,10.1567383,20.4501953z M9.4189453,17.8364258
	c0,0,0.8110352,1.9267578-0.2036133,1.800293S8.7841797,18.4707031,9.4189453,17.8364258z M8.7856445,20.4501953
	c0,0,0.6855469,1.6303711-0.1713867,1.5219727C7.7563477,21.8637695,8.25,20.9858398,8.7856445,20.4501953z M9.2895508,22.3105469
	c0,0,0.6865234,1.628418-0.171875,1.5229492C8.2597656,23.7241211,8.753418,22.8461914,9.2895508,22.3105469z M9.6357422,25.7558594
	c-0.8583984-0.1083984-0.3647461-0.9873047,0.1708984-1.5234375C9.8066406,24.2324219,10.4926758,25.8613281,9.6357422,25.7558594z
	 M10.4897461,23.8334961c-0.8574219-0.109375-0.3642578-0.9873047,0.1728516-1.5229492
	C10.6625977,22.3105469,11.3481445,23.9389648,10.4897461,23.8334961z M10.8388672,19.6367188
	c-1.0151367-0.1264648-0.4311523-1.1660156,0.203125-1.800293C11.0419922,17.8364258,11.8530273,19.7631836,10.8388672,19.6367188z
	 M12.0859375,17.3623047c-1.0146484-0.1264648-0.4306641-1.1660156,0.2026367-1.800293
	C12.2885742,15.5620117,13.1000977,17.4892578,12.0859375,17.3623047z M13.3891602,13.4345703
	c0,0,0.8120117,1.9272461-0.2021484,1.8007813C12.1723633,15.1083984,12.7553711,14.0688477,13.3891602,13.4345703z
	 M13.9125977,15.5620117c0,0,0.8110352,1.9272461-0.2036133,1.800293
	C12.6943359,17.2358398,13.2783203,16.1962891,13.9125977,15.5620117z M14.2045898,19.4897461
	c-1.0146484-0.1259766-0.4316406-1.1660156,0.2026367-1.7998047C14.4072266,17.6899414,15.2192383,19.6166992,14.2045898,19.4897461
	z M15.3051758,17.5092773c-1.0146484-0.1259766-0.4311523-1.1660156,0.2036133-1.800293
	C15.5087891,15.7089844,16.3203125,17.6362305,15.3051758,17.5092773z M16.0400391,11.2338867
	c0,0,0.8115234,1.9272461-0.203125,1.800293C14.8227539,12.9072266,15.4057617,11.8671875,16.0400391,11.2338867z
	 M16.7553711,13.2871094c0,0,0.8110352,1.9277344-0.203125,1.8012695
	C15.5375977,14.9619141,16.1206055,13.921875,16.7553711,13.2871094z M16.9282227,17.5092773
	c-1.0141602-0.1259766-0.4306641-1.1660156,0.203125-1.800293C17.1313477,15.7089844,17.9433594,17.6362305,16.9282227,17.5092773z
	 M39.7900391,13.1396484c0,0-6.0888672,1.5517578-8.8339844,5.4316406
	C34.2597656,14.1147461,37.5615234,13.4985352,39.7900391,13.1396484z M31.3144531,25.8330078
	c3.3027344-1.949707,5.6904297-0.8754883,5.6904297-0.8754883C34.7558594,25.1367188,34.2382813,24.6191406,31.3144531,25.8330078z
	 M31.1953125,24.71875c3.1230469-2.4467773,5.2119141-2.3867188,7.3203125-1.9897461
	C38.515625,22.7290039,34.0605469,22.6298828,31.1953125,24.71875z M30.9970703,23.5249023
	c4.4951172-4.3964844,8.0566406-3.3818359,8.0566406-3.3818359C36.9248047,20.1826172,34.1796875,20.7797852,30.9970703,23.5249023z
	 M30.9560547,22.3911133c3.3037109-4.4560547,6.5654297-4.5556641,8.7939453-4.9145508
	C39.75,17.4765625,33.7011719,18.5112305,30.9560547,22.3911133z M31.1748047,20.1430664
	c3.203125-4.9936523,8.6542969-4.6357422,8.6542969-4.6357422C37.6611328,16.144043,34.5976563,16.2832031,31.1748047,20.1430664z"
	/>
<path fill="#2B2B2B" d="M12.2451172,6.625c0-0.0825195-0.0214844-0.1572266-0.0546875-0.2260742L11.7329102,6.625
	l0.1274414-0.4985352c-0.0410156-0.012207-0.081543-0.0268555-0.1274414-0.0268555
	c-0.2832031,0-0.5117188,0.2353516-0.5117188,0.5253906s0.2285156,0.5258789,0.5117188,0.5258789
	S12.2451172,6.9150391,12.2451172,6.625z"/>
<path fill="#2B2B2B" d="M10.6435547,5.1220703c0.9350586-0.3579102,1.5317383-0.2983398,1.8105469-0.2382813
	c0.2783203,0.059082,0.6362305-0.2587891,0.4375-0.418457c-0.1992188-0.1591797-0.65625-0.0400391-0.65625-0.0400391
	l-0.1191406-0.2978516l-0.378418,0.418457l-0.2587891-0.5776367l-0.2387695,0.6166992l-0.3779297-0.4375l-0.1791992,0.5566406
	L10.2451172,4.40625L10.046875,5.0625L9.7280273,4.9824219c0,0-0.7358398,0.9555664-0.9350586,1.5917969
	C8.7929688,6.5742188,9.7084961,5.4804688,10.6435547,5.1220703z"/>
<path fill="#2B2B2B" d="M25.8876953,31.2089844C23.2597656,32.6630859,16.0825195,28.2207031,13.25,25.6875
	c-1.3203125-1.1806641-1.5527344-2.737793-1.375-4.125c-0.4116211,1.644043-0.6313477,3.7402344,1.125,5.3125
	c3.0239258,2.7050781,10.9453125,7.3017578,13.75,5.75c2.0371094-1.1279297,0.0478516-4.5498047-1.5-7
	C26.3564453,27.7460938,27.4726563,30.3330078,25.8876953,31.2089844z"/>
<path fill="#2B2B2B" d="M9.6289063,7.8481445c0,0,0.0546875-0.1259766,0.0112305-0.2988281
	c-0.5424805,0.046875-1.4638672,0.2783203-1.4638672,0.2783203c0.5566406-0.2583008,1.0634766-0.3481445,1.4311523-0.3725586
	C9.512207,7.2470703,9.2578125,6.9951172,8.6142578,6.7929688c0,0-0.7363281,0.418457-0.6967773,1.0551758
	C8.6738281,7.9077148,9.6289063,7.8481445,9.6289063,7.8481445z"/>
<path fill="#2B2B2B" d="M13.375,21.1875c0,0-1,2.5,1.3125,4.1875s8.5,4.8125,9.5,4.9375C22.375,29.0625,14,25.4375,13.375,21.1875z"
	/>
<path fill="#2B2B2B" d="M16.6875,22.4375c0,0-0.75,0.8125,0.1875,1.6875s7,5.0625,8,5.3125
	C23.1875,27.9375,17.8125,23.5,16.6875,22.4375z"/>
<path fill="#2B2B2B" d="M20.9375,22.9375c0,0-0.5625,1,0.0625,1.625s3.8125,3.6875,4.0625,3.75
	C24.625,27.5625,21.5625,23.625,20.9375,22.9375z"/>
</svg>