<?xml version="1.0" encoding="utf-8"?>
<!DOCTYPE svg PUBLIC "-//W3C//DTD SVG 1.1//EN" "http://www.w3.org/Graphics/SVG/1.1/DTD/svg11.dtd">
<svg version="1.1" id="iLogin" xmlns="http://www.w3.org/2000/svg" xmlns:xlink="http://www.w3.org/1999/xlink" x="0px" y="0px" width="100%" height="100%" viewBox="0 0 48 48" preserveAspectRatio="xMidYMid meet">
<path id="human" fill="#ffffff" d="M29.6318359,32.0898438c-1.0244141-0.1640625-1.0498047-2.9775391-1.0498047-2.9775391
	s3.0107422-2.9785156,3.6669922-6.9833984c1.7617188,0,2.8515625-4.2553711,1.0869141-5.7529297
	c0.0751953-1.5771484,2.2666016-12.3764648-8.8339844-12.3764648c-11.1030273,0-8.909668,10.7993164-8.8383789,12.3764648
	c-1.7617188,1.4975586-0.6728516,5.7529297,1.0898438,5.7529297c0.6552734,4.0048828,3.6630859,6.9833984,3.6630859,6.9833984
	s-0.0229492,2.8134766-1.0473633,2.9775391C16.0727539,32.6152344,3.7592773,38.046875,3.7592773,44h41.480957
	c0-5.953125-12.3134766-11.3847656-15.609375-11.9101563H29.6318359z"/>
</svg>