<?xml version="1.0" encoding="utf-8"?>
<!DOCTYPE svg PUBLIC "-//W3C//DTD SVG 1.1//EN" "http://www.w3.org/Graphics/SVG/1.1/DTD/svg11.dtd">
<svg version="1.1" id="iLogout" xmlns="http://www.w3.org/2000/svg" xmlns:xlink="http://www.w3.org/1999/xlink" x="0px" y="0px" width="100%" height="100%" viewBox="0 0 48 48" preserveAspectRatio="xMidYMid meet">
<path id="base" fill="#4D4D4D" d="M28.9990234,9.7299805v5.3100586c1.4160156,0.6171875,2.7128906,1.4990234,3.8369141,2.6240234
	c2.3623047,2.3618164,3.6611328,5.4985352,3.6611328,8.8349609c0,3.3359375-1.2988281,6.4814453-3.6611328,8.8388672
	c-2.3613281,2.3574219-5.5,3.6582031-8.8359375,3.6582031c-3.3364258,0-6.4760742-1.3007813-8.8339844-3.6582031
	c-2.3642578-2.3623047-3.6625977-5.5029297-3.6625977-8.8388672c0-3.3364258,1.2983398-6.4750977,3.6625977-8.8349609
	c1.1201172-1.1225586,2.4228516-2.0058594,3.8354492-2.6240234V9.730957
	c-7.2265625,2.1518555-12.4970703,8.8452148-12.4970703,16.7680664c0,9.6640625,7.8320313,17.4960938,17.4956055,17.4960938
	c9.6630859,0,17.4951172-7.8320313,17.4951172-17.4960938c0-7.9228516-5.2695313-14.6162109-12.4960938-16.7680664V9.7299805z"/>
<rect id="on" x="21.5004883" y="4.0043945" fill="#4D4D4D" width="4.9985352" height="19.9946289"/>
</svg>