<?xml version="1.0" encoding="utf-8"?>
<!DOCTYPE svg PUBLIC "-//W3C//DTD SVG 1.1//EN" "http://www.w3.org/Graphics/SVG/1.1/DTD/svg11.dtd">
<svg version="1.1" id="iLoginCircle" xmlns="http://www.w3.org/2000/svg" xmlns:xlink="http://www.w3.org/1999/xlink" x="0px" y="0px" width="100%" height="100%" viewBox="0 0 240 240" preserveAspectRatio="xMidYMid meet">
<defs><circle id="a" cx="120" cy="120" r="118.05"/></defs>
<circle id="background" opacity="0" fill="#FFFFFF" cx="120" cy="120" r="119.4355469"/>
<clipPath id="b"><use xlink:href="#a" overflow="visible"/></clipPath><path clip-path="url(#b)" id="man" fill="#2B2B2B" d="M145.654 183h.005c-5.123 0-5.25-14.663-5.25-14.663s15.054-14.78 18.335-34.805c8.81 0 14.258-21.223 5.435-28.708.376-7.886 11.333-61.852-44.17-61.852-55.513 0-44.546 54.008-44.19 61.894-8.808 7.485-3.364 28.772 5.45 28.772 3.276 20.024 18.315 34.92 18.315 34.92s-.117 14.07-5.24 14.89C77.866 186.073 16.3 213.233 16.3 243h207.4c0-29.766-61.566-57-78.046-60z"/>
<path id="stroke" fill="#999999" d="M120 240C53.832 240 0 186.168 0 120S53.832 0 120 0s120 53.832 120 120-53.832 120-120 120zm0-236.966C55.504 3.034 3.034 55.504 3.034 120S55.504 236.967 120 236.967 236.967 184.497 236.967 120c0-64.496-52.47-116.966-116.967-116.966z"/>
</svg>