<?xml version="1.0" encoding="utf-8"?>
<!DOCTYPE svg PUBLIC "-//W3C//DTD SVG 1.1//EN" "http://www.w3.org/Graphics/SVG/1.1/DTD/svg11.dtd">
<svg version="1.1" id="iLogo" xmlns="http://www.w3.org/2000/svg" xmlns:xlink="http://www.w3.org/1999/xlink" x="0px" y="0px" width="100%" height="100%" viewBox="0 0 240 48" preserveAspectRatio="xMidYMid meet">
<g id="lavka">
	<path fill="#A21D20" d="M0.8071289,20.9384766v-2.1845703h10.4785156v2.0634766H8.5332031v24.3520508h3.6831055
		c1.4291992,0,2.4067383-0.1884766,2.9316406-0.5664063c0.5268555-0.3759766,0.8964844-1.0097656,1.1118164-1.8994141
		c0.0820313-0.4316406,0.1904297-1.3222656,0.3237305-2.6699219c0.0546875-0.4326172,0.1083984-0.8574219,0.1635742-1.2734375
		c0.0541992-0.4189453,0.0795898-0.8457031,0.0795898-1.2744141h3.3588867v9.9101563H0.8071289v-2.1445313h2.7104492V20.9384766
		H0.8071289L0.8071289,20.9384766z M37.9042969,40.1948242h-8.5361328l-1.3759766,5.1376953h2.7099609v2.0634766h-8.777832
		v-2.0634766h2.1035156l7.7675781-27.0644531h4.7734375l8.050293,27.0644531h2.6293945v2.0634766H36.5688477v-2.0634766h2.7915039
		L37.9042969,40.1948242L37.9042969,40.1948242z M33.4941406,24.3369141l-3.4799805,13.5522461h7.2016602L33.4941406,24.3369141
		L33.4941406,24.3369141z M56.0668945,40.1567383l5.2607422-19.2998047h-2.5893555v-2.1030273h9.2636719v2.1030273h-2.7514648
		l-8.3344727,26.5390625h-3.1953125l-8.6557617-26.5390625h-2.7109375v-2.1030273h10.7602539v2.1030273h-2.5883789
		L56.0668945,40.1567383L56.0668945,40.1567383z M79.9360352,47.3959961H69.5375977v-2.1445313h2.7119141V20.9384766h-2.7119141
		v-2.1845703h10.3984375v2.1845703h-2.7504883v9.9516602c1.5351563,0.1074219,2.5473633-0.1953125,3.0332031-0.9091797
		c0.4848633-0.7158203,0.7958984-1.6523438,0.9296875-2.8115234c0.0537109-0.3779297,0.1088867-0.9580078,0.1621094-1.7402344
		c0.0546875-0.7822266,0.1079102-1.3745117,0.1625977-1.7792969c0.1894531-1.6181641,0.6401367-2.9335938,1.3535156-3.9448242
		c0.7158203-1.0117188,2.0976563-1.5297852,4.1464844-1.5576172c1.7006836-0.027832,2.9741211,0.4116211,3.8242188,1.3144531
		c0.8491211,0.9038086,1.246582,1.9887695,1.1933594,3.2568359c0,0.9443359-0.269043,1.671875-0.8100586,2.1850586
		c-0.5385742,0.5107422-1.1713867,0.7675781-1.9003906,0.7675781c-0.6210938-0.0527344-1.1796875-0.3037109-1.6791992-0.7470703
		c-0.4990234-0.4448242-0.7880859-1.0185547-0.8701172-1.7207031c0-0.565918,0.0952148-1.0107422,0.2836914-1.3349609
		c0.0273438-0.0527344,0.0610352-0.1210938,0.1020508-0.2021484c0.0385742-0.0805664,0.0810547-0.1479492,0.1206055-0.2006836
		c0.1235352-0.1655273,0.159668-0.3867188,0.1010742-0.5664063c-0.0717773-0.2211914-0.2822266-0.324707-0.6074219-0.324707
		c-0.7807617-0.0800781-1.2729492,0.3505859-1.4760742,1.2939453c-0.2016602,0.9438477-0.3305664,2.3876953-0.3828125,4.3291016
		c-0.0556641,1.5361328-0.2436523,2.6308594-0.5688477,3.2763672c-0.4853516,1.0791016-1.347168,1.8476563-2.5878906,2.3056641
		c0.2158203,0.0537109,0.3979492,0.1083984,0.5458984,0.1621094c0.1484375,0.0537109,0.2636719,0.0947266,0.34375,0.1220703
		c0.6474609,0.1894531,1.0917969,0.3369141,1.3349609,0.4443359c1.4301758,0.5400391,2.4492188,1.5507813,3.0541992,3.0341797
		c0.6069336,1.4833984,1.019043,3.7226563,1.234375,6.7158203c0.0537109,1.1328125,0.2426758,1.8867188,0.5664063,2.2666016
		c0.5400391,0.5917969,1.4023438,0.8212891,2.5878906,0.6865234v2.1845703
		c-1.1855469,0.4580078-2.2246094,0.6455078-3.1132813,0.5654297c-1.6459961-0.0244141-2.8671875-0.4589844-3.6616211-1.2939453
		c-0.7963867-0.8349609-1.3012695-1.7666016-1.5170898-2.7910156c-0.215332-1.0253906-0.4448242-2.8466797-0.6879883-5.4609375
		c-0.1894531-1.7001953-0.4716797-2.8457031-0.8496094-3.4384766c-0.3510742-0.5673828-0.9042969-1.0390625-1.6586914-1.4169922
		c-0.7558594-0.3779297-1.6582031-0.4863281-2.7089844-0.3222656v12.0136719h2.7504883V47.3959961L79.9360352,47.3959961z
		 M109.5874023,40.1948242h-8.5366211l-1.3730469,5.1376953h2.7080078v2.0634766h-8.7768555v-2.0634766h2.1030273
		l7.7666016-27.0644531h4.7739258l8.0522461,27.0644531h2.6274414v2.0634766h-10.6796875v-2.0634766h2.7910156
		L109.5874023,40.1948242L109.5874023,40.1948242z M105.1796875,24.3369141l-3.4804688,13.5522461h7.2006836L105.1796875,24.3369141
		L105.1796875,24.3369141z"/>
	<path fill="#A21D20" d="M120.4702148,20.9384766v-2.1845703h10.4770508v2.0634766h-2.7490234v24.3520508h3.6806641
		c1.4287109,0,2.40625-0.1884766,2.9345703-0.5664063c0.5224609-0.3759766,0.8955078-1.0097656,1.1123047-1.8994141
		c0.0771484-0.4316406,0.1865234-1.3222656,0.3222656-2.6699219c0.0517578-0.4326172,0.1074219-0.8574219,0.1611328-1.2734375
		c0.0556641-0.4189453,0.0820313-0.8457031,0.0820313-1.2744141h3.3574219v9.9101563h-19.378418v-2.1445313h2.7104492V20.9384766
		H120.4702148L120.4702148,20.9384766z M157.5673828,40.1948242h-8.5371094l-1.3759766,5.1376953h2.7138672v2.0634766h-8.7802734
		v-2.0634766h2.1035156l7.7666016-27.0644531h4.7714844l8.0556641,27.0644531h2.625v2.0634766h-10.6806641v-2.0634766h2.7919922
		L157.5673828,40.1948242L157.5673828,40.1948242z M153.1552734,24.3369141l-3.4775391,13.5522461h7.2021484L153.1552734,24.3369141
		L153.1552734,24.3369141z M175.7294922,40.1567383l5.2626953-19.2998047h-2.5917969v-2.1030273h9.2646484v2.1030273h-2.7519531
		l-8.3330078,26.5390625h-3.1972656l-8.6542969-26.5390625h-2.7128906v-2.1030273h10.7626953v2.1030273h-2.5898438
		L175.7294922,40.1567383L175.7294922,40.1567383z M200.0039063,47.3959961h-10.3984375v-2.1445313h2.7099609V20.9384766h-2.7099609
		v-2.1845703h10.3984375v2.1845703H197.25v9.9516602c1.5380859,0.1074219,2.5507813-0.1953125,3.0361328-0.9091797
		c0.484375-0.7158203,0.7949219-1.6523438,0.9296875-2.8115234c0.0556641-0.3779297,0.1074219-0.9580078,0.1630859-1.7402344
		c0.0537109-0.7822266,0.1044922-1.3745117,0.1621094-1.7792969c0.1875-1.6181641,0.6386719-2.9335938,1.3535156-3.9448242
		c0.7148438-1.0117188,2.0966797-1.5297852,4.1484375-1.5576172c1.6972656-0.027832,2.9707031,0.4116211,3.8212891,1.3144531
		c0.8505859,0.9038086,1.2490234,1.9887695,1.1953125,3.2568359c0,0.9443359-0.2695313,1.671875-0.8095703,2.1850586
		c-0.5410156,0.5107422-1.1767578,0.7675781-1.9033203,0.7675781c-0.6191406-0.0527344-1.1787109-0.3037109-1.6787109-0.7470703
		c-0.4970703-0.4448242-0.7880859-1.0185547-0.8701172-1.7207031c0-0.565918,0.0966797-1.0107422,0.2832031-1.3349609
		c0.0263672-0.0527344,0.0625-0.1210938,0.1015625-0.2021484c0.0410156-0.0805664,0.0859375-0.1450195,0.1230469-0.2006836
		c0.125-0.1953125,0.1591797-0.418457,0.0976563-0.5664063c-0.0839844-0.2138672-0.2792969-0.324707-0.6054688-0.324707
		c-0.7783203-0.0800781-1.2734375,0.3505859-1.4726563,1.2939453c-0.2050781,0.9438477-0.3339844,2.3876953-0.3867188,4.3291016
		c-0.0527344,1.5361328-0.2441406,2.6308594-0.5654297,3.2763672c-0.4882813,1.0791016-1.3505859,1.8476563-2.5908203,2.3056641
		c0.2177734,0.0537109,0.3974609,0.1083984,0.5458984,0.1621094c0.1494141,0.0537109,0.2626953,0.0947266,0.3457031,0.1220703
		c0.6455078,0.1894531,1.0927734,0.3369141,1.3339844,0.4443359c1.4296875,0.5400391,2.4492188,1.5507813,3.0546875,3.0341797
		s1.0175781,3.7226563,1.2324219,6.7158203c0.0537109,1.1328125,0.2451172,1.8867188,0.5664063,2.2666016
		c0.5410156,0.5917969,1.4023438,0.8212891,2.5898438,0.6865234v2.1845703
		c-1.1875,0.4580078-2.2255859,0.6455078-3.1162109,0.5654297c-1.6455078-0.0244141-2.8632813-0.4589844-3.6601563-1.2939453
		c-0.7958984-0.8349609-1.3007813-1.7666016-1.5175781-2.7910156c-0.2138672-1.0253906-0.4443359-2.8466797-0.6875-5.4609375
		C202.28125,36.715332,202,35.5698242,201.6201172,34.9770508c-0.3486328-0.5673828-0.9013672-1.0390625-1.65625-1.4169922
		c-0.7558594-0.3779297-1.6591797-0.4863281-2.7138672-0.3222656v12.0136719h2.7539063V47.3959961L200.0039063,47.3959961z
		 M229.6552734,40.1948242h-8.5361328l-1.3759766,5.1376953h2.7138672v2.0634766h-8.7832031v-2.0634766h2.1064453
		l7.7666016-27.0644531h4.7724609l8.0527344,27.0644531H239v2.0634766h-10.6806641v-2.0634766h2.7929688L229.6552734,40.1948242
		L229.6552734,40.1948242z M225.2441406,24.3369141l-3.4775391,13.5522461h7.2011719L225.2441406,24.3369141L225.2441406,24.3369141
		z"/>
</g>
<g id="support">
	<path d="M23.1777344,6.574707h-0.7470703V1.1015625h-3.300293V6.574707h-0.7470703V0.4711914h4.7944336V6.574707z"/>
	<path d="M32.9511719,3.5146484c0,0.9770508-0.2602539,1.7451172-0.7802734,2.3041992
		c-0.5200195,0.5595703-1.2426758,0.8393555-2.168457,0.8393555c-0.9462891,0-1.6762695-0.2749023-2.190918-0.824707
		c-0.5136719-0.5493164-0.7709961-1.3251953-0.7709961-2.3271484c0-0.9936523,0.2578125-1.7641602,0.7734375-2.3110352
		S29.0620117,0.375,30.0112305,0.375c0.9228516,0,1.6435547,0.2783203,2.1621094,0.8349609
		S32.9511719,2.5351563,32.9511719,3.5146484z M27.831543,3.5146484c0,0.8266602,0.1850586,1.4536133,0.5561523,1.8808594
		c0.3701172,0.4272461,0.9086914,0.640625,1.6147461,0.640625c0.7119141,0,1.2495117-0.2128906,1.612793-0.6386719
		s0.5449219-1.0537109,0.5449219-1.8828125c0-0.8212891-0.1811523-1.4438477-0.5429688-1.8681641
		s-0.8969727-0.6367188-1.605957-0.6367188c-0.7119141,0-1.253418,0.2133789-1.6235352,0.640625
		C28.0166016,2.0776367,27.831543,2.6992188,27.831543,3.5146484z"/>
	<path d="M41.8803711,8.1655273H41.168457V6.574707h-4.4648438v1.5908203h-0.7119141V5.9316406h0.496582
		c0.4511719-0.7207031,0.8374023-1.597168,1.1577148-2.6298828c0.3212891-1.0327148,0.4990234-1.9760742,0.5341797-2.8305664
		h2.887207v5.4604492h0.8129883V8.1655273z M40.3203125,5.9316406V1.1098633h-1.4633789
		c-0.0527344,0.6738281-0.2299805,1.4829102-0.5317383,2.4277344s-0.6533203,1.7431641-1.0546875,2.394043H40.3203125z"/>
	<path d="M50.4584961,8.1655273H49.746582V6.574707h-4.4648438v1.5908203h-0.7119141V5.9316406h0.496582
		c0.4511719-0.7207031,0.8374023-1.597168,1.1577148-2.6298828c0.3212891-1.0327148,0.4990234-1.9760742,0.5341797-2.8305664
		h2.887207v5.4604492h0.8129883V8.1655273z M48.8984375,5.9316406V1.1098633h-1.4633789
		c-0.0527344,0.6738281-0.2299805,1.4829102-0.5317383,2.4277344S46.25,5.2807617,45.8486328,5.9316406H48.8984375z"/>
	<path d="M57.5512695,6.574707h-3.581543V0.4711914h3.581543v0.6303711h-2.8344727v1.9663086h2.6630859v0.6259766h-2.6630859
		v2.2460938h2.8344727V6.574707z"/>
	<path d="M65.4785156,2.2495117c0,0.6181641-0.2216797,1.0932617-0.6660156,1.4257813
		c-0.4433594,0.3325195-1.0786133,0.4990234-1.9047852,0.4990234h-0.7558594V6.574707h-0.7470703V0.4711914h1.6655273
		C64.6757813,0.4711914,65.4785156,1.0639648,65.4785156,2.2495117z M62.1518555,3.5644531h0.6723633
		c0.6621094,0,1.1411133-0.1015625,1.4370117-0.3046875s0.4438477-0.5288086,0.4438477-0.9765625
		c0-0.4038086-0.1391602-0.7041016-0.4174805-0.9018555s-0.7119141-0.2963867-1.3007813-0.2963867h-0.8349609V3.5644531z"/>
	<path d="M70.9980469,3.4350586l-2.5268555-2.9638672h0.8349609l2.5004883,2.9555664V0.4711914h0.7207031v2.9555664
		l2.5048828-2.9555664h0.8349609l-2.53125,2.9555664l2.6103516,3.1479492h-0.8613281l-2.5576172-3.09375v3.09375h-0.7207031
		v-3.09375l-2.5532227,3.09375h-0.8745117L70.9980469,3.4350586z"/>
	<path d="M79.2900391,0.4711914h0.6987305v3.394043c0,0.6264648-0.0205078,1.1928711-0.0615234,1.6992188h0.0351563
		l3.6035156-5.0932617h0.8173828V6.574707h-0.703125V3.2138672c0-0.559082,0.0249023-1.1464844,0.074707-1.7617188H83.715332
		L80.1074219,6.574707h-0.8173828V0.4711914z"/>
	<path d="M96.1826172,6.574707l-2.1796875-5.4106445h-0.0351563c0.0410156,0.4287109,0.0615234,0.9379883,0.0615234,1.527832
		V6.574707h-0.6899414V0.4711914h1.125l2.034668,5.034668h0.0351563l2.0522461-5.034668h1.1162109V6.574707h-0.7470703V2.6420898
		c0-0.4511719,0.0205078-0.940918,0.0615234-1.4697266h-0.0351563L96.784668,6.574707H96.1826172z"/>
	<path d="M107.4760742,6.574707h-3.581543V0.4711914h3.581543v0.6303711h-2.8344727v1.9663086h2.6630859v0.6259766h-2.6630859
		v2.2460938h2.8344727V6.574707z"/>
	<path d="M114.0810547,1.0180664c-0.7060547,0-1.2631836,0.2231445-1.6723633,0.6699219
		c-0.4082031,0.4467773-0.612793,1.0585938-0.612793,1.8349609c0,0.7988281,0.1967773,1.4160156,0.5913086,1.8515625
		c0.3935547,0.4355469,0.9555664,0.6533203,1.6850586,0.6533203c0.4482422,0,0.9594727-0.0766602,1.5336914-0.2294922v0.6220703
		c-0.4453125,0.1586914-0.9946289,0.237793-1.6479492,0.237793c-0.9462891,0-1.6762695-0.2729492-2.190918-0.8183594
		c-0.5136719-0.5454102-0.7709961-1.3203125-0.7709961-2.3251953c0-0.6289063,0.1235352-1.1801758,0.371582-1.6533203
		c0.2470703-0.4731445,0.6044922-0.8378906,1.0722656-1.09375c0.4667969-0.2558594,1.0170898-0.3842773,1.6499023-0.3842773
		c0.6738281,0,1.2626953,0.1171875,1.7666016,0.3510742l-0.3164063,0.609375
		C115.0537109,1.1264648,114.5673828,1.0180664,114.0810547,1.0180664z"/>
	<path d="M121.4160156,6.574707h-0.7475586V1.1015625h-2.034668V0.4711914h4.8164063v0.6303711h-2.0341797V6.574707z"/>
	<path d="M131.7255859,6.574707h-0.7480469V3.7026367h-3.3828125V6.574707h-0.7480469V0.4711914h0.7480469v2.5966797h3.3828125
		V0.4711914h0.7480469V6.574707z"/>
	<path d="M141.4931641,3.5146484c0,0.9770508-0.2597656,1.7451172-0.7802734,2.3041992
		c-0.5195313,0.5595703-1.2431641,0.8393555-2.1679688,0.8393555c-0.9472656,0-1.6767578-0.2749023-2.1914063-0.824707
		c-0.5136719-0.5493164-0.7714844-1.3251953-0.7714844-2.3271484c0-0.9936523,0.2578125-1.7641602,0.7734375-2.3110352
		S137.6035156,0.375,138.5527344,0.375c0.9238281,0,1.6445313,0.2783203,2.1621094,0.8349609
		C141.234375,1.7666016,141.4931641,2.5351563,141.4931641,3.5146484z M136.3730469,3.5146484
		c0,0.8266602,0.1855469,1.4536133,0.5566406,1.8808594c0.3701172,0.4272461,0.9082031,0.640625,1.6152344,0.640625
		c0.7109375,0,1.2490234-0.2128906,1.6123047-0.6386719s0.5449219-1.0537109,0.5449219-1.8828125
		c0-0.8212891-0.1806641-1.4438477-0.5429688-1.8681641c-0.3613281-0.4243164-0.8974609-0.6367188-1.6064453-0.6367188
		c-0.7109375,0-1.2529297,0.2133789-1.6230469,0.640625C136.5585938,2.0776367,136.3730469,2.6992188,136.3730469,3.5146484z"/>
	<path d="M148.9375,0.4711914v0.6386719h-2.8339844V6.574707h-0.7480469V0.4711914H148.9375z"/>
	<path d="M158.0429688,3.5146484c0,0.9770508-0.2597656,1.7451172-0.7802734,2.3041992
		c-0.5195313,0.5595703-1.2431641,0.8393555-2.1679688,0.8393555c-0.9472656,0-1.6767578-0.2749023-2.1914063-0.824707
		c-0.5136719-0.5493164-0.7714844-1.3251953-0.7714844-2.3271484c0-0.9936523,0.2578125-1.7641602,0.7734375-2.3110352
		S154.1533203,0.375,155.1025391,0.375c0.9238281,0,1.6445313,0.2783203,2.1621094,0.8349609
		C157.7841797,1.7666016,158.0429688,2.5351563,158.0429688,3.5146484z M152.9228516,3.5146484
		c0,0.8266602,0.1855469,1.4536133,0.5566406,1.8808594c0.3701172,0.4272461,0.9082031,0.640625,1.6152344,0.640625
		c0.7109375,0,1.2490234-0.2128906,1.6123047-0.6386719s0.5449219-1.0537109,0.5449219-1.8828125
		c0-0.8212891-0.1806641-1.4438477-0.5429688-1.8681641c-0.3613281-0.4243164-0.8974609-0.6367188-1.6064453-0.6367188
		c-0.7109375,0-1.2529297,0.2133789-1.6230469,0.640625C153.1083984,2.0776367,152.9228516,2.6992188,152.9228516,3.5146484z"/>
	<path d="M169.0029297,0.3833008h0.7558594v0.7514648h0.3066406c0.5019531,0,0.9355469,0.0947266,1.3037109,0.2841797
		c0.3671875,0.1889648,0.6484375,0.456543,0.84375,0.8012695c0.1943359,0.3452148,0.2919922,0.7392578,0.2919922,1.1816406
		c0,0.4619141-0.109375,0.8730469-0.3271484,1.2338867c-0.21875,0.3603516-0.5175781,0.6308594-0.8964844,0.8120117
		c-0.3798828,0.1806641-0.8271484,0.2709961-1.3427734,0.2709961h-0.1796875v0.9394531h-0.7558594V5.71875h-0.1982422
		c-0.515625,0-0.9619141-0.0917969-1.3408203-0.2753906c-0.3769531-0.1835938-0.6738281-0.456543-0.8867188-0.8183594
		c-0.2148438-0.3618164-0.3212891-0.7666016-0.3212891-1.2148438c0-0.4394531,0.0986328-0.8320313,0.296875-1.1772461
		c0.1972656-0.3452148,0.4814453-0.6142578,0.8505859-0.8076172c0.3691406-0.1938477,0.8037109-0.2905273,1.3046875-0.2905273
		h0.2949219V0.3833008z M169.0029297,1.7446289h-0.2509766c-0.5332031,0-0.953125,0.1474609-1.2587891,0.4423828
		c-0.3066406,0.2949219-0.4589844,0.6972656-0.4589844,1.206543c0,0.5483398,0.1621094,0.9736328,0.4873047,1.2753906
		s0.7832031,0.453125,1.3759766,0.453125h0.1054688V1.7446289z M169.7587891,5.1220703h0.109375
		c0.5888672,0,1.046875-0.1523438,1.3730469-0.4575195c0.3271484-0.3046875,0.4902344-0.7285156,0.4902344-1.2709961
		c0-0.5151367-0.1513672-0.918457-0.453125-1.2109375c-0.3017578-0.2919922-0.7236328-0.4379883-1.265625-0.4379883h-0.2539063
		V5.1220703z"/>
	<path d="M179.8652344,6.574707h-3.5820313V0.4711914h3.5820313v0.6303711H177.03125v1.9663086h2.6621094v0.6259766H177.03125
		v2.2460938h2.8339844V6.574707z"/>
	<path d="M187.7929688,2.2495117c0,0.6181641-0.2216797,1.0932617-0.6660156,1.4257813
		c-0.4433594,0.3325195-1.078125,0.4990234-1.9042969,0.4990234h-0.7558594V6.574707H183.71875V0.4711914h1.6660156
		C186.9902344,0.4711914,187.7929688,1.0639648,187.7929688,2.2495117z M184.4667969,3.5644531h0.671875
		c0.6621094,0,1.140625-0.1015625,1.4375-0.3046875c0.2949219-0.203125,0.4433594-0.5288086,0.4433594-0.9765625
		c0-0.4038086-0.1396484-0.7041016-0.4179688-0.9018555s-0.7109375-0.2963867-1.3007813-0.2963867h-0.8339844V3.5644531z"/>
	<path d="M194.4111328,6.574707l-2.1796875-5.4106445h-0.0351563c0.0410156,0.4287109,0.0615234,0.9379883,0.0615234,1.527832
		V6.574707h-0.6904297V0.4711914h1.125l2.0351563,5.034668h0.0351563l2.0527344-5.034668h1.1152344V6.574707h-0.7460938V2.6420898
		c0-0.4511719,0.0195313-0.940918,0.0605469-1.4697266h-0.0351563l-2.1972656,5.4023438H194.4111328z"/>
	<path d="M205.7041016,6.574707h-3.5820313V0.4711914h3.5820313v0.6303711h-2.8339844v1.9663086h2.6621094v0.6259766h-2.6621094
		v2.2460938h2.8339844V6.574707z"/>
	<path d="M213.6318359,2.2495117c0,0.6181641-0.2216797,1.0932617-0.6660156,1.4257813
		c-0.4433594,0.3325195-1.078125,0.4990234-1.9042969,0.4990234h-0.7558594V6.574707h-0.7480469V0.4711914h1.6660156
		C212.8291016,0.4711914,213.6318359,1.0639648,213.6318359,2.2495117z M210.3056641,3.5644531h0.671875
		c0.6621094,0,1.140625-0.1015625,1.4375-0.3046875c0.2949219-0.203125,0.4433594-0.5288086,0.4433594-0.9765625
		c0-0.4038086-0.1396484-0.7041016-0.4179688-0.9018555s-0.7109375-0.2963867-1.3007813-0.2963867h-0.8339844V3.5644531z"/>
	<path d="M221.4453125,6.574707l-0.7998047-1.9414063h-2.5751953l-0.7910156,1.9414063h-0.7558594l2.5400391-6.128418h0.6279297
		l2.5273438,6.128418H221.4453125z M220.4121094,3.9946289l-0.7460938-1.8911133
		c-0.0976563-0.2392578-0.1972656-0.5332031-0.2988281-0.8808594c-0.0654297,0.2670898-0.1572266,0.5610352-0.2773438,0.8808594
		l-0.7558594,1.8911133H220.4121094z"/>
</g>
</svg>