<?xml version="1.0" encoding="utf-8"?>
<!DOCTYPE svg PUBLIC "-//W3C//DTD SVG 1.1//EN" "http://www.w3.org/Graphics/SVG/1.1/DTD/svg11.dtd">
<svg version="1.1" id="iLogin" xmlns="http://www.w3.org/2000/svg" xmlns:xlink="http://www.w3.org/1999/xlink" x="0px" y="0px" width="100%" height="100%" viewBox="0 0 240 240" preserveAspectRatio="xMidYMid meet">
<g id="iLogin">
	<path fill="#2B2B2B" d="M145.6542969,160h0.0048828c-5.1220703,0-5.2490234-14.6630859-5.2490234-14.6630859
		s15.0537109-14.7802734,18.3349609-34.8046875c8.8085938,0,14.2578125-21.2231445,5.4345703-28.7084961
		c0.3759766-7.8857422,11.3330078-61.8520508-44.1699219-61.8520508c-55.5126953,0-44.5458984,54.0083008-44.1894531,61.894043
		c-8.8085938,7.4853516-3.3642578,28.7719727,5.4492188,28.7719727
		c3.2763672,20.0244141,18.3154297,34.9199219,18.3154297,34.9199219s-0.1171875,14.0693359-5.2392578,14.8896484
		C77.8662109,163.0742188,16.2988281,190.234375,16.2988281,220h207.4023438
		C223.7011719,190.234375,162.1337891,163,145.6542969,160z M95.6049805,168.3486328
		c10.6547852-1.7060547,11.9272461-16.4570313,11.9799805-22.7207031l0.027832-3.375l-2.3989258-2.3759766
		c-0.1279297-0.1279297-13.2749023-13.390625-16.0493164-30.3461914L88.0571289,103h-5.7460938
		c-0.8413086-1.0478516-2.0463867-2.7456055-2.6518555-5.9160156c-0.8398438-4.4033203,0.0644531-7.9335938,1.3417969-9.019043
		l2.9873047-2.5976563l-0.1762695-3.9262695c-0.0424805-0.9399414-0.1679688-2.1152344-0.3134766-3.4760742
		c-0.9023438-8.4394531-3.0146484-28.2036133,7.5693359-39.9790039
		c6.0141602-6.6904297,15.7514648-10.0830078,28.9418945-10.0830078c13.1953125,0,22.9335938,3.394043,28.9433594,10.0874023
		c10.5917969,11.7954102,8.4589844,31.559082,7.5488281,39.9990234c-0.1513672,1.3964844-0.2705078,2.4995117-0.3134766,3.4111328
		l-0.1875,3.9321289l3.0029297,2.5473633c1.2841797,1.0893555,2.1933594,4.6459961,1.3496094,9.0922852
		c-0.6025391,3.1762695-1.8076172,4.8769531-2.6503906,5.9277344h-5.7431641l-1.1074219,6.5170898
		c-2.8095703,17.1411133-15.9355469,30.3139648-16.0673828,30.4448242l-2.4052734,2.3212891l0.0302734,3.3720703
		c0.0566406,6.2587891,1.3369141,20.9990234,11.9833984,22.7041016
		c15.4492188,2.4628906,59.0986328,23.6816406,69.1884766,43.640625H26.4174805
		C36.5092773,192.0351563,80.1582031,170.8115234,95.6049805,168.3486328z"/>
</g>
</svg>
