<?xml version="1.0" encoding="utf-8"?>
<!DOCTYPE svg PUBLIC "-//W3C//DTD SVG 1.1//EN" "http://www.w3.org/Graphics/SVG/1.1/DTD/svg11.dtd">
<svg version="1.1" id="iLove" xmlns="http://www.w3.org/2000/svg" xmlns:xlink="http://www.w3.org/1999/xlink" x="0px" y="0px" width="100%" height="100%" viewBox="0 0 240 240" preserveAspectRatio="xMidYMid meet">
<path fill="none" stroke="#ffffff" stroke-width="17" stroke-miterlimit="10" d="M192.625,36.2128906
	c-24.8466797-12.0966797-54.2080078-2.4584961-67.9472656,21.4355469c-0.0097656,0.0083008-0.0097656,0.0083008-0.0292969,0.0185547
	c-0.0283203,0.0722656-0.0654297,0.1547852-0.1191406,0.2192383c-0.0087891,0.027832-0.0253906,0.0541992-0.0371094,0.0727539
	c-0.9404297,1.5449219-2.6044922,2.5786133-4.4980469,2.5786133c-1.9023438,0-3.5561523-1.0336914-4.4985352-2.5786133
	c-0.0180664-0.0185547-0.0283203-0.0449219-0.0463867-0.0727539c-0.0449219-0.0644531-0.0908203-0.1469727-0.1186523-0.2192383
	c0-0.0102539,0-0.0102539-0.0092773-0.0185547c-13.7348633-23.894043-43.0976563-33.5322266-67.9511719-21.4355469
	C20.9790039,49.043457,9.6494141,81.5512695,22.0854492,108.8203125
	c9.8212891,21.5195313,65.0810547,74.7148438,87.9599609,96.2021484h0.0268555
	c2.6162109,2.4697266,6.090332,3.9873047,9.921875,3.9873047c3.8037109,0,7.2783203-1.5009766,9.9091797-3.9404297l0,0
	c22.8505859-21.4619141,78.1738281-74.7109375,88.0048828-96.2490234
	C230.3525391,81.5512695,219.0322266,49.043457,192.625,36.2128906z"/>
<path opacity="0" fill="#ED8AC6" d="M119.9941406,217.5097656c-4.6225586,0-9.0844727-1.3964844-12.8779297-3.9873047h-0.409668
	l-2.4799805-2.3037109c-29.2509766-27.4716797-79.8232422-76.8466797-89.8740234-98.8691406
	c-14.3129883-31.3847656-1.1679688-68.9682617,29.3012695-83.78125c8.2861328-4.0332031,17.109375-6.0786133,26.2216797-6.0786133
	c19.9511719,0,38.7299805,10.0961914,50.1245117,26.6518555c11.3964844-16.5551758,30.1757813-26.6518555,50.1240234-26.6518555
	c9.1113281,0,17.9335938,2.0458984,26.2216797,6.0805664c30.4746094,14.8071289,43.6191406,52.3911133,29.2949219,83.7788086
	c-10.0537109,22.0258789-60.6513672,71.4282227-89.9179688,98.9155273
	C131.3652344,215.3056641,125.7939453,217.5097656,119.9941406,217.5097656z"/>
</svg>
