<?xml version="1.0" encoding="utf-8"?>
<!DOCTYPE svg PUBLIC "-//W3C//DTD SVG 1.1//EN" "http://www.w3.org/Graphics/SVG/1.1/DTD/svg11.dtd">
<svg version="1.1" id="iMakaronyi-i-lapsha" xmlns="http://www.w3.org/2000/svg" xmlns:xlink="http://www.w3.org/1999/xlink" x="0px" y="0px" width="100%" height="100%" viewBox="0 0 48 48" preserveAspectRatio="xMidYMid meet">
<path fill="none" d="M9.6982422,29.2207031c-0.4897461-0.2685547-0.9785156-0.5742188-1.4672852-0.8701172
	C8.7197266,28.6464844,9.2084961,28.9521484,9.6982422,29.2207031z"/>
<path fill="none" d="M28.0996094,23.7099609c-0.2011719,0.0498047-0.40625,0.0932617-0.6113281,0.1376953
	C27.6923828,23.8027344,27.8955078,23.7612305,28.0996094,23.7099609z"/>
<path fill="none" d="M12.1049805,30.4306641c-0.1713867-0.078125-0.3417969-0.1748047-0.5131836-0.2568359
	C11.7631836,30.2558594,11.9335938,30.3525391,12.1049805,30.4306641z"/>
<path fill="none" d="M32.9697266,27.1669922C29.7998047,28.4257813,26.5761719,29,23.359375,29
	c-0.0004883,0-0.0009766,0-0.0014648,0c-3.8652344,0-7.6787109-0.8828125-11.3828125-2.7265625
	C20.1894531,30.4648438,27.578125,29.3681641,32.9697266,27.1669922z"/>
<path fill="none" d="M42.5458984,14.3623047c-0.0615234,0.0727539-0.1435547,0.1645508-0.2148438,0.2470703
	c0.1679688-0.1787109,0.2685547-0.2895508,0.2744141-0.2963867l0.0537109-0.0605469l-0.0400391,0.0341797
	C42.5869141,14.3115234,42.5654297,14.3383789,42.5458984,14.3623047z"/>
<path fill="none" d="M26.6660156,24.0175781c-0.5078125,0.0883789-1.0244141,0.1616211-1.5507813,0.2124023
	C25.6318359,24.1777344,26.1484375,24.1103516,26.6660156,24.0175781z"/>
<polygon fill="none" points="8.2128906,24.0424805 8.2124023,24.0424805 8.2128906,24.0424805 "/>
<path fill="#2B2B2B" d="M11.0048828,20.8779297l-0.8637695,0.2871094l0.1518555,1.1459961
	c0.6289063,0.4614258,4.7456055,3.3383789,10.6274414,4.1118164c0.9428711,0.125,1.9018555,0.1875,2.8496094,0.1875
	c5.0756836,0,12.7036133-1.8642578,20.3071289-10.7070313l-1.4179688-0.0820313l-0.0673828-1.1240234
	c-0.9433594,1.0131836-5.0195313,5.2099609-9.5761719,7.4560547c-3.28125,1.6171875-6.6113281,2.4370117-9.8979492,2.4370117
	c-4.0449219,0-8.1054688-1.2397461-12.0683594-3.6850586L11.0048828,20.8779297z"/>
<path fill="#2B2B2B" d="M23.7138672,22.1137695c6.0068359-0.0004883,11.6953125-2.8730469,16.9140625-8.5419922L40.09375,13.515625
	l-0.5039063-0.4672852c-0.6914063,0.8935547-5.6044922,6.8818359-13.0478516,7.9311523
	c-0.7412109,0.1049805-1.5107422,0.2133789-2.2548828,0.2133789h-0.0004883c-4.0991211,0-8.2324219-1.5839844-12.2871094-4.7080078
	l-0.8154297,1.2583008c0.0444336,0.0283203,0.1025391,0.0654297,0.1782227,0.1142578
	c3.4462891,2.2143555,6.6264648,3.5683594,9.4521484,4.0234375C21.7714844,22.0356445,22.7470703,22.1137695,23.7138672,22.1137695z
	"/>
<path fill="#2B2B2B" d="M41.3232422,14.2666016l-0.1152344-0.5678711c-5.375,5.9262695-11.2597656,8.9301758-17.4956055,8.9301758
	c-0.9936523,0-1.996582-0.0805664-2.9804688-0.2387695c-4.8061523-0.7749023-8.1088867-3.0927734-8.909668-3.7016602
	l-0.8032227,0.7226563l0.234375,1.0146484l0.0673828,0.0424805c3.8793945,2.3945313,7.8657227,3.6088867,11.8452148,3.6088867
	c9.9296875,0,17.0615234-7.3867188,19.1181641-9.7929688L41.3232422,14.2666016z"/>
<path fill="#2B2B2B" d="M11.9750977,26.2734375c-1.2675781-0.6298828-2.5224609-1.3710938-3.762207-2.230957H8.2124023
	L7.2651367,24.03125l-0.0561523,0.8051758l0.0009766,0.0004883c0.0336914,0.0214844,0.0541992,0.0351563,0.0571289,0.0371094
	c0.2055664,0.1669922,5.0117188,4.0136719,12.159668,5.2929688c1.496582,0.2666016,3.0200195,0.4023438,4.5292969,0.4023438
	c8.0576172,0,15.6533203-3.6914063,22.5800781-10.9731445l-1.1074219-0.4438477l0.0771484-0.7094727
	c-1.1914063,1.3173828-5.0664063,5.1694336-10.6816406,7.9145508c-0.6152344,0.3007813-1.234375,0.5634766-1.8544922,0.8095703
	C27.578125,29.3681641,20.1894531,30.4648438,11.9750977,26.2734375z"/>
<path fill="#2B2B2B" d="M24.6264648,34.3779297c8.5249023,0,16.3178711-3.4960938,23.1655273-10.3920898l-1.1064453-0.5737305
	l0.2822266-0.6616211c-1.6279297,1.7905273-5.5927734,5.684082-11.3066406,8.2553711
	c-3.6494141,1.6396484-7.4570313,2.4716797-11.3178711,2.4716797c-6.5786133,0-13.199707-2.4179688-19.6801758-7.1875
	l-1.0761719-0.4130859l-0.815918,0.8994141C3.6313477,27.4384766,9.3134766,31.640625,17.2182617,33.5
	C19.6899414,34.0830078,22.1826172,34.3779297,24.6264648,34.3779297z"/>
<path fill="#2B2B2B" d="M34.5898438,26.0224609c6.0214844-2.9379883,10.0087891-7.3134766,10.7910156-8.2143555l-1.0576172-0.565918
	l0.0341797-0.8764648C36.6591797,25.25,28.9228516,27.125,23.7661133,27.125c-0.9692383,0-1.9492188-0.0644531-2.9130859-0.1914063
	c-5.9995117-0.7910156-10.1977539-3.7192383-10.8554688-4.2016602l-1.2827148,0.3188477l-0.1342773,0.7436523
	c4.7519531,3.2768555,9.7255859,4.9379883,14.7832031,4.9379883C27.1298828,28.7324219,30.9072266,27.8212891,34.5898438,26.0224609
	z"/>
<path fill="#2B2B2B" d="M1.7890625,25.5537109L1.112793,25.6103516C3.484375,30.40625,13.3725586,35.625,24.984375,35.625
	c0.6201172-0.0009766,1.3632813-0.0625,1.984375-0.09375c13.3505859-0.671875,20.2392578-10.0527344,20.3085938-10.1435547
	l0.1845703-0.359375c-6.78125,6.5458984-14.4609375,9.8632813-22.8359375,9.8632813
	c-2.4868164,0-5.0219727-0.2998047-7.5361328-0.8925781C8.5458984,31.9853516,2.5761719,27.0185547,2.515625,26.96875L2.5,26.9375
	L1.7890625,25.5537109z"/>
<path fill="#2B2B2B" d="M12.1982422,15.9873047c4.71875,3.6723633,9.5366211,5.2055664,14.2519531,4.5385742
	c6.0898438-0.8579102,10.9306641-5.5478516,12.6279297-7.4946289l-0.640625-0.1875
	c-4.1396484,3.7202148-8.2714844,7.0859375-13.9892578,7.1806641c-0.0654297,0.0009766-0.1303711,0.0014648-0.1962891,0.0014648
	c-5.7006836,0-11.5087891-4.378418-12.9863281-5.4790039l-0.3095703,1.4165039l1.2084961-0.0024414L12.1982422,15.9873047z"/>
<path fill="#2B2B2B" d="M47.2148438,21.6879883l-1.1865234-0.324707l0.3427734-0.9243164
	C39.46875,27.5019531,31.8896484,31.0820313,23.8369141,31.0820313c-1.5444336,0-3.1015625-0.1376953-4.6274414-0.4101563
	c-6.8461914-1.2246094-11.8798828-4.8994141-12.3662109-5.2636719l-1.190918,0.0761719L5.190918,26.0507813
	C11.5,30.6474609,17.9316406,32.9765625,24.3105469,32.9765625c3.7851563,0,7.5302734-0.8193359,11.1298828-2.4375
	C42.0751953,27.5585938,46.34375,22.7299805,47.2148438,21.6879883z"/>
<path fill="#2B2B2B" d="M10.6391602,16.206543l0.3886719-1.7553711L9.9560547,14.9375l-0.9775391-1.1689453l-0.4863281,0.8779297
	l-1.3676758-0.684082l-0.6816406,1.0742188l-0.9755859-0.3901367L5.1743164,15.621582L3.515625,15.8164063l0.2919922,1.1713867
	l-1.2680664,0.2929688l0.2919922,1.4643555l-1.4628906,0.0961914l0.4882813,1.1723633l-1.3662109,0.4868164l0.487793,1.0722656
	l-0.9760742,1.2700195l0.9760742,1.1704102l-0.1958008,1.3666992l1.171875-0.0976563l0.5849609,1.3652344l0.9765625-1.0732422
	l1.2680664,0.4892578l0.6831055-0.8779297l1.4643555-0.0976563l0.0961914-1.2695313l1.2685547,0.0961914l0.1958008-1.0717773
	l1.5605469-0.3901367l-0.1953125-1.4658203l1.1704102-0.3886719l-0.2915039-1.2670898l0.9633789-0.9707031l-0.9633789-0.3984375
	l1.0727539-1.6572266L10.6391602,16.206543z M7.4780273,21.902832c-1.7241211,1.8085938-3.7495117,2.6040039-4.5703125,1.8212891
	c-0.8188477-0.7832031-0.4819336-3.0922852,1.2426758-4.9008789c1.7241211-1.8071289,4.0957031-2.421875,4.9169922-1.6386719
	C9.8876953,17.9667969,9.203125,20.0952148,7.4780273,21.902832z"/>
</svg>