<?xml version="1.0" encoding="utf-8"?>
<!DOCTYPE svg PUBLIC "-//W3C//DTD SVG 1.1//EN" "http://www.w3.org/Graphics/SVG/1.1/DTD/svg11.dtd">
<svg version="1.1" id="iMessage" xmlns="http://www.w3.org/2000/svg" xmlns:xlink="http://www.w3.org/1999/xlink" x="0px" y="0px" width="100%" height="100%" viewBox="0 0 48 48" preserveAspectRatio="xMidYMid meet">
<path id="Envelope" fill="#ffffff" d="M45,12.5014648C45,10.8334961,44.25,10,42.4990234,10H5.5009766
	C3.9169922,10,3,10.8334961,3,12.5014648v22.996582C3,37.4589844,4,38,5.5009766,38h36.9980469C44.5,38,45,37,45,35.4980469
	V12.5014648z M25.3955078,28.3740234c-0.8256836,0.6220703-2.0039063,0.6230469-2.831543-0.0009766L6,16.1289063
	C6,14.5834961,6.996582,13,8.2553711,13h31.4506836C40.9658203,13,42,14,42,16.1015625L25.3955078,28.3740234z
	 M15.8984375,25.6621094l5.5678711,4.1806641c1.4624023,1.09375,3.565918,1.09375,5.0268555,0l5.5703125-4.1806641L42,32.9169922
	C42,34.4375,40.9658203,35,39.7060547,35H8.2553711C6.9960938,35,6.065918,34.2119141,6,32.96875L15.8984375,25.6621094z
	 M6,30.8837891V18.0625l8.5727539,6.4575195L6,30.8837891z M42,18.1572266v12.7207031l-8.4824219-6.3603516L42,18.1572266z"/>
</svg>