<?xml version="1.0" encoding="utf-8"?>
<!DOCTYPE svg PUBLIC "-//W3C//DTD SVG 1.1//EN" "http://www.w3.org/Graphics/SVG/1.1/DTD/svg11.dtd">
<svg version="1.1" id="iMoloko" xmlns="http://www.w3.org/2000/svg" xmlns:xlink="http://www.w3.org/1999/xlink" x="0px" y="0px" width="100%" height="100%" viewBox="0 0 48 48" preserveAspectRatio="xMidYMid meet">
<path fill="#2B2B2B" d="M31.0009766,25.9375c-0.4960938-8.2421875-5.6103516-7.9448242-5.3632813-10.9238281
	c0.2490234-2.9799805,0.8955078-3.4765625,1.2929688-3.8237305c0.3964844-0.3481445,1.2402344-0.7451172,1.7382813-0.9438477
	c0.4951172-0.1987305,0.6943359-0.3476563,0.6445313-0.9931641s-1.1425781-2.4335938-4.4199219-3.7246094
	c-3.2773438-1.2915039-10.5776367-1.5883789-14.4013672,0C6.668457,7.1176758,6.171875,8.6074219,6.3701172,10.0473633
	c-1.6386719-0.0991211-4.6679688,0.2480469-5.5117188,2.1850586c-0.8447266,1.9365234-1.6391602,4.9663086,0.5957031,8.7402344
	c2.2353516,3.7744141,2.6816406,4.0229492,2.6816406,4.0229492s-0.1987305,1.6391602,0.0991211,2.184082
	c0.2978516,0.546875,0.6459961,0.8945313,0.6459961,0.8945313s0.1982422,2.8300781,1.0913086,4.9648438
	c0.8945313,2.1367188,2.434082,4.8183594,4.7680664,7.0507813c0,0,2.0854492,2.484375,6.8032227,2.484375
	c4.7182617,0,6.1577148-1.1425781,7.6977539-2.484375C26.7802734,38.7519531,31.4970703,34.1816406,31.0009766,25.9375z
	 M27.78125,18.453125c0.0136719,0.7099609-0.625,4.8041992-11.0322266,4.8041992
	c-6.7255859,0-9.3896484-3.5810547-9.4174805-3.6166992l0.152832-0.21875
	c0.0258789,0.0361328,2.6464844,3.6362305,9.2646484,3.6362305c10.0947266,0,10.7470703-4.246582,10.7353516-4.9018555
	L27.78125,18.453125z M26.921875,17.75l0.265625,0.171875c0,1-1.9794922,4.2329102-10.2890625,4.2705078
	C9.3125,22.2265625,7.8188477,18.2949219,7.953125,18.8085938l0.1533203-0.2231445
	c0.0068359,0.0341797,2.2060547,3.3920898,8.7919922,3.3920898C26.203125,21.9775391,26.921875,17.75,26.921875,17.75z
	 M26.46875,17.21875l0.21875,0.265625c-0.0537109,0.1328125-1.4619141,3.2900391-8.8896484,3.7368164
	c-0.4516602,0.0268555-0.8842773,0.0390625-1.2954102,0.0390625c-6.3496094,0-7.9658203-3.0356445-8.0356445-3.1728516
	L8.59375,17.828125c0.0180664,0.0351563,1.9052734,3.6362305,9.1928711,3.1943359
	C25.0693359,20.5849609,26.4580078,17.2504883,26.46875,17.21875z M6.9667969,8.359375
	c1.4892578-2.7817383,6.1572266-3.2783203,6.1572266-3.2783203S7.4135742,7.0673828,7.3134766,8.359375
	c-0.0561523,0.7319336,0.1293945,1.7670898,1.8383789,2.5263672c0.0834961-0.4448242,3.1054688-2.628418,7.8950195-2.6757813
	c4.3671875-0.043457,7.3388672,1.0043945,8.0683594,1.6044922c0.3183594-0.1655273,0.6083984-0.3237305,0.8710938-0.4624023
	c1.6875-0.8935547,1.6875-0.5463867,2.2851563-0.6455078c0.5947266-0.0991211-0.8945313,0.5961914-1.3925781,0.7944336
	c-0.4951172,0.1987305-3.6235352,3.4267578-10.4765625,3.1782227C9.5488281,12.4306641,5.6787109,10.7626953,6.9667969,8.359375z
	 M7.0395508,11.265625c1.0292969,0.8920898,3.90625,2.7084961,10.0566406,2.4067383
	c3.5073242-0.171875,8.7905273-1.9858398,8.7905273-1.9858398S20.484375,14.21875,17.09375,14.21875
	C12.550293,14.21875,9.6665039,13.7695313,7.0395508,11.265625c-0.3251953-0.2822266-0.4702148-0.4736328-0.4702148-0.4736328
	C6.7236328,10.9584961,6.8813477,11.1142578,7.0395508,11.265625z M3.3911133,20.7246094
	c-2.1362305-3.8740234-2.0366211-6.6552734,0.1479492-8.1450195c2.1860352-1.4897461,3.7744141,0.5966797,4.5698242,1.6889648
	c0.793457,1.0922852,0.4462891,1.2910156,0.5961914,1.4892578c0.1254883,0.1689453,0.3476563,0.0571289,0.4169922,0.0170898
	c0.0288086-0.4287109,0.0297852-0.0170898,0.0297852-0.0170898s-0.0175781,0.0107422-0.0297852,0.0170898
	C9.1157227,15.855957,9.1088867,15.956543,9.1020508,16.105957c-0.0322266,0.5908203-0.6206055,1.7026367-1.2373047,2.6113281
	c-0.3466797,0.5-0.7167969,0.9570313-1.0473633,1.3393555c-0.9438477,1.0927734-1.7382813,3.7104492-1.7382813,3.7104492
	S5.5258789,24.5976563,3.3911133,20.7246094z M16.90625,24.515625c-9.2612305,0-10.1713867-3.9990234-10.203125-4.15625
	L6.84375,20.1875c0.0063477,0.0380859,0.9545898,4.078125,10.03125,4.078125c9.3974609,0,11.4541016-3.15625,11.5-5.21875
	l0.3125,0.40625C28.6396484,21.6040039,26.4648438,24.515625,16.90625,24.515625z M27.9726563,32.7929688
	c-1.9365234,4.4667969-4.9658203,7.7949219-4.9658203,7.7949219s3.5927734-5.6230469,4.5185547-8.09375
	c1.3408203-3.5761719,1.2900391-6.8046875,1.0917969-8.4921875C28.6171875,24.0019531,29.9111328,28.3222656,27.9726563,32.7929688z
	"/>
<path fill="#2B2B2B" d="M39.8544922,29.2460938c-7.1992188,0-9.0859375,3.078125-9.0859375,3.078125
	s0.1972656,3.0791016,0.7441406,5.4628906c0.5478516,2.3837891,1.8867188,5.859375,7.9960938,5.859375
	c4.765625,0,6.6542969-2.9296875,7.3984375-4.6171875C47.6513672,37.3408203,48,32.671875,48,32.671875
	S47.0556641,29.2460938,39.8544922,29.2460938z M39.4091797,31.3310547c5.2626953,0,7.7460938,2.1357422,7.7460938,2.4833984
	c0,0.3486328-2.9804688,2.2841797-7.3486328,2.2841797c-3.8759766,0-7.6982422-1.0927734-7.8964844-2.1845703
	C31.8388672,33.5224609,34.1455078,31.3310547,39.4091797,31.3310547z M39.3095703,42.8017578
	c-4.0224609,0-5.7109375-1.8740234-5.7109375-1.8740234s2.0859375,1.4287109,5.7109375,1.4287109
	c3.2275391,0,5.4121094-1.6308594,5.4121094-1.6308594S42.9853516,42.8017578,39.3095703,42.8017578z M39.8066406,37.1904297
	c-7.1513672,0-8.5908203-3.0273438-8.5908203-3.0273438s2.3330078,2.4814453,8.5908203,2.4814453
	c6.2558594,0,7.8447266-2.7802734,7.8447266-2.7802734S46.9580078,37.1904297,39.8066406,37.1904297z"/>
</svg>
