<?xml version="1.0" encoding="utf-8"?>
<!DOCTYPE svg PUBLIC "-//W3C//DTD SVG 1.1//EN" "http://www.w3.org/Graphics/SVG/1.1/DTD/svg11.dtd">
<svg version="1.1" id="iMoreproduktyi" xmlns="http://www.w3.org/2000/svg" xmlns:xlink="http://www.w3.org/1999/xlink" x="0px" y="0px" width="100%" height="100%" viewBox="0 0 48 48" preserveAspectRatio="xMidYMid meet">
<path fill="#B2B2B2" d="M16.0532227,41.21875c-1.5625-1.5634766-1.6225586-4.4560547-0.0234375-6.0556641
	c1.5981445-1.5996094,4.2402344-2.2978516,5.984375-4.8417969c1.2211914-1.7832031,1.4477539-4.4824219,1.4755859-5.9487305
	c-2.0883789-0.5961914-4.6040039-4.574707-6.0332031-8.6616211c-1.3588867,0.0268555-2.4492188,0.2089844-3.5727539,0.359375
	c-1.4233398,0.1904297-2.9624023-0.7387695-3.1484375-2.1308594c-0.1865234-1.3935547,0.8227539-3.1499023,3.3920898-2.1811523
	c0,0-2.2768555-1.9462891-3.8769531,0.1455078c-1.5996094,2.0917969-1.125,4.1352539,0.4360352,5.3291016
	c1.559082,1.1923828,2.8022461,1.2695313,4.5366211,1.0385742c0.484375-0.0644531,1.097168-0.046875,1.7441406,0.0195313
	c-0.9057617,0.3295898-2.5058594,0.5039063-4.5239258,0.7104492c-2.8344727,0.2910156-3.3793945,0.5820313-4.8696289,1.8896484
	c-1.4892578,1.3081055-3.4155273,2.4716797-4.6870117,2.144043c-1.2729492-0.3266602-1.4907227-2.3256836-1.4536133-3.1977539
	c0.0366211-0.8720703,0.1806641-2.0712891,2.2885742-2.9794922c2.1083984-0.9077148,3.034668,1.762207,3.034668,1.762207
	c0.1274414-1.6166992-0.9995117-2.6523438-2.652832-2.6523438c-1.6538086,0-4.0517578,1.5258789-4.0517578,4.6689453
	c0,3.1435547,0.9453125,5.2333984,5.2324219,4.796875c4.121582-0.4199219,2.9438477-2.652832,5.6694336-2.652832
	s4.3969727,0.2182617,7.340332-2.7250977c0.0522461-0.0527344,0.0942383-0.1044922,0.1435547-0.1572266
	c-0.152832,0.5-0.3393555,0.8427734-0.3618164,0.8833008c-1.5649414,2.8100586-2.6162109,4.1435547-6.6860352,4.1435547
	s-5.9414063,1.6166992-7.4130859,3.0874023c-1.4711914,1.4726563-1.5991211,5.0888672-0.0732422,7.1220703
	c1.5268555,2.0371094,2.4941406,1.9248047,3.0893555,3.8164063c0.3994141,1.2714844-1.199707,1.5976563-1.199707,1.5976563
	c1.0537109,0.1474609,3.7250977-1.1064453,0.2553711-4.5771484C2.5771484,32.5019531,4.375,30.2109375,5.7929688,29.1035156
	c1.4902344-1.1621094,4.5424805,0.7636719,8.0302734,0.4365234c2.9541016-0.2773438,6.1254883-4.0996094,7.0595703-7.1674805
	c0.0375977,0.2441406,0.0629883,0.4726563,0.0629883,0.6625977c0,1.871582-3.9155273,6.4873047-5.8603516,8.4326172
	c-1.9438477,1.9433594-2.3154297,3.3417969-2.3154297,6.4296875s2.3203125,5.4179688,6.4628906,5.4179688
	c4.1420898,0,3.7358398-4.1757813,3.7358398-4.1757813C22.96875,42.5546875,17.6157227,42.7802734,16.0532227,41.21875z"/>
<path fill="#B2B2B2" d="M31.9462891,41.21875c1.5634766-1.5634766,1.6220703-4.4560547,0.0253906-6.0556641
	c-1.6005859-1.5996094-4.2421875-2.2978516-5.9853516-4.8417969c-1.2216797-1.7832031-1.4492188-4.4824219-1.4760742-5.9487305
	c2.0883789-0.5961914,4.6049805-4.574707,6.0336914-8.6616211c1.359375,0.0268555,2.4482422,0.2089844,3.5722656,0.359375
	c1.4238281,0.1904297,2.9619141-0.7387695,3.1494141-2.1308594c0.1845703-1.3935547-0.8251953-3.1499023-3.3925781-2.1811523
	c0,0,2.2773438-1.9462891,3.8759766,0.1455078s1.125,4.1352539-0.4355469,5.3291016
	c-1.5595703,1.1923828-2.8017578,1.2695313-4.5371094,1.0385742c-0.4833984-0.0644531-1.0966797-0.046875-1.7441406,0.0195313
	c0.90625,0.3295898,2.5068359,0.5039063,4.5244141,0.7104492c2.8349609,0.2910156,3.3798828,0.5820313,4.8691406,1.8896484
	c1.4912109,1.3081055,3.4150391,2.4716797,4.6875,2.144043c1.2724609-0.3266602,1.4902344-2.3256836,1.4541016-3.1977539
	s-0.1816406-2.0712891-2.2900391-2.9794922c-2.1074219-0.9077148-3.0332031,1.762207-3.0332031,1.762207
	c-0.1269531-1.6166992,0.9990234-2.6523438,2.6513672-2.6523438c1.6542969,0,4.0527344,1.5258789,4.0527344,4.6689453
	c0,3.1435547-0.9453125,5.2333984-5.2324219,4.796875c-4.1210938-0.4199219-2.9433594-2.652832-5.6689453-2.652832
	s-4.3974609,0.2182617-7.3398438-2.7250977c-0.0527344-0.0527344-0.0957031-0.1044922-0.1445313-0.1572266
	c0.1533203,0.5,0.3388672,0.8427734,0.3623047,0.8833008c1.5654297,2.8100586,2.6152344,4.1435547,6.6855469,4.1435547
	c4.0712891,0,5.9414063,1.6166992,7.4130859,3.0874023c1.4707031,1.4726563,1.5986328,5.0888672,0.0732422,7.1220703
	c-1.5263672,2.0371094-2.4941406,1.9248047-3.0898438,3.8164063c-0.3984375,1.2714844,1.1992188,1.5976563,1.1992188,1.5976563
	c-1.0537109,0.1474609-3.7246094-1.1064453-0.2539063-4.5771484c3.4707031-3.4697266,1.6738281-5.7607422,0.2539063-6.8681641
	c-1.4902344-1.1621094-4.5410156,0.7636719-8.0292969,0.4365234c-2.9541016-0.2773438-6.125-4.0996094-7.0595703-7.1674805
	c-0.0380859,0.2441406-0.0634766,0.4726563-0.0634766,0.6625977c0,1.871582,3.9150391,6.4873047,5.8603516,8.4326172
	c1.9443359,1.9433594,2.3154297,3.3417969,2.3154297,6.4296875s-2.3193359,5.4179688-6.4619141,5.4179688
	S25.03125,39.1396484,25.03125,39.1396484C25.03125,42.5546875,30.3847656,42.7802734,31.9462891,41.21875z"/>
<path fill="#B2B2B2" d="M29.8037109,7.3896484c-1.3056641-1.7192383-3.4179688-2.7050781-5.7944336-2.7050781
	c-2.3774414,0-4.4121094,0.9418945-5.7294922,2.6538086c-1.3325195,1.7299805-1.7358398,4.0874023-1.1069336,6.4663086
	c1.4057617,5.3237305,4.7285156,10.3569336,6.8364258,10.3569336c2.2602539,0,5.4731445-5.46875,6.8374023-10.3588867
	C31.5078125,11.4238281,31.1386719,9.1459961,29.8037109,7.3896484z M21.2910156,18.9492188
	c0,0-0.8222656,0.0820313-1.4404297-0.6552734c-0.6191406-0.7373047-0.3867188-1.6201172-0.3867188-1.6201172
	s0.6953125-0.0419922,1.3320313,0.71875C21.4345703,18.1542969,21.2910156,18.9492188,21.2910156,18.9492188z
	 M27.9335938,18.2939453c-0.6181641,0.7373047-1.4404297,0.6552734-1.4404297,0.6552734s-0.1435547-0.7949219,0.4951172-1.5566406
	c0.6367188-0.7607422,1.3320313-0.71875,1.3320313-0.71875S28.5527344,17.5566406,27.9335938,18.2939453z"/>
</svg>