<?xml version="1.0" encoding="utf-8"?>
<!DOCTYPE svg PUBLIC "-//W3C//DTD SVG 1.1//EN" "http://www.w3.org/Graphics/SVG/1.1/DTD/svg11.dtd">
<svg version="1.1" id="iNews" xmlns="http://www.w3.org/2000/svg" xmlns:xlink="http://www.w3.org/1999/xlink" x="0px" y="0px" width="100%" height="100%" viewBox="0 0 48 48" preserveAspectRatio="xMidYMid meet">
<path id="base" fill="#2B2B2B" d="M9.1787109,4.0209961V44h30.4013672V4L9.1787109,4.0209961z M38.0605469,40.5800781
	c0,1.0556641-0.8583984,1.9140625-1.9140625,1.9140625H12.6132813c-1.0566406,0-1.9150391-0.8583984-1.9150391-1.9140625V7.4194336
	c0-1.0556641,0.8583984-1.9145508,1.9150391-1.9145508h23.5332031c1.0556641,0,1.9140625,0.8588867,1.9140625,1.9145508V40.5800781z
	"/>
<g id="lines">
	<rect x="26" y="27" fill="#2B2B2B" width="10" height="1"/>
	<rect x="26" y="30" fill="#2B2B2B" width="4" height="1"/>
	<rect x="26" y="33" fill="#2B2B2B" width="10" height="1"/>
	<rect x="26" y="36" fill="#2B2B2B" width="10" height="1"/>
	<rect x="26" y="39" fill="#2B2B2B" width="6" height="1"/>
	<rect x="26" y="21" fill="#2B2B2B" width="10" height="1"/>
	<rect x="26" y="24" fill="#2B2B2B" width="10" height="1"/>
	<rect x="26" y="18" fill="#2B2B2B" width="10" height="1"/>
	<rect x="13" y="27" fill="#2B2B2B" width="11" height="1"/>
	<rect x="13" y="30" fill="#2B2B2B" width="11" height="1"/>
	<rect x="13" y="33" fill="#2B2B2B" width="11" height="1"/>
	<rect x="13" y="36" fill="#2B2B2B" width="11" height="1"/>
	<rect x="13" y="39" fill="#2B2B2B" width="8" height="1"/>
</g>
<rect id="pic" x="13" y="18" fill="#2B2B2B" width="11" height="7"/>
<path id="N" fill="#2B2B2B" d="M18.3520508,14.0112305H16.746582L14.1547852,9.125h-0.0366211
	c0.0517578,0.862793,0.0776367,1.4785156,0.0776367,1.8466797v3.0395508h-1.1289063V7.5522461h1.5932617l2.5878906,4.8374023
	h0.0283203c-0.0405273-0.8393555-0.0610352-1.4326172-0.0610352-1.7802734V7.5522461h1.1367188V14.0112305z"/>
<path id="E" fill="#2B2B2B" d="M23.2832031,14.0112305h-3.4311523V7.5522461h3.4311523v1.1220703h-2.1679688v1.4179688h2.0170898
	v1.1225586h-2.0170898v1.6655273h2.1679688V14.0112305z"/>
<path id="W" fill="#2B2B2B" d="M30.3291016,14.0112305H28.890625l-0.8066406-3.3930664
	c-0.0302734-0.1206055-0.0810547-0.3701172-0.1533203-0.7485352c-0.0712891-0.3789063-0.1132813-0.6328125-0.1240234-0.762207
	C27.7900391,9.2661133,27.75,9.5219727,27.6845703,9.8740234c-0.0654297,0.3515625-0.1152344,0.6030273-0.1503906,0.7529297
	l-0.8037109,3.3842773H25.296875l-1.5205078-6.4589844h1.2431641l0.7617188,3.5253906
	c0.1328125,0.6508789,0.2294922,1.2148438,0.2890625,1.6923828c0.0166016-0.1679688,0.0537109-0.4282227,0.1123047-0.7797852
	c0.0585938-0.3520508,0.1132813-0.6254883,0.1650391-0.8198242l0.8681641-3.6181641h1.1943359l0.8681641,3.6181641
	c0.0371094,0.1621094,0.0849609,0.409668,0.1425781,0.7421875c0.0566406,0.3330078,0.0996094,0.6186523,0.1298828,0.8574219
	c0.0273438-0.2299805,0.0703125-0.5166016,0.1308594-0.859375c0.0595703-0.3432617,0.1142578-0.6210938,0.1630859-0.8330078
	l0.7578125-3.5253906h1.2431641L30.3291016,14.0112305z"/>
<path id="S" fill="#2B2B2B" d="M36.1123047,12.2177734c0,0.5830078-0.1933594,1.0424805-0.5810547,1.3779297
	c-0.3867188,0.3359375-0.9257813,0.5039063-1.6152344,0.5039063c-0.6357422,0-1.1982422-0.1293945-1.6875-0.3886719v-1.2724609
	c0.4023438,0.1943359,0.7421875,0.331543,1.0214844,0.4106445c0.2783203,0.0795898,0.5332031,0.1196289,0.7636719,0.1196289
	c0.2773438,0,0.4892578-0.0576172,0.6376953-0.1723633s0.2226563-0.2856445,0.2226563-0.5126953
	c0-0.1264648-0.0332031-0.2392578-0.0986328-0.3378906c-0.0644531-0.0986328-0.1601563-0.1933594-0.2871094-0.2851563
	c-0.1259766-0.0908203-0.3837891-0.2368164-0.7724609-0.4370117c-0.3632813-0.1855469-0.6367188-0.3637695-0.8183594-0.534668
	c-0.1826172-0.1708984-0.328125-0.3696289-0.4365234-0.5966797c-0.1083984-0.2265625-0.1630859-0.4916992-0.1630859-0.7949219
	c0-0.5712891,0.1787109-1.0205078,0.5361328-1.3476563c0.3574219-0.3266602,0.8505859-0.4902344,1.4814453-0.4902344
	c0.3095703,0,0.6054688,0.0395508,0.8857422,0.1191406c0.28125,0.0795898,0.5761719,0.1914063,0.8828125,0.3359375
	l-0.4072266,1.0644531c-0.3183594-0.1411133-0.5810547-0.2397461-0.7890625-0.2958984
	c-0.2080078-0.0556641-0.4121094-0.0839844-0.6132813-0.0839844c-0.2392578,0-0.4228516,0.0605469-0.5498047,0.1811523
	c-0.1279297,0.1210938-0.1914063,0.2783203-0.1914063,0.4726563c0,0.1210938,0.0253906,0.2260742,0.0771484,0.315918
	s0.1337891,0.1767578,0.2460938,0.2607422c0.1132813,0.0839844,0.3798828,0.2348633,0.8007813,0.4526367
	c0.5576172,0.2890625,0.9394531,0.578125,1.1455078,0.8681641C36.0087891,11.440918,36.1123047,11.7963867,36.1123047,12.2177734z"
	/>
</svg>