<?xml version="1.0" encoding="utf-8"?>
<!DOCTYPE svg PUBLIC "-//W3C//DTD SVG 1.1//EN" "http://www.w3.org/Graphics/SVG/1.1/DTD/svg11.dtd">
<svg version="1.1" id="iOrder" xmlns="http://www.w3.org/2000/svg" xmlns:xlink="http://www.w3.org/1999/xlink" x="0px" y="0px" width="100%" height="100%" viewBox="0 0 48 48" preserveAspectRatio="xMidYMid meet">
<path fill="#ffffff" d="M38.25,9h-2.5v2.5H37v20H27v10H12v-30h1.25V9h-2.5C10.0625,9,9.5,9.5625,9.5,10.25v32.5
	c0,0.6875,0.5625,1.25,1.25,1.25h19.6875L39.5,34.9375V10.25C39.5,9.5625,38.9375,9,38.25,9z M29.5,41.5V34H37L29.5,41.5z M34.5,9
	h-5V6.5C29.5,5.125,28.375,4,27,4h-5c-1.3754883,0-2.5,1.125-2.5,2.5V9h-5v5h20V9z M27,9h-5V6.5039063
	C22.0014648,6.5024414,22.0024414,6.5009766,22.0039063,6.5h4.9912109C26.9970703,6.5014648,26.9980469,6.503418,27,6.5039063V9z"/>
</svg>