<?xml version="1.0" encoding="utf-8"?>
<!DOCTYPE svg PUBLIC "-//W3C//DTD SVG 1.1//EN" "http://www.w3.org/Graphics/SVG/1.1/DTD/svg11.dtd">
<svg version="1.1" id="iOrehi-i-semechki" xmlns="http://www.w3.org/2000/svg" xmlns:xlink="http://www.w3.org/1999/xlink" x="0px" y="0px" width="100%" height="100%" viewBox="0 0 48 48" preserveAspectRatio="xMidYMid meet">
<path fill="#2B2B2B" d="M22.3857422,33.6689453c0.2294922-0.1279297,0.6914063-0.3496094,1.0273438-0.5664063
	c0.465332-0.2978516,1.0600586-1.0722656,1.8251953-1.78125c1.0253906-0.9511719,2.1425781-1.5742188,2.8105469-1.8798828
	c0.1357422-0.4267578,0.2226563-0.7714844,0.2714844-0.9707031c0.2080078-0.8808594-0.3359375-2.1386719-0.3359375-2.1386719
	s0,0-0.8398438,0.5439453c-0.8369141,0.5449219-4.1083984,2.7265625-4.6533203,3.0195313s-1.8452148,0.2509766-2.5161133,0.7548828
	c-0.6708984,0.5029297-5.4428711,4.5517578-5.3256836,4.6123047c1.6176758,0.8408203,4.2260742,1.015625,6.8139648,0.3564453
	c-0.1435547-0.1953125-0.1796875-0.5087891-0.1679688-0.7753906C21.3183594,34.3222656,21.8032227,33.9931641,22.3857422,33.6689453
	z"/>
<path fill="#2B2B2B" d="M40.3525391,34.7177734c-0.7539063-0.4189453-2.2636719-2.4326172-2.9755859-3.8994141
	c-0.7128906-1.4677734-2.6845703-1.46875-2.6845703-1.46875s-0.7998047-0.1660156-1.6132813-0.1464844
	c0.6933594,0.2333984,1.4501953,0.5478516,1.9492188,1.0068359l0.3554688,0.2724609
	c1.6083984,1.4736328,3.5830078,3.4951172,4.046875,6.1005859c0.4736328-0.0390625,0.6865234-0.0341797,0.9658203-0.0634766
	c1.2138672-0.125,2.1376953-1.2578125,2.1376953-1.2578125S41.1074219,35.1367188,40.3525391,34.7177734z"/>
<path fill="#2B2B2B" d="M30.8769531,28.8886719c-0.7861328-0.359375-1.7197266-0.7119141-1.7197266-0.7119141
	s-0.0234375,0.1660156,0.0214844,0.7548828c0.4267578-0.0595703,0.9023438-0.0429688,1.6142578-0.0429688
	C30.9023438,28.8886719,30.8476563,28.8886719,30.8769531,28.8886719z"/>
<path fill="#2B2B2B" d="M34.8183594,30.5664063c-2.0957031-1.9277344-5.4921875-1.2998047-6.4980469-1.0898438
	c-1.0068359,0.2099609-3.7329102,3.2285156-4.9072266,3.9833984c-1.1738281,0.7548828-1.690918,0.7910156-1.7192383,1.4248047
	c-0.0419922,0.9638672,1.4262695,1.3427734,1.8452148,1.8867188c0.4189453,0.5449219-0.0839844,0.796875,0.1259766,2.3066406
	c0.2094727,1.5097656,1.2583008,3.3125,6.1650391,4.3603516c4.9052734,1.0478516,8.5537109-0.7128906,9.2646484-4.5693359
	C39.8085938,35.0117188,36.9150391,32.4951172,34.8183594,30.5664063z M35.3642578,41.2167969
	c-1.0058594,0.9638672-5.578125,2.1796875-7.7158203,1.1318359c-2.2470703-1.1005859-3.7670898-2.9072266-3.6479492-4.1933594
	c0.2094727-2.2646484-2.1386719-1.9707031-2.0966797-3.3544922c0,0,1.1323242-0.6289063,2.3481445-1.5517578
	c0.9238281-0.7001953,2.8925781-2.9335938,4.4453125-3.3115234c1.5507813-0.3769531,3.1455078-0.2929688,4.6113281,0.5029297
	c1.4677734,0.7958984,4.3613281,4.6123047,4.2353516,6.6669922C37.4179688,39.1630859,36.3710938,40.2529297,35.3642578,41.2167969z
	"/>
<path fill="#2B2B2B" d="M25.0058594,34.96875c0,0,1.0498047,0.9648438,2.2646484,1.59375
	c1.2167969,0.6289063,1.0908203,0.7119141,2.8105469,0.7548828c1.7177734,0.0419922,2.2646484-0.2109375,2.2646484-0.5039063
	s-0.5878906-1.2148438-1.7617188-2.0126953C29.4091797,34.0039063,25.7197266,34.3828125,25.0058594,34.96875z"/>
<path fill="#2B2B2B" d="M27.6484375,24.8637695c-0.3349609-2.097168-1.7617188-4.0678711-4.9897461-5.7441406
	c-3.2290039-1.6777344-8.847168-0.7133789-9.4345703-0.3364258c-0.5869141,0.3774414-1.2998047,1.3837891-1.2998047,1.3837891
	s-1.2158203,2.7675781-1.3833008,7.9257813c-0.1679688,5.1572266,3.2705078,6.5410156,3.2705078,6.5410156
	c0.8383789,0.0429688,1.9702148-0.7548828,2.5991211-1.1738281c0.6289063-0.4199219,2.5161133-2.390625,3.2705078-3.1445313
	c0.7548828-0.7548828,2.5161133-0.5458984,2.9355469-0.9648438c0.4199219-0.4179688,4.9897461-3.0185547,4.9897461-3.0185547
	S27.8173828,26.2060547,27.6484375,24.8637695z M12.9306641,24.402832
	c-0.8803711-1.8447266-0.7543945-3.7749023-0.7543945-3.7749023s0.4189453,1.9291992,0.7963867,2.9780273
	c0.3774414,1.0473633,1.9287109,3.815918,1.9287109,3.815918S13.8115234,26.2470703,12.9306641,24.402832z M13.5595703,21.5932617
	c-0.6708984-1.0908203-0.796875-1.3427734-0.796875-1.3427734s0.9223633,0.7133789,1.1323242,1.0488281
	c0.2094727,0.3349609,1.0063477,1.71875,1.0063477,1.71875C14.1826172,22.3544922,14.1049805,22.4785156,13.5595703,21.5932617z
	 M21.4003906,23.2285156c-1.4672852-1.6777344-2.9345703-2.3901367-5.03125-2.9355469
	c-2.0966797-0.5444336-2.6835938-0.6713867-2.6835938-0.6713867s3.3125,0.4619141,4.4443359,0.8393555
	c1.1323242,0.3774414,2.6835938,0.8383789,3.9414063,2.3901367c1.2578125,1.5507813,1.5097656,4.3608398,1.5097656,4.3608398
	S22.3447266,24.3076172,21.4003906,23.2285156z"/>
<path fill="#2B2B2B" d="M35.7832031,14.0878906c-2.2646484-2.684082-2.3896484-2.9770508-3.4804688-3.1450195
	c-1.0898438-0.1679688-5.4921875,0.6704102-7.9248047,2.9770508c-2.4321289,2.3061523-2.8095703,3.6479492-2.8095703,3.6479492
	s1.7192383,1.2163086,2.9775391,2.1806641c1.0361328,0.7939453,3.6894531,2.515625,3.9414063,7.5893555l0.3359375-0.125
	c0,0,0.6699219-5.409668,3.5224609-6.8354492c2.8496094-1.4257813,5.7021484-1.6777344,5.7021484-1.6777344
	S38.0478516,16.7714844,35.7832031,14.0878906z M29.4091797,13.1650391C28.9492188,13.5,27.3134766,14.421875,26.6855469,15.21875
	c0,0,0.9628906-1.5507813,2.1376953-2.2216797c1.1738281-0.6713867,3.3115234-1.5932617,3.3115234-1.5932617
	S29.8710938,12.8291016,29.4091797,13.1650391z"/>
<path fill="#2B2B2B" d="M44.0009766,19.7060547c-0.4599609-0.4194336-1.4667969-0.5874023-4.5283203-0.5874023
	c-3.0605469,0-6.4570313,0.9228516-8.4697266,2.9775391c-2.0126953,2.0541992-1.6767578,5.6606445-1.6767578,5.6606445
	s2.1796875,0.7128906,3.1865234,0.8378906c1.0058594,0.1259766,2.3056641-0.4179688,4.1513672,0.7978516
	c1.8427734,1.2148438,1.5087891,2.3056641,2.6826172,3.3955078c1.1748047,1.0898438,3.3964844,2.1806641,3.5224609,2.1806641
	c0.125,0,1.0908203-0.4189453,2.1376953-2.0546875c1.0498047-1.6347656,1.0068359-2.6835938,1.3837891-5.9121094
	C46.7685547,23.7739258,44.4628906,20.125,44.0009766,19.7060547z M39.4726563,25.5761719
	c0,0,0.3359375-1.6342773,0.9648438-2.5161133c0.578125-0.8076172,1.5078125-1.7080078,2.4013672-2.3061523
	c0.1699219-0.1455078,0.2402344-0.1669922,0.2402344-0.1669922C43,20.6347656,42.9199219,20.7006836,42.8388672,20.7539063
	c-0.2685547,0.2319336-0.7880859,0.7822266-1.6894531,2.097168C39.9912109,24.5395508,39.4726563,25.5761719,39.4726563,25.5761719z
	 M44.7558594,25.1152344c-0.3779297,2.1806641-2.515625,5.7441406-2.9345703,6.4150391
	c-0.4189453,0.671875-0.4189453,0.671875-0.4189453,0.671875s2.2939453-5.2353516,2.6826172-6.9189453
	c0.3779297-1.6352539,0.1679688-3.1035156-0.3769531-4.6552734C43.7080078,20.6279297,45.1328125,22.9345703,44.7558594,25.1152344z
	"/>
<path fill="none" d="M7.5239258,9.3959961c0.1621094,0.175293,0.7519531,0.8847656,1.0043945,2.2172852
	c0.2929688,1.5517578,0.5864258,2.3486328,0.5864258,2.3486328s0.0844727,0.0415039,0.0424805-1.3422852
	C9.1157227,11.2641602,8.2299805,10.112793,7.5239258,9.3959961z"/>
<path fill="none" d="M17.0820313,14.8837891c0.0834961-1.1743164-0.3354492-1.9291992-0.6713867-2.6416016
	c-0.3354492-0.7124023-1.3413086-1.7612305-1.3413086-1.7612305s0.909668,1.4311523,1.2158203,3.3964844
	c0.21875,1.4082031-0.5649414,2.8374023-0.9775391,3.4731445c0.1225586-0.0048828,0.2456055-0.0087891,0.3691406-0.0117188
	C16.5180664,16.7431641,17.0136719,15.8447266,17.0820313,14.8837891z"/>
<path fill="none" d="M12.4692383,12.4936523c-0.2836914-0.8823242-1.6420898-2.434082-2.0385742-2.8911133l1.1582031,3.1430664
	c0.2016602,1.0288086,0.6708984,3.4384766,0.6708984,3.4384766S12.9506836,13.9907227,12.4692383,12.4936523z"/>
<path fill="#2B2B2B" d="M5.5053711,18.8256836c0-0.0522461-0.0395508-0.0629883-0.0986328-0.0493164
	C5.465332,18.8461914,5.5053711,18.8759766,5.5053711,18.8256836z"/>
<path fill="#2B2B2B" d="M15.3076172,17.3505859c0.4125977-0.6357422,1.1962891-2.0649414,0.9775391-3.4731445
	c-0.3061523-1.965332-1.2158203-3.3964844-1.2158203-3.3964844s1.0058594,1.0488281,1.3413086,1.7612305
	c0.3359375,0.7124023,0.7548828,1.4672852,0.6713867,2.6416016c-0.0683594,0.9609375-0.5639648,1.859375-1.4052734,2.4550781
	c0.6079102-0.015625,1.2255859-0.0136719,1.8452148-0.0444336c2.1176758-0.1040039,3.5429688,0.0424805,3.5429688,0.0424805
	s0.0424805-0.2519531,1.2792969-2.0756836c0.2875977-0.4243164,0.7919922-0.9667969,1.4326172-1.5351563l-0.4052734,0.0678711
	l0.1674805-1.0898438l-0.5874023-0.2104492l-0.2089844-1.0063477l-0.6713867,0.0424805l-0.1674805-0.796875
	c0,0,0,0-0.5449219,0.0844727c-0.5449219,0.0834961-1.9291992-1.6352539-1.9291992-1.6352539
	s-0.5864258,1.0473633-1.71875,0.8378906c-1.1323242-0.2099609-2.3066406-1.3413086-2.3066406-1.3413086
	s-0.2514648,0.7548828-0.9638672,0.9643555c-0.7124023,0.2089844-2.3066406-1.2158203-2.3066406-1.2158203L12.050293,9.1821289
	c0,0-0.1679688-0.0424805-0.8803711-0.1259766c-0.7128906-0.0834961-1.5517578-1.0063477-1.5517578-1.0063477
	S9.4501953,8.8457031,9.0732422,8.8881836C8.6958008,8.9291992,7.3120117,7.6723633,7.3120117,7.6723633L6.0957031,8.1333008
	L5.2993164,7.2949219L4.2929688,7.4619141L3.5380859,6.7495117c0,0,0.1259766,0.2519531-0.2514648,0.4609375
	C2.8676758,6.8330078,1.5673828,6.9589844,1.5673828,6.9589844l1.0483398,1.2578125L2.40625,8.6787109l0.8383789,0.6704102
	L2.9931641,9.7685547l0.8383789,0.7548828L3.496582,11.0688477l0.7543945,0.6704102l-0.4609375,0.3359375l0.6289063,0.8383789
	l-0.3359375,0.3349609l0.7973633,0.503418l-0.6293945,0.5454102l0.8383789,1.2998047l-0.6289063,0.7963867l0.8378906,1.1743164
	L4.8359375,17.902832c0,0,0.3857422,0.6513672,0.5708008,0.8735352c0.059082-0.0136719,0.0986328-0.0029297,0.0986328,0.0493164
	c0,0.050293-0.0400391,0.0205078-0.0986328-0.0493164c-0.1777344,0.0405273-0.534668,0.3007813-0.534668,0.3007813
	l1.2919922,1.9707031l-0.6865234,0.0844727l1.0166016,1.0473633l-0.6499023,0.0844727l1.1323242,1.6777344l-0.7851563,0.2514648
	L7,25.2412109v0.3359375l1.8544922,0.5449219l0.4145508,0.546875l0.7016602-0.0820313l0.1005859,0.4648438l0.0620117,0.0292969
	c0.0209961-2.2460938,0.215332-7.284668,1.4931641-8.4658203C12.7001953,17.6235352,13.9726563,17.409668,15.3076172,17.3505859z
	 M9.1147461,13.9619141c0,0-0.293457-0.796875-0.5864258-2.3486328c-0.2524414-1.3325195-0.8422852-2.0419922-1.0043945-2.2172852
	c0.7060547,0.7167969,1.5917969,1.8681641,1.6333008,3.2236328C9.1992188,14.003418,9.1147461,13.9619141,9.1147461,13.9619141z
	 M10.4306641,9.6025391c0.3964844,0.4570313,1.7548828,2.0087891,2.0385742,2.8911133
	c0.4814453,1.4970703-0.2094727,3.6904297-0.2094727,3.6904297s-0.4692383-2.409668-0.6708984-3.4384766L10.4306641,9.6025391z"/>
<path fill="#2B2B2B" d="M32.4082031,10.418457c0.03125,0.0087891,0.0634766,0.0224609,0.0966797,0.03125
	c-0.0253906-0.4560547,0.1142578-0.9619141,0.1142578-0.9619141s-0.5820313,0.2319336-0.7626953,0.0146484
	c-0.1816406-0.2172852,0.0664063-1.6098633,0.0664063-1.6098633l-0.7919922-0.5620117l0.2158203-0.8510742L30.828125,5.9243164
	l0.1533203-0.7714844c0,0-0.1123047,0.1845703-0.4013672,0.0380859c0.0732422-0.4204102-0.5380859-1.1772461-0.5380859-1.1772461
	L29.65625,5.1987305l-0.3847656,0.0639648l-0.0947266,0.8066406l-0.3769531,0.0200195l-0.1572266,0.8413086l-0.5087891,0.0214844
	l-0.1669922,0.7539063l-0.4863281-0.1455078l-0.6240234,0.7456055L26,8.2392578v0.7080078l-0.1074219-0.1601563
	l-0.0820313,1.0708008l-0.7265625-0.0546875l-0.3950195,1.0180664l-0.3930664-0.1455078
	c0,0-0.2583008,0.5170898-0.3251953,0.7260742c-0.0991211-0.0922852-0.4077148-0.203125-0.4077148-0.203125l-0.3920898,0.8686523
	l0.9755859,0.3427734l-0.2514648,0.8383789l0.4311523,0.0136719C26.4824219,11.5209961,29.7802734,9.7539063,32.4082031,10.418457z"
	/>
</svg>