<?xml version="1.0" encoding="utf-8"?>
<!DOCTYPE svg PUBLIC "-//W3C//DTD SVG 1.1//EN" "http://www.w3.org/Graphics/SVG/1.1/DTD/svg11.dtd">
<svg version="1.1" id="iOvoschi" xmlns="http://www.w3.org/2000/svg" xmlns:xlink="http://www.w3.org/1999/xlink" x="0px" y="0px" width="100%" height="100%" viewBox="0 0 48 48" preserveAspectRatio="xMidYMid meet">
<path fill="#2B2B2B" d="M15.8730469,20.3662109c0,0-0.4550781-2.1025391-1.0048828-3.140625
	s-1.9794922-3.0117188-4.3330078-2.2919922c-2.3554688,0.7197266-3.6533203,1.5722656-4.4619141,1.9658203
	c-0.8076172,0.3916016-2.9902344,0.7910156-4.0302734-0.0009766c0,0-0.5517578-0.1708984-0.4785156-0.4863281
	s0.8935547,0.5175781,1.6005859,0.5585938s1.4189453-0.0283203,2.2050781-0.4863281
	c0.7851563-0.4580078,3.9150391-2.9521484,5.6064453-2.9521484c1.9541016,0,3.1914063,0.5439453,4.1582031,2.3056641
	c0.9648438,1.7617188,1.4560547,3.2421875,1.5458984,3.5751953c0.109375,0.40625,0.5625,1.5830078,0.5625,1.5830078l0.2578125,0.875
	l-1.5654297-0.6611328L15.8730469,20.3662109z"/>
<path fill="#2B2B2B" d="M19.0244141,22.1835938l0.125-1.078125c0,0,0.1289063-0.4472656,0.5654297-1.7265625
	c0.4375-1.2802734,1.6445313-3.8154297,2.8007813-5.4892578c1.1542969-1.6728516,2.4609375-3.3417969,3.5898438-4.5849609
	c1.1298828-1.2412109,1.9013672-2.4980469,2.0849609-2.8154297c0.1835938-0.3183594,0.4707031-1.7695313,0.5683594-1.8320313
	c0.0957031-0.0625-0.0058594,1.2060547-0.1572266,1.7431641c-0.4628906,1.6376953-3.8300781,6.7197266-4.9833984,8.2626953
	c-1.2255859,1.6416016-3.3115234,5.1035156-3.5410156,6C19.8837891,21.4179688,19.0849609,21.7685547,19.0244141,22.1835938z"/>
<path fill="#2B2B2B" d="M18.9306641,21.9023438L18.90625,19.9042969c0,0-0.4091797-3.0341797-0.5791016-5.2832031
	c-0.1699219-2.2470703,0.8056641-5.4814453,1.6455078-6.875c0.8408203-1.3935547,2.3242188-3.0087891,3.8955078-3.0830078
	c1.5693359-0.0751953,2.3476563,0.1005859,2.3125-0.0830078c-0.0341797-0.1855469-3.3935547-0.8740234-4.8574219,0.3447266
	s-3.1367188,3.3554688-3.5283203,5.6884766c-0.390625,2.3330078-0.3095703,3.9931641-0.0966797,5.5224609
	s0.6455078,3.515625,0.6552734,3.8779297C18.3623047,20.3769531,18.9306641,21.9023438,18.9306641,21.9023438z"/>
<path fill="#2B2B2B" d="M17.8837891,22.1992188c0,0,0.6210938-1.1914063,0.1630859-2.71875
	c-0.4580078-1.5263672-2.3955078-5.3427734-4.0166016-7.0224609c-1.6220703-1.6787109-4.2021484-4.5029297-4.8837891-5.5410156
	C8.4628906,5.8779297,8.3515625,4.9980469,8.171875,5.1640625C7.9921875,5.3291016,8.4052734,7.1777344,9.6708984,8.5214844
	c1.265625,1.3447266,5.0986328,5.9267578,5.8222656,7.3076172S17.7978516,21.6152344,17.8837891,22.1992188z"/>
<path fill="#2B2B2B" d="M19.0712891,20.4179688l-0.15625-2.109375c0,0,1.0800781-4.3759766,1.4648438-5.5517578
	c0.3837891-1.1767578,1.9755859-5.0576172,2.7373047-5.8330078c0.7626953-0.7753906,1.2441406-1.4228516,1.5878906-1.3740234
	c0.3408203,0.0478516-1.8154297,1.6513672-3.1171875,5.2617188c-1.3027344,3.6103516-1.6796875,7.3476563-1.7509766,7.6533203
	C19.7675781,18.7705078,19.0712891,20.4179688,19.0712891,20.4179688z"/>
<path fill="#2B2B2B" d="M42.6806641,19.1835938c0.90625-0.84375,1.4560547-4.21875,1.71875-5.28125
	c0.75-3.03125,1.8046875-8.5332031,2.03125-9.4375c0.1542969-0.6162109-1.28125,0-1.28125,0s-0.1376953,1.6171875-0.40625,2.71875
	c-0.2539063,1.0400391-1.9287109,5.4619141-2.3125,6.65625c-0.28125,0.875-1.1875,1.34375-1.1875,1.34375l-1.8125-0.1660156
	c0,0,0.1875-1.8935547,0.1875-3.1152344s0.78125-3.0625,0.78125-3.0625l-0.90625-0.21875
	c0,0-0.8984375-0.1357422-0.8984375,0.2714844c0,0.40625,0.2304688,1.8076172,0.1484375,2.9472656
	c-0.0810547,1.1396484-0.2431641,1.6611328-0.40625,2.3125c-0.1621094,0.6513672-0.0722656,1.4482422-0.0722656,1.4482422
	s-0.3769531,0.6298828-0.4589844-0.5107422c-0.0820313-1.1396484-0.15625-3.4599609-0.15625-4.15625
	c0-1.3125-0.875-3.703125-1.09375-4.15625c-0.3007813-0.6220703-0.875,0.59375-0.875,0.59375
	c0.8486328,1.2138672,1,2.3955078,1.1875,3.40625c0.2324219,1.2539063-0.0458984,2.6757813-0.2080078,3.4902344
	c-0.1630859,0.8144531-0.1669922,2.3847656-0.1669922,2.3847656s1.8007813-0.5498047,2.875-0.28125
	C42.5351563,17.1630859,42.6806641,19.1835938,42.6806641,19.1835938z"/>
<path fill="#2B2B2B" d="M41.2822266,25.828125c-0.6767578-1.1757813-1.4296875-2.1181641-1.4296875-2.1181641
	s1.5029297,0.9970703,1.9863281,2.0048828c0.8476563-0.8125,1.4746094-1.7929688,1.2109375-3.3203125
	c-0.4482422-2.5966797-1.4658203-5.5371094-4.9667969-5.5371094c-3.1748047,0-5.9433594,1.9541016-6.9208984,3.5019531
	c-0.9765625,1.546875-1.0585938,2.5234375-1.8720703,3.2558594c-0.7119141,0.640625-1.484375,1.2802734-1.7236328,1.7578125
	c1.15625-0.0283203,2.1162109,0.8017578,2.6767578,1.4980469c-1.2099609-0.8867188-1.7421875-0.9931641-2.9472656-1.0175781
	c-0.2089844,0.0986328-0.6025391,0.1669922-1.3447266,0.8564453c-1.1396484,1.0585938-1.7910156,1.6279297-2.7675781,2.6865234
	c-0.9775391,1.0585938-2.0361328,1.4658203-2.7685547,2.5244141c-0.1845703,0.2666016-0.3076172,0.4716797-0.4140625,0.6425781
	c0.0429688-0.0117188,0.7382813-0.1962891,1.2900391,0.1132813c0.5693359,0.3203125,0.8505859,0.8535156,0.8505859,0.8535156
	s-0.3818359-0.5078125-1.0078125-0.6972656c-0.6142578-0.1865234-1.1181641-0.2636719-1.1347656-0.2666016
	c-0.3134766,0.5058594-0.4863281,0.7216797-1.7011719,1.3896484c-1.6289063,0.8964844-3.2568359,1.2216797-3.8271484,1.8730469
	c-0.0595703,0.0683594-0.1074219,0.1201172-0.1523438,0.1689453c0.0302734,0.03125,0.0625,0.0605469,0.0917969,0.0966797
	c0.4052734,0.4980469,0.5390625,1.0761719,0.5390625,1.0761719s-0.21875-0.5927734-0.6943359-1
	c-0.0214844-0.0185547-0.0390625-0.0322266-0.0605469-0.0498047c-0.2714844,0.2519531-0.3369141,0.1367188-1.1074219,0.5224609
	c-0.9775391,0.4882813-0.4072266,0.6513672-1.3027344,1.1396484s-0.9775391-0.3251953-1.7919922,0.4072266
	c-0.8134766,0.7324219-1.1396484,0.9765625-1.8720703,1.546875c-0.7333984,0.5703125-1.3027344,0.4072266-1.7919922,1.3847656
	c-0.4882813,0.9765625-1.1396484,0.7324219-1.8720703,1.4648438c-0.7333984,0.7333984-0.6513672,1.2216797-0.6513672,1.2216797
	s0.1630859-0.3261719,0.8955078-0.4882813c0.7324219-0.1630859,1.1396484-0.4072266,2.2792969-0.6513672
	c1.140625-0.2441406,3.3388672,0,3.8271484-0.4072266s0.0820313,0.2441406,2.1171875-0.1630859
	s4.8857422-1.3027344,4.8857422-1.3027344s1.4648438-0.2441406,2.7675781-0.6513672
	c1.2675781-0.3964844,2.6025391-0.9433594,2.9003906-1.1220703c-0.5566406-1.0664063-1.1064453-1.8388672-1.1064453-1.8388672
	s1.1425781,0.6621094,1.5068359,1.7958984c0.6054688,0.03125,1.8339844,0.1513672,3.2128906-0.7890625
	c1.7919922-1.2216797,2.4433594-1.7910156,3.2568359-2.1982422c0.1308594-0.0654297,0.2773438-0.1601563,0.4306641-0.2646484
	c-0.0126953-0.1044922-0.0244141-0.2080078-0.0400391-0.3154297c-0.15625-1.1181641-0.9960938-1.5810547-0.9960938-1.5810547
	s0.921875,0.2529297,1.3417969,1.1904297c0.0566406,0.1230469,0.0917969,0.2578125,0.1152344,0.3964844
	c0.7285156-0.5634766,1.5839844-1.3320313,2.3242188-1.7871094c1.0585938-0.6513672,2.1982422-1.3847656,3.5830078-2.6054688
	c1.3837891-1.2216797,1.8720703-2.9316406,3.2568359-4.0712891c0.3417969-0.28125,0.703125-0.5576172,1.0478516-0.8505859
	C41.3720703,26.0126953,41.3369141,25.9238281,41.2822266,25.828125z M10.4306641,39.5722656
	c-0.4560547-0.4677734-0.8691406-0.7851563-0.8691406-0.7851563s0.7382813,0.1689453,1.0810547,0.7246094
	c0.3447266,0.5546875,0.3330078,1.1572266,0.3330078,1.1572266S10.8867188,40.0410156,10.4306641,39.5722656z
	 M16.6435547,39.1806641c0,0-0.0634766-0.7216797-0.1865234-0.9492188
	c-0.1230469-0.2285156-0.7421875-0.3623047-0.8730469-0.3681641c0,0,0.8222656-0.1699219,1.0195313,0.2314453
	C16.7998047,38.4951172,16.6435547,39.1806641,16.6435547,39.1806641z M19.4306641,36.5722656
	c-0.4560547-0.4677734-0.8691406-0.7851563-0.8691406-0.7851563s0.7382813,0.1689453,1.0810547,0.7246094
	c0.3447266,0.5546875,0.3330078,1.1572266,0.3330078,1.1572266S19.8867188,37.0410156,19.4306641,36.5722656z
	 M35.3652344,19.9960938c0.9033203,0.4882813,1.0888672,1.4257813,1.0888672,1.4257813s-0.4003906-0.8710938-1.5039063-1.1083984
	c-1.0986328-0.2402344-2.0615234-0.2919922-2.0615234-0.2919922S34.4667969,19.5048828,35.3652344,19.9960938z
	 M31.9472656,22.8632813c0.6396484,0.1298828,1.0703125,0.5507813,1.0703125,0.5507813s-0.5185547-0.3652344-1.171875-0.3544922
	c-0.6523438,0.0107422-1.1669922,0.0947266-1.1669922,0.0947266S31.3076172,22.7324219,31.9472656,22.8632813z
	 M22.296875,30.6113281c0,0,0.7285156-0.2080078,1.2958984,0.1113281c0.5693359,0.3203125,0.8505859,0.8535156,0.8505859,0.8535156
	s-0.3808594-0.5078125-1.0068359-0.6972656C22.8115234,30.6894531,22.296875,30.6113281,22.296875,30.6113281z
	 M24.4306641,33.5722656c-0.4560547-0.4677734-0.8691406-0.7851563-0.8691406-0.7851563s0.7382813,0.1689453,1.0810547,0.7246094
	c0.3447266,0.5546875,0.3330078,1.1572266,0.3330078,1.1572266S24.8867188,34.0410156,24.4306641,33.5722656z
	 M27.8056641,36.6210938c0,0-0.1621094-1.2285156-0.4033203-1.6201172
	c-0.2402344-0.3925781-1.3945313-0.6572266-1.6367188-0.6757813c0,0,1.5097656-0.2382813,1.8994141,0.453125
	C28.0537109,35.46875,27.8056641,36.6210938,27.8056641,36.6210938z M27.3447266,29.9248047
	c-0.625-0.1894531-1.140625-0.2675781-1.140625-0.2675781s0.7294922-0.2080078,1.2978516,0.1113281
	c0.5693359,0.3203125,0.8496094,0.8535156,0.8496094,0.8535156S27.9707031,30.1142578,27.3447266,29.9248047z
	 M27.3447266,27.9248047c-0.625-0.1894531-1.140625-0.2675781-1.140625-0.2675781s0.7294922-0.2080078,1.2978516,0.1113281
	c0.5693359,0.3203125,0.8496094,0.8535156,0.8496094,0.8535156S27.9707031,28.1142578,27.3447266,27.9248047z
	 M32.2705078,33.7773438c0,0-0.2880859-1.1728516-0.5976563-1.5625s-1.6660156-0.7333984-1.9472656-0.7695313
	c0,0,1.7265625-0.1035156,2.2333984,0.5800781C32.4638672,32.7099609,32.2705078,33.7773438,32.2705078,33.7773438z
	 M32.5966797,30.5507813c0,0-0.1494141-1.1269531-0.3701172-1.4863281s-1.2792969-0.6025391-1.5009766-0.6191406
	c0,0,1.3847656-0.21875,1.7421875,0.4150391C32.8242188,29.4941406,32.5966797,30.5507813,32.5966797,30.5507813z
	 M32.3447266,24.9248047c-0.625-0.1894531-1.140625-0.2675781-1.140625-0.2675781s0.7294922-0.2080078,1.2978516,0.1113281
	c0.5693359,0.3203125,0.8496094,0.8535156,0.8496094,0.8535156S32.9707031,25.1142578,32.3447266,24.9248047z
	 M33.2041016,21.6572266c0,0,0.7294922-0.2080078,1.2978516,0.1113281c0.5693359,0.3203125,0.8496094,0.8535156,0.8496094,0.8535156
	s-0.3808594-0.5078125-1.0068359-0.6972656C33.7197266,21.7353516,33.2041016,21.6572266,33.2041016,21.6572266z
	 M36.8056641,29.6210938c0,0-0.1621094-1.2285156-0.4033203-1.6201172
	c-0.2402344-0.3925781-1.3945313-0.6572266-1.6367188-0.6757813c0,0,1.5097656-0.2382813,1.8994141,0.453125
	C37.0537109,28.46875,36.8056641,29.6210938,36.8056641,29.6210938z M37.5966797,26.5507813
	c0,0-0.1494141-1.1269531-0.3701172-1.4863281s-1.2792969-0.6025391-1.5009766-0.6191406c0,0,1.3847656-0.21875,1.7421875,0.4150391
	C37.8242188,25.4941406,37.5966797,26.5507813,37.5966797,26.5507813z"/>
<path fill="#2B2B2B" d="M16.6201172,34.5253906c0.2363281-0.0986328,0.4775391-0.2011719,0.7128906-0.3027344
	c-0.6367188-0.4423828-1.3984375-1.1064453-1.8701172-1.9882813c-0.9277344-1.7353516,0.0175781-3.7705078,0.8222656-5.3242188
	c0.7792969-1.5019531,0.6816406-3.1337891,0.6152344-3.546875c-0.0654297-0.4121094,0.4160156,1.5195313-0.0361328,2.828125
	C16.4130859,27.5,15.5693359,29.3828125,15.9160156,31.0449219c0.2783203,1.3320313,0.7119141,2.1591797,1.6621094,3.0693359
	c0.2128906-0.0947266,0.4160156-0.1875,0.6025391-0.2753906c-0.7226563-0.8330078-1.6826172-2.2734375-1.6220703-4.0117188
	c0.0957031-2.7695313,1.4101563-4.1044922,1.4775391-5.0390625s0.0371094-1.3623047,0.0371094-1.3623047
	s0.3330078,0.8359375,0.1826172,1.7607422c-0.1503906,0.9257813-1.2587891,3.296875-1.1542969,4.6083984
	c0.0917969,1.1425781,0.1552734,2.1152344,1.2822266,3.9462891c0.2958984-0.1464844,0.53125-0.2773438,0.6582031-0.375
	c0.0546875-0.0419922,0.1005859-0.1025391,0.1523438-0.1513672c-0.2949219-0.4941406-0.6201172-1.0908203-0.8330078-1.6435547
	c-0.4697266-1.2216797-0.3505859-1.8984375-0.5136719-2.4755859c-0.1640625-0.5771484-0.0361328-1.453125-0.0390625-1.5722656
	c-0.0019531-0.1181641,0.0703125,0.6494141,0.1982422,1.2392578c0.1201172,0.5527344,0.0332031,0.5429688,0.4121094,1.2822266
	s0.5820313,0.8652344,0.9726563,2.3144531c0.0478516,0.1777344,0.0917969,0.3417969,0.1318359,0.4980469
	c0.0947266-0.1201172,0.1884766-0.2421875,0.2890625-0.3789063c0.0283203-0.0400391,0.0605469-0.0820313,0.0908203-0.1220703
	c-0.0556641-0.6259766-0.15625-1.2841797-0.3398438-1.7626953c-0.4697266-1.2216797-0.7773438-2.6601563-0.9414063-3.2373047
	c-0.1621094-0.5761719-0.2568359-1.296875-0.2597656-1.4140625c-0.0019531-0.1191406,0.2724609,0.6572266,0.3994141,1.2470703
	c0.1201172,0.5517578,0.4423828,1.7060547,0.8212891,2.4462891c0.3007813,0.5869141,0.7402344,1.3027344,0.7587891,2.1621094
	c0.2216797-0.2617188,0.4824219-0.5234375,0.8017578-0.7724609c-0.0322266-0.1572266-0.0683594-0.3144531-0.1259766-0.4667969
	c-0.59375-1.5761719-1.2294922-2.8183594-1.9111328-3.9667969C18.4257813,25.4433594,18.5,24.9804688,18.4960938,24.7441406
	c-0.0029297-0.2363281,0.2773438,1.0136719,0.7607422,1.5966797c0.4824219,0.5830078,2.3095703,3.0722656,2.5722656,3.9316406
	c0.0185547,0.0605469,0.0214844,0.1279297,0.0361328,0.1904297c0.3271484-0.2646484,0.6132813-0.5253906,0.8925781-0.8105469
	c-0.1494141-0.4580078-0.4013672-0.9121094-0.8183594-1.3212891c-1.8759766-1.8369141-2.2978516-2.2451172-2.9179688-3.3349609
	c-0.6210938-1.0898438-0.7724609-1.6308594-0.8466797-1.8427734c-0.0751953-0.2119141,0.4160156,0.8447266,1.2265625,1.9072266
	c0.8095703,1.0625,2.5341797,2.359375,2.9345703,2.9326172c0.1816406,0.2607422,0.4472656,0.6767578,0.6474609,1.1767578
	c-0.0302734-0.2607422-0.0712891-0.5107422-0.1318359-0.7236328c-0.3388672-1.1894531-1.0107422-1.7460938-2.0957031-3.0292969
	c-1.0859375-1.2822266-1.0166016-2.1005859-1.0644531-2.796875c-0.046875-0.6972656,0.3212891-1.3427734,0.1035156-0.9482422
	c-0.21875,0.3935547-0.3623047,0.3251953-0.5234375,0.5410156c-0.1621094,0.2158203-0.3212891,0.6679688-0.3212891,0.6679688
	s-0.0410156-0.3427734-0.2148438-0.8359375c-0.1738281-0.4941406-0.1982422-0.5654297-0.3720703-0.3857422
	c-0.1748047,0.1816406-0.4208984,1.0605469-0.4208984,1.0605469l-0.1835938-0.4111328l-0.2167969,0.5126953l-0.0322266-0.5439453
	c0,0-0.2763672-0.0800781-0.5253906-0.2519531c-0.4179688-0.2880859-1.2226563-0.9970703-0.9755859-0.4091797
	c0.2460938,0.5878906,0.6083984,1.7275391,0.5996094,2.7216797c-0.0058594,0.9951172-1.8564453,2.8349609-2.2294922,4.5917969
	c-0.3398438,1.6044922-0.6992188,2.7431641,0.8691406,4.6103516C15.6738281,34.046875,16.1582031,34.3486328,16.6201172,34.5253906z
	"/>
</svg>