<?xml version="1.0" encoding="utf-8"?>
<!DOCTYPE svg PUBLIC "-//W3C//DTD SVG 1.1//EN" "http://www.w3.org/Graphics/SVG/1.1/DTD/svg11.dtd">
<svg version="1.1" id="iPassword" xmlns="http://www.w3.org/2000/svg" xmlns:xlink="http://www.w3.org/1999/xlink" x="0px" y="0px" width="100%" height="100%" viewBox="0 0 48 48" preserveAspectRatio="xMidYMid meet">
<path id="key" fill="#2B2B2B" d="M30.421875,4c-7.2773438,0-13.1772461,5.8994141-13.1772461,13.1777344
	c0,1.7446289,0.347168,3.40625,0.9633789,4.9301758L4.4003906,36.6376953v6.7900391c0,0,0.612793,0.4990234,2.6420898,0.4990234
	c2.03125,0,4.4101563-0.7871094,4.4101563-0.7871094l1.6694336-3.6308594l2.0571289,0.4892578l1.9433594-4.3837891
	l1.8364258,0.3935547l1.9956055-4.1210938l1.9780273,0.2626953c0,0,0.2363281-1.2841797,0.9101563-1.6103516
	c1.3115234-0.6357422,1.171875-1.3652344,2.9384766-0.7041016c1.1572266,0.3310547,2.3759766,0.5205078,3.640625,0.5205078
	c7.2783203,0,13.1787109-5.8999023,13.1787109-13.1777344C43.6005859,9.8994141,37.7001953,4,30.421875,4z M23.3725586,25.5537109
	L7.7797852,41.1464844c-0.1313477,0.1318359-0.3027344,0.1962891-0.4746094,0.1962891
	c-0.1728516,0-0.3442383-0.0644531-0.4755859-0.1962891c-0.262207-0.2617188-0.262207-0.6865234,0-0.9492188l15.5927734-15.5932617
	c0.2626953-0.2626953,0.6879883-0.2626953,0.9501953,0C23.6352539,24.8662109,23.6352539,25.2919922,23.3725586,25.5537109z
	 M34.2548828,17.9125977c-2.3486328,0-4.2529297-1.9042969-4.2529297-4.2524414
	c0-2.3486328,1.9042969-4.2524414,4.2529297-4.2524414s4.2519531,1.9038086,4.2519531,4.2524414
	C38.5068359,16.0083008,36.6035156,17.9125977,34.2548828,17.9125977z"/>
</svg>