<?xml version="1.0" encoding="utf-8"?>
<!DOCTYPE svg PUBLIC "-//W3C//DTD SVG 1.1//EN" "http://www.w3.org/Graphics/SVG/1.1/DTD/svg11.dtd">
<svg version="1.1" id="iPayment" xmlns="http://www.w3.org/2000/svg" xmlns:xlink="http://www.w3.org/1999/xlink" x="0px" y="0px" width="100%" height="100%" viewBox="0 0 48 48" preserveAspectRatio="xMidYMid meet">
<path id="money" fill="#ffffff" d="M38.5917969,15.7109375v0.0024414c0.2626953-0.5561523,0.4169922-1.1357422,0.4169922-1.7304688
	v-2.4956055C39.0087891,7.3535156,32.3037109,4,24.0341797,4S9.0600586,7.3535156,9.0600586,11.4873047
	c0-0.2045898,0.0292969-0.4042969,0.0610352-0.6044922c-3.0922852,1.3696289-5.0522461,3.3681641-5.0522461,5.5952148v2.4960938
	c0,2.3154297,2.105957,4.3837891,5.4077148,5.7583008l0,0c-0.2631836,0.5537109-0.4165039,1.1347656-0.4165039,1.7285156v2.4960938
	c0,0.8779297,0.3168945,1.7128906,0.8730469,2.4960938c-0.5561523,0.7822266-0.8730469,1.6171875-0.8730469,2.4960938v2.4941406
	c0,4.1337891,6.7045898,7.4882813,14.9741211,7.4882813s14.9746094-3.3544922,14.9746094-7.4882813v-2.4941406
	c0-0.8935547-0.3300781-1.7431641-0.8994141-2.5351563c-0.0058594,0.0048828-0.0097656,0.0117188-0.015625,0.015625
	c0.4199219-0.5947266,0.7480469-1.2109375,0.8535156-1.8691406C42.0410156,28.1904297,44,26.1933594,44,23.9658203v-2.4960938
	C44,19.1542969,41.8935547,17.0830078,38.5917969,15.7109375z M24.0341797,5.2485352
	c8.0888672,0,13.7255859,3.2871094,13.7255859,6.2387695c0,2.9492188-5.6367188,6.2392578-13.7255859,6.2392578
	s-13.7260742-3.2900391-13.7260742-6.2392578C10.3081055,8.5356445,15.9453125,5.2485352,24.0341797,5.2485352z
	 M5.3168945,16.4780273c0-1.456543,1.3818359-2.9897461,3.7431641-4.1743164v1.6791992
	c0,4.1328125,6.7045898,7.4868164,14.9741211,7.4868164c1.2353516,0,2.4296875-0.0820313,3.5771484-0.2236328
	c-2.2880859,0.8798828-5.1953125,1.4716797-8.5683594,1.4716797C10.9536133,22.7177734,5.3168945,19.4277344,5.3168945,16.4780273z
	 M37.7597656,33.9492188c0,2.9482422-5.6367188,6.2392578-13.7255859,6.2392578s-13.7260742-3.2910156-13.7260742-6.2392578
	c0-0.4912109,0.2094727-0.9873047,0.5043945-1.4804688c-0.0019531-0.0019531-0.0073242-0.0068359-0.0097656-0.0117188
	c2.5126953,2.3710938,7.4946289,3.9863281,13.2314453,3.9863281c5.7441406,0,10.7011719-1.6269531,13.2099609-4.0029297
	c-0.0019531,0.0019531-0.0019531,0.0019531-0.0048828,0.0048828C37.5458984,32.9443359,37.7597656,33.4482422,37.7597656,33.9492188
	z M32.6074219,31.2285156c-2.2900391,0.8818359-5.1982422,1.4726563-8.5732422,1.4726563
	c-8.0888672,0-13.7260742-3.2919922-13.7260742-6.2402344c0-0.4228516,0.1459961-0.8525391,0.3676758-1.2773438
	c1.2236328,0.4130859,2.5761719,0.7363281,4.0214844,0.9550781c1.8623047,3.0742188,7.5703125,5.3144531,14.328125,5.3144531
	c1.2402344,0,2.4394531-0.0820313,3.5927734-0.2265625C32.6162109,31.2265625,32.6123047,31.2285156,32.6074219,31.2285156z
	 M29.0253906,27.7089844c-3.2021484,0-5.9951172-0.5263672-8.2324219-1.3330078
	c7.0351563-0.4130859,12.59375-3.2392578,13.1630859-6.7973633c1.6982422-0.7529297,3.0576172-1.690918,3.9335938-2.7587891
	c-0.0019531,0-0.0019531,0-0.0019531,0c3.0205078,1.2285156,4.8632813,2.9829102,4.8632813,4.6499023
	C42.7509766,24.4199219,37.1142578,27.7089844,29.0253906,27.7089844z M26.7011719,13.3056641
	c0-0.2636719-0.2099609-0.4658203-0.6289063-0.5996094c-0.4189453-0.1367188-1.3525391-0.3120117-2.7978516-0.5219727
	c-1.2998047-0.1826172-2.3154297-0.3652344-3.046875-0.5454102s-1.3261719-0.434082-1.7822266-0.7558594
	c-0.4555664-0.3266602-0.684082-0.706543-0.684082-1.1362305c0-0.5654297,0.4086914-1.0766602,1.2231445-1.5297852
	c0.8144531-0.4511719,2.0957031-0.7265625,3.8457031-0.8286133V6.4956055h2.3642578v0.8925781
	c2.6416016,0.1313477,4.3535156,0.7402344,5.1308594,1.8378906l-3.2568359,0.5454102
	c-0.6357422-0.7509766-1.6162109-1.1259766-2.9462891-1.1259766c-0.6679688,0-1.2041016,0.0825195-1.6064453,0.2539063
	c-0.4042969,0.1655273-0.6074219,0.3706055-0.6074219,0.6088867c0,0.2436523,0.1962891,0.4287109,0.5859375,0.5605469
	c0.3876953,0.1293945,1.2236328,0.2875977,2.5009766,0.4824219C26.3994141,10.7607422,27.5,10.9584961,28.296875,11.1459961
	c0.7998047,0.1855469,1.4345703,0.4438477,1.9130859,0.7729492c0.4755859,0.3286133,0.7148438,0.7138672,0.7148438,1.1523438
	c0,0.6777344-0.4931641,1.2387695-1.4765625,1.6894531c-0.9804688,0.4511719-2.3994141,0.7163086-4.2539063,0.7963867v1.15625
	h-2.3642578v-1.1513672c-3.09375-0.1289063-5.0053711-0.8671875-5.7436523-2.2084961l3.6557617-0.3896484
	c0.3378906,0.8432617,1.4589844,1.265625,3.3623047,1.265625c0.890625,0,1.5488281-0.090332,1.9677734-0.2709961
	C26.4912109,13.7783203,26.7011719,13.5610352,26.7011719,13.3056641z"/>
</svg>