<?xml version="1.0" encoding="utf-8"?>
<!DOCTYPE svg PUBLIC "-//W3C//DTD SVG 1.1//EN" "http://www.w3.org/Graphics/SVG/1.1/DTD/svg11.dtd">
<svg version="1.1" id="iPerepelki" xmlns="http://www.w3.org/2000/svg" xmlns:xlink="http://www.w3.org/1999/xlink" x="0px" y="0px" width="100%" height="100%" viewBox="0 0 48 48" preserveAspectRatio="xMidYMid meet">
<path fill="#2B2B2B" d="M10.6855469,8.168457c0.4199219,0.0219727,1.2226563-0.597168,1.4257813-0.6860352
	c0.2158203-0.0942383,0.8212891-0.1557617,0.8876953-0.3764648s-0.3261719-0.2553711-0.8339844-0.5649414
	c-0.5078125-0.3085938-0.6845703-0.6049805-1.3173828-0.6049805c-0.8740234,0-1.6074219,0.7719727-1.7626953,1.1162109
	c-0.0712891,0.1577148,0.1757813,0.1601563,0.484375,0.4033203C9.8789063,7.6982422,10.2666016,8.1459961,10.6855469,8.168457z
	 M10.6855469,6.1645508c0.5205078,0,0.9414063,0.3735352,0.9414063,0.8334961c0,0.4604492-0.4208984,0.8339844-0.9414063,0.8339844
	c-0.5195313,0-0.9414063-0.3735352-0.9414063-0.8339844C9.7441406,6.5380859,10.1660156,6.1645508,10.6855469,6.1645508z"/>
<path fill="#2B2B2B" d="M43.5097656,32.1826172c-0.0898438-0.4121094-0.1611328-0.7167969-0.0175781-3.6396484
	c0.1425781-2.9228516-1.9013672-10.534668-4.0166016-13.3588867c-2.1162109-2.8242188-6.6171875-4.7700195-11.046875-5.9443359
	C24,8.0654297,19.1494141,8.2084961,18.8271484,8.190918c-0.3232422-0.0180664-0.296875,0.0361328-2.3583984-1.6137695
	c-2.0625-1.6499023-3.5957031-2.2773438-6.3027344-2.4208984C7.4580078,4.0131836,6.2119141,5.9223633,6.2119141,5.9223633
	S6.3017578,5.949707,6.5263672,6.074707C6.75,6.2001953,6.5439453,6.5771484,6.5615234,6.8637695
	c0.0175781,0.2871094,0.1796875,0.3227539,1.09375,0.6455078c0.9150391,0.3227539,1.0849609,0.9145508,1.1210938,1.1474609
	C8.8115234,8.8901367,8.4628906,9.1591797,8.1308594,9.284668S7.2695313,9.1054688,6.9199219,9.1323242
	S6.1132813,9.293457,6.1132813,9.293457c0.546875,0.2602539,1.2460938,1.7841797,1.3183594,2.3037109
	c0.0712891,0.5205078-0.1621094,1.4169922-0.484375,2.4570313c-0.3232422,1.0400391-1.3095703,2.2055664,1.0576172,6.7246094
	c2.3671875,4.5180664,7.1728516,6.7954102,11.2607422,9.0737305c4.0888672,2.2763672,11.2080078,2.0253906,13.6464844,2.2949219
	c2.4384766,0.2685547,4.9492188,1.4169922,5.46875,1.6494141s0.9501953,1.1289063,1.8828125,1.5244141
	c0.9335938,0.3945313,1.7402344-0.0361328,2.1513672,0c0.4130859,0.0351563,0.7177734,0.2509766,1.4179688,0.0175781
	C44.5322266,35.1064453,43.5986328,32.5957031,43.5097656,32.1826172z M21.4755859,19.7924805
	c0.4521484-0.2436523,0.4199219-0.9018555,0.4199219-0.9018555s0.9160156,1.4458008,0.125,1.793457
	s-1.1679688-0.3779297-1.5810547-1.1992188C20.4394531,19.4848633,21.0234375,20.0361328,21.4755859,19.7924805z
	 M19.3242188,18.0708008c0.4521484-0.2436523,0.4199219-0.9018555,0.4199219-0.9018555s0.9150391,1.4462891,0.1240234,1.793457
	c-0.7900391,0.3476563-1.1679688-0.3779297-1.5800781-1.1992188C18.2880859,17.7631836,18.8710938,18.3144531,19.3242188,18.0708008
	z M19.3242188,20.652832c0.4521484-0.2436523,0.4199219-0.9018555,0.4199219-0.9018555s0.9150391,1.4462891,0.1240234,1.793457
	c-0.7900391,0.3476563-1.1679688-0.3779297-1.5800781-1.1992188C18.2880859,20.3452148,18.8710938,20.8964844,19.3242188,20.652832z
	 M17.171875,16.3496094c0.4521484-0.2436523,0.4199219-0.9018555,0.4199219-0.9018555s0.9160156,1.4458008,0.125,1.793457
	c-0.7900391,0.3476563-1.1679688-0.3779297-1.5810547-1.1992188C16.1357422,16.0419922,16.7197266,16.5932617,17.171875,16.3496094z
	 M17.171875,18.9316406c0.4521484-0.2436523,0.4199219-0.9018555,0.4199219-0.9018555s0.9160156,1.4458008,0.125,1.793457
	c-0.7900391,0.3476563-1.1679688-0.3779297-1.5810547-1.1992188C16.1357422,18.6240234,16.7197266,19.175293,17.171875,18.9316406z
	 M17.171875,21.5136719c0.4521484-0.2431641,0.4199219-0.9018555,0.4199219-0.9018555s0.9160156,1.4462891,0.125,1.793457
	c-0.7900391,0.347168-1.1679688-0.3774414-1.5810547-1.1992188C16.1357422,21.2060547,16.7197266,21.7578125,17.171875,21.5136719z
	 M15.0205078,14.6279297c0.4521484-0.2436523,0.4199219-0.9018555,0.4199219-0.9018555s0.9160156,1.4462891,0.1240234,1.793457
	c-0.7900391,0.3476563-1.1669922-0.3779297-1.5800781-1.1987305C13.984375,14.3208008,14.5683594,14.871582,15.0205078,14.6279297z
	 M15.0205078,17.2099609c0.4521484-0.2436523,0.4199219-0.9013672,0.4199219-0.9013672s0.9160156,1.4458008,0.1240234,1.7929688
	c-0.7900391,0.3481445-1.1669922-0.3774414-1.5800781-1.1987305C13.984375,16.902832,14.5683594,17.4536133,15.0205078,17.2099609z
	 M15.0205078,19.7924805c0.4521484-0.2436523,0.4199219-0.9018555,0.4199219-0.9018555s0.9160156,1.4458008,0.1240234,1.793457
	c-0.7900391,0.3476563-1.1669922-0.3779297-1.5800781-1.1992188C13.984375,19.4848633,14.5683594,20.0361328,15.0205078,19.7924805z
	 M8.6171875,6.8842773c0.4462891-0.1674805,1.5634766-1.0327148,2.2050781-1.1166992
	c0.6425781-0.0834961,1.0332031,0.2236328,1.6757813,0.6142578c0.6416016,0.3911133,1.2832031,0.6982422,1.2001953,0.9770508
	c-0.0839844,0.2792969-0.9492188,0.1674805-1.2285156,0.1953125s-1.2285156,0.8378906-1.7587891,0.8100586
	c-0.5302734-0.0283203-1.0888672-0.4750977-1.4804688-0.7822266C8.8398438,7.2753906,8.4072266,6.9628906,8.6171875,6.8842773z
	 M7.8076172,11.5800781c-0.1337891-0.4931641-0.9589844-1.6142578-0.8242188-1.9545898
	c0.0888672-0.2250977,0.8339844-0.1704102,1.3535156,0.3857422c0.5195313,0.5556641,1.9814453,1.487793,3.1289063,1.3354492
	s1.4257813,0.269043,1.4707031,0.3408203s-1.6679688,1.1738281-2.5107422,1.4345703
	c-0.8427734,0.2602539-2.6630859,0.6542969-2.9228516,0.4482422C7.6464844,12.9609375,7.9423828,12.0727539,7.8076172,11.5800781z
	 M9.109375,18.9624023c-0.7900391,0.3476563-1.1679688-0.3779297-1.5810547-1.1992188c0,0,0.5839844,0.5512695,1.0371094,0.3076172
	c0.4511719-0.2436523,0.4199219-0.9018555,0.4199219-0.9018555S9.9003906,18.6152344,9.109375,18.9624023z M9.109375,16.3803711
	c-0.7900391,0.347168-1.1679688-0.3779297-1.5810547-1.1992188c0,0,0.5839844,0.5512695,1.0371094,0.3076172
	c0.4511719-0.2436523,0.4199219-0.9018555,0.4199219-0.9018555S9.9003906,16.0332031,9.109375,16.3803711z M11.2617188,23.2661133
	c-0.7910156,0.347168-1.1679688-0.3774414-1.5810547-1.1992188c0,0,0.5839844,0.5512695,1.0361328,0.3076172
	s0.4199219-0.9013672,0.4199219-0.9013672S12.0517578,22.918457,11.2617188,23.2661133z M11.2617188,20.684082
	c-0.7910156,0.3476563-1.1679688-0.3779297-1.5810547-1.1992188c0,0,0.5839844,0.5512695,1.0361328,0.3076172
	s0.4199219-0.9018555,0.4199219-0.9018555S12.0517578,20.3364258,11.2617188,20.684082z M11.2617188,17.6713867
	C10.4707031,18.019043,10.09375,17.293457,9.6806641,16.472168c0,0,0.5839844,0.5512695,1.0361328,0.3076172
	s0.4199219-0.9018555,0.4199219-0.9018555S12.0517578,17.3242188,11.2617188,17.6713867z M11.2617188,15.0893555
	c-0.7910156,0.347168-1.1679688-0.3779297-1.5810547-1.1992188c0,0,0.5839844,0.5512695,1.0361328,0.3071289
	c0.4521484-0.2431641,0.4199219-0.9013672,0.4199219-0.9013672S12.0517578,14.7421875,11.2617188,15.0893555z
	 M13.4130859,24.9873047c-0.7910156,0.3476563-1.1679688-0.3774414-1.5810547-1.1992188
	c0,0,0.5839844,0.5517578,1.0361328,0.3076172c0.453125-0.2431641,0.4208984-0.9013672,0.4208984-0.9013672
	S14.2041016,24.6401367,13.4130859,24.9873047z M13.4130859,21.9750977
	c-0.7910156,0.347168-1.1679688-0.3774414-1.5810547-1.1992188c0,0,0.5839844,0.5512695,1.0361328,0.3076172
	c0.453125-0.2436523,0.4208984-0.9018555,0.4208984-0.9018555S14.2041016,21.6274414,13.4130859,21.9750977z M13.4130859,19.3925781
	c-0.7910156,0.3481445-1.1679688-0.3774414-1.5810547-1.1987305c0,0,0.5839844,0.5507813,1.0361328,0.3071289
	c0.453125-0.2436523,0.4208984-0.9013672,0.4208984-0.9013672S14.2041016,19.0454102,13.4130859,19.3925781z M13.4130859,16.3803711
	c-0.7910156,0.347168-1.1679688-0.3779297-1.5810547-1.1992188c0,0,0.5839844,0.5512695,1.0361328,0.3076172
	c0.453125-0.2436523,0.4208984-0.9018555,0.4208984-0.9018555S14.2041016,16.0332031,13.4130859,16.3803711z M13.4130859,14.2285156
	c-0.7910156,0.3476563-1.1679688-0.3779297-1.5810547-1.1992188c0,0,0.5839844,0.5512695,1.0361328,0.3071289
	c0.453125-0.2431641,0.4208984-0.9013672,0.4208984-0.9013672S14.2041016,13.8808594,13.4130859,14.2285156z M15.0205078,22.8046875
	c0.4521484-0.2431641,0.4199219-0.9013672,0.4199219-0.9013672s0.9160156,1.4458008,0.1240234,1.7929688
	c-0.7900391,0.347168-1.1669922-0.3774414-1.5800781-1.1992188C13.984375,22.4970703,14.5683594,23.0488281,15.0205078,22.8046875z
	 M15.9951172,26.2783203c-0.7900391,0.3476563-1.1679688-0.3769531-1.5800781-1.1992188
	c0,0,0.5830078,0.5517578,1.0351563,0.3076172c0.453125-0.2431641,0.4208984-0.9013672,0.4208984-0.9013672
	S16.7861328,25.9306641,15.9951172,26.2783203z M18.1474609,28c-0.7910156,0.3466797-1.1679688-0.3779297-1.5810547-1.1992188
	c0,0,0.5839844,0.5517578,1.0361328,0.3076172c0.4521484-0.2431641,0.4199219-0.9013672,0.4199219-0.9013672
	S18.9384766,27.6523438,18.1474609,28z M18.1474609,24.9873047c-0.7910156,0.3476563-1.1679688-0.3774414-1.5810547-1.1992188
	c0,0,0.5839844,0.5517578,1.0361328,0.3076172c0.4521484-0.2431641,0.4199219-0.9013672,0.4199219-0.9013672
	S18.9384766,24.6401367,18.1474609,24.9873047z M20.2988281,29.2910156
	c-0.7900391,0.3466797-1.1679688-0.3779297-1.5810547-1.1992188c0,0,0.5839844,0.5517578,1.0361328,0.3076172
	c0.4521484-0.2431641,0.4199219-0.9013672,0.4199219-0.9013672S21.0898438,28.9433594,20.2988281,29.2910156z
	 M20.2988281,26.7089844c-0.7900391,0.3466797-1.1679688-0.3779297-1.5810547-1.1992188
	c0,0,0.5839844,0.5517578,1.0361328,0.3076172c0.4521484-0.2431641,0.4199219-0.9018555,0.4199219-0.9018555
	S21.0898438,26.3613281,20.2988281,26.7089844z M20.2988281,23.6962891
	c-0.7900391,0.347168-1.1679688-0.3774414-1.5810547-1.1992188c0,0,0.5839844,0.5517578,1.0361328,0.3076172
	c0.4521484-0.2431641,0.4199219-0.9013672,0.4199219-0.9013672S21.0898438,23.3491211,20.2988281,23.6962891z M22.4501953,28
	c-0.7900391,0.3466797-1.1679688-0.3779297-1.5800781-1.1992188c0,0,0.5830078,0.5517578,1.0361328,0.3076172
	c0.4521484-0.2431641,0.4199219-0.9013672,0.4199219-0.9013672S23.2412109,27.6523438,22.4501953,28z M22.4501953,25.4179688
	c-0.7900391,0.3466797-1.1679688-0.3779297-1.5800781-1.1992188c0,0,0.5830078,0.5512695,1.0361328,0.3071289
	c0.4521484-0.2431641,0.4199219-0.9013672,0.4199219-0.9013672S23.2412109,25.0703125,22.4501953,25.4179688z
	 M22.4501953,22.8354492c-0.7900391,0.3476563-1.1679688-0.3774414-1.5800781-1.1992188
	c0,0,0.5830078,0.5517578,1.0361328,0.3076172c0.4521484-0.2431641,0.4199219-0.9013672,0.4199219-0.9013672
	S23.2412109,22.4882813,22.4501953,22.8354492z M24.6025391,29.7207031
	c-0.7910156,0.3476563-1.1679688-0.3769531-1.5810547-1.1982422c0,0,0.5839844,0.5507813,1.0361328,0.3066406
	c0.4521484-0.2431641,0.4199219-0.9013672,0.4199219-0.9013672S25.3935547,29.3740234,24.6025391,29.7207031z
	 M24.6025391,27.1386719c-0.7910156,0.3476563-1.1679688-0.3769531-1.5810547-1.1992188
	c0,0,0.5839844,0.5517578,1.0361328,0.3076172c0.4521484-0.2431641,0.4199219-0.9013672,0.4199219-0.9013672
	S25.3935547,26.7919922,24.6025391,27.1386719z M24.6025391,24.5571289
	c-0.7910156,0.347168-1.1679688-0.3774414-1.5810547-1.1992188c0,0,0.5839844,0.5512695,1.0361328,0.3076172
	c0.4521484-0.2431641,0.4199219-0.9013672,0.4199219-0.9013672S25.3935547,24.2094727,24.6025391,24.5571289z
	 M26.7539063,28.8603516c-0.7900391,0.3476563-1.1679688-0.3769531-1.5810547-1.1992188
	c0,0,0.5839844,0.5517578,1.0361328,0.3076172c0.4521484-0.2431641,0.4208984-0.9013672,0.4208984-0.9013672
	S27.5449219,28.5126953,26.7539063,28.8603516z M40.9453125,25.4042969
	c-0.8603516,2.2060547-7.9257813-0.3037109-9.0917969-0.6982422c-1.1650391-0.3955078-2.9765625-1.0942383-4.6796875-2.1875
	c1.3623047,0.6450195,1.9541016,0.734375,3.6220703,1.2543945c1.5244141,0.878418,7.2441406,1.8833008,8.3916016,1.9907227
	s1.6328125-1.362793,1.453125-1.2734375s-1.2734375,0.0180664-1.9003906-0.4838867
	c0.4833984,0.1787109,1.7568359,0.2871094,2.0429688,0.0356445c0.2871094-0.2514648,0-1.2373047,0-1.2373047
	c-0.0703125,0.2148438-0.6982422,0.5742188-2.2412109-0.1791992c1.8115234,0.5200195,1.8115234-0.5742188,1.8476563-0.8427734
	c0.0361328-0.269043-0.1972656-0.9501953-0.3417969-0.6279297c-0.1425781,0.3232422-1.4697266,0.0893555-2.1152344-0.3759766
	c0.3935547,0.1791992,1.3984375,0.465332,1.6679688-0.4663086c0.1611328-0.9501953-1.2910156-1.8115234-1.2744141-1.7397461
	c0.0195313,0.0722656-0.0537109,0.5380859-0.7705078,0.4301758c0.6455078,0,0.5019531-0.5375977,0.0185547-1.3803711
	c-0.484375-0.8427734-1.9912109-1.8647461-3.2460938-2.0620117c0.7167969-0.1435547,0.609375-0.484375,0.359375-0.9501953
	c-0.2519531-0.4667969-2.1347656-1.4887695-4.1787109-2.6723633s-7.2441406-0.9682617-7.2441406-0.9682617
	c7.7998047-1.7749023,12.1757813,3.8378906,14.8662109,6.5629883
	C40.8203125,20.2583008,41.8056641,23.1992188,40.9453125,25.4042969z"/>
<path fill="#2B2B2B" d="M10.5175781,7.5307617c0.2939453,0,0.53125-0.2446289,0.53125-0.5458984
	c0-0.0849609-0.0224609-0.1625977-0.0566406-0.2348633l-0.4746094,0.2348633l0.1328125-0.5180664
	c-0.0439453-0.0117188-0.0859375-0.0273438-0.1328125-0.0273438c-0.2939453,0-0.53125,0.2441406-0.53125,0.5454102
	S10.2236328,7.5307617,10.5175781,7.5307617z"/>
<path fill="#2B2B2B" d="M7.9824219,9.0830078c0.1748047-0.0405273,0.3632813-0.2958984,0.3632813-0.2958984
	s-0.0673828-0.0136719-0.9003906-0.215332C6.5439453,8.3164063,4.9033203,8.746582,4.6474609,8.800293
	C4.7285156,8.6928711,5.4140625,8.5317383,6.140625,8.4106445c0.7255859-0.1210938,2.3535156,0.2148438,2.3535156,0.2148438
	C8.2246094,7.4960938,6.6113281,7.4018555,6.4492188,7.2407227C6.2880859,7.0791016,6.4365234,6.3798828,6.3955078,6.2988281
	C6.3554688,6.2182617,6.2070313,6.2319336,5.9921875,6.1376953c-0.1474609,0.0942383-1.0888672,0.484375-1.6943359,1.1162109
	c-0.6054688,0.6323242-0.3369141,2.340332-0.2822266,2.340332c0.0537109,0,0.1611328-0.1347656,0.1884766-0.2558594
	c0.0263672-0.1210938,0.1875-0.2958984,0.1875-0.2958984s0.5380859,0.1479492,0.8613281,0.2016602
	c0.3222656,0.0537109,0.6044922,0,0.8330078-0.0668945c0.2285156-0.0673828,0.7802734-0.2285156,0.96875-0.2016602
	S7.8076172,9.1230469,7.9824219,9.0830078z"/>
<path fill="#2B2B2B" d="M31.3027344,34.2041016c-0.3632813-0.2285156-0.2695313-0.5234375-0.2558594-1.5595703
	c-0.6054688-0.2822266-1.5595703-0.1074219-1.5595703-0.1074219s-0.2558594,0.7529297-0.5654297,1.0351563
	c-0.3085938,0.2832031-1.5595703-0.1611328-1.5595703-0.1611328s-0.03125-0.0224609,0.4394531-0.9228516
	c-0.7402344-0.3232422-1.7753906-0.2519531-1.7753906-0.2519531l-0.3583984,0.8515625c0,0-0.2558594-0.0126953-0.4707031-0.0664063
	c-0.2158203-0.0537109-0.6328125-0.3369141-1.0361328-0.4980469s-1.0888672,0.0673828-1.5058594,0.4443359
	c0.1611328-0.0810547,0.6455078-0.0947266,0.9003906-0.0136719c-0.1074219,0.1074219,0.0673828,0.3496094,0.2822266,0.4160156
	c0.2158203,0.0683594,0.4580078,0,0.8339844,0.0820313c0.3769531,0.0800781,0.6455078,0.5107422,0.6328125,0.6181641
	c-0.0136719,0.1074219-0.2558594,0.1337891-0.4980469,0.1337891s-0.7255859,0.0273438-0.96875,0.0410156
	c-0.2412109,0.0136719-0.6582031,0.0800781-1.1289063,0.0673828c-0.4707031-0.0136719-1.6269531-0.1484375-2.1386719-0.0810547
	c-0.5107422,0.0673828-1.0224609,0.7802734-1.0888672,1.2509766c0.1210938-0.4443359,1.0214844-0.7392578,1.0214844-0.7392578
	s0.2285156,0.2822266,0.4443359,0.3496094c0.2148438,0.0664063,0.5507813-0.0947266,0.7529297-0.1748047
	c0.2011719-0.0810547,1.4121094,0.0126953,1.4121094,0.0126953s0.1884766,0.2558594,0.484375,0.2958984
	s0.6044922-0.2285156,0.6044922-0.2285156s0.2421875,0.0273438,0.3369141,0.0400391
	c0.09375,0.0136719,0.3496094-0.0263672,0.3496094-0.0263672s-0.5517578,1.1835938-0.6865234,1.3447266
	c-0.1337891,0.1611328-0.7119141,0.6318359-1.1025391,0.8876953C22.7089844,37.5,21.2558594,37.1230469,20.9873047,37.0693359
	s-1.1298828-0.0136719-1.4658203-0.0673828s-1.0224609-0.3623047-2.1386719-0.2695313
	c-1.1162109,0.0947266-1.3037109,1.0087891-1.1826172,0.8476563c0.1201172-0.1611328,1.0351563-0.3896484,1.0351563-0.3896484
	s0.2958984,0.4033203,0.4980469,0.4570313c0.2011719,0.0546875,1.3974609-0.0136719,1.8017578,0.0810547
	c0.4033203,0.09375,0.6992188,0.3095703,0.6992188,0.3095703s-0.6054688,0.1337891-0.9550781,0.2138672
	c-0.3496094,0.0820313-1.3173828,0.1484375-1.5058594,0.1894531c-0.1884766,0.0400391-0.6191406,0.2548828-0.8076172,0.3085938
	c-0.1875,0.0537109-0.6044922-0.0126953-1.5859375,0.3769531C14.3974609,39.5166016,14.5722656,40.6875,14.5722656,40.6875
	s0.4169922-0.4980469,0.6728516-0.7265625c0.2548828-0.2285156,0.5644531-0.2285156,0.5644531-0.2285156
	s0.1884766,0.1748047,0.4570313,0.1474609c0.2695313-0.0263672,0.8076172-0.4570313,1.1835938-0.5107422
	c0.3769531-0.0546875,0.5917969,0.2148438,0.8203125,0.2011719c0.2285156-0.0126953,0.2421875-0.1875,0.3769531-0.2949219
	s0.9414063-0.2158203,1.2636719-0.2431641c0.3232422-0.0263672,0.390625,0.1357422,0.5517578,0.1357422
	s0.4169922-0.1621094,0.4169922-0.1621094s0.484375,0.0136719,0.7929688-0.0400391
	c0.3095703-0.0546875,0.6865234,0.0273438,0.6865234,0.0273438s0.1074219,0.1337891,0.0537109,0.2548828
	s-0.6855469,0.5380859-0.7939453,0.6455078c-0.1074219,0.1074219-0.1347656,0.3085938-0.1611328,0.4169922
	c-0.0273438,0.1074219-0.4306641,0.5917969-0.4306641,0.5917969s-0.0126953,0.0800781-0.2285156,0.6855469
	c-0.7392578,1.5068359-0.1611328,2.2324219,0.1748047,2.4746094C20.8261719,43.9140625,20.9335938,43,20.9335938,43
	s0,0,0.2421875-0.0136719c0.2421875-0.0126953,0.2958984-0.6992188,0.2548828-0.9003906
	c-0.0400391-0.2021484,0.4042969-0.7539063,0.4443359-0.7539063s0.2822266-0.0800781,0.3359375-0.3496094
	c0.2021484-0.6318359,1.7753906-1.6806641,1.8564453-1.7880859c0.0800781-0.1083984,0.9013672-0.3769531,1.2099609-0.5117188
	c0.3095703-0.1337891,0.3496094-0.3623047,0.4306641-0.5908203c0.0810547-0.2294922,0.5917969-0.2021484,0.8876953-0.2021484
	s0.7792969-0.0537109,1.3310547-0.0537109s0.5917969-0.1884766,0.5917969-0.1884766s-0.0673828-0.1347656,0.1347656-0.1611328
	c0.2011719-0.0273438,0.5244141-0.0136719,1.1162109,0.1611328c-0.1884766-0.484375-1.0087891-0.8066406-1.3183594-0.7792969
	c-0.3085938,0.0263672-0.9140625,0.2685547-1.2773438,0.2949219c-0.3632813,0.0273438-1.1835938-0.0537109-1.1835938-0.0537109
	s-0.0136719-0.1875,0.0400391-0.4306641c0.0410156-0.1748047,1.7353516-0.6318359,1.8427734-0.7392578
	s0.7402344-0.0800781,1.0087891-0.1337891s0.3095703-0.296875,0.6054688-0.3505859
	c0.2949219-0.0527344,0.6181641,0.1484375,0.9277344,0.1074219c0.3095703-0.0390625,0.5644531-0.4970703,0.671875-0.4697266
	c0.0664063,0.0166016,0.8076172,0.1738281,1.5068359,0.4306641c0.6992188,0.2548828,1.6132813,0.8466797,1.6132813,0.8466797
	s0,0-0.2285156-0.578125C33.75,35.2128906,31.6650391,34.4326172,31.3027344,34.2041016z"/>
</svg>