<?xml version="1.0" encoding="utf-8"?>
<!DOCTYPE svg PUBLIC "-//W3C//DTD SVG 1.1//EN" "http://www.w3.org/Graphics/SVG/1.1/DTD/svg11.dtd">
<svg version="1.1" id="iVarenya" xmlns="http://www.w3.org/2000/svg" xmlns:xlink="http://www.w3.org/1999/xlink" x="0px" y="0px" width="100%" height="100%" viewBox="0 0 48 48" preserveAspectRatio="xMidYMid meet">
<path fill="#2B2B2B" d="M25.1523438,5.6274414c-3.8330078,0-7.1035156,0.4726563-8.4433594,1.1416016
	c1.7192383,0.5151367,4.7314453,1.2729492,8.2285156,1.2729492c3.6376953,0,6.8496094-0.7861328,8.5253906-1.3359375
	C32.046875,6.0712891,28.8652344,5.6274414,25.1523438,5.6274414z"/>
<path fill="#2B2B2B" d="M24.9833984,4c-5.3828125,0-9.7475586,0.8125-9.7475586,1.8139648
	c0,0.2607422,0.3017578,0.5083008,0.8344727,0.7324219c0.2143555-0.9638672,4.1933594-1.7329102,9.0820313-1.7329102
	c4.6552734,0,8.4882813,0.6967773,9.03125,1.5957031c0.3476563-0.1870117,0.546875-0.3862305,0.546875-0.5952148
	C34.7304688,4.8125,30.3652344,4,24.9833984,4z"/>
<path fill="#2B2B2B" d="M34.7128906,7C33.140625,8,28.75,8.875,25.015625,8.875C20.921875,8.875,16.0366211,8,15.2836914,7
	H15.015625l0.015625,33.9921875c0.0571289,2,4.6201172,3.2167969,9.9677734,3.2167969
	c5.3466797,0,9.9443359-1.2148438,10.0009766-3.2148438L35.015625,7H34.7128906z M33.7119141,15.2739258
	c0,0-0.2822266-0.1787109-0.8720703-0.4125977c0.0322266-0.6240234,0.0527344-1.1582031,0.0585938-1.5703125
	c0.0449219-3.5913086-0.3183594-4.6489258-0.5585938-4.9580078c0.8359375-0.2104492,1.359375-0.3691406,1.359375-0.3691406
	L33.7119141,15.2739258z M32.7851563,15.8251953c0.4960938,0.2294922,0.8164063,0.4609375,0.9121094,0.6694336l0.0019531,0.3769531
	c-0.2460938,0.1313477-0.5908203,0.2739258-1.0117188,0.4165039C32.7246094,16.7714844,32.7558594,16.2827148,32.7851563,15.8251953
	z M30.734375,17.8125c-1.4375,0.2607422-3.8916016,0.5888672-5.7353516,0.5888672
	c-1.7563477,0-3.3901367-0.1640625-4.7792969-0.4013672c-0.0209961-0.9956055-0.0439453-1.9697266-0.0673828-2.8818359
	c1.40625-0.3359375,3.0722656-0.6015625,4.8369141-0.6015625c1.7998047,0,4.3085938,0.293457,5.6982422,0.5615234
	C30.671875,16.03125,30.75,16.5,30.734375,17.8125z M24.9375,9.375c1.5400391-0.0297852,4.5097656-0.3764648,5.9121094-0.640625
	C30.8144531,9.6635742,30.828125,10.59375,30.796875,11.5625c-0.0117188,0.3686523,0,1.3125-0.09375,2.671875
	c-1.1337891-0.1865234-3.421875-0.4858398-5.1201172-0.4858398c-2.1552734,0-3.9936523,0.234375-5.4521484,0.527832
	c-0.0693359-2.6362305-0.1328125-4.5620117-0.1328125-4.5620117s-0.1430664,1.9775391-0.3110352,4.6577148
	c-2.1625977,0.4780273-3.5878906,1.0917969-3.5878906,1.0917969l0.0209961-7.2919922
	C16.1201172,8.171875,20.9941406,9.4516602,24.9375,9.375z M16.0654297,16.4946289c0,0,1.421875-0.6821289,3.5673828-1.2446289
	c-0.0507813,0.8320313-0.1020508,1.7138672-0.1518555,2.6137695c-1.7207031-0.3476563-2.9648438-0.7949219-3.4125977-1.1318359
	L16.0654297,16.4946289z M33.7675781,38.2382813c0,1.7988281-3.9091797,3.3623047-8.7304688,3.3623047
	c-4.8208008,0-8.7290039-1.5966797-8.7290039-3.3945313C16.3081055,38.171875,16.3188477,38,16.3217773,38h-0.0136719
	l-0.2373047-21.2084961c0.4438477,0.5820313,1.6665039,1.3520508,3.3618164,1.8442383
	C19.2851563,21.4199219,19.40625,24.3876953,19.40625,26.34375c0,4.8056641,0.84375,11.03125,0.84375,11.03125
	s0.0092773-7.3828125,0-10.78125c-0.0053711-1.9570313,0.043457-4.90625-0.0102539-7.6367188
	c1.3847656,0.3300781,3.0112305,0.5517578,4.7592773,0.5517578c1.8681641,0,4.3193359-0.3969727,5.7666016-0.7744141
	c0.4072266,6.9472656,0.4042969,15.9394531,0.4042969,15.9394531s0.9902344-10.1230469,1.4716797-16.7412109
	c0.4433594-0.2270508,0.8046875-0.690918,1.0585938-0.918457L33.7675781,38h-0.0029297
	C33.7646484,38,33.7675781,38.234375,33.7675781,38.2382813z"/>
<path fill="#2B2B2B" d="M32.1191406,8.2211914"/>
</svg>