<?xml version="1.0" encoding="utf-8"?>
<!DOCTYPE svg PUBLIC "-//W3C//DTD SVG 1.1//EN" "http://www.w3.org/Graphics/SVG/1.1/DTD/svg11.dtd">
<svg version="1.1" id="iProducts" xmlns="http://www.w3.org/2000/svg" xmlns:xlink="http://www.w3.org/1999/xlink" x="0px" y="0px" width="100%" height="100%" viewBox="0 0 240 240" preserveAspectRatio="xMidYMid meet">
<path id="leaf" fill="#333333" d="M80.3950195,55.6586914c40.1303711,24.0698242,38.9169922,18.8066406,38.9169922,18.8066406
	c-4.6040039-44.9550781-54.5004883-60.6186523-54.5004883-60.6186523S66.0405273,47.046875,80.3950195,55.6586914z"/>
<path id="wood" fill="#333333" d="M113.3950195,91.9189453c1.034668-19.4067383,14.2915039-63.8994141,17.7368164-68.8911133
	c3.4443359-4.9960938,14.1269531-19.6367188,7.9228516,0c-6.1992188,19.6376953-15.6972656,50.9077148-12.5273438,72.3295898
	l-7.9428711,5.4365234L113.3950195,91.9189453z"/>
<g>
	<path fill="#333333" d="M153.8720703,77.980957c-24.4619141,0-28.2949219,14.550293-29.2880859,16.3632813
		c-1.0332031,1.8989258-7.5537109,1.3544922-8.6123047-0.1708984c-1.7270508-2.4931641-0.6889648-16.1923828-32.3837891-16.1923828
		c-31.699707,0-47.8920898,20.6699219-47.8920898,51.6791992c0,31.0087891,41.3452148,89.9199219,61.3295898,89.9199219
		c18.6040039,0,17.340332-3.2119141,23.1674805-3.2119141c6.1137695,0,3.3579102,3.4697266,20.9321289,3.4697266
		c25.4951172,0,63.5644531-59.7470703,63.5644531-92.1318359C204.6894531,95.3164063,186.2558594,77.980957,153.8720703,77.980957z
		 M138.5605469,211.1494141c-15.4208984,0-13.0029297-3.0449219-18.3676758-3.0449219
		c-5.1137695,0-4.0048828,2.8193359-20.3300781,2.8193359c-17.5361328,0-53.8164063-51.6953125-53.8164063-78.90625
		c0-27.2104492,14.2084961-45.3486328,42.0253906-45.3486328c27.8120117,0,26.9013672,12.0214844,28.4169922,14.2094727
		c0.9291992,1.3378906,6.6508789,1.8164063,7.5581055,0.1494141c0.8710938-1.590332,4.2333984-14.3588867,25.7001953-14.3588867
		c28.4169922,0,44.5927734,15.2124023,44.5927734,43.6347656
		C194.3398438,158.7207031,160.9326172,211.1494141,138.5605469,211.1494141z"/>
	<path fill="#333333" d="M187.5371094,129.1982422c-2.0019531-17.2929688-8.4677734-23.078125-23.3789063-28.3198242
		c0,0,9.7714844,10.0546875,12.5957031,18.3408203C184.4345703,141.7851563,187.7587891,131.1162109,187.5371094,129.1982422z"/>
</g>
</svg>
