<?xml version="1.0" encoding="utf-8"?>
<!DOCTYPE svg PUBLIC "-//W3C//DTD SVG 1.1//EN" "http://www.w3.org/Graphics/SVG/1.1/DTD/svg11.dtd">
<svg version="1.1" id="iProductsProp" xmlns="http://www.w3.org/2000/svg" xmlns:xlink="http://www.w3.org/1999/xlink" x="0px" y="0px" width="100%" height="100%" viewBox="0 0 48 48" preserveAspectRatio="xMidYMid meet">
<path id="base" fill="#2B2B2B" d="M38.25,9h-2.5v2.5H37v20H27v10H12v-30h1.25V9h-2.5C10.0625,9,9.5,9.5625,9.5,10.25v32.5
	c0,0.6875,0.5625,1.25,1.25,1.25h19.6875L39.5,34.9375V10.25C39.5,9.5625,38.9375,9,38.25,9z M29.5,41.5V34H37L29.5,41.5z M34.5,9
	h-5V6.5C29.5,5.125,28.375,4,27,4h-5c-1.3754883,0-2.5,1.125-2.5,2.5V9h-5v5h20V9z M27,9h-5V6.5039063
	C22.0014648,6.5024414,22.0024414,6.5009766,22.0039063,6.5h4.9912109C26.9970703,6.5014648,26.9980469,6.503418,27,6.5039063V9z"/>
<rect id="line_2" x="14" y="18" fill="#2B2B2B" width="15" height="2"/>
<rect id="line_1" x="14" y="25" fill="#2B2B2B" width="15" height="2"/>
<path id="v2" fill="#111111" d="M33.1650391,21c-0.1855469,0-0.421875-0.3676758-0.5136719-0.5249023
	c-0.0751953-0.1293945-0.1298828-0.3701172-0.1884766-0.5107422c-0.1601563-0.3828125-0.359375-0.9145508-1.5273438-1.9262695
	c-0.2089844-0.1806641-0.2314453-0.5249023-0.0507813-0.7333984c0.1806641-0.2094727,0.4970703-0.2446289,0.7050781-0.0644531
	c0.9560547,0.8276367,1.3642578,1.3740234,1.5878906,1.7875977c0.0087891-0.0180664,0.0166016-0.0400391,0.0244141-0.0576172
	c0.4316406-0.9775391,1.0839844-2.4555664,2.1601563-3.28125c0.2177734-0.168457,0.5322266-0.1289063,0.7011719,0.0913086
	c0.1679688,0.21875,0.1269531,0.5322266-0.0917969,0.7001953c-0.8740234,0.6708984-1.4638672,2.2304688-1.8544922,3.1142578
	C33.765625,20.3901367,33.6054688,21,33.1835938,21C33.1777344,21,33.1708984,21,33.1650391,21z"/>
<path id="v1" fill="#111111" d="M33.1650391,28c-0.1855469,0-0.421875-0.3681641-0.5136719-0.5244141
	c-0.0751953-0.1298828-0.1298828-0.3701172-0.1884766-0.5107422c-0.1601563-0.3828125-0.359375-0.9160156-1.5273438-1.9267578
	c-0.2089844-0.1806641-0.2314453-0.5249023-0.0507813-0.7333984c0.1806641-0.2089844,0.4970703-0.2451172,0.7050781-0.0644531
	c0.9560547,0.8271484,1.3642578,1.3740234,1.5878906,1.7880859c0.0087891-0.0185547,0.0166016-0.0400391,0.0244141-0.0576172
	c0.4316406-0.9780273,1.0839844-2.4560547,2.1601563-3.2817383c0.2177734-0.1689453,0.5322266-0.1293945,0.7011719,0.0913086
	c0.1679688,0.21875,0.1269531,0.5322266-0.0917969,0.7001953c-0.8740234,0.6708984-1.4638672,2.2294922-1.8544922,3.1142578
	C33.765625,27.3896484,33.6054688,28,33.1835938,28C33.1777344,28,33.1708984,28,33.1650391,28z"/>
</svg>