<?xml version="1.0" encoding="utf-8"?>
<!DOCTYPE svg PUBLIC "-//W3C//DTD SVG 1.1//EN" "http://www.w3.org/Graphics/SVG/1.1/DTD/svg11.dtd">
<svg version="1.1" id="iProducts" xmlns="http://www.w3.org/2000/svg" xmlns:xlink="http://www.w3.org/1999/xlink" x="0px" y="0px" width="100%" height="100%" viewBox="0 0 48 48" preserveAspectRatio="xMidYMid meet">
<path id="leaf" fill="#4B4B4B" d="M15.9868164,12.3789063c7.78125,4.6669922,7.5454102,3.6469727,7.5454102,3.6469727
	C22.6396484,7.3085938,12.965332,4.2709961,12.965332,4.2709961S13.2026367,10.7094727,15.9868164,12.3789063z"/>
<path id="wood" fill="#4B4B4B" d="M21.8828125,21.6337891c0-3.9086914,3.2734375-14.6137695,3.9414063-15.5820313
	c0.6679688-0.96875,2.7392578-3.8081055,1.5361328,0c-1.2021484,3.8076172-3.1499023,10.4545898-2.3212891,14.7143555
	L21.8828125,21.6337891z"/>
<path id="apple" fill="#4B4B4B" d="M30.2333984,16.7070313c-4.7431641,0-5.4863281,2.8212891-5.6787109,3.1728516
	c-0.2001953,0.3676758-1.4648438,0.2631836-1.6699219-0.0332031c-0.3349609-0.4838867-0.1337891-3.1396484-6.2797852-3.1396484
	s-9.2856445,4.0078125-9.2856445,10.0205078s8.0166016,17.4355469,11.8911133,17.4355469
	c3.6079102,0,3.362793-0.6230469,4.4926758-0.6230469c1.1855469,0,0.6513672,0.6728516,4.0585938,0.6728516
	c4.9433594,0,12.3251953-11.5849609,12.3251953-17.8642578C40.0869141,20.0688477,36.5126953,16.7070313,30.2333984,16.7070313z
	 M36.2011719,23.8994141c-0.6240234-1.831543-2.7832031-4.0527344-2.7832031-4.0527344
	c3.2949219,1.1582031,4.7236328,2.4365234,5.1660156,6.2578125C38.6328125,26.5283203,37.8984375,28.8857422,36.2011719,23.8994141z
	"/>
</svg>