<svg id="iSAS4" xmlns="http://www.w3.org/2000/svg" viewBox="0 0 240 240"><title>iSAS4</title><circle cx="120" cy="120" r="120" fill="#fff"/><path d="M100.25 217.108c0-13.322 10.264-22.005 23.575-22.005 9.576 0 15.477 4.34 17.817 7.917l-10.086 9.484a8.178 8.178 0 0 0-7.043-3.568c-4.44 0-8.254 2.776-8.254 8.173 0 5.383 3.812 8.255 8.253 8.255a8.446 8.446 0 0 0 7.043-3.664l10.086 9.593c-2.34 3.472-8.24 7.915-17.817 7.915-13.31 0-23.575-8.692-23.575-22.1M67.98 191.6a33.72 33.72 0 0 0 14.568 14.21 34 34 0 0 0-18.38-34.184A33.733 33.733 0 0 0 67.98 191.6M17.127 149.462a27.6 27.6 0 0 0 13.09 10.03 27.33 27.33 0 0 0-5.024-15.717 27.153 27.153 0 0 0-13.067-10 27.554 27.554 0 0 0 5 15.687M46.988 178.82a30.514 30.514 0 0 0 15.913 9.17 30.66 30.66 0 0 0-23.735-25.786 30.684 30.684 0 0 0 7.823 16.615M35.123 145.716a27.48 27.48 0 0 0-.29 16.488 27.532 27.532 0 0 0 9.944-29.85 27.425 27.425 0 0 0-9.654 13.362M73.243 220.612a35.442 35.442 0 0 0 20.5-6.103 35.658 35.658 0 0 0-40.772-.57 35.4 35.4 0 0 0 20.273 6.672M47.406 200.916a33.73 33.73 0 0 0 20.354-.94 34.04 34.04 0 0 0-37.542-9.932 33.832 33.832 0 0 0 17.188 10.872M25.918 174.93a30.522 30.522 0 0 0 16.964 6.99 30.28 30.28 0 0 0-9.943-15.428 30.366 30.366 0 0 0-16.983-7 30.344 30.344 0 0 0 9.96 15.438M173.03 191.976a33.703 33.703 0 0 1-14.562 14.226 33.948 33.948 0 0 1 18.4-34.193 33.68 33.68 0 0 1-3.837 19.966M222.957 147.553a27.465 27.465 0 0 1-13.072 10.02 27.394 27.394 0 0 1 18.073-25.72 27.45 27.45 0 0 1-5 15.7M194.022 179.194a30.41 30.41 0 0 1-15.907 9.173 30.66 30.66 0 0 1 23.703-25.787 30.27 30.27 0 0 1-7.796 16.614M206.517 143.832a27.222 27.222 0 0 1 .27 16.454 27.538 27.538 0 0 1-9.924-29.82 27.183 27.183 0 0 1 9.654 13.366M164.46 222.174a35.433 35.433 0 0 1-20.474-6.123 35.62 35.62 0 0 1 40.768-.586 35.475 35.475 0 0 1-20.294 6.71M192.678 202.024a33.89 33.89 0 0 1-20.335-.93 33.955 33.955 0 0 1 37.542-9.938 33.97 33.97 0 0 1-17.207 10.868M215.877 173.884a30.496 30.496 0 0 1-16.99 6.988 30.633 30.633 0 0 1 9.92-15.43 30.296 30.296 0 0 1 17.004-6.984 30.88 30.88 0 0 1-9.933 15.426M152.46 142.918h-10.5v18.076h-18.016v-18.076H86.72v-12.825l38.238-56.316h17.002V128.6h10.5v14.318zM123.944 128.6v-14.794q0-3.698.298-10.738.3-7.038.478-8.173h-.478a66.656 66.656 0 0 1-5.31 9.545l-15.987 24.16h21zM17.193 100.39a10.27 10.27 0 0 0 2.27 8.578q2.994 3.45 8.93 4.29 6.105.864 9.838-1.527 3.736-2.388 4.485-7.686a28.15 28.15 0 0 0-.12-7.59l3.17.45a23.093 23.093 0 0 1 .084 8.148q-.973 6.87-5.67 10.014-4.698 3.144-12.378 2.058a18.882 18.882 0 0 1-8.17-2.99 13.033 13.033 0 0 1-4.84-5.978 15.867 15.867 0 0 1-.826-8.265 19.47 19.47 0 0 1 2.996-8.298l2.89 1.97a16.655 16.655 0 0 0-2.66 6.83zM55.11 76.746l-1.65 3.257-25.126-12.73-4.495 8.873-2.895-1.466 10.642-21.004 2.894 1.466-4.495 8.873zM80.68 46.858l-9.513-4.96-9.49 8.272 3.65 10.072-2.785 2.428-11.365-31.933 2.316-2.02L83.53 44.375zm-12.53-6.69L59 35.232q-1.748-.927-4.08-2.457a40.704 40.704 0 0 1 1.96 4.306l3.61 9.766zM115.39 34.83l-3.552.857-3.463-14.37-16.082 3.877 3.463 14.37-3.55.855-7.36-30.536 3.55-.856 3.13 12.99 16.083-3.876-3.132-12.99 3.55-.857zM151.705 49.163l-3.334-1 2.355-7.84-20.907-6.278-2.353 7.84-3.333-1 3.305-11.01 2.325.7a59.45 59.45 0 0 0 9.314-11.337 60.18 60.18 0 0 0 6.69-13.2l13.517 4.058-8.08 26.915 3.807 1.144zm-4-13.203l7.136-23.766-6.852-2.057a59.512 59.512 0 0 1-6.082 11.218 57.548 57.548 0 0 1-8.48 10.318zM177.104 62.745l4.1-9.913-9.08-8.722-9.71 4.527-2.664-2.56 30.804-14.144 2.216 2.128-12.94 31.305zm5.556-13.073l4.108-9.55q.77-1.823 2.086-4.28a40.717 40.717 0 0 1-4.116 2.33l-9.407 4.46zM213.207 80.026a8.795 8.795 0 0 1-8.02.27q-3.73-1.81-6.373-7.263l-1.61-3.326-11.118 5.385-1.592-3.287 28.27-13.692 3.548 7.328q5.132 10.596-3.105 14.586zm-13.18-11.686l1.433 2.958q2.117 4.37 4.474 5.64 2.357 1.268 5.47-.24a5.42 5.42 0 0 0 3.287-3.86q.483-2.502-1.398-6.388l-1.78-3.674zM197.313 110.666l-.533-3.91 27.908-3.81-1.454-10.643 3.214-.44 3.44 25.198-3.213.44-1.454-10.644z" fill="#9c9c9c"/></svg>