<?xml version="1.0" encoding="utf-8"?>
<!DOCTYPE svg PUBLIC "-//W3C//DTD SVG 1.1//EN" "http://www.w3.org/Graphics/SVG/1.1/DTD/svg11.dtd">
<svg version="1.1" id="iSearch" xmlns="http://www.w3.org/2000/svg" xmlns:xlink="http://www.w3.org/1999/xlink" x="0px" y="0px" width="100%" height="100%" viewBox="0 0 48 48" preserveAspectRatio="xMidYMid meet">
<path fill="#ffffff" d="M44.1621094,40.2382813l-9.1845703-9.1835938c2.1533203-2.8046875,3.4472656-6.3037109,3.4472656-10.1132813
	c0-9.1884766-7.4501953-16.6396484-16.6396484-16.6396484c-9.1884766,0-16.6396484,7.4511719-16.6396484,16.6396484
	c0,9.1904297,7.4511719,16.6386719,16.6396484,16.6386719c3.0244141,0,5.8525391-0.8193359,8.2958984-2.2294922l9.4853516,9.4833984
	L44.1621094,40.2382813z M12.1455078,20.9414063c0-5.3154297,4.3242188-9.6396484,9.6396484-9.6396484
	s9.6396484,4.3242188,9.6396484,9.6396484c0,5.3144531-4.3242188,9.6386719-9.6396484,9.6386719
	S12.1455078,26.2558594,12.1455078,20.9414063z"/>
</svg>