<?xml version="1.0" encoding="utf-8"?>
<!DOCTYPE svg PUBLIC "-//W3C//DTD SVG 1.1//EN" "http://www.w3.org/Graphics/SVG/1.1/DTD/svg11.dtd">
<svg version="1.1" id="iSettings" xmlns="http://www.w3.org/2000/svg" xmlns:xlink="http://www.w3.org/1999/xlink" x="0px" y="0px" width="100%" height="100%" viewBox="0 0 48 48" preserveAspectRatio="xMidYMid meet">
<path id="gear" fill="#4D4D4D" d="M44,26.1767578v-4.3525391l-3.0332031-0.7583008
	c-0.6289063-0.1567383-1.1210938-0.6445313-1.2880859-1.269043c0-0.003418-0.0019531-0.0078125-0.0039063-0.0107422
	c-0.1640625-0.6162109,0.0205078-1.2729492,0.4775391-1.7167969l2.2548828-2.1826172l-2.1757813-3.7700195l-2.9882813,0.8544922
	c-0.6347656,0.1796875-1.3193359,0.0043945-1.7832031-0.4599609v-0.0009766
	c-0.4482422-0.4448242-0.6162109-1.097168-0.4443359-1.7021484l0.8710938-3.0385742l-3.7734375-2.1772461l-2.1738281,2.2456055
	c-0.4482422,0.4648438-1.1142578,0.6503906-1.7373047,0.4829102c-0.0039063-0.0009766-0.0058594-0.0019531-0.0117188-0.0019531
	c-0.6171875-0.1650391-1.0976563-0.6513672-1.25-1.2714844l-0.7646484-3.0454102h-4.3535156l-0.7592773,3.0307617
	c-0.15625,0.6279297-0.6430664,1.1220703-1.2675781,1.2880859c-0.0043945,0.0009766-0.0073242,0.0029297-0.0102539,0.0039063
	c-0.6152344,0.1645508-1.2739258-0.0166016-1.7163086-0.4765625l-2.184082-2.2558594l-3.7709961,2.1772461l0.855957,2.9892578
	c0.1796875,0.6342773,0.0043945,1.315918-0.4594727,1.7827148l-0.0019531,0.0009766
	c-0.4443359,0.4448242-1.0981445,0.6132813-1.7016602,0.4414063l-3.0385742-0.8671875l-2.1767578,3.7709961l2.2451172,2.1699219
	c0.4643555,0.4506836,0.6494141,1.1181641,0.4829102,1.7416992c-0.0009766,0.0039063-0.0019531,0.0058594-0.0019531,0.0117188
	c-0.1650391,0.6162109-0.652832,1.0957031-1.2705078,1.2504883l-3.0463867,0.7626953v4.3525391l3.03125,0.7607422
	c0.6269531,0.1572266,1.121582,0.640625,1.2890625,1.2675781c0,0,0,0.0048828,0.0019531,0.0097656
	c0.1650391,0.6152344-0.0161133,1.2724609-0.4760742,1.7158203l-2.2543945,2.1826172l2.1757813,3.7734375l2.9897461-0.8544922
	c0.6337891-0.1826172,1.3154297-0.0068359,1.7832031,0.4580078v0.0039063
	c0.4448242,0.4414063,0.6142578,1.09375,0.4414063,1.7001953l-0.8676758,3.0371094l3.7700195,2.1757813l2.1723633-2.2412109
	c0.449707-0.4667969,1.1171875-0.6494141,1.7416992-0.4873047c0.0024414,0.0048828,0.0058594,0.0048828,0.0102539,0.0048828
	c0.6166992,0.1621094,1.0966797,0.6503906,1.2519531,1.2724609l0.7612305,3.0419922h4.3535156l0.7607422-3.0302734
	c0.15625-0.6298828,0.6416016-1.1220703,1.2685547-1.2890625c0,0,0.0048828,0,0.0097656-0.0039063
	c0.6152344-0.1630859,1.2714844,0.0205078,1.7158203,0.4755859l2.1826172,2.2568359l3.7734375-2.1757813l-0.8544922-2.9882813
	c-0.1816406-0.6308594-0.0048828-1.3193359,0.4580078-1.7832031h0.0019531
	c0.4433594-0.4482422,1.0957031-0.6162109,1.7021484-0.4443359l3.0371094,0.8710938l2.1757813-3.7734375l-2.2412109-2.1708984
	c-0.4667969-0.4511719-0.6513672-1.1171875-0.4873047-1.7392578c0.0019531-0.0048828,0.0019531-0.0087891,0.0048828-0.0117188
	c0.1621094-0.6171875,0.6503906-1.09375,1.2695313-1.2490234L44,26.1767578z M23.9995117,35.4267578
	c-6.3110352,0-11.4272461-5.1152344-11.4272461-11.4257813c0-6.3110352,5.1162109-11.4282227,11.4272461-11.4282227
	c6.3120117,0,11.4301758,5.1171875,11.4301758,11.4282227C35.4296875,30.3115234,30.3115234,35.4267578,23.9995117,35.4267578z"/>
</svg>