<?xml version="1.0" encoding="utf-8"?>
<!DOCTYPE svg PUBLIC "-//W3C//DTD SVG 1.1//EN" "http://www.w3.org/Graphics/SVG/1.1/DTD/svg11.dtd">
<svg version="1.1" id="iSlivochnoe-maslo" xmlns="http://www.w3.org/2000/svg" xmlns:xlink="http://www.w3.org/1999/xlink" x="0px" y="0px" width="100%" height="100%" viewBox="0 0 48 48" preserveAspectRatio="xMidYMid meet">
<path fill="none" d="M11.5009766,14.7407227c2.6367188,2.2573242,5.671875,0.828125,6.484375,1.34375
	c0.0820313,0.0712891-0.0751953-1.4941406-1.796875-3.328125c-1.7216797-1.8334961-4.78125-3.34375-5.4648438-3.0776367
	C10.1386719,9.90625,9.4384766,12.9750977,11.5009766,14.7407227z"/>
<path fill="none" d="M11.6953125,23.1772461c0,0,4.7314453-0.3212891,6.7333984-0.4667969
	c2.0039063-0.1455078,1.6396484-0.3632813,1.6396484-0.3632813s-3.8964844-4.1152344-4.4794922-4.9892578
	c-0.5830078-0.8745117-1.2382813-0.9106445-1.2382813-0.9106445l-7.5410156,1.0424805c0,0,3.3818359,4.3759766,3.9277344,5.1044922
	C11.2841797,23.3227539,11.6953125,23.1772461,11.6953125,23.1772461z"/>
<path fill="none" d="M20.7509766,18.7563477c0.0751953-0.1875,0.953125-5.578125,0.953125-5.578125l0.96875-0.03125
	c0,0-0.5009766-1.9956055-1.1748047-1.4707031c-0.6728516,0.5234375-0.8603516,0.9350586-2.1708984,2.9936523
	C18.0175781,16.7285156,20.7509766,18.7563477,20.7509766,18.7563477z"/>
<path fill="none" d="M12.8212891,26.1328125l5.6445313-1.1289063l-6.9560547,0.765625
	C11.9482422,26.6445313,12.8212891,26.1328125,12.8212891,26.1328125z"/>
<path fill="none" d="M9.8720703,24.5678711l-3.7148438-4.734375c0,0-0.0361328-0.1816406-0.6552734,0
	c-0.6191406,0.1826172,0,0.8017578,0,0.8017578L9.8720703,24.5678711z"/>
<path fill="none" d="M20.4326172,25.40625c0.0722656-0.4023438-0.2919922-0.5473633-0.2919922-0.5473633
	s-5.8623047,1.3852539-7.1005859,1.6391602s-1.6025391-0.21875-1.6025391-0.21875l-6.5917969-5.753418l0.1826172,2.2578125
	c0,0,5.7539063,4.8061523,6.2998047,5.315918c0.546875,0.5097656,1.6757813,0.21875,1.6757813,0.21875
	s6.2265625-1.6386719,6.8095703-1.8945313C20.3955078,26.1699219,20.359375,25.8066406,20.4326172,25.40625z"/>
<path fill="none" d="M17.2089844,16.1157227c0,0,1.5625,2.3125,3.2792969,3.4194336
	c0.125,0.0810547,0.1787109-0.2944336,0.1787109-0.2944336l-3.1660156-3.1459961L17.2089844,16.1157227z"/>
<path fill="none" d="M11.6640625,25.6601563c0,0,7.6914063-0.8364258,8.2373047-0.909668
	c0.546875-0.0732422,0.5742188-0.6191406,0.5742188-0.6191406l-0.0322266-1.2382813c0,0-8.3632813,0.8007813-8.9824219,0.8740234
	s-0.7573242-0.1455078-0.7573242-0.1455078L6,17.612793v1.7470703c0,0,3.9790039,5.28125,4.4887695,5.7905273
	C10.9985352,25.6601563,11.6640625,25.6601563,11.6640625,25.6601563z"/>
<path fill="none" d="M24.4550781,19.1611328c0.0751953,0.2993164,0.7119141,0.2617188,0.7119141,0.2617188
	s14.5966797-0.5986328,15.5322266-0.6362305c0.9345703-0.0371094,0.5615234-0.6733398,0.5615234-0.6733398
	s-2.3583984-4.0424805-2.6572266-4.640625c-0.2998047-0.5991211-0.8613281-0.6738281-0.8613281-0.6738281l-15.4199219,0.5991211
	L24.4550781,19.1611328z"/>
<path fill="none" d="M24.6044922,20.2089844l-1.5097656,7.8125c0.0371094,0.5234375,0.4375,0.5,0.4375,0.5l16.0058594-0.7890625
	c0,0,0.8242188-0.1132813,1.1230469-0.3378906c0.2998047-0.2246094,0.3740234-0.8222656,0.3740234-0.8222656
	s0.2998047-7.1494141,0.2617188-7.1118164C41.2607422,19.4975586,24.6044922,20.2089844,24.6044922,20.2089844z"/>
<path fill="none" d="M24.1181641,19.1611328c0,0-1.5341797-3.5551758-1.9091797-4.8652344
	c-0.3740234-1.3105469-0.4111328-0.4868164-0.4111328-0.4868164s-1.0107422,8.234375-1.0107422,8.7578125
	c0,0.5244141,2.0263672,5.4233398,2.0263672,5.4233398s1.3046875-6.8833008,1.4169922-7.519043
	C24.3427734,19.8349609,24.1181641,19.1611328,24.1181641,19.1611328z"/>
<path fill="#2B2B2B" d="M17.4042969,30.4746094c-0.6650391-1.03125-0.8515625-1.6933594-0.6044922-2.1464844
	c0.1455078-0.2675781,0.4287109-0.421875,0.7753906-0.421875c0.1992188,0,0.3857422,0.0488281,0.5126953,0.0917969
	l16.0429688,5.6640625c0.1523438-0.0761719,0.3613281-0.1484375,0.6103516-0.1484375
	c0.1435547,0,0.2880859,0.0253906,0.4267578,0.0703125c0.4443359,0.1484375,0.7226563,0.5019531,0.8701172,0.7480469
	c0.3105469,0.0722656,0.6113281,0.140625,0.9033203,0.2089844l6.2470703,0.0117188
	c1.7744141,0,2.7636719-0.2070313,3.1142578-0.6523438c0.28125-0.3574219,0.1591797-0.8652344,0.0048828-1.5097656
	c-0.0673828-0.28125-0.1376953-0.5722656-0.1806641-0.8828125l-5.2431641-20.9711914
	c-0.7314453-1.3193359-2.0654297-2.0458984-3.7578125-2.0458984l-33.0771484,0.125
	C3.1503906,8.6552734,2.5527344,8.8652344,2.2255859,9.2587891c-0.4277344,0.5136719-0.3203125,1.2753906-0.2265625,1.9477539
	c0.0205078,0.1469727,0.0410156,0.2895508,0.0546875,0.4238281l3.9443359,20.6489258
	c0.2998047,1.4667969,1.7724609,2.2109375,4.3779297,2.2109375l13.6845703,0.0273438
	C21.0664063,33.1191406,18.0722656,31.5058594,17.4042969,30.4746094z M20.4882813,19.5351563
	c-1.7167969-1.1069336-3.2792969-3.4194336-3.2792969-3.4194336l0.2919922-0.0209961l3.1660156,3.1459961
	C20.6669922,19.2407227,20.6132813,19.6162109,20.4882813,19.5351563z M20.7871094,22.5668945
	c0-0.5234375,1.0107422-8.7578125,1.0107422-8.7578125s0.0371094-0.8237305,0.4111328,0.4868164
	c0.375,1.3100586,1.9091797,4.8652344,1.9091797,4.8652344s0.2246094,0.6738281,0.1123047,1.3100586
	c-0.1123047,0.6357422-1.4169922,7.519043-1.4169922,7.519043S20.7871094,23.0913086,20.7871094,22.5668945z M41.0351563,26.5722656
	c0,0-0.0742188,0.5976563-0.3740234,0.8222656c-0.2988281,0.2246094-1.1230469,0.3378906-1.1230469,0.3378906l-16.0058594,0.7890625
	c0,0-0.4003906,0.0234375-0.4375-0.5l1.5097656-7.8125c0,0,16.65625-0.7114258,16.6923828-0.7485352
	C41.3349609,19.4228516,41.0351563,26.5722656,41.0351563,26.5722656z M37.7421875,12.7988281
	c0,0,0.5615234,0.074707,0.8613281,0.6738281c0.2988281,0.5981445,2.6572266,4.640625,2.6572266,4.640625
	s0.3730469,0.6362305-0.5615234,0.6733398c-0.9355469,0.0375977-15.5322266,0.6362305-15.5322266,0.6362305
	s-0.6367188,0.0375977-0.7119141-0.2617188l-2.1328125-5.7631836L37.7421875,12.7988281z M19.3271484,14.6699219
	c1.3105469-2.0585938,1.4980469-2.4702148,2.1708984-2.9936523c0.6738281-0.5249023,1.1748047,1.4707031,1.1748047,1.4707031
	l-0.96875,0.03125c0,0-0.8779297,5.390625-0.953125,5.578125C20.7509766,18.7563477,18.0175781,16.7285156,19.3271484,14.6699219z
	 M10.7236328,9.6787109c0.6835938-0.2661133,3.7431641,1.2441406,5.4648438,3.0776367
	c1.7216797,1.8339844,1.8789063,3.3994141,1.796875,3.328125c-0.8125-0.515625-3.8476563,0.9135742-6.484375-1.34375
	C9.4384766,12.9750977,10.1386719,9.90625,10.7236328,9.6787109z M14.3505859,16.4472656
	c0,0,0.6552734,0.0361328,1.2382813,0.9106445c0.5830078,0.8740234,4.4794922,4.9892578,4.4794922,4.9892578
	s0.3642578,0.2177734-1.6396484,0.3632813c-2.0019531,0.1455078-6.7568359,0.6083984-6.7568359,0.6083984
	s-0.546875,0.1191406-1.09375-0.609375C10.0322266,21.980957,6.625,17.5063477,6.625,17.5063477L14.3505859,16.4472656z
	 M6,17.612793l4.7036133,6.0087891c0,0,0.0756836,0.21875,0.6948242,0.1455078s9.0136719-0.8740234,9.0136719-0.8740234
	l0.0478516,1.2382813c0,0-0.0195313,0.5458984-0.5664063,0.6191406c-0.5458984,0.0732422-8.2333984,0.909668-8.2333984,0.909668
	s-0.6635742,0-1.1733398-0.5097656C9.9770508,24.6411133,6,19.3598633,6,19.3598633V17.612793z M18.4658203,25.0039063
	l-5.6445313,1.1289063c0,0-1.0087891,0.2792969-1.3115234-0.3632813L18.4658203,25.0039063z M5.5019531,19.8334961
	c0.6191406-0.1816406,0.6552734,0,0.6552734,0l3.7148438,4.734375l-4.3701172-3.9326172
	C5.5019531,20.6352539,4.8828125,20.0161133,5.5019531,19.8334961z M11.328125,28.0996094
	c-0.5458984-0.5097656-6.1875-5.2182617-6.1875-5.2182617l-0.1875-2.40625l6.484375,5.8041992
	c0,0,0.3642578,0.4726563,1.6025391,0.21875s7.1005859-1.6391602,7.1005859-1.6391602s0.3642578,0.1450195,0.2919922,0.5473633
	c-0.0732422,0.4003906-0.0371094,0.7636719-0.6191406,1.0175781c-0.5830078,0.2558594-6.8095703,1.8945313-6.8095703,1.8945313
	S11.875,28.609375,11.328125,28.0996094z"/>
<path fill="#2B2B2B" d="M47.7509766,33.1201172l-5.625-22.9082031c-0.7460938-2.5205078-2.28125-3.1884766-4.8125-3.2197266
	l-33.59375,0.0615234c-3.90625,0.09375-3.625,2.5205078-3.4375,3.875l3.90625,20.7539063
	c0.5625,3.75,1.96875,4.3173828,4.375,4.3173828H27.1875c-0.796875-0.34375-1.6123047-0.7822266-2.5839844-1.2275391
	l-14.2275391-0.0302734c-2.7412109,0-4.296875-0.8115234-4.6230469-2.4130859L1.8066406,11.6669922
	c-0.015625-0.1420898-0.0351563-0.28125-0.0556641-0.425293c-0.0957031-0.6879883-0.2158203-1.5444336,0.2822266-2.1430664
	c0.375-0.4501953,1.0322266-0.6899414,2.0097656-0.7329102l33.0830078-0.125c1.7939453,0,3.2089844,0.777832,3.984375,2.1899414
	l0.0117188,0.0297852l5.25,21.0004883c0.0439453,0.3105469,0.1123047,0.5957031,0.1787109,0.8710938
	c0.1640625,0.6816406,0.3046875,1.2714844-0.0517578,1.7246094c-0.4072266,0.515625-1.4287109,0.7460938-3.3105469,0.7460938
	l-5.1650391-0.0048828C40.1523438,35.2958984,41.9375,35.765625,42.9736328,36h0.6835938
	C46.7197266,36,48.1259766,35.5888672,47.7509766,33.1201172z"/>
<path fill="#2B2B2B" d="M46.6162109,37.3359375c-0.3691406-0.3671875-7.5400391-2.046875-10.7431641-2.7851563
	c-0.1054688-0.2011719-0.3574219-0.5859375-0.7832031-0.7285156c-0.1142578-0.0390625-0.2314453-0.0585938-0.3486328-0.0585938
	c-0.1621094,0-0.3671875,0.0820313-0.5341797,0.1640625l-16.2050781-5.6953125
	c-0.1035156-0.0332031-0.2617188-0.0761719-0.4267578-0.0761719c-0.3457031,0-0.4970703,0.1835938-0.5556641,0.2910156
	c-0.1953125,0.359375-0.0068359,0.9589844,0.5947266,1.8925781c1.2724609,1.9648438,12.2548828,6.5488281,13.2216797,6.6855469
	c0.2539063,0.0351563,0.4951172,0.0507813,0.7207031,0.0507813c0.78125,0,1.3789063-0.1777344,1.6855469-0.2910156
	c0.1347656,0.2246094,0.3798828,0.5566406,0.7109375,0.6679688C34.046875,37.484375,34.1455078,37.5,34.2470703,37.5
	c0.2529297,0,0.4707031-0.0976563,0.5996094-0.1738281c1.1591797,0.4179688,9.6708984,3.4824219,10.1503906,3.6425781
	c0.0810547,0.0273438,0.1679688,0.0410156,0.2578125,0.0410156c0.6425781,0,1.3925781-0.6816406,1.6728516-1.5195313
	C47.1972656,38.6875,47.0664063,37.7832031,46.6162109,37.3359375z M30.359375,33.9433594
	c-0.953125-0.390625-8.484375-3.015625-9.484375-3.5s-2.078125-1.421875-2.078125-1.421875l14.046875,4.953125
	C32.84375,33.9746094,31.3125,34.3339844,30.359375,33.9433594z M33.4072266,35.0683594
	c-0.1953125,0.5429688-0.2246094,1.3554688-0.203125,1.5c0,0-0.2451172-0.8066406,0.0253906-1.5566406
	c0.1582031-0.4394531,0.515625-0.7324219,0.7548828-0.8808594C33.8095703,34.375,33.5654297,34.6308594,33.4072266,35.0683594z
	 M35.9375,36.0683594c-0.2373047,0.7617188-0.9677734,1.0625-0.9677734,1.0625
	c0.1044922-0.1015625,0.6669922-0.5859375,0.8271484-1.140625c0.1875-0.6464844,0.171875-0.7832031,0.0791016-1.1875
	C36.0683594,35.0878906,36.1767578,35.3085938,35.9375,36.0683594z M46.15625,38.6464844
	c-0.28125,0.0625-8.828125-3.1992188-9.609375-3.5839844c0,0,9.796875,2.4902344,9.921875,2.7714844
	S46.4375,38.5839844,46.15625,38.6464844z"/>
</svg>