<?xml version="1.0" encoding="utf-8"?>
<!DOCTYPE svg PUBLIC "-//W3C//DTD SVG 1.1//EN" "http://www.w3.org/Graphics/SVG/1.1/DTD/svg11.dtd">
<svg version="1.1" id="iSmetana" xmlns="http://www.w3.org/2000/svg" xmlns:xlink="http://www.w3.org/1999/xlink" x="0px" y="0px" width="100%" height="100%" viewBox="0 0 48 48" preserveAspectRatio="xMidYMid meet">
<path fill="none" d="M28.3554688,12.2314453c0,0,0.375,0.8300781,0.5966797,0.8183594
	C29.171875,13.0385742,28.6064453,12.1074219,28.3554688,12.2314453z"/>
<path fill="none" d="M29.7011719,12.5307617c0,0,5.2910156-2.6772461,7.5185547-3.9013672
	c1.421875-0.7827148,3.5449219-1.9912109,5.1894531-2.8276367c-2.1367188,0.8271484-5.1240234,1.9506836-5.7373047,2.2646484
	C35.6289063,8.6010742,31.0966797,11.6821289,29.7011719,12.5307617z"/>
<path fill="#2B2B2B" d="M25.4443359,16.9980469c0.0136719,0.0527344,0.0214844,0.1411133,0.0234375,0.2763672
	c0.0732422-0.1025391,0.1425781-0.2055664,0.2060547-0.3085938C25.5849609,16.9780273,25.5009766,16.9897461,25.4443359,16.9980469z
	"/>
<path fill="#2B2B2B" d="M5.4018555,22.8242188c-1.6196289-0.9125977-2.3916016-1.7666016-2.3916016-2.0888672
	c0-0.7099609,3.9584961-3.1000977,5.7607422-3.5878906c-2.5415039,0.3017578-6.5102539,2.7358398-6.5102539,3.4140625
	C2.2607422,20.9702148,2.6572266,21.6723633,5.4018555,22.8242188z"/>
<path fill="#2B2B2B" d="M41.8369141,22.5966797c-0.1572266-0.2563477-0.5029297-0.418457-0.9404297-0.6010742
	c0.0615234,2.3071289-3.7646484,4.3110352-18.5786133,5.1000977C7.7114258,27.8759766,2.28125,22.1171875,2.28125,22.1171875
	c-0.3320313,0.2075195-0.2939453,0.7519531-0.2373047,1.078125c-0.0146484,0.5161133,0.5473633,3.7480469,0.8100586,4.5478516
	C2.7758789,28.2109375,4.1635742,29.28125,4.1635742,29.28125s0.0126953,0.0771484,0.0610352,0.2080078
	c-0.027832-0.0507813-0.0556641-0.1015625-0.0820313-0.1523438c1.8208008,5.4628906,3.5551758,8.0771484,6.0444336,10.2607422
	C12.6762695,41.7832031,16.8115234,43,16.8115234,43H17v1h10v-1.1240234c0,0,4.2470703-0.8876953,6.8056641-3.4443359
	c3.5722656-3.5751953,5.0166016-7.5537109,5.7021484-8.8994141c0.2958984-0.3964844,0.3583984-0.7167969,0.4257813-0.8857422
	c0.0986328-0.2480469,0.6972656-0.5556641,0.8886719-1.3291016c0.0429688-0.1650391,1.1445313-4.5493164,1.1445313-5.2441406
	C41.9667969,22.7983398,41.9716797,22.6240234,41.8369141,22.5966797z M21.9277344,41.8320313
	c-10.7666016,0-16.7495117-10.8535156-16.7495117-10.8535156s6.2612305,9.5498047,16.8535156,9.5498047
	c10.5415039,0,16.3334961-8.9238281,16.3334961-8.9238281S32.625,41.8320313,21.9277344,41.8320313z M40.5849609,28.1933594
	c-1.1650391,1.8291016-5.8632813,3.3408203-18.2670898,4.0029297C9.1015625,32.8984375,4.0302734,28.6855469,3.0649414,27.7958984
	c-0.1308594-0.6435547-0.2172852-0.8691406-0.2353516-1.4785156C4.0922852,27.6162109,8.3364258,31.5292969,22.206543,31.1875
	c12.4125977-0.3076172,16.965332-2.9775391,18.6450195-4.3837891
	C40.7822266,27.4296875,40.6220703,27.7353516,40.5849609,28.1933594z"/>
<path fill="#2B2B2B" d="M5.8637695,23.6523438c0.2495117,0.1884766,0.5444336,0.3681641,0.902832,0.5244141
	c0.3833008,0.1323242,0.7861328,0.2592773,1.2128906,0.3818359c0.8452148,0.1835938,1.887207,0.2636719,3.1674805,0.1689453
	c5.7675781-0.4248047,19.4506836-3.8637695,23.3198242-5.3852539c3.3623047-1.4150391,5.3427734,2.0683594,5.9228516,3.2827148
	c0.1445313-0.1499023,0.2167969-0.8256836,0.1855469-0.9077148c-0.1894531-0.5454102-2.6953125-5.3076172-6.4980469-3.3652344
	c-3.5332031,2.484375-18.1914063,5.222168-24.2124023,5.6469727C8.0415039,24.128418,6.7607422,23.9599609,5.8637695,23.6523438z"/>
<path fill="#2B2B2B" d="M29.3232422,17.0776367c-0.359375-0.171875-0.8896484-0.2392578-1.4462891-0.2543945
	c-0.4404297-0.0112305-0.8916016,0.0092773-1.2949219,0.0429688c-0.3662109,0.0307617-0.6826172,0.0683594-0.9082031,0.0996094
	c-0.0634766,0.1030273-0.1328125,0.2060547-0.2060547,0.3085938c0.0048828,0.1289063,0,0.300293-0.0097656,0.5317383
	c-0.0214844,0.4379883-0.5800781,0.7514648-1.4394531,0.996582c-0.3291016,0.0942383-0.6977539,0.1791992-1.1030273,0.2553711
	c-0.4536133,0.1157227-0.9394531,0.2182617-1.4277344,0.3105469c-0.5771484,0.109375-1.1542969,0.2011719-1.6899414,0.2749023
	c-0.5351563,0.0732422-1.0283203,0.1298828-1.4262695,0.1660156c-0.3632813,0.0322266-0.8862305,0.0703125-1.4902344,0.1123047
	c-0.2832031,0.0195313-0.578125,0.0400391-0.894043,0.0620117c-2.2138672,0.2924805-4.9018555,0.6176758-6.5097656,0.7114258
	c-0.1538086,0.0473633-0.277832,0.0957031-0.3349609,0.1464844c-0.5834961,0.5253906,5.2255859,0.2094727,8.6958008-0.2485352
	c0.1391602-0.0185547,0.2807617-0.0361328,0.4111328-0.0546875c1.081543-0.1547852,2.2592773-0.284668,3.3666992-0.4306641
	c0.8808594-0.1166992,1.7133789-0.2441406,2.4189453-0.4018555c0.8178711-0.421875,1.5175781-1.1157227,2.0302734-1.8935547
	c0.0205078-0.0307617,0.0390625-0.0620117,0.0595703-0.0942383c0.2597656-0.0405273,0.8212891-0.1162109,1.4541016-0.1518555
	c0.7939453-0.0444336,1.6855469-0.0209961,2.2080078,0.2397461c0.5585938,0.2797852,1.3681641,0.9526367,1.7988281,1.3491211
	C31.7792969,18.6225586,30.2939453,17.5419922,29.3232422,17.0776367z"/>
<path fill="#2B2B2B" d="M4.7944336,20.7583008c-0.6977539,1.0927734-0.4897461,2.2573242,3.3769531,2.7431641
	c0.2338867,0.0297852,0.5224609,0.0463867,0.8549805,0.0415039c-3.5141602-0.4770508-3.3935547-0.9589844-2.7373047-2.0332031
	c0.6674805-1.0927734,2.671875-1.7001953,4.6137695-2.1254883c1.1577148-0.2524414,2.9169922-0.7431641,4.550293-1.0751953
	c0.8100586-0.1645508,1.5830078-0.2871094,2.2402344-0.3237305c0.2094727-0.0112305,0.40625-0.0146484,0.5883789-0.0063477
	c0.0273438,0.0014648,0.0625-0.0019531,0.0898438-0.0009766c1.8823242,0.1220703,5.2841797,0.4838867,4.4936523-1.2246094
	l-0.6186523,0.3203125c0,0-1.2041016,0.7226563-2.7827148,0.4799805c-0.2036133-0.0322266-0.9379883-0.0224609-1.4863281-0.0195313
	c-0.2172852,0.0014648-0.3989258,0.0014648-0.5097656-0.0024414c-0.0185547-0.0004883-0.0463867-0.0009766-0.0600586-0.0014648
	c-0.5571289-0.034668-1.269043,0.0073242-2.0395508,0.0893555c-1.9467773,0.2060547-4.3037109,0.6855469-5.7573242,0.9897461
	C7.5825195,19.0341797,5.4916992,19.6650391,4.7944336,20.7583008z"/>
<path fill="#2B2B2B" d="M46.1621094,4.2387695c-0.2177734-0.6166992-3.6464844,0.2265625-5.6044922,0.9199219
	c-1.9609375,0.6933594-11.0546875,6.265625-11.0546875,6.265625s-0.4423828,0.0229492-0.7050781-0.074707
	c-0.2646484-0.0961914-0.609375,0.3647461-0.609375,0.3647461l-1.4462891,1.2939453c0,0-1.3886719-1.109375-3.5078125-1.3325195
	c-2.1171875-0.2211914-4.0219727,0.5449219-4.484375,1.2407227c0.3071289-0.0668945,0.6879883-0.125,1.0419922-0.125
	c1.1835938,0,1.5561523-0.2470703,2.7915039-0.2290039c1.375-0.0209961,3.4584961,0.8540039,3.8129883,1.625
	c0.2617188,0.5693359,0.6240234,1.2675781,0.3291016,2.1054688c0.1689453-0.0185547,1.0244141-0.0053711,1.2568359,0.0317383
	c0.2744141-0.9423828,0.3203125-1.6977539,0.3203125-1.6977539s0.9072266-0.3061523,1.4560547-0.4453125
	c0.5458984-0.1391602,0.4257813-0.3178711,0.5195313-0.6547852c0.0917969-0.3374023,0.0966797-0.2641602,0.4931641-0.4692383
	c0.3955078-0.2045898,9.3623047-3.9238281,11.2685547-4.9462891C43.9453125,7.0874023,46.3779297,4.855957,46.1621094,4.2387695z
	 M28.9521484,12.8930664c-0.2216797,0.0117188-0.5966797-0.8183594-0.5966797-0.8183594
	C28.6064453,11.9506836,29.171875,12.8823242,28.9521484,12.8930664z M42.4091797,5.6450195
	c-1.6445313,0.8364258-3.7675781,2.0449219-5.1894531,2.8276367c-2.2275391,1.2246094-7.5185547,3.9018555-7.5185547,3.9018555
	c1.3955078-0.8491211,5.9277344-3.9296875,6.9707031-4.4643555C37.2851563,7.5957031,40.2724609,6.472168,42.4091797,5.6450195
	c0.9287109-0.4716797,1.7060547-0.8261719,2.1152344-0.9140625C44.9921875,4.6293945,43.9111328,5.0634766,42.4091797,5.6450195z"/>
<path fill="#2B2B2B" d="M13.9375,17.125c2.6875,0.4790039,5.3125-0.4785156,5.4375-0.4375
	c-0.0263672-0.078125-1.4160156,0.1455078-2.2080078-0.5c-0.1923828-0.1567383,0.0927734-0.9033203,0.4165039-1.2084961
	C18.6762695,13.9462891,18.9609375,15.5625,19.75,15.5625c0.7895508,0,2.8325195-0.7587891,3.5-0.3334961
	c0.4067383,0.2578125,0.6826172,1.4492188,1.4501953,1.7910156c0.2080078-0.9516602-0.1166992-3.3120117-2.2416992-2.9785156
	c-0.8071289,0.1264648-3.1665039-0.3125-3.2915039-0.4375c-2.0786133-2.0786133-2.3178711-0.2402344-3.4584961,0.7919922
	C14.9018555,15.1245117,12.0664063,16.7866211,13.9375,17.125z"/>
</svg>