<?xml version="1.0" encoding="utf-8"?>
<!DOCTYPE svg PUBLIC "-//W3C//DTD SVG 1.1//EN" "http://www.w3.org/Graphics/SVG/1.1/DTD/svg11.dtd">
<svg version="1.1" id="iSolenya" xmlns="http://www.w3.org/2000/svg" xmlns:xlink="http://www.w3.org/1999/xlink" x="0px" y="0px" width="100%" height="100%" viewBox="0 0 48 48" preserveAspectRatio="xMidYMid meet">
<path fill="#2B2B2B" d="M39.2001953,19.4912109c0,0-1.8720703,1.4970703-5.3164063,3.3691406
	c-3.4453125,1.8725586-9.9589844,1.7983398-13.253418,1.6474609c-3.2944336-0.1499023-6.5141602-1.6474609-8.3120117-2.9951172
	c-1.796875-1.3476563-3.0688477-3.0698242-3.0688477-3.0698242S8.5,19.0415039,8.1259766,20.2397461
	c-0.375,1.1982422-0.1503906,4.7172852,0.4487305,6.7397461C9.1743164,29,13.2924805,39.8574219,13.2924805,39.8574219
	c0.7485352,1.1230469,4.1928711,3.8193359,10.6323242,4.2685547s10.3330078-3.9677734,11.1582031-4.9423828
	c0.8232422-0.9746094,1.4970703-3.1445313,2.0214844-4.7910156c0.5244141-1.6474609,2.0205078-7.0410156,2.6953125-9.7338867
	C40.4746094,21.9624023,39.2001953,19.4912109,39.2001953,19.4912109z M35.7978516,34.7841797
	c-0.4550781,0.4833984-0.6259766,0.7402344-0.9121094,0.9394531c-0.2832031,0.1992188-0.6542969,0.6269531-0.8242188,0.6845703
	c-0.1708984,0.0556641-0.4277344-0.1152344-0.7119141-0.0576172c-0.2851563,0.0576172-0.0859375,0.3115234-0.9394531,0.5107422
	c-0.8535156,0.2001953-2.6748047,0.0556641-2.6748047,0.0556641s-0.1435547,0.1445313-0.4560547,0.2587891
	c-0.3134766,0.1132813-2.3359375,0.2265625-2.5625,0.0839844c-0.2285156-0.1416016-0.5126953-0.3691406-0.7958984-0.2275391
	c-0.2861328,0.1435547-0.7695313-0.1416016-1.168457-0.1152344c-0.3994141,0.0292969-0.7685547-0.0830078-1.0537109-0.140625
	c-0.2841797-0.0566406-0.5126953-0.1708984-0.5126953-0.1708984s-0.6538086,0.0566406-0.8818359-0.0859375
	c-0.2285156-0.1425781-0.8544922-0.0283203-1.0244141-0.0556641c-0.1708984-0.0292969-1.0532227-0.1132813-1.3955078-0.2001953
	c-0.3413086-0.0849609-0.3125-0.1992188-0.512207-0.2841797c-0.1992188-0.0849609-0.7119141-0.2558594-0.8256836-0.0566406
	c-0.1137695,0.1982422-0.4272461-0.1992188-0.4272461-0.1992188s-0.5688477-0.1992188-0.9394531-0.1152344
	c-0.3701172,0.0859375-0.4833984-0.1699219-0.6542969-0.2558594c-0.1713867-0.0849609-1.5092773-0.2265625-2.2485352-0.5117188
	C13.5366211,34.5556641,10.46875,31.25,10.96875,30.1875c0,0-0.0629883-1.5214844,0.25-2.0625
	s1.4926758-0.9716797,3.0009766-0.9130859c1.5092773,0.0556641,2.8535156,0.5351563,2.8535156,0.5351563
	s0.9165039-0.0478516,1.1044922,0.0361328c0.2060547,0.0957031,0.5058594,0.46875,0.5058594,0.46875
	s0.465332-0.1113281,0.6367188-0.0556641c0.277832,0.0917969,0.2988281,0.2050781,0.4863281,0.6171875
	c0,0,0.2543945-0.4160156,0.7675781-0.1875c0.512207,0.2275391,0.1923828,0.3779297,0.4213867,0.3779297
	c0.2270508,0,1.7641602,0.3710938,2.4477539,0.4833984c0.6826172,0.1162109,1.7363281,0.0869141,2.390625,0.1162109
	c0.6542969,0.0273438,0.8828125,0,1.109375,0.0839844c0.2294922,0.0859375,0.5986328,0.3701172,0.5986328,0.3701172
	s1.0820313-0.2285156,1.5664063-0.2001953c0.4833984,0.0292969,1.2802734,0.484375,1.4794922,0.3134766
	c0.2001953-0.1689453,0.5126953,0,0.7695313,0c0.2558594,0,1.3945313-0.0546875,2.1630859,0.1425781
	c0.7695313,0.2011719,2.5058594,1.3671875,2.6474609,2.2773438C36.3105469,33.5029297,36.2539063,34.2988281,35.7978516,34.7841797z
	"/>
<path fill="#2B2B2B" d="M12.2553711,29.1474609c-0.1040039-0.3378906,0.3129883-0.484375,0.3984375-0.4277344
	c0.0849609,0.0576172,0.2851563,0.1982422,0.1416016,0.2841797C12.6538086,29.0898438,12.3691406,29.5175781,12.2553711,29.1474609z
	"/>
<path fill="#2B2B2B" d="M13.4506836,28.6630859c0.0273438-0.1660156,0.6835938-0.3720703,0.6835938-0.3720703
	s0.1987305,0.34375,0.1425781,0.4863281c-0.0571289,0.140625-0.2856445,0.3408203-0.4272461,0.4257813
	C13.7070313,29.2890625,13.421875,28.8349609,13.4506836,28.6630859z"/>
<path fill="#2B2B2B" d="M15.8417969,29.2314453c-0.2148438,0.1816406-0.0849609,0.6259766,0.0283203,0.7119141
	c0.1142578,0.0859375,0.6835938,0.3701172,0.7407227,0.1728516c0.0561523-0.2001953,0.3701172-0.4570313,0.1987305-0.7128906
	C16.6391602,29.1474609,16.2124023,28.9189453,15.8417969,29.2314453z"/>
<path fill="#2B2B2B" d="M12.9101563,30.5986328c-0.1235352,0.3378906-0.0854492,0.5693359,0.0283203,0.6269531
	c0.1137695,0.0566406,0.3701172,0.1132813,0.4262695-0.0576172c0.0571289-0.171875,0.2290039-0.5117188,0.171875-0.6533203
	C13.4790039,30.3701172,13.0244141,30.2861328,12.9101563,30.5986328z"/>
<path fill="#2B2B2B" d="M11.4863281,30.0537109c-0.0952148,0.2675781,0.1142578,0.4003906,0.199707,0.3134766
	c0.0854492-0.0849609,0.2841797-0.3710938,0.2558594-0.4833984C11.9130859,29.7705078,11.6289063,29.6542969,11.4863281,30.0537109z
	"/>
<path fill="#2B2B2B" d="M14.6748047,33.53125c-0.1704102-0.2568359-0.027832-0.7978516,0-0.9697266
	c0.0283203-0.1689453,0.4277344-0.2255859,0.4277344,0c0,0.2304688,0.2836914,0.7988281,0,0.9130859
	C14.8168945,33.5888672,14.6748047,33.53125,14.6748047,33.53125z"/>
<path fill="#2B2B2B" d="M16.6669922,31.6533203c-0.2006836-0.2011719,0.2568359-0.8261719,0.3422852-0.8564453
	c0.0854492-0.0263672,0.284668,0.1992188,0.1430664,0.4580078C17.0092773,31.5087891,16.8662109,31.8515625,16.6669922,31.6533203z"
	/>
<path fill="#2B2B2B" d="M20.0834961,30.0878906C20.2832031,29.8867188,20.625,29.9433594,20.625,29.9433594
	s0.0571289,0.2851563-0.1425781,0.3984375c-0.1992188,0.1142578-0.5410156,0.1728516-0.5410156,0.0869141
	C19.9414063,30.3417969,20.0834961,30.0878906,20.0834961,30.0878906z"/>
<path fill="#2B2B2B" d="M18.7177734,28.9179688c-0.2412109,0.1679688-0.0859375,0.4287109,0,0.4287109
	c0.0849609,0,0.3984375-0.1152344,0.3984375-0.1992188C19.1162109,29.0605469,19.0874023,28.6630859,18.7177734,28.9179688z"/>
<path fill="#2B2B2B" d="M17.9482422,33.6162109c0.0063477,0.1806641,0.5126953-0.0556641,0.5126953-0.0556641l-0.0283203-0.5996094
	C18.4326172,32.9609375,17.9199219,32.7910156,17.9482422,33.6162109z"/>
<path fill="#2B2B2B" d="M20.6816406,33.1904297c-0.0991211-0.0283203,0.0283203-0.9414063,0.1142578-1.0556641
	c0.0854492-0.1113281,0.4838867-0.2275391,0.5683594-0.0273438c0.0854492,0.1992188-0.0561523,0.5683594-0.2275391,0.7685547
	C20.9663086,33.0761719,20.8803711,33.2460938,20.6816406,33.1904297z"/>
<path fill="#2B2B2B" d="M24.6953125,30.9130859c0.2563477-0.3984375,0.484375-0.4277344,0.5693359-0.3144531
	c0.0849609,0.1142578,0.0849609,0.4550781-0.0283203,0.6269531c-0.1152344,0.1699219-0.7124023,0.4833984-0.7685547,0.3134766
	C24.4111328,31.3671875,24.6953125,30.9130859,24.6953125,30.9130859z"/>
<path fill="#2B2B2B" d="M22.9306641,30.2285156c-0.2802734,0.2041016-0.1430664,0.5419922-0.0859375,0.6279297
	c0.0566406,0.0839844,0.3413086-0.0595703,0.4267578-0.2304688C23.3569336,30.4560547,23.4711914,29.8291016,22.9306641,30.2285156z
	"/>
<path fill="#2B2B2B" d="M23.015625,33.4453125c0.2558594,0.3417969,0.6259766,0.0576172,0.6259766-0.0849609
	c0-0.1416016,0.1420898-0.5400391-0.0571289-0.6845703c-0.1987305-0.1416016-0.5693359-0.3125-0.5976563,0.0576172
	C22.9589844,33.1044922,23.015625,33.4453125,23.015625,33.4453125z"/>
<path fill="#2B2B2B" d="M26.0898438,32.5615234c0.1396484-0.4619141,0.4560547-0.2255859,0.5126953,0.0292969
	c0.0566406,0.2568359-0.1699219,0.4853516-0.3984375,0.4853516C25.9765625,33.0761719,26.0039063,32.8476563,26.0898438,32.5615234z
	"/>
<path fill="#2B2B2B" d="M26.6591797,31.3417969c0.0820313-0.2138672,0.1425781-0.1708984,0.2558594-0.0283203
	s0.1132813,0.171875-0.1132813,0.3427734C26.5732422,31.8271484,26.5166016,31.7128906,26.6591797,31.3417969z"/>
<path fill="#2B2B2B" d="M29.2792969,31.4853516c-0.3154297,0.1464844-0.3447266,0.4101563-0.2001953,0.4277344
	c0.5693359,0.0556641,0.7685547-0.0585938,0.7685547-0.2871094C29.8476563,31.4003906,29.7050781,31.2861328,29.2792969,31.4853516z
	"/>
<path fill="#2B2B2B" d="M31.3818359,32.8271484c-0.0136719-0.2929688,0.0283203-0.4570313,0.2568359-0.2578125
	c0.2275391,0.2011719,0.2841797,0.2578125,0.2275391,0.3710938S31.4101563,33.4541016,31.3818359,32.8271484z"/>
<path fill="#2B2B2B" d="M33.515625,31.5947266c0.0507813,0.5966797,0.2578125,0.5126953,0.4277344,0.3984375
	c0.171875-0.1132813,0.2568359-0.2568359-0.0273438-0.5126953C33.6298828,31.2255859,33.4599609,30.9130859,33.515625,31.5947266z"
	/>
<path fill="#2B2B2B" d="M35.3447266,33.1005859c-0.0332031,0.3408203,0.1376953,0.9375,0.3349609,0.8789063
	c0.2001953-0.0556641,0.2265625-0.6738281,0.2265625-0.6738281s0.3388672-0.2939453,0.1689453-0.5800781
	C35.9042969,32.4414063,35.3818359,32.7080078,35.3447266,33.1005859z"/>
<path fill="#2B2B2B" d="M32.0917969,31.8798828c-0.109375-0.0478516-0.1689453-0.7402344,0.2851563-0.7705078
	c0.4570313-0.0263672,0.3710938,0.2578125,0.2568359,0.4580078C32.5205078,31.765625,32.2929688,31.9658203,32.0917969,31.8798828z"
	/>
<path fill="#2B2B2B" d="M33.4628906,34.21875c0.2080078,0.1259766,0.2011719,0.4257813-0.0566406,0.4814453
	c-0.2558594,0.0585938-0.5126953-0.0839844-0.5126953-0.2255859C32.8935547,34.3320313,32.9501953,33.9052734,33.4628906,34.21875z"
	/>
<path fill="#2B2B2B" d="M21.3930664,34.8984375c0.1147461,0.2275391,0.2285156,0.3398438-0.0571289,0.3691406
	c-0.2841797,0.0283203-0.4545898,0.0849609-0.3696289-0.1132813C20.9663086,35.1542969,21.2797852,34.6699219,21.3930664,34.8984375
	z"/>
<path fill="#2B2B2B" d="M24.4960938,35.0400391c-0.0571289-0.0859375,0-0.7109375,0.2563477-0.5410156
	c0.2553711,0.1708984,0.2553711,0.1425781,0.4272461,0.4550781c0.1699219,0.3134766,0.484375,0.5410156,0,0.4570313
	C24.6953125,35.3251953,24.4960938,35.0400391,24.4960938,35.0400391z"/>
<path fill="#2B2B2B" d="M28.2822266,34.4707031c-0.0859375,0.0576172-0.1699219-0.5117188,0.1699219-0.5117188
	c0.3427734,0,0.5703125-0.0302734,0.5419922,0.2255859c-0.0283203,0.2568359-0.0576172,0.4570313-0.2558594,0.5136719
	C28.5380859,34.7558594,28.2822266,34.4707031,28.2822266,34.4707031z"/>
<path fill="#2B2B2B" d="M27.5693359,36.0068359c-0.1992188,0.0849609-0.2841797-1.1386719-0.2841797-1.1386719
	s0.2011719-0.140625,0.3427734-0.0566406C27.7695313,34.8984375,27.9121094,35.8652344,27.5693359,36.0068359z"/>
<path fill="#2B2B2B" d="M30.1611328,35.5800781c-0.1826172,0-0.0283203-0.6816406,0.0839844-0.7392578
	c0.1152344-0.0566406,0.2578125,0.1416016,0.2285156,0.2851563C30.4462891,35.2675781,30.53125,35.5800781,30.1611328,35.5800781z"
	/>
<path fill="#2B2B2B" d="M23.9248047,18.8920898c6.9638672,0.6738281,10.9326172-2.6958008,12.1308594-3.4448242
	c1.1982422-0.7485352,2.1708984-2.3208008,2.1708984-3.2944336c0-0.9731445,0,0-0.5986328-1.9472656
	c-2.6816406,4.2314453-9.3388672,4.8012695-12.1689453,4.6694336C12.0419922,14.25,11.8334961,8.2915039,11.8334961,8.2915039
	l-0.3383789,4.6098633C12.6928711,14.7729492,16.9614258,18.2177734,23.9248047,18.8920898z M36.65625,12.25
	c0.5,0,0.90625,0.1748047,0.90625,0.390625s-0.40625,0.390625-0.90625,0.390625S35.75,12.8564453,35.75,12.640625
	S36.15625,12.25,36.65625,12.25z M34.65625,14.25c0.5,0,0.90625,0.1748047,0.90625,0.390625s-0.40625,0.390625-0.90625,0.390625
	S33.75,14.8564453,33.75,14.640625S34.15625,14.25,34.65625,14.25z M31.65625,15.25c0.5,0,0.90625,0.1748047,0.90625,0.390625
	s-0.40625,0.390625-0.90625,0.390625S30.75,15.8564453,30.75,15.640625S31.15625,15.25,31.65625,15.25z M29.65625,16.25
	c0.5,0,0.90625,0.1748047,0.90625,0.390625s-0.40625,0.390625-0.90625,0.390625S28.75,16.8564453,28.75,16.640625
	S29.15625,16.25,29.65625,16.25z M26.65625,16.25c0.5,0,0.90625,0.1748047,0.90625,0.390625s-0.40625,0.390625-0.90625,0.390625
	S25.75,16.8564453,25.75,16.640625S26.15625,16.25,26.65625,16.25z M23.65625,16.25c0.5,0,0.90625,0.1748047,0.90625,0.390625
	s-0.40625,0.390625-0.90625,0.390625S22.75,16.8564453,22.75,16.640625S23.15625,16.25,23.65625,16.25z M20.65625,15.25
	c0.5,0,0.90625,0.1748047,0.90625,0.390625s-0.40625,0.390625-0.90625,0.390625S19.75,15.8564453,19.75,15.640625
	S20.15625,15.25,20.65625,15.25z M18.5625,15.640625c0,0.2158203-0.40625,0.390625-0.90625,0.390625
	S16.75,15.8564453,16.75,15.640625S17.15625,15.25,17.65625,15.25S18.5625,15.4248047,18.5625,15.640625z M16.65625,14.25
	c0.5,0,0.90625,0.1748047,0.90625,0.390625s-0.40625,0.390625-0.90625,0.390625S15.75,14.8564453,15.75,14.640625
	S16.15625,14.25,16.65625,14.25z M14.65625,13.25c0.5,0,0.90625,0.1748047,0.90625,0.390625s-0.40625,0.390625-0.90625,0.390625
	S13.75,13.8564453,13.75,13.640625S14.15625,13.25,14.65625,13.25z M11.75,11.640625c0-0.2158203,0.40625-0.390625,0.90625-0.390625
	s0.90625,0.1748047,0.90625,0.390625s-0.40625,0.390625-0.90625,0.390625S11.75,11.8564453,11.75,11.640625z"/>
<path fill="#2B2B2B" d="M17.793457,12.7333984C17.7758789,12.703125,17.75,12.6738281,17.75,12.640625
	c0-0.2158203,0.40625-0.390625,0.90625-0.390625s0.90625,0.1748047,0.90625,0.390625
	c0,0.2089844-0.3833008,0.3759766-0.8618164,0.3867188c1.3920898,0.4169922,3.0371094,0.7456055,4.9995117,0.9223633
	c9.9462891,0.8955078,13.40625-3.3671875,13.1787109-5.390625C36.6123047,6.1835938,34.1269531,5.0415039,31.4960938,4.5
	C31.5361328,4.5439453,31.5625,4.5908203,31.5625,4.640625c0,0.2158203-0.40625,0.390625-0.90625,0.390625
	S29.75,4.8564453,29.75,4.640625c0-0.1567383,0.2167969-0.2895508,0.5253906-0.3515625
	c-2.7451172-0.387207-5.3017578-0.2231445-5.3017578-0.2231445C21.0791016,4.2158203,14,4.2084961,12.7680664,7.1357422
	C12.1503906,8.6035156,13.4189453,11.159668,17.793457,12.7333984z M22.65625,13.03125c-0.5,0-0.90625-0.1748047-0.90625-0.390625
	S22.15625,12.25,22.65625,12.25s0.90625,0.1748047,0.90625,0.390625S23.15625,13.03125,22.65625,13.03125z M26.65625,13.03125
	c-0.5,0-0.90625-0.1748047-0.90625-0.390625S26.15625,12.25,26.65625,12.25s0.90625,0.1748047,0.90625,0.390625
	S27.15625,13.03125,26.65625,13.03125z M35.65625,8.25c0.5,0,0.90625,0.1748047,0.90625,0.390625S36.15625,9.03125,35.65625,9.03125
	S34.75,8.8564453,34.75,8.640625S35.15625,8.25,35.65625,8.25z M33.65625,6.25c0.5,0,0.90625,0.1748047,0.90625,0.390625
	S34.15625,7.03125,33.65625,7.03125S32.75,6.8564453,32.75,6.640625S33.15625,6.25,33.65625,6.25z M33.5625,10.640625
	c0,0.2158203-0.40625,0.390625-0.90625,0.390625S31.75,10.8564453,31.75,10.640625S32.15625,10.25,32.65625,10.25
	S33.5625,10.4248047,33.5625,10.640625z M31.65625,8.25c0.5,0,0.90625,0.1748047,0.90625,0.390625
	S32.15625,9.03125,31.65625,9.03125S30.75,8.8564453,30.75,8.640625S31.15625,8.25,31.65625,8.25z M31.5625,12.640625
	c0,0.2158203-0.40625,0.390625-0.90625,0.390625S29.75,12.8564453,29.75,12.640625S30.15625,12.25,30.65625,12.25
	S31.5625,12.4248047,31.5625,12.640625z M29.65625,6.25c0.5,0,0.90625,0.1748047,0.90625,0.390625
	S30.15625,7.03125,29.65625,7.03125S28.75,6.8564453,28.75,6.640625S29.15625,6.25,29.65625,6.25z M28.65625,9.25
	c0.5,0,0.90625,0.1748047,0.90625,0.390625s-0.40625,0.390625-0.90625,0.390625S27.75,9.8564453,27.75,9.640625
	S28.15625,9.25,28.65625,9.25z M28.65625,11.25c0.5,0,0.90625,0.1748047,0.90625,0.390625s-0.40625,0.390625-0.90625,0.390625
	S27.75,11.8564453,27.75,11.640625S28.15625,11.25,28.65625,11.25z M26.65625,5.25c0.5,0,0.90625,0.1748047,0.90625,0.390625
	S27.15625,6.03125,26.65625,6.03125S25.75,5.8564453,25.75,5.640625S26.15625,5.25,26.65625,5.25z M26.65625,7.25
	c0.5,0,0.90625,0.1748047,0.90625,0.390625S27.15625,8.03125,26.65625,8.03125S25.75,7.8564453,25.75,7.640625
	S26.15625,7.25,26.65625,7.25z M25.65625,9.25c0.5,0,0.90625,0.1748047,0.90625,0.390625s-0.40625,0.390625-0.90625,0.390625
	S24.75,9.8564453,24.75,9.640625S25.15625,9.25,25.65625,9.25z M25.5625,11.640625c0,0.2158203-0.40625,0.390625-0.90625,0.390625
	S23.75,11.8564453,23.75,11.640625S24.15625,11.25,24.65625,11.25S25.5625,11.4248047,25.5625,11.640625z M24.5625,6.640625
	c0,0.2158203-0.40625,0.390625-0.90625,0.390625S22.75,6.8564453,22.75,6.640625S23.15625,6.25,23.65625,6.25
	S24.5625,6.4248047,24.5625,6.640625z M22.65625,4.25c0.5004883,0,0.90625,0.1748047,0.90625,0.390625
	S23.1567383,5.03125,22.65625,5.03125S21.75,4.8564453,21.75,4.640625S22.1557617,4.25,22.65625,4.25z M22.65625,8.25
	c0.5,0,0.90625,0.1748047,0.90625,0.390625S23.15625,9.03125,22.65625,9.03125S21.75,8.8564453,21.75,8.640625
	S22.15625,8.25,22.65625,8.25z M21.65625,10.25c0.5,0,0.90625,0.1748047,0.90625,0.390625s-0.40625,0.390625-0.90625,0.390625
	S20.75,10.8564453,20.75,10.640625S21.15625,10.25,21.65625,10.25z M20.5625,7.640625
	c0,0.2158203-0.40625,0.390625-0.90625,0.390625S18.75,7.8564453,18.75,7.640625S19.15625,7.25,19.65625,7.25
	S20.5625,7.4248047,20.5625,7.640625z M18.65625,5.25c0.5004883,0,0.90625,0.1748047,0.90625,0.390625
	S19.1567383,6.03125,18.65625,6.03125S17.75,5.8564453,17.75,5.640625S18.1557617,5.25,18.65625,5.25z M18.65625,9.25
	c0.5,0,0.90625,0.1748047,0.90625,0.390625s-0.40625,0.390625-0.90625,0.390625S17.75,9.8564453,17.75,9.640625
	S18.15625,9.25,18.65625,9.25z M15.65625,6.25c0.5,0,0.90625,0.1748047,0.90625,0.390625S16.15625,7.03125,15.65625,7.03125
	S14.75,6.8564453,14.75,6.640625S15.15625,6.25,15.65625,6.25z M15.65625,9.25c0.5,0,0.90625,0.1748047,0.90625,0.390625
	s-0.40625,0.390625-0.90625,0.390625S14.75,9.8564453,14.75,9.640625S15.15625,9.25,15.65625,9.25z"/>
<path fill="#2B2B2B" d="M12.6933594,17.3193359c0.0009766-0.0009766,0.0014648-0.0024414,0.0019531-0.003418
	C12.5322266,17.4726563,12.5141602,17.5576172,12.6933594,17.3193359z"/>
<path fill="#2B2B2B" d="M15.2211914,19.0561523C15.0820313,19.2714844,15.0566406,19.34375,15.2211914,19.0561523
	L15.2211914,19.0561523z"/>
<path fill="#2B2B2B" d="M38.9003906,15.8217773l0.9736328,0.0751953c0,0,0-1.4980469-0.4492188-1.6474609
	c-0.4492188-0.1499023-1.4228516-0.9736328-1.4228516-0.9736328s0,0-0.2246094,0.5239258s1.2734375,1.6474609,1.2734375,1.6474609
	s-0.7490234-0.4492188-1.1982422-0.4492188c-0.4501953,0-0.5986328,0.2998047-0.8232422,1.0483398
	c-0.2255859,0.7485352-5.1669922,2.6210938-5.6914063,2.9199219C30.8134766,19.2661133,31.4599609,21.1254883,31.0419922,20.5
	c-0.1669922-0.25-0.9765625-1.1586914-1.2011719-1.0844727c-0.2255859,0.0751953-6.6650391-0.1489258-7.6381836-0.0742188
	s-2.2460938,1.6469727-1.9467773,1.1230469c0.2988281-0.5239258,0.8237305-1.4228516,0.449707-1.4980469
	c-0.3754883-0.074707-2.9213867-0.4487305-3.8193359-1.0483398c-0.5786133-0.3857422-1.371582,0.6845703-1.6650391,1.1381836
	c-0.1645508,0.2875977-0.1391602,0.215332,0,0c0.0268555-0.0473633,0.0551758-0.0966797,0.0927734-0.1640625
	c0.7480469-1.3476563,0.3740234-1.4980469-0.9736328-1.9472656c-0.8105469-0.2700195-1.3979492,0.1342773-1.6450195,0.3710938
	c-0.0004883,0.0009766-0.0009766,0.0024414-0.0019531,0.003418c-0.1791992,0.2382813-0.1611328,0.1533203,0.0019531-0.003418
	c0.4472656-0.597168,0.5957031-1.1201172,0.1474609-1.4189453c-0.4492188-0.300293-0.8984375-0.2250977-0.8984375-0.2250977
	s0.1494141-0.5239258-0.4492188-1.2729492c-0.5991211-0.7480469-0.7485352-0.8237305-0.7485352-0.8237305l-3.1450195,1.7973633
	c0,0,0.0537109,0.0571289,0.1391602,0.15625c0.3022461,0.3535156,1,1.2387695,1.0581055,1.940918
	c0.074707,0.8979492,0.9360352,1.5556641,2.284668,1.7802734c1.3476563,0.2246094,0.777832,0.4609375,2.5,1.9584961
	C16.1669922,23.9165039,18.3842773,22.9326172,19,22.625c0.5834961-0.2915039,2-0.9165039,2-0.9165039L19.75,23.625
	c0,0,9.125,0.6665039,10.5839844-0.125c0.5957031-0.3232422,0.4052734-1.5380859,0.4052734-1.5380859L31.375,22.9584961
	c0,0,3.7070313-2.1196289,5.4287109-2.793457c1.7236328-0.6738281,3.5947266-2.8457031,3.5947266-2.8457031L38.9003906,15.8217773z
	 M9.65625,16.03125c-0.5,0-0.90625-0.1748047-0.90625-0.390625S9.15625,15.25,9.65625,15.25s0.90625,0.1748047,0.90625,0.390625
	S10.15625,16.03125,9.65625,16.03125z M11.65625,18.03125c-0.5,0-0.90625-0.1748047-0.90625-0.390625S11.15625,17.25,11.65625,17.25
	s0.90625,0.1748047,0.90625,0.390625S12.15625,18.03125,11.65625,18.03125z M13.65625,19.03125
	c-0.5,0-0.90625-0.1748047-0.90625-0.390625S13.15625,18.25,13.65625,18.25s0.90625,0.1748047,0.90625,0.390625
	S14.15625,19.03125,13.65625,19.03125z M17.65625,21.03125c-0.5,0-0.90625-0.1748047-0.90625-0.390625
	S17.15625,20.25,17.65625,20.25s0.90625,0.1748047,0.90625,0.390625S18.15625,21.03125,17.65625,21.03125z M23.65625,22.03125
	c-0.5,0-0.90625-0.1748047-0.90625-0.390625S23.15625,21.25,23.65625,21.25s0.90625,0.1748047,0.90625,0.390625
	S24.15625,22.03125,23.65625,22.03125z M25.65625,23.03125c-0.5,0-0.90625-0.1748047-0.90625-0.390625
	S25.15625,22.25,25.65625,22.25s0.90625,0.1748047,0.90625,0.390625S26.15625,23.03125,25.65625,23.03125z M25.65625,21.03125
	c-0.5,0-0.90625-0.1748047-0.90625-0.390625S25.15625,20.25,25.65625,20.25s0.90625,0.1748047,0.90625,0.390625
	S26.15625,21.03125,25.65625,21.03125z M27.65625,22.03125c-0.5,0-0.90625-0.1748047-0.90625-0.390625
	S27.15625,21.25,27.65625,21.25s0.90625,0.1748047,0.90625,0.390625S28.15625,22.03125,27.65625,22.03125z M32.65625,20.03125
	c-0.5,0-0.90625-0.1748047-0.90625-0.390625S32.15625,19.25,32.65625,19.25s0.90625,0.1748047,0.90625,0.390625
	S33.15625,20.03125,32.65625,20.03125z M35.65625,20.03125c-0.5,0-0.90625-0.1748047-0.90625-0.390625
	S35.15625,19.25,35.65625,19.25s0.90625,0.1748047,0.90625,0.390625S36.15625,20.03125,35.65625,20.03125z M36.65625,18.03125
	c-0.5,0-0.90625-0.1748047-0.90625-0.390625S36.15625,17.25,36.65625,17.25s0.90625,0.1748047,0.90625,0.390625
	S37.15625,18.03125,36.65625,18.03125z M38.65625,18.03125c-0.5,0-0.90625-0.1748047-0.90625-0.390625
	S38.15625,17.25,38.65625,17.25s0.90625,0.1748047,0.90625,0.390625S39.15625,18.03125,38.65625,18.03125z"/>
</svg>