<?xml version="1.0" encoding="utf-8"?>
<!DOCTYPE svg PUBLIC "-//W3C//DTD SVG 1.1//EN" "http://www.w3.org/Graphics/SVG/1.1/DTD/svg11.dtd">
<svg version="1.1" id="iSolenaya" xmlns="http://www.w3.org/2000/svg" xmlns:xlink="http://www.w3.org/1999/xlink" x="0px" y="0px" width="100%" height="100%" viewBox="0 0 48 48" preserveAspectRatio="xMidYMid meet">
<path fill="#2B2B2B" d="M21.8154297,35.0273438c1.3691406-0.8183594,3.0244141-0.6552734,4.09375,0.2753906
	c0.0488281-0.0361328,0.0957031-0.0712891,0.1435547-0.1074219c-1.1245117-1.0019531-2.8798828-1.1865234-4.328125-0.3193359
	c-1.4570313,0.8720703-2.1245117,2.5214844-1.7587891,3.9921875c0.0546875-0.0244141,0.1088867-0.0488281,0.1630859-0.0732422
	C19.7988281,37.4033203,20.4370117,35.8515625,21.8154297,35.0273438z"/>
<path fill="#2B2B2B" d="M22.8242188,36.0839844c0.6679688-0.3994141,1.4550781-0.3847656,2.0493164-0.0390625
	c0.0541992-0.0380859,0.1079102-0.0761719,0.1616211-0.1132813c-0.6542969-0.4179688-1.5488281-0.4492188-2.3007813,0
	c-0.7753906,0.4648438-1.1777344,1.3046875-1.0869141,2.1015625c0.0576172-0.03125,0.1162109-0.0625,0.1738281-0.09375
	C21.7695313,37.2314453,22.1347656,36.4970703,22.8242188,36.0839844z"/>
<path fill="#2B2B2B" d="M22.4638672,35.6826172c0.9384766-0.5615234,2.0634766-0.5087891,2.8564453,0.0449219
	c0.0488281-0.0351563,0.0986328-0.0703125,0.1464844-0.1044922c-0.8500977-0.6259766-2.0742188-0.7011719-3.09375-0.0917969
	c-1.0439453,0.6240234-1.5527344,1.7753906-1.3691406,2.8417969c0.0541992-0.0273438,0.1088867-0.0546875,0.1630859-0.0830078
	C21.0214844,37.3095703,21.5019531,36.2587891,22.4638672,35.6826172z"/>
<path fill="#2B2B2B" d="M14.9648438,33.1035156c-1.6738281,1.0029297-3.7919922,0.5527344-4.7216797-0.9980469
	c-0.0527344-0.0878906-0.0825195-0.1826172-0.1254883-0.2734375c-0.0517578,0.0273438-0.0991211,0.0527344-0.1542969,0.0820313
	c0.0444336,0.0927734,0.0751953,0.1904297,0.1293945,0.2802734c0.9785156,1.6367188,3.2041016,2.1123047,4.9628906,1.0605469
	c1.7172852-1.0263672,2.3515625-3.1328125,1.4702148-4.7539063c-0.0517578,0.0273438-0.1035156,0.0546875-0.1557617,0.0820313
	C17.206543,30.1230469,16.6015625,32.1259766,14.9648438,33.1035156z"/>
<path fill="#2B2B2B" d="M14.5117188,31.7148438c-0.9492188,0.5673828-2.1484375,0.3154297-2.6728516-0.5625
	c-0.03125-0.0527344-0.0498047-0.109375-0.0751953-0.1630859c-0.0541992,0.0273438-0.1069336,0.0546875-0.1572266,0.0810547
	c0.0268555,0.0566406,0.0458984,0.1162109,0.0791016,0.171875c0.5751953,0.9628906,1.8847656,1.2421875,2.9169922,0.625
	c1.0136719-0.6054688,1.3842773-1.8515625,0.8574219-2.8066406c-0.0527344,0.0283203-0.1049805,0.0556641-0.1577148,0.0830078
	C15.7871094,30.0166016,15.4438477,31.1582031,14.5117188,31.7148438z"/>
<path fill="#2B2B2B" d="M35.8476563,22.5742188c-0.4042969,0.2421875-0.546875,0.7451172-0.3212891,1.1230469
	c0.0302734,0.0507813,0.0771484,0.0839844,0.1171875,0.125c0.0185547-0.0292969,0.0371094-0.0595703,0.0556641-0.0898438
	c-0.0302734-0.0292969-0.0644531-0.0546875-0.0869141-0.0927734c-0.1503906-0.2509766-0.0517578-0.5859375,0.2207031-0.75
	c0.1396484-0.0830078,0.2978516-0.1035156,0.4384766-0.0712891c0.0722656-0.1162109,0.1464844-0.2353516,0.21875-0.3496094
	C36.28125,22.4228516,36.0507813,22.4541016,35.8476563,22.5742188z"/>
<path fill="#2B2B2B" d="M23.2675781,36.5908203c0.3237305-0.1933594,0.6889648-0.2304688,1.0146484-0.1464844
	c0.0644531-0.0429688,0.1274414-0.0869141,0.1914063-0.1298828c-0.402832-0.1523438-0.8823242-0.1240234-1.2978516,0.125
	c-0.4365234,0.2607422-0.6967773,0.7001953-0.734375,1.1513672c0.0708008-0.0419922,0.1411133-0.0830078,0.2114258-0.125
	C22.7231445,37.1210938,22.9277344,36.7949219,23.2675781,36.5908203z"/>
<path fill="#2B2B2B" d="M14.7460938,32.3115234c-1.2451172,0.7441406-2.8193359,0.4111328-3.5087891-0.7421875
	c-0.0483398-0.0810547-0.078125-0.1669922-0.1152344-0.2509766c-0.0610352,0.03125-0.1098633,0.0556641-0.1582031,0.0791016
	c0.0395508,0.0888672,0.0703125,0.1787109,0.1210938,0.2636719c0.7402344,1.2363281,2.4248047,1.5966797,3.7529297,0.8027344
	c1.3134766-0.7871094,1.7924805-2.4130859,1.0849609-3.6455078c-0.0527344,0.0273438-0.1044922,0.0546875-0.1567383,0.0820313
	C16.4301758,30.0498047,15.9794922,31.5722656,14.7460938,32.3115234z"/>
<path fill="#2B2B2B" d="M29.9824219,31.9326172c-0.828125,0.2304688-1.7128906-0.0595703-2.1435547-0.7802734
	c-0.5273438-0.8789063-0.1835938-2.0556641,0.7666016-2.6240234c0.9492188-0.5683594,2.1474609-0.3154297,2.6728516,0.5634766
	c0.1777344,0.296875,0.2490234,0.6279297,0.2382813,0.9580078c0.0585938-0.0791016,0.1162109-0.1523438,0.1748047-0.2333984
	c-0.0244141-0.2822266-0.1064453-0.5605469-0.2587891-0.8154297c-0.5761719-0.9628906-1.8847656-1.2431641-2.9179688-0.6240234
	c-1.0322266,0.6162109-1.4052734,1.9033203-0.8291016,2.8652344c0.4267578,0.7138672,1.2568359,1.0498047,2.078125,0.9248047
	C29.8349609,32.0957031,29.9091797,32.0107422,29.9824219,31.9326172z"/>
<path fill="#2B2B2B" d="M14.2734375,31.0849609c-0.6113281,0.3662109-1.3837891,0.2041016-1.7216797-0.3613281
	c-0.0229492-0.0380859-0.0229492-0.0820313-0.0410156-0.1220703c-0.0605469,0.03125-0.112793,0.0585938-0.1708984,0.0888672
	c0.019043,0.0419922,0.0332031,0.0859375,0.0576172,0.1259766c0.3886719,0.6474609,1.2714844,0.8378906,1.9667969,0.4208984
	c0.6860352-0.4091797,0.934082-1.2558594,0.5712891-1.9013672c-0.0527344,0.0273438-0.1054688,0.0556641-0.1577148,0.0830078
	C15.0981445,29.9814453,14.878418,30.7246094,14.2734375,31.0849609z"/>
<path fill="#2B2B2B" d="M13.8876953,29.9189453c0.1503906,0.2509766,0.0527344,0.5869141-0.2197266,0.7490234
	c-0.2734375,0.1640625-0.6162109,0.0917969-0.7666016-0.1591797c-0.0175781-0.0292969-0.0205078-0.0625-0.03125-0.09375
	c-0.0302734,0.015625-0.0615234,0.0322266-0.0913086,0.046875c0.0141602,0.0351563,0.0161133,0.0722656,0.0356445,0.1054688
	c0.2255859,0.3759766,0.7392578,0.4882813,1.1416016,0.2470703c0.4033203-0.2421875,0.546875-0.7460938,0.3212891-1.1230469
	c-0.0019531-0.0029297-0.0048828-0.0048828-0.0068359-0.0078125c-0.1367188,0.0722656-0.2714844,0.1425781-0.4047852,0.2119141
	C13.8720703,29.9042969,13.8818359,29.9091797,13.8876953,29.9189453z"/>
<path fill="#2B2B2B" d="M34.2158203,20.453125c-1.7587891,1.0507813-2.3916016,3.2382813-1.4121094,4.875
	c0.2910156,0.4873047,0.7011719,0.8574219,1.1689453,1.1289063c0.0322266-0.0498047,0.0634766-0.0996094,0.0957031-0.1484375
	c-0.4453125-0.2578125-0.8359375-0.6083984-1.1132813-1.0712891c-0.9296875-1.5537109-0.3222656-3.6318359,1.3515625-4.6337891
	c1.1210938-0.6708984,2.4335938-0.6787109,3.4619141-0.1533203c0.0341797-0.0517578,0.0634766-0.0957031,0.0966797-0.1474609
	C36.7822266,19.7431641,35.3974609,19.7460938,34.2158203,20.453125z"/>
<path fill="#2B2B2B" d="M27.2373047,31.5693359c-0.6894531-1.1523438-0.2382813-2.6962891,1.0068359-3.4414063
	c1.2441406-0.7441406,2.8183594-0.4130859,3.5078125,0.7412109c0.1035156,0.1738281,0.1738281,0.3574219,0.2265625,0.5449219
	c0.0439453-0.0615234,0.0878906-0.1240234,0.1328125-0.1865234c-0.0546875-0.1533203-0.1210938-0.3046875-0.2070313-0.4492188
	c-0.7412109-1.2382813-2.4238281-1.5966797-3.7519531-0.8027344c-1.3271484,0.7958984-1.8066406,2.4482422-1.0673828,3.6855469
	c0.4169922,0.6953125,1.1347656,1.1015625,1.9169922,1.1933594c0.0625-0.0517578,0.1279297-0.1064453,0.1875-0.15625
	C28.3945313,32.6572266,27.6542969,32.2666016,27.2373047,31.5693359z"/>
<path fill="#2B2B2B" d="M28.9560547,28.8837891c-0.6953125,0.4169922-0.9462891,1.2832031-0.5585938,1.9326172
	c0.3886719,0.6474609,1.2714844,0.8378906,1.9667969,0.4208984c0.6962891-0.4150391,0.9443359-1.2822266,0.5576172-1.9306641
	C30.5332031,28.6572266,29.6523438,28.4677734,28.9560547,28.8837891z M30.2734375,31.0849609
	c-0.6113281,0.3662109-1.3837891,0.2041016-1.7216797-0.3613281c-0.3388672-0.5644531-0.1162109-1.3222656,0.4951172-1.6875
	c0.6123047-0.3662109,1.3857422-0.2041016,1.7236328,0.3603516C31.1083984,29.9619141,30.8857422,30.7197266,30.2734375,31.0849609z
	"/>
<path fill="#2B2B2B" d="M35.2255859,21.5078125c-1.0322266,0.6171875-1.4052734,1.9033203-0.8291016,2.8662109
	c0.1396484,0.234375,0.3251953,0.4257813,0.5371094,0.5761719c0.0322266-0.0498047,0.0634766-0.1005859,0.0957031-0.1503906
	c-0.1894531-0.1357422-0.3554688-0.3066406-0.4804688-0.5166016c-0.5253906-0.8798828-0.1816406-2.0556641,0.7675781-2.6230469
	c0.5722656-0.3427734,1.2353516-0.3818359,1.7880859-0.1689453c0.0322266-0.0507813,0.0654297-0.1035156,0.0966797-0.1542969
	C36.59375,21.0908203,35.8583984,21.1289063,35.2255859,21.5078125z"/>
<path fill="#2B2B2B" d="M34.8642578,21.1074219c-1.3291016,0.7958984-1.8076172,2.4482422-1.0673828,3.6845703
	c0.1923828,0.3212891,0.4492188,0.5800781,0.7451172,0.7783203c0.0322266-0.0498047,0.0625-0.0996094,0.0947266-0.1494141
	c-0.2744141-0.1835938-0.5107422-0.4228516-0.6884766-0.71875c-0.6904297-1.1533203-0.2392578-2.6972656,1.0068359-3.4423828
	c0.7773438-0.4648438,1.6826172-0.5097656,2.421875-0.1962891c0.0322266-0.0507813,0.0634766-0.0996094,0.0947266-0.1494141
	C36.6777344,20.5673828,35.7011719,20.6074219,34.8642578,21.1074219z"/>
<path fill="#2B2B2B" d="M26.2431641,32.1054688c-0.9296875-1.5537109-0.3203125-3.6328125,1.3515625-4.6337891
	c1.6748047-1.0019531,3.7939453-0.5527344,4.7236328,0.9990234c0.0537109,0.0898438,0.0849609,0.1875,0.1289063,0.2802734
	c0.0380859-0.0546875,0.0771484-0.1142578,0.1152344-0.1699219c-0.0332031-0.0664063-0.0537109-0.1357422-0.0917969-0.2001953
	c-0.9804688-1.6367188-3.2070313-2.1123047-4.9648438-1.0605469c-1.7587891,1.0517578-2.3925781,3.2402344-1.4130859,4.8740234
	c0.4423828,0.7402344,1.1455078,1.2285156,1.9394531,1.4599609c0.0566406-0.0458984,0.1074219-0.0878906,0.1621094-0.1328125
	C27.3945313,33.3183594,26.6835938,32.8398438,26.2431641,32.1054688z"/>
<path fill="#2B2B2B" d="M29.1367188,29.4433594c-0.4033203,0.2412109-0.5488281,0.7460938-0.3222656,1.1240234
	c0.2255859,0.3759766,0.7392578,0.4882813,1.1416016,0.2470703c0.4033203-0.2421875,0.546875-0.7460938,0.3212891-1.1230469
	C30.0507813,29.3134766,29.5400391,29.2021484,29.1367188,29.4433594z M29.6679688,30.6679688
	c-0.2734375,0.1640625-0.6162109,0.0917969-0.7666016-0.1591797s-0.0517578-0.5878906,0.2216797-0.7509766
	c0.2714844-0.1640625,0.6142578-0.0908203,0.7646484,0.1611328C30.0380859,30.1699219,29.9404297,30.5058594,29.6679688,30.6679688z
	"/>
<path fill="#2B2B2B" d="M35.6669922,22.015625c-0.6953125,0.4169922-0.9462891,1.2822266-0.5576172,1.9316406
	c0.0712891,0.1191406,0.1640625,0.2177734,0.2646484,0.3046875c0.0351563-0.0556641,0.0693359-0.1103516,0.1044922-0.1660156
	c-0.078125-0.0712891-0.1601563-0.1357422-0.2167969-0.2294922c-0.3378906-0.5664063-0.1152344-1.3232422,0.4960938-1.6884766
	c0.3242188-0.1943359,0.6884766-0.2314453,1.0146484-0.1484375c0.03125-0.0498047,0.0615234-0.0986328,0.0927734-0.1484375
	C36.4833984,21.7568359,36.0498047,21.7861328,35.6669922,22.015625z"/>
<path fill="#2B2B2B" d="M39.5146484,15.2324219c-0.4414063-0.3046875-1.8056641-0.4199219-2.1171875,0.1796875
	c-0.3125,0.6015625-1.0830078,1.4765625-3.6826172,3.1865234c-2.5966797,1.7099609-12.0229492,7.1416016-13.112793,7.7421875
	c-0.4204102,0.2314453-1.8432617,0.9853516-3.4819336,1.8476563c1.0014648,1.8652344,0.2714844,4.2705078-1.7011719,5.4511719
	c-2.0283203,1.2128906-4.5849609,0.6689453-5.7099609-1.2138672c-0.0581055-0.0966797-0.090332-0.2011719-0.1386719-0.3017578
	c-1.6640625,0.8945313-4.262207,2.3320313-4.5488281,2.5029297c-0.3808594,0.2285156-0.9672852,0.3720703-1.7070313,1.1240234
	c-0.7392578,0.7539063-2.0415039,1.4296875-2.3393555,1.7099609c-0.2973633,0.2822266-0.7231445,0.9619141-0.7329102,1.3710938
	c-0.0117188,0.4990234,0.6416016,0.9335938,0.9121094,1.1357422c0.4941406,0.4794922,5.8388672,1.2392578,6.1660156,1.3535156
	c0.3266602,0.1162109,0.4873047-0.3945313,0.4873047-0.3945313s0.4267578,0.1083984,6.6333008-0.5009766
	c1.7592773-0.1728516,3.4770508-0.6875,5.1054688-1.3798828c-0.4663086-1.7119141,0.3051758-3.6494141,2.0112305-4.6699219
	c1.6962891-1.0146484,3.75-0.7871094,5.0400391,0.4111328c0.3544922-0.2705078,0.6865234-0.5332031,1.0068359-0.7890625
	c-0.7744141-0.2998047-1.4492188-0.8261719-1.8955078-1.5722656c-1.1279297-1.8837891-0.3984375-4.3925781,1.6298828-5.6064453
	c1.9951172-1.1943359,4.4970703-0.6787109,5.6494141,1.1337891c0.2460938-0.3662109,0.4921875-0.7382813,0.7382813-1.1171875
	c-0.5214844-0.3105469-0.9794922-0.7304688-1.3076172-1.2792969c-1.1269531-1.8837891-0.3974609-4.3935547,1.6298828-5.6064453
	c1.3525391-0.8085938,2.9326172-0.8203125,4.1738281-0.1894531c0.3398438-0.5078125,0.6396484-0.9316406,0.8828125-1.2314453
	C40.9814453,16.2167969,39.9560547,15.5380859,39.5146484,15.2324219z M5.4584961,37.7900391
	c-0.5141602,0.3085938-1.1723633,0.1582031-1.4677734-0.3369141c-0.1225586-0.2041016-0.1459961-0.4335938-0.1162109-0.65625
	c0.0185547,0.0546875,0.0283203,0.1103516,0.059082,0.1621094c0.2231445,0.3740234,0.6948242,0.5029297,1.0522461,0.2900391
	c0.3579102-0.2138672,0.4663086-0.6914063,0.2431641-1.0644531c-0.097168-0.1621094-0.2456055-0.2685547-0.4072266-0.3310547
	c0.4067383-0.0517578,0.8183594,0.1201172,1.034668,0.4824219C6.1533203,36.8320313,5.9750977,37.4824219,5.4584961,37.7900391z
	 M8.4375,36.4501953c-0.1074219,1.2861328-0.1875,2.6875-0.4375,3.5c0.1674805-3.0488281,0.0546875-3.21875,0-4
	c-0.1274414-1.8134766-1.6914063-1.6796875-1.6914063-1.6796875C6.8540039,33.8408203,7.5571289,33.78125,7.9375,34.2001953
	C8.5595703,34.8876953,8.53125,35.3251953,8.4375,36.4501953z M14.5258789,39.0771484
	c-1.5498047,0.1035156-4.4047852,0.1933594-4.7055664-0.0849609s-0.5507813-0.4824219-0.2333984-0.6474609
	c0,0,2.4355469-0.3945313,3.4130859-0.3945313c1,0,2.6088867,0.4296875,2.6088867,0.4296875
	S16.0761719,38.9755859,14.5258789,39.0771484z"/>
<path fill="#2B2B2B" d="M46.0205078,11.2744141c-0.2060547,0.3916016-0.4082031,0.7402344-0.5517578,0.8945313
	c-0.4375,0.46875-1.96875,1.625-3.6875,2.25c0,0,2.4375-1.40625,3.375-2.4375
	c0.1669922-0.1835938,0.3261719-0.3828125,0.4804688-0.5839844c-0.7216797,0.2333984-1.4492188,0.453125-1.9326172,0.3837891
	c-0.2587891,0.3369141-0.4970703,0.6162109-0.6728516,0.7626953c-0.75,0.625-1.84375,1.375-1.84375,1.375
	s0.5888672-0.5654297,2.1289063-2.3173828c-0.0107422-0.0097656-0.0253906-0.0146484-0.0351563-0.0263672
	c-0.2021484-0.2402344-0.3427734-0.609375-0.4492188-1.0371094c-0.2998047,0.6259766-0.6054688,1.2177734-0.8007813,1.4746094
	c-0.5,0.65625-1.3125,1.5-1.3125,1.5s0.40625-0.6875,1.59375-2.6875c0.1591797-0.2685547,0.2998047-0.5019531,0.4267578-0.7128906
	c-0.1396484-0.7490234-0.2041016-1.6015625-0.296875-2.2792969c-0.40625,1.3037109-1.0986328,3.3867188-1.2548828,3.6796875
	c-0.25,0.46875-0.625,1.5625-0.875,1.90625c0,0,0.5-2.15625,1.09375-3.5
	c0.4414063-0.9980469,0.7265625-1.6855469,0.9980469-2.3447266C42.3388672,7.1669922,42.2548828,6.8496094,42.125,6.7001953
	c-1.09375-0.3125-1.4013672,1.3134766-1.625,1.9375s-1.1435547,3.078125-1.34375,3.65625
	c-0.2011719,0.578125-1.21875,2.4375-1.21875,2.4375s3.96875-0.5,2.0625,3.21875c2-2,2.8154297-2.6611328,3.46875-3
	C44.3125,14.5126953,48,13.1806641,48,11.4189453C48,10.6865234,47.0673828,10.9384766,46.0205078,11.2744141z"/>
</svg>