<?xml version="1.0" encoding="utf-8"?>
<!DOCTYPE svg PUBLIC "-//W3C//DTD SVG 1.1//EN" "http://www.w3.org/Graphics/SVG/1.1/DTD/svg11.dtd">
<svg version="1.1" id="iRating" xmlns="http://www.w3.org/2000/svg" xmlns:xlink="http://www.w3.org/1999/xlink" x="0px" y="0px" width="100%" height="100%" viewBox="0 0 240 240" preserveAspectRatio="xMidYMid meet">
<polygon id="iBackground_1_" opacity="0" fill="#FCEE21" points="120.0874023,36.1357422 147.8310547,92.3120117 
	209.7998047,101.3237305 164.9511719,145.046875 175.5283203,206.7919922 120.0874023,177.6328125 64.6342773,206.7919922 
	75.234375,145.046875 30.3701172,101.3237305 92.362793,92.3120117 "/>
<path id="iStroke" opacity="0" fill="#FCEE21" d="M55.0541992,219.9736328l12.4316406-72.4101563l-52.612793-51.2749023
	l72.7011719-10.5678711l32.5107422-65.8754883l32.5332031,65.8754883l72.6738281,10.5678711l-52.59375,51.2749023
	l12.4033203,72.4101563l-65.0141602-34.1962891L55.0541992,219.9736328z"/>
<path id="iStroke_1_" fill="#999999" d="M55.0541992,219.9736328l12.4316406-72.4101563l-52.612793-51.2749023
	l72.7011719-10.5678711l32.5107422-65.8754883l32.5332031,65.8754883l72.6738281,10.5678711l-52.59375,51.2749023
	l12.4033203,72.4101563l-65.0141602-34.1962891L55.0541992,219.9736328z M120.0874023,169.4873047l45.8696289,24.1210938
	l-8.7509766-51.078125l37.1015625-36.171875l-51.265625-7.4550781l-22.9526367-46.4770508L97.1513672,98.9033203
	l-51.2841797,7.4550781l37.1157227,36.171875l-8.7695313,51.078125L120.0874023,169.4873047z"/>
</svg>
