<?xml version="1.0" encoding="utf-8"?>
<!DOCTYPE svg PUBLIC "-//W3C//DTD SVG 1.1//EN" "http://www.w3.org/Graphics/SVG/1.1/DTD/svg11.dtd">
<svg version="1.1" id="iStar" xmlns="http://www.w3.org/2000/svg" xmlns:xlink="http://www.w3.org/1999/xlink" x="0px" y="0px" width="100%" height="100%" viewBox="0 0 48 48" preserveAspectRatio="xMidYMid meet">
<polygon id="iBg" opacity="0" fill="#FCEE21" points="24.0834961,6.4833984 29.8544922,18.1689453 42.7451172,20.043457 
	33.4160156,29.1386719 35.6162109,41.9824219 24.0834961,35.9169922 12.5483398,41.9824219 14.753418,29.1386719 
	5.4208984,20.043457 18.3164063,18.1689453 "/>
<path id="iStroke" fill="#A3A3A3" d="M10.5556641,44.7246094l2.5859375-15.0625L2.1972656,18.9960938l15.1230469-2.1982422
	l6.7626953-13.703125l6.7675781,13.703125l15.1171875,2.1982422L35.0273438,29.6621094l2.5800781,15.0625l-13.5239258-7.1132813
	L10.5556641,44.7246094z M24.0834961,34.2226563L33.625,39.2402344l-1.8203125-10.625l7.7177734-7.5244141l-10.6640625-1.5507813
	l-4.7744141-9.6679688L19.3125,19.5400391L8.6445313,21.0908203l7.7207031,7.5244141l-1.8242188,10.625L24.0834961,34.2226563z"/>
</svg>