<?xml version="1.0" encoding="utf-8"?>
<!DOCTYPE svg PUBLIC "-//W3C//DTD SVG 1.1//EN" "http://www.w3.org/Graphics/SVG/1.1/DTD/svg11.dtd">
<svg version="1.1" id="iStar1" xmlns="http://www.w3.org/2000/svg" xmlns:xlink="http://www.w3.org/1999/xlink" x="0px" y="0px" width="100%" height="100%" viewBox="0 0 240 240" preserveAspectRatio="xMidYMid meet">
<g id="iStar">
	<polygon id="iBackground_1_" opacity="0" fill="#FCEE21" points="120.0874023,36.1357422 147.8310547,92.3120117 
		209.7998047,101.3237305 164.9511719,145.046875 175.5283203,206.7919922 120.0874023,177.6328125 64.6342773,206.7919922 
		75.234375,145.046875 30.3701172,101.3237305 92.362793,92.3120117 	"/>
	<path id="iStroke" fill="#FCEE21" d="M55.0541992,219.9736328l12.4316406-72.4101563l-52.612793-51.2749023l72.7011719-10.5678711
		l32.5107422-65.8754883l32.5332031,65.8754883l72.6738281,10.5678711l-52.59375,51.2749023l12.4033203,72.4101563
		l-65.0141602-34.1962891L55.0541992,219.9736328z"/>
	<path id="iStroke_1_" fill="#F0C800" d="M55.0541992,219.9736328l12.4316406-72.4101563l-52.612793-51.2749023
		l72.7011719-10.5678711l32.5107422-65.8754883l32.5332031,65.8754883l72.6738281,10.5678711l-52.59375,51.2749023
		l12.4033203,72.4101563l-65.0141602-34.1962891L55.0541992,219.9736328z M120.0874023,169.4873047l45.8696289,24.1210938
		l-8.7509766-51.078125l37.1015625-36.171875l-51.265625-7.4550781l-22.9526367-46.4770508L97.1513672,98.9033203
		l-51.2841797,7.4550781l37.1157227,36.171875l-8.7695313,51.078125L120.0874023,169.4873047z"/>
	<path display="none" fill="#BF9A00" d="M133.5429688,162.7382813c-2.8476563,2.8476563-7.2080078,4.9833984-13.3486328,4.9833984
		c-6.0512695,0-10.7675781-2.1357422-13.5263672-4.8945313c-3.3813477-3.3818359-4.4492188-7.5644531-4.8051758-12.1025391
		h9.0766602c0.7119141,5.6064453,3.5595703,8.8095703,9.2548828,8.8095703c2.6699219,0,4.9833984-0.8896484,6.5849609-2.4912109
		c2.6699219-2.6699219,3.0263672-6.8525391,3.0263672-11.1240234c0-7.5634766-1.9580078-13.2587891-9.2553711-13.2587891
		c-5.1611328,0-8.0087891,2.5800781-8.987793,5.6953125h-8.2758789v-34.6171875h34.1713867v8.0981445h-25.984375v16.7299805
		c2.1357422-2.2246094,5.8730469-3.6484375,10.5009766-3.6484375c4.9833984,0,8.8095703,1.5126953,11.390625,4.09375
		c4.8046875,4.8046875,5.5166016,10.9453125,5.5166016,16.9072266
		C138.8818359,152.6826172,138.1699219,158.1103516,133.5429688,162.7382813z"/>
	<path display="none" fill="#BF9A00" d="M133.8095703,157.5771484v9.5214844H125v-9.5214844H99.3710938v-8.4541016
		l22.3359375-45.3847656h9.7890625l-22.2470703,45.3847656H125v-14.7724609h8.8095703v14.7724609h6.7636719v8.4541016H133.8095703z"
		/>
	<path display="none" fill="#BF9A00" d="M119.3935547,167.7216797c-10.1445313,0-19.0439453-5.4287109-19.3994141-17.7978516
		h9.0766602c0.355957,6.7626953,5.0722656,9.6103516,10.3227539,9.6103516c5.8730469,0,10.3232422-3.8261719,10.3232422-10.5
		c0-6.4072266-3.4707031-10.4121094-10.590332-10.4121094h-1.5126953v-7.9199219h1.5126953
		c6.5854492,0,9.6108398-3.8271484,9.6108398-9.6103516c0-6.4077148-4.1826172-9.7895508-9.34375-9.7895508
		c-5.5175781,0-9.0771484,3.4707031-9.5219727,9.0771484h-9.0766602
		c0.5336914-10.7680664,8.4541016-17.2641602,18.5986328-17.2641602c10.7675781,0,18.4208984,7.2080078,18.4208984,17.7089844
		c0,6.7636719-3.0253906,11.1230469-7.9199219,13.5263672c5.4277344,2.4033203,8.8984375,7.1191406,8.8984375,14.9501953
		C138.7929688,161.4921875,129.9833984,167.7216797,119.3935547,167.7216797z"/>

</g>
</svg>
