<?xml version="1.0" encoding="utf-8"?>
<!DOCTYPE svg PUBLIC "-//W3C//DTD SVG 1.1//EN" "http://www.w3.org/Graphics/SVG/1.1/DTD/svg11.dtd">
<svg version="1.1" id="iStraus" xmlns="http://www.w3.org/2000/svg" xmlns:xlink="http://www.w3.org/1999/xlink" x="0px" y="0px" width="100%" height="100%" viewBox="0 0 48 48" preserveAspectRatio="xMidYMid meet">
<path fill="#2B2B2B" d="M35.5126953,15.4824219c-0.2041016-0.4536133-0.3789063-0.796875-0.8339844-1.409668
	c-0.4541016-0.612793-1.9375-1.9462891-2.3037109-3.1665039c-0.1875-0.625-0.46875-1.71875-0.1357422-2.7524414
	c0.2695313-0.8369141,0.7402344-1.7172852,1.4912109-2.0610352c-0.0644531-0.1206055-0.1337891-0.0576172-0.1796875-0.0668945
	c-0.0478516-0.0087891-0.3056641,0.0585938-0.3974609,0.1225586c-0.0742188-0.0273438-0.0703125-0.3754883,0.0146484-0.597168
	c-0.2304688,0-0.5205078,0.0766602-0.5351563,0.0766602L32.265625,5.6889648c0,0-0.0263672-0.1464844,0.4277344-0.4438477
	c0.4550781-0.296875,0.4697266-0.2080078,0.6738281-0.2905273c0.2041016-0.0844727,0.3085938-0.1982422,0.1962891-0.2993164
	c-0.1113281-0.1020508-0.2041016-0.2236328-0.3144531-0.2509766c-0.1123047-0.0268555-0.2509766,0.0180664-0.4746094-0.0561523
	c-0.2207031-0.0737305-0.7412109-0.3886719-1.1777344-0.2963867c-0.4355469,0.09375-0.890625,0.4638672-1.1132813,0.5014648
	c-0.2226563,0.0371094-0.3242188,0.0649414-0.3242188,0.0649414s0.0820313,0.0639648,0.1484375,0.0639648
	c0.0644531,0-0.2607422,0.1391602-0.3251953,0.2421875c-0.0644531,0.1015625-0.0644531,0.1660156-0.0644531,0.1660156
	l0.203125-0.0463867c0,0-0.1181641,0.0556641-0.2871094,0.2597656c-0.1669922,0.2055664-0.2119141,0.2509766-0.2119141,0.2509766
	s0.0556641,0.0932617,0.1376953,0.0458984c0.0810547-0.0458984-0.0742188,0.2045898-0.1582031,0.2324219
	c-0.0830078,0.0273438-0.0634766,0.0649414-0.0634766,0.0649414s0.1113281,0.0283203,0.2216797-0.0375977
	c-0.1103516,0.121582-0.1103516,0.3251953-0.0927734,0.5107422c0.0185547,0.1860352,0.0107422,0.2504883,0.0107422,0.2504883
	s0.0185547-0.1484375,0.1386719-0.2597656C29.7988281,6.621582,29.75,6.7431641,29.8886719,7.0292969
	c0.0742188-0.2124023,0.0673828-0.2587891,0.0673828-0.2587891s0.0166016,0.3525391,0.0371094,0.5556641
	C30.0126953,7.5307617,29.84375,9.28125,29.953125,9.9746094C30.0585938,10.6416016,30.0205078,11.168457,31.125,13.125
	c1.1181641,1.9814453,1.4160156,2.1328125,1.6044922,2.5068359c0,0,0.25,0.0102539,0.3623047,0.3442383
	c0.0634766-0.269043,0.1376953-0.340332,0.2773438-0.3422852c0.2011719-0.0048828,0.1777344,0.6162109,0.2929688,0.8149414
	c0.046875-0.2119141-0.0068359-0.7363281,0.3085938-0.7827148s0.4941406,0.0668945,0.6240234,0.3613281
	c-0.0175781-0.2285156,0.0439453-0.4213867,0.1923828-0.4594727c0.1503906-0.0366211,0.3945313,0.019043,0.5917969,0.2636719
	C35.3789063,15.8149414,35.3466797,15.6196289,35.5126953,15.4824219z M31.4863281,5.0024414
	c0-0.2319336,0.1894531-0.421875,0.421875-0.421875s0.421875,0.1899414,0.421875,0.421875
	c0,0.2338867-0.1894531,0.4223633-0.421875,0.4223633S31.4863281,5.2363281,31.4863281,5.0024414z"/>
<path fill="#2B2B2B" d="M31.984375,4.7226563l-0.1162109,0.2841797l-0.0849609-0.2685547
	c-0.0859375,0.043457-0.1455078,0.1308594-0.1455078,0.2348633c0,0.1464844,0.1191406,0.2661133,0.265625,0.2661133
	c0.1474609,0,0.265625-0.1196289,0.265625-0.2661133C32.1689453,4.8554688,32.0917969,4.7568359,31.984375,4.7226563z"/>
<path fill="#2B2B2B" d="M32.6171875,5.4746094c0,0,0.4345703-0.3183594,0.6738281-0.3515625
	C33.5361328,5.0888672,33.5,5.0161133,33.5820313,4.9790039c0.0839844-0.0366211,0.1035156-0.2226563,0.1953125-0.1669922
	c0.09375,0.0561523,0.3232422,0.1303711,0.59375,0.1303711c0.2675781,0,0.8535156-0.1210938,1.0966797,0.2226563
	c0.0830078,0.1015625,0.1474609,0.2324219,0.0898438,0.3061523c-0.0556641,0.074707-0.0830078,0.112793-0.1855469,0.1293945
	c-0.0996094,0.019043-1.0839844-0.0546875-1.5400391,0.4453125c-0.0439453-0.1660156,0.0107422-0.1660156-0.109375-0.1943359
	c-0.1201172-0.0273438-0.3808594,0.0463867-0.4648438,0.0932617c0.0273438-0.2133789,0.0654297-0.2602539,0.0751953-0.3339844
	c0-0.0849609,0.0302734-0.0854492,0.0302734-0.0854492s0.8476563-0.105957,1.0214844-0.105957
	c0.1748047,0,0.7871094-0.0200195,0.890625,0.0292969C35.046875,5.3085938,34.5732422,5.34375,34.1152344,5.3510742
	C33.6552734,5.3579102,33.2597656,5.3066406,32.6171875,5.4746094z"/>
<path fill="#2B2B2B" d="M32.9228516,16.1435547c0,0,0.6279297,0.121582,0.9042969,1.0898438
	c0.1835938-0.1679688,0.1533203-0.7514648,0.4130859-0.8125c0.2617188-0.0600586,0.4921875,0.1123047,0.5537109,0.2607422
	c0.0615234,0.1469727,0.1230469-0.3525391,0.3066406-0.4140625c0.2333984-0.0600586,0.453125,0.2851563,0.453125,0.2851563
	s0.0244141-0.3286133,0.1152344-0.6069336c0.1201172,0.5048828,0.7363281,1.6767578,0.3525391,3.6977539
	c-0.3837891,2.0205078-0.6005859,2.1245117-0.6005859,2.324707c-0.0693359-0.0610352-0.1201172-0.453125-0.1650391-0.5395508
	c0,0,0.0693359,0.6269531,0.0166016,0.8623047c0,0-0.0947266-0.3061523-0.1738281-0.3754883
	c0.0615234,0.253418,0.0175781,0.340332,0.0117188,0.784668c-0.0117188,0.4438477-0.1162109,0.6171875-0.0634766,0.7392578
	c0,0-0.1650391-0.2954102-0.1552734-0.5043945c-0.0185547,0.5917969-0.0449219,0.6513672-0.0966797,0.7485352
	c0,0-0.0273438-0.1567383-0.0888672-0.2089844c-0.0605469,0.1386719-0.0400391,0.3911133-0.2265625,0.6699219
	c-0.1992188,0.296875-0.234375,0.296875-0.234375,0.296875s0.0175781-0.2270508-0.0341797-0.3833008
	c-0.0517578-0.1577148-0.0517578-0.1577148-0.0517578-0.1577148s0.0253906,0.5229492-0.2265625,0.8193359
	c0.0078125-0.3657227-0.1669922-0.453125-0.1669922-0.453125s0.0888672,0.2875977-0.0605469,0.5488281
	c0,0-0.0761719-0.1137695-0.1025391-0.184082c-0.0273438-0.0688477-0.0449219-0.137207-0.0449219-0.137207
	s0.0703125,0.3291016,0.0253906,0.5126953c-0.0410156,0.1826172-0.1904297,0.4189453-0.1904297,0.4189453
	s0.1298828-0.453125-0.0087891-0.5493164c-0.1132813,0.418457-0.2695313,0.5571289-0.4179688,0.6958008
	c-0.171875,0.1484375-0.2333984,0.1826172-0.2333984,0.1826172s-0.0703125-0.3476563-0.0097656-0.5566406
	c-0.1660156,0.4091797-0.2880859,0.6279297-0.3310547,0.6972656c0,0,0.0175781-0.2705078-0.0439453-0.4189453
	c0,0-0.0273438,0.5058594-0.2353516,0.7236328c0,0,0.0712891-0.2441406-0.0869141-0.3134766
	c-0.0087891,0.2353516-0.1816406,0.5302734-0.4707031,0.7050781c0.0546875-0.2089844,0.0693359-0.3232422,0-0.3564453
	c0,0-0.2695313,0.3662109-0.5488281,0.6503906C31.0419922,26.609375,30.8486328,26.3125,30.8486328,26.3125
	s0.0625,0.3310547-0.2421875,0.5820313c-0.3046875,0.2548828-1.2714844,0.8017578-1.8720703,1.0195313
	c-0.6015625,0.2167969-1.5585938,0.4980469-1.6884766,0.6542969c-0.1298828,0.1552734-0.2177734,0.1552734-0.2177734,0.1552734
	s0.0166016-0.1318359,0.0166016-0.2099609c0-0.0761719-0.0771484,0.078125-0.2949219,0.0371094
	c-0.21875-0.0419922-1.0361328-0.4960938-0.7666016-1.2109375c0.2695313-0.7128906,0.9140625-1.0107422,1.1220703-1.2880859
	c-0.1806641-0.0253906-0.4599609,0.2255859-0.8173828,0.3652344c-0.3564453,0.140625-1.8574219,0.8476563-1.5961914,0.5664063
	c0.7963867-0.8583984,0.4291992-1.1660156,1.1430664-1.90625c0.0478516-0.0507813-0.6171875,0.5654297-1.3149414,0.8613281
	c-0.6958008,0.296875-2.0966797,0.3095703-1.5751953,0.125c0.5273438-0.1865234-0.0620117-1.8701172,1.0449219-1.7182617
	c0.0517578-0.3823242-0.0444336-0.5742188,0.1743164-0.8100586c0.2167969-0.2348633,0.2954102-0.453125,0.2954102-0.453125
	s-0.3383789-0.0078125-0.4697266,0.375c-0.1313477,0.3823242-0.3662109,0.652832-0.940918,0.9584961
	c-0.574707,0.3041992-0.9223633,0.3217773-1.0795898,0.5825195c-0.1567383,0.2607422-0.1386719,0.3046875-0.1386719,0.3046875
	s-1.2207031-0.7060547-0.5063477-2.0634766c0.7138672-1.3588867,0.7060547-1.6801758,1.1240234-2.090332
	c0.4169922-0.4091797,0.6098633-0.3911133,0.6098633-0.3911133s-0.4882813-0.0698242-0.6791992-0.1660156
	c-0.1914063-0.0952148-0.7490234-0.0693359-1.1323242,0.1396484s-1.1660156,1.097168-0.6796875,1.4458008
	C20.8032227,22.5,21.003418,22.2631836,21.090332,22.168457c0.0869141-0.0957031-0.0439453,0.2871094-0.2099609,0.4008789
	c-0.1640625,0.1123047-0.434082,0.0351563-0.6088867,0.0253906c-0.1738281-0.0087891-0.9482422,0.5576172-1.0625,1.1762695
	c-0.1123047,0.6176758-0.0512695,1.0185547,0.1318359,1.1137695c0.1821289,0.0957031,0.7832031-0.0083008,1.1225586-0.409668
	c-0.3833008,0.5668945-1.2099609,1.1411133-1.3583984,1.3764648c-0.1479492,0.2353516-0.2001953,0.2167969-0.2172852,0.1826172
	c-0.0175781-0.0332031,0.0244141-0.0517578,0.0424805-0.1318359c0.0175781-0.0761719-0.2172852,0.1757813-0.2431641,0.2792969
	c-0.0263672,0.1044922-0.2001953-0.1748047-0.1386719-0.4521484c0.0600586-0.2783203,0.0258789-0.2617188,0.0258789-0.2617188
	s-0.199707,0.3310547-0.2094727,0.453125c-0.0078125,0.1220703,0.0097656,0.21875,0.0097656,0.21875
	s-0.2441406-0.0527344-0.331543-0.1835938c-0.0878906-0.1298828-0.2094727-0.3398438-0.1748047-0.4882813
	c0.0356445-0.1474609-0.034668-0.2353516-0.034668-0.2353516S17.7299805,25.3798828,17.625,25.4072266
	c-0.1044922,0.0263672-0.375-0.0341797-0.375-0.0341797s-0.190918-0.3486328,0.034668-0.496582
	c0.2260742-0.1474609,0.340332-0.1660156,0.340332-0.1660156s-0.1391602-0.1479492-0.3237305,0.0268555
	c-0.1811523,0.1738281-0.3725586,0.1738281-0.3725586,0.1738281s-0.0883789-0.2519531,0.0771484-0.4003906
	s0.4711914-0.3139648,0.4711914-0.3139648s-0.0615234-0.0869141-0.3222656,0.0795898
	c-0.2612305,0.1650391-0.6352539,0.2260742-0.7402344,0.0424805c-0.1044922-0.1826172-0.355957-0.355957-0.1137695-0.6523438
	c0,0-0.6699219-0.0097656-1.0869141-0.0268555c-0.418457-0.0170898-0.4804688-0.3916016-0.3657227-0.7661133
	C14.9604492,22.5,15.230957,22.3608398,15.421875,22.0024414c0.1918945-0.3564453,0.3139648-0.6787109,0.4619141-0.722168
	s0.1821289-0.1040039,0.190918-0.2695313c0.0087891-0.1650391-0.1728516-0.3388672-0.3486328-0.2348633
	c-0.1743164,0.1040039-0.3139648,0.3061523-0.3393555,0.2871094c-0.0341797-0.0268555-0.3657227-0.487793,0.2270508-0.9760742
	c0.5917969-0.4863281,0.7568359-0.565918,1.1923828-0.4609375c0.434082,0.1044922,0.8276367,0.4707031,0.8276367,0.4707031
	s-0.3051758-0.340332-0.4448242-0.6616211c-0.1396484-0.3227539-0.2084961-0.7241211-0.3305664-0.7402344
	c-0.1220703-0.0180664,0.3476563-0.4091797,0.8623047-0.0439453c0.5141602,0.3652344,0.5141602,0.3652344,0.5141602,0.3652344
	s-0.3837891-0.3037109-0.2280273-0.9570313c0.1582031-0.652832,0.3144531-0.6264648,0.3842773-0.7304688
	c0.0683594-0.1049805-0.340332,0.7739258,0.0078125,1.1220703c-0.0517578-0.5571289-0.0341797-0.6264648,0.0605469-0.7568359
	c0.0966797-0.1313477,0.3061523-0.2358398,0.3061523-0.2358398s-0.4267578,0.5136719-0.2094727,0.9487305
	c0.0966797-0.3139648,0.1479492-0.3383789,0.2001953-0.3569336c-0.0522461,0.1572266-0.1650391,0.4794922-0.0522461,0.5571289
	c0.0439453-0.2695313,0.0341797-0.3569336,0.1411133-0.4257813c0.1025391-0.0693359,0.2080078-0.0883789,0.2080078-0.112793
	c0-0.0273438-0.3051758,0.5209961-0.1123047,0.6518555c0.190918,0.1303711,0.3476563,0.0532227,0.3212891-0.0859375
	c0.190918,0.1303711,0.6254883,0.2783203,0.8276367,0.1816406c0.199707-0.0957031,2.2890625-1.5751953,5.2402344-1.6796875
	c2.9511719-0.1054688,3.8486328,0.7133789,5.2412109,0.7573242c1.3945313,0.0424805,1.8105469-0.2788086,2.0634766-0.7055664
	c0.2519531-0.4267578,0.2958984-0.6879883,0.2607422-1.0444336"/>
<path fill="#2B2B2B" d="M19.074707,25.7294922c0,0,0.0644531,0.3007813-0.2094727,0.5234375
	c-0.2739258,0.2207031-0.6923828,0.8085938-0.5473633,1.359375c0.1416016,0.5458984,0.2475586,0.7949219,0.4819336,0.7949219
	c0.2353516,0,0.3139648-0.1064453,0.4047852-0.2607422c-0.1425781,0.4306641-0.5229492,1.2412109,0.3271484,1.7099609
	c0.7832031-0.4316406,0.7963867-0.3798828,1.0449219-0.5888672c0.2470703-0.2080078,0.2470703-0.2080078,0.2470703-0.2080078
	s-0.3642578,0.3652344,0.0268555,0.6679688c0.2602539,0.1933594,0.1303711,0.1933594,0.1303711,0.1933594
	s-0.0776367,0.0146484,0.3920898-0.15625c0.4697266-0.1699219,0.5869141-0.2880859,0.6264648-0.4414063
	c0.184082,0.2207031,0.2612305,0.2050781,0.2612305,0.2050781s0.0532227-0.2460938,0.3798828-0.3632813
	c0.3251953-0.1181641,0.4306641-0.2099609,0.4697266-0.2871094c0.0385742-0.0791016-0.0390625,0.4824219,0.2612305,0.8222656
	c0.2993164,0.3398438,0.3261719,0.3017578,0.3520508,0.390625c0.0263672,0.0917969,0.0786133,0.0136719,0.1972656-0.1171875
	c0.1176758-0.1308594,0.3383789-0.0263672,0.5600586-0.6132813c0.1181641-0.2880859,0.4443359-0.328125,0.7055664-0.5371094
	c0.2607422-0.2060547,0.5615234-0.3115234,0.6923828-0.5869141c0.1298828-0.2734375,0.1826172-0.3398438,0.1826172-0.3398438
	s-0.6923828,0.7060547-0.9414063,0.8105469C24.8725586,28.8125,24.402832,28.890625,24.2592773,29.046875
	c-0.144043,0.15625-0.3652344,0.2617188-0.5483398,0.1425781c-0.1835938-0.1171875-0.3916016-0.5986328-0.3916016-0.7304688
	c0-0.1308594-0.9018555,0.4052734-0.9941406,0.4960938c-0.090332,0.0917969-0.5214844,0.1445313-0.5727539,0.1044922
	c-0.0537109-0.0400391-0.3144531,0.2226563-0.4316406,0.1953125c-0.1171875-0.0253906-0.2207031-0.4023438-0.2358398-0.5478516
	c-0.0131836-0.1425781-0.5869141,0.0253906-1.0439453,0.2880859c-0.456543,0.2597656-0.534668-0.1171875-0.5615234-0.4179688
	c-0.0263672-0.2998047-0.0532227-0.6669922-0.0532227-0.7460938c0-0.0761719-0.2993164,0.2099609-0.4301758-0.0234375
	c-0.1308594-0.2373047-0.2480469-0.7460938-0.0136719-1.2158203C19.2182617,26.1220703,19.2304688,25.9912109,19.074707,25.7294922z
	"/>
<path fill="#2B2B2B" d="M16.5405273,24.2412109c0,0,0.1049805,0.1821289,0.0136719,0.4570313
	c-0.0922852,0.2744141-0.4707031,0.5341797-0.5092773,0.6259766c-0.0395508,0.0927734,0.0644531,0.1972656-0.0131836,0.3652344
	c-0.0786133,0.1708984-0.222168,0.3408203-0.222168,0.4707031c0,0.1318359,0.0131836,0.4492188-0.1572266,0.5625
	c-0.1557617,0.1044922-0.1557617,0.1044922-0.1557617,0.1044922s0.0126953-0.3535156-0.6933594-0.4042969
	c-0.7050781-0.0537109-0.9135742-0.9414063-0.5878906-1.28125c0.3276367-0.3388672,0.3276367-0.3388672,0.3276367-0.3388672
	s-0.6391602-0.2612305-0.8745117-0.2871094c0.1835938-0.0922852,0.0898438-0.2880859,0.1557617-0.496582
	c0.0654297-0.2094727,0.2617188-0.3793945,0.4570313-0.6411133c0.1958008-0.2602539,0.0493164-0.3081055-0.0458984-0.3496094
	c-0.1123047-0.0498047-0.3066406,0.3374023-0.6079102,0.5981445c-0.2998047,0.2617188-0.2207031,0.3525391-0.4951172,0.4316406
	c-0.2744141,0.078125-0.3520508-0.1577148-0.3007813-0.2485352c0.0532227-0.0922852,0.0532227-0.0922852,0.0532227-0.0922852
	s-0.1708984-0.0639648-0.2480469-0.3393555c-0.0795898-0.2734375-0.1323242-0.534668,0.1435547-0.9003906
	c0.2734375-0.3652344,0.3520508-0.4448242,0.3520508-0.4448242s-0.1572266-0.0507813-0.2353516-0.2211914
	c-0.0791016-0.1694336-0.0908203-0.6791992,0.0522461-0.8354492c0.1445313-0.1572266,0.1445313-0.1572266,0.1445313-0.1572266
	s-0.1313477,0.0395508-0.0791016-0.1171875c0.0527344-0.1567383,0.0913086-0.2490234,0.1958008-0.2871094
	c0.1054688-0.0390625-0.0126953-0.1181641-0.0126953-0.1967773c0-0.0776367-0.2226563,0.2485352-0.4321289,0.3139648
	c-0.2084961,0.0654297-0.5473633,0.1044922-0.6264648-0.0791016c-0.0776367-0.1816406-0.0908203-0.4301758-0.0908203-0.4301758
	s-0.2749023-0.4311523-0.1699219-0.796875c0.1040039-0.3657227,0.1831055-0.4824219,0.1831055-0.4824219
	s-0.1445313,0-0.1049805-0.2089844c0.0390625-0.2094727,0.1049805-0.2236328,0.078125-0.3666992
	c-0.0258789-0.1430664-0.0908203-0.2998047-0.0522461-0.4306641c0.0400391-0.1298828,0.0917969-0.0917969,0.2485352-0.2749023
	c0.15625-0.1826172,0.0756836-0.2207031,0.0654297-0.5620117c-0.0131836-0.4301758,0.0776367-0.6381836,0.3525391-0.7963867
	c0.2739258-0.1557617,0.4570313-0.1298828,0.5224609-0.1176758c-0.0126953-0.1689453,0.1044922-0.3398438,0.1044922-0.3398438
	s0.0131836,0.3017578,0.1035156,0.3139648c0.0922852,0.0136719,0.0922852,0.0136719,0.0922852,0.0136719
	s-0.0922852-0.2089844-0.0131836-0.2875977c0.0786133-0.078125,0.0913086,0.144043,0.2094727,0.2094727
	c0.1186523,0.0644531,0.0390625-0.0400391,0.1186523-0.0522461c0.0761719-0.0131836,0.2211914,0.1958008,0.2587891,0.2875977
	C14.0859375,16.2216797,14.125,16.3134766,14.125,16.3134766s0.2993164-0.784668,1.03125-0.7973633
	c0.7314453-0.0126953,0.9931641,0.065918,1.2143555,0.2358398c0.222168,0.1704102,0.2353516,0.2338867,0.2353516,0.2338867
	s0.2480469-0.0522461,0.4970703-0.012207c0.2475586,0.0395508,0.4692383,0.1572266,0.534668,0.2348633
	c0.1054688-0.0517578,0.0922852-0.1694336,0.3134766,0.2353516c0.2216797,0.4047852,0.3261719,0.5483398,0.2993164,0.7441406
	c-0.0253906,0.1958008-0.0507813,0.4438477-0.0507813,0.4438477l-0.0522461,0.2226563c0,0,0.0385742-0.6137695-0.1567383-0.9018555
	c-0.1958008-0.2871094-0.4570313-0.6132813-0.7441406-0.6787109c-0.2880859-0.0654297-0.6923828-0.0263672-0.8095703,0.0263672
	c-0.1323242-0.2871094-0.7441406-0.2314453-0.7441406-0.2314453s-1.2504883,0.1884766-1.5644531,0.9199219
	c-0.3510742-0.3798828-0.7197266-0.5371094-1.0424805-0.4599609c-0.2045898,0.0483398-0.3330078,0.5507813-0.3979492,0.8120117
	c-0.065918,0.2612305-0.3217773,0.4296875-0.3984375,0.659668c-0.0634766,0.1875-0.0307617,0.4594727,0.2294922,0.6289063
	c0.1318359,0.0839844-0.3789063,0.4125977-0.4291992,0.6274414c-0.0507813,0.2163086,0.0297852,0.8530273,0.2910156,0.9042969
	c0.2612305,0.0527344,0.7358398-0.1987305,0.9208984-0.2446289c0.2290039,0.3369141-0.1181641,1.1206055,0.0913086,1.3027344
	c0.2084961,0.1826172,0.6279297,0.2133789,0.8222656-0.034668c0.1967773-0.2480469,0.065918,0.6269531-0.3125,0.7700195
	c-0.3789063,0.144043-0.5864258,0.2617188-0.7539063,0.4916992c-0.0874023,0.1176758-0.2895508,0.8144531,0.0356445,0.9453125
	C13.5,23.519043,13.7104492,22.7749023,14.0517578,22.7060547c0.3066406-0.0610352,0.3994141-0.5517578,0.3994141-0.5517578
	s0.40625,0.9931641,0.1069336,1.4106445c-0.2998047,0.418457-0.5908203,0.5449219-0.4599609,0.6884766
	c0.1308594,0.144043,0.5493164,0.3393555,0.7319336,0.2348633c0.1826172-0.1035156-0.0786133,0.2490234-0.2353516,0.5742188
	c-0.1567383,0.3271484-0.1728516,0.6748047,0.1015625,0.7246094c0.2744141,0.0537109,0.4848633,0.1308594,0.6743164,0.015625
	c0.1992188-0.1230469,0.1376953-0.796875,0.4907227-0.965332C16.2275391,24.6616211,16.5024414,24.5927734,16.5405273,24.2412109z"
	/>
<path fill="#2B2B2B" d="M21.2661133,30.0205078l0.7851563-0.2929688l0.1967773,0.1289063l0.1962891-0.2880859
	c0,0,0.4042969-0.2080078,0.4819336-0.1435547c0.0786133,0.0673828,0.2368164,0.2890625,0.2368164,0.5771484
	c-0.2368164,0.4550781-0.7841797,1.4355469-0.7709961,1.6171875c0.0117188,0.1835938-0.0527344,0.4716797-0.1181641,0.5869141
	c-0.0654297,0.1191406-0.2475586,0.3535156-0.2475586,0.3535156s-0.0917969,0.5224609-0.2480469,0.7451172
	c-0.1572266,0.2216797-0.8232422,2.2851563-1.0454102,3.4726563C20.512207,37.9658203,20.3798828,40.0029297,20.4731445,40.5
	c0.0893555,0.4960938,0.0112305,0.7587891,0.2075195,0.875c0.1958008,0.1191406,0.1430664,0.1835938,0.3129883,0.1435547
	c0.1699219-0.0380859,0.4311523-0.1816406,0.5620117-0.1171875c0.1313477,0.0664063,0.3657227,0.0126953,0.5097656,0.1826172
	c0.1430664,0.1699219,0.1430664,0.1699219,0.1430664,0.1699219s0.4838867,0.0400391,0.6274414,0.1298828
	c0.1435547,0.0917969,0.1435547,0.0917969,0.1435547,0.0917969s-0.2744141,0.1435547-0.234375,0.3007813
	c0.0385742,0.1572266-0.0141602,0.5097656,0.1557617,0.5214844c-0.1171875,0.1445313-0.2475586,0.4072266-0.4702148,0.4326172
	c-0.222168,0.0273438-0.9790039-0.1191406-1.2143555-0.1308594c-0.2353516-0.0126953-0.9921875-0.1435547-1.0976563-0.2353516
	c-0.1040039-0.0917969-0.1689453-0.1962891-0.1689453-0.1962891s-0.1298828-0.1054688-0.1826172-0.1552734
	c-0.2231445,0.0380859-0.4047852,0-0.4697266-0.1318359c-0.0668945-0.1318359,0.0258789-0.4677734,0.0258789-0.4677734
	s-0.0795898-0.2255859-0.1708984-0.3154297c-0.090332-0.0908203-0.4833984-0.2880859-0.3129883-1.0585938
	c0.1699219-0.7705078,0.7573242-2.8613281,0.9155273-3.4355469c0.1557617-0.5732422,0.4560547-2.4296875,0.534668-2.8847656
	c0.0771484-0.4570313,0.1430664-0.5097656,0.1030273-0.5888672c-0.0395508-0.078125-0.0776367-0.2207031-0.090332-0.4550781
	c-0.0126953-0.2363281,0.0395508-0.5507813,0.0507813-0.7060547c0.0136719-0.1572266-0.1958008-0.5341797-0.0668945-0.8964844
	C20.5688477,30.7734375,21.3056641,30.8164063,21.2661133,30.0205078z"/>
<path fill="#2B2B2B" d="M23.0317383,42.7607422c0,0-0.1430664-0.2617188-0.0395508-0.4443359
	c0.1049805-0.1835938,0.2617188-0.2353516,0.2617188-0.2353516s0.8222656,0.4970703,0.5087891,0.9003906
	c-0.1821289,0.1699219-0.3520508-0.0771484-0.4433594-0.1171875S23.0317383,42.7607422,23.0317383,42.7607422z"/>
<path fill="#2B2B2B" d="M24.5600586,29.7773438c0,0,0-0.3378906,0.2211914-0.4951172
	c0.2226563-0.1552734,1.1367188-0.6289063,1.1367188-0.6289063s0.1308594,0.0537109,0.3007813,0.1191406
	c0.1689453,0.0644531,0.4052734,0.1054688,0.4052734,0.1054688l0.0390625,0.2089844c0,0,0.2353516-0.1054688,0.3662109-0.1962891
	c0.1298828-0.0917969,0.1162109-0.0380859,0.1162109-0.0380859s-0.9414063,1.4619141-0.953125,2.1132813
	c-0.0136719,0.6396484-0.0654297,0.9667969-0.0908203,1.1630859c-0.0263672,0.1962891-0.1572266,1.1240234,0.1826172,3.0302734
	c0.3398438,1.9072266,0.8613281,4.53125,1.4882813,5.4316406c0.3925781,0.5488281,0.7041016,0.6152344,0.8623047,0.8105469
	c0.1572266,0.1962891,0.3916016,0.6015625,0.8867188,0.6542969c0.4980469,0.0507813,1.125-0.0136719,1.4775391,0.0634766
	c0.3525391,0.0791016,0.5849609,0.1298828,0.5849609,0.1298828s-0.4296875,0.2363281-0.2988281,0.5234375
	C31.4169922,43.0595703,31.5615234,43.125,31.5615234,43.125L31.9375,43.2832031c0,0,0.0654297,0.2207031-0.2060547,0.2724609
	c-0.2763672,0.0507813-1.8183594-0.0917969-2.0126953-0.15625c-0.1972656-0.0654297-0.3134766-0.0908203-0.3134766-0.0908203
	s0.3378906,0.1835938,0.2470703,0.3662109c-0.0908203,0.1816406-0.3134766,0.2724609-0.5488281,0.2861328
	c-0.2333984,0.0136719-0.6640625-0.0244141-0.8222656-0.1152344c-0.15625-0.0917969-0.4433594-0.1191406-0.5341797-0.2392578
	c-0.0917969-0.1142578-0.2480469-0.4814453-0.2626953-0.6757813c-0.0117188-0.1972656-0.5859375-0.1972656-0.6269531-0.4716797
	c-0.0380859-0.2734375,0.0791016-0.3642578,0-0.5224609c-0.0761719-0.1572266-0.2597656-0.2490234-0.2998047-0.4423828
	c-0.0390625-0.1962891,0.0136719-0.8242188-0.078125-1.1767578C26.3876953,39.9638672,25.734375,37.1572266,25.5,36.3740234
	c-0.2353516-0.7841797-0.6396484-2.2851563-0.8359375-2.5878906c-0.1962891-0.2998047-0.3007813-0.7431641-0.3916016-0.9140625
	c-0.0917969-0.1689453-0.5097656-0.7167969-0.4575195-1.0175781c0.0532227-0.3007813,0.3925781-0.6542969,0.4838867-1.0039063
	C24.3901367,30.4970703,24.5600586,29.9208984,24.5600586,29.7773438z"/>
<path fill="#2B2B2B" d="M31.7314453,42.2763672c0,0,0.4814453,0.0664063,0.6376953,0.2363281
	c0.1572266,0.1708984,0.3916016,0.5986328,0.3652344,0.8613281c-0.0253906,0.2617188-0.0654297,0.2490234-0.1289063,0.2490234
	c-0.0654297,0-0.2363281-0.2890625-0.5625-0.4179688c-0.3271484-0.1328125-0.5878906-0.2626953-0.5878906-0.3935547
	C31.4550781,42.6835938,31.4814453,42.4082031,31.7314453,42.2763672z"/>
</svg>