<?xml version="1.0" encoding="utf-8"?>
<!DOCTYPE svg PUBLIC "-//W3C//DTD SVG 1.1//EN" "http://www.w3.org/Graphics/SVG/1.1/DTD/svg11.dtd">
<svg version="1.1" id="iSuhofruktyi" xmlns="http://www.w3.org/2000/svg" xmlns:xlink="http://www.w3.org/1999/xlink" x="0px" y="0px" width="100%" height="100%" viewBox="0 0 48 48" preserveAspectRatio="xMidYMid meet">
<path fill="#2B2B2B" d="M11.4438477,25.359375c3.0834961,1.0654297,3.4555664,0.3203125,4.0405273,0.3730469
	c0.5854492,0.0537109,6.6621094,0.0722656,8.4633789-0.4638672c0.7006836-0.2080078,1.9467773-1.0556641,3.3989258-2.0410156
	c1.0849609-0.7333984,1.4658203-2.5317383,2.296875-3.8662109c0.46875-0.7524414,1.7832031-1.2548828,2.0380859-2.2524414
	c1.1728516-4.5727539,0.7109375-6.6894531,0.3925781-7.4335938c-0.3193359-0.7441406-1.0117188,1.4360352-1.0634766,2.0205078
	c-0.0537109,0.5849609-1.2226563,2.8178711-1.5957031,2.9775391c-0.3720703,0.159668-1.7021484,1.3833008-1.8603516,1.7553711
	c-0.1591797,0.3710938-0.4619141,1.3491211-1.0039063,1.8276367c-0.4121094,0.3642578-2.027832,0.7231445-2.293457,0.7231445
	c-0.2646484,0-1.7006836,0.5859375-1.8071289,1.0644531c-0.1064453,0.4775391-3.7753906,1.7539063-3.8813477,1.222168
	c-0.105957-0.5307617-2.1801758-0.5307617-2.3398438-0.5307617c-0.1591797,0-2.2988281,0.484375-3.828125,0
	c-0.8950195-0.284668-3.6977539-2.4477539-3.6977539-2.4477539s-2.0444336-2.1787109-1.7255859-4.1455078
	c0.0307617-0.1899414-1.0634766,3.1899414-0.5317383,5.4233398S8.3608398,24.296875,11.4438477,25.359375z"/>
<path fill="#2B2B2B" d="M8.8300781,17.0449219c0,0,1.1264648,1.4448242,1.6577148,1.8168945
	c0.5317383,0.3720703,2.3901367,0.5737305,2.3901367,0.5737305s0.5498047,0.6391602,2.2949219,0.828125
	c1.25,0.1362305,2.3266602-0.0634766,2.3266602-0.0634766s2.3056641-0.2075195,2.7089844-0.5419922
	c0.4379883-0.3632813,0.7016602-1.1791992,1.1787109-1.3388672c0.4794922-0.1591797,1.5625-1.7207031,1.9453125-1.0195313
	c0.2895508,0.5317383-1.0419922,1.3085938-1.0419922,1.3085938s1.3823242,0.2124023,2.0200195-0.5322266
	c0.6386719-0.7441406,1.6201172-0.7290039,2.3056641-1.4135742c0.7490234-0.7495117,0.2851563-2.2631836,0.8916016-2.5175781
	c0.5966797-0.2509766,1.9013672-0.5947266,1.8486328-1.3388672c-0.0537109-0.7446289-1.1640625-0.2060547-1.3779297-0.3129883
	c-0.2119141-0.1064453-0.8378906-0.7548828,1.1220703-0.7075195c0.8134766,0.0200195,1.9130859-0.1269531,1.4355469-1.3066406
	c-0.5537109-1.3657227,1.0839844-1.3486328,0.2861328-1.8803711c-0.7978516-0.53125-1.8857422-0.8374023-1.8857422-0.8374023
	s-4.3071289-1.5415039-8.6655273-1.3823242C15.909668,6.5385742,11.550293,7.9208984,10.168457,9.4628906
	c-1.3833008,1.5419922-2.5,2.074707-2.7119141,3.6157227c0,0,0.2119141,0.9570313,0.4243164,1.8071289
	C8.0942383,15.7368164,8.8300781,17.0449219,8.8300781,17.0449219z M18.5517578,13.2519531
	c2.5458984-0.1225586,6.7890625-1.9443359,6.7890625-1.9443359s-2.2314453,2.8691406-6.4707031,3.4736328
	c-4.1054688,0.5874023-7.9042969-2.2939453-7.9042969-2.2939453S15.90625,13.3793945,18.5517578,13.2519531z"/>
<path fill="#2B2B2B" d="M28.9902344,33.0166016c0,0-1.2773438-0.3720703-1.6494141,1.0634766
	c-0.3730469,1.4345703-1.1162109,2.234375-1.4345703,2.2861328c-0.3193359,0.0517578-2.3398438,0.1591797-2.3398438,0.4804688
	c0,0.3164063,0.53125,0.7949219-0.2128906,1.2744141c-0.7441406,0.4775391-4.3598633,0.9580078-4.5185547,0.7441406
	c-0.1601563-0.2119141-2.3935547-1.4345703-2.3935547-1.4345703s-0.5317383,0.265625-1.487793,0.796875
	c-0.9580078,0.5302734-4.253418,0.3193359-4.3071289-0.265625s-1.0634766-1.2753906-1.9145508-1.1699219
	c-0.8510742,0.1074219-1.3295898,0.1601563-1.7011719-0.1064453c-0.3720703-0.2675781-1.1166992-1.5947266-1.2231445-1.9140625
	s-1.7543945-1.5410156-1.7543945-1.328125c0,0.2119141-0.1601563,0.1591797,0,0.5830078
	c0.1601563,0.4257813,1.5419922,1.3300781,0.7973633,1.7548828c-0.7441406,0.4257813-1.2231445,0.2138672-1.6484375-0.5839844
	s-0.7441406-1.0634766-0.7441406-1.59375c0-0.5332031-0.265625-1.0654297-0.1064453-1.4375
	c0.1601563-0.3720703,0-0.8505859-0.7446289-1.3828125c-0.7436523-0.53125-0.4775391-0.2119141-0.690918,0
	c-0.2119141,0.2128906-0.265625-1.5429688-0.7978516-1.5429688c0,0-0.53125,0.9580078,0.1606445,2.6601563
	c0.6904297,1.703125,0,2.6591797,0.9560547,3.6689453c0.9575195,1.0097656,4.0942383,6.0087891,11.112793,6.0615234
	s13.4521484-1.1708984,15.5253906-4.7314453C29.9462891,33.3359375,28.9902344,33.0166016,28.9902344,33.0166016z"/>
<path fill="#2B2B2B" d="M2.6713867,29.3476563c0.1054688,1.1708984-0.1069336,2.4462891,0.265625,2.7119141
	c0.3720703,0.2666016,0.1586914,0.4257813,0.3183594-0.5839844c0.1601563-1.0097656,1.0634766-0.0517578,1.3828125,0.5322266
	c0.3183594,0.5839844,0.2651367,0.8496094,0.8505859,1.3808594c0.5844727,0.53125,0.53125,0.4267578,1.2226563,0.8515625
	c0.6918945,0.4248047,0.9570313,1.1689453,0.9570313,1.1689453s1.5415039,0.5332031,2.3930664,0.7460938
	c0.8500977,0.2109375,1.8076172,0.9550781,1.8076172,1.3818359c0,0.4248047,1.3823242,0.5839844,1.7543945,0
	c0.3720703-0.5849609,1.6484375-1.5947266,2.7119141-1.3300781c1.0629883,0.2666016,1.1166992,0.9042969,1.8076172,1.2763672
	c0.6918945,0.3720703,1.9140625,0.2128906,1.1699219-0.3720703C18.5688477,36.5253906,19.046875,34.3994141,19.7910156,35.25
	c0.7446289,0.8515625,1.0117188,1.8095703,1.4897461,1.3818359c0.4785156-0.4248047,0.1049805,0.3203125,0.3178711-1.1171875
	c0.2138672-1.4345703,1.0107422-1.2744141,1.6489258-0.7431641c0.6386719,0.5302734,0.9033203,1.0097656,1.7016602,0.6376953
	c0.7978516-0.3720703,1.1699219-0.0527344,1.0634766-1.0634766c-0.1064453-1.0097656-0.3730469-1.2226563,0.53125-1.4873047
	c0.9033203-0.2666016,0.9580078-0.5859375,1.1171875-0.7988281c0.1582031-0.2119141,0.4785156-0.6376953-0.0546875-1.2246094
	c-0.5322266-0.5830078-2.8178711-2.7089844-3.9868164-3.2939453c-1.1694336-0.5849609-3.5092773-1.5966797-4.2001953-1.3828125
	s-3.2441406,0-4.3598633,0.2666016c-1.1162109,0.2636719-3.7739258-0.1142578-4.730957-0.8066406
	c-0.9575195-0.6914063-1.3837891-0.6826172-1.3837891-0.6826172s-6.3803711,0.53125-7.7099609,3.1904297
	C1.1635742,28.2685547,2.5644531,28.1787109,2.6713867,29.3476563z M13.7705078,30.1123047
	c2.4541016,0,6.5888672-0.6503906,7.1713867-0.8291016c-0.8505859,0.6376953-4.2675781,3.0390625-7.4580078,2.7734375
	s-5.6416016-4.2392578-5.6416016-4.2392578C8.6401367,28.6142578,11.5390625,30.1123047,13.7705078,30.1123047z"/>
<path fill="#2B2B2B" d="M47.8642578,27.5410156c-0.265625-1.4365234-1.0634766-1.4365234-0.8505859-1.4365234
	c0.2138672,0,0.0537109-2.7119141-0.9033203-4.890625c-0.9580078-2.1806641-6.2744141-4.0952148-8.453125-4.6259766
	c-2.1806641-0.53125-4.3076172,0.7441406-6.9648438,2.6049805c-2.6601563,1.8608398-3.8828125,7.815918-3.8828125,7.815918
	c0.2128906,2.0751953,1.3828125,4.4667969,5.2646484,7.5507813c3.8798828,3.0849609,12.3857422-0.1601563,13.8769531-0.9560547
	C47.4394531,32.8056641,48.1328125,28.9765625,47.8642578,27.5410156z M45.1005859,25.359375
	c-0.6923828,0.2128906-1.7207031,0.3554688-2.0214844,0.9580078c-0.1953125,0.3935547-0.7841797,3.3486328-0.7841797,3.3486328
	s-0.1259766-1.6894531-0.921875-2.6142578c-0.2001953-0.2304688-1.8183594-0.6679688-1.8183594-0.6679688
	s-1.65625,0.7011719-2.2177734,0.9443359c-0.5517578,0.2392578-3.5605469,1.0097656-2.9775391,0.1054688
	c0.5859375-0.9023438,1.3818359-0.6894531,1.5947266-1.4892578c0.2138672-0.7949219-1.5419922-2.0185547-1.9111328-1.3818359
	c-0.3730469,0.6386719-0.7998047,0.7998047-1.3857422,1.5419922c-0.5830078,0.7441406-1.5947266,0.2675781-1.4882813-0.6904297
	c0,0,0.5859375-3.5087891,3.6171875-4.9985352c3.0302734-1.4882813,5.5283203-1.4882813,6.5917969-0.8500977
	c1.0634766,0.6376953,3.6708984,2.8696289,3.5634766,3.7744141c-0.1083984,0.9042969,0.3701172,0.3203125,0.8515625,0.796875
	c0.4765625,0.4794922,0.6357422,1.2773438,0.6357422,1.2773438S45.7929688,25.1494141,45.1005859,25.359375z"/>
<path fill="#2B2B2B" d="M35.8261719,22.8447266c0,0,1.9121094-2.1020508,2.7412109-2.293457
	c0.828125-0.1914063,2.2939453,0.1914063,1.8486328,0.637207c-0.4462891,0.4458008-0.4462891,1.3388672-0.0634766,1.3388672
	c0.3808594,0,1.5302734,0,1.9121094,0.5097656c0.3828125,0.5097656,0.2548828,1.4023438-0.3818359,1.3388672
	c-0.6386719-0.0644531-1.1494141,0.0634766-0.6386719,0.6376953c0.5117188,0.5722656,0.5742188,1.2744141-0.7001953,0.4453125
	c-1.2744141-0.828125-2.4228516-1.3369141-2.8691406-0.8916016c-0.4462891,0.4462891-1.59375,0.0634766-1.4658203-0.5751953
	C36.3369141,23.3564453,35.6992188,23.7392578,35.8261719,22.8447266z"/>
</svg>
