<?xml version="1.0" encoding="utf-8"?>
<!DOCTYPE svg PUBLIC "-//W3C//DTD SVG 1.1//EN" "http://www.w3.org/Graphics/SVG/1.1/DTD/svg11.dtd">
<svg version="1.1" id="iSvejaya" xmlns="http://www.w3.org/2000/svg" xmlns:xlink="http://www.w3.org/1999/xlink" x="0px" y="0px" width="100%" height="100%" viewBox="0 0 48 48" preserveAspectRatio="xMidYMid meet">
<path fill="#2B2B2B" d="M37.5507813,18.4018555c-0.2294922-0.0766602-1.09375-0.4038086-2.0791016-0.3891602
	c-2.6572266,0.0385742-5.7470703,0.5825195-6.9033203,0.5825195c-1.1425781,0-1.6074219,0.0419922-2.3466797-0.1538086
	c-0.8076172-0.2143555-1.7470703-0.890625-1.3681641,0.0820313c0.3242188,0.8325195,2.3896484,2.4555664,7.1787109,3.0712891
	c0.2246094,0.0283203,0.5078125-0.3476563,0.7353516-0.5322266c0.2636719-0.2143555,0.8574219-0.2143555,1.2441406-0.3432617
	c0.3105469-0.1030273,0.6220703-0.6225586,0.8867188-0.7441406c0.2001953-0.0922852,0.4404297-0.1113281,0.6738281-0.1513672
	c0.2558594-0.0449219,0.4970703-0.0751953,0.6425781-0.1757813c0.0722656-0.0517578,0.1542969-0.109375,0.2412109-0.175293
	c0.2773438-0.215332,0.6230469-0.4785156,0.9765625-0.5800781c0.2138672-0.0605469,0.234375-0.2299805,0.2353516-0.2807617
	C37.6708984,18.5112305,37.6220703,18.425293,37.5507813,18.4018555z"/>
<path fill="#2B2B2B" d="M35.0166016,25.546875c-0.1005859,0-0.2412109,0.2480469-0.3066406,0.46875
	c-0.0390625,0.0859375-0.6259766,1.609375-1.1835938,2.1972656c-0.7119141,0.7509766-1.6464844,1.3886719-2.984375,3.0371094
	c-1.1943359,1.4707031-1.0527344,1.6738281-0.9580078,1.6875c0.1455078,0.0214844,1.2236328-1.1230469,1.9902344-1.3144531
	c0.7089844-0.1757813,2.1074219-1.0800781,2.6054688-1.578125c0.25-0.25,1.1113281-1.1777344,1.3291016-2.6289063
	C35.6875,26.2304688,35.2041016,25.5878906,35.0166016,25.546875z"/>
<path fill="#2B2B2B" d="M13.8334961,14.6669922c0.4389648,0.4692383,0.1445313,0.7197266,0.6459961,1.1875
	c0.3125,0.2915039,0.7338867,0.1816406,1.2080078-0.2084961c0.5639648-0.4628906,1.2006836-0.5786133,1.2709961-0.8134766
	c0.125-0.4165039-0.0556641-1.0063477-0.9165039-1.3125c-1.7148438-0.6098633-3.2509766-1.8544922-4.4355469-2.5024414
	C9.4418945,9.8359375,7.6733398,8.6967773,5.902832,8.3984375C6.5332031,8.7456055,7.8920898,9.5625,9.9633789,11.1479492
	C11.4086914,12.2558594,12.8774414,13.6450195,13.8334961,14.6669922z"/>
<path fill="#2B2B2B" d="M39.484375,23.9814453c0.1962891,0,0.4853516,0.1777344,0.9248047,0.4467773
	c0.1005859,0.0610352,0.2080078,0.1269531,0.3212891,0.1943359c0.3886719,0.2348633,1.4072266,0.7104492,2.3916016,1.1723633
	c0.9667969,0.453125,2.3515625,1.1992188,2.4726563,1.3125C46.8896484,21.7841797,45.2490234,14.9418945,40,11
	c-8.3515625-6.2719727-22.7578125-4-24-4c-1.2416992,0-2.1923828-1.0615234-3-1
	c-0.8066406,0.0625-2.15625,1.1552734-3.3979492,1.3417969C8.359375,7.5283203,6.6831055,7.5908203,5.7514648,7.7768555
	C4.8203125,7.9628906,2.1811523,7.3417969,2.1811523,7.3417969c-3.3779297,0.4702148-0.7661133,4.253418,0.2265625,4.9990234
	c0.6831055,0.5112305-0.9711914-0.4067383-1.8242188-0.6152344c-0.9208984-0.2260742-0.4179688,0.4736328-0.4179688,1.0551758
	C0.1655273,13.8808594,2.5444336,15.7666016,4,16c1.8041992,0.2885742,3.9047852,3.5639648,5.6435547,3.6259766
	c1.737793,0.0625,5.4511719-0.112793,6.8486328,0.1040039c1.3969727,0.2172852,6.3969727,1.1181641,8.4780273,1.6147461
	c2.0805664,0.4970703,7.6069336,1.8325195,8.4760742,2.2041016c0.8701172,0.3730469,0.9638672,1.0566406,0.9638672,1.0566406
	s-1.1494141,0.7753906-2.0498047,1.6464844c-0.9003906,0.8671875-1.9248047,2.3574219-3.1054688,3.4140625
	c-1.1796875,1.0566406-2.5449219,0.7753906-4.3149414,0.7148438c-3.9746094,2.9199219,0.2172852,6.2089844,0.2172852,6.2089844
	s1.2128906-0.4042969,2.9179688-0.7753906c0.7509766-0.1640625,1.6816406,0.3027344,3.1416016,0.5429688
	c1.4335938-0.9550781,2.4365234-1.7753906,2.6445313-2.0039063c0.1015625-0.1132813,0.2177734-0.2871094,0.3300781-0.4550781
	c0.265625-0.3984375,0.4267578-0.6230469,0.6162109-0.6230469c0.0722656,0,0.1367188,0.0351563,0.1835938,0.0976563
	c0.4169922,0.5742188,0.3457031,1.4199219-0.2128906,2.5136719c-0.0791016,0.1542969-0.1728516,0.3125-0.2685547,0.4707031
	c1.5019531-0.2285156,3.3310547-0.78125,5.6132813-1.9414063c1.6884766-0.8574219,3.0029297-2.1679688,3.9726563-3.7324219
	c-0.0205078-0.0039063-0.0458984-0.0078125-0.0605469-0.0097656l-0.0625-0.0039063
	c-0.3876953-0.03125-1.5654297-0.1171875-2.7080078-1.9824219c-1.0673828-1.7421875-2.109375-3.8330078-2.0371094-4.4619141
	C39.2470703,24.0722656,39.3417969,23.9814453,39.484375,23.9814453z M13,7c0.6352539,0,2,1.3569336,2,2
	c0,0.6425781-1.3647461,1-2,1c-0.6342773,0-2-0.3574219-2-1C11,8.3569336,12.3657227,7,13,7z M5.3032227,8.2304688
	C5.2827148,8.0043945,5.8168945,8.1455078,6.4013672,8.2084961c0.6005859,0.0644531,2.8666992,1.3012695,5.2651367,2.6113281
	c1.1835938,0.6455078,3.7797852,2.2836914,4.3129883,2.4921875c0.965332,0.3779297,1.4262695,0.9404297,1.3955078,1.4375
	c-0.0415039,0.6665039-0.5688477,0.6245117-1.2290039,1.1665039c-0.5297852,0.4355469-1.3046875,0.75-1.75,0.75
	c-0.824707,0-0.5161133-1.2163086-1-1.7290039c-1.2021484-1.2744141-2.2104492-2.4370117-3.659668-3.546875
	C6.8666992,9.1918945,5.3237305,8.4555664,5.3032227,8.2304688z M12.7910156,16.6806641c0,0-4.996582-2.9550781-9.0419922-4.0541992
	c-0.7866211-0.2138672-2.8354492-2.8144531-2.550293-3.9492188c0.0922852-0.3681641,0.402832-0.3452148,0.402832-0.3452148
	S1.7841797,8.6582031,1.9375,8.5722656c0.1538086-0.0864258,0.1918945-0.3745117,0.1918945-0.3745117
	s0.2880859,0.0283203,0.546875,0.0673828c0.25,0.1625977,0.0195313,0.3740234,0.2783203,0.4506836
	C3.2143555,8.7924805,3.0791016,8.3891602,3.28125,8.4370117c0.2011719,0.0488281,0.8730469,0.4418945,0.8730469,0.4418945
	S3.9819336,9.2724609,4.2402344,9.4160156c0.2602539,0.1445313,0.3076172-0.2397461,0.3076172-0.2397461
	s0.7875977,0.3173828,0.777832,0.3647461C5.315918,9.5893555,5.0751953,9.8579102,5.3354492,10.0117188
	C5.59375,10.1655273,5.7861328,9.9433594,5.8339844,9.8769531c0.2109375,0.1347656,0.527832,0.402832,0.527832,0.402832
	s-0.1723633,0.3745117,0.0097656,0.5180664c0.1821289,0.144043,0.5087891-0.1337891,0.5087891-0.1049805
	c0.152832,0.1049805,0.3833008,0.2490234,0.3833008,0.2490234s-0.3740234,0.2978516-0.1152344,0.4897461
	c0.2592773,0.1918945,0.527832-0.1342773,0.527832-0.1342773l0.5,0.3740234c0,0-0.2216797,0.3076172-0.0483398,0.4702148
	c0.1728516,0.1630859,0.4702148-0.1147461,0.4702148-0.1147461l0.7387695,0.5463867c0,0-0.2880859,0.1254883-0.0380859,0.3745117
	c0.2490234,0.2504883,0.4414063,0.0390625,0.4414063,0.0390625c0.3740234,0.3071289,1.9765625,1.890625,1.9765625,1.890625
	s-0.1630859,0.2299805-0.0092773,0.3837891c0.1533203,0.1533203,0.277832-0.0668945,0.277832-0.0668945
	s0.0766602,0.0283203,0.1928711,0.1342773C13.0224609,16.1152344,12.7910156,16.6806641,12.7910156,16.6806641z M23.2211914,15.6875
	c-0.1318359,0.3134766,0.0053711,0.6972656-0.7583008,1.2368164c-0.5610352,0.3955078-0.9106445,0.097168-1.2695313,0.3295898
	c-0.2802734,0.1816406-0.2866211,0.6274414-0.8706055,0.8642578c-0.4321289,0.1748047-1.6357422,0.059082-2.1796875,0.190918
	c-0.5263672,0.1279297-1.1123047,0.4707031-2.3110352,0.4707031c-0.6567383,0-2.3398438-0.5371094-2.3398438-0.5371094
	c2.7270508,0.5751953,3.934082-0.2519531,4.5683594-0.378418c0.7416992-0.1484375,1.5131836,0.1508789,2.1103516-0.0830078
	c0.5097656-0.1987305,0.6264648-0.5112305,0.8740234-0.6591797c0.4047852-0.2426758,0.8408203-0.2143555,1.2529297-0.5112305
	C23,16.1044922,22.7104492,15.9677734,22.9248047,15.5224609c0.2143555-0.5107422,0.8393555-0.5205078,1.0878906-1.0878906
	c0.230957-0.5273438-0.1816406-0.6430664-0.1318359-1.0385742C23.9301758,13,24.3984375,12.9853516,24.4575195,12.3569336
	c0.0444336-0.4985352-1.1538086-1.1704102-1.3681641-1.6816406C22.875,10.1645508,23.4926758,9.0786133,21.4731445,8.3671875
	c-0.8754883-0.3085938-2.1313477-0.4492188-2.2709961-0.3710938c0.0234375-0.0131836,0.2104492,0.8164063,0.1772461,1.6738281
	c-0.0327148,0.9892578,2.4238281,1.1704102,1.4677734,3.3632813c-0.4506836,1.0327148-1.2333984,1.1113281-1.550293,1.3515625
	c-0.1464844,0.1118164-0.2373047,0.699707-0.7089844,1.1542969c-0.4775391,0.4619141-1.2939453,0.6806641-1.2939453,0.6806641
	s0.921875-0.6118164,1.1293945-0.8779297c0.2304688-0.2973633,0.4663086-1.065918,0.6264648-1.1875
	c0.3125-0.2373047,0.793457-0.2055664,1.2177734-1.1757813c0.4931641-1.1279297-0.0561523-1.8706055-0.5908203-2.3193359
	c-0.5117188-0.4287109-0.7875977-0.4921875-0.8574219-0.8574219c-0.0830078-0.4287109,0.4614258-1.1708984-0.1982422-1.7973633
	c-0.4902344-0.465332-1.7524414-0.1811523-1.8349609-0.1811523c-0.1879883,0-0.3876953-0.0698242-0.6191406-0.1508789
	c-0.2363281-0.0825195-0.5039063-0.1762695-0.8276367-0.2231445c-0.5083008-0.0722656-0.8251953,0.09375-0.8251953,0.09375
	c0.003418-0.0185547,0.0942383-0.4658203,0.8623047-0.3540039c0.3496094,0.0493164,0.6425781,0.1518555,0.8774414,0.2338867
	c0.2094727,0.0737305,0.3935547,0.1679688,0.5322266,0.137207c1.7192383-0.3803711,2.2592773,0.2241211,2.2592773,0.2241211
	c0.1694336-0.1298828,1.5058594-0.1479492,2.5107422,0.1708984c2.3691406,0.7504883,1.7973633,2.1923828,2.0117188,2.5385742
	c0.2143555,0.3466797,1.4125977,1.2636719,1.3515625,1.9291992c-0.0527344,0.578125-0.527832,0.7089844-0.5600586,1.0717773
	c-0.0336914,0.362793,0.4111328,0.4125977,0.1508789,1.0283203C24.2851563,15.0556641,23.4023438,15.324707,23.2211914,15.6875z
	 M35.6484375,27.5195313c-0.2304688,1.53125-0.8203125,2.5761719-1.0839844,2.8417969
	c-0.5166016,0.515625-2.0449219,1.4902344-2.8193359,1.6816406c-0.7050781,0.1777344-1.9238281,1.3671875-2.3857422,1.2597656
	c-0.65625-0.1523438,1.1455078-2.734375,3.4746094-5.0351563c0.4990234-0.4921875,1.6914063-2.953125,2.1083984-2.953125
	C35.3613281,25.3144531,35.8417969,26.2285156,35.6484375,27.5195313z M37.5488281,19.3974609
	c-0.2548828,0.1879883-0.4423828,0.5551758-0.8730469,0.8076172c-0.4785156,0.2802734-0.6435547,0.0986328-1.1386719,0.2802734
	c-0.2099609,0.0776367-0.3408203,0.28125-0.9560547,0.659668c-0.6425781,0.3959961-0.8076172,0.1484375-1.2861328,0.5112305
	c-0.3623047,0.2744141-0.2304688,0.5107422-0.9716797,0.4946289c-1.0664063-0.0239258-8.277832-1.4838867-7.8051758-4.2456055
	c0.0395508-0.2290039,0.5991211-0.0268555,1.0991211,0.1513672c0.2460938,0.0878906,0.4990234,0.1782227,0.6962891,0.2172852
	C26.5576172,18.3227539,27.328125,18.375,28.4472656,18.375c1.1494141,0,3.4775391-0.2573242,6.1171875-0.6425781
	c0.2607422-0.0380859,3.9648438-0.3540039,3.8417969,0.8076172C38.3408203,19.1665039,37.8623047,19.1665039,37.5488281,19.3974609z
	"/>
<circle fill="#2B2B2B" cx="13" cy="8.3945313" r="1"/>
<path fill="#2B2B2B" d="M39.4619141,24.409668c0.1152344-0.6264648,0.6728516,0.0380859,1.4335938,0.4941406
	c0.7646484,0.4594727,3.6259766,1.9282227,4.2050781,2.2915039C45.6787109,27.5625,48,29.6972656,48,30.0625S47.4599609,31,47,31
	c-0.4550781,0-2.5673828-0.7558594-2.8720703-0.7871094c-0.3056641-0.0292969-1.3642578-0.0546875-2.5224609-1.9453125
	C40.4453125,26.3789063,39.3671875,24.9233398,39.4619141,24.409668z"/>
<path fill="#2B2B2B" d="M20.7973633,20.7988281c0,0,0.5195313,3.0527344,1.2026367,4.2011719
	c0.6826172,1.1484375,1.4780273,2.2851563,3,3c1,0,1-0.6269531,1-1c0-0.3710938-0.3916016-0.4316406-0.3300781-0.8984375
	C25.7324219,25.6367188,26.0625,25.4033203,26,25c-0.0615234-0.4052734-1.0869141-0.4433594-1-1
	c0.0917969-0.6049805,0.484375-1.0341797,0.484375-1.0341797l-1.8344727-1.6723633
	C21.9848633,21.1782227,20.7973633,20.7988281,20.7973633,20.7988281z"/>
<path fill="#2B2B2B" d="M34.8115234,33.6542969c-0.1826172-0.2519531-0.6142578,0.6660156-0.9443359,1.0332031
	c-0.3320313,0.3671875-2.3964844,1.8613281-5.2050781,3.3710938c-0.9072266,0.4921875-1.6054688,1.34375-1.7363281,1.53125
	C26.7939453,39.7792969,27.0214844,40.1269531,27.3515625,40c0.3310547-0.125,0.7919922-0.0722656,1.0878906-0.0820313
	c0.2958984-0.0078125,0.671875-0.3183594,1.0126953-0.3886719c0.3388672-0.0722656,0.6875,0.15625,0.9492188,0.140625
	c0.2636719-0.0136719,0.5605469-0.3847656,0.8330078-0.4667969c0.2714844-0.0800781,0.3808594,0.1484375,0.6357422,0.0429688
	C32.1523438,39.1289063,36.0673828,35.3828125,34.8115234,33.6542969z"/>
<path fill="#2B2B2B" d="M23.0288086,33.3242188c0.0180664-1.0292969,0.637207-2.2675781,1.7368164-3.0996094
	c-0.1977539-0.0957031-4.3500977-2.1464844-5.9570313-2.6015625c-1.6455078-0.4648438-4.5029297-1.0859375-4.5332031-0.3417969
	c-0.03125,0.7460938,0.4038086,0.9003906,0.5595703,1.2421875c0.1542969,0.3417969,0.2788086,1.4902344,1.2714844,2.0800781
	c0.3422852,0.9316406,0.3110352,1.0234375,0.5595703,1.3046875C16.9150391,32.1875,17.1318359,32.25,17.1318359,32.25
	s-0.3095703,0.2167969-0.1855469,0.6835938c0.1235352,0.4628906,0.434082,0.8066406,0.434082,0.8066406
	s-0.2792969,0.5878906-0.4038086,0.9609375c-0.1240234,0.375-0.0615234,0.6835938-0.0615234,0.6835938
	s-0.5595703,0-0.7148438,0.4667969c-0.1547852,0.4648438,0,0.8066406,0,0.8066406s-0.4658203,0.15625-0.6206055,0.6210938
	c-0.1552734,0.4648438,0,0.9316406,0,0.9316406s-0.5087891,0.0820313-0.5527344,0.7402344
	c-0.1816406,2.7011719,0.6767578,2.7050781,0.6767578,2.7050781s-0.0932617-2.296875,3.5395508-3.0117188
	c3.6323242-0.7128906,5.6166992-1.9550781,5.6552734-1.9785156C24.456543,36.2832031,23.0014648,35.0078125,23.0288086,33.3242188z
	 M15.894043,28.5546875c-0.0673828,0.0078125-0.2900391-0.1152344-0.1518555-0.1328125
	c2.6269531-0.3554688,5.3046875,0.9707031,7.1669922,2.7109375c0.1010742,0.09375-0.1518555,0.0546875-0.2001953,0.0078125
	C20.9296875,29.4785156,18.402832,28.2148438,15.894043,28.5546875z M16.5395508,30.4335938
	c-0.1796875,0.0214844-0.0581055-0.0996094,0.0527344-0.1113281c2.0664063-0.2304688,4.2539063,0.3535156,5.9443359,1.5371094
	c0.0473633,0.0351563-0.1806641,0.1171875-0.246582,0.0703125C20.6538086,30.7832031,18.5405273,30.2109375,16.5395508,30.4335938z
	 M21.8730469,32.8222656c-1.4311523-0.6894531-2.7817383-0.7382813-4.3266602-0.71875
	c-0.1806641,0.0019531-0.0493164-0.1074219,0.0615234-0.1074219c1.6079102-0.0195313,3.0039063,0.0390625,4.4882813,0.7539063
	C22.1791992,32.7890625,21.9355469,32.8515625,21.8730469,32.8222656z M22.0546875,34.0605469
	c-1.284668,0.4121094-2.8588867,0.5566406-4.1035156-0.09375c-0.1508789-0.0800781,0.0820313-0.0898438,0.1523438-0.0546875
	c1.1308594,0.5917969,2.5874023,0.4082031,3.7451172,0.0371094C21.9155273,33.9277344,22.1455078,34.0332031,22.0546875,34.0605469z
	 M17.5317383,35.4335938c1.597168,0.4277344,3.2441406,0.0273438,4.7397461-0.5800781
	c0.0644531-0.0253906,0.3037109,0.0507813,0.2172852,0.0839844c-1.6040039,0.6542969-3.3330078,1.0449219-5.0419922,0.5878906
	C17.2729492,35.4785156,17.4213867,35.4042969,17.5317383,35.4335938z M16.6728516,36.7421875
	c2.0043945,0.03125,4.144043-0.3007813,5.9301758-1.2324219c0.0615234-0.0332031,0.3027344,0.0449219,0.2143555,0.0917969
	c-1.8369141,0.9589844-4.0356445,1.2851563-6.0947266,1.2539063C16.6088867,36.8535156,16.4931641,36.7402344,16.6728516,36.7421875
	z M23.2675781,36.0136719c-2.1323242,1.2910156-4.6503906,2.0742188-7.137207,2.2871094
	c-0.1552734,0.0136719-0.1630859-0.0898438-0.0078125-0.1035156c2.425293-0.2109375,4.875-0.984375,6.9536133-2.2421875
	C23.1337891,35.9179688,23.387207,35.9414063,23.2675781,36.0136719z"/>
</svg>