<?xml version="1.0" encoding="utf-8"?>
<!DOCTYPE svg PUBLIC "-//W3C//DTD SVG 1.1//EN" "http://www.w3.org/Graphics/SVG/1.1/DTD/svg11.dtd">
<svg version="1.1" id="iSvejemorojenaya-ryiba" xmlns="http://www.w3.org/2000/svg" xmlns:xlink="http://www.w3.org/1999/xlink" x="0px" y="0px" width="100%" height="100%" viewBox="0 0 48 48" preserveAspectRatio="xMidYMid meet">
<path fill="#2B2B2B" d="M1.5947266,14.3828125L1.15625,16.0600586l2.8505859,0.7841797l-2.6953125,1.4858398l0.4277344,0.7543945
	l2.6318359-1.6030273L3.625,20.331543l1.6865234,0.4575195l0.9443359-4.6225586L9,14.4345703v3.5302734l-2.9775391,3.465332
	l1.4013672,1.2207031l2.1982422-2.1118164l0.3046875,1.1582031C10.1855469,21.5317383,10,21.3657227,11,21.2011719v-0.6621094
	l0.1298828,0.4077148c0.0996094-0.0654297,0.0634766-0.1308594,0.1630859-0.1967773
	c0.4111328-0.2670898,0.5185547-0.5273438,0.9248047-0.7880859L10,17.9648438v-3.5302734l3.3017578,1.7060547l0.8671875,2.644043
	c0.5195313-0.3046875,1.1083984-0.5976563,1.6591797-0.8803711l-0.0917969-0.4467773l0.4804688,0.28125
	c0.2802734-0.1381836,0.5732422-0.2753906,0.8652344-0.40625l-0.9404297-0.5288086l2.8515625-0.7670898l-0.4560547-1.6811523
	l-4.6767578,1.1723633l-3.0273438-1.7563477l3.0712891-1.7841797l4.6337891,1.144043l0.4570313-1.6796875l-2.8496094-0.7817383
	l2.6806641-1.484375l-0.4169922-0.7568359l-2.6445313,1.6049805l0.7695313-2.8535156l-1.6806641-0.4545898l-1.5517578,4.6220703
	L10,13.0795898v-3.527832l3.5644531-3.4394531L12.4228516,4.862793l-2.0273438,2.1733398L10.5048828,4H9.65625l0.0527344,3.0361328
	L7.6005859,4.8945313L6.0224609,6.128418L9,9.5517578v3.527832l-2.71875-1.7319336L5.1337891,6.7255859L3.5380859,7.1801758
	l0.8154297,2.8535156L1.7431641,8.4287109L1.3232422,9.1855469l2.7011719,1.484375l-2.8486328,0.7817383l0.4189453,1.6796875
	l4.6787109-1.144043l3.0585938,1.7568359L6.2753906,15.527832L1.5947266,14.3828125z"/>
<path fill="#2B2B2B" d="M48.0175781,27.3535156c-1.5849609,5.5351563-11.4638672,10.8847656-18.4296875,12.4804688
	c-6.2001953,1.4199219-17.2851563-0.3564453-17.5087891-0.4628906c-0.2216797-0.1054688-0.8037109-0.5576172-0.8603516,0.6259766
	c0,0-0.0849609,2.6181641,0.1074219,2.8115234c0.1933594,0.1943359,3.6523438,0.2412109,8.0791016,0.7734375
	c10.2783203,1.3066406,13.3427734,0.21875,18.4072266-1.7646484c5.0605469-1.9863281,9.3046875-7.3486328,9.7919922-8.2724609
	C48.0957031,32.6210938,47.9052734,29.5234375,48.0175781,27.3535156z"/>
<path fill="#2B2B2B" d="M-0.0175781,27.4990234l0.1884766,3.8681641c0,0,2.15625,2.5175781,3.4394531,2.3955078
	c1.2773438-0.1201172,11.6777344-3.3232422,14.0283203-4.0253906c0.8466797-0.2558594,2.1767578-0.8349609,3.0712891-0.5683594
	c0.1865234,0.0546875,0.9189453-1.0917969,0.7275391-2.0820313c-0.0927734-0.4667969-1.1171875-0.7441406-2.2998047-0.8447266
	c-2.1884766-0.1884766-5.5996094,1.3886719-10.5322266,3.2392578c-1.5048828,0.5634766-4.5117188,1.28125-4.8740234,1.0869141
	C3.3691406,30.3779297,0.7304688,29.1191406-0.0175781,27.4990234z"/>
<path fill="#2B2B2B" d="M19.71875,30.1074219c-0.6787109,0.2705078-1.7070313,0.6005859-2.9248047,0.9472656
	c0.734375,0.9433594,1.546875,1.8496094,2.4433594,2.6972656c3.2783203,3.0927734,7.1582031,5.0556641,10.9091797,5.5957031
	c0.7363281-0.1953125,1.4970703-0.4228516,2.2802734-0.6972656c-3.4599609-0.7392578-6.9658203-2.6230469-9.9707031-5.4589844
	C21.4277344,32.2197266,20.5195313,31.1806641,19.71875,30.1074219z"/>
<path fill="#2B2B2B" d="M16.5224609,31.1328125c-0.7099609,0.2011719-1.4667969,0.4023438-2.2441406,0.6015625
	c0.78125,1.0283203,1.6513672,2.0175781,2.625,2.9345703c2.8291016,2.6708984,6.1054688,4.4980469,9.3623047,5.3007813
	c1.1689453-0.0839844,2.2763672-0.2275391,3.2626953-0.4599609c-3.6210938-0.6601563-7.3203125-2.59375-10.4677734-5.5634766
	C18.125,33.0634766,17.2822266,32.1181641,16.5224609,31.1328125z"/>
<path fill="#2B2B2B" d="M9.5566406,28.9287109c0.7480469-0.2646484,1.4912109-0.5410156,2.1865234-0.8076172
	c-0.6513672-1.3623047-2.6748047-4.4492188-3.3291016-5.1855469C7.8076172,23.3286133,6.375,23.9931641,5.7285156,24.3833008
	C7.1582031,25.7382813,8.6455078,26.9384766,9.5566406,28.9287109z"/>
<path fill="#2B2B2B" d="M1.25,27.4638672c0.015625,0.0322266-0.1103516-0.0527344-0.5185547-0.6240234
	c-1.5839844,0.4951172,0.9716797,2.3779297,3.1474609,3.3857422C3.4404297,29.2158203,1.234375,27.4794922,1.25,27.4638672z"/>
<path fill="#2B2B2B" d="M6.5302734,29.8798828c0.8769531-0.2314453,1.8349609-0.5361328,2.7978516-0.8701172
	c-0.8955078-1.9658203-2.5068359-2.9785156-3.8408203-4.4804688c-0.8876953,0.5302734-1.2949219,0.5107422-2.3251953,1.0097656
	C3.2080078,26.0429688,5.9658203,28.6962891,6.5302734,29.8798828z"/>
<path fill="#2B2B2B" d="M14.3251953,27.1083984c0.4326172-0.1728516,0.7822266-0.3095703,0.9912109-0.3837891
	c0.5957031-0.2119141,1.3154297-0.3984375,2.0546875-0.53125c-1.21875-2.6445313-1.7724609-5.34375-1.59375-7.7949219
	c-1.1230469,0.5537109-2.1591797,1.1630859-3.1757813,1.7998047c0.0078125,0.8974609,0.0957031,1.8256836,0.2978516,2.7895508
	C13.1904297,24.3759766,13.6767578,25.7597656,14.3251953,27.1083984z"/>
<path fill="#2B2B2B" d="M11.3154297,32.3964844C10.1220703,32.625,9.0908203,32.7861328,8.3535156,32.9228516
	c0.8095703,1.109375,1.7402344,2.1728516,2.796875,3.1503906c1.5791016,1.4658203,3.3134766,2.6376953,5.0996094,3.5107422
	c1.5185547,0.1757813,3.3261719,0.3417969,5.1953125,0.4199219c-2.5644531-0.8691406-5.0878906-2.3759766-7.3144531-4.4404297
	C13.0605469,34.5703125,12.1201172,33.5058594,11.3154297,32.3964844z"/>
<path fill="#2B2B2B" d="M2.9277344,25.6513672c-0.6074219,0.2890625-1.3671875,0.765625-2.0458984,1.0351563
	c0.0488281,0.4677734,2.8261719,2.5605469,3.2949219,3.6103516c0.5673828-0.0166016,1.2958984-0.1474609,2.1162109-0.3554688
	C5.7285156,28.7539063,2.9775391,26.1376953,2.9277344,25.6513672z"/>
<path fill="#2B2B2B" d="M14.0019531,31.8037109c-0.0605469,0.0166016-0.1220703,0.0332031-0.1845703,0.0498047
	c-0.7822266,0.1953125-1.5332031,0.3554688-2.2353516,0.4931641c0.7802734,1.0605469,1.6855469,2.0830078,2.7158203,3.0400391
	c2.4287109,2.2519531,5.2148438,3.8457031,8.0126953,4.6494141c1.0537109,0.0292969,2.1123047,0.0244141,3.1416016-0.0205078
	c-3.0488281-0.8984375-6.0830078-2.6552734-8.7265625-5.1484375C15.7119141,33.9111328,14.8085938,32.8789063,14.0019531,31.8037109
	z"/>
<path fill="#2B2B2B" d="M8.0908203,32.9755859c-0.2568359,0.0498047-0.4824219,0.0986328-0.6376953,0.1484375
	c-0.4443359,0.1386719-0.7392578,0.4375-0.9267578,0.7978516c0.6171875,0.8974609,2.3388672,3.1679688,5.0068359,4.9433594
	c0.3193359-0.0429688,0.6386719,0.1220703,0.6386719,0.1220703c0.1914063,0.0488281,1.4863281,0.2773438,3.3486328,0.5107422
	c-1.5869141-0.8476563-3.1220703-1.9355469-4.5371094-3.2460938C9.8876953,35.2363281,8.9228516,34.1308594,8.0908203,32.9755859z"
	/>
<path fill="#2B2B2B" d="M11.9892578,28.0273438c0.7910156-0.3056641,1.5078125-0.5917969,2.0908203-0.8232422
	c-0.6523438-1.3613281-1.1435547-2.7583008-1.4375-4.1586914c-0.1933594-0.9243164-0.2851563-1.8168945-0.3027344-2.6816406
	c-0.6845703,0.4350586-2.9814453,1.9584961-3.6738281,2.4091797C9.4277344,23.4916992,11.3408203,26.6796875,11.9892578,28.0273438z
	"/>
<path fill="#2B2B2B" d="M28.6328125,23.2958984c-0.4072266,0-0.8476563,0.0839844-1.2744141,0.2451172
	c-1.1621094,0.4375-1.9453125,1.3359375-1.7080078,1.9658203c0.2226563,0.5917969,1.4501953,0.7753906,2.5791016,0.3525391
	c0.5986328-0.2255859,1.1054688-0.5683594,1.4296875-0.9711914c0.2841797-0.3579102,0.3857422-0.7114258,0.2783203-0.9946289
	C29.8007813,23.5244141,29.3007813,23.2958984,28.6328125,23.2958984z"/>
<path fill="#2B2B2B" d="M41.3583984,17.2939453c-0.1884766,0-0.3925781,0.0415039-0.5898438,0.121582
	c-0.5400391,0.2172852-0.9023438,0.6630859-0.7929688,0.9755859c0.1035156,0.2944336,0.671875,0.3852539,1.1953125,0.1757813
	c0.2783203-0.1123047,0.5136719-0.2822266,0.6640625-0.4824219c0.1318359-0.1777344,0.1787109-0.3530273,0.1289063-0.4936523
	C41.9003906,17.4072266,41.6689453,17.2939453,41.3583984,17.2939453z"/>
<path fill="#2B2B2B" d="M6.3720703,34.3974609c-0.0576172,0.2167969-0.1015625,0.4326172-0.1015625,0.6474609
	c0,0.7255859,0.2910156,3.3867188,0.2910156,3.3867188s4.0400391,4.4501953,4.2089844,4.3037109
	c0.1679688-0.1435547,0.1035156-1.5322266,0.1201172-2.8535156c0.0224609-0.4794922,0.1611328-0.7304688,0.3320313-0.8710938
	c-0.828125-0.578125-1.6357422-1.2099609-2.4033203-1.9208984C7.9130859,36.2480469,7.1005859,35.3417969,6.3720703,34.3974609z"/>
<path fill="#2B2B2B" d="M35.3515625,21.4013672c4.0185547,4.5839844,5.4853516,10.0566406,2.6972656,12.6347656
	C37.1455078,34.8710938,35.9052734,35.3125,34.4609375,35.3125c-2.9970703,0-7.0234375-1.6611328-9.8144531-4.6816406
	c-2.0712891-2.2412109-3.4833984-4.8427734-3.9785156-7.3295898c-0.4980469-2.5073242-0.0048828-4.5986328,1.3916016-5.8881836
	c0.9023438-0.8354492,2.1435547-1.2768555,3.5878906-1.2768555c2.9560547,0,6.4892578,1.8291016,9.2626953,4.7749023
	c0.2333984-0.1235352,0.4667969-0.2475586,0.6875-0.3808594c0.1855469-0.1113281,0.3632813-0.2197266,0.5429688-0.3291016
	c-0.0996094-0.0898438-0.1933594-0.184082-0.2958984-0.2719727c-3.3212891-2.8823242-7.1699219-4.7016602-10.5205078-5.0317383
	c-2.2138672,0.5654297-4.2744141,1.2905273-6.0175781,1.9814453c-1.7304688,2.1611328-1.4755859,5.609375,0.3583984,9.1513672
	c0.9013672,0.0546875,1.6435547,0.2919922,1.9560547,0.8222656c0.2695313,0.4550781,0.2353516,1.2275391-0.2050781,1.9384766
	c0.9736328,1.2988281,2.1357422,2.5693359,3.4902344,3.7451172c3.2373047,2.8095703,8.0537109,4.1904297,11.34375,4.5849609
	c2.5546875-1.1230469,3.1875-1.4873047,5.3583984-3.0771484c0.3027344-1.3984375,0.5498047-3.6572266-0.0742188-5.4716797
	c-0.9394531-2.7324219-2.3808594-5.5478516-4.9306641-7.9462891c-0.2402344,0.1313477-0.4794922,0.2626953-0.6933594,0.4042969
	C35.7138672,21.1601563,35.5351563,21.2797852,35.3515625,21.4013672z"/>
<path fill="#2B2B2B" d="M36.3632813,20.0664063c0.1992188-0.1220703,0.3916016-0.2416992,0.5839844-0.3613281
	c-2.1152344-2.3222656-3.9873047-4.4204102-5.1933594-5.78125c-1.9521484,0.0634766-3.9003906,0.3676758-5.7578125,0.8071289
	c3.2431641,0.4926758,6.8662109,2.277832,10.0126953,5.0092773C36.1308594,19.8461914,36.2441406,19.9584961,36.3632813,20.0664063z
	"/>
<path fill="#2B2B2B" d="M37.4033203,19.4199219c-1.6728516-1.7475586-2.9921875-3.6269531-3.8994141-5.4804688
	c-0.4726563-0.0234375-0.9453125-0.0288086-1.4199219-0.0200195c1.2148438,1.3691406,3.0380859,3.409668,5.0791016,5.6513672
	C37.2441406,19.5209961,37.3251953,19.4697266,37.4033203,19.4199219z"/>
<path fill="#2B2B2B" d="M43.4111328,18.0244141c-0.5009766,0.2177734-1.2958984,0.472168-2.2001953,0.7675781
	c1.5273438,1.3251953,3.34375,2.1567383,5.2373047,2.4135742C45.7353516,20.2143555,44.7480469,19.1938477,43.4111328,18.0244141z"
	/>
<path fill="#2B2B2B" d="M35.734375,14.1865234C35.0908203,14.0751953,34.4423828,14,33.7890625,13.9584961
	c0.9013672,1.7993164,2.1923828,3.6235352,3.828125,5.3222656c0.3496094-0.2270508,0.6826172-0.4526367,0.9960938-0.6787109
	C37.3408203,17.2285156,36.3759766,15.7167969,35.734375,14.1865234z"/>
<path fill="#2B2B2B" d="M37.4150391,20.21875c-0.1962891,0.0913086-0.3974609,0.1796875-0.5839844,0.2768555
	c2.5507813,2.4135742,4.1064453,5.2182617,5.0527344,7.9692383c0.6005859,1.7451172,0.2519531,3.9765625,0.0126953,5.3613281
	c1.4794922-1.1113281,3.6162109-2.9335938,4.5527344-4.1269531C43.8193359,27.1386719,40.4179688,23.5058594,37.4150391,20.21875z"
	/>
<path fill="#2B2B2B" d="M40.9580078,16.2480469c0.0195313-0.0356445,0.0351563-0.0581055,0.0537109-0.0922852
	c-0.8417969-0.5332031-1.7265625-0.9389648-2.6318359-1.2700195c0.375,0.9204102,0.9052734,1.8027344,1.5722656,2.6152344
	C40.3662109,17.0996094,40.7119141,16.6870117,40.9580078,16.2480469z"/>
<path fill="#2B2B2B" d="M18.8720703,17.0527344c-0.7128906,0.2880859-1.3759766,0.5673828-1.9580078,0.8183594
	c-0.2939453,0.1269531-0.578125,0.2602539-0.8603516,0.3955078c-0.2138672,2.4648438,0.3359375,5.2001953,1.5849609,7.8828125
	c0.5966797-0.09375,1.1953125-0.1416016,1.7480469-0.1318359C17.6582031,22.6020508,17.3720703,19.2724609,18.8720703,17.0527344z"
	/>
<path fill="#2B2B2B" d="M39.7685547,17.6713867c-0.7402344-0.8999023-1.3134766-1.8842773-1.7050781-2.9106445
	c-0.6669922-0.2250977-1.3486328-0.3955078-2.0380859-0.5273438c0.6347656,1.4628906,1.5703125,2.9072266,2.7929688,4.2236328
	C39.1669922,18.1982422,39.4794922,17.9365234,39.7685547,17.6713867z"/>
<path fill="#2B2B2B" d="M21.2675781,29.0048828c-0.2265625,0.2998047-0.5244141,0.5830078-0.9199219,0.8144531
	c-0.0957031,0.0576172-0.2236328,0.1191406-0.3759766,0.1865234c0.7822266,1.0400391,1.6650391,2.0458984,2.6650391,2.9902344
	c3.0830078,2.9101563,6.6962891,4.8183594,10.2373047,5.4853516c0.6171875-0.2255859,2.3183594-0.9101563,2.9472656-1.1787109
	c-3.2412109-0.4921875-7.9335938-1.8476563-11.0791016-4.5771484C23.3974609,31.5585938,22.2412109,30.296875,21.2675781,29.0048828
	z"/>
<path fill="#2B2B2B" d="M39.5898438,19.5825195c-0.0625-0.0571289-0.1171875-0.1181641-0.1777344-0.1757813
	c-0.4023438,0.1445313-0.8017578,0.2983398-1.1982422,0.4614258c0.1757813,0.1708984,0.34375,0.3447266,0.5263672,0.5117188
	c2.8867188,2.6484375,6.1826172,4.4467773,9.21875,5.1162109c-0.0302734-0.7128906-0.1337891-1.3764648-0.3339844-2.0136719
	C44.8623047,23.1665039,41.9931641,21.7851563,39.5898438,19.5825195z"/>
<path fill="#2B2B2B" d="M37.9589844,19.9711914c-0.1025391,0.0439453-0.2050781,0.0898438-0.3066406,0.1347656
	c2.9804688,3.2626953,6.3466797,6.8569336,8.9550781,9.3979492c0.6132813-0.8144531,1.0664063-1.6347656,1.3134766-2.4414063
	c0.0400391-0.4589844,0.0566406-0.8935547,0.0498047-1.3095703c-3.0986328-0.6699219-6.4609375-2.4936523-9.4013672-5.1879883
	C38.3583984,20.3706055,38.1621094,20.1694336,37.9589844,19.9711914z"/>
<path fill="#2B2B2B" d="M30.1083984,25.2509766c-0.3837891,0.4833984-0.9794922,0.8916016-1.6748047,1.1513672
	c-0.4912109,0.1865234-1.0029297,0.2832031-1.4775391,0.2832031c-0.9277344,0-1.6201172-0.3642578-1.8505859-0.9736328
	c-0.3583984-0.9570313,0.5429688-2.1494141,2.0498047-2.7143555c0.4912109-0.1860352,1.0019531-0.2822266,1.4775391-0.2822266
	c0.3125,0,0.5849609,0.0551758,0.8349609,0.1333008c0.2587891-0.0229492,0.7949219-0.1445313,1.4609375-0.3398438
	c-1.3447266-1.4804688-3.0644531-2.3979492-4.5302734-2.3979492c-0.6767578,0-1.2685547,0.2016602-1.7080078,0.5830078
	c-0.7050781,0.6108398-0.9892578,1.6279297-0.7998047,2.8637695c0.1923828,1.2558594,0.8476563,2.5820313,1.8466797,3.7324219
	c1.3652344,1.5742188,4.2314453,2.3369141,5.75,2.3369141c0.6767578,0,1.2675781-0.2021484,1.7070313-0.5839844
	c1.2421875-1.0771484,0.0117188-3.140625-1.2978516-5.2456055c-1.2177734,0.8945313-1.5097656,1.1899414-1.6669922,1.2680664
	C30.1884766,25.1269531,30.1572266,25.1894531,30.1083984,25.2509766z"/>
<path fill="#2B2B2B" d="M33.359375,29.2324219c-0.4873047,0.4208984-1.1337891,0.6445313-1.8720703,0.6445313
	c-1.5898438,0-4.5283203-0.7958984-5.9404297-2.4228516c-1.0283203-1.1855469-1.7041016-2.5561523-1.9033203-3.8583984
	c-0.2021484-1.3237305,0.1113281-2.4208984,0.8828125-3.090332c0.4873047-0.421875,1.1337891-0.6445313,1.8720703-0.6445313
	c1.5644531,0,3.3964844,0.9838867,4.8007813,2.5693359c0.46875-0.1445313,0.9951172-0.3256836,1.5419922-0.5366211
	C30.6835938,19.4677734,28,17.909668,25.8017578,17.909668c-0.8779297,0-1.625,0.2412109-2.2197266,0.7177734
	C21.3730469,20.3945313,22.0087891,24.8754883,25,28.6162109c2.0869141,2.609375,5.7773438,3.8662109,8.0712891,3.8662109
	c0.8789063,0,1.5849609-0.4003906,2.1796875-0.8759766c1.0605469-0.8476563,1.1142578-1.9736328,0.8564453-3.8486328
	c-0.2373047-1.7207031-1.4716797-3.3476563-2.7021484-5.0322266c-0.5136719,0.355957-0.9482422,0.6650391-1.3046875,0.9238281
	C33.4794922,25.8642578,34.6953125,28.0722656,33.359375,29.2324219z"/>
<path fill="#2B2B2B" d="M40.9296875,18.8842773c-0.4042969,0.1323242-0.8271484,0.2768555-1.2568359,0.4282227
	c0.0302734,0.027832,0.0566406,0.0571289,0.0869141,0.0849609c2.328125,2.1342773,5.0966797,3.4794922,7.7685547,3.815918
	c-0.2099609-0.5839844-0.4980469-1.1523438-0.8828125-1.7260742C44.5732422,21.2573242,42.5810547,20.3535156,40.9296875,18.8842773
	z"/>
<path fill="#2B2B2B" d="M36.3544922,27.7246094c0.2705078,1.9648438,0.2265625,3.3300781-0.90625,4.2363281
	c-0.640625,0.5117188-1.4404297,0.7714844-2.3769531,0.7714844c-2.3671875,0-6.1337891-1.2929688-8.2666016-3.9599609
	c-3.0771484-3.8486328-3.6953125-8.4873047-1.3789063-10.340332c0.6396484-0.5126953,1.4394531-0.7724609,2.3759766-0.7724609
	c2.2871094,0,5.0751953,1.6196289,7.1865234,4.1367188c0.5605469-0.2241211,1.1357422-0.4765625,1.6923828-0.7607422
	c-2.7197266-2.8681641-6.1611328-4.6494141-9.0332031-4.6494141c-1.3798828,0-2.5615234,0.4189453-3.4179688,1.2104492
	c-1.3300781,1.2285156-1.796875,3.2373047-1.3154297,5.6567383c0.4853516,2.440918,1.8759766,5.0004883,3.9160156,7.2075195
	C27.5751953,33.4316406,31.53125,35.0625,34.4609375,35.0625c1.3798828,0,2.5615234-0.4189453,3.4179688-1.2089844
	c2.6943359-2.4921875,1.2109375-7.8261719-2.7353516-12.3120117c-0.578125,0.3862305-1.0878906,0.7333984-1.5332031,1.0405273
	C34.8652344,24.2988281,36.1132813,25.9638672,36.3544922,27.7246094z"/>
</svg>