<?xml version="1.0" encoding="utf-8"?>
<!DOCTYPE svg PUBLIC "-//W3C//DTD SVG 1.1//EN" "http://www.w3.org/Graphics/SVG/1.1/DTD/svg11.dtd">
<svg version="1.1" id="iSvejemorojennyie-produktyi" xmlns="http://www.w3.org/2000/svg" xmlns:xlink="http://www.w3.org/1999/xlink" x="0px" y="0px" width="100%" height="100%" viewBox="0 0 48 48" preserveAspectRatio="xMidYMid meet">
<path fill="#2B2B2B" d="M39.5839844,31.8115234c0,0-2.6513672-1.3652344-4.3779297-1.3447266
	c-1.7246094,0.0214844-3.5205078,1.4277344-3.5205078,1.4277344s-2.7666016-2.4257813-2.4609375-3.9677734
	c0.3027344-1.5410156,3.0751953-6.6787109,6.6650391-6.2104492c3.5927734,0.4667969,5.4501953,3.2338867,5.8857422,5.4838867
	C42.2128906,29.4462891,40.7998047,30.9287109,39.5839844,31.8115234z"/>
<path fill="#2B2B2B" d="M33.3466797,43.5498047c5.4130859,1.7890625,9.8818359-3.8154297,8.5009766-7.1699219
	c-1.3808594-3.3554688-3.4316406-4.5205078-6.7597656-4.6953125c0,0-2.9433594-0.0996094-4.4619141,2.3232422
	C29.109375,36.4296875,27.9365234,41.7646484,33.3466797,43.5498047z M38.2001953,38.0205078
	c1.8964844-0.0634766,0.6513672,1.3710938,0.6513672,1.3710938c-0.9667969,1.4501953-2.7353516,2.3007813-3.5244141,1.4267578
	C34.5400391,39.9423828,36.3066406,38.0917969,38.2001953,38.0205078z"/>
<path fill="#2B2B2B" d="M22.1362305,38.8984375c2.3120117,0.4570313,6.0834961-0.4023438,7.0004883-3.0234375
	c0.9189453-2.6191406,1.7421875-5.5791016-2.0400391-7.7265625c0,0-5.7397461-3.9736328-8.6660156,1.9326172
	C15.5024414,35.9912109,19.8242188,38.4443359,22.1362305,38.8984375z M21.4604492,28.5166016
	c0.753418-0.5703125,2.2299805-1.1611328,3.418457-0.4863281s1.3896484,1.078125,1.0234375,2.7246094
	c0,0-0.8623047,2.5859375-2.8017578,0.4072266C21.859375,29.7685547,20.706543,29.0888672,21.4604492,28.5166016z"/>
<path fill="#2B2B2B" d="M16.9814453,31.0517578c0.0048828,0,0.0253906,0.0029297,0.0253906,0.0029297
	C17.0043945,31.0332031,16.9941406,31.0351563,16.9814453,31.0517578z"/>
<path fill="#2B2B2B" d="M7.8989258,35.6699219c-0.4116211,1.4804688,0.074707,4.1630859,1.5874023,6.0214844
	c1.515625,1.859375,2.7446289,2.3095703,6.5473633,1.8994141c3.8041992-0.4130859,4.9853516-4.1708984,4.9853516-4.1708984
	s-1.8984375-0.8212891-2.9707031-2.0830078c-2.2524414-2.6552734-1.2470703-6.0712891-1.0668945-6.2851563
	c-0.1323242-0.0166016-1.6962891-0.1875-4.7363281,0.3701172C9.0664063,32.0097656,7.8989258,35.6699219,7.8989258,35.6699219z
	 M10.6313477,38.4736328c0.4609375,1.2597656-0.6303711,2.7148438-0.6303711,2.7148438
	c0.8632813-2.9248047-1.4238281-4.1083984-1.4238281-4.1083984S10.1157227,37.0625,10.6313477,38.4736328z"/>
<path fill="#2B2B2B" d="M21.3154297,26.671875c0,0,1.2124023-0.5419922,3.3554688-0.2001953
	c2.1103516,0.3408203,3.8652344,1.9121094,3.8652344,1.9121094s0.9404297-2.7265625,1.7871094-4.0498047
	c0.8486328-1.3305664,2.9384766-2.7695313,2.9384766-2.7695313s-1.0390625-1.2739258-1.7197266-1.7460938
	c-1.2900391-0.8984375-2.4375-1.2431641-4.1025391-1.3295898c-1.6630859-0.0893555-1.5849609,0.5283203-2.5996094,0.8081055
	c-1.0175781,0.2797852-1.5107422,0.1435547-1.5107422,0.1435547s-1.1367188,0.4951172-2.2880859,2.2709961
	C19.8896484,23.4848633,21.3154297,26.671875,21.3154297,26.671875z M25.28125,20.7880859
	c1.4619141-0.3100586,1.9003906-1.590332,1.9003906-1.590332s-0.2265625,2.1572266-1.6269531,2.3623047
	c-1.4003906,0.2045898-2.5605469-1.0253906-2.5605469-1.0253906S23.8203125,21.1025391,25.28125,20.7880859z"/>
<path fill="#2B2B2B" d="M24.9560547,12.046875l3.40625-1.8867188l-0.5292969-0.9619141l-3.3632813,2.0405273l0.9785156-3.6274414
	L23.3125,7.0336914l-2.043457,5.875L17,15.1113281v-4.4853516l4.6030273-4.3720703l-1.4165039-1.5893555l-2.5585938,2.9790039
	L17.7841797,4h-1.0791016l0.0668945,3.6435547l-2.6801758-2.8300781l-2.4414063,1.5136719L15,10.6259766v4.4853516
	l-3.0205078-2.2026367l-1.2412109-5.875L8.8188477,7.6113281l1.090332,3.6274414L6.6186523,9.1982422l-0.5200195,0.9619141
	l3.4399414,1.8867188l-3.6181641,0.9941406l0.5351563,2.1352539l5.9482422-1.4536133L15.4833984,15.9375l-3.0756836,2.2856445
	l-5.9506836-1.4560547l-0.5576172,2.1328125l3.6240234,0.996582L6.0966797,21.784668l0.5439453,0.9599609l3.3461914-2.0375977
	l-0.9487305,3.6230469l2.144043,0.5825195l0.7651367-5.8774414L15,16.8334961v4.487793l-3.3496094,4.4042969l1.9990234,1.5537109
	l2.9038086-2.6855469L17.7324219,28.25c0.09375-0.03125,1.5317383-1.1875,1.5317383-1.1875l-1.1020508-2.8369141L20.7333984,25.9375
	l-0.4135742-1.875L17,21.3212891v-4.487793l4.269043,2.1689453L21.7294922,20.1875
	c0.4111328-0.5136719,0.8457031-0.9375,1.9082031-1.34375l-1.5957031-0.6206055l-3.8457031-2.2329102l3.9067383-2.2675781
	l5.262207,1.2597656C27.5078125,14.918457,27.8583984,15.09375,28.0458984,15.125l0.5302734-2.0839844L24.9560547,12.046875z"/>
</svg>
