<?xml version="1.0" encoding="utf-8"?>
<!DOCTYPE svg PUBLIC "-//W3C//DTD SVG 1.1//EN" "http://www.w3.org/Graphics/SVG/1.1/DTD/svg11.dtd">
<svg version="1.1" id="iSvinina" xmlns="http://www.w3.org/2000/svg" xmlns:xlink="http://www.w3.org/1999/xlink" x="0px" y="0px" width="100%" height="100%" viewBox="0 0 48 48" preserveAspectRatio="xMidYMid meet">
<path fill="#2B2B2B" d="M48,26.3203125c-0.390625-0.5634766-1.9130859,1.6289063-2.4335938,1.3681641
	c-0.5205078-0.2597656-1.7353516-2.0390625-2.2119141-2.5166016c-0.4775391-0.4765625-0.5644531-2.2988281-1.1708984-3.2089844
	c-0.6074219-0.9111328-0.4775391-0.8242188-0.9111328-1.1279297c-0.4335938-0.3046875-0.3466797-0.9550781-0.390625-1.7783203
	c-0.0429688-0.8242188-1.0849609-2.2558594-6.6367188-7.3310547s-13.1865234-1.9521484-16.0927734-1.1279297
	c-2.90625,0.8251953-9.3691406-1.6044922-12.96875,0c-3.5996094,1.6054688-5.0751953,6.2900391-5.0751953,9.8466797
	s1.6054688,5.5517578,3.5576172,7.9375c1.9511719,2.3857422,1.8652344,0.8691406,3.5126953,2.6464844
	c1.5830078,1.7070313,4.2041016,2.8955078,5.6777344,2.9873047c0,0,2.9970703,0.0917969,3.6044922-0.0380859
	c0.6083984-0.1298828,1.1279297-0.953125,1.1279297-0.953125c0.390625-0.5644531,1.2578125-1.2148438,2.5595703-1.3457031
	c1.3007813-0.1289063,1.1708984,0.5214844,1.7783203,0.2177734c0.6074219-0.3056641,1.9951172-1.6484375,3.9912109-1.5185547
	c1.9951172,0.1298828,4.25,1.3447266,5.2900391,1.6044922c1.0419922,0.2607422,2.0830078-0.3466797,2.7763672-0.5634766
	c0.6953125-0.2167969,0.6513672,0.1308594,3.6005859,0.5634766c2.9492188,0.4335938,5.5947266,0,6.3330078-0.390625
	c0.0351563-0.0185547,0.078125-0.0322266,0.1152344-0.0488281c-0.1005859-0.0117188-0.2050781-0.0244141-0.3242188-0.0380859
	c-1.1269531-0.1298828-1.3378906-0.5195313-1.4238281-0.7802734c-0.0869141-0.2597656,0.2363281-0.6201172-0.6357422-0.8671875
	c-0.4130859-0.1171875-1.0986328-0.6933594-1.1425781-1.1708984C40.4638672,28.2099609,41,27.7314453,41,27.7314453
	s0,0.1308594,0,0.4345703s0.2021484,0.8671875,0.8085938,1.3447266s0.796875-0.0576172,1.0039063,0.2607422
	c0.1445313,0.2216797-0.0830078,0.6875,0.3251953,1.1699219c0.3554688,0.4199219,1.6494141,0.2177734,2.4306641,0.1308594
	c0.2480469-0.0273438,0.4042969-0.0175781,0.4941406,0.0126953c0.2285156-0.0419922,0.4208984-0.0869141,0.5449219-0.1435547
	C47.0849609,30.7246094,48.3896484,26.8847656,48,26.3203125z M3.875,23.8359375c-0.2607422-1.9951172,0.5625-3.875,0.875-4.5625
	c-0.1665039,0.75-1.5625,4.5625,1.9375,10.375C6.6875,29.6484375,4.1357422,25.8310547,3.875,23.8359375z M16.5834961,31.0654297
	c-0.875-1.1044922-1.8154297-2.4111328-1.8139648-4.3740234c0.0014648-1.9804688,1.1782227-4.0751953,1.7783203-4.9882813
	c-0.9111328,1.4746094-1.5820313,4.4873047-1.2353516,6.0917969c0.3466797,1.6054688,2.3959961,4.5410156,2.3959961,4.5410156
	S17.2529297,31.9111328,16.5834961,31.0654297z M32.7705078,15.8027344
	c0.3037109-0.2158203,1.7353516,0.9980469,2.4726563,1.0419922c0.7373047,0.0429688,2.8193359,1.0410156,2.7324219,2.2119141
	c-0.0859375,1.1708984-0.6074219,1.6474609-0.6074219,1.6474609s-0.0439453-1.2138672-0.2597656-1.734375
	c-0.2167969-0.5205078-0.2607422-0.7373047-0.5205078-0.9541016s-1.9091797-0.4775391-2.3857422-0.6943359
	c-0.4775391-0.2167969-0.8681641-0.3037109-0.5644531,0.0869141s1.0341797,0.6103516,1.4248047,1.5214844
	c0.390625,0.9101563-0.5566406,1.6884766-0.3828125,1.9921875c0.1728516,0.3037109,1.0078125,0.2265625,1.3828125,1.0078125
	c0.2294922,0.4785156-0.0625,0.96875-0.0625,0.96875s-2.4931641-0.8056641-2.6660156-1.6298828
	s-0.1289063-2.3857422-0.2158203-3.1660156C33.03125,17.3212891,32.4667969,16.0195313,32.7705078,15.8027344z
	 M39.9580078,27.7714844c-0.625,0.625-1.6445313,1.4990234-4.2910156,2.0205078
	c-2.6464844,0.5195313-5.0283203,0.5029297-6.4589844-1.6669922c-1.4326172-2.1679688-1.9160156-4.25-1.1455078-5.9375
	c0,0-0.3544922,1.7919922,0.125,1.8959961c0.6123047,0.1328125,0.5234375,2.5180664,1.875,3.5834961
	C34.6875,31.3125,39.4794922,28.1669922,39.9580078,27.7714844z M39.5625,23c-0.0439453-0.6074219,1.7724609-0.8398438,2.25-0.40625
	c0.4765625,0.4335938,0.8125,2.46875,0.8125,2.46875C40.9765625,25.3652344,39.6054688,23.6074219,39.5625,23z M45.25,28.2939453
	c0,0,0.1455078-0.1660156,0.484375-0.3486328c-0.3125,0.46875-0.078125,2.265625,0.125,2.6875
	C45.5,30.4140625,44.75,29.5234375,45.25,28.2939453z M47.1455078,29.2529297
	c-0.3261719,0.8798828-0.7285156,0.5410156-0.7080078-0.3125c0,0,0.2919922-1.7705078,0.9169922-1.875
	C47.9091797,26.9726563,47.5517578,28.1572266,47.1455078,29.2529297z"/>
<path fill="#2B2B2B" d="M41.3154297,23.5244141l-0.1767578-0.7099609c-0.1904297-0.0498047-0.3974609,0.0263672-0.5605469,0.40625
	c-0.390625,0.9111328,1.2148438,1.1708984,1.2148438,1.1708984c-0.0947266-0.9873047-0.0537109-0.7783203-0.1298828-1.0839844
	c-0.0087891-0.0341797-0.0410156-0.0927734-0.0898438-0.1591797L41.3154297,23.5244141z"/>
<path fill="#2B2B2B" d="M4.5761719,32.3291016c0.1308594,0.5214844,1.3007813,1.171875,1.7353516,1.0839844
	c0.4335938-0.0859375,1.0068359-1.0029297,0.8339844-1.3056641c-0.1738281-0.3037109-0.3740234-1.2880859-0.8955078-1.375
	c-0.5195313-0.0869141-1.8037109-0.9619141-1.8037109-0.9619141C4.6191406,30.2900391,4.4462891,31.8095703,4.5761719,32.3291016z"
	/>
<path fill="#2B2B2B" d="M21.1025391,37.7080078c0.3466797-0.2607422-0.0869141-1.2578125,0-1.6474609
	c0.0869141-0.3916016-0.3466797-2.6025391-0.1738281-3.3398438c0.1738281-0.7382813-1.9951172-0.6943359-2.5595703,0.2597656
	c0,0,0.0439453,0.8681641-0.2167969,1.4316406c-0.2597656,0.5634766-0.5634766,1.3447266-0.5634766,1.734375
	c0,0.390625,0,1.0839844,0.1738281,0.9111328c0.1728516-0.1728516,0.4765625-1.0410156,0.6064453-1.0839844
	c0.1308594-0.0439453,0.2617188,0.0869141,0.2617188,0.4765625c0,0.390625-0.2177734,0.9101563,0.4326172,0.9101563
	C19.7148438,37.3603516,20.7558594,37.96875,21.1025391,37.7080078z"/>
<path fill="#2B2B2B" d="M30.2978516,34.4121094c0.1738281-0.2607422-1.8642578-1.7792969-1.9951172-2.3867188
	c-0.1298828-0.6064453-2.7753906-1.2578125-3.2529297-1.0839844c0,0,0.6503906,1.1279297,0.9111328,1.5615234
	c0.2597656,0.4345703,0.5195313,1.0419922,0.5195313,1.5185547c0,0.4775391,0.1738281,0.7802734,0.7382813,1.0849609
	c0.5634766,0.3027344,0.2597656-0.2177734,0.4775391-0.3476563c0.2167969-0.1298828,0.2167969,0.0429688,0.8662109,0.0429688
	C29.2138672,34.8017578,30.1240234,34.6728516,30.2978516,34.4121094z"/>
<path fill="#2B2B2B" d="M6.2675781,33.5878906C5.53125,33.6748047,4.75,33.2841797,4.6191406,33.1113281
	c-0.1289063-0.1738281-0.6000977,2,0.2871094,2.1074219c1.8125,0.21875,1.4101563-0.8125,1.84375-0.8125
	S7.5214844,34.9228516,7.78125,34.75c0.2607422-0.1738281-0.2119141-1.5517578-0.3417969-1.8994141
	C7.3085938,32.5029297,7.0058594,33.5,6.2675781,33.5878906z"/>
<path fill="#2B2B2B" d="M21.3632813,36.6679688c-0.1147461,0.1357422,0.3896484,0.8671875-0.1308594,1.2568359
	c-0.5205078,0.390625-2.4726563-0.3027344-2.4726563-0.3027344c0.0439453,1.5166016,0.6132813,1.59375,1.5527344,1.5341797
	c0.4785156-0.0302734,0.5742188-0.4941406,0.703125-0.5371094c0.1308594-0.0429688,0.7363281,0.2148438,0.953125-0.0878906
	C22.1855469,38.2265625,21.53125,36.46875,21.3632813,36.6679688z"/>
<path fill="#2B2B2B" d="M31.65625,35.375c0.1279297-0.1162109-0.6425781-1.1289063-1.03125-1.0410156
	c-0.390625,0.0869141,0.3232422,0.2949219-0.2832031,0.5117188c-0.6074219,0.2158203-2.1220703,0.2802734-2.4248047,0.2382813
	C27.8105469,34.9023438,27.6777344,35.96875,29.8125,35.96875c0.9160156,0,1.28125,0.0205078,1.34375-0.4375
	C31.203125,35.1845703,31.4902344,35.5253906,31.65625,35.375z"/>
</svg>