<?xml version="1.0" encoding="utf-8"?>
<!DOCTYPE svg PUBLIC "-//W3C//DTD SVG 1.1//EN" "http://www.w3.org/Graphics/SVG/1.1/DTD/svg11.dtd">
<svg version="1.1" id="iSyir" xmlns="http://www.w3.org/2000/svg" xmlns:xlink="http://www.w3.org/1999/xlink" x="0px" y="0px" width="100%" height="100%" viewBox="0 0 48 48" preserveAspectRatio="xMidYMid meet">
<path fill="#2B2B2B" d="M24.2080078,36.6425781c-0.2446289,0.0917969-0.1552734,0.0761719-0.40625,0.1328125
	C19.0361328,37.8417969,17.2001953,37.1328125,12.9375,34.4375c0,0-6.7568359-4.34375-4.3125-13.9375
	c2.4448242-9.5898438,9.6235352-11.6157227,13.6079102-10.9301758C26.1875,10.25,31.6367188,13.831543,31.6367188,21.1035156
	c0,1.5234375-0.1298828,2.5205078-0.3867188,3.9902344c0.1474609,0.0898438,0.25,0.34375,0.4375,0.65625
	c0.1533203-1.1323242,0.5136719-2.1801758,0.5136719-3.5180664c0-15.9853516-13.0395508-15.6723633-18.7446289-15.3588867
	C7.7519531,7.1865234,0,11.1469727,0,24.5625c0,13.4169922,15.0249023,14.40625,18.3461914,14.40625
	c0.9238281,0,3.6132813-0.0117188,6.590332-1.7382813C24.6518555,37.0439453,24.402832,36.8125,24.2080078,36.6425781z"/>
<path fill="#2B2B2B" d="M47.5742188,24.628418c-0.3115234-1.8808594-0.7666016-4.0268555-0.7666016-4.0268555l-8.0732422,2.6176758
	c0,0,1.5527344,1.6220703,0.0712891,2.2329102c-1.4716797,0.6074219-1.8574219-0.1113281-2.2324219-1.7397461
	c-1.6289063,0.6279297-3.9501953,1.3393555-3.9501953,1.3393555s0.6337891,0.8193359-0.234375,1.2226563
	c-0.7050781,0.3310547-1.2529297-0.7216797-1.2529297-0.7216797l-5.9560547,2.0078125c0,0-4.2421875,4.4394531-2.4443359,6.7080078
	C22.7905273,34.3378906,23.7592773,36.4736328,27.75,38.8125c4,2.3447266,7.8359375,3.9814453,14.8564453,0.9091797
	C49.6279297,36.6513672,47.8876953,26.5097656,47.5742188,24.628418z M40.2871094,39.7841797
	c-10.4677734,3.0097656-14.4179688-11.5351563-14.4179688-11.5351563l5.3291016-1.6279297c0,0,1.1904297,0.5634766,1.8183594,0.125
	c0.6259766-0.4404297,0.1865234-1.0644531,0.1865234-1.0644531l2.6972656-1.0673828c0,0,0.4375,1.1914063,1.1279297,1.8183594
	c0.6884766,0.6279297,2.4433594-0.1894531,3.0703125-1.0039063c0.6279297-0.8149414-0.2490234-1.8803711-0.2490234-1.8803711
	l6.3925781-2.2568359C46.2421875,21.2915039,50.7578125,36.7753906,40.2871094,39.7841797z"/>
<path fill="#2B2B2B" d="M16.7392578,24.0820313c0.0854492-0.5166016,1.0029297-0.5395508,1.234375-0.3071289
	c0.2324219,0.2294922,0.5786133,0.6162109,0.309082,1.0410156C18.0126953,25.2392578,16.5073242,25.4716797,16.7392578,24.0820313z"
	/>
<path fill="#2B2B2B" d="M25.0136719,20.3217773c0.0859375-0.5175781,1.0039063-0.5410156,1.2353516-0.309082
	c0.2314453,0.230957,0.5800781,0.6171875,0.3085938,1.0419922C26.2871094,21.4799805,24.7822266,21.7104492,25.0136719,20.3217773z"
	/>
<path fill="#2B2B2B" d="M29.5283203,24.0820313c0.0849609-0.5166016,1.0019531-0.5395508,1.234375-0.3071289
	c0.2324219,0.2294922,0.578125,0.6162109,0.3085938,1.0410156C30.8007813,25.2392578,29.2958984,25.4716797,29.5283203,24.0820313z"
	/>
<path fill="#2B2B2B" d="M27.2695313,14.3032227c0.0869141-0.5166016,1.0048828-0.5400391,1.2363281-0.3076172
	c0.2324219,0.2304688,0.5791016,0.6157227,0.3066406,1.0415039C28.5429688,15.4609375,27.0380859,15.6923828,27.2695313,14.3032227z
	"/>
<path fill="#2B2B2B" d="M19.0810547,18.2490234c-0.1738281-0.2041016-0.3530273-0.3916016-0.5151367-0.5532227
	c-0.7504883-0.7509766-3.7241211-0.6777344-4.0043945,1.0004883c-0.7509766,4.5048828,4.128418,3.7539063,5.0053711,2.3769531
	c0.3535156-0.5556641,0.3769531-1.0913086,0.234375-1.5820313c0.3061523-0.0131836,0.6279297-0.1386719,0.6757813-0.4321289
	C20.6826172,17.8251953,19.4882813,17.9116211,19.0810547,18.2490234z"/>
<path fill="#2B2B2B" d="M17.46875,12.2885742c-0.0839844,0.503418-0.9755859,0.5258789-1.1992188,0.300293
	c-0.2250977-0.2250977-0.5620117-0.5996094-0.300293-1.012207C16.2319336,11.1640625,17.6933594,10.9399414,17.46875,12.2885742z"/>
<path fill="#2B2B2B" d="M14.5229492,32.2617188c0.1386719-0.8408203,1.6289063-0.8769531,2.0063477-0.5019531
	c0.3754883,0.3779297,0.9399414,1.0029297,0.5009766,1.6933594C16.5913086,34.1425781,14.1469727,34.5195313,14.5229492,32.2617188z
	"/>
<path fill="#2B2B2B" d="M33.1396484,28.4375c0,0-0.0615234-0.4375,0.5029297-0.4375s0.5019531,0.6894531,0.5019531,0.6894531
	s-0.3144531,0.4384766-0.6914063,0.1875C33.078125,28.625,33.1396484,28.4375,33.1396484,28.4375z"/>
<path fill="#2B2B2B" d="M27.1220703,23.9248047c0,0-0.0615234-0.4394531,0.5019531-0.4394531
	c0.5644531,0,0.5039063,0.6904297,0.5039063,0.6904297s-0.3154297,0.4384766-0.6914063,0.1875
	S27.1220703,23.9248047,27.1220703,23.9248047z"/>
<path fill="#2B2B2B" d="M19.6005859,23.9248047c0,0-0.0629883-0.4394531,0.5014648-0.4394531
	c0.5649414,0,0.5019531,0.6904297,0.5019531,0.6904297s-0.3139648,0.4384766-0.6904297,0.1875
	C19.5375977,24.1123047,19.6005859,23.9248047,19.6005859,23.9248047z"/>
<path fill="#2B2B2B" d="M19.6005859,23.9248047c0,0-0.0629883-0.4394531,0.5014648-0.4394531
	c0.5649414,0,0.5019531,0.6904297,0.5019531,0.6904297s-0.3139648,0.4384766-0.6904297,0.1875
	C19.5375977,24.1123047,19.6005859,23.9248047,19.6005859,23.9248047z"/>
<path fill="#2B2B2B" d="M21.1049805,17.1547852c0,0-0.0629883-0.4389648,0.5014648-0.4389648
	s0.5019531,0.6889648,0.5019531,0.6889648s-0.3139648,0.4399414-0.6889648,0.1889648
	C21.0419922,17.3422852,21.1049805,17.1547852,21.1049805,17.1547852z"/>
<path fill="#2B2B2B" d="M21.1049805,17.1547852c0,0-0.0629883-0.4389648,0.5014648-0.4389648
	s0.5019531,0.6889648,0.5019531,0.6889648s-0.3139648,0.4399414-0.6889648,0.1889648
	C21.0419922,17.3422852,21.1049805,17.1547852,21.1049805,17.1547852z"/>
<path fill="#2B2B2B" d="M21.1049805,19.4106445c0,0-0.0629883-0.4389648,0.5014648-0.4389648
	s0.5019531,0.6904297,0.5019531,0.6904297s-0.3139648,0.4394531-0.6889648,0.1879883
	C21.0419922,19.5981445,21.1049805,19.4106445,21.1049805,19.4106445z"/>
<path fill="#2B2B2B" d="M42.1699219,37.4648438c0,0-0.0644531-0.4394531,0.5009766-0.4394531
	c0.5634766,0,0.5,0.6904297,0.5,0.6904297s-0.3125,0.4394531-0.6904297,0.1884766
	C42.1054688,37.6542969,42.1699219,37.4648438,42.1699219,37.4648438z"/>
<path fill="#2B2B2B" d="M45.1767578,32.1416016c0,0-0.0556641-0.3837891,0.4404297-0.3837891
	c0.4931641,0,0.4384766,0.6025391,0.4384766,0.6025391s-0.2734375,0.3867188-0.6035156,0.1650391
	C45.1210938,32.3066406,45.1767578,32.1416016,45.1767578,32.1416016z"/>
<path fill="#2B2B2B" d="M16.5913086,14.840332c0,0-0.0546875-0.3842773,0.4389648-0.3842773
	c0.4941406,0,0.4399414,0.6040039,0.4399414,0.6040039s-0.2753906,0.3847656-0.6040039,0.1640625
	C16.5366211,15.0043945,16.5913086,14.840332,16.5913086,14.840332z"/>
<path fill="#2B2B2B" d="M22.6098633,11.0786133c0,0-0.0551758-0.3833008,0.4384766-0.3833008
	c0.4941406,0,0.4394531,0.6030273,0.4394531,0.6030273s-0.2749023,0.3852539-0.6040039,0.1660156
	C22.5546875,11.2426758,22.6098633,11.0786133,22.6098633,11.0786133z"/>
<path fill="#2B2B2B" d="M11.0776367,17.6010742c0,0-0.0551758-0.3833008,0.4389648-0.3833008
	c0.4936523,0,0.4389648,0.6040039,0.4389648,0.6040039s-0.2739258,0.3842773-0.6040039,0.1640625
	C11.0224609,17.765625,11.0776367,17.6010742,11.0776367,17.6010742z"/>
<path fill="#2B2B2B" d="M40.6621094,35.9042969c0,0-0.0537109-0.3847656,0.4414063-0.3847656
	c0.4921875,0,0.4384766,0.6035156,0.4384766,0.6035156s-0.2744141,0.3847656-0.6025391,0.1640625
	C40.6083984,36.0683594,40.6621094,35.9042969,40.6621094,35.9042969z"/>
<path fill="#2B2B2B" d="M14.3344727,29.1328125c0,0-0.0551758-0.3837891,0.4389648-0.3837891
	c0.4946289,0,0.4389648,0.6035156,0.4389648,0.6035156S14.9375,29.7363281,14.609375,29.5175781
	C14.2792969,29.2988281,14.3344727,29.1328125,14.3344727,29.1328125z"/>
<path fill="#2B2B2B" d="M21.8564453,35.1503906c0,0-0.0546875-0.3857422,0.4394531-0.3857422
	s0.4394531,0.6074219,0.4394531,0.6074219s-0.2739258,0.3828125-0.6035156,0.1630859
	C21.8017578,35.3154297,21.8564453,35.1503906,21.8564453,35.1503906z"/>
<path fill="#2B2B2B" d="M41.0390625,34.6435547c0,0-2.0048828-0.8144531-0.8144531-2.3183594
	c1.1923828-1.5039063,1.4423828-1.8183594,2.2558594-1.3798828c0.8154297,0.4394531,2.5732422,1.8173828,2.0087891,3.0712891
	C43.9238281,35.2705078,42.5439453,35.0820313,41.0390625,34.6435547z"/>
<path fill="#2B2B2B" d="M26.2236328,11.96875c0,0,0.6669922,0.2714844,0.2705078,0.7724609
	c-0.3964844,0.5-0.4804688,0.6044922-0.7519531,0.4584961c-0.2705078-0.1455078-0.8549805-0.6049805-0.6679688-1.0224609
	C25.2617188,11.7602539,25.7216797,11.8222656,26.2236328,11.96875z"/>
<path fill="#2B2B2B" d="M19.9760742,15.0854492c0,0-2.0058594-0.8149414-0.8144531-2.3198242
	c1.190918-1.5048828,1.4423828-1.8173828,2.2578125-1.378418c0.8134766,0.4389648,2.5693359,1.8164063,2.0043945,3.0708008
	C22.8598633,15.7119141,21.4804688,15.5249023,19.9760742,15.0854492z"/>
<path fill="#2B2B2B" d="M43.7998047,27.1845703c0.0712891,0.6503906-0.1269531,1.0644531,0.3125,1.0644531
	c0.4384766,0,1.3798828-0.1884766,1.3798828-0.6269531c0-0.4375-0.2519531-1.0009766-0.6923828-1.3154297
	C44.3632813,25.9931641,43.7353516,26.6210938,43.7998047,27.1845703z"/>
<path fill="#2B2B2B" d="M24.2392578,14.3964844c0.0732422,0.6503906-0.1264648,1.0644531,0.3139648,1.0644531
	c0.4384766,0,1.378418-0.1875,1.378418-0.6259766s-0.25-1.0024414-0.6894531-1.3168945
	C24.8041992,13.2036133,24.1762695,13.8325195,24.2392578,14.3964844z"/>
<path fill="#2B2B2B" d="M28,19.6621094c0.0732422,0.6499023-0.1240234,1.0649414,0.3154297,1.0649414
	c0.4375,0,1.3779297-0.1875,1.3779297-0.6254883c0-0.4394531-0.2509766-1.0039063-0.6894531-1.3173828
	C28.5644531,18.4707031,27.9404297,19.0976563,28,19.6621094z"/>
<path fill="#2B2B2B" d="M38.7832031,29.2539063c-0.109375-0.4443359,0.5019531-0.6904297,0.6884766-0.5644531
	c0.1884766,0.1240234,0.6269531,0.8144531,0.3144531,0.8779297C39.4716797,29.6289063,38.9082031,29.7548828,38.7832031,29.2539063z
	"/>
<path fill="#2B2B2B" d="M38.03125,33.7666016c-0.1113281-0.4433594,0.5019531-0.6894531,0.6894531-0.5625
	c0.1875,0.1240234,0.6269531,0.8115234,0.3134766,0.875S38.15625,34.2685547,38.03125,33.7666016z"/>
<path fill="#2B2B2B" d="M10.1967773,27.7480469c-0.1103516-0.4414063,0.5019531-0.6875,0.6894531-0.5634766
	c0.1884766,0.1259766,0.6274414,0.8144531,0.3139648,0.8759766C10.8862305,28.125,10.3227539,28.25,10.1967773,27.7480469z"/>
<path fill="#2B2B2B" d="M9.4443359,23.987793c-0.109375-0.4438477,0.5019531-0.6899414,0.6914063-0.5639648
	c0.1870117,0.1245117,0.6254883,0.8134766,0.3120117,0.8764648C10.1357422,24.3632813,9.5703125,24.4882813,9.4443359,23.987793z"/>
<path fill="#2B2B2B" d="M11.7011719,30.4658203c-0.1103516,0.7207031,0.5019531,1.1210938,0.6894531,0.9169922
	c0.1884766-0.203125,0.6274414-1.3232422,0.3139648-1.4248047C12.390625,29.8535156,11.8266602,29.6513672,11.7011719,30.4658203z"
	/>
<path fill="#2B2B2B" d="M41.6044922,24.8017578c-0.1132813-1.6264648,1.5664063-1.1904297,1.8173828-1.0029297
	c0.2509766,0.1889648,0.8154297,1.3154297,0.3134766,1.4404297C43.234375,25.3662109,41.7285156,26.6210938,41.6044922,24.8017578z"
	/>
<path fill="#2B2B2B" d="M23.5512695,18.0615234c-0.1420898-2.0605469,1.987793-1.5097656,2.3051758-1.2709961
	c0.3173828,0.2382813,1.0332031,1.668457,0.3964844,1.8271484C25.6191406,18.7773438,23.7094727,20.3671875,23.5512695,18.0615234z"
	/>
<path fill="#2B2B2B" d="M13.019043,15.0527344c-0.1420898-2.0615234,1.9882813-1.5102539,2.3056641-1.2709961
	c0.3183594,0.2382813,1.0327148,1.6679688,0.3974609,1.8271484C15.0864258,15.7685547,13.1782227,17.3579102,13.019043,15.0527344z"
	/>
<path fill="#2B2B2B" d="M10.0107422,21.8232422c-0.1430664-2.0620117,1.987793-1.5107422,2.3051758-1.2719727
	c0.3178711,0.2392578,1.0332031,1.6679688,0.3969727,1.8261719C12.0776367,22.5390625,10.1689453,24.1279297,10.0107422,21.8232422z
	"/>
<path fill="#2B2B2B" d="M32.7021484,34.2041016c1.3876953-0.7382813,2.0693359,0.3789063,2.2578125,0.8779297
	c0.1884766,0.5019531,0.4990234,1.2558594-0.5009766,1.6933594c-1.0058594,0.4384766-1.9443359,0-2.1943359-0.6269531
	C32.0126953,35.5224609,31.7626953,34.7070313,32.7021484,34.2041016z"/>
<path fill="#2B2B2B" d="M22.1298828,29.6464844c-0.1738281-0.4472656-0.6303711-1.2236328-1.4360352-1.5195313
	c0.4199219-0.1806641,0.815918-0.4238281,1.0463867-0.4804688c0.6352539-0.1601563-0.0791016-1.5908203-0.3979492-1.8300781
	c-0.3168945-0.2392578-2.4472656-0.7880859-2.3046875,1.2724609c0.034668,0.5117188,0.159668,0.8242188,0.3354492,1.0107422
	c-0.2138672,0.0576172-0.4370117,0.1416016-0.6767578,0.265625c-1.4311523,0.7304688-1.050293,1.9208984-0.668457,2.8339844
	c0.3818359,0.9189453,1.8125,1.5585938,3.3383789,0.9189453C22.8916016,31.4765625,22.4145508,30.3789063,22.1298828,29.6464844z"/>
<path fill="#2B2B2B" d="M35.7734375,30.9453125c0.7050781-0.6025391,1.2529297-0.1240234,1.5029297,0.2509766
	c0.2539063,0.3759766,0.9433594,1.3164063,0.0644531,1.6923828c-0.8779297,0.3759766-1.5673828,0.1259766-1.8798828-0.4375
	C35.1484375,31.8857422,35.3349609,31.3212891,35.7734375,30.9453125z"/>
<path fill="#2B2B2B" d="M13.2055664,25.6816406c0.7036133-0.6035156,1.2539063-0.1289063,1.5053711,0.2480469
	c0.2504883,0.3769531,0.9394531,1.3173828,0.0625,1.6923828c-0.8774414,0.3779297-1.5678711,0.1259766-1.8803711-0.4375
	C12.5791016,26.6210938,12.7661133,26.0556641,13.2055664,25.6816406z"/>
<path fill="#2B2B2B" d="M22.5126953,22.0771484c1.3984375-1.1982422,2.4931641-0.2504883,2.9912109,0.496582
	c0.5,0.7504883,1.8701172,2.6186523,0.1259766,3.3666992c-1.7451172,0.7490234-3.1171875,0.25-3.7397461-0.8710938
	C21.265625,23.9458008,21.6396484,22.8242188,22.5126953,22.0771484z"/>
<path fill="#2B2B2B" d="M38.2197266,36.0869141c-0.5644531,0.3125-0.3769531,1.1269531-0.3144531,1.3144531
	c0.0625,0.1884766,0.6904297,0.5644531,1.2548828,0.1884766c0.5625-0.3759766,0.6894531-1.0019531,0.4375-1.3154297
	C39.3476563,35.9609375,38.2197266,36.0869141,38.2197266,36.0869141z"/>
<path fill="#2B2B2B" d="M44.6767578,29.8183594c-0.0996094-0.3232422,0.5-0.8164063,0.6884766-0.5644531
	c0.1894531,0.25,0.6904297,0.6259766,0.3134766,0.8134766C45.3027344,30.2558594,44.9267578,30.6337891,44.6767578,29.8183594z"/>
<path fill="#2B2B2B" d="M45.4277344,23.2348633c0.1923828-0.625,0.5644531-0.2509766,0.6894531,0.0629883
	c0.125,0.3134766,0.125,0.8779297-0.125,0.8779297C45.7412109,24.1757813,45.1767578,24.0498047,45.4277344,23.2348633z"/>
<path fill="#2B2B2B" d="M35.6484375,26.3691406c-0.0625,0.2519531-0.2509766,1.0654297,0.125,1.1914063
	c0.3779297,0.1240234,0.5644531-0.1259766,0.7519531-0.3759766c0.1875-0.2509766,0.0634766-1.0673828-0.2490234-1.1289063
	C35.9619141,25.9931641,35.6484375,26.3691406,35.6484375,26.3691406z"/>
<path fill="#2B2B2B" d="M41.4169922,27.1210938c0.3125,0,0.8154297,0.1894531,0.8759766,0.6894531
	c0.0634766,0.5029297-0.3115234,0.8789063-0.7509766,0.9404297c-0.4384766,0.0625-1.1914063-0.5019531-1.2548828-0.7509766
	c-0.0625-0.2519531,0.8164063-0.9414063,0.8164063-0.9414063L41.4169922,27.1210938z"/>
<path fill="#2B2B2B" d="M35.6484375,38.4052734c0.5029297,0.125,0.9404297,0,0.9404297-0.3134766
	s-0.1259766-1.1289063-0.3125-1.2529297c-0.1894531-0.1259766-0.9404297,0.5019531-1.0029297,0.6894531
	C35.2099609,37.7158203,35.6484375,38.4052734,35.6484375,38.4052734z"/>
<path fill="#2B2B2B" d="M35.6484375,35.3964844c0.5029297,0.1259766,0.9404297,0,0.9404297-0.3144531
	s-0.1259766-1.1289063-0.3125-1.2529297c-0.1894531-0.125-0.9404297,0.5019531-1.0029297,0.6904297
	C35.2099609,34.7070313,35.6484375,35.3964844,35.6484375,35.3964844z"/>
<path fill="#2B2B2B" d="M31.7626953,30.0673828c-0.0751953-0.0478516-0.2333984,0.0185547-0.4052734,0.1289063
	c-0.1357422-0.2744141-0.3554688-0.5126953-0.5351563-0.6923828c-0.3769531-0.3759766-1.8662109-0.3388672-2.0068359,0.5019531
	c-0.3232422,1.9394531,1.4355469,1.9316406,2.2148438,1.4550781c0.0595703,0.1005859,0.1054688,0.1748047,0.1054688,0.1748047
	c0.5009766,0.1240234,0.9404297,0,0.9404297-0.3144531C32.0761719,31.0078125,31.9492188,30.1933594,31.7626953,30.0673828z"/>
<path fill="#2B2B2B" d="M30.4453125,33.2646484c0.125,0.2509766,0.6904297,0.4394531,0.9404297,0.1884766
	c0.2509766-0.2490234,0.8154297-0.3769531,0.5039063-0.7519531c-0.3154297-0.3759766-1.1308594-0.25-1.3193359-0.1259766
	C30.3818359,32.7011719,30.4453125,33.2646484,30.4453125,33.2646484z"/>
<path fill="#2B2B2B" d="M19.9135742,37.0253906c0.1259766,0.2509766,0.6904297,0.4394531,0.940918,0.1884766
	s0.8144531-0.375,0.5009766-0.7519531c-0.3134766-0.375-1.128418-0.25-1.315918-0.1259766
	C19.8510742,36.4619141,19.9135742,37.0253906,19.9135742,37.0253906z"/>
<path fill="#2B2B2B" d="M19.1616211,34.0166016c0.1254883,0.2519531,0.6894531,0.4404297,0.9404297,0.1875
	c0.2504883-0.2509766,0.8149414-0.375,0.5019531-0.7509766c-0.3139648-0.3769531-1.128418-0.25-1.3168945-0.125
	C19.0991211,33.453125,19.1616211,34.0166016,19.1616211,34.0166016z"/>
<path fill="#2B2B2B" d="M16.9047852,35.5224609c0.1254883,0.25,0.6899414,0.4384766,0.9404297,0.1875
	c0.2504883-0.2519531,0.8144531-0.3759766,0.5009766-0.7529297c-0.3125-0.3769531-1.1279297-0.25-1.315918-0.125
	S16.9047852,35.5224609,16.9047852,35.5224609z"/>
<path fill="#2B2B2B" d="M22.9228516,28c0.1254883,0.2490234,0.6904297,0.4375,0.9414063,0.1875
	c0.2485352-0.2519531,0.8134766-0.3769531,0.5014648-0.7529297c-0.3139648-0.3759766-1.1289063-0.25-1.3173828-0.1240234
	C22.8598633,27.4345703,22.9228516,28,22.9228516,28z"/>
</svg>