<?xml version="1.0" encoding="utf-8"?>
<!DOCTYPE svg PUBLIC "-//W3C//DTD SVG 1.1//EN" "http://www.w3.org/Graphics/SVG/1.1/DTD/svg11.dtd">
<svg version="1.1" id="iTsesarka" xmlns="http://www.w3.org/2000/svg" xmlns:xlink="http://www.w3.org/1999/xlink" x="0px" y="0px" width="100%" height="100%" viewBox="0 0 48 48" preserveAspectRatio="xMidYMid meet">
<path fill="#2B2B2B" d="M13.9345703,28.3994141c-0.0625-0.2480469-0.1982422-0.3271484-0.5004883-0.484375
	c-0.34375-0.1787109-0.9091797-0.4248047-1.296875-1.1396484L0,24.4868164v1.7875977l13.9404297,2.7353516
	C13.9047852,28.7646484,13.972168,28.5488281,13.9345703,28.3994141z"/>
<path fill="#2B2B2B" d="M30.6699219,30.6923828c-0.0449219,0.0322266-0.1337891,0.0546875-0.1396484,0.0585938L30.4375,30.7880859
	l-0.0869141-0.0087891c-0.0126953-0.0009766-0.3076172-0.0322266-0.8574219,0.0009766
	c-0.5449219,0.0351563-1.1396484,0.4863281-1.7080078,0.9228516c-0.0654297,0.0507813-0.0498047,0.1171875-0.1416016,0.1904297
	L48,35.9306641v-1.8066406L30.6699219,30.6923828z"/>
<path fill="#2B2B2B" d="M28.8115234,8.6298828c-0.1591797-0.0751953-0.5087891-0.5356445-0.5087891-0.5356445
	s0,0-0.0126953,0.2368164C28.28125,8.4990234,28.3574219,8.7226563,28.3642578,8.815918
	c0.6152344,0.3891602,1.0478516,0.902832,1.1689453,1.043457c-0.0253906-0.1616211-0.1865234-0.5219727-0.2861328-0.7080078
	C29.1494141,8.9638672,28.9736328,8.7036133,28.8115234,8.6298828z"/>
<path fill="#2B2B2B" d="M29.9179688,7.3369141c-0.0751953,0.012207-0.421875,0.5966797-0.6210938,0.6708984
	c-0.1972656,0.0751953-0.4599609-0.1733398-0.5957031-0.1484375C28.5625,7.8833008,28.4648438,7.9829102,28.4648438,7.9829102
	s0.2490234,0.3110352,0.3105469,0.4472656c0.0615234,0.1367188,0.2382813,0.0375977,0.5097656,0.6088867
	C29.5,9.4907227,29.5449219,9.8359375,29.5419922,9.8837891c0.0751953,0.2084961,0.2148438,0.6210938,0.2148438,0.6210938
	s0.6708984-0.6948242,0.6210938-1.3911133c-0.0341797-0.4819336-0.1308594-1.0874023-0.25-1.5834961
	C30.1171875,7.515625,29.9892578,7.3242188,29.9179688,7.3369141z"/>
<path fill="#2B2B2B" d="M31.4082031,16.8037109c-1.0058594-1.6772461-3.2412109-3.2431641-3.2792969-3.3911133
	c-0.0371094-0.1499023-1.0810547-1.7529297-1.1542969-2.9448242c-0.0751953-1.1933594,0.0732422-2.2739258,0.9306641-1.9008789
	C28.0283203,8.6201172,28.1464844,8.6835938,28.2597656,8.75c-0.0400391-0.0795898-0.0644531-0.1762695-0.0800781-0.2944336
	c-0.0253906-0.1743164-0.1113281-0.3232422-0.1865234-0.4228516c-0.0751953-0.0986328-0.5107422,0.0996094-0.5107422,0.0996094
	c0.1386719-0.2114258,0.3349609-0.2978516,0.5224609-0.3110352c0.1865234-0.012207,0.3847656-0.0375977,0.5214844-0.1113281
	c0.1376953-0.0742188,0.4589844,0.0737305,0.6962891,0.0864258c0.2363281,0.0131836,0.5712891-0.6831055,0.7207031-0.6206055
	c0.0722656,0.0302734,0.1171875,0.1157227,0.1445313,0.1948242c-0.0419922-0.1572266-0.0859375-0.3027344-0.1318359-0.418457
	c0.1982422-0.3725586,0.4667969-0.8422852,0.3681641-1.1401367c-0.0986328-0.2983398-0.5566406-0.5561523-0.9033203-0.9033203
	c-0.3505859-0.3476563-1.1054688-0.987793-2.0244141-0.8378906c-0.4130859,0.0664063-0.6542969,0.1225586-0.8037109,0.1640625
	c-0.1582031,0.199707-0.5048828,0.5673828-0.4892578,0.7294922c0.0253906,0.2485352-0.0742188,1.1928711-0.2216797,1.4160156
	c-0.1503906,0.2241211-0.4472656,0.496582-0.6474609,0.5214844C25.0361328,6.9267578,24.6875,6.8276367,24.6875,6.8276367
	s0.5966797,0.0742188,0.8945313-0.2231445c0.2998047-0.2983398,0.4707031-1.3671875,0.2998047-1.7143555
	c0.1640625-0.2299805,0.2880859-0.4233398,0.4443359-0.5737305C26.1191406,4.3125,25.3076172,4.3369141,24.8125,4.9404297
	c-0.5717773,0.6943359-0.2729492,1.7382813-0.2729492,1.7382813s-0.0180664,0.0600586-0.0463867,0.1601563
	c-0.0942383,0.3388672-0.2963867,1.1313477-0.2773438,1.6289063c0.0249023,0.6459961,0.4482422,2.9321289,0.5717773,3.1049805
	c-0.4223633,0.2988281-0.347168,0.25-1.4165039,0.25c0,0-4.9936523,0-7.1298828,3.6010742
	c-2.137207,3.6030273-2.3110352,3.9750977-2.5341797,4.8950195c-0.2246094,0.9194336-0.0996094,2.0117188-0.4477539,2.6333008
	c-0.3476563,0.6210938-1.5644531,2.1855469-0.894043,3.578125c0.6704102,1.3916016,1.5888672,1.0185547,1.7885742,1.8144531
	c0.1987305,0.7939453,0.3481445,3.1054688,0.5961914,3.5507813c0,0,0.0751953-1.75,0.559082-1.6738281
	c0.4848633,0.0722656,0.3349609,1.0791016,0.3349609,1.0791016s0.0375977,0.6328125,0.4111328,0.7460938
	c-0.0751953,0.5576172-0.9326172,3.8378906-1.9013672,5.328125c1.2670898-1.3427734,1.6401367-1.7148438,1.9013672-1.9755859
	c0.5205078-0.2236328,0.8935547-0.4853516,1.1914063-0.8945313c0.2978516-0.4101563,0.4477539-0.7451172,0.4477539-0.7451172
	l-0.2236328,2.125c0,0,0.4472656-0.8574219,0.7080078-1.3798828c0.2607422-0.5205078,1.2670898-2.1611328,2.012207-2.0498047
	c0.7451172,0.1142578,1.6772461,1.3798828,1.7148438,3.0566406c0.0366211,1.6767578-0.0375977,2.6464844,0.1865234,3.5039063
	c0.2607422-1.0078125,0.2978516-1.9003906,0.5214844-2.1621094c0.2236328-0.2607422,1.2666016-1.9755859,1.8266602-2.6083984
	c0.5581055-0.6328125,2.5703125-2.2363281,3.2050781-2.7216797c0.6318359-0.484375,1.2294922-0.9306641,1.8261719-0.96875
	c0.5966797-0.0371094,0.8935547,0,0.8935547,0s0.7822266-0.4472656,1.2675781-1.5273438
	c0.484375-1.0820313,0.96875-2.125,0.7431641-2.7578125c-0.2216797-0.6337891-0.1464844-1.3041992,0.0761719-2.9077148
	C32.6757813,21.7597656,32.4160156,18.4794922,31.4082031,16.8037109z M12.5883789,25.7304688
	c0-0.2382813,0.1914063-0.4296875,0.4282227-0.4296875s0.4291992,0.1914063,0.4291992,0.4296875
	c0,0.2353516-0.1923828,0.4277344-0.4291992,0.4277344S12.5883789,25.9658203,12.5883789,25.7304688z M13.6137695,27.3496094
	c-0.237793,0-0.4287109-0.1914063-0.4287109-0.4287109c0-0.2363281,0.190918-0.4287109,0.4287109-0.4287109
	c0.2363281,0,0.4282227,0.1923828,0.4282227,0.4287109C14.0419922,27.1582031,13.8500977,27.3496094,13.6137695,27.3496094z
	 M13.875,25.2285156c-0.2373047-0.0019531-0.4282227-0.1933594-0.4262695-0.4301758
	c0.0009766-0.2363281,0.1948242-0.4277344,0.4316406-0.4262695c0.2363281,0.0014648,0.4267578,0.1933594,0.4262695,0.4306641
	C14.3041992,25.0390625,14.1108398,25.2304688,13.875,25.2285156z M29.9931641,15.6479492
	c0.7441406,0.3354492,1.3779297,1.9755859,1.0429688,1.378418c-0.3359375-0.5957031-0.8935547-0.8569336-1.0068359-0.8945313
	c-0.1113281-0.0371094-1.1923828-0.5214844-1.1923828-0.5214844C29.1044922,15.5683594,29.2470703,15.3120117,29.9931641,15.6479492
	z M26.8867188,5.7099609c0.0126953-0.1611328,0.0634766-0.0996094,0.1748047-0.2109375
	c0.0664063-0.065918,0.1552734-0.015625,0.2558594,0.0654297c0.0644531-0.097168,0.1650391-0.1640625,0.2861328-0.1640625
	c0.1943359,0,0.3515625,0.1694336,0.3515625,0.3779297c0,0.1352539-0.0683594,0.2475586-0.1679688,0.3154297
	c0.0625,0.1289063,0.0996094,0.2553711,0.1054688,0.324707c0.0126953,0.1357422-0.0605469,0.2978516-0.1962891,0.3100586
	c-0.1376953,0.0126953-0.5214844-0.2607422-0.6982422-0.4350586C26.8242188,6.1201172,26.8867188,5.7099609,26.8867188,5.7099609z
	 M23.9921875,14.7905273c0.2983398-1.1176758,0.890625-3.1743164,0.890625-3.1743164
	c0.0537109,1.2905273-0.543457,3.6831055-1.1025391,5.8071289C23.2216797,19.5478516,22.465332,21.7597656,20.75,23.3999023
	c-1.6962891,1.6206055-4.0615234,6.8217773-4.6948242,7.6391602c0.1108398-0.2958984,1.4155273-2.90625,2.3095703-5.0683594
	c0.8945313-2.1601563,2.6489258-3.4633789,3.3540039-4.9931641C23.4575195,17.2094727,23.6743164,15.9858398,23.9921875,14.7905273z
	 M22.3901367,13.1884766c0.6704102,0.4462891,1.4902344,0.894043,1.2294922,0.894043s-0.5966797-0.074707-1.5273438-0.6699219
	c-0.9326172-0.5966797-2.8701172-0.3730469-2.8701172-0.3730469C20.2280273,12.5917969,21.71875,12.7402344,22.3901367,13.1884766z
	 M18.3647461,15.4619141c0.8574219-0.1499023,2.7949219,0.0742188,3.9506836-0.4477539
	c1.15625-0.5214844,1.3041992-0.2973633,1.3041992-0.2973633s-1.6020508,1.1923828-4.2856445,1.0791016
	c-1.8632813-0.1479492-2.7949219,0.8950195-3.2421875,0.9702148C16.0917969,16.7661133,17.5078125,15.6103516,18.3647461,15.4619141
	z M18.1416016,18.2563477c2.1621094-1.4526367,4.0996094-1.9750977,4.5839844-2.2353516
	c-0.559082,0.5952148-3.5776367,1.9365234-4.1743164,2.3847656c-0.5961914,0.4472656-2.7207031,2.3476563-3.4287109,3.7260742
	C15.1225586,22.1318359,15.9799805,19.7104492,18.1416016,18.2563477z M14.9736328,29.0634766
	c0.112793-0.6708984,0.1860352-2.2353516,0.6342773-3.3515625c0.4472656-1.1201172,1.6762695-3.8037109,3.0185547-5.0708008
	c1.3408203-1.2666016,3.3911133-2.831543,3.3911133-2.831543c-1.6777344,1.527832-3.5405273,3.6147461-4.6958008,5.5522461
	C16.1660156,25.3007813,15.4951172,27.3134766,14.9736328,29.0634766z M15.5327148,35.1025391
	c0.5224609-0.9677734,6.4521484-8.2470703,8.0493164-12.112793c2.3105469-5.5898438,2.7597656-11.5908203,2.7597656-11.5908203
	c0.2236328,7.5283203-2.237793,12.112793-3.2070313,13.6782227C22.1665039,26.6416016,15.5327148,35.1025391,15.5327148,35.1025391z
	 M28.0175781,27.1259766c-0.1123047,0.6728516-1.4169922,2.4599609-2.0507813,3.5400391
	c-0.6328125,1.0820313-1.8999023,3.1689453-1.8999023,3.1689453s0.597168-1.1181641,1.1918945-2.609375
	c0.5976563-1.4902344,1.8652344-3.2050781,2.2373047-4.3974609c0.3710938-1.1923828,0.2978516-2.6088867,0.2978516-2.6088867
	C28.2041016,25.4863281,28.1289063,26.4550781,28.0175781,27.1259766z M29.1474609,19.5986328
	c-0.2666016,2.1445313-1.8691406,5.1040039-3.6582031,7.7148438C24,29.4853516,23.1098633,33.4101563,22.4516602,36.1269531
	l-0.0048828,0.0019531c-0.097168,0.4003906-0.3286133,1.3574219-0.3608398,1.46875
	c-0.0068359-0.1337891,0.859375-5.1162109,1.4707031-7.4160156c0.6635742-2.4990234,3.0605469-5.5517578,4.5908203-9.6518555
	C29.6738281,16.4306641,27,11.1015625,27,11.1015625v-0.1494141C28,12.7788086,29.4462891,17.2124023,29.1474609,19.5986328z
	 M29.5078125,27.0136719c-0.0751953-0.8935547,0.1279297-1.3183594,0.0527344-2.921875
	c-0.0732422-1.6020508-0.4609375-2.3320313-0.4609375-2.3320313c0.5576172,0.6713867,0.4082031,0.3354492,0.7431641,1.4541016
	c0.3369141,1.1171875-0.0351563,4.0996094-0.2597656,5.1425781C29.2900391,29.71875,29.6054688,28.1865234,29.5078125,27.0136719z
	 M29.7138672,30.3320313c-0.2363281,0-0.4287109-0.1933594-0.4287109-0.4287109
	c0-0.2363281,0.1923828-0.4287109,0.4287109-0.4287109s0.4287109,0.1923828,0.4287109,0.4287109
	C30.1425781,30.1386719,29.9501953,30.3320313,29.7138672,30.3320313z M30.6425781,28.8056641
	c-0.2363281,0-0.4287109-0.1914063-0.4287109-0.4277344s0.1923828-0.4277344,0.4287109-0.4277344
	s0.4277344,0.1914063,0.4277344,0.4277344S30.8789063,28.8056641,30.6425781,28.8056641z M31.2607422,23.6977539
	c0,0,0,0-0.3369141-1.2666016c-0.3349609-1.2670898-1.5263672-2.4243164-1.5263672-2.4243164
	c0.5957031,0.2255859,1.1914063,0.4487305,1.6757813,1.3056641C31.5585938,22.1694336,31.2607422,23.6977539,31.2607422,23.6977539z
	 M30.7001953,18.5917969c-0.4472656-0.3354492-1.2988281-0.7651367-1.2988281-0.7651367
	c0.3720703-0.2602539,1.0751953-0.1293945,1.5585938,0.3183594c0.4863281,0.4467773,0.7099609,1.5654297,0.7099609,1.5654297
	S31.1474609,18.9272461,30.7001953,18.5917969z"/>
<path fill="#2B2B2B" d="M22.1401367,36.0732422c0.0024414,0.2226563,0.0039063,0.4335938,0.0048828,0.6298828
	c0,0.0380859,0.0004883,0.0683594,0.0014648,0.1064453c0.034668-0.2089844,0.0786133-0.4453125,0.1308594-0.7109375
	L22.1401367,36.0732422z"/>
<path fill="#2B2B2B" d="M22.784668,37.0009766c-0.0917969,0.1074219-0.1650391,0.5195313-0.2353516,0.9179688
	c-0.0610352,0.3457031-0.1303711,0.7373047-0.2382813,1.1523438l-0.2182617,0.8408203l-0.21875-0.8388672
	c-0.1723633-0.6582031-0.1762695-1.3759766-0.1811523-2.3681641c-0.0014648-0.2490234-0.0024414-0.4599609-0.0063477-0.7158203
	l-3.6176758-0.6640625c-0.2060547,0.3818359-0.3969727,0.7236328-0.3969727,0.7236328l-0.5498047,1.0244141L17.3188477,35.1875
	l-0.340332-0.0625c-0.2197266,0.1787109-0.4731445,0.3320313-0.7944336,0.4726563
	c-0.1005859,0.1005859-0.2255859,0.2265625-0.4116211,0.4160156c0.6484375,0.5673828,1.4785156,1.3095703,1.6708984,1.5507813
	c0.324707,0.4072266,0.362793,1.2607422,0.5961914,2.4003906c0.2319336,1.1396484,0.4389648,1.5947266,0.8652344,2.9960938
	c0.3789063,1.2470703,1,1.5742188,1.3549805,0.0546875c0.3710938-1.5859375,1.6630859-2.4414063,2.0805664-3.2138672
	c0.4169922-0.7724609,0.8813477-1.9121094,1.0205078-2.2773438c0.1391602-0.3662109,0.2319336-0.6103516,0.6948242-0.7324219
	c0.465332-0.1220703,0.6640625-0.2451172,0.6640625-0.2451172l-1.440918-0.2636719
	C23.0244141,36.6689453,22.8686523,36.9023438,22.784668,37.0009766z M17.9916992,36.9375
	c-0.2363281,0-0.4282227-0.1914063-0.4282227-0.4277344s0.1918945-0.4277344,0.4282227-0.4277344
	s0.4287109,0.1914063,0.4287109,0.4277344S18.2280273,36.9375,17.9916992,36.9375z M18.8950195,38.7451172
	c-0.2363281,0-0.4272461-0.1923828-0.4272461-0.4267578c0-0.2382813,0.190918-0.4287109,0.4272461-0.4287109
	c0.2373047,0,0.4287109,0.1904297,0.4287109,0.4287109C19.3237305,38.5527344,19.1323242,38.7451172,18.8950195,38.7451172z
	 M19.7993164,41.4550781c-0.2373047,0-0.4282227-0.1904297-0.4282227-0.4267578s0.190918-0.4287109,0.4282227-0.4287109
	c0.2363281,0,0.4287109,0.1923828,0.4287109,0.4287109S20.0356445,41.4550781,19.7993164,41.4550781z M19.7993164,36.9375
	c-0.2373047,0-0.4282227-0.1914063-0.4282227-0.4277344s0.190918-0.4277344,0.4282227-0.4277344
	c0.2363281,0,0.4287109,0.1914063,0.4287109,0.4277344S20.0356445,36.9375,19.7993164,36.9375z M20.7026367,39.6484375
	c-0.2363281,0-0.4282227-0.1923828-0.4282227-0.4267578c0-0.2363281,0.1918945-0.4287109,0.4282227-0.4287109
	s0.4287109,0.1923828,0.4287109,0.4287109C21.1313477,39.4560547,20.9389648,39.6484375,20.7026367,39.6484375z
	 M20.7026367,37.8408203c-0.2363281,0-0.4282227-0.1914063-0.4282227-0.4277344s0.1918945-0.4277344,0.4282227-0.4277344
	s0.4287109,0.1914063,0.4287109,0.4277344S20.9389648,37.8408203,20.7026367,37.8408203z"/>
<path fill="#2B2B2B" d="M27.7871094,6.09375c0.0996094-0.0678711,0.1679688-0.1801758,0.1679688-0.3154297
	c0-0.2084961-0.1572266-0.3779297-0.3515625-0.3779297c-0.1210938,0-0.2216797,0.0668945-0.2861328,0.1640625
	c0.0712891,0.0576172,0.1474609,0.128418,0.2285156,0.1958008C27.6435547,5.8398438,27.7265625,5.9682617,27.7871094,6.09375z"/>
<path fill="#2B2B2B" d="M27.6035156,6.1572266c0.0683594,0,0.1289063-0.0263672,0.1835938-0.0634766
	c-0.0605469-0.1254883-0.1435547-0.2539063-0.2412109-0.3334961c-0.0810547-0.0673828-0.1572266-0.1381836-0.2285156-0.1958008
	c-0.0410156,0.0620117-0.0703125,0.1328125-0.0703125,0.2138672C27.2470703,5.9873047,27.4072266,6.1572266,27.6035156,6.1572266z"
	/>
<path fill="#2B2B2B" d="M20.1601563,32.6152344c-0.8564453,0.0146484-1.8706055,2.0429688-1.9179688,2.1376953l3.4277344,0.7255859
	C21.8037109,34.765625,21.015625,32.6005859,20.1601563,32.6152344z"/>
<path fill="#2B2B2B" d="M15.8149414,32.1650391c-0.3388672-0.2402344-0.3813477-0.7822266-0.3852539-0.8525391
	c0.0507813-0.375,0.0146484-0.8554688-0.152832-0.8798828c-0.1264648,0.0703125-0.2822266,0.7724609-0.3120117,1.4736328
	l-0.0322266,0.7607422L14.5615234,32c-0.1523438-0.2744141-0.2524414-1.0039063-0.3867188-2.0839844
	c-0.0117188-0.0927734-0.1264648-0.1845703-0.1391602-0.2763672L0,27.1777344v4.5185547L15.1445313,34.25
	C15.4306641,33.3466797,15.7412109,32.5322266,15.8149414,32.1650391z"/>
<path fill="#2B2B2B" d="M27.1992188,32.2285156c-0.8554688,0.6835938-2.140625,1.6992188-2.5458984,2.1572266
	c-0.2871094,0.3271484-0.6396484,0.9619141-1.0053711,1.5175781L48,40.4482422v-3.8398438L27.1992188,32.2285156z"/>
</svg>