<?xml version="1.0" encoding="utf-8"?>
<!DOCTYPE svg PUBLIC "-//W3C//DTD SVG 1.1//EN" "http://www.w3.org/Graphics/SVG/1.1/DTD/svg11.dtd">
<svg version="1.1" id="iTvorog" xmlns="http://www.w3.org/2000/svg" xmlns:xlink="http://www.w3.org/1999/xlink" x="0px" y="0px" width="100%" height="100%" viewBox="0 0 48 48" preserveAspectRatio="xMidYMid meet">
<path fill="#2B2B2B" d="M20.7563477,11.4223633c0,0-0.5410156-0.0361328-1.081543-0.2163086
	s-1.0449219,0.1801758-1.1533203,0.6489258c-0.1079102,0.46875-0.6850586,0.6850586-0.5405273,1.1176758
	c0.144043,0.4321289,0.3603516,1.0449219,0.4682617,1.152832c0,0-0.2519531-0.8647461,0.2163086-1.0449219
	c0.46875-0.1801758,0.5043945-0.3964844,0.8291016-0.4682617c0.3242188-0.0722656,0.7207031-0.1806641,1.0454102,0.144043
	c0.3242188,0.3242188,0.3242188,0.5405273,0.3242188,0.5405273s-0.0361328-0.5048828-0.1079102-0.9375
	C20.684082,11.9267578,20.7563477,11.4223633,20.7563477,11.4223633z"/>
<path fill="#2B2B2B" d="M25.9111328,24.6503906c-0.1953125,0-0.2597656-0.253418-0.2802734-0.371582
	c0.0107422,0.1118164,0.0175781,0.3540039-0.1171875,0.515625c-0.1796875,0.2163086-0.4326172,0-0.4326172,0
	s0.1445313,0.2885742,0.2529297,0.5766602c0.1074219,0.2880859-0.1445313,0.6132813-0.1445313,0.6132813
	s0.4677734-0.3603516,0.6484375-0.5771484c0.1806641-0.2158203,0.3964844-0.2158203,0.6494141-0.3964844
	c0.2519531-0.1796875-0.0722656-0.5766602-0.0722656-0.5766602S26.1630859,24.6503906,25.9111328,24.6503906z"/>
<path fill="#2B2B2B" d="M19.5664063,18.0185547c-0.2158203-0.3964844,0.144043-0.3603516-0.5043945-0.2163086
	s-0.5766602,0.1801758-0.5766602,0.8291016S17.65625,20.6855469,17.65625,20.6855469s0.6489258-0.3964844,1.1899414-0.9008789
	c0.5400391-0.5043945,0.7924805-0.2163086,0.7924805-0.2163086s-0.1801758-0.4326172,0-0.7929688
	s0.4326172-0.1806641,0.4326172-0.1806641S19.7827148,18.4150391,19.5664063,18.0185547z"/>
<path fill="#2B2B2B" d="M25.6308594,24.2788086c-0.0048828-0.0375977-0.0087891-0.0610352-0.0087891-0.0610352
	S25.6240234,24.2426758,25.6308594,24.2788086z"/>
<path fill="#2B2B2B" d="M10.9160156,24.0737305c-0.2163086-0.2519531-0.2885742,1.0454102-0.4682617,1.3334961
	c0,0,0.4326172-0.0712891,0.7568359-0.0361328c0.324707,0.0361328,0.3603516-0.3959961,0.3603516-0.3959961
	s0.1806641-0.46875,0.144043-0.5766602C11.6733398,24.2900391,11.1323242,24.3261719,10.9160156,24.0737305z"/>
<path fill="#2B2B2B" d="M13.1147461,20.0732422c0,0-0.1079102-0.1445313-0.2519531-0.324707
	c-0.1445313-0.1801758-0.2163086-0.3964844-0.2163086-0.3964844s-0.2524414,0.3603516-0.6489258,0.5766602
	s-0.5405273,0.1801758-0.5405273,0.1801758s-0.0361328,0.2885742-0.0722656,0.7929688
	c-0.0361328,0.5048828-0.1083984,0.5405273,0.2885742,0.7929688c0.3959961,0.2524414,0.2880859,0.8291016,0.2880859,0.8291016
	s0.0722656-0.3964844,0.46875-0.612793c0.3959961-0.2163086,0.7207031-0.6850586,0.7207031-0.6850586
	s-0.2524414-0.3959961-0.324707-0.7207031C12.7543945,20.1811523,13.1147461,20.0732422,13.1147461,20.0732422z"/>
<path fill="#2B2B2B" d="M41.4453125,18.8110352c-0.2158203-0.2519531,0.0361328-0.5043945,0.0361328-0.5043945
	s-0.5410156,0.2880859-0.9736328,0.4326172c-0.4326172,0.144043-0.5761719,0-0.7207031,0.5766602
	s0.0712891,0.7573242,0.4326172,1.2255859c0.3603516,0.4682617,0.7568359,0.6123047,0.7568359,0.6123047
	s0.2529297-0.1074219,0.5410156-0.3237305s0.3603516-0.4326172,0.2158203-0.6489258s0.2167969-0.3608398,0.3964844-0.7211914
	C42.3105469,19.0996094,41.6621094,19.0639648,41.4453125,18.8110352z"/>
<path fill="#2B2B2B" d="M28.3613281,15.6035156c0,0,0.5761719,0.46875,0.7929688,0.2524414
	c0.2158203-0.2163086-0.3603516-0.1445313-0.2880859-0.6489258c0.0712891-0.5048828,0.2880859-1.0092773,0.6484375-0.9731445
	c0.3603516,0.0356445,0.5048828,0.144043,0.5048828,0.144043s-0.1083984-0.2880859-0.0722656-0.7568359
	s-0.0361328-0.7568359-0.6484375-0.6850586c-0.6132813,0.0722656-0.9736328,0-1.3339844,0.2885742
	s-0.6132813,0.2885742-0.6484375,0.8286133c0,0,0.3964844,0,0.7558594,0.3969727
	C28.4335938,14.8466797,28.3613281,15.6035156,28.3613281,15.6035156z"/>
<path fill="#2B2B2B" d="M37.1914063,19.2080078c-0.2158203-0.144043-0.6123047,0.0722656-1.0800781-0.144043
	c-0.4697266-0.2163086-0.9013672-0.3969727-1.6943359-0.1083984c0,0,0.9003906,0.2524414,1.0087891,0.5410156
	c0.1083984,0.2880859,0.2529297,0.3959961,0.5048828,0.2880859c0.2519531-0.1083984,0.5039063-0.1083984,0.6132813-0.1083984
	c0.1074219,0,0.5761719-0.1796875,0.5761719-0.1796875S37.4082031,19.3520508,37.1914063,19.2080078z"/>
<path fill="#2B2B2B" d="M31.2451172,21.2983398c0,0-0.2890625-0.3603516-0.3964844-0.6845703
	c-0.1083984-0.324707,0-0.7568359,0-0.7568359S30.1992188,20.2890625,29.875,20.1811523s-0.5048828-0.0361328-0.5048828-0.0361328
	s-0.2519531,0.6484375-0.5400391,0.6850586c-0.2890625,0.0356445-0.7929688-0.0366211-0.9365234-0.0722656
	c-0.1445313-0.0361328,0.359375,0.5043945,0.1787109,1.0092773c-0.0498047,0.1401367,0.5771484,0.4326172,0.9384766,1.0810547
	c0.359375,0.6489258,0.6845703,1.4780273,0.6845703,1.4780273s0.5761719-0.2524414,0.7568359-0.2163086
	c0.1796875,0.0356445,0.4677734-0.144043,0.4677734-0.144043s-0.2519531-1.0454102-0.1796875-1.5859375
	S31.2451172,21.2983398,31.2451172,21.2983398z"/>
<path fill="#2B2B2B" d="M48,22.1123047c0-1.5566406-0.8173828-3.0307617-2.2753906-4.3500977
	c-0.015625-0.0351563-0.0302734-0.0698242-0.046875-0.1044922c-0.0791016-0.1699219-0.2226563-0.2387695-0.3818359-0.2617188
	c-0.8964844-0.7333984-1.9941406-1.4145508-3.2636719-2.0297852c-0.0625-0.1435547-0.1503906-0.3056641-0.265625-0.4511719
	c-0.1660156-0.2070313-0.5976563-0.1669922-0.9443359-0.09375c-0.1816406-0.0756836-0.3867188-0.1669922-0.5273438,0.0673828
	c-0.0429688-0.1108398-0.1220703-0.4555664-0.234375-0.59375c-0.3300781-0.4018555-0.5976563-0.074707-0.5976563-0.074707
	s-0.1054688-0.034668-0.5273438-0.425293c-0.3271484-0.3032227-0.671875,0-0.671875,0
	c0.0234375-0.2197266,0.2939453-0.6289063,0.0625-0.9375C38.2167969,12.7109375,37.9628906,12.1723633,38,12.0629883
	c0.0361328-0.1098633-0.0371094-0.7675781-0.2929688-0.9873047c-0.2558594-0.2192383-0.2177734,0.0351563-2.0683594-0.5620117
	c-1.9375-0.625-1.5878906-0.7543945-2.1728516-0.8276367c-0.5859375-0.0727539-0.9833984,0.6245117-0.9833984,0.6245117
	s-0.078125-0.5874023-0.9550781-0.6245117c-0.8769531-0.0361328-1.1074219,0.1557617-1.1074219,0.1557617
	s-0.171875-0.3969727-0.7568359-0.5429688C29.078125,9.1523438,26.9169922,8.6386719,24,7.0551758
	c-2.4443359-1.3271484-3.3134766,0.3745117-3.6425781,0.5209961s-0.722168,1.2397461-0.78125,1.0625
	c-0.078125-0.234375,0.2104492-0.8325195-0.484375-1.015625C18.3969727,7.4404297,17.625,8.1699219,16.875,8.6074219
	c-0.8222656,0.4794922-1.3935547,0.3364258-2.125,1.03125c-0.3291016,0.3129883-0.2851563,0.7788086-0.1269531,1.09375
	c-0.09375-0.1875-0.25-0.5961914-0.328125-0.71875c-0.2558594-0.4023438-1.0449219-0.9375-1.9375-0.546875
	c-0.9321289,0.4077148-1.9091797,3.3120117-2.0449219,3.265625c-0.1728516-0.059082-1.6381836-0.2675781-2.1860352-0.1577148
	c-0.5488281,0.1098633-0.8779297,0.6948242-1.3535156,1.5356445c-0.3925781,0.6953125-0.4863281,0.8212891-0.6098633,1.2963867
	C2.5009766,17.1992188,0.277832,19.543457,0.277832,22.1123047c0,1.2949219,0.5629883,2.5742188,1.5805664,3.7783203
	c-0.0263672,0.7695313-0.0615234,4.8964844,2.0234375,7.5039063c2.3071289,2.8828125,2.5595703,2.5585938,2.5595703,2.5585938
	s2.9194336,6.34375,16.7246094,6.34375c13.8046875,0,17.8056641-5.0458984,18.7421875-6.34375
	c1.4052734-1.2607422,2.4150391-2.0185547,3.2080078-3.6044922c0.7871094-1.5732422,1.5703125-5.0917969,1.2304688-6.4140625
	C47.4091797,24.7177734,48,23.4233398,48,22.1123047z M2.6196289,18.8071289
	c0.6137695-0.2490234,0.5043945,0.074707,0.6845703,0.0029297c0.1811523-0.0708008,0.1469727-0.5751953,0.4711914-0.5737305
	s0.2509766,0.3613281,0.5395508,0.2543945c0.2890625-0.1064453-0.1425781-0.3251953,0.1469727-0.5039063
	c0.2885742-0.1787109,0.6469727,0.2553711,0.8276367,0.184082c0.1811523-0.0708008,0.0375977-0.2880859,0.2177734-0.3237305
	c0.1806641-0.034668,0.7192383,0.4003906,1.0454102,0.0048828c0.3261719-0.3945313-0.3935547-0.6142578-0.2094727-1.40625
	c0.1835938-0.7924805,0.2197266-0.7919922,0.6918945-1.6191406C7.5078125,14,7.8344727,13.4248047,8.3754883,13.3188477
	c0.5415039-0.1049805,0.7553711,0.472168,0.7543945,0.6523438c-0.0004883,0.1801758,0.5410156-0.1416016,1.0473633-0.5
	c0.5063477-0.3579102,0.7592773-0.5009766,0.8671875-0.3920898c0.1074219,0.1083984,0.0366211-0.2880859,0.21875-0.6118164
	c0.1811523-0.3237305,0.4750977-1.4760742,0.9086914-1.6181641c0.4331055-0.1420898,0.5766602-0.0698242,0.5766602-0.0698242
	s-0.5380859-0.4707031-0.140625-0.7211914c0.3969727-0.25,1.1181641-0.2114258,1.2963867,0.2583008
	c0.1777344,0.4692383,0.2495117,0.6142578,0.2495117,0.6142578s0.2407227-0.2036133,0.4916992,0.1943359
	c0.25,0.3974609-0.1708984,0.6357422,0.0083008,0.7446289c0.1796875,0.1088867,0.7543945,0.5800781,0.7919922,0.2202148
	c0.0375977-0.3603516-1.1118164-1.1948242-0.3876953-1.8764648c0.7236328-0.6811523,1.1176758-0.0668945,1.1176758-0.0668945
	s-0.1411133-0.5776367,0.5087891-0.9350586c0.6503906-0.3569336,1.1181641-0.1386719,1.1181641-0.1386719
	s0.1474609-0.684082,0.8310547-0.5009766c0.684082,0.1835938,0.8251953,0.8686523,0.7880859,1.0493164
	c-0.0361328,0.1791992,0.2875977,0.2172852,0.5024414,0.5063477c0.215332,0.2895508-0.0024414,0.5766602,0.2143555,0.5058594
	c0.2163086-0.0712891,0.6499023-0.394043,0.5068359-0.6108398s-0.6826172-0.4355469-0.5722656-0.9394531
	s0.543457-0.6103516,0.543457-0.6103516s-0.2861328-0.5058594,0.0390625-0.6489258
	c0.324707-0.1425781,0.7563477,0.1118164,0.7563477,0.1118164s0.2548828-0.5390625,0.7954102-0.5004883
	c0.5405273,0.0380859,0.6103516,0.5068359,0.6103516,0.5068359s0.3999023-0.6108398,0.8671875-0.4282227
	c0.4677734,0.1821289,0.5004883,0.8310547,0.5004883,0.8310547l0.3974609-0.2143555c0,0,0.2133789,0.6860352,0.5371094,0.7954102
	c0.3242188,0.1098633,0.1455078-0.2875977,0.3984375-0.2861328c0.2519531,0.0009766,0.9345703,0.2919922,1.1142578,0.581543
	c0.1787109,0.2890625,0.2861328,0.5419922,0.2861328,0.5419922s0.2890625-0.1435547,0.9375-0.0322266
	c0.6474609,0.1108398,0.5732422,0.543457,0.5732422,0.543457s0.6162109-0.5742188,1.1923828-0.4272461
	c0.5751953,0.1469727,0.5732422,0.6875,0.5732422,0.6875s0.3964844,0.0019531,1.2617188,0.0419922
	s1.1875,0.2578125,1.1875,0.2578125s0.1455078-0.3242188,0.7216797-0.2490234
	c0.5761719,0.0742188,0.5390625,0.5791016,0.5390625,0.5791016s0.2890625-0.2504883,0.8291016-0.0317383
	c0.5390625,0.2182617,0.7890625,0.6518555,0.7890625,0.6518555s0.1464844-0.2880859,0.7216797-0.2128906
	c0.5771484,0.0742188,0.5751953,0.4345703,0.5751953,0.4345703s0.4697266-0.25,0.7207031-0.0322266
	c0.2509766,0.2172852,0.3212891,0.8666992,0.2851563,0.9741211c-0.0380859,0.1083984-0.0029297,0.5043945,0.1044922,0.6494141
	c0.1074219,0.1445313,0.0332031,0.612793,0.0332031,0.612793s0.3603516-0.0703125,0.7197266,0.184082
	c0.359375,0.253418,0.5742188,0.6870117,0.5742188,0.6870117s0.2539063-0.3950195,0.5771484,0.0024414
	c0.3212891,0.3984375,0.2841797,0.7226563,0.2841797,0.7226563s1.1191406-0.3916016,1.40625-0.0297852
	s0.3925781,0.8310547,0.3925781,0.8310547s0.5039063,0.0019531,0.6835938,0.2548828
	c0.1787109,0.253418-0.0410156,0.9736328-0.0410156,0.9736328s0.6503906-0.1416016,1.2265625,0.0410156
	c0.5751953,0.1835938,0.4287109,0.5068359,0.4287109,0.5068359s0.9033203-0.4282227,1.1542969,0.1137695
	c0.2490234,0.5415039,0.4628906,1.1191406-0.5498047,1.7270508c0.2128906,0.7583008,0.1396484,1.1176758-0.078125,1.4775391
	c-0.21875,0.359375-0.796875,0.8613281-0.796875,0.8613281s0.0332031,0.4692383-0.4003906,0.7553711
	s-0.9746094,0.2119141-1.0830078,0.4272461c-0.109375,0.2158203,0.0341797,0.46875-0.1474609,0.7924805
	c-0.1826172,0.3237305-1.1201172,0.6083984-1.1201172,0.6083984s-0.0019531,0.3603516-0.5429688,0.7177734
	c-0.5439453,0.3583984-3.2890625,1.859375-3.3242188,1.5351563c-0.0351563-0.3251953,0.0019531-0.46875,0.0751953-0.7929688
	c0.0742188-0.3242188-0.3212891-0.6152344-0.2871094-0.2890625c0.0351563,0.3242188-0.0400391,0.9716797-0.0400391,0.9716797
	s-1.2636719,0.5-2.0947266,0.7119141c-0.8300781,0.2128906-2.4179688,0.6728516-4.1123047,0.9179688
	c-1.6953125,0.2460938-8.1835938,0.4677734-8.1835938,0.4677734S22.3208008,30,22.1054688,29.8183594
	c-0.2158203-0.1816406-0.2866211-0.3984375-0.2866211-0.3984375s0.109375-0.2519531,0.1479492-0.7929688
	c0.0385742-0.5400391-0.4643555-0.9023438-0.4658203-0.578125s-0.472168,0.71875-0.6884766,0.7177734
	s-0.0380859,0.4677734-0.0380859,0.4677734s-4.9726563-0.2744141-5.440918-0.4570313
	c-0.4672852-0.1826172-0.8984375-0.5439453-0.6079102-0.9042969c0.2895508-0.3583984,0.7226563-0.5009766,0.7226563-0.5009766
	s-0.7338867,0.1142578-0.9370117,0.0322266c-0.5395508-0.21875-0.5048828,0.0332031-0.8642578-0.2207031
	s-0.2529297,0.2509766-0.8671875,0.3925781c-0.6132813,0.1416016-0.5776367,0.3935547-1.0102539,0.3193359
	c-0.4321289-0.0732422-3.5307617-0.4111328-7.0112305-3.7441406c-0.3232422-0.253418-0.609375-0.831543-0.5722656-1.0112305
	c0.0366211-0.1801758,0.1450195-0.1796875-0.1069336-0.3251953c-0.2514648-0.1455078-0.4316406-0.2900391-0.2861328-0.5058594
	c0.1450195-0.2158203,0.1821289-0.3955078-0.0693359-0.6132813c-0.2509766-0.2172852-0.503418-0.2182617-0.3583984-0.3618164
	c0.1445313-0.1435547,0.2529297-0.1074219,0.2529297-0.1074219S3.3671875,20.9013672,2.8657227,20.25
	C2.3642578,19.5991211,2.0063477,19.0566406,2.6196289,18.8071289z M45.4042969,20.6347656
	c0,5.6376953-8.0878906,9.9482422-21.265625,9.9482422c-13.1782227,0-21.409668-4.1298828-21.409668-9.7680664
	c0-0.097168,0.0292969-0.012207,0.0356445-0.1083984c0.3579102,5.5043945,8.4223633,9.300293,21.3740234,9.300293
	c12.9521484,0,20.9082031-4.0126953,21.265625-9.5166016C45.4111328,20.5864258,45.4042969,20.5380859,45.4042969,20.6347656z
	 M24.1074219,33.6386719c-11.7211914,0-17.9106445-3.8378906-20.5839844-6.1591797
	c4.1079102,3.2519531,11.7158203,5.6279297,20.4902344,5.6279297c9.3984375,0,17.5878906-2.7255859,21.5146484-6.3330078
	C43.4863281,28.7998047,37.3271484,33.6386719,24.1074219,33.6386719z"/>
<path fill="#2B2B2B" d="M25.6308594,24.2788086c-0.0048828-0.0375977-0.0087891-0.0610352-0.0087891-0.0610352
	S25.6240234,24.2426758,25.6308594,24.2788086z"/>
</svg>