<?xml version="1.0" encoding="utf-8"?>
<!DOCTYPE svg PUBLIC "-//W3C//DTD SVG 1.1//EN" "http://www.w3.org/Graphics/SVG/1.1/DTD/svg11.dtd">
<svg version="1.1" id="iUtka" xmlns="http://www.w3.org/2000/svg" xmlns:xlink="http://www.w3.org/1999/xlink" x="0px" y="0px" width="100%" height="100%" viewBox="0 0 48 48" preserveAspectRatio="xMidYMid meet">
<path fill="#2B2B2B" d="M20.6035156,38.8085938c-0.1142578-0.6591797,0.1445313-0.4873047-0.2578125-1.1191406
	c-0.4013672-0.6298828-2.0898438-2.9804688-2.1777344-3.3232422c-0.4580078-0.1425781-1.0302734-0.4003906-1.2021484-0.2011719
	c-0.1728516,0.2011719-0.5166016,1.0908203-0.9746094,1.5488281c-0.4580078,0.4570313-1.1455078,0.5419922-1.3173828,0.6591797
	c-0.1708984,0.1142578-0.7744141,0.6865234-0.6308594,0.9443359c0,0,0.6591797,1.0888672,1.4316406,0.8027344
	c0.7744141-0.2861328,1.546875-1.0322266,1.7197266-0.7167969c0.171875,0.3154297,0.34375,1.4052734,0.2304688,1.4902344
	c-0.1152344,0.0859375-0.1152344,0.0859375-0.1152344,0.0859375s-0.2587891,0.0283203-0.0859375,0.1152344
	c0.171875,0.0839844,0.5439453-0.0283203,0.6865234-0.2011719c0.1425781-0.171875,0.0849609,0.7167969-0.0576172,1.1738281
	c-0.1425781,0.4589844-0.3720703,1.2890625-0.5722656,1.1748047s0.0292969,0.2861328,0.4589844,0.0859375
	c0.4287109-0.2001953,0.2558594,0.1416016,0.1425781,0.2578125c-0.1142578,0.1152344-0.5722656,0.0585938-0.5722656,0.0585938
	s0.0849609,0.6025391,0.7431641,0.6025391c0.6591797,0,0.9169922-0.6025391,1.0898438-0.5166016
	c0.1708984,0.0849609,0.4853516,0.2568359,0.1142578,0.34375c-0.3720703,0.0849609-0.5732422,0.1425781-0.5732422,0.1425781
	s0.4580078,0.4873047,1.0898438-0.0283203c0.6298828-0.5166016,0.7441406-0.8603516,0.8867188-1.1181641
	C20.8046875,40.8115234,20.7177734,39.4677734,20.6035156,38.8085938z"/>
<path fill="#2B2B2B" d="M26.9472656,42.5722656c-0.34375,0.0849609-1.6054688,0.7148438-2.2070313,0.5703125
	c-0.6005859-0.140625-1.2871094-0.2861328-1.4609375-0.5986328c-0.171875-0.3164063-0.1132813-0.4316406-0.2275391-0.6904297
	c-0.1152344-0.2568359,0.3291016-1.1738281,0.3564453-1.6894531C23.4394531,39.6494141,24,36.8691406,24,36.5830078
	s0-0.4003906,0-0.4003906s-1.71875,0.8847656-2.2363281,1.0576172c0,0,0.2646484,2.1503906,0.2646484,2.8378906
	c0,0.6884766-0.5483398,2.2207031-0.6645508,2.6806641c-0.1132813,0.4560547-0.2485352,0.9511719-0.1020508,1.0087891
	c0.1435547,0.0556641,0.0493164-0.5146484,0.2202148-0.3974609c0.1728516,0.1142578-0.3032227,0.7158203,1.2709961,0.6015625
	c1.1171875-0.0791016,2.5712891-0.1904297,3.2568359-0.2470703c0.2099609-0.0175781,0.3427734-0.0292969,0.3730469-0.0341797
	c-0.0029297-0.0009766-0.0195313-0.0039063-0.0039063-0.0039063c0.0136719,0,0.0126953,0.0019531,0.0019531,0.0039063
	c0.0527344,0.0136719,1.5458984,0.1044922,2-0.0019531c0.4882813-0.1152344,0.8574219-0.4580078,1-0.3164063
	c0.1435547,0.1445313,0.7177734-0.2294922-0.9140625-0.4003906C26.8339844,42.8017578,27.2900391,42.484375,26.9472656,42.5722656z"
	/>
<path fill="#2B2B2B" d="M16.0234375,22.1220703c0.4150391,0.3935547,0.9267578,0.402832,1.1484375,0.3847656
	c0.3388672-0.237793,0.6777344-0.472168,1.0097656-0.6958008c-0.5117188-0.1025391-1.1904297-0.5327148-1.5566406-0.7773438
	c-0.3115234-0.2080078-0.859375-0.7866211-1.1728516-1.1157227c-0.0273438,0.0229492-0.0634766,0.0478516-0.0878906,0.0698242
	c-0.0576172,0.0454102-0.1210938,0.1113281-0.1806641,0.1669922c0.0654297,0.1914063,0.140625,0.4526367,0.2080078,0.7929688
	C15.5078125,21.5209961,15.4794922,21.6054688,16.0234375,22.1220703z"/>
<path fill="#2B2B2B" d="M17.8847656,21.2060547c0.2607422,0.1948242,0.4560547,0.3217773,0.5957031,0.4111328
	c0.3330078-0.2172852,0.6591797-0.4248047,0.9746094-0.6157227c-0.2050781-0.0419922-0.5341797-0.1396484-1.0244141-0.3691406
	c-0.6435547-0.3017578-1.1445313-1.2895508-1.3876953-1.855957c-0.2246094,0.1469727-0.4423828,0.293457-0.6474609,0.4379883
	c0.0351563,0.2265625,0.0771484,0.5058594,0.1708984,0.7304688C16.7089844,20.2885742,17.0830078,20.6040039,17.8847656,21.2060547z
	"/>
<path fill="#2B2B2B" d="M15.8017578,23.5073242c0.2939453-0.2231445,0.59375-0.4433594,0.8955078-0.6616211
	c-0.3505859-0.0024414-0.7998047-0.1142578-1.390625-0.3515625c-0.4130859-0.1650391-0.8681641-0.7241211-1.1835938-1.1743164
	c-0.1621094,0.2045898-0.3222656,0.4169922-0.4833984,0.637207c0.2392578,0.6313477,0.3349609,0.8120117,0.7509766,1.2827148
	C14.7636719,23.6640625,15.59375,23.543457,15.8017578,23.5073242z"/>
<path fill="#2B2B2B" d="M19.5722656,20.9287109c0.2578125-0.1542969,0.5078125-0.300293,0.7431641-0.4296875
	c-0.0927734-0.0581055-0.4267578-0.2749023-1.1416016-0.8696289c-0.5654297-0.472168-0.78125-1.1748047-0.8632813-1.6025391
	c-0.1855469,0.0996094-0.3710938,0.199707-0.5556641,0.3081055c0.1611328,0.402832,0.3769531,0.8222656,0.7314453,1.4375
	C18.8037109,20.3212891,19.3193359,20.7441406,19.5722656,20.9287109z"/>
<path fill="#2B2B2B" d="M40.4804688,13.8823242c-0.3007813-0.3916016-4.3378906-3.1279297-4.7558594-4.6259766
	c-0.4296875-0.2084961-0.8720703-0.6640625-0.9248047-0.8208008c-0.0517578-0.1567383-0.4433594,0.9384766-0.7041016,1.3935547
	c-0.2431641,0.4262695-0.8847656,0.8603516-0.9628906,0.8603516c-0.0126953,0-0.0234375,0.0146484-0.03125,0.0351563
	c0.0615234,0.0424805,2.4091797,1.6347656,4.0166016,2.6870117l1.3759766,0.8652344
	c-1.3417969-0.4882813-4.9423828-2.8520508-5.4648438-3.1977539c-0.0244141,0.1210938-0.0595703,0.2436523-0.1191406,0.3271484
	c0,0,2.7753906,1.5761719,3.296875,1.8369141c0.5205078,0.2607422,2.1757813,1.1601563,2.6699219,1.3037109
	c0.4960938,0.1430664,1.7216797,0.3779297,1.8242188,0.1166992C40.8066406,14.4033203,40.7802734,14.2729492,40.4804688,13.8823242z
	 M36.5908203,12.5463867c-1.7314453-0.2084961-2.5341797-2.4760742-2.5341797-2.4760742
	c0.15625-0.1821289,0.6582031-1.2763672,0.6582031-1.2763672s0.2802734-0.2666016,0.7753906,1.230957
	c0.4960938,1.4990234,1.2832031,1.7529297,1.5566406,2.1308594C37.3212891,12.5332031,36.8925781,12.5463867,36.5908203,12.5463867z
	"/>
<path fill="#2B2B2B" d="M34.640625,18.1416016c-0.0058594-0.0239258-0.0117188-0.0478516-0.0175781-0.0722656
	c-0.0068359-0.0258789-0.0117188-0.0512695-0.0185547-0.0776367c-0.2548828-1.0234375-0.7226563-1.8969727-1.1933594-2.5791016
	c-0.0527344-0.0708008-0.0810547-0.1484375-0.1601563-0.2114258c-0.0058594-0.0058594-0.0117188-0.0112305-0.0185547-0.0166016
	c-0.1132813-0.1499023-0.2285156-0.2939453-0.3486328-0.4262695c-0.9199219-1.0244141-2.6054688-2.6225586-2.6054688-2.6225586
	s0.2949219-0.347168,0.5556641-0.5214844c0.2607422-0.1733398,1.0244141,0.0180664,1.3730469,0
	c0.3466797-0.0170898,0.7998047,0.0185547,0.7998047,0.0185547s-0.0625-0.0615234-0.1923828-0.2089844
	c-0.0068359-0.0087891,0.0273438-0.1044922,0.0693359-0.3212891c0.0439453-0.2172852,0.0351563-0.5043945,0.0351563-0.5043945
	s0.7734375-0.5732422,0.9296875-0.859375c0.1572266-0.2871094,0.7128906-1.1557617,0.8076172-1.4951172
	c0.4863281,0.3652344,0.8173828,0.6699219,1.0341797,0.7216797c-0.0166016-0.390625-0.0957031-2.0068359-0.8867188-2.9101563
	c-0.7890625-0.9038086-3.1445313-2.0844727-4.8369141-2.1108398C28.2714844,3.918457,25.1044922,4.25,24.2709961,6.9790039
	C23.644043,9.03125,24.0839844,10.5019531,24.4375,11.3959961c0.3540039,0.8955078,1.9648438,2.2236328,1.5019531,2.6088867
	c-3.8457031,1.0244141-7.1142578,3.7607422-7.2441406,3.824707c0.0478516,0.0693359,0.0957031,0.1557617,0.1347656,0.2817383
	c0.2001953,0.6303711,0.5439453,1.0605469,1.5185547,2.0332031c0.0888672,0.0893555,0.1572266,0.1616211,0.2148438,0.2250977
	c0.546875-0.2875977,1.0292969-0.5039063,1.3886719-0.597168c1.3759766,0.2294922,1.5761719,0.34375,0.8037109,0.5449219
	c-0.7734375,0.2006836-2.9785156,1.0019531-3.4960938,1.375c-0.5146484,0.3720703-6.1015625,4.125-6.9619141,5.5585938
	c-0.8583984,1.4306641-2.6054688,5.0986328-2.9794922,6.1875c0,0,1.2607422-4.7255859,2.6083984-6.5039063
	c0.4902344-0.6455078,2.6650391-2.5385742,2.4052734-2.378418c-0.7324219-0.1708984-1.2265625-0.7929688-1.5410156-1.3452148
	c-0.3515625,0.5551758-0.6689453,1.0942383-0.9082031,1.546875c-0.7734375,1.4619141-1.1162109,3.5244141-1.1162109,3.5244141
	S9.734375,29.1416016,9.21875,30.2148438c-0.5166016,1.0751953-0.6455078,3.1796875-0.7294922,3.6953125
	c-0.0869141,0.5175781-0.1728516,2.2783203-0.1728516,2.2783203s0.3427734,0.0439453,0.5146484,0.1279297
	c0.1728516,0.0878906-1.5888672,2.5351563-1.5888672,2.5351563c0.1572266,0.2294922,0.3867188,0.34375,0.7587891,0.3173828
	c0.3730469-0.0273438,0.6015625-0.2304688,0.8300781-0.171875c0.2304688,0.0576172,0.6035156,0,0.8320313-0.3164063
	c0.2285156-0.3154297,0.3427734,0.0283203,0.7158203-0.1132813c0.3730469-0.1435547,0.5742188-0.5742188,0.9736328-0.7460938
	c0.4023438-0.1728516,0.6015625-0.4580078,0.9169922-0.8007813c0.2001953,0.0996094,0.7597656,0.1445313,0.8183594,0.1787109
	c0.1357422-0.1337891,1.5341797-1.2216797,2.4482422-1.8652344c0.6162109-0.4355469,0.9541016-1.765625,1.9667969-1.8222656
	c1.0117188-0.0595703,1.6474609,1.5039063,2.1972656,2.1679688c0.6933594,0.8378906,0.9023438,1.4140625,1.5322266,1.15625
	c0.6318359-0.2568359,2.0957031-0.9921875,2.9853516-1.6210938c0.109375-0.078125,0.2304688-0.1777344,0.3652344-0.2949219
	c-0.2021484-0.0253906-0.3837891-0.1132813-0.4697266-0.328125c-0.2128906-0.5322266-0.0683594-1.8535156,0.1445313-1.0732422
	c0.1630859,0.6113281,0.4462891,0.9052734,0.6884766,1.0625c0.3505859-0.3408203,0.7626953-0.7714844,1.2412109-1.2792969
	c0.0039063-0.0058594,0.0087891-0.0136719,0.0146484-0.015625c0.1367188-0.1435547,0.2773438-0.2958984,0.4228516-0.4511719
	c-0.1845703-0.0322266-0.3466797-0.1240234-0.4306641-0.3261719c-0.2119141-0.5302734-0.0654297-1.8525391,0.1445313-1.0703125
	c0.1533203,0.5654297,0.4082031,0.859375,0.6367188,1.0234375c0.4951172-0.5273438,1.046875-1.109375,1.6533203-1.7324219
	c-0.1533203-0.0439453-0.2841797-0.1318359-0.3515625-0.3017578c-0.2119141-0.53125-0.0693359-1.8535156,0.1435547-1.0722656
	c0.1416016,0.5214844,0.3701172,0.8164063,0.5830078,0.9892578c0.0498047-0.0498047,0.0898438-0.09375,0.1396484-0.1445313
	c2.4365234-2.4638672,4.9853516-5.6435547,5.5869141-9.6538086c0.1240234-0.8286133,0.0791016-1.6025391-0.0703125-2.3081055
	C34.6533203,18.206543,34.6474609,18.1738281,34.640625,18.1416016z M12.4980469,36.7617188
	c-0.4570313,0-0.7431641,0.1708984-1.0878906,0.3457031c-0.34375,0.1699219-0.7734375,0.3134766-1.2617188,0.3134766
	c-0.4853516,0-0.8017578-0.1152344-1.03125-0.0849609c-0.2294922,0.0273438,0-0.4882813,0.1445313-0.7177734
	c0.1425781-0.2294922,0.1425781-0.4570313,0-1.03125c-0.1445313-0.5732422,0.0849609-1.6904297,0.0849609-1.6904297
	s-0.0283203,0.2285156,0,0.9169922c0.0292969,0.6875,0.3457031,1.5751953,0.4306641,1.8339844
	c0.0859375,0.2568359,0.2861328,0.4863281,1.0888672,0.3154297c0.8017578-0.1728516,0.5166016-0.3730469,1.0878906-0.3730469
	C12.5273438,36.5898438,12.9560547,36.7617188,12.4980469,36.7617188z M19.0976563,30.6396484
	c-0.2265625,0.0917969-1.0175781,0.3193359-1.2314453-0.2119141c-0.2119141-0.53125-0.0664063-1.8535156,0.1445313-1.0722656
	C18.3759766,30.7080078,19.3251953,30.5478516,19.0976563,30.6396484z M21.1796875,32.7216797
	c-0.2265625,0.0908203-1.0185547,0.3193359-1.2304688-0.2128906c-0.2128906-0.5302734-0.0673828-1.8525391,0.1425781-1.0703125
	C20.4580078,32.7900391,21.4082031,32.6298828,21.1796875,32.7216797z M21.1796875,30.6396484
	c-0.2265625,0.0917969-1.0185547,0.3193359-1.2304688-0.2119141c-0.2128906-0.53125-0.0673828-1.8535156,0.1425781-1.0722656
	C20.4580078,30.7080078,21.4082031,30.5478516,21.1796875,30.6396484z M21.1796875,28.5576172
	c-0.2265625,0.0908203-1.0185547,0.3193359-1.2304688-0.2138672c-0.2128906-0.5292969-0.0673828-1.8505859,0.1425781-1.0693359
	C20.4580078,28.6259766,21.4082031,28.4658203,21.1796875,28.5576172z M23.2617188,34.8027344
	c-0.2275391,0.0917969-1.0166016,0.3193359-1.2304688-0.2109375c-0.2138672-0.5322266-0.0664063-1.8535156,0.1435547-1.0732422
	C22.5400391,34.8720703,23.4912109,34.7128906,23.2617188,34.8027344z M23.2617188,32.7216797
	c-0.2275391,0.0908203-1.0166016,0.3193359-1.2304688-0.2128906c-0.2138672-0.5302734-0.0664063-1.8525391,0.1435547-1.0703125
	C22.5400391,32.7900391,23.4912109,32.6298828,23.2617188,32.7216797z M23.2617188,30.6396484
	c-0.2275391,0.0917969-1.0166016,0.3193359-1.2304688-0.2119141s-0.0664063-1.8535156,0.1435547-1.0722656
	C22.5400391,30.7080078,23.4912109,30.5478516,23.2617188,30.6396484z M23.2617188,28.5576172
	c-0.2275391,0.0908203-1.0166016,0.3193359-1.2304688-0.2138672c-0.2138672-0.5292969-0.0664063-1.8505859,0.1435547-1.0693359
	C22.5400391,28.6259766,23.4912109,28.4658203,23.2617188,28.5576172z M31.9375,6.515625
	c0.3837891,0,0.6943359,0.2392578,0.6943359,0.534668c0,0.2939453-0.3105469,0.5341797-0.6943359,0.5341797
	c-0.3847656,0-0.6943359-0.2402344-0.6943359-0.5341797C31.2431641,6.7548828,31.5527344,6.515625,31.9375,6.515625z
	 M27.6464844,8.097168c1.1904297-1.0605469,4.5078125-0.3999023,4.9599609-0.3212891
	c0.4492188,0.0776367,1.0507813,0.746582,1.5712891,0.9296875c-0.1064453,0.2768555-0.5634766,1.1894531-1.2802734,1.5024414
	c-0.2783203,0.1210938-0.2734375,0.746582-0.265625,0.9204102c0.0097656,0.1733398-0.0419922,0.2602539-0.2177734,0.2436523
	c-0.6943359,0.034668-1.0771484-0.043457-2.0673828,0.3037109c-0.9892578,0.3476563-2.171875-0.1738281-2.6484375-0.5732422
	c0.4863281,1.0595703,2.0068359,0.9472656,2.3720703,1.0336914s0.5029297,0.5996094,0.5029297,0.5996094
	c-0.2529297-0.1650391-1.1816406,0.0600586-1.8066406,0.0512695c-0.625-0.0083008-1.6591797,0.3305664-2.3447266-1.0332031
	C25.7333984,10.3901367,26.4560547,9.1567383,27.6464844,8.097168z M25.3447266,32.7216797
	c-0.2285156,0.0908203-1.0175781,0.3193359-1.2314453-0.2128906c-0.2128906-0.5302734-0.0683594-1.8525391,0.1445313-1.0703125
	C24.6210938,32.7900391,25.5732422,32.6298828,25.3447266,32.7216797z M25.3447266,30.6396484
	c-0.2285156,0.0917969-1.0175781,0.3193359-1.2314453-0.2119141c-0.2128906-0.53125-0.0683594-1.8535156,0.1445313-1.0722656
	C24.6210938,30.7080078,25.5732422,30.5478516,25.3447266,30.6396484z M25.3447266,28.5576172
	c-0.2285156,0.0908203-1.0175781,0.3193359-1.2314453-0.2138672c-0.2128906-0.5292969-0.0683594-1.8505859,0.1445313-1.0693359
	C24.6210938,28.6259766,25.5732422,28.4658203,25.3447266,28.5576172z M25.3447266,26.4765625
	c-0.2285156,0.0898438-1.0175781,0.3183594-1.2314453-0.2138672c-0.2128906-0.5302734-0.0683594-1.8525391,0.1445313-1.0703125
	C24.6210938,26.5439453,25.5732422,26.3847656,25.3447266,26.4765625z M27.4248047,30.6396484
	c-0.2255859,0.0917969-1.0166016,0.3193359-1.2304688-0.2119141c-0.2119141-0.53125-0.0654297-1.8535156,0.1445313-1.0722656
	C26.7050781,30.7080078,27.6542969,30.5478516,27.4248047,30.6396484z M27.4248047,28.5576172
	c-0.2255859,0.0908203-1.0166016,0.3193359-1.2304688-0.2138672c-0.2119141-0.5292969-0.0654297-1.8505859,0.1445313-1.0693359
	C26.7050781,28.6259766,27.6542969,28.4658203,27.4248047,28.5576172z M29.5078125,28.5576172
	c-0.2265625,0.0908203-1.0175781,0.3193359-1.2304688-0.2138672c-0.2119141-0.5292969-0.0693359-1.8505859,0.1435547-1.0693359
	C28.7871094,28.6259766,29.7363281,28.4658203,29.5078125,28.5576172z M29.5078125,26.4765625
	c-0.2265625,0.0898438-1.0175781,0.3183594-1.2304688-0.2138672c-0.2119141-0.5302734-0.0693359-1.8525391,0.1435547-1.0703125
	C28.7871094,26.5439453,29.7363281,26.3847656,29.5078125,26.4765625z"/>
<path fill="#2B2B2B" d="M31.9375,7.2626953c0.2021484,0,0.3642578-0.1308594,0.3642578-0.2910156
	c0-0.1455078-0.1347656-0.2597656-0.3095703-0.2822266c0.0039063,0.0107422,0.0146484,0.019043,0.0146484,0.0302734
	c0,0.0600586-0.0566406,0.109375-0.125,0.109375s-0.1210938-0.0473633-0.1240234-0.1049805
	c-0.1103516,0.050293-0.1865234,0.1411133-0.1865234,0.2475586C31.5712891,7.1318359,31.7363281,7.2626953,31.9375,7.2626953z"/>
<path fill="#2B2B2B" d="M13.078125,37.2119141c0.0166016-0.0039063,0.0175781-0.0078125,0.0097656-0.0126953
	C13.078125,37.2080078,13.0742188,37.2119141,13.078125,37.2119141z"/>
</svg>