<?xml version="1.0" encoding="utf-8"?>
<!DOCTYPE svg PUBLIC "-//W3C//DTD SVG 1.1//EN" "http://www.w3.org/Graphics/SVG/1.1/DTD/svg11.dtd">
<svg version="1.1" id="iVk" xmlns="http://www.w3.org/2000/svg" xmlns:xlink="http://www.w3.org/1999/xlink" x="0px" y="0px" width="100%" height="100%" viewBox="0 0 48 48" preserveAspectRatio="xMidYMid meet">
<path id="B" fill="#2B2B2B" d="M36.5722656,25.2929688c-1.4775391-1.6005859-3.4501953-2.6513672-5.9101563-3.1733398v-0.2084961
	c4.9082031-2.0556641,6.9628906-8.3305664,4.4199219-12.9936523C32.3955078,4.0268555,26.8173828,4.1040039,22,4.1040039
	c-4.7636719-0.0307617-6.7836914,0-11.5444336,0v39.8520508h13.4130859c4.9086914,0,9.1938477-0.9003906,12.4829102-4.9316406
	C39.3398438,35.3554688,39.9365234,28.9375,36.5722656,25.2929688z M16.875,9.4121094
	c8.4072266,0,13.375-0.9746094,12.5625,5.9628906c-0.6611328,5.6450195-8.9692383,4.472168-12.5625,4.4672852V9.4121094z
	 M31.625,34.0625c-1.46875,5.59375-6.6757813,4.5791016-14.7539063,4.5791016V26.6660156
	C19.5351563,26.6640625,24.5,26.2695313,27.6982422,27.1669922C30.9648438,28.0839844,32.4980469,30.7363281,31.625,34.0625z"/>
</svg>