<?xml version="1.0" encoding="utf-8"?>
<!DOCTYPE svg PUBLIC "-//W3C//DTD SVG 1.1//EN" "http://www.w3.org/Graphics/SVG/1.1/DTD/svg11.dtd">
<svg version="1.1" id="iVyalenaya" xmlns="http://www.w3.org/2000/svg" xmlns:xlink="http://www.w3.org/1999/xlink" x="0px" y="0px" width="100%" height="100%" viewBox="0 0 48 48" preserveAspectRatio="xMidYMid meet">
<path fill="#2B2B2B" d="M40.4726563,26.7783203c-0.6210938,0.3984375-1.2841797,0.8417969-3.0996094-0.2646484
	C35.5576172,25.40625,26.6103516,17.434082,23.953125,15.9291992c-2.6577148-1.5063477-9.4326172-1.4179688-9.7421875-1.2851563
	c-0.3100586,0.1328125-0.1772461-0.2211914-0.3984375-0.2661133c-0.2216797-0.0439453-0.9306641,0.2661133-0.9306641,0.2661133
	s0.0439453-0.2216797-0.1328125-0.2661133c-0.1767578-0.043457-0.9296875,0.1772461-1.6831055,0.6650391
	c-0.7529297,0.4873047-1.7709961,1.0625-1.7709961,1.0625s-0.4433594,0.0439453-0.9741211,0.0439453
	c-0.5317383,0-0.9746094,0.5761719-0.9746094,0.5761719s-0.6650391-0.3100586-1.5947266-0.1772461
	S4.378418,17.9658203,4.378418,17.9658203s-0.6196289-0.2211914-1.2836914,0.1767578
	C2.4301758,18.5410156,2.1206055,19.25,2.1640625,19.2939453c0.0444336,0.0444336,0,0-0.7963867,0.3549805
	c-0.7978516,0.3544922-0.2211914,1.5493164-0.2211914,1.5493164s0.265625-0.3095703,0.7963867-0.3984375
	c0.5322266-0.0888672,0.7089844,0.2661133,1.6396484,1.1518555c0.9291992,0.8857422,1.7260742,3.0551758,1.7260742,3.0551758
	s-0.8852539-1.2836914-1.5942383-1.9038086C3.0058594,22.4838867,1.5,21.3759766,0.5258789,21.5532227
	c-0.9741211,0.1767578-0.1328125,1.7709961,0.6650391,2.8339844c0.7963867,1.0629883,1.1953125,1.1958008,2.3916016,2.0385742
	c1.1953125,0.8398438,3.6308594,3.3203125,4.7382813,4.25c1.1079102,0.9296875,2.5869141,1.3808594,2.5961914,1.3886719
	l1.6713867-1.703125l0.2373047-0.015625c0.0947266,0.0664063,2.4213867,1.5664063,4.1748047-0.0253906
	c1.78125-1.6103516,2.1259766-2.3964844,2.1259766-3.6289063l0.3320313,0.0097656c0,0,0.7763672,0.0957031,1.4692383,0.1660156
	c1.0478516,0.1064453,2.2202148,0.2265625,2.7890625,0.5c0.3330078,0.1582031,3.2539063,1.6054688,3.7841797,3.4042969
	c0,0-0.0185547,0.2070313-0.0283203,0.2832031c-0.0410156,0.3886719,0.0849609,1.0917969,0.0849609,1.0917969
	s-0.3037109,0.5175781-0.2441406,0.9453125c0.0224609,0.1699219,0.046875,0.3808594,0.0712891,0.5859375
	c0.9921875-0.2792969,1.6474609-0.5234375,1.8388672-0.5664063c0.796875-0.1757813,2.7451172-0.1757813,3.5429688-0.3535156
	c0.796875-0.1777344,4.4746094-1.1074219,5.2265625-1.0175781c0.7529297,0.0878906,2.2578125,0.6621094,2.2578125,0.6621094
	s1.0634766-1.9921875,1.1962891-3.1425781C41.5791016,28.1074219,40.8710938,26.6904297,40.4726563,26.7783203z
	 M8.918457,23.9443359c-1.4677734,0-2.6567383-1.1889648-2.6567383-2.6567383c0-1.4682617,1.1889648-2.6577148,2.6567383-2.6577148
	s2.6572266,1.1894531,2.6572266,2.6577148C11.5756836,22.7553711,10.3862305,23.9443359,8.918457,23.9443359z"/>
<circle fill="#2B2B2B" cx="9.5605469" cy="21.1772461" r="1.0629883"/>
<g>
	<path fill="#2B2B2B" d="M17.0898438,30.5527344c-1.7578125,1.5917969-3.9863281,0.2851563-4.362793,0.046875l-3.449707,3.5117188
		c0,0,0.2944336,0.0605469,0.4160156,0.2148438c0.1489258,0.1855469,0.1870117,0.5351563,0.1870117,0.5351563
		s0.3417969,0.0078125,0.4941406,0.1777344c0.1489258,0.1660156,0.1220703,0.6152344,0.1220703,0.6152344
		s0.4262695-0.0664063,0.6416016,0.2128906c0.1362305,0.1796875,0.2333984,0.7773438,0.2333984,0.7773438
		s0.4140625-0.1269531,0.746582,0.1386719c0.3129883,0.25,0.3945313,0.6738281,0.3945313,0.6738281
		s0.4360352-0.0859375,0.7514648,0.1386719c0.3481445,0.25,0.4248047,0.8027344,0.4248047,0.8027344
		s0.753418-0.25,1.3188477,0.0117188c0.465332,0.2167969,1.7490234,0.9160156,1.7490234,0.9160156
		s0.5839844-0.3691406,1.1489258-0.3183594c0.5302734,0.0449219,1.0297852,0.6132813,1.0297852,0.6132813
		s0.3999023-0.5195313,1.1791992-0.5644531c0.8637695-0.0488281,1.2226563,0.4375,1.2226563,0.4375
		s0.1274414-0.5996094,0.5844727-0.8847656c0.5-0.3125,1.0844727-0.0878906,1.0844727-0.0878906
		S23.2016602,38.0537109,23.453125,37.875c0.2880859-0.2050781,1.0048828-0.0976563,1.0048828-0.0976563
		s0.0932617-0.4550781,0.2485352-0.6132813c0.1645508-0.1621094,0.6323242-0.1992188,0.6323242-0.1992188
		s0.0722656-0.3378906,0.2158203-0.4804688c0.1347656-0.1347656,0.4853516-0.2441406,0.4853516-0.2441406
		s0.0712891-0.4394531,0.1943359-0.6035156c0.1269531-0.1679688,0.4472656-0.3613281,0.4472656-0.3613281
		s0.0800781-0.4257813,0.1914063-0.5800781c0.1025391-0.1386719,0.3193359-0.328125,0.3193359-0.328125
		s-0.0898438-0.8457031-0.1435547-1.2382813c-0.0585938-0.4238281,0.2119141-1,0.2119141-1
		s-0.0927734-0.7128906-0.0537109-1.0996094c0.0087891-0.0703125,0.015625-0.1367188,0.0224609-0.2070313
		c-0.515625-1.6777344-3.3237305-3.0625-3.6430664-3.2158203c-0.5288086-0.2529297-1.7431641-0.3759766-2.7197266-0.4736328
		c-0.8408203-0.0869141-1.3393555-0.1445313-1.6103516-0.2294922
		C19.2192383,28.1025391,18.8442383,28.9667969,17.0898438,30.5527344z"/>
</g>
<path fill="#2B2B2B" d="M37.5117188,26.2734375c0.7285156,0.4433594,1.3105469,0.6445313,1.7763672,0.6445313
	c0.2431641,0,0.4384766-0.0683594,0.6210938-0.1640625c0.03125-0.3867188,0.0380859-0.8613281-0.0332031-1.3691406
	c-0.1777344-1.2412109-0.8632813-2.6142578-2.4365234-3.1005859c-1.1972656-0.3710938-3.1728516-0.4926758-4.9921875-0.0664063
	C32.5761719,22.3461914,36.7460938,25.8066406,37.5117188,26.2734375z"/>
<path fill="#2B2B2B" d="M24.0844727,15.6943359c1.534668,0.8686523,7.9985352,6.2177734,8.1118164,6.3237305
	C32.7802734,21.7299805,33.875,21.703125,33.875,21.703125s0.0820313,0.0327148-0.0507813-0.2333984
	s0.2939453-0.4482422,0.2939453-0.4482422s-0.6826172-0.0283203-0.8583984-0.2490234
	c-0.1767578-0.2211914,0.3974609-0.6982422,0.3974609-0.6982422s-0.6542969-0.0888672-0.8798828-0.3154297
	c-0.2373047-0.2373047,0.53125-1.0791016,0.53125-1.0791016s-0.9296875,0.1660156-1.3105469-0.0664063
	c-0.3320313-0.2011719,0.7363281-1.3789063,0.7363281-1.3789063S31.4160156,17.3120117,31,17.1186523
	c-0.4443359-0.2075195,1.296875-1.9780273,1.296875-1.9780273s-0.7861328,0.0107422-1.484375,0.140625
	c-0.5537109,0.1035156-1.0351563,0.3549805-1.15625,0.2094727c-0.25-0.2983398,1.515625-1.9594727,1.515625-1.9594727
	s-0.8115234,0.0922852-1.5,0.34375c-0.5361328,0.1953125-0.9609375,0.5932617-1.1132813,0.4370117
	C28.2109375,13.9521484,30.25,12.015625,30.25,12.015625s-0.9023438,0.1113281-1.6875,0.40625
	c-0.6767578,0.2539063-1.2382813,0.7138672-1.3974609,0.5449219c-0.3583984-0.3808594,1.8193359-2.4511719,1.8193359-2.4511719
	s-0.9628906,0.2285156-1.84375,0.609375c-0.7236328,0.3125-1.3642578,0.8085938-1.6035156,0.6791992
	c-0.5117188-0.2768555,2.3330078-2.828125,2.3330078-2.828125S26.3935547,9.5229492,25.109375,10.1875
	c-1.0170898,0.5263672-1.8613281,1.2158203-2.1132813,1.1352539c-0.5849609-0.1875,2.0185547-2.9443359,2.0185547-2.9443359
	S23.3540039,9.0639648,22.015625,10C20.9912109,10.7167969,20.2568359,11.7783203,20,11.609375
	c-0.40625-0.28125,1.8920898-2.7451172,1.8920898-2.7451172S19.015625,10.265625,17.5,12.40625
	c-0.3867188,0.5458984-0.565918-1.0834961-0.7421875-0.7954102c-0.1772461,0.2880859-0.3989258,0.6860352-0.465332,1.5498047
	c-0.0219727,0.2851563,0.0083008,0.7138672,0.0566406,1.1577148C18.1245117,14.3583984,22.1069336,14.5742188,24.0844727,15.6943359
	z"/>
<path fill="#2B2B2B" d="M40.7998047,26.5195313c0,0,2.0927734,2.0253906-0.3164063,5.9941406
	c0,0,1.2958984,0.5644531,2.4257813,0.5644531c1.1279297,0,2.6572266-1.0117188,3.1210938-1.4785156
	c0.4658203-0.4648438,0.8808594-1.0292969,0.9980469-1.2949219c0.1162109-0.265625,0-0.2304688,0.0664063-0.4472656
	c0.0654297-0.2167969,0.4150391-0.515625,0.4306641-0.6972656c0.0166016-0.1835938,0.1660156-0.2988281,0.1982422-0.7314453
	c0.0341797-0.4326172,0.1669922-0.4658203,0.234375-0.9130859c0.0654297-0.4492188,0.1650391-0.9140625,0.0654297-1.1289063
	c-0.0976563-0.2167969,0.0166016-0.4667969-0.0332031-0.6318359c-0.0507813-0.1669922-0.3818359-0.1328125-0.28125-0.3652344
	c0.0986328-0.2333984,0.2490234-0.2666016,0.1982422-0.4814453c-0.0498047-0.2163086,0.0322266-0.6816406-0.2333984-0.8144531
	c-0.2636719-0.1333008-0.0146484-0.1992188-0.0654297-0.3652344c-0.0488281-0.1665039-0.9462891-0.4819336-2.4091797,0.050293
	C43.7382813,24.3095703,41.4804688,25.8876953,40.7998047,26.5195313z"/>
</svg>