<?xml version="1.0" encoding="UTF-8"?>
<!DOCTYPE svg PUBLIC "-//W3C//DTD SVG 1.1//EN" "http://www.w3.org/Graphics/SVG/1.1/DTD/svg11.dtd">
<svg version="1.1" id="iWantEat" xmlns="http://www.w3.org/2000/svg" xmlns:xlink="http://www.w3.org/1999/xlink" x="0px" y="0px" width="100" height="100" viewBox="0 0 48 48" preserveAspectRatio="xMidYMid meet">
<g>
	<path fill-rule="evenodd" clip-rule="evenodd" fill="#2B2B2B" d="M7.831543,24.0019531   C7.8110352,14.8271484,15.3017578,7.3085938,24.434082,7.3374023c9.1567383,0.0292969,16.5825195,7.5068359,16.5874023,16.703125   c0.0058594,9.199707-7.4033203,16.6030273-16.628418,16.621582C15.2241211,40.6806641,7.8515625,33.2646484,7.831543,24.0019531z    M35.1494141,23.9453125c-0.0214844-5.9838867-4.8583984-10.7436523-10.8842773-10.7114258   c-5.7607422,0.0317383-10.6259766,4.9291992-10.6450195,10.7163086   c-0.0200195,5.9589844,4.8867188,10.8837891,10.7924805,10.8369141   C30.4648438,34.7392578,35.1699219,29.9863281,35.1494141,23.9453125z"/>
	<path fill-rule="evenodd" clip-rule="evenodd" fill="#2B2B2B" d="M14.4814453,23.9199219   c0.0478516-5.5043945,4.4692383-9.8642578,9.965332-9.828125c5.5141602,0.0366211,9.9692383,4.4702148,9.9418945,9.8925781   c-0.0283203,5.5361328-4.5527344,10.0644531-10.0073242,10.0185547   C18.8276367,33.953125,14.4321289,29.4775391,14.4814453,23.9199219z"/>
	<path fill-rule="evenodd" clip-rule="evenodd" fill="#2B2B2B" d="M47.3271484,38.9580078   c0.0263672,0.8076172,0.0849609,1.5361328-1.0927734,1.5263672c-1.1142578-0.0126953-1.1894531-0.6328125-1.1289063-1.5009766   c0.1083984-1.5205078,0.2841797-9.7529297,0.2333984-11.2724609c-0.1591797-4.6542969-0.4492188-3.0712891-0.7558594-7.7182617   c-0.2509766-3.7905273-0.2490234-5.628418,0.7558594-9.2939453c0.3134766-1.1469727,2.0087891-6.3374023,1.9990234-0.6191406   C47.328125,14.984375,47.1689453,34.0556641,47.3271484,38.9580078z"/>
	<path fill-rule="evenodd" clip-rule="evenodd" fill="#2B2B2B" d="M2.3979492,21.1674805   c-0.0083008-1.6645508-0.4091797-1.8710938-0.9433594-3.0180664c-0.4438477-0.9521484-0.7866211-1.875-0.7915039-2.8828125   c-0.012207-2.2797852,0.2353516-4.5610352,0.4018555-6.8393555C1.0810547,8.206543,1.2167969,7.9990234,1.3232422,7.7851563   c0.0576172,0.2143555,0.2089844,0.4277344,0.2128906,0.6430664c0.0268555,1.237793,0.0541992,3.0478516,0.0541992,4.2856445   c0,0.2368164,0.1191406,0.331543,0.3110352,0.784668c0.1704102-0.4677734,0.2338867-0.4189453,0.2514648-0.8598633   c0.0478516-1.1889648,0.0327148-2.9526367,0.0522461-4.1425781C2.2089844,8.3125,2.3139648,8.1362305,2.3481445,7.953125   c0.0712891,0.1992188,0.1523438,0.3896484,0.1611328,0.5913086c0.0629883,1.4741211,0.0976563,2.9501953,0.1572266,4.4248047   c0.0073242,0.1743164,0.1225586,0.3520508,0.1938477,0.5175781c0.1298828-0.1831055,0.2211914-0.3554688,0.2304688-0.5375977   c0.0639648-1.4267578,0.0927734-2.8554688,0.1484375-4.2822266c0.0092773-0.2236328,0.0961914-0.4438477,0.1469727-0.6655273   c0.0595703,0.2421875,0.1650391,0.4819336,0.1708984,0.7250977c0.0371094,1.4282227,0.0444336,2.8574219,0.0825195,4.2851563   C3.6445313,13.1743164,3.7910156,13.3295898,3.9013672,13.5c0.1054688-0.1669922,0.246582-0.3374023,0.2509766-0.5078125   c0.0395508-1.4277344,0.0322266-2.8564453,0.0693359-4.284668C4.2294922,8.402832,4.3496094,8.159668,4.4477539,7.8447266   c0.0942383,0.2714844,0.2333984,0.4921875,0.2548828,0.769043c0.1748047,2.3261719,0.4174805,4.6523438,0.434082,6.9804688   c0.0058594,0.8720703-0.4018555,1.8461914-0.8676758,2.5888672c-0.7236328,1.1533203-0.9179688,1.8085938-0.9179688,3.0332031   c0,5.9516602,0.3242188,11.8999023,0.4741211,17.8491211c0.0161133,0.6533203,0.1831055,1.4023438-0.8686523,1.4267578   c-1.128418,0.0253906-0.9868164-0.7646484-0.9858398-1.4785156C1.972168,35.9667969,2.4125977,24.046875,2.3979492,21.1674805z"/>
</g>
</svg>