<?xml version="1.0" encoding="utf-8"?>
<!DOCTYPE svg PUBLIC "-//W3C//DTD SVG 1.1//EN" "http://www.w3.org/Graphics/SVG/1.1/DTD/svg11.dtd">
<svg version="1.1" id="iYagoda" xmlns="http://www.w3.org/2000/svg" xmlns:xlink="http://www.w3.org/1999/xlink" x="0px" y="0px" width="100%" height="100%" viewBox="0 0 48 48" preserveAspectRatio="xMidYMid meet">
<path fill="#2B2B2B" d="M23.3178711,25.84375c-0.4501953-2.1870117-2.355957-3.8291016-4.6391602-3.8291016
	c-2.6176758,0-4.7392578,2.1582031-4.7392578,4.8193359c0,0.3935547,0.0092773,0.6953125,0.0957031,1.0576172
	c0.5288086,0.3212891,0.9936523,1.2333984,0.9287109,1.8896484c0.3525391,0.4804688,0.7021484,0.8173828,1.2026367,1.1357422
	c0.1171875-0.0097656,0.2363281-0.0175781,0.355957-0.0175781c0.8686523,0,1.5576172,0.3671875,2.2211914,0.8349609
	c0.3178711-0.0126953,0.565918-0.0400391,0.8647461-0.1113281c-0.0058594-0.1123047-0.0258789-0.4306641-0.0151367-0.5439453
	C19.7939453,28.7441406,21.6801758,26.5175781,23.3178711,25.84375z M20.2651367,28.8613281
	C20.1821289,28.8134766,20.109375,28.75,20.0625,28.6660156c-0.1606445-0.2958984,0.0097656-0.7001953,0.3793945-0.8974609
	c0.1811523-0.0976563,0.3774414-0.1279297,0.5488281-0.0976563C20.7041016,28.0322266,20.4609375,28.4345703,20.2651367,28.8613281z
	 M21.4023438,24.7216797c0.1279297,1.0234375-0.2246094,1.8271484-0.5439453,2.3378906c0,0,0.5439453-1.3144531,0.3837891-1.9863281
	c-0.1601563-0.6723633-0.3520508-1.3769531-1.3447266-2.4663086C18.9033203,21.5185547,21.2734375,23.6962891,21.4023438,24.7216797
	z M17.6865234,26.3222656c0.6728516,0.5126953,1.8583984,1.4423828,1.8583984,1.4423828s-0.9287109-0.4472656-1.6333008-0.9296875
	c-0.7050781-0.4794922-2.7871094-2.3061523-2.7871094-2.3061523S17.0141602,25.8115234,17.6865234,26.3222656z
	 M14.4526367,27.1865234c2.722168,2.1142578,5.1176758,1.171875,5.027832,1.2177734
	c-0.7373047,0.3847656-1.9213867,0.4814453-2.722168,0.3847656C15.9580078,28.6923828,14.8681641,27.9238281,14.4526367,27.1865234z
	 M17.1103516,29.9746094c-1.1523438,0.03125-1.6494141-0.4169922-2.1616211-1.0888672c0,0,0.7519531,0.8632813,1.9370117,0.7685547
	c1.1855469-0.0966797,2.690918-0.7685547,2.690918-0.7685547S18.2636719,29.9414063,17.1103516,29.9746094z M19.5449219,26.5800781
	c-0.2890625-1.2509766-2.4023438-3.7167969-2.4023438-3.7167969s1.9853516,1.9213867,2.4023438,2.9482422
	c0.4160156,1.0224609,0.2880859,1.8564453,0.2880859,1.8564453S19.8330078,27.8271484,19.5449219,26.5800781z"/>
<path fill="#2B2B2B" d="M19.9492188,33.3164063c-0.715332-1.1845703-2.0107422-1.9814453-3.4956055-1.9814453
	c-2.2543945,0-4.0839844,1.828125-4.0839844,4.0839844c0,2.2539063,1.8295898,4.0839844,4.0839844,4.0839844
	c2.2548828,0,4.0839844-1.8300781,4.0839844-4.0839844c0-0.375-0.0537109-0.734375-0.1489258-1.0791016
	C20.2099609,34.015625,20.0620117,33.6738281,19.9492188,33.3164063z M17.6245117,35.3095703
	c0.2358398-0.2714844,0.6484375-0.8378906,0.6713867-1.5253906c0.03125-0.9599609-0.1289063-1.4726563-0.4169922-1.7929688
	s0.8647461,0.7382813,0.6723633,1.7617188C18.3891602,34.6230469,17.9506836,34.984375,17.6245117,35.3095703
	c-0.09375,0.1083984-0.1621094,0.1738281-0.1621094,0.1738281C17.5102539,35.4238281,17.5673828,35.3681641,17.6245117,35.3095703z
	 M15.3486328,31.5107422c0,0,0.2246094,1.2822266,0.4487305,1.859375c0.2241211,0.5751953,0.4477539,1.8876953,0.4477539,1.8876953
	s-0.4482422-0.7353516-0.7041016-2.0810547C15.284668,31.8320313,15.3486328,31.5107422,15.3486328,31.5107422z
	 M14.1318359,34.8105469c0.3525391,0.4169922,1.5371094,1.0566406,1.5371094,1.0566406s-0.7363281-0.0957031-1.4091797-0.5751953
	c-0.6723633-0.4814453-0.9609375-1.6992188-0.9609375-1.6992188S13.7797852,34.3935547,14.1318359,34.8105469z
	 M14.0683594,36.9873047c-1.0258789-0.1591797-1.1538086-0.7685547-1.1538086-0.7685547s0.5766602,0.3857422,1.2172852,0.5458984
	c0.640625,0.1582031,1.6333008,0.0322266,1.6333008,0.0322266S15.0922852,37.1494141,14.0683594,36.9873047z M15.8608398,38.1748047
	C15.7333984,38.4287109,15.4130859,38.75,15.4130859,38.75s0.1279297-0.4160156,0.3203125-0.6728516
	c0.1914063-0.2548828,0.4160156-0.6416016,0.4160156-0.6416016S15.9902344,37.9189453,15.8608398,38.1748047z
	 M16.8735352,36.6914063c-0.2822266,0.1542969-0.609375,0.0996094-0.7260742-0.1181641
	c-0.1186523-0.2167969,0.0166016-0.5195313,0.2998047-0.671875c0.2827148-0.1533203,0.6079102-0.0996094,0.7275391,0.1181641
	C17.2919922,36.2373047,17.1577148,36.5400391,16.8735352,36.6914063z M17.9116211,38.1748047
	c-0.6411133-0.3203125-0.7368164-0.9296875-0.7368164-1.0908203c0,0,0.5761719,0.9619141,1.3447266,0.7041016
	c0.7685547-0.2548828,0.7685547-0.2548828,0.7685547-0.2548828S18.5512695,38.4931641,17.9116211,38.1748047z
	 M19.2880859,35.9951172c-0.5761719,0.2871094-1.5371094,0.3525391-1.5371094,0.3525391s1.0888672-0.1289063,1.6660156-0.640625
	c0.5756836-0.5126953,0.7045898-0.7998047,0.7045898-0.7998047S19.8642578,35.7070313,19.2880859,35.9951172z"/>
<path fill="#2B2B2B" d="M12.2001953,34.5322266c-0.5581055-1.0664063-1.644043-1.8027344-2.909668-1.8027344
	c-1.828125,0-3.3105469,1.5146484-3.3105469,3.3857422s1.4824219,3.3876953,3.3105469,3.3876953
	c1.4956055,0,2.7456055-1.0244141,3.1547852-2.4189453c-0.2167969-0.5097656-0.3408203-1.0703125-0.3408203-1.6650391
	C12.1044922,35.1142578,12.1386719,34.8193359,12.2001953,34.5322266z M9.4868164,34.5859375
	c0.7368164-0.3193359,1.9868164-0.7695313,1.9868164-0.7695313s-1.7299805,0.8652344-2.0180664,1.0263672
	c-0.2880859,0.1601563-1.6655273,1.1201172-1.6655273,1.1201172S8.7504883,34.9072266,9.4868164,34.5859375z M7.1499023,34.2021484
	c0.3193359-0.4492188,1.4404297-1.0888672,1.7607422-1.2177734c0.3208008-0.1269531-1.3764648,1.1367188-1.5688477,1.4736328
	c-0.1787109,0.3115234-0.1606445,1.1865234-0.1606445,1.1865234S6.8295898,34.6503906,7.1499023,34.2021484z M6.9223633,37.3427734
	C6.8037109,37.125,6.9082031,36.8388672,7.1547852,36.7070313c0.2460938-0.1337891,0.5415039-0.0634766,0.6601563,0.1542969
	c0.1171875,0.21875,0.0136719,0.5039063-0.2329102,0.6357422C7.3364258,37.6298828,7.0400391,37.5615234,6.9223633,37.3427734z
	 M9.359375,38.6865234c-1.1210938,0.03125-1.7294922-0.8642578-1.7294922-0.8642578s0.640625,0.4785156,1.5698242,0.6064453
	c0.9282227,0.1298828,2.59375-0.4785156,2.59375-0.4785156S10.4804688,38.6542969,9.359375,38.6865234z M12.2099609,36.4755859
	c0,0-1.0249023,0.3525391-1.8579102,0.3525391c-0.8334961,0-2.4658203-0.2558594-2.4658203-0.2558594
	s1.4731445,0.0947266,2.3374023,0.1269531C11.0893555,36.7314453,12.2099609,36.4755859,12.2099609,36.4755859z"/>
<path fill="#2B2B2B" d="M6.4238281,33.9365234c-0.6118164-1.0097656-1.7060547-1.6884766-2.9658203-1.6884766
	c-1.9243164,0-3.4833984,1.5703125-3.4833984,3.5078125c0,1.9345703,1.559082,3.5048828,3.4833984,3.5048828
	c1.1567383,0,2.1743164-0.5732422,2.8071289-1.4462891c-0.3261719-0.53125-0.5253906-1.1503906-0.5253906-1.8193359
	C5.7397461,35.2226563,5.9980469,34.515625,6.4238281,33.9365234z M2.6010742,33.0166016
	c1.1533203-0.4472656,2.3378906-0.2548828,2.3378906-0.2548828s-1.5053711,0.1269531-2.3051758,0.7041016
	c-0.8007813,0.5751953-1.2495117,1.6005859-1.2495117,1.6005859S1.4487305,33.4658203,2.6010742,33.0166016z M5.355957,34.6171875
	c0,0-1.5703125,0.4189453-2.0185547,0.5771484c-0.4472656,0.1601563-1.440918,0.4501953-1.440918,0.4501953
	S2.5693359,35.0664063,3.3706055,34.875C4.1708984,34.6826172,5.355957,34.6171875,5.355957,34.6171875z M0.5888672,36.2324219
	c-0.125-0.2304688-0.0253906-0.5244141,0.2202148-0.65625c0.246582-0.1337891,0.546875-0.0537109,0.6713867,0.1757813
	c0.1245117,0.2275391,0.0253906,0.5244141-0.2216797,0.65625C1.0131836,36.5419922,0.7128906,36.4638672,0.5888672,36.2324219z
	 M1.7368164,38.3339844c-0.4482422-0.4482422-0.5444336-1.3144531-0.5444336-1.3144531s0.3193359,0.6728516,0.671875,1.1210938
	c0.3525391,0.4492188,0.7695313,0.7373047,0.7695313,0.7373047S2.1845703,38.78125,1.7368164,38.3339844z M2.8256836,38.3007813
	c-0.6723633-0.3828125-1.0888672-1.4404297-1.0888672-1.4404297s1.0239258,1.1533203,1.2807617,1.3144531
	C3.2744141,38.3339844,4.5551758,38.75,4.5551758,38.75S3.4975586,38.6865234,2.8256836,38.3007813z M3.1450195,36.9560547
	c-0.9604492-0.0644531-1.3447266-0.6083984-1.3447266-0.6083984s0.7055664,0.3837891,1.3447266,0.4492188
	c0.640625,0.0634766,2.2744141,0.0634766,2.2744141,0.0634766S4.1064453,37.0195313,3.1450195,36.9560547z"/>
<path fill="#2B2B2B" d="M17.0786133,16.1298828c0,0,0.8642578,0.7675781,0.8408203,0.9609375
	c-0.0244141,0.1918945-0.2412109,0.2636719-0.2412109,0.2636719s0.9379883,0.6967773,0.8886719,0.984375
	c-0.0473633,0.2885742-0.7680664,0.4804688-0.7680664,0.4804688s1.1523438,0.6733398,1.2016602,1.0336914
	c0.0473633,0.3598633-0.3125,0.5043945-0.3125,0.5043945s0.6000977,0.3359375,0.6000977,0.527832
	s-0.3847656,0.456543-0.3847656,0.456543s0.8178711,0.0483398,1.1533203,0.2885742
	c0.3359375,0.2402344,0.8168945,0.7207031,1.5131836,0.8408203c0.3383789,0.0576172,0.9462891-0.050293,1.7426758-0.0961914
	c0.0791016-1.7475586,1.7197266-3.34375,3.5625-3.34375c1.8945313,0,3.625,1.5141602,3.625,3.328125
	c0,0.1796875,0.0634766,0.3081055-0.015625,0.6875c0.7050781-0.2685547,0.6230469-0.2636719,0.6230469-0.2636719
	s-0.0507813-0.0961914,0.1435547-0.3354492c0.1923828-0.2416992,0.5273438-0.1923828,0.5273438-0.1923828
	s0.0976563-0.2407227,0.2402344-0.4804688c0.1445313-0.2407227,0.5771484-0.2407227,0.5771484-0.2407227
	s-0.0966797-0.1923828,0.1445313-0.527832c0.2392578-0.3369141,0.6240234-0.2885742,0.6240234-0.2885742
	s-0.1435547-0.0483398,0.0488281-0.480957c0.1914063-0.4316406,0.2880859-0.2158203,0.2880859-0.2158203
	s-0.0966797-0.2641602-0.0234375-0.5527344c0.0712891-0.2875977,0.2880859-0.5756836,0.2880859-0.5756836
	s-0.2646484-0.0478516-0.1679688-0.2651367c0.0947266-0.2158203,0.2148438-0.4321289,0.2148438-0.4321289
	s-0.1669922,0.0483398-0.2148438-0.1923828c-0.0488281-0.2392578,0.1923828-0.7929688,0.1923828-0.7929688
	s-0.4335938,0.168457-0.5292969,0.0727539c-0.0966797-0.0961914,0.0253906-0.456543,0.0253906-0.456543
	s-0.3378906,0.1679688-0.4814453,0c-0.1445313-0.1674805-0.1191406-0.6005859-0.1191406-0.6005859
	s-0.3613281,0.2880859-0.6025391,0.2163086c-0.2382813-0.0722656-0.1201172-0.5766602-0.1201172-0.5766602
	s-0.2382813,0.4331055-0.5039063,0.3603516c-0.2636719-0.0722656-0.2158203-0.6484375-0.2158203-0.6484375
	s-0.8398438,0.7211914-1.3457031,0.3364258c-0.5048828-0.3842773-0.0244141-0.6000977-0.0244141-0.6000977
	s-0.4570313-0.0727539-0.3359375-0.3852539c0.1201172-0.3129883,0.2890625-0.7685547,0.2890625-0.7685547
	s-0.2890625,0.1201172-0.3359375-0.2402344c-0.0488281-0.3598633,0.3359375-1.0083008,0.3359375-1.0083008
	s-0.5058594,0.4077148-0.6484375,0.2158203c-0.1455078-0.1918945,0.4794922-1.1293945,0.4794922-1.1293945
	s-0.2646484,0.168457-0.3369141-0.1914063c-0.0722656-0.3608398,0.2412109-0.9609375,0.2412109-0.9609375
	s-0.4091797,0.3598633-0.6953125,0.0234375c-0.2900391-0.3359375,0.0224609-1.2729492,0.0224609-1.2729492
	s-0.3359375,0.456543-0.6962891,0.0478516c-0.3603516-0.4082031-0.1201172-0.6728516-0.1201172-0.6728516
	s-0.3603516,0.0722656-0.4570313-0.0961914c-0.0947266-0.1679688-0.046875-0.5756836-0.046875-0.5756836
	s-0.4335938,0.8164063-0.625,0.8408203c-0.1914063,0.0234375-0.2402344-0.2651367-0.2402344-0.2651367
	s-0.1669922,0.4086914-0.6728516,0.3852539c-0.5048828-0.0244141-0.625-0.6972656-0.625-0.6972656
	S25.125,9.9321289,24.7177734,10.0522461c-0.409668,0.1191406-0.6015625-0.3120117-0.6015625-0.3120117
	s-0.2158203,1.0810547-0.5996094,1.3447266c-0.3852539,0.2641602-0.7202148,0.0473633-0.7202148,0.0473633
	s0.046875,1.0576172-0.1450195,1.2729492c-0.1918945,0.2177734-0.480957-0.1186523-0.480957-0.1186523
	s0,0.7924805-0.5043945,0.840332c-0.5039063,0.046875-0.9604492-0.5766602-0.9604492-0.5766602
	s-0.1679688,0.5039063-0.4082031,0.4321289c-0.2407227-0.0712891-0.4082031-0.6010742-0.4082031-0.6010742
	s-0.144043,0.5297852-0.4570313,0.5048828c-0.3125-0.0239258-0.4316406-0.2631836-0.4316406-0.2631836
	s-0.0493164,0.3120117-0.5048828,0.2631836c-0.456543-0.0473633-0.8891602-0.4077148-0.8891602-0.4077148
	s0.4326172,1.1762695,0.2885742,1.3447266s-0.480957-0.0717773-0.480957-0.0717773s0.480957,0.625,0.3847656,0.840332
	c-0.0966797,0.2158203-0.5283203-0.0234375-0.5283203-0.0234375s0.7202148,1.0810547,0.5283203,1.3208008
	C17.6064453,16.1298828,17.0786133,16.1298828,17.0786133,16.1298828z M30.9785156,21.1347656
	c0.6083984-0.0966797,0.8310547,0.1914063,0.8310547,0.1914063L30.9785156,21.1347656z M32.4833984,20.5258789
	c-0.3837891,0.0317383-0.4794922-0.1601563-0.4794922-0.1601563C32.3232422,20.4306641,32.8681641,20.4931641,32.4833984,20.5258789
	z M32.8046875,17.4189453l0.0634766,0.640625c0,0-0.2558594-0.6083984-0.2246094-0.8330078
	C32.6767578,17.0029297,32.8046875,17.4189453,32.8046875,17.4189453z M31.6826172,17.7397461
	c0.1269531-0.640625,0.1933594-0.9936523,0.1933594-0.9936523s-0.0976563,1.0888672-0.03125,1.4736328
	c0.0625,0.3842773,0.1269531,1.0566406,0.1269531,1.0566406S31.5556641,18.3793945,31.6826172,17.7397461z M31.8447266,19.8208008
	c0.4794922-0.4804688,1.5029297-1.7299805,1.5029297-1.7299805s-0.7041016,1.3447266-1.1523438,1.762207
	c-0.4472656,0.4155273-1.5371094,1.3139648-1.8886719,1.2817383C30.3066406,21.1347656,31.3632813,20.3012695,31.8447266,19.8208008
	z M30.4355469,16.5537109c0,0-0.0332031,2.0825195,0.1591797,2.5307617
	c0.1933594,0.4472656,0.2236328,0.8642578,0.2236328,0.8642578s-0.5458984-0.7680664-0.5771484-1.4726563
	C30.2099609,17.7719727,30.4355469,16.5537109,30.4355469,16.5537109z M19.4160156,19.2441406
	c0.6728516,0.3208008,2.5942383,0.7045898,2.5942383,0.7045898s-0.7045898,0.0639648-1.3764648-0.0957031
	C19.9609375,19.6923828,19.4160156,19.2441406,19.4160156,19.2441406z M21.6259766,21.262207
	c-0.6733398-0.0317383-1.4091797-0.6396484-1.4091797-0.6396484c0.8012695,0.4155273,3.0424805,0.5429688,3.0424805,0.5429688
	S22.2983398,21.2944336,21.6259766,21.262207z M29.9570313,15.3432617
	c-0.0380859,0.0883789-0.9482422,1.1621094-1.7890625,1.7436523c-0.8417969,0.581543-1.5009766,0.5776367-1.5009766,0.5776367
	s1.2724609-0.7792969,1.6845703-1.090332C28.7626953,16.2617188,29.9941406,15.2553711,29.9570313,15.3432617z
	 M26.5009766,15.4824219c0,0,0.9990234-0.6381836,1.3232422-0.8916016c0.3232422-0.2539063,1.2919922-1.0717773,1.2617188-1.0004883
	s-0.7509766,0.9394531-1.4111328,1.4125977C27.0146484,15.4790039,26.5009766,15.4824219,26.5009766,15.4824219z
	 M29.3730469,12.2695313c-0.0253906,0.0581055-0.6318359,0.7563477-1.1953125,1.1313477
	c-0.5625,0.375-1.0107422,0.3666992-1.0107422,0.3666992s0.8525391-0.5014648,1.1328125-0.7041016
	C28.5751953,12.8637695,29.3984375,12.2119141,29.3730469,12.2695313z M28.1162109,11.0537109
	c0.1552734-0.206543,0.6132813-0.8608398,0.6025391-0.8125c-0.0078125,0.0488281-0.3154297,0.6967773-0.6376953,1.090332
	c-0.3232422,0.3950195-0.6181641,0.4755859-0.6181641,0.4755859S27.9589844,11.2602539,28.1162109,11.0537109z
	 M27.5205078,9.6992188c0,0-0.8339844,3.8125-0.8652344,4.4208984c-0.0341797,0.6083984-0.6083984,4.6123047-0.6083984,4.6123047
	s0.2861328-3.9077148,0.5429688-5.3168945C26.8486328,12.0058594,27.5205078,9.6992188,27.5205078,9.6992188z
	 M25.5507813,10.2226563c0.0117188-0.0493164,0.1748047,0.7329102,0.2363281,0.9833984
	c0.0634766,0.2514648,0.3056641,0.9482422,0.3056641,0.9482422s-0.2402344-0.1894531-0.3808594-0.6782227
	C25.5703125,10.9873047,25.5400391,10.2705078,25.5507813,10.2226563z M25.5390625,13.2861328
	c0.1738281,0.293457,0.7636719,1.090332,0.7636719,1.090332s-0.4150391-0.168457-0.7861328-0.7338867
	c-0.3720703-0.5664063-0.6557617-1.4467773-0.6557617-1.5092773C24.8608398,12.0712891,25.3642578,12.9921875,25.5390625,13.2861328
	z M24.6665039,14.5742188c0.1982422,0.3603516,0.8676758,1.3393555,0.8676758,1.3393555s-0.4697266-0.2060547-0.8916016-0.9013672
	c-0.4213867-0.6953125-0.7421875-1.7768555-0.7421875-1.8544922C23.9003906,13.0810547,24.4697266,14.2128906,24.6665039,14.5742188
	z M24.4121094,15.7851563c0.2568359,0.4487305,1.1220703,1.6660156,1.1220703,1.6660156s-0.6088867-0.2563477-1.1533203-1.1210938
	c-0.5444336-0.8652344-0.9604492-2.2099609-0.9604492-2.3066406C23.4204102,13.9277344,24.1567383,15.3369141,24.4121094,15.7851563
	z M23.2919922,18.4760742c0.0629883-0.8012695,0.0629883-1.0571289,0.0629883-1.0571289s0.1928711,1.3125,0.0654297,1.6655273
	c-0.128418,0.3525391-0.3198242,0.4804688-0.3198242,0.4804688S23.2275391,19.2763672,23.2919922,18.4760742z
	 M22.5551758,17.7719727c0.1611328-0.7055664,0.1611328-1.2817383,0.1611328-1.2817383s0.2226563,1.1201172,0,1.5048828
	c-0.2250977,0.3842773-0.7373047,0.7373047-0.7373047,0.7373047S22.3945313,18.4760742,22.5551758,17.7719727z
	 M21.9467773,14.5683594c0,0,0.0322266,2.2744141-0.6723633,2.9145508c0,0,0.2236328-0.5771484,0.3515625-1.3139648
	C21.7548828,15.4326172,21.9467773,14.5683594,21.9467773,14.5683594z M21.1137695,14.9208984
	c0.1606445-0.4799805,0.1606445-1.5053711,0.1606445-1.5053711s0.2875977,1.1206055-0.0327148,1.762207
	c-0.3198242,0.6396484-0.6079102,0.9287109-0.6728516,1.1523438C20.5688477,16.3300781,20.9526367,15.4013672,21.1137695,14.9208984
	z M20.8574219,17.5463867c0.3642578,0.4882813,2.7539063,3.3632813,2.7539063,3.3632813s-2.6586914-2.6918945-3.3618164-3.9389648
	c-0.4892578-0.8681641-0.8071289-1.019043-1.9384766-3.6225586C18.3110352,13.3481445,20.4926758,17.059082,20.8574219,17.5463867z
	 M19.1923828,16.0097656c-0.2236328-0.1923828-0.8334961-0.3852539-0.8334961-0.3852539
	C19.3525391,15.5292969,19.4160156,16.2016602,19.1923828,16.0097656z M20.5375977,18.2832031
	c0,0-0.8334961-0.1923828-1.3452148-0.4804688c-0.5126953-0.2880859-0.9609375-0.9599609-0.9609375-0.9599609
	C19.1923828,17.7719727,20.5375977,18.2832031,20.5375977,18.2832031z"/>
<path fill="#2B2B2B" d="M31.2509766,31.4316406c0-3.1201172-2.5517578-5.6542969-5.7021484-5.6542969
	c-3.1479492,0-5.7001953,2.5341797-5.7001953,5.6542969s2.5522461,5.6523438,5.7001953,5.6523438
	C28.6992188,37.0839844,31.2509766,34.5517578,31.2509766,31.4316406z M29.9873047,31.0634766
	C30.4355469,30.3583984,30.5,29.7490234,30.5,29.7490234s0.0302734,1.1523438-0.4501953,1.5703125
	c-0.4814453,0.4150391-1.4091797,0.7050781-1.8242188,0.7050781C28.2255859,32.0244141,29.5380859,31.7685547,29.9873047,31.0634766
	z M27.1982422,29.5576172c-0.09375,0.9921875-0.3828125,2.0175781-0.5761719,2.3056641c0,0,0.3847656-1.0566406,0.0976563-3.0742188
	c-0.2167969-1.5078125-0.4296875-2.1181641-0.5263672-2.3330078c-0.03125-0.0654297-0.0498047-0.1005859-0.0498047-0.1005859
	s0.0185547,0.0273438,0.0498047,0.1005859C26.4140625,26.8964844,27.2832031,28.6904297,27.1982422,29.5576172z
	 M22.1074219,28.6923828c0.6088867,0.4150391,3.8759766,3.5556641,3.8759766,3.5556641s-1.1225586-0.7050781-1.6025391-1.1523438
	C23.9003906,30.6464844,21.4980469,28.2773438,22.1074219,28.6923828z M20.5058594,32.5693359
	c0.2236328,0,2.0493164,0.5751953,2.9458008,0.6396484c0.8969727,0.0634766,2.2739258-0.0957031,2.2739258-0.0957031
	s-0.4150391,0.1269531-1.7607422,0.3847656C22.6196289,33.7519531,20.3901367,32.5693359,20.5058594,32.5693359z
	 M24.9902344,35.8847656C24.2192383,36.1914063,23.2543945,36,23.1791992,36c-0.0102539,0-0.0146484,0-0.0146484,0
	s0.0107422,0,0.0146484,0c0.059082,0,0.3476563,0.1308594,1.4257813-0.1464844
	c1.2485352-0.3222656,1.8588867-1.7324219,1.8588867-1.7324219C26.1113281,35.2773438,25.7900391,35.5644531,24.9902344,35.8847656z
	 M27.3886719,33.75c-0.4189453,0.2285156-0.9189453,0.1210938-1.1123047-0.2363281
	c-0.1923828-0.359375-0.0087891-0.8339844,0.4101563-1.0625c0.4208984-0.2265625,0.9189453-0.1181641,1.1123047,0.2402344
	C27.9931641,33.0478516,27.8095703,33.5244141,27.3886719,33.75z M28.9208984,35.2021484
	c-0.1210938,0,0.0253906-0.1669922-0.1679688-0.6005859c-0.1923828-0.4316406-0.9599609-0.8173828-0.9599609-0.8173828
	s0.6953125,0.1689453,0.9599609,0.4335938C29.0166016,34.4824219,29.0410156,35.2021484,28.9208984,35.2021484z"/>
<path fill="#2B2B2B" d="M8.3696289,27.9140625c0.0571289-0.0644531,0.109375-0.1318359,0.1708984-0.1914063l0.0341797-0.0380859
	l-0.2880859-0.9609375l-0.4331055,0.2402344l0.0483398,0.5273438l-0.1914063-0.0947266l-0.3369141,0.4306641l0.8168945,0.2900391
	L8.3696289,27.9140625z"/>
<path fill="#2B2B2B" d="M12.706543,23.0249023c0.3359375,0.0473633,0.1914063,0.6225586,0.1914063,0.6225586l0.2890625,0.2412109
	l0.5288086-0.3837891l0.815918,0.0478516l0.9125977-0.9609375l-1.2485352-0.1923828l-1.6342773-0.4799805
	c0,0-0.7202148,0.6245117-0.7202148,0.8637695C11.8413086,23.0249023,12.3696289,22.9755859,12.706543,23.0249023z"/>
<path fill="#2B2B2B" d="M24.0795898,25.4013672c0.7216797,0.0488281,1.0942383-0.0722656,1.0942383-0.0722656l-0.5166016-0.3481445
	c0,0-0.4213867-0.1552734-0.6123047-0.1074219c-0.1918945,0.0473633-0.2177734-0.7802734-0.2177734-0.7802734
	s-0.0341797,0.1445313-0.2763672,0.5756836c-0.2387695,0.4326172-0.4072266,0.0234375-0.4072266,0.0234375l0.2768555,0.8535156
	C23.4204102,25.5458984,23.359375,25.3544922,24.0795898,25.4013672z"/>
<path fill="#2B2B2B" d="M29.2226563,23.2402344l0.0703125,0.2158203c0.1289063,0.0639648,0.2724609,0.234375,0.5078125,0.3417969
	c0.1884766-0.3911133,0.296875-0.8222656,0.296875-1.2792969c0-1.7075195-1.4550781-3.0981445-3.2431641-3.0981445
	c-1.7871094,0-3.2431641,1.390625-3.2431641,3.0981445c0,1.7099609,1.4560547,3.0996094,3.2431641,3.0996094
	c0.0087891,0,0.015625-0.0019531,0.0234375-0.0019531l0.3203125-0.2382813c0.0019531,0,0.5742188-0.046875,0.953125-0.0947266
	c0.1289063-0.015625,0.2294922-0.1152344,0.3447266-0.2333984c0.1464844-0.1450195,0.3115234-0.3105469,0.5703125-0.34375
	c0.0273438-0.0029297,0.0644531-0.0117188,0.0996094-0.0185547c0.1044922-0.1015625,0.1962891-0.2138672,0.2851563-0.3295898
	c-0.0410156-0.0209961-0.0849609-0.0410156-0.1220703-0.0629883c-0.359375-0.2055664-0.3125-0.262207-0.3955078-0.3227539
	c-0.0849609-0.0600586-0.5009766-0.0419922-0.2441406-0.4941406C28.9462891,23.0249023,29.2226563,23.2402344,29.2226563,23.2402344
	z M27.3271484,24.2094727c-0.2880859,0.128418-1.2480469,0-1.7929688-0.3208008s-0.9624023-1.7885742-0.9291992-1.6977539
	c0.1918945,0.5126953,0.6401367,1.152832,1.1206055,1.5385742C26.2060547,24.1132813,27.6171875,24.0805664,27.3271484,24.2094727z
	 M26.6552734,21.6459961c-0.8339844-0.5429688-1.4414063-0.7045898-1.4414063-0.7045898s1.2490234,0.128418,1.6650391,0.4804688
	c0.4160156,0.3530273,1.3779297,1.6655273,1.4736328,1.9868164C28.3808594,23.5004883,27.4882813,22.190918,26.6552734,21.6459961z
	 M27.1044922,19.9819336c0.6074219,0.0952148,1.7607422,0.8642578,1.984375,1.6333008
	c0.2236328,0.7675781,0.0644531,1.409668,0.0644531,1.409668s-0.0322266-0.4492188-0.2236328-1.4414063
	C28.7363281,20.5883789,27.1044922,19.9819336,27.1044922,19.9819336z"/>
<path fill="#2B2B2B" d="M7.4213867,30.3496094c0,0.8466797,0.300293,1.6162109,0.784668,2.2382813
	c0.3354492-0.1035156,0.684082-0.1767578,1.0532227-0.1767578c1.1777344,0,2.2089844,0.5820313,2.8427734,1.4599609
	c0.1293945-0.0351563,0.2617188-0.0644531,0.3847656-0.1123047c0.3769531-1.0634766,1.1630859-1.9248047,2.1704102-2.3896484
	c0.0957031-0.3251953,0.1635742-0.6640625,0.1635742-1.0195313c0-2.0292969-1.6572266-3.6748047-3.7001953-3.6748047
	c-1.0053711,0-1.9130859,0.4013672-2.5800781,1.0478516l-0.1708984,0.1914063
	C7.7871094,28.5634766,7.4213867,29.4111328,7.4213867,30.3496094z M8.3979492,31.1269531
	c-0.6079102-0.5771484-0.4482422-1.8574219-0.4482422-1.8574219c-0.0317383,0.1591797,0.2246094,1.3134766,0.4165039,1.6005859
	c0.1918945,0.2890625,1.3457031,1.2177734,1.3457031,1.2177734S9.0068359,31.703125,8.3979492,31.1269531z M12.7543945,32.2158203
	c-0.5126953-0.1279297-2.9150391-1.3769531-3.5546875-2.0175781c-0.6416016-0.6396484-0.7368164-1.8242188-0.7368164-1.8242188
	S9.1674805,29.4296875,10,30.2304688C10.8334961,31.0292969,13.2666016,32.3427734,12.7543945,32.2158203z M12.8500977,27.7958984
	c0.7045898,0.6738281,1.25,2.5625,1.25,2.5625s-0.8652344-1.5693359-1.5698242-2.3056641
	c-0.7045898-0.7353516-2.7543945-0.8330078-2.7543945-0.8330078C10.5756836,27.1875,12.1459961,27.1240234,12.8500977,27.7958984z
	 M12.0498047,29.6542969c0.7045898,0.703125,1.2490234,1.8564453,1.2490234,1.8564453s-1.2817383-1.5048828-2.0180664-2.2412109
	c-0.7368164-0.7373047-2.2094727-1.4736328-2.2094727-1.4736328C9.9038086,27.9570313,11.3452148,28.9492188,12.0498047,29.6542969z
	"/>
<path fill="#2B2B2B" d="M8.3696289,27.9140625l0.1708984-0.1914063C8.4790039,27.7822266,8.4267578,27.8496094,8.3696289,27.9140625
	z"/>
<path fill="#2B2B2B" d="M46.6923828,26.9804688c-0.0166016-0.25,0.4794922-0.3203125,0.4794922-0.3203125
	s-0.9443359-0.1298828-1.0429688-0.3789063c-0.1015625-0.2519531,0.4775391-0.3964844,0.4775391-0.3964844
	s-1.5380859-0.3105469-1.5722656-0.6552734c-0.0361328-0.3457031,0.4228516-0.7617188,0.4228516-0.7617188
	s-1.3994141,0.0571289-1.5410156-0.1171875c-0.1425781-0.1743164-0.0146484-0.4038086-0.0146484-0.4038086
	S42.5,24.1206055,42.2978516,23.8481445c-0.2011719-0.2719727,0.2626953-0.9946289,0.2626953-0.9946289
	s-1.5683594,0.362793-1.9150391,0.1083984c-0.3447266-0.2543945-0.1542969-0.6542969-0.1542969-0.6542969
	s-0.8046875,0.199707-0.9677734,0.0444336c-0.1621094-0.1572266-0.0498047-0.6728516-0.0498047-0.6728516
	s-0.75,0.6040039-1.2460938,0.6733398c-0.4951172,0.0693359-1.5458984-0.1816406-2.0244141,0.5097656
	c-1.3203125,1.902832-2.4306641,2.9746094-3.3652344,3.6318359c-0.1035156-0.0683594-0.1552734-0.1679688-0.1142578-0.3144531
	c0.2421875-0.8671875,0.1972656-0.96875,1.3095703-2.1279297c1.1376953-1.1850586,3.0878906-3.0986328,3.1103516-3.1176758
	L37,20.9047852v-0.0429688c0-0.2329102,0.0351563-0.6728516-0.4951172-0.6728516c-0.375,0-1.1982422,0.7216797-2.4345703,1.8232422
	c-0.5722656,0.5092773-1.0341797,0.9916992-1.4189453,1.2700195c-0.234375,0.1704102-0.390625,0.3198242-0.5585938,0.4492188
	C31.5546875,24.1401367,31.4384766,24.3125,31.140625,24.3125c0,0-0.1523438,0.0117188-0.1796875,0.0087891
	c-0.4550781-0.0458984-0.8076172-0.1733398-0.8203125-0.1806641l-1.15625-0.59375l-0.03125,0.046875
	c-0.0029297,0.0136719,0.1074219,0.3066406,0.5,0.53125c0.2001953,0.1137695,0.4042969,0.3139648,0.6035156,0.390625
	c-0.2802734,0.1010742-0.5625,0.4384766-0.8066406,0.46875c-0.2246094,0.0283203-0.4423828,0.0839844-0.578125,0.21875
	c-0.1240234,0.1230469-0.2480469,0.3398438-0.40625,0.359375c-0.3837891,0.0478516-1.09375,0.0927734-1.09375,0.0927734
	c0.0175781,0.0097656,0.4267578,0.2099609,1.1621094,0.2099609c0,0,0.1523438-0.0009766,0.2314453-0.0068359
	c0.7480469-0.0419922,2.734375-0.4287109,3.3134766-0.5458984c-0.0722656,0.25,0.2412109,1.1230469,0.2060547,1.6191406
	c-0.0019531,0.0078125-0.0068359,0.0234375-0.0087891,0.0341797C31.2734375,27.3994141,31.1083984,27.2568359,30.5830078,27.5
	C31.4052734,28.4824219,32,30.2841797,32,31.6669922c0,1.9267578-0.9462891,3.4785156-2.4169922,4.5
	c0.0830078,0.2910156,0.2685547,0.7353516,0.2685547,0.7353516s0.2324219-0.4755859,0.3964844-0.4736328
	c0.1630859,0.0019531,0.3652344,0.3886719,0.3652344,0.3886719s0.1484375-0.4013672,0.4169922-0.3789063
	c0.2685547,0.0234375,0.6103516,0.3916016,0.6103516,0.3916016s0.0703125-0.5175781,0.3417969-0.6484375
	c0.2675781-0.1308594,0.5898438,0.3740234,0.5898438,0.3740234s-0.15625-0.5400391,0.1347656-0.6894531
	c0.2890625-0.1484375,0.7353516,0.3554688,0.7353516,0.3554688s0.1210938-1.2451172,0.8828125-1.3310547
	c0.7636719-0.0849609,0.5283203,0.4677734,0.5283203,0.4677734s0.4570313-0.3007813,0.6162109,0.046875
	s0.3984375,0.8496094,0.3984375,0.8496094s0.1503906-0.3232422,0.4941406-0.0703125
	c0.3476563,0.2539063,0.5595703,1.0849609,0.5595703,1.0849609s0.09375-0.7294922,0.3828125-0.6865234
	c0.2861328,0.0410156,0.5322266,1.2929688,0.5322266,1.2929688s0.0878906-0.3447266,0.4550781-0.1103516
	c0.3671875,0.2363281,0.6025391,0.9697266,0.6025391,0.9697266s0.0517578-0.6142578,0.5849609-0.5683594
	s1.0537109,1.0507813,1.0537109,1.0507813s-0.0927734-0.6347656,0.5664063-0.5878906
	c0.65625,0.0488281,0.6699219,0.4511719,0.6699219,0.4511719s0.2519531-0.3417969,0.4765625-0.28125
	c0.2275391,0.0615234,0.5292969,0.4287109,0.5292969,0.4287109s-0.3125-1-0.1650391-1.171875
	c0.1455078-0.1708984,0.4306641,0.0244141,0.4306641,0.0244141s-0.1982422-0.4628906,0.2607422-0.8408203
	c0.4570313-0.3779297,1.1298828,0.0732422,1.1298828,0.0732422s-0.7392578-1.4882813-0.4833984-1.9072266
	c0.2519531-0.4189453,0.7851563-0.2177734,0.7851563-0.2177734s-0.7246094-1.046875-0.6132813-1.5634766
	c0.1103516-0.5195313,0.5849609-0.6074219,0.5849609-0.6074219s-0.9335938-0.8193359-0.9501953-1.1455078
	c-0.0146484-0.3271484,0.5205078-0.28125,0.5205078-0.28125s-0.6679688-0.6425781-0.2724609-1.078125
	c0.3984375-0.4355469,1.3203125-0.2900391,1.3203125-0.2900391s-0.2783203-0.5390625-0.0087891-0.6708984
	c0.2705078-0.1308594,0.8623047,0.1650391,0.8623047,0.1650391s-0.3203125-0.5410156-0.0302734-0.7675781
	c0.2929688-0.2255859,0.5996094-0.125,0.5996094-0.125s-0.2207031-0.2919922,0.2158203-0.6113281
	c0.4365234-0.3212891,1.1162109-0.3701172,1.1162109-0.3701172S46.7089844,27.2285156,46.6923828,26.9804688z
	 M44.7353516,25.8847656c-0.7880859,0.859375-1.4169922,0.3642578-1.0585938,0.34375
	C44.0390625,26.2070313,44.7353516,25.8847656,44.7353516,25.8847656z M42.1474609,24.7744141
	c0.6972656-0.1694336,1.6630859,0.0224609,1.6630859,0.0224609c-1.6347656,0.003418-3.2519531,0.6474609-3.2519531,0.6474609
	S41.453125,24.9443359,42.1474609,24.7744141z M40.7246094,23.7832031
	c-0.8642578,0.2695313-2.8779297,1.4707031-2.8779297,1.4707031s0.5644531-0.6069336,1.2910156-1.0063477
	C39.8632813,23.8481445,40.7246094,23.7832031,40.7246094,23.7832031z M37.0644531,23.8867188
	c0.6171875-0.5039063,1.7832031-0.5898438,1.7832031-0.5898438C37.7890625,23.5893555,35.7138672,25.25,35.7138672,25.25
	S36.4472656,24.390625,37.0644531,23.8867188z M41.2929688,30.1806641c0.0810547,0.0771484-3.6669922-1.4228516-4.2773438-1.5849609
	c-0.6064453-0.1601563-2.8828125-0.8876953-2.8828125-0.8876953s1.140625,0.1132813,2.3554688,0.3837891
	C37.703125,28.3642578,41.2109375,30.1035156,41.2929688,30.1806641z M37.2197266,26.421875
	c0,0,0.1318359,0.3349609,0.7587891,1.0351563c0.6240234,0.6982422,0.8447266,0.90625,0.8447266,0.90625
	s-1.2880859-0.9121094-1.4775391-1.2988281C37.1582031,26.6777344,37.2197266,26.421875,37.2197266,26.421875z
	 M39.2246094,27.4482422c0.4609375,0.6972656,0.9511719,1.1630859,0.9511719,1.1630859s-1.1523438-0.7314453-1.2832031-1.21875
	c-0.1132813-0.4248047-0.0166016-0.9970703,0.0126953-1.1425781c0.0029297-0.0205078,0.0068359-0.0341797,0.0068359-0.0341797
	S38.9091797,26.2285156,38.9052734,26.25C38.8837891,26.3769531,38.8310547,26.8515625,39.2246094,27.4482422z
	 M39.7441406,31.328125c0.9599609,0.2304688,2.1650391,0.8554688,2.2314453,0.9169922
	c0.0654297,0.0634766-1.3994141-0.4052734-1.8798828-0.5429688c-0.4814453-0.1367188-1.9003906-0.4033203-1.9003906-0.4033203
	S38.7822266,31.0957031,39.7441406,31.328125z M36.8837891,30.0507813c0,0,0.7509766-0.2705078,1.9667969,0.0019531
	c1.2148438,0.2714844,2.7255859,1.0361328,2.8076172,1.1132813c0.0839844,0.078125-1.7646484-0.484375-2.3730469-0.6474609
	C38.6787109,30.3574219,36.8837891,30.0507813,36.8837891,30.0507813z M40.1435547,33.1240234
	c0.8085938,0.1669922,1.8085938,0.6572266,1.8613281,0.7080078c0.0556641,0.0517578-1.1728516-0.2998047-1.5761719-0.4003906
	c-0.4033203-0.0996094-1.5986328-0.28125-1.5986328-0.28125S39.3359375,32.9580078,40.1435547,33.1240234z M40.5947266,26.6728516
	c0,0,0.2939453,0.6445313,0.8095703,1.3417969c0.5166016,0.6982422,1.0849609,1.5507813,1.0849609,1.5507813
	S40.5214844,27.7470703,40.5947266,26.6728516z M33.6201172,31.4423828
	c-0.0966797,0.578125-0.3095703,1.4599609-0.3525391,1.3583984c-0.0410156-0.1005859,0.0478516-1.1503906,0.2890625-2.2832031
	c0.2431641-1.1308594,0.6103516-1.2851563,0.6103516-1.2851563S33.7158203,30.8662109,33.6201172,31.4423828z
	 M35.1582031,32.9804688c-0.0966797,0.5771484-0.3095703,1.4580078-0.3515625,1.3564453
	c-0.0429688-0.1005859,0.0458984-1.1474609,0.2880859-2.2802734s0.6103516-1.2871094,0.6103516-1.2871094
	S35.2539063,32.4023438,35.1582031,32.9804688z M37.3115234,34.1738281
	c-0.0683594,0.4589844-0.2226563,1.8847656-0.2558594,1.8037109c-0.0341797-0.0820313-0.1425781-1.3525391,0.0332031-2.2568359
	c0.1767578-0.9033203,0.4550781-0.8964844,0.4550781-0.8964844S37.3798828,33.7119141,37.3115234,34.1738281z
	 M38.1962891,35.7841797c-0.0712891,0.3789063-0.2402344,1.5566406-0.2685547,1.4882813
	c-0.0263672-0.0654297-0.0908203-1.109375,0.0859375-1.8564453c0.1748047-0.7480469,0.5751953-1.0908203,0.5751953-1.0908203
	S38.265625,35.4033203,38.1962891,35.7841797z M40.2294922,38.4052734
	c-0.0322266-0.0488281-0.3154297-0.8164063-0.3681641-1.3886719s0.1376953-0.8701172,0.1376953-0.8701172
	s0.0292969,0.8330078,0.0703125,1.125C40.1064453,37.5595703,40.265625,38.4492188,40.2294922,38.4052734z M37.6611328,32.5263672
	c-0.6376953-0.6699219-4.5205078-5.3769531-4.5205078-5.3769531s4.03125,4.3789063,5.3525391,6.0761719
	c1.3183594,1.6992188,3.2529297,4.6738281,3.2529297,4.6738281S38.3017578,33.1982422,37.6611328,32.5263672z
	 M41.9814453,35.3134766c-0.2675781-0.1542969-1.0761719-0.5302734-1.0761719-0.5302734s0.3730469-0.0351563,0.9160156,0.2509766
	c0.5380859,0.2841797,1.1767578,0.84375,1.2060547,0.8916016C43.0595703,35.9726563,42.25,35.4677734,41.9814453,35.3134766z
	 M42.5878906,28.5166016c-0.2646484-0.7695313-0.2578125-1.2324219-0.3916016-1.4648438
	c0,0,0.4541016,1.0556641,0.7226563,1.5722656c0.2675781,0.5146484,1.1425781,1.3466797,1.1425781,1.3466797
	S42.8525391,29.2871094,42.5878906,28.5166016z M40.9052734,26.2939453
	c-0.7363281-0.1103516-5.2832031-0.5585938-5.2832031-0.5585938S40.25,25.8251953,41.9316406,26.28125
	c1.1669922,0.3193359,1.5751953,0.1923828,4.7880859,1.4111328C46.7197266,27.6923828,41.6416016,26.4013672,40.9052734,26.2939453z
	"/>
</svg>