<?xml version="1.0" encoding="utf-8"?>
<!DOCTYPE svg PUBLIC "-//W3C//DTD SVG 1.1//EN" "http://www.w3.org/Graphics/SVG/1.1/DTD/svg11.dtd">
<svg version="1.1" id="iVarenya" xmlns="http://www.w3.org/2000/svg" xmlns:xlink="http://www.w3.org/1999/xlink" x="0px" y="0px" width="100%" height="100%" viewBox="0 0 48 48" preserveAspectRatio="xMidYMid meet">
<path fill="#2B2B2B" d="M10.0009766,11.5332031c0,0-1.6035156-1.190918-0.6875-2.199707
	c0.9160156-1.0078125,5.1787109,0,5.1787109,0L10.0009766,11.5332031z"/>
<path fill="#2B2B2B" d="M40.7958984,22.0273438L29.6142578,5.8051758c0,0-0.8242188-1.6035156-2.2441406-1.8325195
	c-1.421875-0.2294922-3.1181641,0.7788086-3.1181641,0.7788086l-13.609375,6.828125c0,0,5.8662109,2.9326172,6.5078125,2.9785156
	c0.640625,0.0463867,1.2363281,0,1.6035156,0c0.3662109,0,1.6962891,0.8710938,2.6113281,1.1459961
	c0.9169922,0.2744141,2.4296875,0.2739258,2.8417969,0.503418s2.2001953,1.5585938,3.9414063,1.8793945
	c1.7402344,0.3203125,2.1982422,1.6953125,2.7041016,1.6953125c0.5039063,0,2.1982422,0,2.6113281,0.0458984
	c0.4121094,0.0458984,2.1074219,0.7788086,2.6113281,0.9160156C36.5810547,20.8818359,40.7958984,22.0273438,40.7958984,22.0273438z
	"/>
<path fill="#2B2B2B" d="M8.8554688,10.6625977l1.6953125,1.5585938l3.7578125,1.512207L17.75,17.375
	c1.375,1.3125,2.6875,2.25,4.1201172,2.7744141C23.7553711,20.8393555,26.25,20.9375,26.25,20.9375l9.6435547,0.1738281
	l4.078125,1.0078125c0,0,0.9619141,0.5498047,0.9619141-0.0449219c-0.0917969,0.7783203-0.4111328,1.0532227-0.9169922,1.0532227
	c-0.5039063,0-16.359375-0.0917969-19.0175781-0.824707C18.3408203,21.5688477,8.8095703,11.3041992,8.8095703,11.3041992
	L8.8554688,10.6625977z"/>
<path fill="#2B2B2B" d="M7.25,35.671875c0.78125,1.5625,3.421875,4.640625,4.515625,5.9375c0,0,1.0927734,1.453125,2.09375,1.875
	c1,0.421875,3.03125,0.328125,4.125,0.328125c4.3051758,0,7.453125-0.125,8.5-0.546875
	c1.8359375-4.4316406,8.4794922-19.6796875,8.4794922-19.6796875s-10.5400391-0.125-11.3662109-0.0917969
	c-1.1435547,0.0454102-1.9238281,0-3.1152344-0.2753906c-1.1904297-0.2744141-2.0166016-1.4199219-2.0166016-1.4199219
	L12.1875,15.565918C11.8671875,16.574707,7.2709961,35.671875,7.25,35.671875z M12,20.625c0,0,3.375,5.625,7.0625,6.875
	c3.5756836,1.2119141,12.375,0.1875,12.375,0.1875l-3.625,9.0625c0,0-8.5791016,1.1240234-11.875,0
	c-2.75-0.9375-6.3125-6.8125-6.3125-6.8125L12,20.625z"/>
<path fill="#2B2B2B" d="M12.9462891,29.3613281c-0.0976563,0.1279297-0.1923828,0.2783203-0.2412109,0.4355469
	c-0.0488281,0.1542969-0.0146484,0.3583984,0.1308594,0.4599609c0.2158203,0.0820313,0.6035156-0.1054688,0.7373047-0.1660156
	c0.2197266-0.0078125-0.0244141,0.1572266-0.1181641,0.1767578c-0.1884766,0.0810547-0.6396484,0.2099609-0.8369141,0.1347656
	c-0.2460938-0.0634766-0.4511719-0.3681641-0.3896484-0.609375c-0.4365234,0.3457031-0.8603516,0.4550781-1.3554688,0.1669922
	c-0.5253906-0.4326172-0.1357422-1.6240234,0.3007813-2.0341797c0.1611328-0.1904297,0.5126953-0.2841797,0.6953125-0.0634766
	c0.0742188,0.0869141,0.0800781,0.1943359,0.046875,0.2978516c-0.03125,0.1035156-0.0996094,0.1972656-0.1669922,0.2734375
	c-0.1074219,0.1445313-0.5400391,0.6035156-0.5029297,0.8564453c-0.0244141,0.140625,0.0664063,0.2666016,0.1962891,0.3027344
	c0.2099609,0.0498047,0.3535156,0.0224609,0.5302734-0.0625c0.2568359-0.1279297,0.5146484-0.5058594,0.6611328-0.7294922
	c0.1103516-0.1064453,0.2724609-0.2246094,0.4462891-0.1455078C13.2333984,28.8720703,13.0908203,29.1933594,12.9462891,29.3613281z
	 M12.1474609,27.4667969c0.0859375-0.4501953,0.7041016-0.1865234,0.9765625-0.0097656
	c0.1181641,0.2255859,0.3994141,0.1728516,0.6005859,0.1347656c0.1015625-0.09375,0.2109375,0.0029297,0.3242188,0.0234375
	c0.0048828,0.0166016,0.0117188,0.0273438,0.0253906,0.0273438c-0.03125,0.2255859-0.34375,0.2978516-0.5341797,0.3691406
	c-0.4853516,0.0566406-1.1318359,0.0722656-1.421875-0.3896484c0.0097656-0.0166016,0.0019531-0.0234375-0.0068359-0.0410156
	L12.1474609,27.4667969z"/>
<path fill="#2B2B2B" d="M14.5771484,29.1162109C14.6875,29.2275391,14.6982422,29.4863281,14.5,29.5498047
	c-0.1650391,0.1757813-0.4208984,0.5019531-0.2236328,0.765625c0.1396484,0.1728516,0.2958984,0.1787109,0.4296875,0.109375
	c0.2080078-0.0507813,0.4287109-0.5419922,0.40625-0.765625c-0.2216797-0.09375-0.3769531-0.2773438-0.2851563-0.5234375
	c0.1181641-0.2089844,0.2275391-0.21875,0.4160156-0.1601563c0.2265625,0.1240234,0.2167969,0.2353516,0.2382813,0.4892578
	l0.0302734-0.0039063c0.0888672,0.0126953,0.1396484-0.0595703,0.2099609-0.0810547
	c0.0488281-0.0380859,0.15625-0.0087891,0.1074219,0.0673828c-0.0175781,0.1826172-0.2207031,0.1679688-0.3662109,0.2041016
	c0.0810547,0.4355469-0.2060547,1.0800781-0.6542969,1.2783203c-0.2207031,0.046875-0.3994141-0.0039063-0.6445313-0.0654297
	c-0.5449219-0.0927734-1.0371094-0.8681641-0.6542969-1.3720703c0.0976563-0.2529297,0.2587891-0.4589844,0.5722656-0.4912109
	c0.0742188-0.0361328,0.1601563-0.0332031,0.234375-0.0087891c0.0839844,0.0253906,0.1582031,0.0683594,0.2275391,0.09375
	L14.5771484,29.1162109z M15.1289063,29.4853516c0.0566406-0.0751953,0.1064453-0.2226563,0.0097656-0.3300781
	C15.0791016,29.0839844,15.0517578,29.171875,15.0087891,29.25c-0.0029297,0.0224609-0.0097656,0.0449219-0.0136719,0.0585938
	c-0.0126953,0.0400391-0.03125,0.0390625-0.0039063,0.0761719C15.0224609,29.4082031,15.0888672,29.4736328,15.1289063,29.4853516z"
	/>
<path fill="#2B2B2B" d="M15.9873047,29.9501953c0.4921875-0.1982422,1.5146484-0.0595703,1.6767578,0.1318359
	c-0.0888672,0.4873047-0.7226563,0.7587891-1.0039063,1.1201172c-0.0751953,0.1162109-0.0009766,0.2509766,0.1923828,0.3105469
	c0.3925781,0.1455078,0.9931641,0.0283203,1.375,0.1103516c-0.0097656,0.0146484,0.0009766,0.0566406-0.0283203,0.0439453
	c-0.6318359,0.1689453-1.8476563,0.2294922-2.2597656-0.2460938c-0.0205078-0.3525391,0.7363281-0.8320313,0.8691406-1.0078125
	c-0.1142578-0.0351563-0.6337891,0.1738281-0.7470703,0.1533203c-0.0478516,0.0136719-0.4501953-0.1826172-0.1523438-0.5341797
	L15.9873047,29.9501953z"/>
<path fill="#2B2B2B" d="M18.5556641,30.3203125c0.1445313-0.0957031,0.5478516,0.0068359,0.5966797,0.0986328
	c0.0664063,0.09375-0.0029297,0.2402344-0.0576172,0.3349609c-0.1728516,0.171875-0.4716797,0.7597656-0.3349609,0.9853516
	c0.3476563,0.2480469,0.8232422-0.2216797,0.9160156-0.5253906c0.1142578-0.0410156,0.125-0.0908203,0.2021484-0.0908203
	c0.0322266-0.0234375,0.1435547-0.0087891,0.1738281,0.0146484c0.0537109,0.0019531,0.0605469,0.0390625,0.0820313,0.0800781
	c-0.0146484,0.0283203,0.0078125,0.0498047,0.0146484,0.0751953c-0.0732422,0.4414063-0.3085938,0.7294922-0.5478516,1.0791016
	c0.3105469-0.0527344,0.6494141-0.0722656,0.9228516-0.0214844c0.0039063,0.0361328,0.0537109,0.0273438,0.0292969,0.0625
	c-0.3232422,0.1220703-0.6171875,0.0634766-0.9921875,0.1943359c-0.0869141,0.0917969-0.2177734,0.2685547-0.3183594,0.40625
	c-0.3613281,0.5830078-0.9833984,0.5673828-1.0673828,0.0927734c-0.1083984-0.2851563,0.4257813-0.6865234,0.7880859-0.6376953
	c0.1220703-0.0976563,0.2539063-0.3066406,0.3447266-0.4873047c-0.3740234,0.2548828-0.71875,0.3085938-1.125,0.0175781
	c-0.3837891-0.3320313-0.0761719-1.2792969,0.3007813-1.6816406L18.5556641,30.3203125z M19.0087891,32.7089844
	c-0.15625,0.0820313-0.2910156,0.1611328-0.4101563,0.2929688c-0.0605469,0.0527344,0.0195313,0.0927734,0.0458984,0.1289063
	c0.1933594-0.0302734,0.34375-0.2451172,0.4042969-0.4423828L19.0087891,32.7089844z"/>
<path fill="#2B2B2B" d="M22.8173828,32.84375c-0.0498047,0.1621094,0.0546875,0.3837891,0.2636719,0.4248047
	c0.3027344,0.09375,0.546875-0.0097656,0.8535156-0.0292969c0.1845703-0.0195313,0.2050781,0.0683594,0.0283203,0.1240234
	c-0.3681641,0.1767578-0.7265625,0.2412109-1.1171875,0.1201172l-0.0410156-0.0117188
	c-0.4287109-0.2451172-0.546875-0.5175781-0.4716797-0.8652344l0.0185547-0.1298828
	c0.0322266-0.2070313,0.0097656-0.2919922-0.0957031-0.3242188c-0.1542969-0.0488281-0.7070313,0.3154297-0.9189453,0.5048828
	c-0.2900391,0.2617188-0.4599609,0.4990234-0.7333984,0.8779297c-0.3574219,0.5009766-0.5214844,0.921875-0.8583984,0.8408203
	L19.703125,34.34375c-0.1796875-0.09375-0.0400391-0.4755859,0.1015625-0.7646484
	c0.4550781-0.9638672,1.0996094-2.2285156,1.6503906-3.0068359c0.1357422-0.2060547,0.3867188-0.3154297,0.6113281-0.2441406
	c0.1621094,0.0498047,0.2587891,0.2197266,0.1699219,0.5048828l-0.0039063,0.0136719
	C22.1582031,31.0898438,21.3417969,31.8378906,21,32.5c0.6083984-0.7128906,1.2363281-1.0771484,1.5146484-0.9775391
	C23.0029297,31.6757813,22.921875,32.3359375,22.8173828,32.84375z"/>
<path fill="#2B2B2B" d="M25.9589844,33.4306641c0.1513672-0.1894531,0.5634766-0.3994141,0.7734375-0.3574219
	c0.3710938,0.0761719,0.4716797,0.359375,0.4013672,0.6591797c-0.046875,0.3525391-0.0058594,0.8583984,0.5244141,0.8144531
	c0.1210938-0.0341797,0.2109375-0.0595703,0.3251953-0.1152344c0.1982422-0.1445313,0.1894531,0.0878906,0.0292969,0.1835938
	c-0.7490234,0.4804688-1.3671875-0.2919922-1.3154297-0.7626953c-0.0957031-0.1601563-0.1777344-0.3457031-0.4306641-0.0761719
	c-0.25,0.2314453-0.6230469,0.6074219-0.8964844,0.5859375c-0.3945313-0.0664063,0.3183594-1.0214844-0.0712891-1.1816406
	c-0.2949219-0.1171875-0.9365234,0.4238281-1.1621094,0.6992188c-0.1699219,0.1376953-0.3818359,0.3564453-0.625,0.3027344
	c-0.3632813-0.0917969,0.0966797-1.0595703,0.5253906-1.7519531c0.2255859-0.4775391,0.4238281-0.5898438,0.7597656-0.6152344
	c0.5576172-0.0361328,0.3710938,0.4384766,0.234375,0.7519531c0,0.0146484-0.0029297,0.0273438-0.015625,0.0341797
	c0.3759766-0.3417969,1.2304688-0.4179688,1.1992188,0.0537109C26.1308594,32.8662109,26.0683594,33.140625,25.9589844,33.4306641z
	 M25.7441406,31.9355469c0.0263672,0.0126953,0.0458984,0.0136719,0.0605469-0.0058594
	c0.4404297,0.2294922,0.8300781-0.015625,1.3085938-0.0361328c0.0927734-0.0048828,0.1757813-0.0419922,0.2773438-0.0351563
	c0.1259766-0.0371094,0.2373047,0.0410156,0.3535156,0.0908203c0.0439453,0.0576172,0.1357422,0.0722656,0.1542969,0.1494141
	c-0.640625,0.3554688-1.4638672,0.1328125-2.1533203-0.0419922L25.7441406,31.9355469z"/>
</svg>