<?xml version="1.0" encoding="utf-8"?>
<!DOCTYPE svg PUBLIC "-//W3C//DTD SVG 1.1//EN" "http://www.w3.org/Graphics/SVG/1.1/DTD/svg11.dtd">
<svg version="1.1" id="iZagotovki-i-konservyi" xmlns="http://www.w3.org/2000/svg" xmlns:xlink="http://www.w3.org/1999/xlink" x="0px" y="0px" width="100%" height="100%" viewBox="0 0 48 48" preserveAspectRatio="xMidYMid meet">
<path fill="#2B2B2B" d="M39.2001953,19.4912109c0,0-1.8720703,1.4970703-5.3164063,3.3691406
	c-3.4453125,1.8725586-9.9589844,1.7983398-13.253418,1.6474609c-3.2944336-0.1499023-6.5141602-1.6474609-8.3120117-2.9951172
	C10.5214844,20.1650391,9,18.75,9,18.75s-0.5,0.2915039-0.8740234,1.4897461
	c-0.375,1.1982422-0.1503906,4.7172852,0.4487305,6.7397461C9.1743164,29,13.2924805,39.8574219,13.2924805,39.8574219
	c0.7485352,1.1230469,4.1928711,3.8193359,10.6323242,4.2685547s10.3330078-3.9677734,11.1582031-4.9423828
	c0.8232422-0.9746094,1.4970703-3.1445313,2.0214844-4.7910156c0.5244141-1.6474609,2.0205078-7.0410156,2.6953125-9.7338867
	C40.4746094,21.9624023,39.2001953,19.4912109,39.2001953,19.4912109z"/>
<path fill="#2B2B2B" d="M12.6933594,17.3193359c0.0009766-0.0009766,0.0014648-0.0024414,0.0019531-0.003418
	C12.5322266,17.4726563,12.5141602,17.5576172,12.6933594,17.3193359z"/>
<path fill="#2B2B2B" d="M15.2211914,19.0561523C15.0820313,19.2714844,15.0566406,19.34375,15.2211914,19.0561523
	L15.2211914,19.0561523z"/>
<path fill="#2B2B2B" d="M38.9003906,15.8217773l0.9736328,0.0751953c0,0,0-1.4980469-0.4492188-1.6474609
	c-0.4492188-0.1499023-1.4228516-0.9736328-1.4228516-0.9736328s0,0-0.2246094,0.5239258s1.2734375,1.6474609,1.2734375,1.6474609
	s-0.7490234-0.4492188-1.1982422-0.4492188c-0.4501953,0-0.5986328,0.2998047-0.8232422,1.0483398
	c-0.2255859,0.7485352-5.1669922,2.6210938-5.6914063,2.9199219C30.8134766,19.2661133,31.4599609,21.1254883,31.0419922,20.5
	c-0.1669922-0.25-0.9765625-1.1586914-1.2011719-1.0844727c-0.2255859,0.0751953-6.6650391-0.1489258-7.6381836-0.0742188
	s-2.2460938,1.6469727-1.9467773,1.1230469c0.2988281-0.5239258,0.8237305-1.4228516,0.449707-1.4980469
	c-0.3754883-0.074707-2.9213867-0.4487305-3.8193359-1.0483398c-0.5786133-0.3857422-1.371582,0.6845703-1.6650391,1.1381836
	c-0.1645508,0.2875977-0.1391602,0.215332,0,0c0.0268555-0.0473633,0.0551758-0.0966797,0.0927734-0.1640625
	c0.7480469-1.3476563,0.3740234-1.4980469-0.9736328-1.9472656c-0.8105469-0.2700195-1.3979492,0.1342773-1.6450195,0.3710938
	c-0.0004883,0.0009766-0.0009766,0.0024414-0.0019531,0.003418c-0.1791992,0.2382813-0.1611328,0.1533203,0.0019531-0.003418
	c0.4472656-0.597168,0.5957031-1.1201172,0.1474609-1.4189453c-0.4492188-0.300293-0.8984375-0.2250977-0.8984375-0.2250977
	s0.1494141-0.5239258-0.4492188-1.2729492c-0.5991211-0.7480469-0.7485352-0.8237305-0.7485352-0.8237305l-3.1450195,1.7973633
	c0,0,0.0537109,0.0571289,0.1391602,0.15625c0.3022461,0.3535156,1,1.2387695,1.0581055,1.940918
	c0.074707,0.8979492,0.9360352,1.5556641,2.284668,1.7802734c1.3476563,0.2246094,0.777832,0.4609375,2.5,1.9584961
	C16.1669922,23.9165039,18.3842773,22.9326172,19,22.625c0.5834961-0.2915039,2-0.9165039,2-0.9165039L19.75,23.625
	c0,0,9.125,0.6665039,10.5839844-0.125c0.5957031-0.3232422,0.4052734-1.5380859,0.4052734-1.5380859L31.375,22.9584961
	c0,0,3.7070313-2.1196289,5.4287109-2.793457c1.7236328-0.6738281,3.5947266-2.8457031,3.5947266-2.8457031L38.9003906,15.8217773z"
	/>
<path fill="#FFFFFF" d="M16.7758789,27.4462891c-0.152832-0.203125-0.7626953-1.7275391-0.8388672-1.8037109
	s-1.2451172-0.4326172-1.4995117-0.6347656c-0.2539063-0.2041016-1.1181641-0.4833984-1.2958984-0.5087891
	s-0.8642578,0.5595703-1.0673828,0.6865234s-1.0419922,0.3300781-1.3974609,0.5332031
	C10.3208008,25.921875,9.8125,27.2177734,9.8125,27.2177734c0.3051758,1.2958984,0.2436523,2.1171875,0.4575195,2.3125
	c0.3046875,0.2802734,1.2705078,1.3984375,2.0073242,1.3730469c0.7373047-0.0253906,2.2875977,0.1777344,2.465332-0.0507813
	c0.1777344-0.2294922,1.9057617-1.2460938,1.9570313-1.4238281C16.7504883,29.2509766,16.9282227,27.6503906,16.7758789,27.4462891z
	 M15.9838867,28.8808594c-0.0424805,0.1474609-1.4716797,0.9882813-1.6186523,1.1767578
	c-0.1469727,0.1894531-1.4287109,0.0214844-2.0385742,0.0419922c-0.609375,0.0214844-1.4077148-0.9033203-1.6601563-1.1347656
	c-0.1767578-0.1621094-0.1259766-0.8408203-0.378418-1.9121094c0,0,0.4204102-1.0722656,0.7143555-1.2402344
	c0.2944336-0.1679688,0.9882813-0.3359375,1.15625-0.4414063s0.7358398-0.5888672,0.8823242-0.5673828
	c0.1474609,0.0205078,0.8618164,0.2519531,1.0722656,0.4199219c0.2099609,0.1689453,1.1767578,0.4628906,1.2402344,0.5263672
	c0.0625,0.0625,0.5678711,1.3232422,0.6933594,1.4912109C16.1728516,27.4101563,16.0258789,28.7333984,15.9838867,28.8808594z"/>
<path fill="#FFFFFF" d="M14.5952148,27.0859375c-0.0795898-0.1064453-0.3999023-0.90625-0.4394531-0.9462891
	c-0.0400391-0.0400391-0.652832-0.2265625-0.7861328-0.3330078s-0.5859375-0.2529297-0.6796875-0.265625
	c-0.0927734-0.0136719-0.4526367,0.2929688-0.5595703,0.359375c-0.1064453,0.0664063-0.5458984,0.1728516-0.7329102,0.2792969
	c-0.1860352,0.1064453-0.4526367,0.7861328-0.4526367,0.7861328c0.1601563,0.6796875,0.1279297,1.1103516,0.2402344,1.2128906
	c0.1591797,0.1464844,0.6655273,0.7324219,1.0522461,0.7197266c0.3862305-0.0136719,1.1987305,0.0927734,1.2924805-0.0273438
	c0.0927734-0.1191406,0.9990234-0.6523438,1.0258789-0.7460938C14.5820313,28.0322266,14.675293,27.1923828,14.5952148,27.0859375z
	 M11.4897461,27.7265625c0.1777344-0.203125,0.355957-0.3310547,0.8388672-0.1269531L11.4897461,27.7265625z M11.7695313,26.6337891
	c0.3300781,0.1523438,0.4824219,0.2285156,0.6098633,0.5585938C12.1757813,27.1923828,11.7695313,26.6337891,11.7695313,26.6337891z
	 M12.5571289,28.5136719c0,0-0.0761719-0.1015625-0.1523438-0.2539063s0.1015625-0.7871094,0.1015625-0.7871094
	C12.7094727,28.03125,12.5571289,28.5136719,12.5571289,28.5136719z M12.684082,26.1503906
	c0,0,0.2797852,0.5595703,0.1269531,0.8134766C12.6079102,26.7099609,12.684082,26.1503906,12.684082,26.1503906z
	 M12.7856445,27.3447266c0.0766602,0.0253906,0.5844727,0.4326172,0.6357422,0.7880859
	C12.9384766,27.9804688,12.7856445,27.3447266,12.7856445,27.3447266z M13.0908203,26.9892578
	c0.3051758-0.1015625,0.762207,0.0507813,1.0673828,0.3808594C14.0058594,27.5234375,13.0908203,26.9892578,13.0908203,26.9892578z"
	/>
<path fill="#FFFFFF" d="M22.4013672,39.8994141c0.3076172-0.2978516,2.7978516-1.7744141,2.9082031-1.9121094
	c0.1083984-0.1386719,0.359375-1.9287109,0.6328125-2.3691406c0.2773438-0.4394531,0.4892578-1.7714844,0.4775391-2.03125
	c-0.0136719-0.2607422-1.2666016-0.9902344-1.5561523-1.2236328c-0.2895508-0.2353516-0.9199219-1.3349609-1.3925781-1.7529297
	c-0.4741211-0.4189453-2.9223633-0.609375-2.9223633-0.609375c-2.1850586,0.9560547-3.6538086,1.2021484-3.9291992,1.5820313
	c-0.3935547,0.5429688-2.0527344,2.3564453-1.769043,3.3837891c0.2827148,1.0283203,0.4277344,3.2929688,0.8881836,3.4511719
	c0.4619141,0.1572266,2.8139648,2.1787109,3.1435547,2.1777344C19.2124023,40.5957031,22.0908203,40.1962891,22.4013672,39.8994141z
	 M19.6152344,39.3662109c-0.2734375,0-2.2177734-1.671875-2.5981445-1.8027344
	c-0.3813477-0.1308594-0.5004883-2.0029297-0.734375-2.8535156c-0.2348633-0.8486328,1.1376953-2.3476563,1.4628906-2.7978516
	c0.2285156-0.3144531,1.4414063-0.5185547,3.2480469-1.3076172c0,0,2.0268555,0.1572266,2.4169922,0.5029297
	c0.3925781,0.3466797,0.9125977,1.2558594,1.152832,1.4492188c0.2407227,0.1933594,1.2773438,0.796875,1.2871094,1.0126953
	c0.0097656,0.2148438-0.1660156,1.3154297-0.3935547,1.6796875c-0.2294922,0.3642578-0.4345703,1.8447266-0.5258789,1.9599609
	c-0.0908203,0.1132813-2.1489258,1.3359375-2.4047852,1.5810547C22.269043,39.0351563,19.8901367,39.3652344,19.6152344,39.3662109z
	"/>
<path fill="#FFFFFF" d="M22.3300781,36.6826172c0.1621094-0.1552734,1.4682617-0.9296875,1.5253906-1.0029297
	c0.0576172-0.0722656,0.1879883-1.0107422,0.3330078-1.2421875c0.144043-0.2294922,0.2553711-0.9267578,0.2480469-1.0644531
	c-0.0058594-0.1357422-0.6635742-0.5175781-0.8154297-0.6416016c-0.1513672-0.1230469-0.4814453-0.6982422-0.7290039-0.9189453
	c-0.2485352-0.2177734-1.5322266-0.3193359-1.5322266-0.3193359c-1.1469727,0.5019531-1.9160156,0.6308594-2.0605469,0.8310547
	c-0.2070313,0.2832031-1.074707,1.2333984-0.9277344,1.7734375c0.1499023,0.5371094,0.2246094,1.7246094,0.4672852,1.8085938
	c0.2397461,0.0820313,1.4726563,1.1425781,1.6469727,1.1416016C20.6582031,37.0478516,22.1689453,36.8388672,22.3300781,36.6826172z
	 M20.1953125,32.5693359c0.4155273,0.1679688,0.6987305,0.3671875,0.4956055,1.1298828L20.1953125,32.5693359z
	 M22.2119141,32.5205078c-0.1611328,0.5263672-0.246582,0.7724609-0.7861328,1.0849609
	C21.359375,33.3183594,22.2119141,32.5205078,22.2119141,32.5205078z M19.1538086,34.3925781
	c0,0,0.1542969-0.1494141,0.3974609-0.3183594c0.2446289-0.1689453,1.4208984-0.1757813,1.4208984-0.1757813
	C20.0527344,34.4111328,19.1538086,34.3925781,19.1538086,34.3925781z M23.3598633,33.6123047
	c0,0-0.8955078,0.6210938-1.3916016,0.5087891C22.3491211,33.7324219,23.3598633,33.6123047,23.3598633,33.6123047z
	 M21.2875977,34.2392578c-0.019043,0.1181641-0.5727539,0.9990234-1.1835938,1.2148438
	C20.2177734,34.7119141,21.2875977,34.2392578,21.2875977,34.2392578z M22.0131836,34.5253906
	c0.277832,0.3886719,0.1577148,1.09375-0.324707,1.6572266C21.3681641,36.0302734,22.0131836,34.5253906,22.0131836,34.5253906z"/>
<path fill="#FFFFFF" d="M31.1044922,40.3603516c0.1376953-0.1328125,1.2490234-0.7910156,1.2978516-0.8525391
	c0.0488281-0.0625,0.1601563-0.8613281,0.2822266-1.0576172c0.1240234-0.1962891,0.21875-0.7900391,0.2138672-0.90625
	c-0.0068359-0.1162109-0.5654297-0.4423828-0.6953125-0.5458984c-0.1289063-0.1054688-0.4101563-0.5957031-0.6210938-0.7822266
	c-0.2109375-0.1875-1.3037109-0.2724609-1.3037109-0.2724609c-0.9755859,0.4267578-1.6308594,0.5371094-1.7539063,0.7060547
	c-0.1748047,0.2421875-0.9160156,1.0517578-0.7890625,1.5097656c0.1259766,0.4589844,0.1914063,1.4697266,0.3964844,1.5400391
	c0.2060547,0.0703125,1.2558594,0.9726563,1.4033203,0.9716797C29.6816406,40.6708984,30.9658203,40.4931641,31.1044922,40.3603516z
	 M29.8613281,40.1230469c-0.1220703,0-0.9892578-0.7460938-1.1591797-0.8046875S28.4785156,38.4248047,28.375,38.0449219
	c-0.1054688-0.3789063,0.5068359-1.0478516,0.6523438-1.2480469c0.1025391-0.140625,0.6435547-0.2314453,1.4492188-0.5839844
	c0,0,0.9042969,0.0703125,1.078125,0.2246094c0.1757813,0.1542969,0.4082031,0.5605469,0.5146484,0.6464844
	c0.1074219,0.0869141,0.5703125,0.3554688,0.5742188,0.4521484c0.0048828,0.0957031-0.0732422,0.5869141-0.1748047,0.7490234
	c-0.1025391,0.1630859-0.1943359,0.8232422-0.2353516,0.875c-0.0400391,0.0507813-0.9589844,0.5957031-1.0732422,0.7050781
	S29.984375,40.1220703,29.8613281,40.1230469z"/>
<path fill="#FFFFFF" d="M31.0732422,38.9248047c0.0722656-0.0683594,0.6552734-0.4140625,0.6806641-0.4472656
	c0.0253906-0.0322266,0.0830078-0.4511719,0.1484375-0.5537109c0.0644531-0.1025391,0.1132813-0.4140625,0.1103516-0.4755859
	c-0.0019531-0.0605469-0.2958984-0.2304688-0.3632813-0.2861328c-0.0673828-0.0546875-0.2148438-0.3115234-0.3251953-0.4101563
	c-0.1113281-0.0966797-0.6845703-0.1425781-0.6845703-0.1425781c-0.5117188,0.2246094-0.8544922,0.2822266-0.9189453,0.3710938
	c-0.0927734,0.1259766-0.4794922,0.5507813-0.4140625,0.7910156c0.0673828,0.2402344,0.0996094,0.7695313,0.2089844,0.8076172
	c0.1064453,0.0361328,0.65625,0.5097656,0.734375,0.5087891C30.3271484,39.0878906,31.0009766,38.9951172,31.0732422,38.9248047z
	 M30.1201172,37.0898438c0.1855469,0.0751953,0.3125,0.1640625,0.2216797,0.5039063L30.1201172,37.0898438z M31.0205078,37.0683594
	c-0.0722656,0.234375-0.1103516,0.3447266-0.3505859,0.4833984C30.6396484,37.4238281,31.0205078,37.0683594,31.0205078,37.0683594z
	 M29.65625,37.9033203c0,0,0.0683594-0.0664063,0.1767578-0.1416016c0.109375-0.0761719,0.6347656-0.0791016,0.6347656-0.0791016
	C30.0566406,37.9121094,29.65625,37.9033203,29.65625,37.9033203z M31.5322266,37.5556641
	c0,0-0.3994141,0.2763672-0.6201172,0.2265625C31.0820313,37.6083984,31.5322266,37.5556641,31.5322266,37.5556641z
	 M30.6074219,37.8349609c-0.0078125,0.0527344-0.2548828,0.4462891-0.5283203,0.5419922
	C30.1308594,38.0458984,30.6074219,37.8349609,30.6074219,37.8349609z M30.9316406,37.9628906
	c0.1240234,0.1728516,0.0703125,0.4882813-0.1445313,0.7392578C30.6435547,38.6337891,30.9316406,37.9628906,30.9316406,37.9628906z
	"/>
<path fill="#FFFFFF" d="M30.390625,25.1894531c-0.2861328,0.2929688-2.6181641,1.7714844-2.71875,1.9052734
	c-0.1005859,0.1367188-0.2871094,1.8505859-0.5351563,2.2773438c-0.2529297,0.4277344-0.4169922,1.703125-0.3994141,1.9501953
	c0.0224609,0.2490234,1.2373047,0.9101563,1.5214844,1.1220703c0.28125,0.2177734,0.9140625,1.2470703,1.3769531,1.6328125
	c0.4619141,0.3867188,2.8027344,0.4980469,2.8027344,0.4980469c2.0576172-0.9746094,3.4511719-1.2529297,3.703125-1.6201172
	C36.5,32.4248047,38.03125,30.6484375,37.7304688,29.6767578c-0.2978516-0.9716797-0.5029297-3.1279297-0.9462891-3.2646484
	c-0.4443359-0.1376953-2.7451172-1.9980469-3.0605469-1.9863281C33.4111328,24.4350586,30.6777344,24.8969727,30.390625,25.1894531z
	 M33.0615234,25.6171875c0.2617188-0.0078125,2.1621094,1.53125,2.5292969,1.6455078s0.5341797,1.8945313,0.7802734,2.7001953
	c0.25,0.8027344-1.015625,2.2705078-1.3134766,2.7089844c-0.2099609,0.3066406-1.3613281,0.5351563-3.0595703,1.3398438
	c0,0-1.9365234-0.0917969-2.3183594-0.4111328c-0.3847656-0.3173828-0.9082031-1.171875-1.140625-1.3486328
	c-0.2353516-0.1777344-1.2421875-0.7226563-1.2558594-0.9287109c-0.0175781-0.2041016,0.1181641-1.2587891,0.3242188-1.6113281
	c0.2099609-0.3554688,0.3632813-1.7714844,0.4482422-1.8857422c0.0810547-0.1103516,2.0107422-1.3339844,2.2480469-1.5742188
	C30.5400391,26.0097656,32.7998047,25.6279297,33.0615234,25.6171875z"/>
<path fill="#FFFFFF" d="M30.5488281,28.2548828c-0.1494141,0.1513672-1.3730469,0.9277344-1.4257813,1
	c-0.0517578,0.0703125-0.1474609,0.96875-0.28125,1.1923828c-0.1318359,0.2226563-0.2158203,0.8916016-0.2050781,1.0234375
	c0.0078125,0.1289063,0.6464844,0.4726563,0.7939453,0.5878906c0.1484375,0.1132813,0.4794922,0.6523438,0.7216797,0.8554688
	c0.2441406,0.2001953,1.4716797,0.2607422,1.4716797,0.2607422c1.0791016-0.5126953,1.8076172-0.6582031,1.9394531-0.8515625
	c0.1904297-0.2753906,0.9902344-1.2080078,0.8349609-1.7167969c-0.1601563-0.5087891-0.2617188-1.6376953-0.4990234-1.7128906
	c-0.2294922-0.0703125-1.4345703-1.046875-1.6015625-1.0400391C32.1337891,27.8583984,30.6992188,28.1005859,30.5488281,28.2548828z
	 M32.7041016,32.1152344c-0.4013672-0.1484375-0.6787109-0.3310547-0.5058594-1.0625L32.7041016,32.1152344z M30.78125,32.21875
	c0.1386719-0.5058594,0.2128906-0.7431641,0.7177734-1.0556641C31.5712891,31.4345703,30.78125,32.21875,30.78125,32.21875z
	 M33.6425781,30.3476563c0,0-0.1416016,0.1455078-0.3691406,0.3134766
	c-0.2285156,0.1699219-1.3505859,0.2099609-1.3505859,0.2099609C32.7871094,30.3535156,33.6425781,30.3476563,33.6425781,30.3476563
	z M29.65625,31.2109375c0,0,0.8359375-0.6162109,1.3105469-0.5244141
	C30.6142578,31.0683594,29.65625,31.2109375,29.65625,31.2109375z M31.6142578,30.5537109
	c0.0136719-0.1123047,0.5166016-0.9697266,1.0947266-1.1914063C32.6191406,30.0722656,31.6142578,30.5537109,31.6142578,30.5537109z
	 M30.9130859,30.3017578c-0.2753906-0.3613281-0.1816406-1.0390625,0.2617188-1.5888672
	C31.4863281,28.8496094,30.9130859,30.3017578,30.9130859,30.3017578z"/>
<path fill="none" d="M23.7001953,13.949707C21.8720703,13.7851563,20.3291016,13.4853516,19,13.1083984v0.8676758
	c1.6098633,0.4204102,3.5849609,0.7329102,6,0.8710938v-0.8154297
	C24.5761719,14.0117188,24.1503906,13.9902344,23.7001953,13.949707z"/>
<rect x="19" y="8" fill="none" width="6" height="1"/>
<path fill="none" d="M26,14.059082v0.8305664c1.5283203,0.0185547,3.7949219-0.1625977,6-0.8369141v-0.784668
	C30.4394531,13.7768555,28.453125,14.0864258,26,14.059082z"/>
<rect x="26" y="6" fill="none" width="6" height="1"/>
<rect x="26" y="8" fill="none" width="6" height="1"/>
<rect x="19" y="6" fill="none" width="6" height="1"/>
<path fill="#2B2B2B" d="M32,6V4.6225586C31.8320313,4.5820313,31.6660156,4.5351563,31.4960938,4.5
	c0,0-1.5292969-0.1489258-1.2207031-0.2109375C28.5996094,4.0527344,26.9960938,4.0219727,26,4.0336914V6H32z"/>
<path fill="#2B2B2B" d="M35.2753906,6C34.6357422,5.5332031,33.8466797,5.1816406,33,4.9052734V6H35.2753906z"/>
<path fill="#2B2B2B" d="M25,6V4.0644531c-0.015625,0.0009766-0.0263672,0.0014648-0.0263672,0.0014648
	C23.3232422,4.1293945,21.1040039,4.1665039,19,4.4106445V6H25z"/>
<path fill="#2B2B2B" d="M13.7167969,6H18V4.5478516C16.2788086,4.8139648,14.7143555,5.25,13.7167969,6z"/>
<rect x="26" y="7" fill="#2B2B2B" width="6" height="1"/>
<rect x="19" y="7" fill="#2B2B2B" width="6" height="1"/>
<path fill="#2B2B2B" d="M36.7451172,8c-0.1035156-0.3608398-0.2421875-0.7011719-0.4492188-1H33v1H36.7451172z"/>
<path fill="#2B2B2B" d="M12.8461914,7c-0.0234375,0.046875-0.0581055,0.0874023-0.078125,0.1357422
	C12.659668,7.3935547,12.6132813,7.6865234,12.6274414,8H18V7H12.8461914z"/>
<path fill="#2B2B2B" d="M36.8701172,9H33v3.8920898C35.5537109,11.800293,36.7246094,10.1743164,36.8701172,9z"/>
<path fill="#2B2B2B" d="M25,14.0317383V9h-6v4.1083984c1.3291016,0.3769531,2.8720703,0.6767578,4.7001953,0.8413086
	C24.1503906,13.9902344,24.5761719,14.0117188,25,14.0317383z"/>
<path fill="#2B2B2B" d="M26,14.059082c2.453125,0.0273438,4.4394531-0.2822266,6-0.7910156V9h-6V14.059082z"/>
<path fill="#2B2B2B" d="M12.8759766,9c0.5576172,1.2817383,2.0820313,2.7133789,4.9174805,3.7333984
	c0,0,0.0859375,0.0175781,0.206543,0.0439453V9H12.8759766z"/>
<path fill="#2B2B2B" d="M26,14.8896484v4.0800781c2.4316406-0.0375977,4.4296875-0.5600586,6-1.206543v-3.7104492
	C29.7949219,14.7270508,27.5283203,14.9082031,26,14.8896484z"/>
<path fill="#2B2B2B" d="M11.8334961,8.2915039l-0.3383789,4.6098633c0.8076172,1.262207,3.0180664,3.237793,6.5048828,4.5991211
	v-3.8139648C11.9624023,11.7661133,11.8334961,8.2915039,11.8334961,8.2915039z"/>
<path fill="#2B2B2B" d="M37.6279297,10.2055664C36.5556641,11.8979492,34.8447266,12.9975586,33,13.7080078V17.3125
	c1.5292969-0.7539063,2.5458984-1.546875,3.0556641-1.8652344c1.1982422-0.7485352,2.1708984-2.3208008,2.1708984-3.2944336
	C38.2265625,11.1796875,38.2265625,12.152832,37.6279297,10.2055664z"/>
<path fill="#2B2B2B" d="M19,13.9760742v3.8842773c1.4521484,0.4819336,3.0927734,0.8544922,4.9248047,1.0317383
	C24.2929688,18.9277344,24.6484375,18.9462891,25,18.9604492V14.847168C22.5849609,14.7089844,20.6098633,14.3964844,19,13.9760742z
	"/>
</svg>
