<?xml version="1.0" encoding="utf-8"?>
<!DOCTYPE svg PUBLIC "-//W3C//DTD SVG 1.1//EN" "http://www.w3.org/Graphics/SVG/1.1/DTD/svg11.dtd">
<svg version="1.1" id="iZelen" xmlns="http://www.w3.org/2000/svg" xmlns:xlink="http://www.w3.org/1999/xlink" x="0px" y="0px" width="100%" height="100%" viewBox="0 0 48 48" preserveAspectRatio="xMidYMid meet">
<path fill="none" d="M27.9160156,19.2480469c0.0332031,0-0.0234375-0.0644531-0.1298828-0.1533203
	C27.8486328,19.184082,27.8984375,19.2480469,27.9160156,19.2480469z"/>
<path fill="#2B2B2B" d="M40.4638672,20.015625c-0.6992188-0.3886719-0.7392578-0.4277344-1.0888672-0.4277344
	s-0.7763672,0.2719727-0.7763672,0.2719727l0.2714844-0.5048828c0,0-0.6230469-0.1552734-1.1279297,0
	s-1.2041016,0.6606445-1.2041016,0.6606445s-0.1962891-0.5439453,0.3105469-0.7387695
	c-0.9335938,0.0385742-1.984375,0.4272461-2.6054688,1.0883789c-0.6220703,0.6611328-1.9042969,1.7885742-2.0214844,1.5551758
	c-0.1162109-0.2329102,1.671875-2.2158203,2.3330078-2.6435547s1.9423828-1.0883789,2.4873047-1.3994141
	s0.9335938-0.8945313,0.9335938-0.8945313S37.6640625,16.75,37.3535156,16.7885742
	c-0.3115234,0.0385742-0.8554688,0.0776367-0.8554688,0.0776367s1.0498047-0.8554688,1.1660156-1.3217773
	c0.1171875-0.4663086,0.1943359-1.0107422-0.0771484-1.2827148c-0.2724609-0.2719727-1.3222656-0.3886719-1.7490234,0
	c-0.4287109,0.3886719-1.3613281,2.0605469-1.5166016,1.8657227c-0.15625-0.1943359,1.5546875-2.293457,1.7099609-2.7602539
	c0.15625-0.4663086,0.1943359-1.3603516,0.1943359-1.3603516l-0.6992188,0.1943359c0,0,0.6123047-0.5927734,0.6992188-1.0014648
	c0.0878906-0.4077148,0.0302734-0.6411133,0.0302734-0.6411133S36.1386719,10.5,35.8759766,10.6166992
	c-0.2617188,0.1166992-0.4667969,0.2041016-0.4667969,0.2041016s0.4082031-0.4375,0.3505859-0.7285156
	c-0.0585938-0.2919922-0.7871094-1.3413086-0.7871094-1.3413086s-1.4296875,0.4951172-1.5458984,0.8164063
	C33.3095703,9.8881836,33.3095703,10.5,33.3095703,10.5s-0.203125-0.2910156-0.4658203-0.4375
	c-0.2626953-0.1455078-0.4091797-0.0869141-0.4091797-0.0869141s-0.3486328,0.6411133-0.2910156,1.0498047
	c0.0585938,0.4077148,0.3789063,1.4282227,0.2333984,1.4575195s-0.0292969-1.1953125-1.0498047-1.4873047
	c-0.4951172,0.4375-0.5244141,0.8168945-0.4951172,1.050293c0.0283203,0.2329102,0.1162109,0.8745117,0.3203125,1.1953125
	s0.4082031,1.1660156,0.3496094,1.2539063c-0.0576172,0.0874023-0.0576172-0.8164063-0.7285156-1.5161133
	c-0.6708984-0.7001953-1.2246094-0.8164063-1.2246094-0.8164063s-0.4951172,0.6118164-0.5253906,0.9326172
	c-0.0292969,0.3208008,0.0878906,0.9042969,0.0878906,0.9042969s0.4667969,0.2041016,0.7001953,0.5244141
	c0.2333984,0.3208008,0.3486328,0.6416016,0.3486328,0.6416016l0.5546875-0.2333984c0,0,0.4375,0.0581055,0.4667969,0.6123047
	s-0.4667969,2.7119141-0.4375,3.4702148c-0.1455078-1.2539063-0.0878906-1.8081055,0-2.2163086
	s0.2333984-1.2246094-0.0292969-1.2539063c-0.2617188-0.0288086-0.7285156,0.4086914-0.7285156,0.4086914
	s-0.0585938-0.7294922-0.4667969-1.1083984s-0.9335938-0.8452148-1.3701172-0.8164063
	c-0.4960938,0.262207-0.8173828,0.6123047-0.8457031,0.875c-0.0292969,0.262207-0.0585938,1.0205078,0.2333984,1.2827148
	c-0.5546875-0.4082031-0.875-0.3789063-0.9912109-0.3789063c-0.1171875,0-0.3212891,0.9619141,0.0869141,1.5161133
	c0.328125,0.4453125,0.8945313,1.4067383,1.1533203,1.7714844c0.1064453,0.0888672,0.1630859,0.1533203,0.1298828,0.1533203
	c-0.0175781,0-0.0673828-0.0639648-0.1298828-0.1533203c-0.1728516-0.1435547-0.4746094-0.3510742-0.7451172-0.4594727
	c-0.4375-0.1748047-1.0205078,0.1166992-1.0205078,0.1166992s-0.2041016,0.8457031,0.1748047,1.2539063
	s1.5449219,1.0493164,2.390625,1.6035156c0.8466797,0.5541992,1.0498047,1.137207,1.0498047,1.5454102
	s-0.2333984,1.6035156-0.2333984,2.0415039c0,0.4365234-0.0292969,2.1289063,0.3789063,2.6826172
	c-1.078125-0.6708984-1.5742188-0.9921875-2.6826172-1.3417969c-1.1074219-0.3496094-5.21875-1.1660156-6.2973633-3.4985352
	c-1.0791016-2.3330078-0.0585938-3.6450195,0.7578125-4.2866211c0.8168945-0.6411133,2.3911133-1.1665039,2.9741211-1.3408203
	c0.5839844-0.175293,1.2255859-0.7583008,1.2255859-0.7583008s-0.4384766-0.2626953-1.0795898-0.0878906
	c1.1079102-0.9331055,1.574707-1.1079102,1.4868164-2.6533203c-1.3701172-0.4956055-2.3032227,0.0878906-2.9736328,0.7583008
	c0.7285156-1.1958008,1.1953125-1.8076172,1.1660156-2.3330078c-0.0288086-0.5244141-0.1166992-1.0205078-0.1166992-1.0205078
	s-0.8164063,0.0297852-1.0786133,0.3793945c-0.2626953,0.3500977-0.5541992,0.9619141-0.5541992,0.9619141
	s-0.0292969-0.7871094,0.1748047-1.1948242c0.2041016-0.4086914,0.612793-0.6420898,0.5830078-0.9628906
	c-0.0288086-0.3208008-0.2036133-0.8452148-0.2036133-0.8452148s-0.3208008,0.0869141-0.4667969,0.2333984
	c-0.1455078,0.1455078-0.3500977,0.3496094-0.3500977,0.3496094s0.175293-0.7290039-0.0288086-1.1079102
	s-1.0498047-1.0209961-1.0498047-1.0209961s-0.6416016,0.4960938-0.875,0.9916992
	C20.159668,9.5961914,20.0136719,10.5,20.1303711,10.8500977c-0.3496094-0.5541992-0.8452148-0.6411133-0.8452148-0.6411133
	s-0.3500977,0.5532227-0.2333984,1.0786133c0.1166992,0.5249023,0.2915039,1.3701172,0.5249023,1.6035156
	c-0.6123047-0.6123047-0.7578125-0.7583008-0.7578125-0.7583008l-0.2338867-0.1166992l0.0874023,2.9453125
	c0,0,0.3793945,0.5830078,0.6416016,0.875c0.2626953,0.2910156,0.3208008,1.2827148,0.2045898,1.7490234
	c-0.1166992,0.4667969-0.1464844,1.137207-0.3793945,0.9916992c-0.2333984-0.1459961-0.4956055-1.0205078-0.4956055-1.4868164
	c0-0.4667969-0.2919922-2.8286133-0.3208008-3.6450195c-0.0292969-0.8164063-0.0292969-1.9536133,0.4082031-2.8867188
	c0.4375-0.9335938,0.0581055-2.0703125,0.0581055-2.0703125s-0.3496094,0.0292969-0.5830078,0.3208008
	s-0.4956055,1.0791016-0.4956055,1.0791016s-0.175293-0.3793945-0.0288086-0.7875977
	c0.1455078-0.4082031,0.699707-1.1660156,0.6118164-1.4580078c-0.0874023-0.2910156-0.3208008-0.8164063-0.3208008-0.8164063
	s-0.1748047,0.0878906-0.3208008,0.2333984c-0.1455078,0.1455078-0.262207,0.5541992-0.262207,0.5541992
	s0.1166992-0.875-0.1166992-1.1083984s-1.2246094-1.0493164-1.2246094-1.0493164s-0.7290039,0.815918-0.8457031,1.4580078
	c-0.1166992,0.6411133-0.0874023,1.8950195,0.1748047,2.3320313c0.2626953,0.4375,0.2626953,0.9916992,0.0874023,1.0795898
	c-0.1743164,0.0869141-0.5830078-0.4375-0.5830078-1.0209961c0-0.5830078,0.175293-1.2246094-0.0288086-1.690918
	c-0.2041016-0.4667969-0.7583008-1.3417969-0.9624023-1.9536133c-0.2041016-0.612793-0.4956055-1.4291992-0.9624023-1.6914063
	c-0.4375,0.3789063-0.3789063,0.7583008-0.3208008,0.9916992c-0.1455078,0.0869141-0.5244141-0.5834961-0.9619141-0.7294922
	c-0.4375-0.1455078-1.1079102-0.0869141-1.1079102-0.0869141s-0.2626953,0.6411133-0.0292969,1.0786133
	s0.8452148,0.8452148,1.0205078,1.0205078c-0.2041016,0.262207-0.2915039-0.0288086-0.5541992-0.1166992
	c-0.262207-0.0874023-0.6704102,0-0.6704102,0s0.0585938,0.5244141,0.3789063,0.875
	c0.3208008,0.3500977,1.3125,0.8452148,1.4580078,1.1074219c0.1455078,0.2626953,0.0874023,0.5253906-0.4956055,0.2333984
	c-0.5830078-0.2910156-1.1079102-0.262207-1.1079102-0.262207s-0.0581055,0.7290039,0.2041016,1.0786133
	c0.262207,0.3500977,1.1953125,1.2539063,1.6328125,1.574707c0.4370117,0.3208008,1.1660156,1.3413086,1.0493164,1.5161133
	c-0.1166992,0.175293-0.7871094-0.9331055-1.1074219-1.1953125c-0.3208008-0.262207-1.8666992-1.5161133-2.5371094-0.9619141
	c-0.6704102,0.5537109,0,0.4663086,0.0874023,0.5537109s-0.1748047,0.4375-0.0581055,0.6123047
	s0.4077148,0.5834961,0.4077148,0.5834961s-0.3789063-0.0878906-0.6704102,0.0874023
	c-0.2915039,0.1748047,0.3208008,0.6411133,0.5249023,0.7285156c0.2041016,0.0878906,1.3994141,0.7290039,1.3994141,0.7290039
	s-1.4282227-0.0581055-1.574707,0.175293C9.75,13.7949219,10.1000977,14.378418,10.4208984,14.4951172
	c0.3208008,0.1162109,3.0327148,1.2246094,3.6157227,1.6323242c0.5830078,0.4086914,3.1782227,2.3911133,3.4116211,2.7412109
	c0.2333984,0.3496094,0.4077148,0.6416016,0.2910156,0.7290039c-0.1162109,0.0874023-0.9038086-0.4375-1.4282227-1.3999023
	c-1.1083984-0.8452148-1.75-1.4868164-2.5371094-1.8950195s-3.3530273-1.5161133-3.527832-1.574707
	c-0.175293-0.0581055-0.2333984,0-0.6416016-0.3496094c-0.4086914-0.3500977-0.4375-0.5541992-0.699707-0.6708984
	s-0.699707-0.2041016-0.699707-0.2041016l0.1743164,0.4960938c0,0-0.4951172-0.4667969-0.7285156-0.5253906
	c-0.2333984-0.0581055-0.7294922,0.1166992-0.7294922,0.1166992s-0.0288086,0.2919922,0.2045898,0.5830078
	c0.2329102,0.2919922,0.5537109,0.4375,0.5537109,0.4375l-0.3789063,0.2333984c0,0,0.2333984,0.5541992,0.4375,0.699707
	c0.2036133,0.1459961,0.9331055,0.4663086,1.137207,0.5541992c-0.1459961,0.2041016-0.7001953-0.0581055-0.875,0.2041016
	s0.3789063,0.5244141,0.699707,0.699707c0.3212891,0.175293,1.2539063,0.5249023,1.2539063,0.5249023
	s-0.1455078-0.0292969-0.4956055,0.2333984c-0.3496094,0.262207-0.5537109,0.4082031-0.5537109,0.4082031
	s0.2329102,0.1455078,0.7578125,0.4956055s0.7290039,0.4370117,1.2539063,0.5834961
	c0.5249023,0.1455078,1.3120117,0.5830078,1.9536133,0.7578125s1.5161133,0.3793945,1.5161133,0.3793945
	s-0.7583008,0.2036133-1.6621094-0.0878906s-1.3706055-0.5249023-1.8076172-0.3793945
	c-0.4370117,0.1464844-0.3789063,0.2919922-0.3789063,0.2919922s0.5537109,0.4956055,0.3789063,0.4956055
	s-0.8164063-0.1748047-1.1079102,0.1166992c-0.2919922,0.2915039-0.875,1.253418-0.875,1.253418
	S9.4584961,22.2802734,9.75,22.4550781c0.2919922,0.1748047,0.4663086,0.3789063,1.1083984,0.4082031
	c0.6416016,0.0288086,1.8076172-0.1455078,1.8076172-0.1455078s-0.1459961,0.262207-0.5249023,0.6416016
	c-0.3789063,0.3789063-0.4082031,0.7578125-0.4082031,0.7578125s0.7290039,0.2915039,1.3120117,0.0288086
	c0.5830078-0.262207,2.2456055-1.4868164,2.7412109-1.6616211c0.4951172-0.175293,1.5454102-0.2041016,2.128418-0.175293
	c0.5830078,0.0297852,1.0786133,0.0297852,1.5742188,0.5541992c0.4960938,0.5249023,1.8666992,2.1582031,3.0908203,2.7119141
	c1.2246094,0.5537109,1.75,0.9912109,2.8862305,1.2832031c1.1376953,0.2910156,3.4707031,1.0205078,3.3251953,1.1943359
	c-0.1464844,0.1757813-1.7783203,0.5546875-2.2744141,0.671875C26.0205078,28.8408203,25,29.2783203,24.3295898,29.1904297
	c-0.6708984-0.0869141-1.6625977-0.4658203-2.449707-1.1376953c-0.7875977-0.6699219-1.1665039-1.1660156-1.6035156-0.9326172
	c-0.4375,0.2333984-1.6914063,1.2539063-1.6914063,1.2539063s0.3500977,0.2333984,0.612793,0.2910156
	c0.262207,0.0595703,0.5244141,0.1171875,0.4077148,0.2929688c-0.1166992,0.1748047-0.699707-0.2333984-1.3408203-0.4384766
	c-0.6416016-0.203125-1.137207-0.4072266-1.6625977-0.2333984c-0.5244141,0.1757813-0.9038086,0.5546875-0.815918,0.6132813
	c0.0874023,0.0585938,0.4663086,0.3496094,0.6118164,0.4072266c0.1464844,0.0595703,0.3208008,0.3505859,0.0878906,0.2929688
	c-0.2333984-0.0595703-0.7875977-0.1171875-1.0786133,0.1738281c-0.2919922,0.2919922-0.7583008,1.3125-0.9331055,1.4287109
	c-0.175293,0.1171875-0.175293,0.1757813,0.2036133,0.3789063c0.3793945,0.2050781,0.9916992,0.1757813,1.1083984,0.0878906
	c0.1162109-0.0878906-0.3212891,0.2910156-0.3212891,0.4667969c0,0.1748047,0.0878906,0.5830078,0.0878906,0.5830078
	s0.6416016-0.1455078,0.8452148-0.3496094c0.2041016-0.2041016,1.7788086-0.7001953,2.2744141-0.9042969
	c0.4960938-0.2041016,1.8081055-0.5253906,1.8081055-0.2919922s-0.9619141,0.5546875-1.8662109,0.8173828
	c-0.9038086,0.2626953-1.7495117,0.3789063-1.7495117,0.3789063s-0.3789063,0.3203125-0.5537109,0.4658203
	c-0.175293,0.1455078-0.7875977,0.2919922-0.875,0.2626953s-0.2333984-0.6113281-0.2333984-0.6113281
	s-0.6416016,0.0869141-0.9326172,0.4658203c-0.2919922,0.3789063-0.4375,0.7871094-0.4375,0.7871094l0.4375,0.0585938
	c0,0-0.6708984,0.9912109-0.9042969,1.2539063c-0.2329102,0.2626953-0.699707,0.5244141-0.699707,0.5244141
	s0.2333984,0.1455078,0.5541992,0.0878906c0.3203125-0.0585938,1.2241211-0.3212891,1.5742188-0.3496094
	c0.3496094-0.0292969,0.4663086,0.1162109,0.2626953,0.2333984c-0.2041016,0.1162109-1.137207,0.5537109-1.9829102,0.6699219
	c-0.8457031,0.1171875-1.7783203,0.2333984-1.8081055,0.5839844c-0.0288086,0.3486328,0.0585938,0.6123047,0.7001953,0.5244141
	c0.6411133-0.0878906,0.9619141,0.0878906,0.8164063,0.1455078c-0.1459961,0.0576172-1.1079102,0.1455078-1.4580078,0.2333984
	s-0.6123047,0.0576172-0.7583008,0.3203125c-0.1455078,0.2626953-0.1748047,0.5546875-0.1748047,0.5546875l0.9331055-0.1757813
	c0,0,0.3208008-0.0869141,0.2919922,0.0302734c-0.0297852,0.1162109-0.875,0.203125-1.1083984,0.3203125
	c-0.2333984,0.1162109-0.3789063,0.5546875-0.3789063,0.5546875l0.4663086,0.0859375c0,0-0.6123047,0.3505859-0.7290039,0.6416016
	C9.75,40.3291016,9.5458984,41.5820313,9.5458984,41.5820313s0.4375-0.1152344,0.9335938-0.3193359
	c0.4951172-0.2050781,0.8164063-0.5839844,0.8164063-0.5839844l0.2329102,0.5546875c0,0,0.2333984-0.4091797,0.262207-0.6416016
	c0.0292969-0.2333984-0.0639648-0.40625,0.0527344-0.4355469s0.0639648,0.1435547,0.2973633,0.4648438
	C12.3745117,40.9414063,12.4907227,41,12.4907227,41s0.5834961-0.1171875,0.875-0.3789063
	c0.2915039-0.2626953,0.8164063-0.9326172,0.8164063-0.9326172l0.3500977,0.640625c0,0,0.2915039-0.3496094,0.5249023-0.7285156
	s1.1953125-1.75,1.7495117-2.3330078c0.5537109-0.5830078,1.3413086-1.7490234,1.4580078-1.5742188
	c0.1166992,0.1738281-0.4375,0.9619141-0.7875977,1.2822266c-0.3496094,0.3212891-1.0493164,0.875-1.1958008,1.1660156
	c-0.1455078,0.2929688-0.6411133,0.9628906-0.6118164,1.546875c0.5537109-0.2636719,0.8452148-0.4091797,0.8452148-0.4091797
	s-0.5244141,0.6708984-0.2915039,1.2246094c0.2333984,0.5537109,0.9916992,1.1083984,0.9916992,1.1083984
	s0.5244141-0.0585938,0.8457031-0.5546875c0.3208008-0.4951172,0.5244141-1.1074219,0.5244141-1.1074219l0.3793945,0.2324219
	c0,0,0.4077148-0.203125,0.5244141-0.6992188c0.1166992-0.4951172,0.2041016-1.515625,0.2041016-1.515625
	s0.0878906-0.4082031,0.2045898-0.0292969c0.1162109,0.3789063,0.1655273,1.2167969,0.2915039,1.3994141
	c0.1547852,0.2246094,0.5830078,0.2626953,0.5830078,0.2626953s0.1748047-0.7871094,0.3789063-0.8457031
	c0.2045898-0.0585938,0.2045898-0.0585938,0.2045898-0.0585938s-0.2919922,0.7587891-0.3500977,1.1660156
	c-0.0585938,0.4082031-0.0585938,0.9619141,0.2915039,1.4287109c0.3496094,0.4667969,0.7290039,0.6708984,0.7871094,0.9335938
	c0.0585938,0.2626953,0,0.2324219,0.3208008-0.0292969c0.3208008-0.2626953,0.7290039-0.4658203,0.875-0.8164063
	c0.1455078-0.3496094,0.3203125-0.6123047,0.2333984-1.1083984c-0.0878906-0.4951172-0.0585938-0.7578125-0.0585938-0.7578125
	s0.2333984,0.4082031,0.3208008,0.7294922C23.862793,40.5625,24.0375977,40.8828125,24.2416992,41
	c0.2045898,0.1162109,0.4086914-0.1757813,0.5253906-0.7578125c0.1162109-0.5839844,0-1.8955078-0.0878906-2.3339844
	c-0.0874023-0.4365234-0.0585938-0.9033203,0.0878906-0.9609375c0.1455078-0.0595703,0.0869141,0.5537109,0.2915039,0.9326172
	c0.2041016,0.3789063,0.8164063,0.9619141,1.3408203,0.9912109c0.1464844-0.5537109,0.3496094-0.9033203,0.1171875-1.5742188
	c-0.2333984-0.6708984-0.7294922-1.1953125-0.5839844-1.5458984c0.1464844-0.3496094,0.4375-0.8164063,0.4375-0.8164063
	s0.1757813,0.4667969,0.5253906,0.9628906c0.3496094,0.4951172,1.2539063,1.0205078,2.1279297,0.8164063
	c0.4375-1.0205078,0.4667969-1.4873047,0.3789063-1.8378906c-0.0869141-0.3486328-0.7285156-1.3691406-0.7285156-1.3691406
	s0.5253906,0.203125,1.1074219,0.3486328c0.5839844,0.1464844,0.7587891-0.1455078,0.7587891-0.1455078
	s0.0292969-0.7871094-0.4375-1.078125c-0.4667969-0.2919922-2.0117188-1.1083984-2.8867188-1.7207031
	s-1.3994141-0.7871094-1.078125-1.1083984c0.3203125-0.3203125,0.8154297-0.3203125,1.6904297-0.6416016
	c0.875-0.3203125,1.6914063-0.5244141,1.9833984-0.203125c0.2910156,0.3203125,0.9033203,1.1367188,1.0488281,3.2949219
	c0.1464844,2.1572266,0.0292969,4.0527344-0.6699219,5.9765625c-0.7001953,1.9248047-2.8378906,5.0058594-2.7890625,5.8125
	c0,0,0.4267578,0.0400391,0.8554688-0.1162109c0.4267578-0.1552734,1.9433594-2.5664063,2.5654297-4.6660156
	c0.6220703-2.0986328,1.1660156-4.4326172,0.8544922-7.3085938c-0.3105469-2.8769531-1.4384766-3.8876953-1.5166016-4.7041016
	c-0.0771484-0.8164063-0.4267578-3.0327148,1.3222656-3.4213867c1.75-0.3886719,2.9160156-0.6606445,3.5390625-0.1552734
	c0.6210938,0.5053711,1.3994141,0.8935547,1.8271484,0.6606445c0.1162109-0.5439453,0.1542969-0.8544922-0.15625-1.1269531
	c-0.3105469-0.2729492-1.1660156-0.5449219-1.1660156-0.5449219s1.515625-0.3886719,2.0996094-0.2719727
	c0.5830078,0.1166992,1.7880859-0.078125,1.7880859-0.078125s-0.15625-0.5439453-0.5439453-0.621582
	c-0.3886719-0.078125-0.7783203-0.1166992-0.7783203-0.1166992s0.8955078-0.3500977,1.4785156-0.3110352
	c0.5830078,0.0385742,0.6992188-0.5053711,0.6992188-0.5053711l-0.4667969-0.0390625
	C39.8027344,20.715332,40.3085938,20.5986328,40.4638672,20.015625z M20,22.625c0,0-1.1811523-0.8696289-1.5024414-1.0444336
	c-0.3208008-0.175293-2.6533203-0.0878906-3.965332,0.0585938c-1.3120117,0.1455078,3.1196289-0.4375,3.4116211-0.4375
	c0.2910156,0-0.2919922-0.3500977-0.8164063-0.5834961c-0.5253906-0.2329102-4.3740234-2.5371094-4.6367188-2.7407227
	C12.2285156,17.6733398,10.625,16.2739258,10.625,16.2739258s1.4169922,1.0996094,2,1.5073242
	c0.5834961,0.4086914,5.9018555,3.2451172,6.3393555,3.6533203S19.9375,22.28125,19.9375,22.28125
	s-0.1152344-0.5102539-0.40625-1.09375c-0.2919922-0.5830078-1.675293-2.9023438-2.112793-3.5727539
	c-0.4375-0.6708984-0.8164063-1.3408203-1.4868164-1.8076172c-0.6708984-0.4667969-2.128418-1.7495117-2.4780273-2.0703125
	c-0.3500977-0.3208008-1.6625977-1.3999023-1.9248047-1.6040039c-0.2626953-0.2036133-0.7583008-1.0493164-0.7583008-1.0493164
	S11.8125,12.3251953,12.25,12.5c0.4375,0.175293,1.5942383,1.3686523,2.03125,1.71875
	c0.4375,0.3496094,1.8837891,1.4716797,2.0585938,1.559082s-0.0668945-0.8920898-0.6210938-1.621582
	c-0.5541992-0.7285156-1.6533203-2.9853516-1.8862305-3.3354492c-0.2333984-0.3496094-0.2919922-0.9619141-0.2919922-0.9619141
	s-0.1166992-0.875-0.3500977-1.8076172c-0.2329102-0.9331055-1.4282227-2.4204102-1.4282227-2.4204102
	C12.3452148,6.0976563,12.8691406,7.1958008,13.21875,7.75c0.3500977,0.5537109,0.4584961,2.0834961,0.75,2.8125
	c0.2919922,0.7290039,2.3125,4.1655273,2.3125,4.078125s0.1166992-1.0205078,0-1.9829102
	c-0.1162109-0.9619141,0.0512695-5.0825195,0.0585938-4.8984375C16.375,8.65625,16.453125,12.6166992,16.46875,13.21875
	c0.0292969,1.137207,0.3125,2.5483398,0.3125,2.78125c0,0.2333984,0.2875977,0.3901367,0.8706055,1.3232422
	s1.8955078,3.440918,1.8955078,3.3530273c0-0.0874023,0.1748047-1.690918,0.2915039-2.2451172
	c0.1166992-0.5537109,0.6123047-2.4492188,0.6704102-3.0908203c0.0585938-0.6411133,0.6416016-5.1025391,0.6416016-5.1025391
	S21.0585938,11.2978516,21,12.40625c-0.0581055,1.1079102-0.2709961,2.4897461-0.2709961,2.4897461
	s0.2006836,0.0004883,0.5097656-0.284668c0.3237305-0.2988281,1.0786133-0.7871094,1.0786133-0.7871094
	s-1.309082,1.0014648-1.6298828,1.4677734c0,0-0.4130859,1.7436523-0.5,2.2392578
	c-0.0878906,0.4960938-0.2612305,2.2124023-0.2612305,2.2124023S19.8125,20.4130859,19.8125,20.9375
	c0,0.5253906,0.6679688,2.3339844,0.6679688,2.3339844L20,22.625z M26.0498047,29.453125
	C25.8164063,29.5693359,25.5351563,29.5039063,25.59375,30c0.0576172,0.4960938,1.1855469,2.1074219,1.1855469,2.1074219
	s0.5527344,1.953125,0.7578125,2.4199219c0.203125,0.4658203,0.7578125,1.3994141,0.4960938,1.1660156
	C27.7705078,35.4599609,26.8808594,33,26.53125,32.125c-0.3505859-0.875-1.1308594-1.8320313-1.21875-2.09375
	c-0.0869141-0.2626953-0.3564453,1.0664063-0.53125,1.5625c-0.175293,0.4960938-0.53125,2.0371094-0.53125,2.125
	c0,0.0869141,1.0703125,2.6738281,1.2753906,3.140625c0.203125,0.4667969,0.4072266,1.1367188,0.4072266,1.1367188
	s-0.3212891-0.5537109-0.4667969-0.8457031c-0.1455078-0.2910156-0.2333984-0.9619141-0.4951172-1.4287109
	c-0.262207-0.4667969-0.6396484-1.3642578-0.8144531-1.5966797c-0.175293-0.2333984-0.5439453,1.6689453-0.71875,2.28125
	s-0.8867188,3.9814453-0.8867188,3.6894531s0.1748047-1.2539063,0.3789063-1.8662109s0.2333984-1.6035156,0.2333984-1.6035156
	s-0.7583008,0.4091797-0.9335938,0.5546875c-0.0825195,0.0683594-0.3720703,0.2539063-0.637207,0.4248047
	C21.3740234,37.7792969,21.1884766,37.9160156,21.125,37.9375c-0.0922852,0.0302734,0.171875-0.1416016,0.4672852-0.3320313
	c0.3833008-0.3046875,0.871582-0.7265625,1.0014648-0.8554688c0.2036133-0.2050781,0.6860352-0.5322266,0.6860352-0.5322266
	s0.5244141-1.6904297,0.6704102-2.3320313s0.8168945-3.8203125,0.7001953-3.9667969
	c-0.1171875-0.1455078-1.0205078,0.7587891-1.0205078,0.7587891c-2.0449219,1.7197266-1.9160156,1.6064453-2.1000977,1.7490234
	c-0.262207,0.2050781-1.1660156,1.6337891-1.4580078,2.1582031c-0.2910156,0.5244141-1.3994141,2.5078125-1.7202148,3.0039063
	c-0.3203125,0.4951172-0.9619141,2.4199219-0.9619141,2.4199219s0.5541992-1.953125,0.699707-2.3330078
	c0.1455078-0.3789063,1.4873047-2.6826172,1.6328125-2.9453125c0.1459961-0.2626953,1.2246094-2.1289063,1.2246094-2.1289063
	s-1.6328125,1.0507813-2.0991211,1.3710938c-0.4663086,0.3212891-2.7700195,2.0117188-3.2368164,2.390625
	s-2.7407227,1.9541016-3.0615234,2.3330078c-0.3208008,0.3798828-1.3999023,1.1376953-1.3999023,1.1376953
	s0.7875977-0.671875,1.1669922-1.1669922c0.3789063-0.4951172,3.3237305-2.5947266,3.8486328-2.8857422
	c0.5249023-0.2929688,2.3037109-1.84375,2.3037109-1.84375s-0.9038086,0.1230469-1.3125,0.2392578
	c-0.4082031,0.1171875-1.3413086,0.2626953-1.7490234,0.3789063c-0.4086914,0.1171875,1.0952148-0.3476563,1.5615234-0.4931641
	c0.4667969-0.1455078,1.78125-0.40625,1.78125-0.40625s1.9482422-1.140625,2.53125-1.34375
	c0.5839844-0.2050781,2.4067383-2.1005859,2.4067383-2.1005859S22.9663086,30.0683594,22.5,30.15625
	c-0.4667969,0.0869141-2.7124023,0.1269531-3.0625,0.15625c-0.3496094,0.0292969-1.8857422,0.0693359-2.46875,0.15625
	c-0.5834961,0.0869141-1.4453125,0.5009766-1.4453125,0.5009766s0.4375-0.2041016,0.7290039-0.3789063
	c0.2919922-0.1757813,2.012207-0.4667969,3.2075195-0.4384766C20.6557617,30.1816406,22.875,29.875,22.875,29.875
	s-0.0810547-0.0751953,0.9291992-0.1298828c1.0708008-0.0576172,2.449707-0.4667969,2.449707-0.4667969
	S26.2832031,29.3369141,26.0498047,29.453125z M34.0097656,22.1342773c-0.40625,0.1586914-2.3349609,0.7177734-3.4472656,1.5322266
	c-0.3222656,0.2358398-0.3886719,0.4692383-0.5625,0.75l0.1318359-2.3984375c0,0-0.1503906-1.3642578-0.4130859-1.8305664
	c-0.1972656-0.3520508-0.6113281-1.8217773-0.8037109-2.5258789C28.8486328,17.440918,28.8125,17.28125,28.8125,17.28125
	s0.0390625,0.1494141,0.1025391,0.3803711c0.0595703,0.1987305,0.1445313,0.4467773,0.2548828,0.6821289
	c0.2324219,0.4956055,0.7871094,2.128418,0.9326172,2.6533203c0.1455078,0.5253906,0.2626953,0.9624023,0.3789063,1.5454102
	c0.0205078,0.1035156,0.8164063-1.0498047,0.9628906-1.8076172c0.1455078-0.7583008,0.9238281-3.4638672,1.1181641-4.0473633
	c0.1875-0.5625,0.8349609-3.4462891,1.2138672-4.6416016c0.3789063-1.1958008,0.6123047-1.8666992,0.6123047-1.8666992
	S33.2294922,14.8125,32.1875,18.8334961c0,0,1.3554688-1.043457,1.7939453-1.4521484
	C34.4179688,16.9736328,35.8125,15.875,35.8125,15.875s-1.3330078,1.1875-1.8330078,1.6459961
	C33.4599609,17.9975586,32.03125,19.34375,32.03125,19.34375s-0.5205078,2.0375977-0.8125,2.5625s-0.75,0.9375-0.75,0.9375
	l-0.1347656,0.6147461c0,0,2.4511719-1.0620117,3.6757813-1.5571289c1.2255859-0.4960938,4.1992188-1.3706055,4.1992188-1.3706055
	S34.5341797,21.9301758,34.0097656,22.1342773z"/>
</svg>