<?xml version="1.0" encoding="utf-8"?>
<!-- Generator: Adobe Illustrator 15.0.2, SVG Export Plug-In . SVG Version: 6.00 Build 0)  -->
<svg version="1.2" baseProfile="tiny" id="Layer_1" xmlns="http://www.w3.org/2000/svg" xmlns:xlink="http://www.w3.org/1999/xlink"
	 x="0px" y="0px" width="500px" height="500px" viewBox="0 0 500 500" xml:space="preserve">
<path fill="#4DAD8D" d="M250,344.463c-52.087,0-94.463-42.376-94.463-94.463s42.376-94.463,94.463-94.463
	s94.463,42.376,94.463,94.463S302.087,344.463,250,344.463z M250,165.537c-46.573,0-84.463,37.89-84.463,84.463
	s37.89,84.463,84.463,84.463s84.463-37.89,84.463-84.463S296.573,165.537,250,165.537z"/>
<path fill="#4DAD8D" d="M250,194.723c-18.85,0-34.186-15.336-34.186-34.186S231.15,126.352,250,126.352s34.186,15.336,34.186,34.186
	S268.85,194.723,250,194.723z M250,136.352c-13.336,0-24.186,10.85-24.186,24.186s10.85,24.186,24.186,24.186
	s24.186-10.85,24.186-24.186S263.336,136.352,250,136.352z"/>
<path fill="#4DAD8D" d="M316.739,113.994c-3.397,0-6.726-0.661-9.89-1.965c-13.243-5.456-19.578-20.671-14.122-33.916
	c4.027-9.772,13.458-16.087,24.027-16.087c3.398,0,6.726,0.661,9.89,1.965c6.415,2.643,11.418,7.627,14.085,14.033
	c2.668,6.406,2.681,13.467,0.037,19.884C336.739,107.68,327.309,113.994,316.739,113.994z M316.755,72.026
	c-6.502,0-12.305,3.885-14.781,9.896c-3.356,8.146,0.54,17.505,8.686,20.86c1.95,0.804,3.996,1.211,6.08,1.211
	c6.502,0,12.305-3.885,14.781-9.896c1.626-3.946,1.618-8.289-0.022-12.229s-4.717-7.005-8.663-8.631
	C320.885,72.434,318.84,72.026,316.755,72.026z"/>
<path fill="#4DAD8D" d="M313.261,220.926c-9.132,0-17.717-3.557-24.174-10.014c-6.456-6.456-10.013-15.041-10.013-24.172
	s3.556-17.716,10.014-24.173c6.456-6.457,15.041-10.013,24.173-10.013c9.131,0,17.716,3.556,24.172,10.013
	c6.458,6.457,10.014,15.042,10.014,24.173s-3.557,17.716-10.014,24.173C330.977,217.369,322.392,220.926,313.261,220.926z
	 M313.261,162.555c-6.461,0-12.534,2.516-17.103,7.083c-4.568,4.568-7.084,10.643-7.084,17.103s2.516,12.533,7.084,17.101
	c4.568,4.569,10.642,7.085,17.103,7.085c6.46,0,12.533-2.516,17.101-7.084c4.569-4.568,7.085-10.642,7.085-17.102
	s-2.516-12.534-7.084-17.103C325.794,165.07,319.721,162.555,313.261,162.555z"/>
<path fill="#4DAD8D" d="M411.75,208.637c-10.526,0-19.944-6.279-23.991-15.998c-5.506-13.224,0.773-28.462,13.997-33.968
	c3.189-1.328,6.546-2.001,9.978-2.001c10.527,0,19.944,6.279,23.991,15.998c2.667,6.405,2.681,13.467,0.037,19.883
	c-2.645,6.415-7.628,11.418-14.034,14.085C418.538,207.964,415.182,208.637,411.75,208.637z M411.733,166.67
	c-2.104,0-4.168,0.415-6.134,1.232c-3.939,1.641-7.005,4.718-8.631,8.664c-1.626,3.945-1.618,8.289,0.022,12.229
	c2.489,5.979,8.283,9.842,14.759,9.842c2.104,0,4.168-0.415,6.134-1.232c3.94-1.641,7.006-4.718,8.632-8.664
	c1.626-3.945,1.618-8.288-0.022-12.229C424.003,170.533,418.21,166.67,411.733,166.67z"/>
<path fill="#4DAD8D" d="M339.464,284.186c-18.85,0-34.186-15.336-34.186-34.186s15.336-34.186,34.186-34.186
	S373.649,231.15,373.649,250S358.313,284.186,339.464,284.186z M339.464,225.814c-13.336,0-24.186,10.85-24.186,24.186
	s10.85,24.186,24.186,24.186s24.186-10.85,24.186-24.186S352.8,225.814,339.464,225.814z"/>
<path fill="#4DAD8D" d="M411.983,342.731c-3.398,0-6.726-0.661-9.89-1.965c-6.415-2.643-11.418-7.627-14.085-14.033
	c-2.668-6.406-2.681-13.467-0.037-19.884c4.027-9.771,13.458-16.086,24.027-16.086c3.397,0,6.726,0.661,9.89,1.965
	c13.243,5.457,19.578,20.671,14.122,33.916C431.983,336.417,422.553,342.731,411.983,342.731z M411.999,300.764
	c-6.502,0-12.305,3.885-14.781,9.896c-1.626,3.946-1.618,8.289,0.022,12.229s4.717,7.005,8.663,8.631
	c1.95,0.804,3.995,1.211,6.08,1.211c6.502,0,12.304-3.885,14.781-9.896c3.356-8.146-0.541-17.504-8.686-20.86
	C416.129,301.171,414.083,300.764,411.999,300.764z"/>
<path fill="#4DAD8D" d="M313.261,347.446c-9.131,0-17.716-3.557-24.173-10.014c-6.456-6.456-10.013-15.041-10.013-24.172
	s3.556-17.716,10.014-24.173c6.457-6.457,15.041-10.014,24.173-10.014c9.131,0,17.715,3.557,24.172,10.014
	c13.329,13.328,13.329,35.017,0,48.345C330.977,343.891,322.392,347.446,313.261,347.446z M313.262,289.074
	c-6.46,0-12.534,2.517-17.103,7.084c-4.568,4.568-7.084,10.643-7.084,17.103s2.516,12.533,7.084,17.101
	c4.568,4.569,10.642,7.085,17.102,7.085s12.534-2.516,17.103-7.084c9.43-9.431,9.43-24.773,0-34.204
	C325.795,291.591,319.722,289.074,313.262,289.074z"/>
<path fill="#4DAD8D" d="M317.356,437.727c-10.528,0-19.945-6.279-23.992-15.998c-5.505-13.225,0.774-28.463,13.998-33.97
	c3.189-1.327,6.546-2.001,9.977-2.001c10.527,0,19.944,6.279,23.991,15.998c5.506,13.223-0.772,28.461-13.996,33.969
	C324.144,437.053,320.787,437.727,317.356,437.727z M317.339,395.758c-2.104,0-4.168,0.415-6.133,1.233
	c-8.134,3.387-11.996,12.76-8.609,20.894c2.489,5.979,8.282,9.842,14.76,9.842c2.104,0,4.168-0.415,6.133-1.233
	c8.134-3.388,11.996-12.761,8.609-20.894C329.608,399.621,323.815,395.758,317.339,395.758z"/>
<path fill="#4DAD8D" d="M250.001,373.649c-18.85,0-34.186-15.336-34.186-34.186s15.336-34.186,34.186-34.186
	s34.186,15.336,34.186,34.186S268.851,373.649,250.001,373.649z M250.001,315.278c-13.336,0-24.186,10.85-24.186,24.186
	s10.85,24.186,24.186,24.186s24.186-10.85,24.186-24.186S263.337,315.278,250.001,315.278z"/>
<path fill="#4DAD8D" d="M183.246,437.975c-3.398,0-6.727-0.661-9.891-1.965c-6.415-2.644-11.418-7.628-14.085-14.034
	s-2.68-13.467-0.036-19.883c4.027-9.771,13.459-16.086,24.028-16.086c3.397,0,6.724,0.661,9.888,1.964
	c13.244,5.457,19.579,20.672,14.123,33.916C203.247,431.66,193.815,437.975,183.246,437.975z M183.263,396.007
	c-6.503,0-12.306,3.885-14.782,9.896c-1.627,3.945-1.619,8.289,0.021,12.229c1.641,3.94,4.718,7.006,8.664,8.632
	c1.949,0.804,3.995,1.211,6.08,1.211c6.502,0,12.304-3.885,14.781-9.897c3.356-8.146-0.54-17.504-8.687-20.86
	C187.393,396.414,185.348,396.007,183.263,396.007z"/>
<path fill="#4DAD8D" d="M186.741,347.446c-9.132,0-17.717-3.556-24.173-10.013c-6.458-6.457-10.014-15.042-10.014-24.173
	s3.557-17.716,10.014-24.173c6.456-6.456,15.041-10.013,24.172-10.013s17.716,3.556,24.173,10.014
	c13.329,13.328,13.329,35.017,0,48.345C204.457,343.891,195.872,347.446,186.741,347.446z M186.74,289.075
	c-6.46,0-12.533,2.516-17.101,7.084c-4.569,4.568-7.085,10.642-7.085,17.102s2.516,12.534,7.084,17.103
	c4.568,4.567,10.642,7.083,17.103,7.083c6.46,0,12.533-2.516,17.102-7.083c9.43-9.431,9.43-24.773,0-34.204
	C199.274,291.591,193.2,289.075,186.74,289.075z"/>
<path fill="#4DAD8D" d="M88.269,343.332c-10.527,0-19.944-6.28-23.992-15.998c-2.668-6.407-2.681-13.468-0.037-19.884
	c2.645-6.416,7.628-11.419,14.034-14.086c3.189-1.327,6.546-2.001,9.977-2.001c10.526,0,19.943,6.279,23.991,15.997
	c5.506,13.225-0.772,28.464-13.996,33.97C95.056,342.658,91.699,343.332,88.269,343.332z M88.25,301.363
	c-2.104,0-4.168,0.415-6.133,1.233c-3.94,1.64-7.006,4.717-8.632,8.663s-1.618,8.29,0.022,12.229
	c2.49,5.979,8.284,9.843,14.761,9.843c2.104,0,4.168-0.415,6.133-1.233c8.133-3.387,11.995-12.76,8.608-20.894
	C100.52,305.227,94.726,301.363,88.25,301.363z"/>
<path fill="#4DAD8D" d="M160.537,284.187c-18.85,0-34.186-15.336-34.186-34.186s15.336-34.186,34.186-34.186
	s34.186,15.336,34.186,34.186S179.387,284.187,160.537,284.187z M160.537,225.815c-13.336,0-24.186,10.85-24.186,24.186
	s10.85,24.186,24.186,24.186s24.186-10.85,24.186-24.186S173.873,225.815,160.537,225.815z"/>
<path fill="#4DAD8D" d="M88.002,209.238c-3.397,0-6.725-0.661-9.889-1.965c-13.244-5.458-19.579-20.673-14.122-33.917
	c4.026-9.772,13.458-16.087,24.027-16.087c3.397,0,6.726,0.661,9.89,1.965c13.243,5.457,19.578,20.672,14.122,33.916
	C108.003,202.924,98.571,209.238,88.002,209.238z M88.019,167.27c-6.502,0-12.304,3.885-14.781,9.897
	c-3.356,8.146,0.54,17.504,8.687,20.86c1.949,0.804,3.994,1.211,6.078,1.211c6.503,0,12.305-3.885,14.782-9.897
	c3.355-8.146-0.541-17.504-8.687-20.86C92.148,167.677,90.103,167.27,88.019,167.27z"/>
<path fill="#4DAD8D" d="M186.74,220.927c-9.131,0-17.716-3.556-24.173-10.014c-13.329-13.328-13.329-35.017,0-48.345
	c6.457-6.458,15.042-10.014,24.173-10.014s17.716,3.557,24.173,10.014c6.456,6.456,10.013,15.041,10.013,24.173
	c0,9.131-3.557,17.716-10.014,24.173C204.456,217.37,195.871,220.927,186.74,220.927z M186.74,162.555
	c-6.46,0-12.534,2.516-17.103,7.084c-9.43,9.431-9.43,24.773,0,34.204c4.568,4.568,10.643,7.084,17.103,7.084
	s12.533-2.516,17.101-7.084c4.569-4.568,7.085-10.642,7.085-17.102c0-6.461-2.516-12.534-7.084-17.102
	C199.273,165.07,193.2,162.555,186.74,162.555z"/>
<path fill="#4DAD8D" d="M182.662,114.243c-10.528,0-19.944-6.279-23.991-15.998c-2.667-6.405-2.681-13.467-0.037-19.883
	c2.645-6.416,7.628-11.419,14.034-14.086c3.189-1.327,6.546-2.001,9.977-2.001c10.527,0,19.944,6.279,23.991,15.998
	c5.506,13.222-0.772,28.46-13.995,33.968C189.45,113.57,186.093,114.243,182.662,114.243z M182.645,72.275
	c-2.104,0-4.168,0.415-6.133,1.233c-3.94,1.64-7.006,4.717-8.632,8.663s-1.618,8.289,0.022,12.229
	c2.49,5.979,8.283,9.842,14.76,9.842c2.104,0,4.168-0.415,6.134-1.233c8.133-3.388,11.995-12.76,8.608-20.893
	C194.915,76.139,189.121,72.275,182.645,72.275z"/>
<path fill="#4DAD8D" d="M250,275.979c-6.939,0-13.463-2.702-18.37-7.608c-10.128-10.13-10.128-26.61-0.001-36.739
	c4.908-4.907,11.432-7.609,18.371-7.609s13.463,2.702,18.369,7.609c4.906,4.906,7.608,11.43,7.608,18.369s-2.702,13.463-7.609,18.37
	C263.463,273.276,256.939,275.979,250,275.979z M250,234.021c-4.269,0-8.281,1.662-11.3,4.681
	c-6.229,6.229-6.229,16.366,0.001,22.597c3.018,3.018,7.03,4.68,11.299,4.68c4.268,0,8.28-1.662,11.297-4.68
	c3.019-3.019,4.681-7.031,4.681-11.299s-1.662-8.28-4.68-11.298C258.28,235.684,254.268,234.021,250,234.021z"/>
</svg>
